M48
;DRILL file {KiCad 4.0.7} date Mon Jun 18 14:33:06 2018
;FORMAT={-:-/ absolute / metric / decimal}
FMAT,2
METRIC,TZ
T1C0.400
T2C0.800
T3C1.000
%
G90
G05
M71
T1
X72.517Y-117.856
X85.344Y-117.729
X100.203Y-119.38
X112.903Y-117.602
X121.285Y-38.862
X126.492Y-116.84
T2
X75.264Y-48.514
X80.264Y-48.514
X91.266Y-48.514
X96.266Y-48.514
X109.554Y-48.26
X114.554Y-48.26
X123.524Y-48.26
X128.524Y-48.26
X138.256Y-48.26
X143.256Y-48.26
T3
X65.215Y-115.379
X65.659Y-74.422
X65.659Y-81.788
X65.786Y-67.056
X65.786Y-89.154
X65.849Y-59.69
X67.754Y-115.379
X68.199Y-74.422
X68.199Y-81.788
X68.326Y-67.056
X68.326Y-89.154
X68.389Y-59.69
X70.739Y-74.422
X70.739Y-81.788
X70.866Y-67.056
X70.866Y-89.154
X70.929Y-59.69
X73.279Y-74.422
X73.279Y-81.788
X73.406Y-67.056
X73.406Y-89.154
X73.469Y-59.69
X78.74Y-115.57
X81.28Y-115.57
X85.852Y-59.69
X85.852Y-67.056
X85.852Y-74.422
X85.979Y-81.788
X85.979Y-89.154
X88.392Y-59.69
X88.392Y-67.056
X88.392Y-74.422
X88.519Y-81.788
X88.519Y-89.154
X90.932Y-59.69
X90.932Y-67.056
X90.932Y-74.422
X91.059Y-81.788
X91.059Y-89.154
X91.123Y-115.697
X93.472Y-59.69
X93.472Y-67.056
X93.472Y-74.422
X93.599Y-81.788
X93.599Y-89.154
X93.662Y-115.697
X104.14Y-73.66
X104.14Y-76.2
X104.14Y-78.74
X104.14Y-81.28
X104.14Y-83.82
X104.14Y-86.36
X104.14Y-88.9
X104.14Y-91.44
X104.14Y-93.98
X104.14Y-96.52
X105.346Y-115.506
X106.68Y-73.66
X106.68Y-76.2
X106.68Y-78.74
X106.68Y-81.28
X106.68Y-83.82
X106.68Y-86.36
X106.68Y-88.9
X106.68Y-91.44
X106.68Y-93.98
X106.68Y-96.52
X106.934Y-59.817
X107.886Y-115.506
X107.95Y-37.846
X109.22Y-73.66
X109.22Y-76.2
X109.22Y-78.74
X109.22Y-81.28
X109.22Y-83.82
X109.22Y-86.36
X109.22Y-88.9
X109.22Y-91.44
X109.22Y-93.98
X109.22Y-96.52
X109.474Y-59.817
X110.49Y-37.846
X111.76Y-73.66
X111.76Y-76.2
X111.76Y-78.74
X111.76Y-81.28
X111.76Y-83.82
X111.76Y-86.36
X111.76Y-88.9
X111.76Y-91.44
X111.76Y-93.98
X111.76Y-96.52
X112.014Y-59.817
X113.03Y-37.846
X114.3Y-73.66
X114.3Y-76.2
X114.3Y-78.74
X114.3Y-81.28
X114.3Y-83.82
X114.3Y-86.36
X114.3Y-88.9
X114.3Y-91.44
X114.3Y-93.98
X114.3Y-96.52
X114.554Y-59.817
X115.57Y-37.846
X118.554Y-115.506
X121.094Y-115.506
X125.857Y-67.056
X125.857Y-89.154
X125.88Y-59.75
X125.984Y-74.422
X125.984Y-81.788
X128.397Y-67.056
X128.397Y-89.154
X128.42Y-59.75
X128.524Y-74.422
X128.524Y-81.788
X130.937Y-67.056
X130.937Y-89.154
X130.937Y-104.902
X130.937Y-110.109
X130.96Y-59.75
X131.064Y-74.422
X131.064Y-81.788
X133.477Y-67.056
X133.477Y-89.154
X133.477Y-104.902
X133.477Y-110.109
X133.5Y-59.75
X133.604Y-74.422
X133.604Y-81.788
X136.017Y-104.902
X136.017Y-110.109
X145.923Y-67.056
X145.923Y-81.788
X146.05Y-74.422
X146.05Y-89.154
X146.08Y-59.7
X148.463Y-67.056
X148.463Y-81.788
X148.463Y-99.695
X148.463Y-102.235
X148.463Y-104.775
X148.463Y-107.315
X148.463Y-109.855
X148.463Y-112.395
X148.463Y-114.935
X148.463Y-117.475
X148.463Y-120.015
X148.463Y-122.555
X148.463Y-125.095
X148.59Y-74.422
X148.59Y-89.154
X148.62Y-59.7
X151.003Y-67.056
X151.003Y-81.788
X151.13Y-74.422
X151.13Y-89.154
X151.16Y-59.7
X153.543Y-67.056
X153.543Y-81.788
X153.67Y-74.422
X153.67Y-89.154
X153.7Y-59.7
T0
M30
