M48
;DRILL file {KiCad 4.0.7} date Wed Jun 20 13:02:46 2018
;FORMAT={-:-/ absolute / metric / decimal}
FMAT,2
METRIC,TZ
T1C0.400
T2C0.800
T3C1.000
T4C1.520
%
G90
G05
M71
T1
X92.083Y-117.364
X104.91Y-117.237
X119.769Y-118.888
X132.469Y-117.11
X146.058Y-116.348
T2
X67.5Y-36.5
X72.5Y-36.5
X87.Y-37.
X92.Y-37.
X107.5Y-37.5
X112.5Y-37.5
X125.Y-37.5
X130.Y-37.5
X142.Y-37.5
X147.Y-37.5
T3
X65.602Y-109.816
X65.856Y-120.906
X65.88Y-47.
X65.88Y-60.
X65.88Y-73.
X65.88Y-86.
X65.88Y-99.
X68.142Y-109.816
X68.396Y-120.906
X68.42Y-47.
X68.42Y-60.
X68.42Y-73.
X68.42Y-86.
X68.42Y-99.
X70.682Y-109.816
X70.936Y-120.906
X70.96Y-47.
X70.96Y-60.
X70.96Y-73.
X70.96Y-86.
X70.96Y-99.
X73.5Y-47.
X73.5Y-60.
X73.5Y-73.
X73.5Y-86.
X73.5Y-99.
X84.78Y-114.887
X85.88Y-47.
X85.88Y-60.5
X85.88Y-73.
X85.88Y-86.
X85.88Y-99.
X87.32Y-114.887
X88.42Y-47.
X88.42Y-60.5
X88.42Y-73.
X88.42Y-86.
X88.42Y-99.
X90.96Y-47.
X90.96Y-60.5
X90.96Y-73.
X90.96Y-86.
X90.96Y-99.
X93.5Y-47.
X93.5Y-60.5
X93.5Y-73.
X93.5Y-86.
X93.5Y-99.
X98.306Y-115.078
X100.846Y-115.078
X104.64Y-63.66
X104.64Y-66.2
X104.64Y-68.74
X104.64Y-71.28
X104.64Y-73.82
X104.64Y-76.36
X104.64Y-78.9
X104.64Y-81.44
X104.64Y-83.98
X104.64Y-86.52
X105.88Y-47.5
X107.18Y-63.66
X107.18Y-66.2
X107.18Y-68.74
X107.18Y-71.28
X107.18Y-73.82
X107.18Y-76.36
X107.18Y-78.9
X107.18Y-81.44
X107.18Y-83.98
X107.18Y-86.52
X108.42Y-47.5
X109.72Y-63.66
X109.72Y-66.2
X109.72Y-68.74
X109.72Y-71.28
X109.72Y-73.82
X109.72Y-76.36
X109.72Y-78.9
X109.72Y-81.44
X109.72Y-83.98
X109.72Y-86.52
X110.688Y-115.205
X110.96Y-47.5
X112.26Y-63.66
X112.26Y-66.2
X112.26Y-68.74
X112.26Y-71.28
X112.26Y-73.82
X112.26Y-76.36
X112.26Y-78.9
X112.26Y-81.44
X112.26Y-83.98
X112.26Y-86.52
X113.228Y-115.205
X113.5Y-47.5
X114.8Y-63.66
X114.8Y-66.2
X114.8Y-68.74
X114.8Y-71.28
X114.8Y-73.82
X114.8Y-76.36
X114.8Y-78.9
X114.8Y-81.44
X114.8Y-83.98
X114.8Y-86.52
X123.88Y-47.5
X123.88Y-60.5
X123.88Y-73.5
X123.88Y-86.5
X123.88Y-99.5
X124.912Y-115.014
X126.42Y-47.5
X126.42Y-60.5
X126.42Y-73.5
X126.42Y-86.5
X126.42Y-99.5
X127.453Y-115.014
X128.96Y-47.5
X128.96Y-60.5
X128.96Y-73.5
X128.96Y-86.5
X128.96Y-99.5
X131.5Y-47.5
X131.5Y-60.5
X131.5Y-73.5
X131.5Y-86.5
X131.5Y-99.5
X138.12Y-115.014
X140.66Y-115.014
X140.88Y-47.5
X140.88Y-60.
X140.88Y-73.5
X140.88Y-86.5
X140.88Y-99.5
X143.42Y-47.5
X143.42Y-60.
X143.42Y-73.5
X143.42Y-86.5
X143.42Y-99.5
X145.96Y-47.5
X145.96Y-60.
X145.96Y-73.5
X145.96Y-86.5
X145.96Y-99.5
X148.5Y-47.5
X148.5Y-60.
X148.5Y-73.5
X148.5Y-86.5
X148.5Y-99.5
X159.463Y-86.695
X159.463Y-89.235
X159.463Y-91.775
X159.463Y-94.315
X159.463Y-96.855
X159.463Y-99.395
X159.463Y-101.935
X159.463Y-104.475
X159.463Y-107.015
X159.463Y-109.555
X159.463Y-112.095
T4
X56.Y-63.26
X56.Y-68.34
X56.Y-73.42
X56.Y-78.5
T0
M30
