G04 #@! TF.FileFunction,Legend,Top*
%FSLAX46Y46*%
G04 Gerber Fmt 4.6, Leading zero omitted, Abs format (unit mm)*
G04 Created by KiCad (PCBNEW 4.0.7) date Wed Jun 20 13:02:34 2018*
%MOMM*%
%LPD*%
G01*
G04 APERTURE LIST*
%ADD10C,0.100000*%
%ADD11C,0.200000*%
%ADD12C,0.120000*%
%ADD13C,0.150000*%
G04 APERTURE END LIST*
D10*
D11*
X141668907Y-111798000D02*
G75*
G03X141668907Y-111798000I-1023907J0D01*
G01*
X128714907Y-111798000D02*
G75*
G03X128714907Y-111798000I-1023907J0D01*
G01*
X114490907Y-112052000D02*
G75*
G03X114490907Y-112052000I-1023907J0D01*
G01*
X101790907Y-111798000D02*
G75*
G03X101790907Y-111798000I-1023907J0D01*
G01*
X88328907Y-111798000D02*
G75*
G03X88328907Y-111798000I-1023907J0D01*
G01*
X67039907Y-113731000D02*
G75*
G03X67039907Y-113731000I-1023907J0D01*
G01*
X66293907Y-124821000D02*
G75*
G03X66293907Y-124821000I-1023907J0D01*
G01*
X57093907Y-82894000D02*
G75*
G03X57093907Y-82894000I-1023907J0D01*
G01*
X163661907Y-112095000D02*
G75*
G03X163661907Y-112095000I-1023907J0D01*
G01*
X114514907Y-51317000D02*
G75*
G03X114514907Y-51317000I-1023907J0D01*
G01*
X74366907Y-89915000D02*
G75*
G03X74366907Y-89915000I-1023907J0D01*
G01*
X74866907Y-102654000D02*
G75*
G03X74866907Y-102654000I-1023907J0D01*
G01*
X74493907Y-76795000D02*
G75*
G03X74493907Y-76795000I-1023907J0D01*
G01*
X74866907Y-64183000D02*
G75*
G03X74866907Y-64183000I-1023907J0D01*
G01*
X74493907Y-50817000D02*
G75*
G03X74493907Y-50817000I-1023907J0D01*
G01*
X94559907Y-50817000D02*
G75*
G03X94559907Y-50817000I-1023907J0D01*
G01*
X94932907Y-64683000D02*
G75*
G03X94932907Y-64683000I-1023907J0D01*
G01*
X94559907Y-76795000D02*
G75*
G03X94559907Y-76795000I-1023907J0D01*
G01*
X94932907Y-102654000D02*
G75*
G03X94932907Y-102654000I-1023907J0D01*
G01*
X94932907Y-89915000D02*
G75*
G03X94932907Y-89915000I-1023907J0D01*
G01*
X132937907Y-103415000D02*
G75*
G03X132937907Y-103415000I-1023907J0D01*
G01*
X133937907Y-90654000D02*
G75*
G03X133937907Y-90654000I-1023907J0D01*
G01*
X133064907Y-76795000D02*
G75*
G03X133064907Y-76795000I-1023907J0D01*
G01*
X132937907Y-64683000D02*
G75*
G03X132937907Y-64683000I-1023907J0D01*
G01*
X132564907Y-51317000D02*
G75*
G03X132564907Y-51317000I-1023907J0D01*
G01*
X149630907Y-51317000D02*
G75*
G03X149630907Y-51317000I-1023907J0D01*
G01*
X149503907Y-63683000D02*
G75*
G03X149503907Y-63683000I-1023907J0D01*
G01*
X149630907Y-77295000D02*
G75*
G03X149630907Y-77295000I-1023907J0D01*
G01*
X149749907Y-89788000D02*
G75*
G03X149749907Y-89788000I-1023907J0D01*
G01*
X150003907Y-103654000D02*
G75*
G03X150003907Y-103654000I-1023907J0D01*
G01*
D12*
X103310000Y-67530000D02*
X105970000Y-67530000D01*
X103310000Y-67470000D02*
X103310000Y-67530000D01*
X105970000Y-67470000D02*
X105970000Y-67530000D01*
X103310000Y-67470000D02*
X105970000Y-67470000D01*
X103310000Y-66200000D02*
X103310000Y-64870000D01*
X103310000Y-64870000D02*
X104640000Y-64870000D01*
X105850000Y-67530000D02*
X108510000Y-67530000D01*
X105850000Y-67470000D02*
X105850000Y-67530000D01*
X108510000Y-67470000D02*
X108510000Y-67530000D01*
X105850000Y-67470000D02*
X108510000Y-67470000D01*
X105850000Y-66200000D02*
X105850000Y-64870000D01*
X105850000Y-64870000D02*
X107180000Y-64870000D01*
X105850000Y-64990000D02*
X108510000Y-64990000D01*
X105850000Y-64930000D02*
X105850000Y-64990000D01*
X108510000Y-64930000D02*
X108510000Y-64990000D01*
X105850000Y-64930000D02*
X108510000Y-64930000D01*
X105850000Y-63660000D02*
X105850000Y-62330000D01*
X105850000Y-62330000D02*
X107180000Y-62330000D01*
X103310000Y-64990000D02*
X105970000Y-64990000D01*
X103310000Y-64930000D02*
X103310000Y-64990000D01*
X105970000Y-64930000D02*
X105970000Y-64990000D01*
X103310000Y-64930000D02*
X105970000Y-64930000D01*
X103310000Y-63660000D02*
X103310000Y-62330000D01*
X103310000Y-62330000D02*
X104640000Y-62330000D01*
X108390000Y-64990000D02*
X111050000Y-64990000D01*
X108390000Y-64930000D02*
X108390000Y-64990000D01*
X111050000Y-64930000D02*
X111050000Y-64990000D01*
X108390000Y-64930000D02*
X111050000Y-64930000D01*
X108390000Y-63660000D02*
X108390000Y-62330000D01*
X108390000Y-62330000D02*
X109720000Y-62330000D01*
X110930000Y-64990000D02*
X113590000Y-64990000D01*
X110930000Y-64930000D02*
X110930000Y-64990000D01*
X113590000Y-64930000D02*
X113590000Y-64990000D01*
X110930000Y-64930000D02*
X113590000Y-64930000D01*
X110930000Y-63660000D02*
X110930000Y-62330000D01*
X110930000Y-62330000D02*
X112260000Y-62330000D01*
X110930000Y-67530000D02*
X113590000Y-67530000D01*
X110930000Y-67470000D02*
X110930000Y-67530000D01*
X113590000Y-67470000D02*
X113590000Y-67530000D01*
X110930000Y-67470000D02*
X113590000Y-67470000D01*
X110930000Y-66200000D02*
X110930000Y-64870000D01*
X110930000Y-64870000D02*
X112260000Y-64870000D01*
X108390000Y-67530000D02*
X111050000Y-67530000D01*
X108390000Y-67470000D02*
X108390000Y-67530000D01*
X111050000Y-67470000D02*
X111050000Y-67530000D01*
X108390000Y-67470000D02*
X111050000Y-67470000D01*
X108390000Y-66200000D02*
X108390000Y-64870000D01*
X108390000Y-64870000D02*
X109720000Y-64870000D01*
X113470000Y-67530000D02*
X116130000Y-67530000D01*
X113470000Y-67470000D02*
X113470000Y-67530000D01*
X116130000Y-67470000D02*
X116130000Y-67530000D01*
X113470000Y-67470000D02*
X116130000Y-67470000D01*
X113470000Y-66200000D02*
X113470000Y-64870000D01*
X113470000Y-64870000D02*
X114800000Y-64870000D01*
X113470000Y-64990000D02*
X116130000Y-64990000D01*
X113470000Y-64930000D02*
X113470000Y-64990000D01*
X116130000Y-64930000D02*
X116130000Y-64990000D01*
X113470000Y-64930000D02*
X116130000Y-64930000D01*
X113470000Y-63660000D02*
X113470000Y-62330000D01*
X113470000Y-62330000D02*
X114800000Y-62330000D01*
X103310000Y-77690000D02*
X105970000Y-77690000D01*
X103310000Y-77630000D02*
X103310000Y-77690000D01*
X105970000Y-77630000D02*
X105970000Y-77690000D01*
X103310000Y-77630000D02*
X105970000Y-77630000D01*
X103310000Y-76360000D02*
X103310000Y-75030000D01*
X103310000Y-75030000D02*
X104640000Y-75030000D01*
X105850000Y-77690000D02*
X108510000Y-77690000D01*
X105850000Y-77630000D02*
X105850000Y-77690000D01*
X108510000Y-77630000D02*
X108510000Y-77690000D01*
X105850000Y-77630000D02*
X108510000Y-77630000D01*
X105850000Y-76360000D02*
X105850000Y-75030000D01*
X105850000Y-75030000D02*
X107180000Y-75030000D01*
X105850000Y-75150000D02*
X108510000Y-75150000D01*
X105850000Y-75090000D02*
X105850000Y-75150000D01*
X108510000Y-75090000D02*
X108510000Y-75150000D01*
X105850000Y-75090000D02*
X108510000Y-75090000D01*
X105850000Y-73820000D02*
X105850000Y-72490000D01*
X105850000Y-72490000D02*
X107180000Y-72490000D01*
X103310000Y-75150000D02*
X105970000Y-75150000D01*
X103310000Y-75090000D02*
X103310000Y-75150000D01*
X105970000Y-75090000D02*
X105970000Y-75150000D01*
X103310000Y-75090000D02*
X105970000Y-75090000D01*
X103310000Y-73820000D02*
X103310000Y-72490000D01*
X103310000Y-72490000D02*
X104640000Y-72490000D01*
X108390000Y-75150000D02*
X111050000Y-75150000D01*
X108390000Y-75090000D02*
X108390000Y-75150000D01*
X111050000Y-75090000D02*
X111050000Y-75150000D01*
X108390000Y-75090000D02*
X111050000Y-75090000D01*
X108390000Y-73820000D02*
X108390000Y-72490000D01*
X108390000Y-72490000D02*
X109720000Y-72490000D01*
X110930000Y-75150000D02*
X113590000Y-75150000D01*
X110930000Y-75090000D02*
X110930000Y-75150000D01*
X113590000Y-75090000D02*
X113590000Y-75150000D01*
X110930000Y-75090000D02*
X113590000Y-75090000D01*
X110930000Y-73820000D02*
X110930000Y-72490000D01*
X110930000Y-72490000D02*
X112260000Y-72490000D01*
X110930000Y-77690000D02*
X113590000Y-77690000D01*
X110930000Y-77630000D02*
X110930000Y-77690000D01*
X113590000Y-77630000D02*
X113590000Y-77690000D01*
X110930000Y-77630000D02*
X113590000Y-77630000D01*
X110930000Y-76360000D02*
X110930000Y-75030000D01*
X110930000Y-75030000D02*
X112260000Y-75030000D01*
X108390000Y-77690000D02*
X111050000Y-77690000D01*
X108390000Y-77630000D02*
X108390000Y-77690000D01*
X111050000Y-77630000D02*
X111050000Y-77690000D01*
X108390000Y-77630000D02*
X111050000Y-77630000D01*
X108390000Y-76360000D02*
X108390000Y-75030000D01*
X108390000Y-75030000D02*
X109720000Y-75030000D01*
X113470000Y-77690000D02*
X116130000Y-77690000D01*
X113470000Y-77630000D02*
X113470000Y-77690000D01*
X116130000Y-77630000D02*
X116130000Y-77690000D01*
X113470000Y-77630000D02*
X116130000Y-77630000D01*
X113470000Y-76360000D02*
X113470000Y-75030000D01*
X113470000Y-75030000D02*
X114800000Y-75030000D01*
X113470000Y-75150000D02*
X116130000Y-75150000D01*
X113470000Y-75090000D02*
X113470000Y-75150000D01*
X116130000Y-75090000D02*
X116130000Y-75150000D01*
X113470000Y-75090000D02*
X116130000Y-75090000D01*
X113470000Y-73820000D02*
X113470000Y-72490000D01*
X113470000Y-72490000D02*
X114800000Y-72490000D01*
X113470000Y-70070000D02*
X116130000Y-70070000D01*
X113470000Y-70010000D02*
X113470000Y-70070000D01*
X116130000Y-70010000D02*
X116130000Y-70070000D01*
X113470000Y-70010000D02*
X116130000Y-70010000D01*
X113470000Y-68740000D02*
X113470000Y-67410000D01*
X113470000Y-67410000D02*
X114800000Y-67410000D01*
X113470000Y-72610000D02*
X116130000Y-72610000D01*
X113470000Y-72550000D02*
X113470000Y-72610000D01*
X116130000Y-72550000D02*
X116130000Y-72610000D01*
X113470000Y-72550000D02*
X116130000Y-72550000D01*
X113470000Y-71280000D02*
X113470000Y-69950000D01*
X113470000Y-69950000D02*
X114800000Y-69950000D01*
X108390000Y-72610000D02*
X111050000Y-72610000D01*
X108390000Y-72550000D02*
X108390000Y-72610000D01*
X111050000Y-72550000D02*
X111050000Y-72610000D01*
X108390000Y-72550000D02*
X111050000Y-72550000D01*
X108390000Y-71280000D02*
X108390000Y-69950000D01*
X108390000Y-69950000D02*
X109720000Y-69950000D01*
X110930000Y-72610000D02*
X113590000Y-72610000D01*
X110930000Y-72550000D02*
X110930000Y-72610000D01*
X113590000Y-72550000D02*
X113590000Y-72610000D01*
X110930000Y-72550000D02*
X113590000Y-72550000D01*
X110930000Y-71280000D02*
X110930000Y-69950000D01*
X110930000Y-69950000D02*
X112260000Y-69950000D01*
X110930000Y-70070000D02*
X113590000Y-70070000D01*
X110930000Y-70010000D02*
X110930000Y-70070000D01*
X113590000Y-70010000D02*
X113590000Y-70070000D01*
X110930000Y-70010000D02*
X113590000Y-70010000D01*
X110930000Y-68740000D02*
X110930000Y-67410000D01*
X110930000Y-67410000D02*
X112260000Y-67410000D01*
X108390000Y-70070000D02*
X111050000Y-70070000D01*
X108390000Y-70010000D02*
X108390000Y-70070000D01*
X111050000Y-70010000D02*
X111050000Y-70070000D01*
X108390000Y-70010000D02*
X111050000Y-70010000D01*
X108390000Y-68740000D02*
X108390000Y-67410000D01*
X108390000Y-67410000D02*
X109720000Y-67410000D01*
X103310000Y-70070000D02*
X105970000Y-70070000D01*
X103310000Y-70010000D02*
X103310000Y-70070000D01*
X105970000Y-70010000D02*
X105970000Y-70070000D01*
X103310000Y-70010000D02*
X105970000Y-70010000D01*
X103310000Y-68740000D02*
X103310000Y-67410000D01*
X103310000Y-67410000D02*
X104640000Y-67410000D01*
X105850000Y-70070000D02*
X108510000Y-70070000D01*
X105850000Y-70010000D02*
X105850000Y-70070000D01*
X108510000Y-70010000D02*
X108510000Y-70070000D01*
X105850000Y-70010000D02*
X108510000Y-70010000D01*
X105850000Y-68740000D02*
X105850000Y-67410000D01*
X105850000Y-67410000D02*
X107180000Y-67410000D01*
X105850000Y-72610000D02*
X108510000Y-72610000D01*
X105850000Y-72550000D02*
X105850000Y-72610000D01*
X108510000Y-72550000D02*
X108510000Y-72610000D01*
X105850000Y-72550000D02*
X108510000Y-72550000D01*
X105850000Y-71280000D02*
X105850000Y-69950000D01*
X105850000Y-69950000D02*
X107180000Y-69950000D01*
X103310000Y-72610000D02*
X105970000Y-72610000D01*
X103310000Y-72550000D02*
X103310000Y-72610000D01*
X105970000Y-72550000D02*
X105970000Y-72610000D01*
X103310000Y-72550000D02*
X105970000Y-72550000D01*
X103310000Y-71280000D02*
X103310000Y-69950000D01*
X103310000Y-69950000D02*
X104640000Y-69950000D01*
X103310000Y-82770000D02*
X105970000Y-82770000D01*
X103310000Y-82710000D02*
X103310000Y-82770000D01*
X105970000Y-82710000D02*
X105970000Y-82770000D01*
X103310000Y-82710000D02*
X105970000Y-82710000D01*
X103310000Y-81440000D02*
X103310000Y-80110000D01*
X103310000Y-80110000D02*
X104640000Y-80110000D01*
X105850000Y-82770000D02*
X108510000Y-82770000D01*
X105850000Y-82710000D02*
X105850000Y-82770000D01*
X108510000Y-82710000D02*
X108510000Y-82770000D01*
X105850000Y-82710000D02*
X108510000Y-82710000D01*
X105850000Y-81440000D02*
X105850000Y-80110000D01*
X105850000Y-80110000D02*
X107180000Y-80110000D01*
X105850000Y-80230000D02*
X108510000Y-80230000D01*
X105850000Y-80170000D02*
X105850000Y-80230000D01*
X108510000Y-80170000D02*
X108510000Y-80230000D01*
X105850000Y-80170000D02*
X108510000Y-80170000D01*
X105850000Y-78900000D02*
X105850000Y-77570000D01*
X105850000Y-77570000D02*
X107180000Y-77570000D01*
X103310000Y-80230000D02*
X105970000Y-80230000D01*
X103310000Y-80170000D02*
X103310000Y-80230000D01*
X105970000Y-80170000D02*
X105970000Y-80230000D01*
X103310000Y-80170000D02*
X105970000Y-80170000D01*
X103310000Y-78900000D02*
X103310000Y-77570000D01*
X103310000Y-77570000D02*
X104640000Y-77570000D01*
X108390000Y-80230000D02*
X111050000Y-80230000D01*
X108390000Y-80170000D02*
X108390000Y-80230000D01*
X111050000Y-80170000D02*
X111050000Y-80230000D01*
X108390000Y-80170000D02*
X111050000Y-80170000D01*
X108390000Y-78900000D02*
X108390000Y-77570000D01*
X108390000Y-77570000D02*
X109720000Y-77570000D01*
X110930000Y-80230000D02*
X113590000Y-80230000D01*
X110930000Y-80170000D02*
X110930000Y-80230000D01*
X113590000Y-80170000D02*
X113590000Y-80230000D01*
X110930000Y-80170000D02*
X113590000Y-80170000D01*
X110930000Y-78900000D02*
X110930000Y-77570000D01*
X110930000Y-77570000D02*
X112260000Y-77570000D01*
X110930000Y-82770000D02*
X113590000Y-82770000D01*
X110930000Y-82710000D02*
X110930000Y-82770000D01*
X113590000Y-82710000D02*
X113590000Y-82770000D01*
X110930000Y-82710000D02*
X113590000Y-82710000D01*
X110930000Y-81440000D02*
X110930000Y-80110000D01*
X110930000Y-80110000D02*
X112260000Y-80110000D01*
X108390000Y-82770000D02*
X111050000Y-82770000D01*
X108390000Y-82710000D02*
X108390000Y-82770000D01*
X111050000Y-82710000D02*
X111050000Y-82770000D01*
X108390000Y-82710000D02*
X111050000Y-82710000D01*
X108390000Y-81440000D02*
X108390000Y-80110000D01*
X108390000Y-80110000D02*
X109720000Y-80110000D01*
X113470000Y-82770000D02*
X116130000Y-82770000D01*
X113470000Y-82710000D02*
X113470000Y-82770000D01*
X116130000Y-82710000D02*
X116130000Y-82770000D01*
X113470000Y-82710000D02*
X116130000Y-82710000D01*
X113470000Y-81440000D02*
X113470000Y-80110000D01*
X113470000Y-80110000D02*
X114800000Y-80110000D01*
X113470000Y-80230000D02*
X116130000Y-80230000D01*
X113470000Y-80170000D02*
X113470000Y-80230000D01*
X116130000Y-80170000D02*
X116130000Y-80230000D01*
X113470000Y-80170000D02*
X116130000Y-80170000D01*
X113470000Y-78900000D02*
X113470000Y-77570000D01*
X113470000Y-77570000D02*
X114800000Y-77570000D01*
X113470000Y-85310000D02*
X116130000Y-85310000D01*
X113470000Y-85250000D02*
X113470000Y-85310000D01*
X116130000Y-85250000D02*
X116130000Y-85310000D01*
X113470000Y-85250000D02*
X116130000Y-85250000D01*
X113470000Y-83980000D02*
X113470000Y-82650000D01*
X113470000Y-82650000D02*
X114800000Y-82650000D01*
X113470000Y-87850000D02*
X116130000Y-87850000D01*
X113470000Y-87790000D02*
X113470000Y-87850000D01*
X116130000Y-87790000D02*
X116130000Y-87850000D01*
X113470000Y-87790000D02*
X116130000Y-87790000D01*
X113470000Y-86520000D02*
X113470000Y-85190000D01*
X113470000Y-85190000D02*
X114800000Y-85190000D01*
X108390000Y-87850000D02*
X111050000Y-87850000D01*
X108390000Y-87790000D02*
X108390000Y-87850000D01*
X111050000Y-87790000D02*
X111050000Y-87850000D01*
X108390000Y-87790000D02*
X111050000Y-87790000D01*
X108390000Y-86520000D02*
X108390000Y-85190000D01*
X108390000Y-85190000D02*
X109720000Y-85190000D01*
X110930000Y-87850000D02*
X113590000Y-87850000D01*
X110930000Y-87790000D02*
X110930000Y-87850000D01*
X113590000Y-87790000D02*
X113590000Y-87850000D01*
X110930000Y-87790000D02*
X113590000Y-87790000D01*
X110930000Y-86520000D02*
X110930000Y-85190000D01*
X110930000Y-85190000D02*
X112260000Y-85190000D01*
X110930000Y-85310000D02*
X113590000Y-85310000D01*
X110930000Y-85250000D02*
X110930000Y-85310000D01*
X113590000Y-85250000D02*
X113590000Y-85310000D01*
X110930000Y-85250000D02*
X113590000Y-85250000D01*
X110930000Y-83980000D02*
X110930000Y-82650000D01*
X110930000Y-82650000D02*
X112260000Y-82650000D01*
X108390000Y-85310000D02*
X111050000Y-85310000D01*
X108390000Y-85250000D02*
X108390000Y-85310000D01*
X111050000Y-85250000D02*
X111050000Y-85310000D01*
X108390000Y-85250000D02*
X111050000Y-85250000D01*
X108390000Y-83980000D02*
X108390000Y-82650000D01*
X108390000Y-82650000D02*
X109720000Y-82650000D01*
X103310000Y-85310000D02*
X105970000Y-85310000D01*
X103310000Y-85250000D02*
X103310000Y-85310000D01*
X105970000Y-85250000D02*
X105970000Y-85310000D01*
X103310000Y-85250000D02*
X105970000Y-85250000D01*
X103310000Y-83980000D02*
X103310000Y-82650000D01*
X103310000Y-82650000D02*
X104640000Y-82650000D01*
X105850000Y-85310000D02*
X108510000Y-85310000D01*
X105850000Y-85250000D02*
X105850000Y-85310000D01*
X108510000Y-85250000D02*
X108510000Y-85310000D01*
X105850000Y-85250000D02*
X108510000Y-85250000D01*
X105850000Y-83980000D02*
X105850000Y-82650000D01*
X105850000Y-82650000D02*
X107180000Y-82650000D01*
X105850000Y-87850000D02*
X108510000Y-87850000D01*
X105850000Y-87790000D02*
X105850000Y-87850000D01*
X108510000Y-87790000D02*
X108510000Y-87850000D01*
X105850000Y-87790000D02*
X108510000Y-87790000D01*
X105850000Y-86520000D02*
X105850000Y-85190000D01*
X105850000Y-85190000D02*
X107180000Y-85190000D01*
X103310000Y-87850000D02*
X105970000Y-87850000D01*
X103310000Y-87790000D02*
X103310000Y-87850000D01*
X105970000Y-87790000D02*
X105970000Y-87850000D01*
X103310000Y-87790000D02*
X105970000Y-87790000D01*
X103310000Y-86520000D02*
X103310000Y-85190000D01*
X103310000Y-85190000D02*
X104640000Y-85190000D01*
X122550000Y-98170000D02*
X122550000Y-100830000D01*
X130230000Y-98170000D02*
X122550000Y-98170000D01*
X130230000Y-100830000D02*
X122550000Y-100830000D01*
X130230000Y-98170000D02*
X130230000Y-100830000D01*
X131500000Y-98170000D02*
X132830000Y-98170000D01*
X132830000Y-98170000D02*
X132830000Y-99500000D01*
X92011500Y-120609000D02*
X91011500Y-120609000D01*
X91011500Y-122309000D02*
X92011500Y-122309000D01*
X103076000Y-120863000D02*
X102076000Y-120863000D01*
X102076000Y-122563000D02*
X103076000Y-122563000D01*
X114823000Y-120275500D02*
X113823000Y-120275500D01*
X113823000Y-121975500D02*
X114823000Y-121975500D01*
X131269500Y-119355000D02*
X130269500Y-119355000D01*
X130269500Y-121055000D02*
X131269500Y-121055000D01*
X144619500Y-118640500D02*
X143619500Y-118640500D01*
X143619500Y-120340500D02*
X144619500Y-120340500D01*
X64550000Y-45670000D02*
X64550000Y-48330000D01*
X72230000Y-45670000D02*
X64550000Y-45670000D01*
X72230000Y-48330000D02*
X64550000Y-48330000D01*
X72230000Y-45670000D02*
X72230000Y-48330000D01*
X73500000Y-45670000D02*
X74830000Y-45670000D01*
X74830000Y-45670000D02*
X74830000Y-47000000D01*
X64550000Y-58670000D02*
X64550000Y-61330000D01*
X72230000Y-58670000D02*
X64550000Y-58670000D01*
X72230000Y-61330000D02*
X64550000Y-61330000D01*
X72230000Y-58670000D02*
X72230000Y-61330000D01*
X73500000Y-58670000D02*
X74830000Y-58670000D01*
X74830000Y-58670000D02*
X74830000Y-60000000D01*
X64550000Y-71670000D02*
X64550000Y-74330000D01*
X72230000Y-71670000D02*
X64550000Y-71670000D01*
X72230000Y-74330000D02*
X64550000Y-74330000D01*
X72230000Y-71670000D02*
X72230000Y-74330000D01*
X73500000Y-71670000D02*
X74830000Y-71670000D01*
X74830000Y-71670000D02*
X74830000Y-73000000D01*
X64550000Y-84670000D02*
X64550000Y-87330000D01*
X72230000Y-84670000D02*
X64550000Y-84670000D01*
X72230000Y-87330000D02*
X64550000Y-87330000D01*
X72230000Y-84670000D02*
X72230000Y-87330000D01*
X73500000Y-84670000D02*
X74830000Y-84670000D01*
X74830000Y-84670000D02*
X74830000Y-86000000D01*
X83450500Y-113557500D02*
X83450500Y-116217500D01*
X86050500Y-113557500D02*
X83450500Y-113557500D01*
X86050500Y-116217500D02*
X83450500Y-116217500D01*
X86050500Y-113557500D02*
X86050500Y-116217500D01*
X87320500Y-113557500D02*
X88650500Y-113557500D01*
X88650500Y-113557500D02*
X88650500Y-114887500D01*
X96976000Y-113748000D02*
X96976000Y-116408000D01*
X99576000Y-113748000D02*
X96976000Y-113748000D01*
X99576000Y-116408000D02*
X96976000Y-116408000D01*
X99576000Y-113748000D02*
X99576000Y-116408000D01*
X100846000Y-113748000D02*
X102176000Y-113748000D01*
X102176000Y-113748000D02*
X102176000Y-115078000D01*
X84550000Y-97670000D02*
X84550000Y-100330000D01*
X92230000Y-97670000D02*
X84550000Y-97670000D01*
X92230000Y-100330000D02*
X84550000Y-100330000D01*
X92230000Y-97670000D02*
X92230000Y-100330000D01*
X93500000Y-97670000D02*
X94830000Y-97670000D01*
X94830000Y-97670000D02*
X94830000Y-99000000D01*
X84550000Y-84670000D02*
X84550000Y-87330000D01*
X92230000Y-84670000D02*
X84550000Y-84670000D01*
X92230000Y-87330000D02*
X84550000Y-87330000D01*
X92230000Y-84670000D02*
X92230000Y-87330000D01*
X93500000Y-84670000D02*
X94830000Y-84670000D01*
X94830000Y-84670000D02*
X94830000Y-86000000D01*
X84550000Y-71670000D02*
X84550000Y-74330000D01*
X92230000Y-71670000D02*
X84550000Y-71670000D01*
X92230000Y-74330000D02*
X84550000Y-74330000D01*
X92230000Y-71670000D02*
X92230000Y-74330000D01*
X93500000Y-71670000D02*
X94830000Y-71670000D01*
X94830000Y-71670000D02*
X94830000Y-73000000D01*
X84550000Y-59170000D02*
X84550000Y-61830000D01*
X92230000Y-59170000D02*
X84550000Y-59170000D01*
X92230000Y-61830000D02*
X84550000Y-61830000D01*
X92230000Y-59170000D02*
X92230000Y-61830000D01*
X93500000Y-59170000D02*
X94830000Y-59170000D01*
X94830000Y-59170000D02*
X94830000Y-60500000D01*
X104550000Y-46170000D02*
X104550000Y-48830000D01*
X112230000Y-46170000D02*
X104550000Y-46170000D01*
X112230000Y-48830000D02*
X104550000Y-48830000D01*
X112230000Y-46170000D02*
X112230000Y-48830000D01*
X113500000Y-46170000D02*
X114830000Y-46170000D01*
X114830000Y-46170000D02*
X114830000Y-47500000D01*
X109358500Y-113875000D02*
X109358500Y-116535000D01*
X111958500Y-113875000D02*
X109358500Y-113875000D01*
X111958500Y-116535000D02*
X109358500Y-116535000D01*
X111958500Y-113875000D02*
X111958500Y-116535000D01*
X113228500Y-113875000D02*
X114558500Y-113875000D01*
X114558500Y-113875000D02*
X114558500Y-115205000D01*
X122550000Y-46170000D02*
X122550000Y-48830000D01*
X130230000Y-46170000D02*
X122550000Y-46170000D01*
X130230000Y-48830000D02*
X122550000Y-48830000D01*
X130230000Y-46170000D02*
X130230000Y-48830000D01*
X131500000Y-46170000D02*
X132830000Y-46170000D01*
X132830000Y-46170000D02*
X132830000Y-47500000D01*
X122550000Y-59170000D02*
X122550000Y-61830000D01*
X130230000Y-59170000D02*
X122550000Y-59170000D01*
X130230000Y-61830000D02*
X122550000Y-61830000D01*
X130230000Y-59170000D02*
X130230000Y-61830000D01*
X131500000Y-59170000D02*
X132830000Y-59170000D01*
X132830000Y-59170000D02*
X132830000Y-60500000D01*
X122550000Y-72170000D02*
X122550000Y-74830000D01*
X130230000Y-72170000D02*
X122550000Y-72170000D01*
X130230000Y-74830000D02*
X122550000Y-74830000D01*
X130230000Y-72170000D02*
X130230000Y-74830000D01*
X131500000Y-72170000D02*
X132830000Y-72170000D01*
X132830000Y-72170000D02*
X132830000Y-73500000D01*
X122550000Y-85170000D02*
X122550000Y-87830000D01*
X130230000Y-85170000D02*
X122550000Y-85170000D01*
X130230000Y-87830000D02*
X122550000Y-87830000D01*
X130230000Y-85170000D02*
X130230000Y-87830000D01*
X131500000Y-85170000D02*
X132830000Y-85170000D01*
X132830000Y-85170000D02*
X132830000Y-86500000D01*
X123582500Y-113684500D02*
X123582500Y-116344500D01*
X126182500Y-113684500D02*
X123582500Y-113684500D01*
X126182500Y-116344500D02*
X123582500Y-116344500D01*
X126182500Y-113684500D02*
X126182500Y-116344500D01*
X127452500Y-113684500D02*
X128782500Y-113684500D01*
X128782500Y-113684500D02*
X128782500Y-115014500D01*
X139550000Y-98170000D02*
X139550000Y-100830000D01*
X147230000Y-98170000D02*
X139550000Y-98170000D01*
X147230000Y-100830000D02*
X139550000Y-100830000D01*
X147230000Y-98170000D02*
X147230000Y-100830000D01*
X148500000Y-98170000D02*
X149830000Y-98170000D01*
X149830000Y-98170000D02*
X149830000Y-99500000D01*
X139550000Y-85170000D02*
X139550000Y-87830000D01*
X147230000Y-85170000D02*
X139550000Y-85170000D01*
X147230000Y-87830000D02*
X139550000Y-87830000D01*
X147230000Y-85170000D02*
X147230000Y-87830000D01*
X148500000Y-85170000D02*
X149830000Y-85170000D01*
X149830000Y-85170000D02*
X149830000Y-86500000D01*
X139550000Y-72170000D02*
X139550000Y-74830000D01*
X147230000Y-72170000D02*
X139550000Y-72170000D01*
X147230000Y-74830000D02*
X139550000Y-74830000D01*
X147230000Y-72170000D02*
X147230000Y-74830000D01*
X148500000Y-72170000D02*
X149830000Y-72170000D01*
X149830000Y-72170000D02*
X149830000Y-73500000D01*
X139550000Y-58670000D02*
X139550000Y-61330000D01*
X147230000Y-58670000D02*
X139550000Y-58670000D01*
X147230000Y-61330000D02*
X139550000Y-61330000D01*
X147230000Y-58670000D02*
X147230000Y-61330000D01*
X148500000Y-58670000D02*
X149830000Y-58670000D01*
X149830000Y-58670000D02*
X149830000Y-60000000D01*
X136790500Y-113684500D02*
X136790500Y-116344500D01*
X139390500Y-113684500D02*
X136790500Y-113684500D01*
X139390500Y-116344500D02*
X136790500Y-116344500D01*
X139390500Y-113684500D02*
X139390500Y-116344500D01*
X140660500Y-113684500D02*
X141990500Y-113684500D01*
X141990500Y-113684500D02*
X141990500Y-115014500D01*
X72012000Y-111146000D02*
X72012000Y-108486000D01*
X66872000Y-111146000D02*
X72012000Y-111146000D01*
X66872000Y-108486000D02*
X72012000Y-108486000D01*
X66872000Y-111146000D02*
X66872000Y-108486000D01*
X65602000Y-111146000D02*
X64272000Y-111146000D01*
X64272000Y-111146000D02*
X64272000Y-109816000D01*
X72266000Y-122236000D02*
X72266000Y-119576000D01*
X67126000Y-122236000D02*
X72266000Y-122236000D01*
X67126000Y-119576000D02*
X72266000Y-119576000D01*
X67126000Y-122236000D02*
X67126000Y-119576000D01*
X65856000Y-122236000D02*
X64526000Y-122236000D01*
X64526000Y-122236000D02*
X64526000Y-120906000D01*
X160793000Y-85365000D02*
X158133000Y-85365000D01*
X160793000Y-110825000D02*
X160793000Y-85365000D01*
X158133000Y-110825000D02*
X158133000Y-85365000D01*
X160793000Y-110825000D02*
X158133000Y-110825000D01*
X160793000Y-112095000D02*
X160793000Y-113425000D01*
X160793000Y-113425000D02*
X159463000Y-113425000D01*
X82783500Y-109118000D02*
X83983500Y-109118000D01*
X83983500Y-110878000D02*
X82783500Y-110878000D01*
X85279500Y-122637000D02*
X85279500Y-123837000D01*
X83519500Y-123837000D02*
X83519500Y-122637000D01*
X96245500Y-109435500D02*
X97445500Y-109435500D01*
X97445500Y-111195500D02*
X96245500Y-111195500D01*
X98122000Y-122383000D02*
X98122000Y-123583000D01*
X96362000Y-123583000D02*
X96362000Y-122383000D01*
X108755000Y-109181500D02*
X109955000Y-109181500D01*
X109955000Y-110941500D02*
X108755000Y-110941500D01*
X109996000Y-122430500D02*
X109996000Y-123630500D01*
X108236000Y-123630500D02*
X108236000Y-122430500D01*
X123360000Y-109689500D02*
X124560000Y-109689500D01*
X124560000Y-111449500D02*
X123360000Y-111449500D01*
X126823500Y-121002000D02*
X126823500Y-122202000D01*
X125063500Y-122202000D02*
X125063500Y-121002000D01*
X135742500Y-109181500D02*
X136942500Y-109181500D01*
X136942500Y-110941500D02*
X135742500Y-110941500D01*
X140935500Y-121176500D02*
X140935500Y-122376500D01*
X139175500Y-122376500D02*
X139175500Y-121176500D01*
X64550000Y-97670000D02*
X64550000Y-100330000D01*
X72230000Y-97670000D02*
X64550000Y-97670000D01*
X72230000Y-100330000D02*
X64550000Y-100330000D01*
X72230000Y-97670000D02*
X72230000Y-100330000D01*
X73500000Y-97670000D02*
X74830000Y-97670000D01*
X74830000Y-97670000D02*
X74830000Y-99000000D01*
X84550000Y-45670000D02*
X84550000Y-48330000D01*
X92230000Y-45670000D02*
X84550000Y-45670000D01*
X92230000Y-48330000D02*
X84550000Y-48330000D01*
X92230000Y-45670000D02*
X92230000Y-48330000D01*
X93500000Y-45670000D02*
X94830000Y-45670000D01*
X94830000Y-45670000D02*
X94830000Y-47000000D01*
X139550000Y-46170000D02*
X139550000Y-48830000D01*
X147230000Y-46170000D02*
X139550000Y-46170000D01*
X147230000Y-48830000D02*
X139550000Y-48830000D01*
X147230000Y-46170000D02*
X147230000Y-48830000D01*
X148500000Y-46170000D02*
X149830000Y-46170000D01*
X149830000Y-46170000D02*
X149830000Y-47500000D01*
X66083149Y-37677445D02*
G75*
G03X73916082Y-37680000I3916851J1177445D01*
G01*
X66083149Y-35322555D02*
G75*
G02X73916082Y-35320000I3916851J-1177445D01*
G01*
X66083149Y-35322555D02*
G75*
G03X66083918Y-37680000I3916851J-1177445D01*
G01*
X70000000Y-40550000D02*
X70000000Y-32450000D01*
X69960000Y-40550000D02*
X69960000Y-32450000D01*
X69920000Y-40550000D02*
X69920000Y-32450000D01*
X69880000Y-40549000D02*
X69880000Y-32451000D01*
X69840000Y-40547000D02*
X69840000Y-32453000D01*
X69800000Y-40546000D02*
X69800000Y-32454000D01*
X69760000Y-40543000D02*
X69760000Y-32457000D01*
X69720000Y-40541000D02*
X69720000Y-32459000D01*
X69680000Y-40538000D02*
X69680000Y-32462000D01*
X69640000Y-40535000D02*
X69640000Y-32465000D01*
X69600000Y-40531000D02*
X69600000Y-32469000D01*
X69560000Y-40527000D02*
X69560000Y-32473000D01*
X69520000Y-40522000D02*
X69520000Y-32478000D01*
X69480000Y-40517000D02*
X69480000Y-32483000D01*
X69440000Y-40512000D02*
X69440000Y-32488000D01*
X69400000Y-40506000D02*
X69400000Y-32494000D01*
X69360000Y-40500000D02*
X69360000Y-32500000D01*
X69320000Y-40494000D02*
X69320000Y-32506000D01*
X69279000Y-40487000D02*
X69279000Y-32513000D01*
X69239000Y-40479000D02*
X69239000Y-32521000D01*
X69199000Y-40471000D02*
X69199000Y-32529000D01*
X69159000Y-40463000D02*
X69159000Y-32537000D01*
X69119000Y-40455000D02*
X69119000Y-32545000D01*
X69079000Y-40446000D02*
X69079000Y-32554000D01*
X69039000Y-40436000D02*
X69039000Y-32564000D01*
X68999000Y-40426000D02*
X68999000Y-32574000D01*
X68959000Y-40416000D02*
X68959000Y-32584000D01*
X68919000Y-40405000D02*
X68919000Y-32595000D01*
X68879000Y-40394000D02*
X68879000Y-32606000D01*
X68839000Y-40383000D02*
X68839000Y-32617000D01*
X68799000Y-40370000D02*
X68799000Y-32630000D01*
X68759000Y-40358000D02*
X68759000Y-32642000D01*
X68719000Y-40345000D02*
X68719000Y-32655000D01*
X68679000Y-40332000D02*
X68679000Y-32668000D01*
X68639000Y-40318000D02*
X68639000Y-32682000D01*
X68599000Y-40303000D02*
X68599000Y-32697000D01*
X68559000Y-40289000D02*
X68559000Y-32711000D01*
X68519000Y-40273000D02*
X68519000Y-32727000D01*
X68479000Y-40258000D02*
X68479000Y-37480000D01*
X68479000Y-35520000D02*
X68479000Y-32742000D01*
X68439000Y-40241000D02*
X68439000Y-37480000D01*
X68439000Y-35520000D02*
X68439000Y-32759000D01*
X68399000Y-40225000D02*
X68399000Y-37480000D01*
X68399000Y-35520000D02*
X68399000Y-32775000D01*
X68359000Y-40207000D02*
X68359000Y-37480000D01*
X68359000Y-35520000D02*
X68359000Y-32793000D01*
X68319000Y-40190000D02*
X68319000Y-37480000D01*
X68319000Y-35520000D02*
X68319000Y-32810000D01*
X68279000Y-40171000D02*
X68279000Y-37480000D01*
X68279000Y-35520000D02*
X68279000Y-32829000D01*
X68239000Y-40152000D02*
X68239000Y-37480000D01*
X68239000Y-35520000D02*
X68239000Y-32848000D01*
X68199000Y-40133000D02*
X68199000Y-37480000D01*
X68199000Y-35520000D02*
X68199000Y-32867000D01*
X68159000Y-40113000D02*
X68159000Y-37480000D01*
X68159000Y-35520000D02*
X68159000Y-32887000D01*
X68119000Y-40093000D02*
X68119000Y-37480000D01*
X68119000Y-35520000D02*
X68119000Y-32907000D01*
X68079000Y-40072000D02*
X68079000Y-37480000D01*
X68079000Y-35520000D02*
X68079000Y-32928000D01*
X68039000Y-40050000D02*
X68039000Y-37480000D01*
X68039000Y-35520000D02*
X68039000Y-32950000D01*
X67999000Y-40028000D02*
X67999000Y-37480000D01*
X67999000Y-35520000D02*
X67999000Y-32972000D01*
X67959000Y-40005000D02*
X67959000Y-37480000D01*
X67959000Y-35520000D02*
X67959000Y-32995000D01*
X67919000Y-39982000D02*
X67919000Y-37480000D01*
X67919000Y-35520000D02*
X67919000Y-33018000D01*
X67879000Y-39958000D02*
X67879000Y-37480000D01*
X67879000Y-35520000D02*
X67879000Y-33042000D01*
X67839000Y-39934000D02*
X67839000Y-37480000D01*
X67839000Y-35520000D02*
X67839000Y-33066000D01*
X67799000Y-39908000D02*
X67799000Y-37480000D01*
X67799000Y-35520000D02*
X67799000Y-33092000D01*
X67759000Y-39883000D02*
X67759000Y-37480000D01*
X67759000Y-35520000D02*
X67759000Y-33117000D01*
X67719000Y-39856000D02*
X67719000Y-37480000D01*
X67719000Y-35520000D02*
X67719000Y-33144000D01*
X67679000Y-39829000D02*
X67679000Y-37480000D01*
X67679000Y-35520000D02*
X67679000Y-33171000D01*
X67639000Y-39801000D02*
X67639000Y-37480000D01*
X67639000Y-35520000D02*
X67639000Y-33199000D01*
X67599000Y-39772000D02*
X67599000Y-37480000D01*
X67599000Y-35520000D02*
X67599000Y-33228000D01*
X67559000Y-39743000D02*
X67559000Y-37480000D01*
X67559000Y-35520000D02*
X67559000Y-33257000D01*
X67519000Y-39713000D02*
X67519000Y-37480000D01*
X67519000Y-35520000D02*
X67519000Y-33287000D01*
X67479000Y-39682000D02*
X67479000Y-37480000D01*
X67479000Y-35520000D02*
X67479000Y-33318000D01*
X67439000Y-39650000D02*
X67439000Y-37480000D01*
X67439000Y-35520000D02*
X67439000Y-33350000D01*
X67399000Y-39618000D02*
X67399000Y-37480000D01*
X67399000Y-35520000D02*
X67399000Y-33382000D01*
X67359000Y-39584000D02*
X67359000Y-37480000D01*
X67359000Y-35520000D02*
X67359000Y-33416000D01*
X67319000Y-39550000D02*
X67319000Y-37480000D01*
X67319000Y-35520000D02*
X67319000Y-33450000D01*
X67279000Y-39515000D02*
X67279000Y-37480000D01*
X67279000Y-35520000D02*
X67279000Y-33485000D01*
X67239000Y-39479000D02*
X67239000Y-37480000D01*
X67239000Y-35520000D02*
X67239000Y-33521000D01*
X67199000Y-39442000D02*
X67199000Y-37480000D01*
X67199000Y-35520000D02*
X67199000Y-33558000D01*
X67159000Y-39404000D02*
X67159000Y-37480000D01*
X67159000Y-35520000D02*
X67159000Y-33596000D01*
X67119000Y-39365000D02*
X67119000Y-37480000D01*
X67119000Y-35520000D02*
X67119000Y-33635000D01*
X67079000Y-39324000D02*
X67079000Y-37480000D01*
X67079000Y-35520000D02*
X67079000Y-33676000D01*
X67039000Y-39283000D02*
X67039000Y-37480000D01*
X67039000Y-35520000D02*
X67039000Y-33717000D01*
X66999000Y-39240000D02*
X66999000Y-37480000D01*
X66999000Y-35520000D02*
X66999000Y-33760000D01*
X66959000Y-39197000D02*
X66959000Y-37480000D01*
X66959000Y-35520000D02*
X66959000Y-33803000D01*
X66919000Y-39152000D02*
X66919000Y-37480000D01*
X66919000Y-35520000D02*
X66919000Y-33848000D01*
X66879000Y-39105000D02*
X66879000Y-37480000D01*
X66879000Y-35520000D02*
X66879000Y-33895000D01*
X66839000Y-39057000D02*
X66839000Y-37480000D01*
X66839000Y-35520000D02*
X66839000Y-33943000D01*
X66799000Y-39008000D02*
X66799000Y-37480000D01*
X66799000Y-35520000D02*
X66799000Y-33992000D01*
X66759000Y-38957000D02*
X66759000Y-37480000D01*
X66759000Y-35520000D02*
X66759000Y-34043000D01*
X66719000Y-38904000D02*
X66719000Y-37480000D01*
X66719000Y-35520000D02*
X66719000Y-34096000D01*
X66679000Y-38849000D02*
X66679000Y-37480000D01*
X66679000Y-35520000D02*
X66679000Y-34151000D01*
X66639000Y-38793000D02*
X66639000Y-37480000D01*
X66639000Y-35520000D02*
X66639000Y-34207000D01*
X66599000Y-38734000D02*
X66599000Y-37480000D01*
X66599000Y-35520000D02*
X66599000Y-34266000D01*
X66559000Y-38673000D02*
X66559000Y-37480000D01*
X66559000Y-35520000D02*
X66559000Y-34327000D01*
X66519000Y-38609000D02*
X66519000Y-34391000D01*
X66479000Y-38543000D02*
X66479000Y-34457000D01*
X66439000Y-38474000D02*
X66439000Y-34526000D01*
X66399000Y-38402000D02*
X66399000Y-34598000D01*
X66359000Y-38326000D02*
X66359000Y-34674000D01*
X66319000Y-38245000D02*
X66319000Y-34755000D01*
X66279000Y-38160000D02*
X66279000Y-34840000D01*
X66239000Y-38070000D02*
X66239000Y-34930000D01*
X66199000Y-37973000D02*
X66199000Y-35027000D01*
X66159000Y-37869000D02*
X66159000Y-35131000D01*
X66119000Y-37754000D02*
X66119000Y-35246000D01*
X66079000Y-37627000D02*
X66079000Y-35373000D01*
X66039000Y-37483000D02*
X66039000Y-35517000D01*
X65999000Y-37314000D02*
X65999000Y-35686000D01*
X65959000Y-37098000D02*
X65959000Y-35902000D01*
X65919000Y-36746000D02*
X65919000Y-36254000D01*
X74700000Y-36500000D02*
X73500000Y-36500000D01*
X74100000Y-37150000D02*
X74100000Y-35850000D01*
X85583149Y-38177445D02*
G75*
G03X93416082Y-38180000I3916851J1177445D01*
G01*
X85583149Y-35822555D02*
G75*
G02X93416082Y-35820000I3916851J-1177445D01*
G01*
X85583149Y-35822555D02*
G75*
G03X85583918Y-38180000I3916851J-1177445D01*
G01*
X89500000Y-41050000D02*
X89500000Y-32950000D01*
X89460000Y-41050000D02*
X89460000Y-32950000D01*
X89420000Y-41050000D02*
X89420000Y-32950000D01*
X89380000Y-41049000D02*
X89380000Y-32951000D01*
X89340000Y-41047000D02*
X89340000Y-32953000D01*
X89300000Y-41046000D02*
X89300000Y-32954000D01*
X89260000Y-41043000D02*
X89260000Y-32957000D01*
X89220000Y-41041000D02*
X89220000Y-32959000D01*
X89180000Y-41038000D02*
X89180000Y-32962000D01*
X89140000Y-41035000D02*
X89140000Y-32965000D01*
X89100000Y-41031000D02*
X89100000Y-32969000D01*
X89060000Y-41027000D02*
X89060000Y-32973000D01*
X89020000Y-41022000D02*
X89020000Y-32978000D01*
X88980000Y-41017000D02*
X88980000Y-32983000D01*
X88940000Y-41012000D02*
X88940000Y-32988000D01*
X88900000Y-41006000D02*
X88900000Y-32994000D01*
X88860000Y-41000000D02*
X88860000Y-33000000D01*
X88820000Y-40994000D02*
X88820000Y-33006000D01*
X88779000Y-40987000D02*
X88779000Y-33013000D01*
X88739000Y-40979000D02*
X88739000Y-33021000D01*
X88699000Y-40971000D02*
X88699000Y-33029000D01*
X88659000Y-40963000D02*
X88659000Y-33037000D01*
X88619000Y-40955000D02*
X88619000Y-33045000D01*
X88579000Y-40946000D02*
X88579000Y-33054000D01*
X88539000Y-40936000D02*
X88539000Y-33064000D01*
X88499000Y-40926000D02*
X88499000Y-33074000D01*
X88459000Y-40916000D02*
X88459000Y-33084000D01*
X88419000Y-40905000D02*
X88419000Y-33095000D01*
X88379000Y-40894000D02*
X88379000Y-33106000D01*
X88339000Y-40883000D02*
X88339000Y-33117000D01*
X88299000Y-40870000D02*
X88299000Y-33130000D01*
X88259000Y-40858000D02*
X88259000Y-33142000D01*
X88219000Y-40845000D02*
X88219000Y-33155000D01*
X88179000Y-40832000D02*
X88179000Y-33168000D01*
X88139000Y-40818000D02*
X88139000Y-33182000D01*
X88099000Y-40803000D02*
X88099000Y-33197000D01*
X88059000Y-40789000D02*
X88059000Y-33211000D01*
X88019000Y-40773000D02*
X88019000Y-33227000D01*
X87979000Y-40758000D02*
X87979000Y-37980000D01*
X87979000Y-36020000D02*
X87979000Y-33242000D01*
X87939000Y-40741000D02*
X87939000Y-37980000D01*
X87939000Y-36020000D02*
X87939000Y-33259000D01*
X87899000Y-40725000D02*
X87899000Y-37980000D01*
X87899000Y-36020000D02*
X87899000Y-33275000D01*
X87859000Y-40707000D02*
X87859000Y-37980000D01*
X87859000Y-36020000D02*
X87859000Y-33293000D01*
X87819000Y-40690000D02*
X87819000Y-37980000D01*
X87819000Y-36020000D02*
X87819000Y-33310000D01*
X87779000Y-40671000D02*
X87779000Y-37980000D01*
X87779000Y-36020000D02*
X87779000Y-33329000D01*
X87739000Y-40652000D02*
X87739000Y-37980000D01*
X87739000Y-36020000D02*
X87739000Y-33348000D01*
X87699000Y-40633000D02*
X87699000Y-37980000D01*
X87699000Y-36020000D02*
X87699000Y-33367000D01*
X87659000Y-40613000D02*
X87659000Y-37980000D01*
X87659000Y-36020000D02*
X87659000Y-33387000D01*
X87619000Y-40593000D02*
X87619000Y-37980000D01*
X87619000Y-36020000D02*
X87619000Y-33407000D01*
X87579000Y-40572000D02*
X87579000Y-37980000D01*
X87579000Y-36020000D02*
X87579000Y-33428000D01*
X87539000Y-40550000D02*
X87539000Y-37980000D01*
X87539000Y-36020000D02*
X87539000Y-33450000D01*
X87499000Y-40528000D02*
X87499000Y-37980000D01*
X87499000Y-36020000D02*
X87499000Y-33472000D01*
X87459000Y-40505000D02*
X87459000Y-37980000D01*
X87459000Y-36020000D02*
X87459000Y-33495000D01*
X87419000Y-40482000D02*
X87419000Y-37980000D01*
X87419000Y-36020000D02*
X87419000Y-33518000D01*
X87379000Y-40458000D02*
X87379000Y-37980000D01*
X87379000Y-36020000D02*
X87379000Y-33542000D01*
X87339000Y-40434000D02*
X87339000Y-37980000D01*
X87339000Y-36020000D02*
X87339000Y-33566000D01*
X87299000Y-40408000D02*
X87299000Y-37980000D01*
X87299000Y-36020000D02*
X87299000Y-33592000D01*
X87259000Y-40383000D02*
X87259000Y-37980000D01*
X87259000Y-36020000D02*
X87259000Y-33617000D01*
X87219000Y-40356000D02*
X87219000Y-37980000D01*
X87219000Y-36020000D02*
X87219000Y-33644000D01*
X87179000Y-40329000D02*
X87179000Y-37980000D01*
X87179000Y-36020000D02*
X87179000Y-33671000D01*
X87139000Y-40301000D02*
X87139000Y-37980000D01*
X87139000Y-36020000D02*
X87139000Y-33699000D01*
X87099000Y-40272000D02*
X87099000Y-37980000D01*
X87099000Y-36020000D02*
X87099000Y-33728000D01*
X87059000Y-40243000D02*
X87059000Y-37980000D01*
X87059000Y-36020000D02*
X87059000Y-33757000D01*
X87019000Y-40213000D02*
X87019000Y-37980000D01*
X87019000Y-36020000D02*
X87019000Y-33787000D01*
X86979000Y-40182000D02*
X86979000Y-37980000D01*
X86979000Y-36020000D02*
X86979000Y-33818000D01*
X86939000Y-40150000D02*
X86939000Y-37980000D01*
X86939000Y-36020000D02*
X86939000Y-33850000D01*
X86899000Y-40118000D02*
X86899000Y-37980000D01*
X86899000Y-36020000D02*
X86899000Y-33882000D01*
X86859000Y-40084000D02*
X86859000Y-37980000D01*
X86859000Y-36020000D02*
X86859000Y-33916000D01*
X86819000Y-40050000D02*
X86819000Y-37980000D01*
X86819000Y-36020000D02*
X86819000Y-33950000D01*
X86779000Y-40015000D02*
X86779000Y-37980000D01*
X86779000Y-36020000D02*
X86779000Y-33985000D01*
X86739000Y-39979000D02*
X86739000Y-37980000D01*
X86739000Y-36020000D02*
X86739000Y-34021000D01*
X86699000Y-39942000D02*
X86699000Y-37980000D01*
X86699000Y-36020000D02*
X86699000Y-34058000D01*
X86659000Y-39904000D02*
X86659000Y-37980000D01*
X86659000Y-36020000D02*
X86659000Y-34096000D01*
X86619000Y-39865000D02*
X86619000Y-37980000D01*
X86619000Y-36020000D02*
X86619000Y-34135000D01*
X86579000Y-39824000D02*
X86579000Y-37980000D01*
X86579000Y-36020000D02*
X86579000Y-34176000D01*
X86539000Y-39783000D02*
X86539000Y-37980000D01*
X86539000Y-36020000D02*
X86539000Y-34217000D01*
X86499000Y-39740000D02*
X86499000Y-37980000D01*
X86499000Y-36020000D02*
X86499000Y-34260000D01*
X86459000Y-39697000D02*
X86459000Y-37980000D01*
X86459000Y-36020000D02*
X86459000Y-34303000D01*
X86419000Y-39652000D02*
X86419000Y-37980000D01*
X86419000Y-36020000D02*
X86419000Y-34348000D01*
X86379000Y-39605000D02*
X86379000Y-37980000D01*
X86379000Y-36020000D02*
X86379000Y-34395000D01*
X86339000Y-39557000D02*
X86339000Y-37980000D01*
X86339000Y-36020000D02*
X86339000Y-34443000D01*
X86299000Y-39508000D02*
X86299000Y-37980000D01*
X86299000Y-36020000D02*
X86299000Y-34492000D01*
X86259000Y-39457000D02*
X86259000Y-37980000D01*
X86259000Y-36020000D02*
X86259000Y-34543000D01*
X86219000Y-39404000D02*
X86219000Y-37980000D01*
X86219000Y-36020000D02*
X86219000Y-34596000D01*
X86179000Y-39349000D02*
X86179000Y-37980000D01*
X86179000Y-36020000D02*
X86179000Y-34651000D01*
X86139000Y-39293000D02*
X86139000Y-37980000D01*
X86139000Y-36020000D02*
X86139000Y-34707000D01*
X86099000Y-39234000D02*
X86099000Y-37980000D01*
X86099000Y-36020000D02*
X86099000Y-34766000D01*
X86059000Y-39173000D02*
X86059000Y-37980000D01*
X86059000Y-36020000D02*
X86059000Y-34827000D01*
X86019000Y-39109000D02*
X86019000Y-34891000D01*
X85979000Y-39043000D02*
X85979000Y-34957000D01*
X85939000Y-38974000D02*
X85939000Y-35026000D01*
X85899000Y-38902000D02*
X85899000Y-35098000D01*
X85859000Y-38826000D02*
X85859000Y-35174000D01*
X85819000Y-38745000D02*
X85819000Y-35255000D01*
X85779000Y-38660000D02*
X85779000Y-35340000D01*
X85739000Y-38570000D02*
X85739000Y-35430000D01*
X85699000Y-38473000D02*
X85699000Y-35527000D01*
X85659000Y-38369000D02*
X85659000Y-35631000D01*
X85619000Y-38254000D02*
X85619000Y-35746000D01*
X85579000Y-38127000D02*
X85579000Y-35873000D01*
X85539000Y-37983000D02*
X85539000Y-36017000D01*
X85499000Y-37814000D02*
X85499000Y-36186000D01*
X85459000Y-37598000D02*
X85459000Y-36402000D01*
X85419000Y-37246000D02*
X85419000Y-36754000D01*
X94200000Y-37000000D02*
X93000000Y-37000000D01*
X93600000Y-37650000D02*
X93600000Y-36350000D01*
X106083149Y-38677445D02*
G75*
G03X113916082Y-38680000I3916851J1177445D01*
G01*
X106083149Y-36322555D02*
G75*
G02X113916082Y-36320000I3916851J-1177445D01*
G01*
X106083149Y-36322555D02*
G75*
G03X106083918Y-38680000I3916851J-1177445D01*
G01*
X110000000Y-41550000D02*
X110000000Y-33450000D01*
X109960000Y-41550000D02*
X109960000Y-33450000D01*
X109920000Y-41550000D02*
X109920000Y-33450000D01*
X109880000Y-41549000D02*
X109880000Y-33451000D01*
X109840000Y-41547000D02*
X109840000Y-33453000D01*
X109800000Y-41546000D02*
X109800000Y-33454000D01*
X109760000Y-41543000D02*
X109760000Y-33457000D01*
X109720000Y-41541000D02*
X109720000Y-33459000D01*
X109680000Y-41538000D02*
X109680000Y-33462000D01*
X109640000Y-41535000D02*
X109640000Y-33465000D01*
X109600000Y-41531000D02*
X109600000Y-33469000D01*
X109560000Y-41527000D02*
X109560000Y-33473000D01*
X109520000Y-41522000D02*
X109520000Y-33478000D01*
X109480000Y-41517000D02*
X109480000Y-33483000D01*
X109440000Y-41512000D02*
X109440000Y-33488000D01*
X109400000Y-41506000D02*
X109400000Y-33494000D01*
X109360000Y-41500000D02*
X109360000Y-33500000D01*
X109320000Y-41494000D02*
X109320000Y-33506000D01*
X109279000Y-41487000D02*
X109279000Y-33513000D01*
X109239000Y-41479000D02*
X109239000Y-33521000D01*
X109199000Y-41471000D02*
X109199000Y-33529000D01*
X109159000Y-41463000D02*
X109159000Y-33537000D01*
X109119000Y-41455000D02*
X109119000Y-33545000D01*
X109079000Y-41446000D02*
X109079000Y-33554000D01*
X109039000Y-41436000D02*
X109039000Y-33564000D01*
X108999000Y-41426000D02*
X108999000Y-33574000D01*
X108959000Y-41416000D02*
X108959000Y-33584000D01*
X108919000Y-41405000D02*
X108919000Y-33595000D01*
X108879000Y-41394000D02*
X108879000Y-33606000D01*
X108839000Y-41383000D02*
X108839000Y-33617000D01*
X108799000Y-41370000D02*
X108799000Y-33630000D01*
X108759000Y-41358000D02*
X108759000Y-33642000D01*
X108719000Y-41345000D02*
X108719000Y-33655000D01*
X108679000Y-41332000D02*
X108679000Y-33668000D01*
X108639000Y-41318000D02*
X108639000Y-33682000D01*
X108599000Y-41303000D02*
X108599000Y-33697000D01*
X108559000Y-41289000D02*
X108559000Y-33711000D01*
X108519000Y-41273000D02*
X108519000Y-33727000D01*
X108479000Y-41258000D02*
X108479000Y-38480000D01*
X108479000Y-36520000D02*
X108479000Y-33742000D01*
X108439000Y-41241000D02*
X108439000Y-38480000D01*
X108439000Y-36520000D02*
X108439000Y-33759000D01*
X108399000Y-41225000D02*
X108399000Y-38480000D01*
X108399000Y-36520000D02*
X108399000Y-33775000D01*
X108359000Y-41207000D02*
X108359000Y-38480000D01*
X108359000Y-36520000D02*
X108359000Y-33793000D01*
X108319000Y-41190000D02*
X108319000Y-38480000D01*
X108319000Y-36520000D02*
X108319000Y-33810000D01*
X108279000Y-41171000D02*
X108279000Y-38480000D01*
X108279000Y-36520000D02*
X108279000Y-33829000D01*
X108239000Y-41152000D02*
X108239000Y-38480000D01*
X108239000Y-36520000D02*
X108239000Y-33848000D01*
X108199000Y-41133000D02*
X108199000Y-38480000D01*
X108199000Y-36520000D02*
X108199000Y-33867000D01*
X108159000Y-41113000D02*
X108159000Y-38480000D01*
X108159000Y-36520000D02*
X108159000Y-33887000D01*
X108119000Y-41093000D02*
X108119000Y-38480000D01*
X108119000Y-36520000D02*
X108119000Y-33907000D01*
X108079000Y-41072000D02*
X108079000Y-38480000D01*
X108079000Y-36520000D02*
X108079000Y-33928000D01*
X108039000Y-41050000D02*
X108039000Y-38480000D01*
X108039000Y-36520000D02*
X108039000Y-33950000D01*
X107999000Y-41028000D02*
X107999000Y-38480000D01*
X107999000Y-36520000D02*
X107999000Y-33972000D01*
X107959000Y-41005000D02*
X107959000Y-38480000D01*
X107959000Y-36520000D02*
X107959000Y-33995000D01*
X107919000Y-40982000D02*
X107919000Y-38480000D01*
X107919000Y-36520000D02*
X107919000Y-34018000D01*
X107879000Y-40958000D02*
X107879000Y-38480000D01*
X107879000Y-36520000D02*
X107879000Y-34042000D01*
X107839000Y-40934000D02*
X107839000Y-38480000D01*
X107839000Y-36520000D02*
X107839000Y-34066000D01*
X107799000Y-40908000D02*
X107799000Y-38480000D01*
X107799000Y-36520000D02*
X107799000Y-34092000D01*
X107759000Y-40883000D02*
X107759000Y-38480000D01*
X107759000Y-36520000D02*
X107759000Y-34117000D01*
X107719000Y-40856000D02*
X107719000Y-38480000D01*
X107719000Y-36520000D02*
X107719000Y-34144000D01*
X107679000Y-40829000D02*
X107679000Y-38480000D01*
X107679000Y-36520000D02*
X107679000Y-34171000D01*
X107639000Y-40801000D02*
X107639000Y-38480000D01*
X107639000Y-36520000D02*
X107639000Y-34199000D01*
X107599000Y-40772000D02*
X107599000Y-38480000D01*
X107599000Y-36520000D02*
X107599000Y-34228000D01*
X107559000Y-40743000D02*
X107559000Y-38480000D01*
X107559000Y-36520000D02*
X107559000Y-34257000D01*
X107519000Y-40713000D02*
X107519000Y-38480000D01*
X107519000Y-36520000D02*
X107519000Y-34287000D01*
X107479000Y-40682000D02*
X107479000Y-38480000D01*
X107479000Y-36520000D02*
X107479000Y-34318000D01*
X107439000Y-40650000D02*
X107439000Y-38480000D01*
X107439000Y-36520000D02*
X107439000Y-34350000D01*
X107399000Y-40618000D02*
X107399000Y-38480000D01*
X107399000Y-36520000D02*
X107399000Y-34382000D01*
X107359000Y-40584000D02*
X107359000Y-38480000D01*
X107359000Y-36520000D02*
X107359000Y-34416000D01*
X107319000Y-40550000D02*
X107319000Y-38480000D01*
X107319000Y-36520000D02*
X107319000Y-34450000D01*
X107279000Y-40515000D02*
X107279000Y-38480000D01*
X107279000Y-36520000D02*
X107279000Y-34485000D01*
X107239000Y-40479000D02*
X107239000Y-38480000D01*
X107239000Y-36520000D02*
X107239000Y-34521000D01*
X107199000Y-40442000D02*
X107199000Y-38480000D01*
X107199000Y-36520000D02*
X107199000Y-34558000D01*
X107159000Y-40404000D02*
X107159000Y-38480000D01*
X107159000Y-36520000D02*
X107159000Y-34596000D01*
X107119000Y-40365000D02*
X107119000Y-38480000D01*
X107119000Y-36520000D02*
X107119000Y-34635000D01*
X107079000Y-40324000D02*
X107079000Y-38480000D01*
X107079000Y-36520000D02*
X107079000Y-34676000D01*
X107039000Y-40283000D02*
X107039000Y-38480000D01*
X107039000Y-36520000D02*
X107039000Y-34717000D01*
X106999000Y-40240000D02*
X106999000Y-38480000D01*
X106999000Y-36520000D02*
X106999000Y-34760000D01*
X106959000Y-40197000D02*
X106959000Y-38480000D01*
X106959000Y-36520000D02*
X106959000Y-34803000D01*
X106919000Y-40152000D02*
X106919000Y-38480000D01*
X106919000Y-36520000D02*
X106919000Y-34848000D01*
X106879000Y-40105000D02*
X106879000Y-38480000D01*
X106879000Y-36520000D02*
X106879000Y-34895000D01*
X106839000Y-40057000D02*
X106839000Y-38480000D01*
X106839000Y-36520000D02*
X106839000Y-34943000D01*
X106799000Y-40008000D02*
X106799000Y-38480000D01*
X106799000Y-36520000D02*
X106799000Y-34992000D01*
X106759000Y-39957000D02*
X106759000Y-38480000D01*
X106759000Y-36520000D02*
X106759000Y-35043000D01*
X106719000Y-39904000D02*
X106719000Y-38480000D01*
X106719000Y-36520000D02*
X106719000Y-35096000D01*
X106679000Y-39849000D02*
X106679000Y-38480000D01*
X106679000Y-36520000D02*
X106679000Y-35151000D01*
X106639000Y-39793000D02*
X106639000Y-38480000D01*
X106639000Y-36520000D02*
X106639000Y-35207000D01*
X106599000Y-39734000D02*
X106599000Y-38480000D01*
X106599000Y-36520000D02*
X106599000Y-35266000D01*
X106559000Y-39673000D02*
X106559000Y-38480000D01*
X106559000Y-36520000D02*
X106559000Y-35327000D01*
X106519000Y-39609000D02*
X106519000Y-35391000D01*
X106479000Y-39543000D02*
X106479000Y-35457000D01*
X106439000Y-39474000D02*
X106439000Y-35526000D01*
X106399000Y-39402000D02*
X106399000Y-35598000D01*
X106359000Y-39326000D02*
X106359000Y-35674000D01*
X106319000Y-39245000D02*
X106319000Y-35755000D01*
X106279000Y-39160000D02*
X106279000Y-35840000D01*
X106239000Y-39070000D02*
X106239000Y-35930000D01*
X106199000Y-38973000D02*
X106199000Y-36027000D01*
X106159000Y-38869000D02*
X106159000Y-36131000D01*
X106119000Y-38754000D02*
X106119000Y-36246000D01*
X106079000Y-38627000D02*
X106079000Y-36373000D01*
X106039000Y-38483000D02*
X106039000Y-36517000D01*
X105999000Y-38314000D02*
X105999000Y-36686000D01*
X105959000Y-38098000D02*
X105959000Y-36902000D01*
X105919000Y-37746000D02*
X105919000Y-37254000D01*
X114700000Y-37500000D02*
X113500000Y-37500000D01*
X114100000Y-38150000D02*
X114100000Y-36850000D01*
X123583149Y-38677445D02*
G75*
G03X131416082Y-38680000I3916851J1177445D01*
G01*
X123583149Y-36322555D02*
G75*
G02X131416082Y-36320000I3916851J-1177445D01*
G01*
X123583149Y-36322555D02*
G75*
G03X123583918Y-38680000I3916851J-1177445D01*
G01*
X127500000Y-41550000D02*
X127500000Y-33450000D01*
X127460000Y-41550000D02*
X127460000Y-33450000D01*
X127420000Y-41550000D02*
X127420000Y-33450000D01*
X127380000Y-41549000D02*
X127380000Y-33451000D01*
X127340000Y-41547000D02*
X127340000Y-33453000D01*
X127300000Y-41546000D02*
X127300000Y-33454000D01*
X127260000Y-41543000D02*
X127260000Y-33457000D01*
X127220000Y-41541000D02*
X127220000Y-33459000D01*
X127180000Y-41538000D02*
X127180000Y-33462000D01*
X127140000Y-41535000D02*
X127140000Y-33465000D01*
X127100000Y-41531000D02*
X127100000Y-33469000D01*
X127060000Y-41527000D02*
X127060000Y-33473000D01*
X127020000Y-41522000D02*
X127020000Y-33478000D01*
X126980000Y-41517000D02*
X126980000Y-33483000D01*
X126940000Y-41512000D02*
X126940000Y-33488000D01*
X126900000Y-41506000D02*
X126900000Y-33494000D01*
X126860000Y-41500000D02*
X126860000Y-33500000D01*
X126820000Y-41494000D02*
X126820000Y-33506000D01*
X126779000Y-41487000D02*
X126779000Y-33513000D01*
X126739000Y-41479000D02*
X126739000Y-33521000D01*
X126699000Y-41471000D02*
X126699000Y-33529000D01*
X126659000Y-41463000D02*
X126659000Y-33537000D01*
X126619000Y-41455000D02*
X126619000Y-33545000D01*
X126579000Y-41446000D02*
X126579000Y-33554000D01*
X126539000Y-41436000D02*
X126539000Y-33564000D01*
X126499000Y-41426000D02*
X126499000Y-33574000D01*
X126459000Y-41416000D02*
X126459000Y-33584000D01*
X126419000Y-41405000D02*
X126419000Y-33595000D01*
X126379000Y-41394000D02*
X126379000Y-33606000D01*
X126339000Y-41383000D02*
X126339000Y-33617000D01*
X126299000Y-41370000D02*
X126299000Y-33630000D01*
X126259000Y-41358000D02*
X126259000Y-33642000D01*
X126219000Y-41345000D02*
X126219000Y-33655000D01*
X126179000Y-41332000D02*
X126179000Y-33668000D01*
X126139000Y-41318000D02*
X126139000Y-33682000D01*
X126099000Y-41303000D02*
X126099000Y-33697000D01*
X126059000Y-41289000D02*
X126059000Y-33711000D01*
X126019000Y-41273000D02*
X126019000Y-33727000D01*
X125979000Y-41258000D02*
X125979000Y-38480000D01*
X125979000Y-36520000D02*
X125979000Y-33742000D01*
X125939000Y-41241000D02*
X125939000Y-38480000D01*
X125939000Y-36520000D02*
X125939000Y-33759000D01*
X125899000Y-41225000D02*
X125899000Y-38480000D01*
X125899000Y-36520000D02*
X125899000Y-33775000D01*
X125859000Y-41207000D02*
X125859000Y-38480000D01*
X125859000Y-36520000D02*
X125859000Y-33793000D01*
X125819000Y-41190000D02*
X125819000Y-38480000D01*
X125819000Y-36520000D02*
X125819000Y-33810000D01*
X125779000Y-41171000D02*
X125779000Y-38480000D01*
X125779000Y-36520000D02*
X125779000Y-33829000D01*
X125739000Y-41152000D02*
X125739000Y-38480000D01*
X125739000Y-36520000D02*
X125739000Y-33848000D01*
X125699000Y-41133000D02*
X125699000Y-38480000D01*
X125699000Y-36520000D02*
X125699000Y-33867000D01*
X125659000Y-41113000D02*
X125659000Y-38480000D01*
X125659000Y-36520000D02*
X125659000Y-33887000D01*
X125619000Y-41093000D02*
X125619000Y-38480000D01*
X125619000Y-36520000D02*
X125619000Y-33907000D01*
X125579000Y-41072000D02*
X125579000Y-38480000D01*
X125579000Y-36520000D02*
X125579000Y-33928000D01*
X125539000Y-41050000D02*
X125539000Y-38480000D01*
X125539000Y-36520000D02*
X125539000Y-33950000D01*
X125499000Y-41028000D02*
X125499000Y-38480000D01*
X125499000Y-36520000D02*
X125499000Y-33972000D01*
X125459000Y-41005000D02*
X125459000Y-38480000D01*
X125459000Y-36520000D02*
X125459000Y-33995000D01*
X125419000Y-40982000D02*
X125419000Y-38480000D01*
X125419000Y-36520000D02*
X125419000Y-34018000D01*
X125379000Y-40958000D02*
X125379000Y-38480000D01*
X125379000Y-36520000D02*
X125379000Y-34042000D01*
X125339000Y-40934000D02*
X125339000Y-38480000D01*
X125339000Y-36520000D02*
X125339000Y-34066000D01*
X125299000Y-40908000D02*
X125299000Y-38480000D01*
X125299000Y-36520000D02*
X125299000Y-34092000D01*
X125259000Y-40883000D02*
X125259000Y-38480000D01*
X125259000Y-36520000D02*
X125259000Y-34117000D01*
X125219000Y-40856000D02*
X125219000Y-38480000D01*
X125219000Y-36520000D02*
X125219000Y-34144000D01*
X125179000Y-40829000D02*
X125179000Y-38480000D01*
X125179000Y-36520000D02*
X125179000Y-34171000D01*
X125139000Y-40801000D02*
X125139000Y-38480000D01*
X125139000Y-36520000D02*
X125139000Y-34199000D01*
X125099000Y-40772000D02*
X125099000Y-38480000D01*
X125099000Y-36520000D02*
X125099000Y-34228000D01*
X125059000Y-40743000D02*
X125059000Y-38480000D01*
X125059000Y-36520000D02*
X125059000Y-34257000D01*
X125019000Y-40713000D02*
X125019000Y-38480000D01*
X125019000Y-36520000D02*
X125019000Y-34287000D01*
X124979000Y-40682000D02*
X124979000Y-38480000D01*
X124979000Y-36520000D02*
X124979000Y-34318000D01*
X124939000Y-40650000D02*
X124939000Y-38480000D01*
X124939000Y-36520000D02*
X124939000Y-34350000D01*
X124899000Y-40618000D02*
X124899000Y-38480000D01*
X124899000Y-36520000D02*
X124899000Y-34382000D01*
X124859000Y-40584000D02*
X124859000Y-38480000D01*
X124859000Y-36520000D02*
X124859000Y-34416000D01*
X124819000Y-40550000D02*
X124819000Y-38480000D01*
X124819000Y-36520000D02*
X124819000Y-34450000D01*
X124779000Y-40515000D02*
X124779000Y-38480000D01*
X124779000Y-36520000D02*
X124779000Y-34485000D01*
X124739000Y-40479000D02*
X124739000Y-38480000D01*
X124739000Y-36520000D02*
X124739000Y-34521000D01*
X124699000Y-40442000D02*
X124699000Y-38480000D01*
X124699000Y-36520000D02*
X124699000Y-34558000D01*
X124659000Y-40404000D02*
X124659000Y-38480000D01*
X124659000Y-36520000D02*
X124659000Y-34596000D01*
X124619000Y-40365000D02*
X124619000Y-38480000D01*
X124619000Y-36520000D02*
X124619000Y-34635000D01*
X124579000Y-40324000D02*
X124579000Y-38480000D01*
X124579000Y-36520000D02*
X124579000Y-34676000D01*
X124539000Y-40283000D02*
X124539000Y-38480000D01*
X124539000Y-36520000D02*
X124539000Y-34717000D01*
X124499000Y-40240000D02*
X124499000Y-38480000D01*
X124499000Y-36520000D02*
X124499000Y-34760000D01*
X124459000Y-40197000D02*
X124459000Y-38480000D01*
X124459000Y-36520000D02*
X124459000Y-34803000D01*
X124419000Y-40152000D02*
X124419000Y-38480000D01*
X124419000Y-36520000D02*
X124419000Y-34848000D01*
X124379000Y-40105000D02*
X124379000Y-38480000D01*
X124379000Y-36520000D02*
X124379000Y-34895000D01*
X124339000Y-40057000D02*
X124339000Y-38480000D01*
X124339000Y-36520000D02*
X124339000Y-34943000D01*
X124299000Y-40008000D02*
X124299000Y-38480000D01*
X124299000Y-36520000D02*
X124299000Y-34992000D01*
X124259000Y-39957000D02*
X124259000Y-38480000D01*
X124259000Y-36520000D02*
X124259000Y-35043000D01*
X124219000Y-39904000D02*
X124219000Y-38480000D01*
X124219000Y-36520000D02*
X124219000Y-35096000D01*
X124179000Y-39849000D02*
X124179000Y-38480000D01*
X124179000Y-36520000D02*
X124179000Y-35151000D01*
X124139000Y-39793000D02*
X124139000Y-38480000D01*
X124139000Y-36520000D02*
X124139000Y-35207000D01*
X124099000Y-39734000D02*
X124099000Y-38480000D01*
X124099000Y-36520000D02*
X124099000Y-35266000D01*
X124059000Y-39673000D02*
X124059000Y-38480000D01*
X124059000Y-36520000D02*
X124059000Y-35327000D01*
X124019000Y-39609000D02*
X124019000Y-35391000D01*
X123979000Y-39543000D02*
X123979000Y-35457000D01*
X123939000Y-39474000D02*
X123939000Y-35526000D01*
X123899000Y-39402000D02*
X123899000Y-35598000D01*
X123859000Y-39326000D02*
X123859000Y-35674000D01*
X123819000Y-39245000D02*
X123819000Y-35755000D01*
X123779000Y-39160000D02*
X123779000Y-35840000D01*
X123739000Y-39070000D02*
X123739000Y-35930000D01*
X123699000Y-38973000D02*
X123699000Y-36027000D01*
X123659000Y-38869000D02*
X123659000Y-36131000D01*
X123619000Y-38754000D02*
X123619000Y-36246000D01*
X123579000Y-38627000D02*
X123579000Y-36373000D01*
X123539000Y-38483000D02*
X123539000Y-36517000D01*
X123499000Y-38314000D02*
X123499000Y-36686000D01*
X123459000Y-38098000D02*
X123459000Y-36902000D01*
X123419000Y-37746000D02*
X123419000Y-37254000D01*
X132200000Y-37500000D02*
X131000000Y-37500000D01*
X131600000Y-38150000D02*
X131600000Y-36850000D01*
X140583149Y-38677445D02*
G75*
G03X148416082Y-38680000I3916851J1177445D01*
G01*
X140583149Y-36322555D02*
G75*
G02X148416082Y-36320000I3916851J-1177445D01*
G01*
X140583149Y-36322555D02*
G75*
G03X140583918Y-38680000I3916851J-1177445D01*
G01*
X144500000Y-41550000D02*
X144500000Y-33450000D01*
X144460000Y-41550000D02*
X144460000Y-33450000D01*
X144420000Y-41550000D02*
X144420000Y-33450000D01*
X144380000Y-41549000D02*
X144380000Y-33451000D01*
X144340000Y-41547000D02*
X144340000Y-33453000D01*
X144300000Y-41546000D02*
X144300000Y-33454000D01*
X144260000Y-41543000D02*
X144260000Y-33457000D01*
X144220000Y-41541000D02*
X144220000Y-33459000D01*
X144180000Y-41538000D02*
X144180000Y-33462000D01*
X144140000Y-41535000D02*
X144140000Y-33465000D01*
X144100000Y-41531000D02*
X144100000Y-33469000D01*
X144060000Y-41527000D02*
X144060000Y-33473000D01*
X144020000Y-41522000D02*
X144020000Y-33478000D01*
X143980000Y-41517000D02*
X143980000Y-33483000D01*
X143940000Y-41512000D02*
X143940000Y-33488000D01*
X143900000Y-41506000D02*
X143900000Y-33494000D01*
X143860000Y-41500000D02*
X143860000Y-33500000D01*
X143820000Y-41494000D02*
X143820000Y-33506000D01*
X143779000Y-41487000D02*
X143779000Y-33513000D01*
X143739000Y-41479000D02*
X143739000Y-33521000D01*
X143699000Y-41471000D02*
X143699000Y-33529000D01*
X143659000Y-41463000D02*
X143659000Y-33537000D01*
X143619000Y-41455000D02*
X143619000Y-33545000D01*
X143579000Y-41446000D02*
X143579000Y-33554000D01*
X143539000Y-41436000D02*
X143539000Y-33564000D01*
X143499000Y-41426000D02*
X143499000Y-33574000D01*
X143459000Y-41416000D02*
X143459000Y-33584000D01*
X143419000Y-41405000D02*
X143419000Y-33595000D01*
X143379000Y-41394000D02*
X143379000Y-33606000D01*
X143339000Y-41383000D02*
X143339000Y-33617000D01*
X143299000Y-41370000D02*
X143299000Y-33630000D01*
X143259000Y-41358000D02*
X143259000Y-33642000D01*
X143219000Y-41345000D02*
X143219000Y-33655000D01*
X143179000Y-41332000D02*
X143179000Y-33668000D01*
X143139000Y-41318000D02*
X143139000Y-33682000D01*
X143099000Y-41303000D02*
X143099000Y-33697000D01*
X143059000Y-41289000D02*
X143059000Y-33711000D01*
X143019000Y-41273000D02*
X143019000Y-33727000D01*
X142979000Y-41258000D02*
X142979000Y-38480000D01*
X142979000Y-36520000D02*
X142979000Y-33742000D01*
X142939000Y-41241000D02*
X142939000Y-38480000D01*
X142939000Y-36520000D02*
X142939000Y-33759000D01*
X142899000Y-41225000D02*
X142899000Y-38480000D01*
X142899000Y-36520000D02*
X142899000Y-33775000D01*
X142859000Y-41207000D02*
X142859000Y-38480000D01*
X142859000Y-36520000D02*
X142859000Y-33793000D01*
X142819000Y-41190000D02*
X142819000Y-38480000D01*
X142819000Y-36520000D02*
X142819000Y-33810000D01*
X142779000Y-41171000D02*
X142779000Y-38480000D01*
X142779000Y-36520000D02*
X142779000Y-33829000D01*
X142739000Y-41152000D02*
X142739000Y-38480000D01*
X142739000Y-36520000D02*
X142739000Y-33848000D01*
X142699000Y-41133000D02*
X142699000Y-38480000D01*
X142699000Y-36520000D02*
X142699000Y-33867000D01*
X142659000Y-41113000D02*
X142659000Y-38480000D01*
X142659000Y-36520000D02*
X142659000Y-33887000D01*
X142619000Y-41093000D02*
X142619000Y-38480000D01*
X142619000Y-36520000D02*
X142619000Y-33907000D01*
X142579000Y-41072000D02*
X142579000Y-38480000D01*
X142579000Y-36520000D02*
X142579000Y-33928000D01*
X142539000Y-41050000D02*
X142539000Y-38480000D01*
X142539000Y-36520000D02*
X142539000Y-33950000D01*
X142499000Y-41028000D02*
X142499000Y-38480000D01*
X142499000Y-36520000D02*
X142499000Y-33972000D01*
X142459000Y-41005000D02*
X142459000Y-38480000D01*
X142459000Y-36520000D02*
X142459000Y-33995000D01*
X142419000Y-40982000D02*
X142419000Y-38480000D01*
X142419000Y-36520000D02*
X142419000Y-34018000D01*
X142379000Y-40958000D02*
X142379000Y-38480000D01*
X142379000Y-36520000D02*
X142379000Y-34042000D01*
X142339000Y-40934000D02*
X142339000Y-38480000D01*
X142339000Y-36520000D02*
X142339000Y-34066000D01*
X142299000Y-40908000D02*
X142299000Y-38480000D01*
X142299000Y-36520000D02*
X142299000Y-34092000D01*
X142259000Y-40883000D02*
X142259000Y-38480000D01*
X142259000Y-36520000D02*
X142259000Y-34117000D01*
X142219000Y-40856000D02*
X142219000Y-38480000D01*
X142219000Y-36520000D02*
X142219000Y-34144000D01*
X142179000Y-40829000D02*
X142179000Y-38480000D01*
X142179000Y-36520000D02*
X142179000Y-34171000D01*
X142139000Y-40801000D02*
X142139000Y-38480000D01*
X142139000Y-36520000D02*
X142139000Y-34199000D01*
X142099000Y-40772000D02*
X142099000Y-38480000D01*
X142099000Y-36520000D02*
X142099000Y-34228000D01*
X142059000Y-40743000D02*
X142059000Y-38480000D01*
X142059000Y-36520000D02*
X142059000Y-34257000D01*
X142019000Y-40713000D02*
X142019000Y-38480000D01*
X142019000Y-36520000D02*
X142019000Y-34287000D01*
X141979000Y-40682000D02*
X141979000Y-38480000D01*
X141979000Y-36520000D02*
X141979000Y-34318000D01*
X141939000Y-40650000D02*
X141939000Y-38480000D01*
X141939000Y-36520000D02*
X141939000Y-34350000D01*
X141899000Y-40618000D02*
X141899000Y-38480000D01*
X141899000Y-36520000D02*
X141899000Y-34382000D01*
X141859000Y-40584000D02*
X141859000Y-38480000D01*
X141859000Y-36520000D02*
X141859000Y-34416000D01*
X141819000Y-40550000D02*
X141819000Y-38480000D01*
X141819000Y-36520000D02*
X141819000Y-34450000D01*
X141779000Y-40515000D02*
X141779000Y-38480000D01*
X141779000Y-36520000D02*
X141779000Y-34485000D01*
X141739000Y-40479000D02*
X141739000Y-38480000D01*
X141739000Y-36520000D02*
X141739000Y-34521000D01*
X141699000Y-40442000D02*
X141699000Y-38480000D01*
X141699000Y-36520000D02*
X141699000Y-34558000D01*
X141659000Y-40404000D02*
X141659000Y-38480000D01*
X141659000Y-36520000D02*
X141659000Y-34596000D01*
X141619000Y-40365000D02*
X141619000Y-38480000D01*
X141619000Y-36520000D02*
X141619000Y-34635000D01*
X141579000Y-40324000D02*
X141579000Y-38480000D01*
X141579000Y-36520000D02*
X141579000Y-34676000D01*
X141539000Y-40283000D02*
X141539000Y-38480000D01*
X141539000Y-36520000D02*
X141539000Y-34717000D01*
X141499000Y-40240000D02*
X141499000Y-38480000D01*
X141499000Y-36520000D02*
X141499000Y-34760000D01*
X141459000Y-40197000D02*
X141459000Y-38480000D01*
X141459000Y-36520000D02*
X141459000Y-34803000D01*
X141419000Y-40152000D02*
X141419000Y-38480000D01*
X141419000Y-36520000D02*
X141419000Y-34848000D01*
X141379000Y-40105000D02*
X141379000Y-38480000D01*
X141379000Y-36520000D02*
X141379000Y-34895000D01*
X141339000Y-40057000D02*
X141339000Y-38480000D01*
X141339000Y-36520000D02*
X141339000Y-34943000D01*
X141299000Y-40008000D02*
X141299000Y-38480000D01*
X141299000Y-36520000D02*
X141299000Y-34992000D01*
X141259000Y-39957000D02*
X141259000Y-38480000D01*
X141259000Y-36520000D02*
X141259000Y-35043000D01*
X141219000Y-39904000D02*
X141219000Y-38480000D01*
X141219000Y-36520000D02*
X141219000Y-35096000D01*
X141179000Y-39849000D02*
X141179000Y-38480000D01*
X141179000Y-36520000D02*
X141179000Y-35151000D01*
X141139000Y-39793000D02*
X141139000Y-38480000D01*
X141139000Y-36520000D02*
X141139000Y-35207000D01*
X141099000Y-39734000D02*
X141099000Y-38480000D01*
X141099000Y-36520000D02*
X141099000Y-35266000D01*
X141059000Y-39673000D02*
X141059000Y-38480000D01*
X141059000Y-36520000D02*
X141059000Y-35327000D01*
X141019000Y-39609000D02*
X141019000Y-35391000D01*
X140979000Y-39543000D02*
X140979000Y-35457000D01*
X140939000Y-39474000D02*
X140939000Y-35526000D01*
X140899000Y-39402000D02*
X140899000Y-35598000D01*
X140859000Y-39326000D02*
X140859000Y-35674000D01*
X140819000Y-39245000D02*
X140819000Y-35755000D01*
X140779000Y-39160000D02*
X140779000Y-35840000D01*
X140739000Y-39070000D02*
X140739000Y-35930000D01*
X140699000Y-38973000D02*
X140699000Y-36027000D01*
X140659000Y-38869000D02*
X140659000Y-36131000D01*
X140619000Y-38754000D02*
X140619000Y-36246000D01*
X140579000Y-38627000D02*
X140579000Y-36373000D01*
X140539000Y-38483000D02*
X140539000Y-36517000D01*
X140499000Y-38314000D02*
X140499000Y-36686000D01*
X140459000Y-38098000D02*
X140459000Y-36902000D01*
X140419000Y-37746000D02*
X140419000Y-37254000D01*
X149200000Y-37500000D02*
X148000000Y-37500000D01*
X148600000Y-38150000D02*
X148600000Y-36850000D01*
X155517000Y-89841500D02*
X155517000Y-91041500D01*
X153757000Y-91041500D02*
X153757000Y-89841500D01*
X163286000Y-34000000D02*
G75*
G03X163286000Y-34000000I-2286000J0D01*
G01*
X57286000Y-34000000D02*
G75*
G03X57286000Y-34000000I-2286000J0D01*
G01*
X57286000Y-124000000D02*
G75*
G03X57286000Y-124000000I-2286000J0D01*
G01*
X163286000Y-124000000D02*
G75*
G03X163286000Y-124000000I-2286000J0D01*
G01*
X52190000Y-81040000D02*
X59810000Y-81040000D01*
X59810000Y-60720000D02*
X52190000Y-60720000D01*
X58540000Y-60720000D02*
X58540000Y-81040000D01*
X52190000Y-81040000D02*
X52190000Y-60720000D01*
X59810000Y-81040000D02*
X59810000Y-60720000D01*
D13*
X133282381Y-100309523D02*
X133996667Y-100309523D01*
X134139524Y-100357143D01*
X134234762Y-100452381D01*
X134282381Y-100595238D01*
X134282381Y-100690476D01*
X133377619Y-99880952D02*
X133330000Y-99833333D01*
X133282381Y-99738095D01*
X133282381Y-99499999D01*
X133330000Y-99404761D01*
X133377619Y-99357142D01*
X133472857Y-99309523D01*
X133568095Y-99309523D01*
X133710952Y-99357142D01*
X134282381Y-99928571D01*
X134282381Y-99309523D01*
X134282381Y-98833333D02*
X134282381Y-98642857D01*
X134234762Y-98547618D01*
X134187143Y-98499999D01*
X134044286Y-98404761D01*
X133853810Y-98357142D01*
X133472857Y-98357142D01*
X133377619Y-98404761D01*
X133330000Y-98452380D01*
X133282381Y-98547618D01*
X133282381Y-98738095D01*
X133330000Y-98833333D01*
X133377619Y-98880952D01*
X133472857Y-98928571D01*
X133710952Y-98928571D01*
X133806190Y-98880952D01*
X133853810Y-98833333D01*
X133901429Y-98738095D01*
X133901429Y-98547618D01*
X133853810Y-98452380D01*
X133806190Y-98404761D01*
X133710952Y-98357142D01*
X91344834Y-120066143D02*
X91297215Y-120113762D01*
X91154358Y-120161381D01*
X91059120Y-120161381D01*
X90916262Y-120113762D01*
X90821024Y-120018524D01*
X90773405Y-119923286D01*
X90725786Y-119732810D01*
X90725786Y-119589952D01*
X90773405Y-119399476D01*
X90821024Y-119304238D01*
X90916262Y-119209000D01*
X91059120Y-119161381D01*
X91154358Y-119161381D01*
X91297215Y-119209000D01*
X91344834Y-119256619D01*
X92201977Y-119161381D02*
X92011500Y-119161381D01*
X91916262Y-119209000D01*
X91868643Y-119256619D01*
X91773405Y-119399476D01*
X91725786Y-119589952D01*
X91725786Y-119970905D01*
X91773405Y-120066143D01*
X91821024Y-120113762D01*
X91916262Y-120161381D01*
X92106739Y-120161381D01*
X92201977Y-120113762D01*
X92249596Y-120066143D01*
X92297215Y-119970905D01*
X92297215Y-119732810D01*
X92249596Y-119637571D01*
X92201977Y-119589952D01*
X92106739Y-119542333D01*
X91916262Y-119542333D01*
X91821024Y-119589952D01*
X91773405Y-119637571D01*
X91725786Y-119732810D01*
X102409334Y-120320143D02*
X102361715Y-120367762D01*
X102218858Y-120415381D01*
X102123620Y-120415381D01*
X101980762Y-120367762D01*
X101885524Y-120272524D01*
X101837905Y-120177286D01*
X101790286Y-119986810D01*
X101790286Y-119843952D01*
X101837905Y-119653476D01*
X101885524Y-119558238D01*
X101980762Y-119463000D01*
X102123620Y-119415381D01*
X102218858Y-119415381D01*
X102361715Y-119463000D01*
X102409334Y-119510619D01*
X102742667Y-119415381D02*
X103409334Y-119415381D01*
X102980762Y-120415381D01*
X114156334Y-119732643D02*
X114108715Y-119780262D01*
X113965858Y-119827881D01*
X113870620Y-119827881D01*
X113727762Y-119780262D01*
X113632524Y-119685024D01*
X113584905Y-119589786D01*
X113537286Y-119399310D01*
X113537286Y-119256452D01*
X113584905Y-119065976D01*
X113632524Y-118970738D01*
X113727762Y-118875500D01*
X113870620Y-118827881D01*
X113965858Y-118827881D01*
X114108715Y-118875500D01*
X114156334Y-118923119D01*
X114727762Y-119256452D02*
X114632524Y-119208833D01*
X114584905Y-119161214D01*
X114537286Y-119065976D01*
X114537286Y-119018357D01*
X114584905Y-118923119D01*
X114632524Y-118875500D01*
X114727762Y-118827881D01*
X114918239Y-118827881D01*
X115013477Y-118875500D01*
X115061096Y-118923119D01*
X115108715Y-119018357D01*
X115108715Y-119065976D01*
X115061096Y-119161214D01*
X115013477Y-119208833D01*
X114918239Y-119256452D01*
X114727762Y-119256452D01*
X114632524Y-119304071D01*
X114584905Y-119351690D01*
X114537286Y-119446929D01*
X114537286Y-119637405D01*
X114584905Y-119732643D01*
X114632524Y-119780262D01*
X114727762Y-119827881D01*
X114918239Y-119827881D01*
X115013477Y-119780262D01*
X115061096Y-119732643D01*
X115108715Y-119637405D01*
X115108715Y-119446929D01*
X115061096Y-119351690D01*
X115013477Y-119304071D01*
X114918239Y-119256452D01*
X130602834Y-118812143D02*
X130555215Y-118859762D01*
X130412358Y-118907381D01*
X130317120Y-118907381D01*
X130174262Y-118859762D01*
X130079024Y-118764524D01*
X130031405Y-118669286D01*
X129983786Y-118478810D01*
X129983786Y-118335952D01*
X130031405Y-118145476D01*
X130079024Y-118050238D01*
X130174262Y-117955000D01*
X130317120Y-117907381D01*
X130412358Y-117907381D01*
X130555215Y-117955000D01*
X130602834Y-118002619D01*
X131079024Y-118907381D02*
X131269500Y-118907381D01*
X131364739Y-118859762D01*
X131412358Y-118812143D01*
X131507596Y-118669286D01*
X131555215Y-118478810D01*
X131555215Y-118097857D01*
X131507596Y-118002619D01*
X131459977Y-117955000D01*
X131364739Y-117907381D01*
X131174262Y-117907381D01*
X131079024Y-117955000D01*
X131031405Y-118002619D01*
X130983786Y-118097857D01*
X130983786Y-118335952D01*
X131031405Y-118431190D01*
X131079024Y-118478810D01*
X131174262Y-118526429D01*
X131364739Y-118526429D01*
X131459977Y-118478810D01*
X131507596Y-118431190D01*
X131555215Y-118335952D01*
X143476643Y-118097643D02*
X143429024Y-118145262D01*
X143286167Y-118192881D01*
X143190929Y-118192881D01*
X143048071Y-118145262D01*
X142952833Y-118050024D01*
X142905214Y-117954786D01*
X142857595Y-117764310D01*
X142857595Y-117621452D01*
X142905214Y-117430976D01*
X142952833Y-117335738D01*
X143048071Y-117240500D01*
X143190929Y-117192881D01*
X143286167Y-117192881D01*
X143429024Y-117240500D01*
X143476643Y-117288119D01*
X144429024Y-118192881D02*
X143857595Y-118192881D01*
X144143309Y-118192881D02*
X144143309Y-117192881D01*
X144048071Y-117335738D01*
X143952833Y-117430976D01*
X143857595Y-117478595D01*
X145048071Y-117192881D02*
X145143310Y-117192881D01*
X145238548Y-117240500D01*
X145286167Y-117288119D01*
X145333786Y-117383357D01*
X145381405Y-117573833D01*
X145381405Y-117811929D01*
X145333786Y-118002405D01*
X145286167Y-118097643D01*
X145238548Y-118145262D01*
X145143310Y-118192881D01*
X145048071Y-118192881D01*
X144952833Y-118145262D01*
X144905214Y-118097643D01*
X144857595Y-118002405D01*
X144809976Y-117811929D01*
X144809976Y-117573833D01*
X144857595Y-117383357D01*
X144905214Y-117288119D01*
X144952833Y-117240500D01*
X145048071Y-117192881D01*
X75282381Y-47333333D02*
X75996667Y-47333333D01*
X76139524Y-47380953D01*
X76234762Y-47476191D01*
X76282381Y-47619048D01*
X76282381Y-47714286D01*
X76282381Y-46333333D02*
X76282381Y-46904762D01*
X76282381Y-46619048D02*
X75282381Y-46619048D01*
X75425238Y-46714286D01*
X75520476Y-46809524D01*
X75568095Y-46904762D01*
X75282381Y-60333333D02*
X75996667Y-60333333D01*
X76139524Y-60380953D01*
X76234762Y-60476191D01*
X76282381Y-60619048D01*
X76282381Y-60714286D01*
X75377619Y-59904762D02*
X75330000Y-59857143D01*
X75282381Y-59761905D01*
X75282381Y-59523809D01*
X75330000Y-59428571D01*
X75377619Y-59380952D01*
X75472857Y-59333333D01*
X75568095Y-59333333D01*
X75710952Y-59380952D01*
X76282381Y-59952381D01*
X76282381Y-59333333D01*
X75282381Y-73333333D02*
X75996667Y-73333333D01*
X76139524Y-73380953D01*
X76234762Y-73476191D01*
X76282381Y-73619048D01*
X76282381Y-73714286D01*
X75282381Y-72952381D02*
X75282381Y-72333333D01*
X75663333Y-72666667D01*
X75663333Y-72523809D01*
X75710952Y-72428571D01*
X75758571Y-72380952D01*
X75853810Y-72333333D01*
X76091905Y-72333333D01*
X76187143Y-72380952D01*
X76234762Y-72428571D01*
X76282381Y-72523809D01*
X76282381Y-72809524D01*
X76234762Y-72904762D01*
X76187143Y-72952381D01*
X75282381Y-86333333D02*
X75996667Y-86333333D01*
X76139524Y-86380953D01*
X76234762Y-86476191D01*
X76282381Y-86619048D01*
X76282381Y-86714286D01*
X75615714Y-85428571D02*
X76282381Y-85428571D01*
X75234762Y-85666667D02*
X75949048Y-85904762D01*
X75949048Y-85285714D01*
X89102881Y-115220833D02*
X89817167Y-115220833D01*
X89960024Y-115268453D01*
X90055262Y-115363691D01*
X90102881Y-115506548D01*
X90102881Y-115601786D01*
X89102881Y-114268452D02*
X89102881Y-114744643D01*
X89579071Y-114792262D01*
X89531452Y-114744643D01*
X89483833Y-114649405D01*
X89483833Y-114411309D01*
X89531452Y-114316071D01*
X89579071Y-114268452D01*
X89674310Y-114220833D01*
X89912405Y-114220833D01*
X90007643Y-114268452D01*
X90055262Y-114316071D01*
X90102881Y-114411309D01*
X90102881Y-114649405D01*
X90055262Y-114744643D01*
X90007643Y-114792262D01*
X102628381Y-115411333D02*
X103342667Y-115411333D01*
X103485524Y-115458953D01*
X103580762Y-115554191D01*
X103628381Y-115697048D01*
X103628381Y-115792286D01*
X102628381Y-114506571D02*
X102628381Y-114697048D01*
X102676000Y-114792286D01*
X102723619Y-114839905D01*
X102866476Y-114935143D01*
X103056952Y-114982762D01*
X103437905Y-114982762D01*
X103533143Y-114935143D01*
X103580762Y-114887524D01*
X103628381Y-114792286D01*
X103628381Y-114601809D01*
X103580762Y-114506571D01*
X103533143Y-114458952D01*
X103437905Y-114411333D01*
X103199810Y-114411333D01*
X103104571Y-114458952D01*
X103056952Y-114506571D01*
X103009333Y-114601809D01*
X103009333Y-114792286D01*
X103056952Y-114887524D01*
X103104571Y-114935143D01*
X103199810Y-114982762D01*
X95282381Y-99333333D02*
X95996667Y-99333333D01*
X96139524Y-99380953D01*
X96234762Y-99476191D01*
X96282381Y-99619048D01*
X96282381Y-99714286D01*
X95282381Y-98952381D02*
X95282381Y-98285714D01*
X96282381Y-98714286D01*
X95282381Y-86333333D02*
X95996667Y-86333333D01*
X96139524Y-86380953D01*
X96234762Y-86476191D01*
X96282381Y-86619048D01*
X96282381Y-86714286D01*
X95710952Y-85714286D02*
X95663333Y-85809524D01*
X95615714Y-85857143D01*
X95520476Y-85904762D01*
X95472857Y-85904762D01*
X95377619Y-85857143D01*
X95330000Y-85809524D01*
X95282381Y-85714286D01*
X95282381Y-85523809D01*
X95330000Y-85428571D01*
X95377619Y-85380952D01*
X95472857Y-85333333D01*
X95520476Y-85333333D01*
X95615714Y-85380952D01*
X95663333Y-85428571D01*
X95710952Y-85523809D01*
X95710952Y-85714286D01*
X95758571Y-85809524D01*
X95806190Y-85857143D01*
X95901429Y-85904762D01*
X96091905Y-85904762D01*
X96187143Y-85857143D01*
X96234762Y-85809524D01*
X96282381Y-85714286D01*
X96282381Y-85523809D01*
X96234762Y-85428571D01*
X96187143Y-85380952D01*
X96091905Y-85333333D01*
X95901429Y-85333333D01*
X95806190Y-85380952D01*
X95758571Y-85428571D01*
X95710952Y-85523809D01*
X95282381Y-73333333D02*
X95996667Y-73333333D01*
X96139524Y-73380953D01*
X96234762Y-73476191D01*
X96282381Y-73619048D01*
X96282381Y-73714286D01*
X96282381Y-72809524D02*
X96282381Y-72619048D01*
X96234762Y-72523809D01*
X96187143Y-72476190D01*
X96044286Y-72380952D01*
X95853810Y-72333333D01*
X95472857Y-72333333D01*
X95377619Y-72380952D01*
X95330000Y-72428571D01*
X95282381Y-72523809D01*
X95282381Y-72714286D01*
X95330000Y-72809524D01*
X95377619Y-72857143D01*
X95472857Y-72904762D01*
X95710952Y-72904762D01*
X95806190Y-72857143D01*
X95853810Y-72809524D01*
X95901429Y-72714286D01*
X95901429Y-72523809D01*
X95853810Y-72428571D01*
X95806190Y-72380952D01*
X95710952Y-72333333D01*
X95282381Y-61309523D02*
X95996667Y-61309523D01*
X96139524Y-61357143D01*
X96234762Y-61452381D01*
X96282381Y-61595238D01*
X96282381Y-61690476D01*
X96282381Y-60309523D02*
X96282381Y-60880952D01*
X96282381Y-60595238D02*
X95282381Y-60595238D01*
X95425238Y-60690476D01*
X95520476Y-60785714D01*
X95568095Y-60880952D01*
X95282381Y-59690476D02*
X95282381Y-59595237D01*
X95330000Y-59499999D01*
X95377619Y-59452380D01*
X95472857Y-59404761D01*
X95663333Y-59357142D01*
X95901429Y-59357142D01*
X96091905Y-59404761D01*
X96187143Y-59452380D01*
X96234762Y-59499999D01*
X96282381Y-59595237D01*
X96282381Y-59690476D01*
X96234762Y-59785714D01*
X96187143Y-59833333D01*
X96091905Y-59880952D01*
X95901429Y-59928571D01*
X95663333Y-59928571D01*
X95472857Y-59880952D01*
X95377619Y-59833333D01*
X95330000Y-59785714D01*
X95282381Y-59690476D01*
X115282381Y-48309523D02*
X115996667Y-48309523D01*
X116139524Y-48357143D01*
X116234762Y-48452381D01*
X116282381Y-48595238D01*
X116282381Y-48690476D01*
X116282381Y-47309523D02*
X116282381Y-47880952D01*
X116282381Y-47595238D02*
X115282381Y-47595238D01*
X115425238Y-47690476D01*
X115520476Y-47785714D01*
X115568095Y-47880952D01*
X116282381Y-46357142D02*
X116282381Y-46928571D01*
X116282381Y-46642857D02*
X115282381Y-46642857D01*
X115425238Y-46738095D01*
X115520476Y-46833333D01*
X115568095Y-46928571D01*
X115010881Y-116014523D02*
X115725167Y-116014523D01*
X115868024Y-116062143D01*
X115963262Y-116157381D01*
X116010881Y-116300238D01*
X116010881Y-116395476D01*
X116010881Y-115014523D02*
X116010881Y-115585952D01*
X116010881Y-115300238D02*
X115010881Y-115300238D01*
X115153738Y-115395476D01*
X115248976Y-115490714D01*
X115296595Y-115585952D01*
X115106119Y-114633571D02*
X115058500Y-114585952D01*
X115010881Y-114490714D01*
X115010881Y-114252618D01*
X115058500Y-114157380D01*
X115106119Y-114109761D01*
X115201357Y-114062142D01*
X115296595Y-114062142D01*
X115439452Y-114109761D01*
X116010881Y-114681190D01*
X116010881Y-114062142D01*
X133282381Y-48309523D02*
X133996667Y-48309523D01*
X134139524Y-48357143D01*
X134234762Y-48452381D01*
X134282381Y-48595238D01*
X134282381Y-48690476D01*
X134282381Y-47309523D02*
X134282381Y-47880952D01*
X134282381Y-47595238D02*
X133282381Y-47595238D01*
X133425238Y-47690476D01*
X133520476Y-47785714D01*
X133568095Y-47880952D01*
X133282381Y-46976190D02*
X133282381Y-46357142D01*
X133663333Y-46690476D01*
X133663333Y-46547618D01*
X133710952Y-46452380D01*
X133758571Y-46404761D01*
X133853810Y-46357142D01*
X134091905Y-46357142D01*
X134187143Y-46404761D01*
X134234762Y-46452380D01*
X134282381Y-46547618D01*
X134282381Y-46833333D01*
X134234762Y-46928571D01*
X134187143Y-46976190D01*
X133282381Y-61309523D02*
X133996667Y-61309523D01*
X134139524Y-61357143D01*
X134234762Y-61452381D01*
X134282381Y-61595238D01*
X134282381Y-61690476D01*
X134282381Y-60309523D02*
X134282381Y-60880952D01*
X134282381Y-60595238D02*
X133282381Y-60595238D01*
X133425238Y-60690476D01*
X133520476Y-60785714D01*
X133568095Y-60880952D01*
X133615714Y-59452380D02*
X134282381Y-59452380D01*
X133234762Y-59690476D02*
X133949048Y-59928571D01*
X133949048Y-59309523D01*
X133282381Y-74309523D02*
X133996667Y-74309523D01*
X134139524Y-74357143D01*
X134234762Y-74452381D01*
X134282381Y-74595238D01*
X134282381Y-74690476D01*
X134282381Y-73309523D02*
X134282381Y-73880952D01*
X134282381Y-73595238D02*
X133282381Y-73595238D01*
X133425238Y-73690476D01*
X133520476Y-73785714D01*
X133568095Y-73880952D01*
X133282381Y-72404761D02*
X133282381Y-72880952D01*
X133758571Y-72928571D01*
X133710952Y-72880952D01*
X133663333Y-72785714D01*
X133663333Y-72547618D01*
X133710952Y-72452380D01*
X133758571Y-72404761D01*
X133853810Y-72357142D01*
X134091905Y-72357142D01*
X134187143Y-72404761D01*
X134234762Y-72452380D01*
X134282381Y-72547618D01*
X134282381Y-72785714D01*
X134234762Y-72880952D01*
X134187143Y-72928571D01*
X133282381Y-87309523D02*
X133996667Y-87309523D01*
X134139524Y-87357143D01*
X134234762Y-87452381D01*
X134282381Y-87595238D01*
X134282381Y-87690476D01*
X134282381Y-86309523D02*
X134282381Y-86880952D01*
X134282381Y-86595238D02*
X133282381Y-86595238D01*
X133425238Y-86690476D01*
X133520476Y-86785714D01*
X133568095Y-86880952D01*
X133282381Y-85452380D02*
X133282381Y-85642857D01*
X133330000Y-85738095D01*
X133377619Y-85785714D01*
X133520476Y-85880952D01*
X133710952Y-85928571D01*
X134091905Y-85928571D01*
X134187143Y-85880952D01*
X134234762Y-85833333D01*
X134282381Y-85738095D01*
X134282381Y-85547618D01*
X134234762Y-85452380D01*
X134187143Y-85404761D01*
X134091905Y-85357142D01*
X133853810Y-85357142D01*
X133758571Y-85404761D01*
X133710952Y-85452380D01*
X133663333Y-85547618D01*
X133663333Y-85738095D01*
X133710952Y-85833333D01*
X133758571Y-85880952D01*
X133853810Y-85928571D01*
X129234881Y-115824023D02*
X129949167Y-115824023D01*
X130092024Y-115871643D01*
X130187262Y-115966881D01*
X130234881Y-116109738D01*
X130234881Y-116204976D01*
X130234881Y-114824023D02*
X130234881Y-115395452D01*
X130234881Y-115109738D02*
X129234881Y-115109738D01*
X129377738Y-115204976D01*
X129472976Y-115300214D01*
X129520595Y-115395452D01*
X129234881Y-114490690D02*
X129234881Y-113824023D01*
X130234881Y-114252595D01*
X150282381Y-100309523D02*
X150996667Y-100309523D01*
X151139524Y-100357143D01*
X151234762Y-100452381D01*
X151282381Y-100595238D01*
X151282381Y-100690476D01*
X151282381Y-99309523D02*
X151282381Y-99880952D01*
X151282381Y-99595238D02*
X150282381Y-99595238D01*
X150425238Y-99690476D01*
X150520476Y-99785714D01*
X150568095Y-99880952D01*
X150710952Y-98738095D02*
X150663333Y-98833333D01*
X150615714Y-98880952D01*
X150520476Y-98928571D01*
X150472857Y-98928571D01*
X150377619Y-98880952D01*
X150330000Y-98833333D01*
X150282381Y-98738095D01*
X150282381Y-98547618D01*
X150330000Y-98452380D01*
X150377619Y-98404761D01*
X150472857Y-98357142D01*
X150520476Y-98357142D01*
X150615714Y-98404761D01*
X150663333Y-98452380D01*
X150710952Y-98547618D01*
X150710952Y-98738095D01*
X150758571Y-98833333D01*
X150806190Y-98880952D01*
X150901429Y-98928571D01*
X151091905Y-98928571D01*
X151187143Y-98880952D01*
X151234762Y-98833333D01*
X151282381Y-98738095D01*
X151282381Y-98547618D01*
X151234762Y-98452380D01*
X151187143Y-98404761D01*
X151091905Y-98357142D01*
X150901429Y-98357142D01*
X150806190Y-98404761D01*
X150758571Y-98452380D01*
X150710952Y-98547618D01*
X150282381Y-87309523D02*
X150996667Y-87309523D01*
X151139524Y-87357143D01*
X151234762Y-87452381D01*
X151282381Y-87595238D01*
X151282381Y-87690476D01*
X151282381Y-86309523D02*
X151282381Y-86880952D01*
X151282381Y-86595238D02*
X150282381Y-86595238D01*
X150425238Y-86690476D01*
X150520476Y-86785714D01*
X150568095Y-86880952D01*
X151282381Y-85833333D02*
X151282381Y-85642857D01*
X151234762Y-85547618D01*
X151187143Y-85499999D01*
X151044286Y-85404761D01*
X150853810Y-85357142D01*
X150472857Y-85357142D01*
X150377619Y-85404761D01*
X150330000Y-85452380D01*
X150282381Y-85547618D01*
X150282381Y-85738095D01*
X150330000Y-85833333D01*
X150377619Y-85880952D01*
X150472857Y-85928571D01*
X150710952Y-85928571D01*
X150806190Y-85880952D01*
X150853810Y-85833333D01*
X150901429Y-85738095D01*
X150901429Y-85547618D01*
X150853810Y-85452380D01*
X150806190Y-85404761D01*
X150710952Y-85357142D01*
X150282381Y-74309523D02*
X150996667Y-74309523D01*
X151139524Y-74357143D01*
X151234762Y-74452381D01*
X151282381Y-74595238D01*
X151282381Y-74690476D01*
X150377619Y-73880952D02*
X150330000Y-73833333D01*
X150282381Y-73738095D01*
X150282381Y-73499999D01*
X150330000Y-73404761D01*
X150377619Y-73357142D01*
X150472857Y-73309523D01*
X150568095Y-73309523D01*
X150710952Y-73357142D01*
X151282381Y-73928571D01*
X151282381Y-73309523D01*
X150282381Y-72690476D02*
X150282381Y-72595237D01*
X150330000Y-72499999D01*
X150377619Y-72452380D01*
X150472857Y-72404761D01*
X150663333Y-72357142D01*
X150901429Y-72357142D01*
X151091905Y-72404761D01*
X151187143Y-72452380D01*
X151234762Y-72499999D01*
X151282381Y-72595237D01*
X151282381Y-72690476D01*
X151234762Y-72785714D01*
X151187143Y-72833333D01*
X151091905Y-72880952D01*
X150901429Y-72928571D01*
X150663333Y-72928571D01*
X150472857Y-72880952D01*
X150377619Y-72833333D01*
X150330000Y-72785714D01*
X150282381Y-72690476D01*
X150282381Y-60809523D02*
X150996667Y-60809523D01*
X151139524Y-60857143D01*
X151234762Y-60952381D01*
X151282381Y-61095238D01*
X151282381Y-61190476D01*
X150377619Y-60380952D02*
X150330000Y-60333333D01*
X150282381Y-60238095D01*
X150282381Y-59999999D01*
X150330000Y-59904761D01*
X150377619Y-59857142D01*
X150472857Y-59809523D01*
X150568095Y-59809523D01*
X150710952Y-59857142D01*
X151282381Y-60428571D01*
X151282381Y-59809523D01*
X151282381Y-58857142D02*
X151282381Y-59428571D01*
X151282381Y-59142857D02*
X150282381Y-59142857D01*
X150425238Y-59238095D01*
X150520476Y-59333333D01*
X150568095Y-59428571D01*
X142442881Y-115824023D02*
X143157167Y-115824023D01*
X143300024Y-115871643D01*
X143395262Y-115966881D01*
X143442881Y-116109738D01*
X143442881Y-116204976D01*
X142538119Y-115395452D02*
X142490500Y-115347833D01*
X142442881Y-115252595D01*
X142442881Y-115014499D01*
X142490500Y-114919261D01*
X142538119Y-114871642D01*
X142633357Y-114824023D01*
X142728595Y-114824023D01*
X142871452Y-114871642D01*
X143442881Y-115443071D01*
X143442881Y-114824023D01*
X142538119Y-114443071D02*
X142490500Y-114395452D01*
X142442881Y-114300214D01*
X142442881Y-114062118D01*
X142490500Y-113966880D01*
X142538119Y-113919261D01*
X142633357Y-113871642D01*
X142728595Y-113871642D01*
X142871452Y-113919261D01*
X143442881Y-114490690D01*
X143442881Y-113871642D01*
X62724381Y-110625523D02*
X63438667Y-110625523D01*
X63581524Y-110673143D01*
X63676762Y-110768381D01*
X63724381Y-110911238D01*
X63724381Y-111006476D01*
X62819619Y-110196952D02*
X62772000Y-110149333D01*
X62724381Y-110054095D01*
X62724381Y-109815999D01*
X62772000Y-109720761D01*
X62819619Y-109673142D01*
X62914857Y-109625523D01*
X63010095Y-109625523D01*
X63152952Y-109673142D01*
X63724381Y-110244571D01*
X63724381Y-109625523D01*
X62724381Y-109292190D02*
X62724381Y-108673142D01*
X63105333Y-109006476D01*
X63105333Y-108863618D01*
X63152952Y-108768380D01*
X63200571Y-108720761D01*
X63295810Y-108673142D01*
X63533905Y-108673142D01*
X63629143Y-108720761D01*
X63676762Y-108768380D01*
X63724381Y-108863618D01*
X63724381Y-109149333D01*
X63676762Y-109244571D01*
X63629143Y-109292190D01*
X62978381Y-121715523D02*
X63692667Y-121715523D01*
X63835524Y-121763143D01*
X63930762Y-121858381D01*
X63978381Y-122001238D01*
X63978381Y-122096476D01*
X63073619Y-121286952D02*
X63026000Y-121239333D01*
X62978381Y-121144095D01*
X62978381Y-120905999D01*
X63026000Y-120810761D01*
X63073619Y-120763142D01*
X63168857Y-120715523D01*
X63264095Y-120715523D01*
X63406952Y-120763142D01*
X63978381Y-121334571D01*
X63978381Y-120715523D01*
X63311714Y-119858380D02*
X63978381Y-119858380D01*
X62930762Y-120096476D02*
X63645048Y-120334571D01*
X63645048Y-119715523D01*
X158653477Y-113877381D02*
X158653477Y-114591667D01*
X158605857Y-114734524D01*
X158510619Y-114829762D01*
X158367762Y-114877381D01*
X158272524Y-114877381D01*
X159082048Y-113972619D02*
X159129667Y-113925000D01*
X159224905Y-113877381D01*
X159463001Y-113877381D01*
X159558239Y-113925000D01*
X159605858Y-113972619D01*
X159653477Y-114067857D01*
X159653477Y-114163095D01*
X159605858Y-114305952D01*
X159034429Y-114877381D01*
X159653477Y-114877381D01*
X160510620Y-113877381D02*
X160320143Y-113877381D01*
X160224905Y-113925000D01*
X160177286Y-113972619D01*
X160082048Y-114115476D01*
X160034429Y-114305952D01*
X160034429Y-114686905D01*
X160082048Y-114782143D01*
X160129667Y-114829762D01*
X160224905Y-114877381D01*
X160415382Y-114877381D01*
X160510620Y-114829762D01*
X160558239Y-114782143D01*
X160605858Y-114686905D01*
X160605858Y-114448810D01*
X160558239Y-114353571D01*
X160510620Y-114305952D01*
X160415382Y-114258333D01*
X160224905Y-114258333D01*
X160129667Y-114305952D01*
X160082048Y-114353571D01*
X160034429Y-114448810D01*
X83216834Y-112150381D02*
X82883500Y-111674190D01*
X82645405Y-112150381D02*
X82645405Y-111150381D01*
X83026358Y-111150381D01*
X83121596Y-111198000D01*
X83169215Y-111245619D01*
X83216834Y-111340857D01*
X83216834Y-111483714D01*
X83169215Y-111578952D01*
X83121596Y-111626571D01*
X83026358Y-111674190D01*
X82645405Y-111674190D01*
X84169215Y-112150381D02*
X83597786Y-112150381D01*
X83883500Y-112150381D02*
X83883500Y-111150381D01*
X83788262Y-111293238D01*
X83693024Y-111388476D01*
X83597786Y-111436095D01*
X83151881Y-123403666D02*
X82675690Y-123737000D01*
X83151881Y-123975095D02*
X82151881Y-123975095D01*
X82151881Y-123594142D01*
X82199500Y-123498904D01*
X82247119Y-123451285D01*
X82342357Y-123403666D01*
X82485214Y-123403666D01*
X82580452Y-123451285D01*
X82628071Y-123498904D01*
X82675690Y-123594142D01*
X82675690Y-123975095D01*
X82247119Y-123022714D02*
X82199500Y-122975095D01*
X82151881Y-122879857D01*
X82151881Y-122641761D01*
X82199500Y-122546523D01*
X82247119Y-122498904D01*
X82342357Y-122451285D01*
X82437595Y-122451285D01*
X82580452Y-122498904D01*
X83151881Y-123070333D01*
X83151881Y-122451285D01*
X96678834Y-112467881D02*
X96345500Y-111991690D01*
X96107405Y-112467881D02*
X96107405Y-111467881D01*
X96488358Y-111467881D01*
X96583596Y-111515500D01*
X96631215Y-111563119D01*
X96678834Y-111658357D01*
X96678834Y-111801214D01*
X96631215Y-111896452D01*
X96583596Y-111944071D01*
X96488358Y-111991690D01*
X96107405Y-111991690D01*
X97012167Y-111467881D02*
X97631215Y-111467881D01*
X97297881Y-111848833D01*
X97440739Y-111848833D01*
X97535977Y-111896452D01*
X97583596Y-111944071D01*
X97631215Y-112039310D01*
X97631215Y-112277405D01*
X97583596Y-112372643D01*
X97535977Y-112420262D01*
X97440739Y-112467881D01*
X97155024Y-112467881D01*
X97059786Y-112420262D01*
X97012167Y-112372643D01*
X95994381Y-123149666D02*
X95518190Y-123483000D01*
X95994381Y-123721095D02*
X94994381Y-123721095D01*
X94994381Y-123340142D01*
X95042000Y-123244904D01*
X95089619Y-123197285D01*
X95184857Y-123149666D01*
X95327714Y-123149666D01*
X95422952Y-123197285D01*
X95470571Y-123244904D01*
X95518190Y-123340142D01*
X95518190Y-123721095D01*
X95327714Y-122292523D02*
X95994381Y-122292523D01*
X94946762Y-122530619D02*
X95661048Y-122768714D01*
X95661048Y-122149666D01*
X109188334Y-112213881D02*
X108855000Y-111737690D01*
X108616905Y-112213881D02*
X108616905Y-111213881D01*
X108997858Y-111213881D01*
X109093096Y-111261500D01*
X109140715Y-111309119D01*
X109188334Y-111404357D01*
X109188334Y-111547214D01*
X109140715Y-111642452D01*
X109093096Y-111690071D01*
X108997858Y-111737690D01*
X108616905Y-111737690D01*
X110093096Y-111213881D02*
X109616905Y-111213881D01*
X109569286Y-111690071D01*
X109616905Y-111642452D01*
X109712143Y-111594833D01*
X109950239Y-111594833D01*
X110045477Y-111642452D01*
X110093096Y-111690071D01*
X110140715Y-111785310D01*
X110140715Y-112023405D01*
X110093096Y-112118643D01*
X110045477Y-112166262D01*
X109950239Y-112213881D01*
X109712143Y-112213881D01*
X109616905Y-112166262D01*
X109569286Y-112118643D01*
X107868381Y-123197166D02*
X107392190Y-123530500D01*
X107868381Y-123768595D02*
X106868381Y-123768595D01*
X106868381Y-123387642D01*
X106916000Y-123292404D01*
X106963619Y-123244785D01*
X107058857Y-123197166D01*
X107201714Y-123197166D01*
X107296952Y-123244785D01*
X107344571Y-123292404D01*
X107392190Y-123387642D01*
X107392190Y-123768595D01*
X106868381Y-122340023D02*
X106868381Y-122530500D01*
X106916000Y-122625738D01*
X106963619Y-122673357D01*
X107106476Y-122768595D01*
X107296952Y-122816214D01*
X107677905Y-122816214D01*
X107773143Y-122768595D01*
X107820762Y-122720976D01*
X107868381Y-122625738D01*
X107868381Y-122435261D01*
X107820762Y-122340023D01*
X107773143Y-122292404D01*
X107677905Y-122244785D01*
X107439810Y-122244785D01*
X107344571Y-122292404D01*
X107296952Y-122340023D01*
X107249333Y-122435261D01*
X107249333Y-122625738D01*
X107296952Y-122720976D01*
X107344571Y-122768595D01*
X107439810Y-122816214D01*
X123793334Y-112721881D02*
X123460000Y-112245690D01*
X123221905Y-112721881D02*
X123221905Y-111721881D01*
X123602858Y-111721881D01*
X123698096Y-111769500D01*
X123745715Y-111817119D01*
X123793334Y-111912357D01*
X123793334Y-112055214D01*
X123745715Y-112150452D01*
X123698096Y-112198071D01*
X123602858Y-112245690D01*
X123221905Y-112245690D01*
X124126667Y-111721881D02*
X124793334Y-111721881D01*
X124364762Y-112721881D01*
X124695881Y-121768666D02*
X124219690Y-122102000D01*
X124695881Y-122340095D02*
X123695881Y-122340095D01*
X123695881Y-121959142D01*
X123743500Y-121863904D01*
X123791119Y-121816285D01*
X123886357Y-121768666D01*
X124029214Y-121768666D01*
X124124452Y-121816285D01*
X124172071Y-121863904D01*
X124219690Y-121959142D01*
X124219690Y-122340095D01*
X124124452Y-121197238D02*
X124076833Y-121292476D01*
X124029214Y-121340095D01*
X123933976Y-121387714D01*
X123886357Y-121387714D01*
X123791119Y-121340095D01*
X123743500Y-121292476D01*
X123695881Y-121197238D01*
X123695881Y-121006761D01*
X123743500Y-120911523D01*
X123791119Y-120863904D01*
X123886357Y-120816285D01*
X123933976Y-120816285D01*
X124029214Y-120863904D01*
X124076833Y-120911523D01*
X124124452Y-121006761D01*
X124124452Y-121197238D01*
X124172071Y-121292476D01*
X124219690Y-121340095D01*
X124314929Y-121387714D01*
X124505405Y-121387714D01*
X124600643Y-121340095D01*
X124648262Y-121292476D01*
X124695881Y-121197238D01*
X124695881Y-121006761D01*
X124648262Y-120911523D01*
X124600643Y-120863904D01*
X124505405Y-120816285D01*
X124314929Y-120816285D01*
X124219690Y-120863904D01*
X124172071Y-120911523D01*
X124124452Y-121006761D01*
X136175834Y-112213881D02*
X135842500Y-111737690D01*
X135604405Y-112213881D02*
X135604405Y-111213881D01*
X135985358Y-111213881D01*
X136080596Y-111261500D01*
X136128215Y-111309119D01*
X136175834Y-111404357D01*
X136175834Y-111547214D01*
X136128215Y-111642452D01*
X136080596Y-111690071D01*
X135985358Y-111737690D01*
X135604405Y-111737690D01*
X136652024Y-112213881D02*
X136842500Y-112213881D01*
X136937739Y-112166262D01*
X136985358Y-112118643D01*
X137080596Y-111975786D01*
X137128215Y-111785310D01*
X137128215Y-111404357D01*
X137080596Y-111309119D01*
X137032977Y-111261500D01*
X136937739Y-111213881D01*
X136747262Y-111213881D01*
X136652024Y-111261500D01*
X136604405Y-111309119D01*
X136556786Y-111404357D01*
X136556786Y-111642452D01*
X136604405Y-111737690D01*
X136652024Y-111785310D01*
X136747262Y-111832929D01*
X136937739Y-111832929D01*
X137032977Y-111785310D01*
X137080596Y-111737690D01*
X137128215Y-111642452D01*
X138807881Y-122419357D02*
X138331690Y-122752691D01*
X138807881Y-122990786D02*
X137807881Y-122990786D01*
X137807881Y-122609833D01*
X137855500Y-122514595D01*
X137903119Y-122466976D01*
X137998357Y-122419357D01*
X138141214Y-122419357D01*
X138236452Y-122466976D01*
X138284071Y-122514595D01*
X138331690Y-122609833D01*
X138331690Y-122990786D01*
X138807881Y-121466976D02*
X138807881Y-122038405D01*
X138807881Y-121752691D02*
X137807881Y-121752691D01*
X137950738Y-121847929D01*
X138045976Y-121943167D01*
X138093595Y-122038405D01*
X137807881Y-120847929D02*
X137807881Y-120752690D01*
X137855500Y-120657452D01*
X137903119Y-120609833D01*
X137998357Y-120562214D01*
X138188833Y-120514595D01*
X138426929Y-120514595D01*
X138617405Y-120562214D01*
X138712643Y-120609833D01*
X138760262Y-120657452D01*
X138807881Y-120752690D01*
X138807881Y-120847929D01*
X138760262Y-120943167D01*
X138712643Y-120990786D01*
X138617405Y-121038405D01*
X138426929Y-121086024D01*
X138188833Y-121086024D01*
X137998357Y-121038405D01*
X137903119Y-120990786D01*
X137855500Y-120943167D01*
X137807881Y-120847929D01*
X75282381Y-99809523D02*
X75996667Y-99809523D01*
X76139524Y-99857143D01*
X76234762Y-99952381D01*
X76282381Y-100095238D01*
X76282381Y-100190476D01*
X75377619Y-99380952D02*
X75330000Y-99333333D01*
X75282381Y-99238095D01*
X75282381Y-98999999D01*
X75330000Y-98904761D01*
X75377619Y-98857142D01*
X75472857Y-98809523D01*
X75568095Y-98809523D01*
X75710952Y-98857142D01*
X76282381Y-99428571D01*
X76282381Y-98809523D01*
X75282381Y-98476190D02*
X75282381Y-97809523D01*
X76282381Y-98238095D01*
X95282381Y-47809523D02*
X95996667Y-47809523D01*
X96139524Y-47857143D01*
X96234762Y-47952381D01*
X96282381Y-48095238D01*
X96282381Y-48190476D01*
X95377619Y-47380952D02*
X95330000Y-47333333D01*
X95282381Y-47238095D01*
X95282381Y-46999999D01*
X95330000Y-46904761D01*
X95377619Y-46857142D01*
X95472857Y-46809523D01*
X95568095Y-46809523D01*
X95710952Y-46857142D01*
X96282381Y-47428571D01*
X96282381Y-46809523D01*
X95710952Y-46238095D02*
X95663333Y-46333333D01*
X95615714Y-46380952D01*
X95520476Y-46428571D01*
X95472857Y-46428571D01*
X95377619Y-46380952D01*
X95330000Y-46333333D01*
X95282381Y-46238095D01*
X95282381Y-46047618D01*
X95330000Y-45952380D01*
X95377619Y-45904761D01*
X95472857Y-45857142D01*
X95520476Y-45857142D01*
X95615714Y-45904761D01*
X95663333Y-45952380D01*
X95710952Y-46047618D01*
X95710952Y-46238095D01*
X95758571Y-46333333D01*
X95806190Y-46380952D01*
X95901429Y-46428571D01*
X96091905Y-46428571D01*
X96187143Y-46380952D01*
X96234762Y-46333333D01*
X96282381Y-46238095D01*
X96282381Y-46047618D01*
X96234762Y-45952380D01*
X96187143Y-45904761D01*
X96091905Y-45857142D01*
X95901429Y-45857142D01*
X95806190Y-45904761D01*
X95758571Y-45952380D01*
X95710952Y-46047618D01*
X150282381Y-48309523D02*
X150996667Y-48309523D01*
X151139524Y-48357143D01*
X151234762Y-48452381D01*
X151282381Y-48595238D01*
X151282381Y-48690476D01*
X150282381Y-47928571D02*
X150282381Y-47309523D01*
X150663333Y-47642857D01*
X150663333Y-47499999D01*
X150710952Y-47404761D01*
X150758571Y-47357142D01*
X150853810Y-47309523D01*
X151091905Y-47309523D01*
X151187143Y-47357142D01*
X151234762Y-47404761D01*
X151282381Y-47499999D01*
X151282381Y-47785714D01*
X151234762Y-47880952D01*
X151187143Y-47928571D01*
X150282381Y-46690476D02*
X150282381Y-46595237D01*
X150330000Y-46499999D01*
X150377619Y-46452380D01*
X150472857Y-46404761D01*
X150663333Y-46357142D01*
X150901429Y-46357142D01*
X151091905Y-46404761D01*
X151187143Y-46452380D01*
X151234762Y-46499999D01*
X151282381Y-46595237D01*
X151282381Y-46690476D01*
X151234762Y-46785714D01*
X151187143Y-46833333D01*
X151091905Y-46880952D01*
X150901429Y-46928571D01*
X150663333Y-46928571D01*
X150472857Y-46880952D01*
X150377619Y-46833333D01*
X150330000Y-46785714D01*
X150282381Y-46690476D01*
X69833334Y-42167143D02*
X69785715Y-42214762D01*
X69642858Y-42262381D01*
X69547620Y-42262381D01*
X69404762Y-42214762D01*
X69309524Y-42119524D01*
X69261905Y-42024286D01*
X69214286Y-41833810D01*
X69214286Y-41690952D01*
X69261905Y-41500476D01*
X69309524Y-41405238D01*
X69404762Y-41310000D01*
X69547620Y-41262381D01*
X69642858Y-41262381D01*
X69785715Y-41310000D01*
X69833334Y-41357619D01*
X70785715Y-42262381D02*
X70214286Y-42262381D01*
X70500000Y-42262381D02*
X70500000Y-41262381D01*
X70404762Y-41405238D01*
X70309524Y-41500476D01*
X70214286Y-41548095D01*
X89333334Y-42667143D02*
X89285715Y-42714762D01*
X89142858Y-42762381D01*
X89047620Y-42762381D01*
X88904762Y-42714762D01*
X88809524Y-42619524D01*
X88761905Y-42524286D01*
X88714286Y-42333810D01*
X88714286Y-42190952D01*
X88761905Y-42000476D01*
X88809524Y-41905238D01*
X88904762Y-41810000D01*
X89047620Y-41762381D01*
X89142858Y-41762381D01*
X89285715Y-41810000D01*
X89333334Y-41857619D01*
X89714286Y-41857619D02*
X89761905Y-41810000D01*
X89857143Y-41762381D01*
X90095239Y-41762381D01*
X90190477Y-41810000D01*
X90238096Y-41857619D01*
X90285715Y-41952857D01*
X90285715Y-42048095D01*
X90238096Y-42190952D01*
X89666667Y-42762381D01*
X90285715Y-42762381D01*
X109833334Y-43167143D02*
X109785715Y-43214762D01*
X109642858Y-43262381D01*
X109547620Y-43262381D01*
X109404762Y-43214762D01*
X109309524Y-43119524D01*
X109261905Y-43024286D01*
X109214286Y-42833810D01*
X109214286Y-42690952D01*
X109261905Y-42500476D01*
X109309524Y-42405238D01*
X109404762Y-42310000D01*
X109547620Y-42262381D01*
X109642858Y-42262381D01*
X109785715Y-42310000D01*
X109833334Y-42357619D01*
X110166667Y-42262381D02*
X110785715Y-42262381D01*
X110452381Y-42643333D01*
X110595239Y-42643333D01*
X110690477Y-42690952D01*
X110738096Y-42738571D01*
X110785715Y-42833810D01*
X110785715Y-43071905D01*
X110738096Y-43167143D01*
X110690477Y-43214762D01*
X110595239Y-43262381D01*
X110309524Y-43262381D01*
X110214286Y-43214762D01*
X110166667Y-43167143D01*
X127333334Y-43167143D02*
X127285715Y-43214762D01*
X127142858Y-43262381D01*
X127047620Y-43262381D01*
X126904762Y-43214762D01*
X126809524Y-43119524D01*
X126761905Y-43024286D01*
X126714286Y-42833810D01*
X126714286Y-42690952D01*
X126761905Y-42500476D01*
X126809524Y-42405238D01*
X126904762Y-42310000D01*
X127047620Y-42262381D01*
X127142858Y-42262381D01*
X127285715Y-42310000D01*
X127333334Y-42357619D01*
X128190477Y-42595714D02*
X128190477Y-43262381D01*
X127952381Y-42214762D02*
X127714286Y-42929048D01*
X128333334Y-42929048D01*
X144333334Y-43167143D02*
X144285715Y-43214762D01*
X144142858Y-43262381D01*
X144047620Y-43262381D01*
X143904762Y-43214762D01*
X143809524Y-43119524D01*
X143761905Y-43024286D01*
X143714286Y-42833810D01*
X143714286Y-42690952D01*
X143761905Y-42500476D01*
X143809524Y-42405238D01*
X143904762Y-42310000D01*
X144047620Y-42262381D01*
X144142858Y-42262381D01*
X144285715Y-42310000D01*
X144333334Y-42357619D01*
X145238096Y-42262381D02*
X144761905Y-42262381D01*
X144714286Y-42738571D01*
X144761905Y-42690952D01*
X144857143Y-42643333D01*
X145095239Y-42643333D01*
X145190477Y-42690952D01*
X145238096Y-42738571D01*
X145285715Y-42833810D01*
X145285715Y-43071905D01*
X145238096Y-43167143D01*
X145190477Y-43214762D01*
X145095239Y-43262381D01*
X144857143Y-43262381D01*
X144761905Y-43214762D01*
X144714286Y-43167143D01*
X153389381Y-91084357D02*
X152913190Y-91417691D01*
X153389381Y-91655786D02*
X152389381Y-91655786D01*
X152389381Y-91274833D01*
X152437000Y-91179595D01*
X152484619Y-91131976D01*
X152579857Y-91084357D01*
X152722714Y-91084357D01*
X152817952Y-91131976D01*
X152865571Y-91179595D01*
X152913190Y-91274833D01*
X152913190Y-91655786D01*
X153389381Y-90131976D02*
X153389381Y-90703405D01*
X153389381Y-90417691D02*
X152389381Y-90417691D01*
X152532238Y-90512929D01*
X152627476Y-90608167D01*
X152675095Y-90703405D01*
X153389381Y-89179595D02*
X153389381Y-89751024D01*
X153389381Y-89465310D02*
X152389381Y-89465310D01*
X152532238Y-89560548D01*
X152627476Y-89655786D01*
X152675095Y-89751024D01*
X159666667Y-31404381D02*
X159333333Y-30928190D01*
X159095238Y-31404381D02*
X159095238Y-30404381D01*
X159476191Y-30404381D01*
X159571429Y-30452000D01*
X159619048Y-30499619D01*
X159666667Y-30594857D01*
X159666667Y-30737714D01*
X159619048Y-30832952D01*
X159571429Y-30880571D01*
X159476191Y-30928190D01*
X159095238Y-30928190D01*
X160095238Y-30880571D02*
X160428572Y-30880571D01*
X160571429Y-31404381D02*
X160095238Y-31404381D01*
X160095238Y-30404381D01*
X160571429Y-30404381D01*
X161333334Y-30880571D02*
X161000000Y-30880571D01*
X161000000Y-31404381D02*
X161000000Y-30404381D01*
X161476191Y-30404381D01*
X162000000Y-30404381D02*
X162000000Y-30642476D01*
X161761905Y-30547238D02*
X162000000Y-30642476D01*
X162238096Y-30547238D01*
X161857143Y-30832952D02*
X162000000Y-30642476D01*
X162142858Y-30832952D01*
X162761905Y-30404381D02*
X162761905Y-30642476D01*
X162523810Y-30547238D02*
X162761905Y-30642476D01*
X163000001Y-30547238D01*
X162619048Y-30832952D02*
X162761905Y-30642476D01*
X162904763Y-30832952D01*
X53666667Y-31404381D02*
X53333333Y-30928190D01*
X53095238Y-31404381D02*
X53095238Y-30404381D01*
X53476191Y-30404381D01*
X53571429Y-30452000D01*
X53619048Y-30499619D01*
X53666667Y-30594857D01*
X53666667Y-30737714D01*
X53619048Y-30832952D01*
X53571429Y-30880571D01*
X53476191Y-30928190D01*
X53095238Y-30928190D01*
X54095238Y-30880571D02*
X54428572Y-30880571D01*
X54571429Y-31404381D02*
X54095238Y-31404381D01*
X54095238Y-30404381D01*
X54571429Y-30404381D01*
X55333334Y-30880571D02*
X55000000Y-30880571D01*
X55000000Y-31404381D02*
X55000000Y-30404381D01*
X55476191Y-30404381D01*
X56000000Y-30404381D02*
X56000000Y-30642476D01*
X55761905Y-30547238D02*
X56000000Y-30642476D01*
X56238096Y-30547238D01*
X55857143Y-30832952D02*
X56000000Y-30642476D01*
X56142858Y-30832952D01*
X56761905Y-30404381D02*
X56761905Y-30642476D01*
X56523810Y-30547238D02*
X56761905Y-30642476D01*
X57000001Y-30547238D01*
X56619048Y-30832952D02*
X56761905Y-30642476D01*
X56904763Y-30832952D01*
X53666667Y-121404381D02*
X53333333Y-120928190D01*
X53095238Y-121404381D02*
X53095238Y-120404381D01*
X53476191Y-120404381D01*
X53571429Y-120452000D01*
X53619048Y-120499619D01*
X53666667Y-120594857D01*
X53666667Y-120737714D01*
X53619048Y-120832952D01*
X53571429Y-120880571D01*
X53476191Y-120928190D01*
X53095238Y-120928190D01*
X54095238Y-120880571D02*
X54428572Y-120880571D01*
X54571429Y-121404381D02*
X54095238Y-121404381D01*
X54095238Y-120404381D01*
X54571429Y-120404381D01*
X55333334Y-120880571D02*
X55000000Y-120880571D01*
X55000000Y-121404381D02*
X55000000Y-120404381D01*
X55476191Y-120404381D01*
X56000000Y-120404381D02*
X56000000Y-120642476D01*
X55761905Y-120547238D02*
X56000000Y-120642476D01*
X56238096Y-120547238D01*
X55857143Y-120832952D02*
X56000000Y-120642476D01*
X56142858Y-120832952D01*
X56761905Y-120404381D02*
X56761905Y-120642476D01*
X56523810Y-120547238D02*
X56761905Y-120642476D01*
X57000001Y-120547238D01*
X56619048Y-120832952D02*
X56761905Y-120642476D01*
X56904763Y-120832952D01*
X159666667Y-121404381D02*
X159333333Y-120928190D01*
X159095238Y-121404381D02*
X159095238Y-120404381D01*
X159476191Y-120404381D01*
X159571429Y-120452000D01*
X159619048Y-120499619D01*
X159666667Y-120594857D01*
X159666667Y-120737714D01*
X159619048Y-120832952D01*
X159571429Y-120880571D01*
X159476191Y-120928190D01*
X159095238Y-120928190D01*
X160095238Y-120880571D02*
X160428572Y-120880571D01*
X160571429Y-121404381D02*
X160095238Y-121404381D01*
X160095238Y-120404381D01*
X160571429Y-120404381D01*
X161333334Y-120880571D02*
X161000000Y-120880571D01*
X161000000Y-121404381D02*
X161000000Y-120404381D01*
X161476191Y-120404381D01*
X162000000Y-120404381D02*
X162000000Y-120642476D01*
X161761905Y-120547238D02*
X162000000Y-120642476D01*
X162238096Y-120547238D01*
X161857143Y-120832952D02*
X162000000Y-120642476D01*
X162142858Y-120832952D01*
X162761905Y-120404381D02*
X162761905Y-120642476D01*
X162523810Y-120547238D02*
X162761905Y-120642476D01*
X163000001Y-120547238D01*
X162619048Y-120832952D02*
X162761905Y-120642476D01*
X162904763Y-120832952D01*
X50652381Y-71709523D02*
X51366667Y-71709523D01*
X51509524Y-71757143D01*
X51604762Y-71852381D01*
X51652381Y-71995238D01*
X51652381Y-72090476D01*
X50747619Y-71280952D02*
X50700000Y-71233333D01*
X50652381Y-71138095D01*
X50652381Y-70899999D01*
X50700000Y-70804761D01*
X50747619Y-70757142D01*
X50842857Y-70709523D01*
X50938095Y-70709523D01*
X51080952Y-70757142D01*
X51652381Y-71328571D01*
X51652381Y-70709523D01*
X50652381Y-69804761D02*
X50652381Y-70280952D01*
X51128571Y-70328571D01*
X51080952Y-70280952D01*
X51033333Y-70185714D01*
X51033333Y-69947618D01*
X51080952Y-69852380D01*
X51128571Y-69804761D01*
X51223810Y-69757142D01*
X51461905Y-69757142D01*
X51557143Y-69804761D01*
X51604762Y-69852380D01*
X51652381Y-69947618D01*
X51652381Y-70185714D01*
X51604762Y-70280952D01*
X51557143Y-70328571D01*
M02*
