G04 #@! TF.FileFunction,Copper,L1,Top,Signal*
%FSLAX46Y46*%
G04 Gerber Fmt 4.6, Leading zero omitted, Abs format (unit mm)*
G04 Created by KiCad (PCBNEW 4.0.7) date Wed Jun 20 13:02:34 2018*
%MOMM*%
%LPD*%
G01*
G04 APERTURE LIST*
%ADD10C,0.100000*%
%ADD11R,1.700000X1.700000*%
%ADD12O,1.700000X1.700000*%
%ADD13R,1.500000X1.250000*%
%ADD14R,1.500000X1.300000*%
%ADD15R,1.300000X1.500000*%
%ADD16R,1.600000X1.600000*%
%ADD17C,1.600000*%
%ADD18C,5.000000*%
%ADD19C,3.000000*%
%ADD20R,3.000000X3.000000*%
%ADD21C,0.600000*%
%ADD22C,0.254000*%
%ADD23C,0.381000*%
G04 APERTURE END LIST*
D10*
D11*
X104640000Y-66200000D03*
X107180000Y-66200000D03*
X107180000Y-63660000D03*
X104640000Y-63660000D03*
X109720000Y-63660000D03*
X112260000Y-63660000D03*
X112260000Y-66200000D03*
X109720000Y-66200000D03*
X114800000Y-66200000D03*
X114800000Y-63660000D03*
X104640000Y-76360000D03*
X107180000Y-76360000D03*
X107180000Y-73820000D03*
X104640000Y-73820000D03*
X109720000Y-73820000D03*
X112260000Y-73820000D03*
X112260000Y-76360000D03*
X109720000Y-76360000D03*
X114800000Y-76360000D03*
X114800000Y-73820000D03*
X114800000Y-68740000D03*
X114800000Y-71280000D03*
X109720000Y-71280000D03*
X112260000Y-71280000D03*
X112260000Y-68740000D03*
X109720000Y-68740000D03*
X104640000Y-68740000D03*
X107180000Y-68740000D03*
X107180000Y-71280000D03*
X104640000Y-71280000D03*
X104640000Y-81440000D03*
X107180000Y-81440000D03*
X107180000Y-78900000D03*
X104640000Y-78900000D03*
X109720000Y-78900000D03*
X112260000Y-78900000D03*
X112260000Y-81440000D03*
X109720000Y-81440000D03*
X114800000Y-81440000D03*
X114800000Y-78900000D03*
X114800000Y-83980000D03*
X114800000Y-86520000D03*
X109720000Y-86520000D03*
X112260000Y-86520000D03*
X112260000Y-83980000D03*
X109720000Y-83980000D03*
X104640000Y-83980000D03*
X107180000Y-83980000D03*
X107180000Y-86520000D03*
X104640000Y-86520000D03*
X131500000Y-99500000D03*
D12*
X128960000Y-99500000D03*
X126420000Y-99500000D03*
X123880000Y-99500000D03*
D13*
X90261500Y-121459000D03*
X92761500Y-121459000D03*
X101326000Y-121713000D03*
X103826000Y-121713000D03*
X113073000Y-121125500D03*
X115573000Y-121125500D03*
X129519500Y-120205000D03*
X132019500Y-120205000D03*
X142869500Y-119490500D03*
X145369500Y-119490500D03*
D11*
X73500000Y-47000000D03*
D12*
X70960000Y-47000000D03*
X68420000Y-47000000D03*
X65880000Y-47000000D03*
D11*
X73500000Y-60000000D03*
D12*
X70960000Y-60000000D03*
X68420000Y-60000000D03*
X65880000Y-60000000D03*
D11*
X73500000Y-73000000D03*
D12*
X70960000Y-73000000D03*
X68420000Y-73000000D03*
X65880000Y-73000000D03*
D11*
X73500000Y-86000000D03*
D12*
X70960000Y-86000000D03*
X68420000Y-86000000D03*
X65880000Y-86000000D03*
D11*
X87320500Y-114887500D03*
D12*
X84780500Y-114887500D03*
D11*
X100846000Y-115078000D03*
D12*
X98306000Y-115078000D03*
D11*
X93500000Y-99000000D03*
D12*
X90960000Y-99000000D03*
X88420000Y-99000000D03*
X85880000Y-99000000D03*
D11*
X93500000Y-86000000D03*
D12*
X90960000Y-86000000D03*
X88420000Y-86000000D03*
X85880000Y-86000000D03*
D11*
X93500000Y-73000000D03*
D12*
X90960000Y-73000000D03*
X88420000Y-73000000D03*
X85880000Y-73000000D03*
D11*
X93500000Y-60500000D03*
D12*
X90960000Y-60500000D03*
X88420000Y-60500000D03*
X85880000Y-60500000D03*
D11*
X113500000Y-47500000D03*
D12*
X110960000Y-47500000D03*
X108420000Y-47500000D03*
X105880000Y-47500000D03*
D11*
X113228500Y-115205000D03*
D12*
X110688500Y-115205000D03*
D11*
X131500000Y-47500000D03*
D12*
X128960000Y-47500000D03*
X126420000Y-47500000D03*
X123880000Y-47500000D03*
D11*
X131500000Y-60500000D03*
D12*
X128960000Y-60500000D03*
X126420000Y-60500000D03*
X123880000Y-60500000D03*
D11*
X131500000Y-73500000D03*
D12*
X128960000Y-73500000D03*
X126420000Y-73500000D03*
X123880000Y-73500000D03*
D11*
X131500000Y-86500000D03*
D12*
X128960000Y-86500000D03*
X126420000Y-86500000D03*
X123880000Y-86500000D03*
D11*
X127452500Y-115014500D03*
D12*
X124912500Y-115014500D03*
D11*
X148500000Y-99500000D03*
D12*
X145960000Y-99500000D03*
X143420000Y-99500000D03*
X140880000Y-99500000D03*
D11*
X148500000Y-86500000D03*
D12*
X145960000Y-86500000D03*
X143420000Y-86500000D03*
X140880000Y-86500000D03*
D11*
X148500000Y-73500000D03*
D12*
X145960000Y-73500000D03*
X143420000Y-73500000D03*
X140880000Y-73500000D03*
D11*
X148500000Y-60000000D03*
D12*
X145960000Y-60000000D03*
X143420000Y-60000000D03*
X140880000Y-60000000D03*
D11*
X140660500Y-115014500D03*
D12*
X138120500Y-115014500D03*
D11*
X65602000Y-109816000D03*
D12*
X68142000Y-109816000D03*
X70682000Y-109816000D03*
D11*
X65856000Y-120906000D03*
D12*
X68396000Y-120906000D03*
X70936000Y-120906000D03*
D11*
X159463000Y-112095000D03*
D12*
X159463000Y-109555000D03*
X159463000Y-107015000D03*
X159463000Y-104475000D03*
X159463000Y-101935000D03*
X159463000Y-99395000D03*
X159463000Y-96855000D03*
X159463000Y-94315000D03*
X159463000Y-91775000D03*
X159463000Y-89235000D03*
X159463000Y-86695000D03*
D14*
X84733500Y-109998000D03*
X82033500Y-109998000D03*
D15*
X84399500Y-124587000D03*
X84399500Y-121887000D03*
D14*
X98195500Y-110315500D03*
X95495500Y-110315500D03*
D15*
X97242000Y-124333000D03*
X97242000Y-121633000D03*
D14*
X110705000Y-110061500D03*
X108005000Y-110061500D03*
D15*
X109116000Y-124380500D03*
X109116000Y-121680500D03*
D14*
X125310000Y-110569500D03*
X122610000Y-110569500D03*
D15*
X125943500Y-122952000D03*
X125943500Y-120252000D03*
D14*
X137692500Y-110061500D03*
X134992500Y-110061500D03*
D15*
X140055500Y-123126500D03*
X140055500Y-120426500D03*
D11*
X73500000Y-99000000D03*
D12*
X70960000Y-99000000D03*
X68420000Y-99000000D03*
X65880000Y-99000000D03*
D11*
X93500000Y-47000000D03*
D12*
X90960000Y-47000000D03*
X88420000Y-47000000D03*
X85880000Y-47000000D03*
D11*
X148500000Y-47500000D03*
D12*
X145960000Y-47500000D03*
X143420000Y-47500000D03*
X140880000Y-47500000D03*
D16*
X72500000Y-36500000D03*
D17*
X67500000Y-36500000D03*
D16*
X92000000Y-37000000D03*
D17*
X87000000Y-37000000D03*
D16*
X112500000Y-37500000D03*
D17*
X107500000Y-37500000D03*
D16*
X130000000Y-37500000D03*
D17*
X125000000Y-37500000D03*
D16*
X147000000Y-37500000D03*
D17*
X142000000Y-37500000D03*
D15*
X154637000Y-91791500D03*
X154637000Y-89091500D03*
D18*
X161000000Y-34000000D03*
X55000000Y-34000000D03*
X55000000Y-124000000D03*
X161000000Y-124000000D03*
D19*
X56000000Y-73420000D03*
X56000000Y-68340000D03*
D20*
X56000000Y-78500000D03*
D19*
X56000000Y-63260000D03*
D21*
X104910000Y-117237000D03*
X92083000Y-117364000D03*
X146058000Y-116348000D03*
X132469000Y-117110000D03*
X119769000Y-118888000D03*
D22*
X154940000Y-110490000D02*
X155875000Y-109555000D01*
X155875000Y-109555000D02*
X159463000Y-109555000D01*
X154940000Y-117094000D02*
X154940000Y-110490000D01*
X145034000Y-127000000D02*
X154940000Y-117094000D01*
X95927500Y-127000000D02*
X145034000Y-127000000D01*
X90261500Y-121459000D02*
X90386500Y-121459000D01*
X90386500Y-121459000D02*
X95927500Y-127000000D01*
X84399500Y-124587000D02*
X88012500Y-124587000D01*
X88012500Y-124587000D02*
X90261500Y-122338000D01*
X90261500Y-122338000D02*
X90261500Y-121459000D01*
X152908000Y-107950000D02*
X153843000Y-107015000D01*
X153843000Y-107015000D02*
X159463000Y-107015000D01*
X152908000Y-118110000D02*
X152908000Y-107950000D01*
X144780000Y-126238000D02*
X152908000Y-118110000D01*
X104972000Y-126238000D02*
X144780000Y-126238000D01*
X101326000Y-122592000D02*
X104972000Y-126238000D01*
X97242000Y-124333000D02*
X99585000Y-124333000D01*
X99585000Y-124333000D02*
X101326000Y-122592000D01*
X101326000Y-122592000D02*
X101326000Y-121713000D01*
X151638000Y-107442000D02*
X154605000Y-104475000D01*
X154605000Y-104475000D02*
X159463000Y-104475000D01*
X151638000Y-118618000D02*
X151638000Y-107442000D01*
X144526000Y-125730000D02*
X151638000Y-118618000D01*
X117802500Y-125730000D02*
X144526000Y-125730000D01*
X113073000Y-121125500D02*
X113198000Y-121125500D01*
X113198000Y-121125500D02*
X117802500Y-125730000D01*
X109116000Y-124280500D02*
X112271000Y-121125500D01*
X109116000Y-124380500D02*
X109116000Y-124280500D01*
X112271000Y-121125500D02*
X113073000Y-121125500D01*
X150368000Y-106172000D02*
X154605000Y-101935000D01*
X154605000Y-101935000D02*
X159463000Y-101935000D01*
X150368000Y-118364000D02*
X150368000Y-106172000D01*
X144272000Y-124460000D02*
X150368000Y-118364000D01*
X133899500Y-124460000D02*
X144272000Y-124460000D01*
X129519500Y-120205000D02*
X129644500Y-120205000D01*
X129644500Y-120205000D02*
X133899500Y-124460000D01*
X125943500Y-122952000D02*
X125943500Y-122852000D01*
X125943500Y-122852000D02*
X128590500Y-120205000D01*
X128590500Y-120205000D02*
X129519500Y-120205000D01*
X148844000Y-105156000D02*
X154605000Y-99395000D01*
X154605000Y-99395000D02*
X159463000Y-99395000D01*
X148844000Y-118364000D02*
X148844000Y-105156000D01*
X145288000Y-121920000D02*
X148844000Y-118364000D01*
X144420000Y-121920000D02*
X145288000Y-121920000D01*
X142869500Y-119490500D02*
X142869500Y-120369500D01*
X142869500Y-120369500D02*
X144420000Y-121920000D01*
X140055500Y-123026500D02*
X140701500Y-122380500D01*
X140701500Y-122380500D02*
X142869500Y-120212500D01*
X140055500Y-123126500D02*
X140055500Y-123026500D01*
X142869500Y-120212500D02*
X142869500Y-119490500D01*
X85880000Y-47000000D02*
X84677919Y-47000000D01*
X84677919Y-47000000D02*
X73500000Y-47000000D01*
X68834000Y-55118000D02*
X69722000Y-55118000D01*
X69722000Y-55118000D02*
X73500000Y-58896000D01*
X73500000Y-58896000D02*
X73500000Y-60000000D01*
X65880000Y-52164000D02*
X68834000Y-55118000D01*
X65880000Y-47000000D02*
X65880000Y-52164000D01*
X65880000Y-60000000D02*
X65880000Y-61202081D01*
X65880000Y-61202081D02*
X66040000Y-61362081D01*
X73500000Y-71722000D02*
X73500000Y-73000000D01*
X66040000Y-61362081D02*
X66040000Y-64262000D01*
X66040000Y-64262000D02*
X73500000Y-71722000D01*
X65880000Y-73000000D02*
X65880000Y-77056000D01*
X65880000Y-77056000D02*
X73500000Y-84676000D01*
X73500000Y-84676000D02*
X73500000Y-86000000D01*
X84399500Y-121887000D02*
X84399500Y-115268500D01*
X84399500Y-115268500D02*
X84780500Y-114887500D01*
X84780500Y-114887500D02*
X84780500Y-110045000D01*
X84780500Y-110045000D02*
X84733500Y-109998000D01*
X97242000Y-121633000D02*
X97242000Y-116142000D01*
X97242000Y-116142000D02*
X98306000Y-115078000D01*
X98306000Y-115078000D02*
X98306000Y-110426000D01*
X98306000Y-110426000D02*
X98195500Y-110315500D01*
X97536000Y-59944000D02*
X105880000Y-51600000D01*
X105880000Y-51600000D02*
X105880000Y-47500000D01*
X97536000Y-96068000D02*
X97536000Y-59944000D01*
X93500000Y-99000000D02*
X94604000Y-99000000D01*
X94604000Y-99000000D02*
X97536000Y-96068000D01*
X92710000Y-90424000D02*
X93500000Y-89634000D01*
X93500000Y-89634000D02*
X93500000Y-86000000D01*
X90424000Y-90424000D02*
X92710000Y-90424000D01*
X86106000Y-94742000D02*
X90424000Y-90424000D01*
X86106000Y-97571919D02*
X86106000Y-94742000D01*
X85880000Y-99000000D02*
X85880000Y-97797919D01*
X85880000Y-97797919D02*
X86106000Y-97571919D01*
X93472000Y-81026000D02*
X93500000Y-80998000D01*
X93500000Y-80998000D02*
X93500000Y-73000000D01*
X88900000Y-81026000D02*
X93472000Y-81026000D01*
X85880000Y-84046000D02*
X88900000Y-81026000D01*
X85880000Y-86000000D02*
X85880000Y-84046000D01*
X89662000Y-66040000D02*
X85880000Y-69822000D01*
X85880000Y-69822000D02*
X85880000Y-73000000D01*
X89662000Y-65442000D02*
X89662000Y-66040000D01*
X93500000Y-60500000D02*
X93500000Y-61604000D01*
X93500000Y-61604000D02*
X89662000Y-65442000D01*
X123880000Y-99500000D02*
X122677919Y-99500000D01*
X122677919Y-99500000D02*
X119634000Y-96456081D01*
X119634000Y-96456081D02*
X119634000Y-56388000D01*
X119634000Y-56388000D02*
X113500000Y-50254000D01*
X113500000Y-50254000D02*
X113500000Y-47500000D01*
X110688500Y-115205000D02*
X110688500Y-110078000D01*
X110688500Y-110078000D02*
X110705000Y-110061500D01*
X109116000Y-121680500D02*
X109116000Y-116777500D01*
X109116000Y-116777500D02*
X110688500Y-115205000D01*
X131500000Y-47500000D02*
X132604000Y-47500000D01*
X132604000Y-47500000D02*
X140880000Y-47500000D01*
X130302000Y-53594000D02*
X131500000Y-54792000D01*
X131500000Y-54792000D02*
X131500000Y-60500000D01*
X127508000Y-53594000D02*
X130302000Y-53594000D01*
X123952000Y-50038000D02*
X127508000Y-53594000D01*
X123952000Y-48774081D02*
X123952000Y-50038000D01*
X123880000Y-47500000D02*
X123880000Y-48702081D01*
X123880000Y-48702081D02*
X123952000Y-48774081D01*
X129794000Y-66548000D02*
X131500000Y-68254000D01*
X131500000Y-68254000D02*
X131500000Y-73500000D01*
X126492000Y-66548000D02*
X129794000Y-66548000D01*
X123880000Y-63936000D02*
X126492000Y-66548000D01*
X123880000Y-60500000D02*
X123880000Y-63936000D01*
X130810000Y-78994000D02*
X131500000Y-79684000D01*
X131500000Y-79684000D02*
X131500000Y-86500000D01*
X126238000Y-78994000D02*
X130810000Y-78994000D01*
X123880000Y-76636000D02*
X126238000Y-78994000D01*
X123880000Y-73500000D02*
X123880000Y-76636000D01*
X124912500Y-115014500D02*
X124912500Y-110967000D01*
X124912500Y-110967000D02*
X125310000Y-110569500D01*
X125943500Y-120252000D02*
X125943500Y-116045500D01*
X125943500Y-116045500D02*
X124912500Y-115014500D01*
X151130000Y-90424000D02*
X152462500Y-89091500D01*
X152462500Y-89091500D02*
X154637000Y-89091500D01*
X151130000Y-95766000D02*
X151130000Y-90424000D01*
X148500000Y-99500000D02*
X148500000Y-98396000D01*
X148500000Y-98396000D02*
X151130000Y-95766000D01*
X147066000Y-95250000D02*
X148500000Y-93816000D01*
X148500000Y-93816000D02*
X148500000Y-86500000D01*
X142240000Y-95250000D02*
X147066000Y-95250000D01*
X140880000Y-96610000D02*
X142240000Y-95250000D01*
X140880000Y-99500000D02*
X140880000Y-96610000D01*
X142748000Y-79502000D02*
X140880000Y-81370000D01*
X140880000Y-81370000D02*
X140880000Y-86500000D01*
X145796000Y-79502000D02*
X142748000Y-79502000D01*
X148590000Y-76708000D02*
X145796000Y-79502000D01*
X148590000Y-74694000D02*
X148590000Y-76708000D01*
X148500000Y-73500000D02*
X148500000Y-74604000D01*
X148500000Y-74604000D02*
X148590000Y-74694000D01*
X146812000Y-68326000D02*
X148500000Y-66638000D01*
X148500000Y-66638000D02*
X148500000Y-60000000D01*
X141986000Y-68326000D02*
X146812000Y-68326000D01*
X140880000Y-69432000D02*
X141986000Y-68326000D01*
X140880000Y-73500000D02*
X140880000Y-69432000D01*
X138120500Y-115014500D02*
X138120500Y-110489500D01*
X138120500Y-110489500D02*
X137692500Y-110061500D01*
X140055500Y-120426500D02*
X140055500Y-120326500D01*
X140055500Y-120326500D02*
X138120500Y-118391500D01*
X138120500Y-118391500D02*
X138120500Y-116216581D01*
X138120500Y-116216581D02*
X138120500Y-115014500D01*
X140055500Y-119724500D02*
X140055500Y-120426500D01*
X164846000Y-98806000D02*
X162895000Y-96855000D01*
X162895000Y-96855000D02*
X159463000Y-96855000D01*
X164846000Y-112268000D02*
X164846000Y-98806000D01*
X149098000Y-128016000D02*
X164846000Y-112268000D01*
X77216000Y-128016000D02*
X149098000Y-128016000D01*
X74676000Y-125476000D02*
X77216000Y-128016000D01*
X74676000Y-118618000D02*
X74676000Y-125476000D01*
X68142000Y-112084000D02*
X74676000Y-118618000D01*
X68142000Y-109816000D02*
X68142000Y-112084000D01*
X165354000Y-96774000D02*
X162895000Y-94315000D01*
X162895000Y-94315000D02*
X159463000Y-94315000D01*
X165354000Y-112522000D02*
X165354000Y-96774000D01*
X149352000Y-128524000D02*
X165354000Y-112522000D01*
X73406000Y-128524000D02*
X149352000Y-128524000D01*
X68396000Y-123514000D02*
X73406000Y-128524000D01*
X68396000Y-120906000D02*
X68396000Y-123514000D01*
X103826000Y-121713000D02*
X103951000Y-121713000D01*
X103951000Y-121713000D02*
X104910000Y-120754000D01*
X104910000Y-120754000D02*
X104910000Y-117237000D01*
X92761500Y-121459000D02*
X92761500Y-118042500D01*
X92761500Y-118042500D02*
X92083000Y-117364000D01*
X145369500Y-119490500D02*
X145369500Y-117036500D01*
X145369500Y-117036500D02*
X146058000Y-116348000D01*
X132019500Y-120205000D02*
X132019500Y-117559500D01*
X132019500Y-117559500D02*
X132469000Y-117110000D01*
X115573000Y-121125500D02*
X115698000Y-121125500D01*
X115698000Y-121125500D02*
X117935500Y-118888000D01*
X117935500Y-118888000D02*
X119769000Y-118888000D01*
X112500000Y-37500000D02*
X112500000Y-36446000D01*
X112500000Y-36446000D02*
X118466000Y-30480000D01*
X118466000Y-30480000D02*
X130048000Y-30480000D01*
D23*
X65856000Y-120906000D02*
X65856000Y-110070000D01*
X65856000Y-110070000D02*
X65602000Y-109816000D01*
X65602000Y-109816000D02*
X65602000Y-108585000D01*
X65602000Y-108585000D02*
X65786000Y-108401000D01*
X65786000Y-108401000D02*
X65786000Y-106426000D01*
D22*
X82304000Y-106315000D02*
X82161000Y-106172000D01*
X82161000Y-106172000D02*
X82033500Y-106044500D01*
D23*
X65786000Y-106426000D02*
X81907000Y-106426000D01*
X81907000Y-106426000D02*
X82161000Y-106172000D01*
X52578000Y-93218000D02*
X65786000Y-106426000D01*
X52578000Y-66682000D02*
X52578000Y-93218000D01*
X56000000Y-63260000D02*
X52578000Y-66682000D01*
X76962000Y-102108000D02*
X76962000Y-93726000D01*
X76962000Y-93726000D02*
X73914000Y-90678000D01*
X75184000Y-103886000D02*
X76962000Y-102108000D01*
X72898000Y-103886000D02*
X75184000Y-103886000D01*
X70960000Y-101948000D02*
X72898000Y-103886000D01*
X70960000Y-99000000D02*
X70960000Y-101948000D01*
X76962000Y-87630000D02*
X76962000Y-80010000D01*
X76962000Y-80010000D02*
X73914000Y-76962000D01*
X73914000Y-90678000D02*
X76962000Y-87630000D01*
X72644000Y-90678000D02*
X73914000Y-90678000D01*
X70960000Y-88994000D02*
X72644000Y-90678000D01*
X70960000Y-86000000D02*
X70960000Y-88994000D01*
X76454000Y-64008000D02*
X74676000Y-65786000D01*
X74676000Y-65786000D02*
X74422000Y-66040000D01*
X76962000Y-73914000D02*
X76962000Y-68072000D01*
X76962000Y-68072000D02*
X74676000Y-65786000D01*
X73914000Y-76962000D02*
X76962000Y-73914000D01*
X72898000Y-76962000D02*
X73914000Y-76962000D01*
X70960000Y-75024000D02*
X72898000Y-76962000D01*
X70960000Y-73000000D02*
X70960000Y-75024000D01*
X70960000Y-47000000D02*
X70960000Y-48202081D01*
X70960000Y-48202081D02*
X76454000Y-53696081D01*
X76454000Y-53696081D02*
X76454000Y-64008000D01*
X74422000Y-66040000D02*
X72898000Y-66040000D01*
X72898000Y-66040000D02*
X70960000Y-64102000D01*
X70960000Y-64102000D02*
X70960000Y-60000000D01*
X84836000Y-89916000D02*
X80010000Y-85090000D01*
X79248000Y-98044000D02*
X79248000Y-85852000D01*
X80010000Y-85090000D02*
X79756000Y-84836000D01*
X79248000Y-85852000D02*
X80010000Y-85090000D01*
X83312000Y-102108000D02*
X79248000Y-98044000D01*
X87852000Y-102108000D02*
X83312000Y-102108000D01*
X90960000Y-99000000D02*
X87852000Y-102108000D01*
X84582000Y-77470000D02*
X84074000Y-76962000D01*
X84074000Y-76962000D02*
X80518000Y-73406000D01*
X79756000Y-84836000D02*
X79756000Y-81280000D01*
X79756000Y-81280000D02*
X84074000Y-76962000D01*
X87122000Y-89916000D02*
X84836000Y-89916000D01*
X90110001Y-86927999D02*
X87122000Y-89916000D01*
X90960000Y-86000000D02*
X90110001Y-86849999D01*
X90110001Y-86849999D02*
X90110001Y-86927999D01*
X80518000Y-67564000D02*
X82550000Y-65532000D01*
X82550000Y-65532000D02*
X82804000Y-65532000D01*
X80518000Y-73406000D02*
X80518000Y-67564000D01*
X86868000Y-77470000D02*
X84582000Y-77470000D01*
X90110001Y-74227999D02*
X86868000Y-77470000D01*
X90960000Y-73000000D02*
X90110001Y-73849999D01*
X90110001Y-73849999D02*
X90110001Y-74227999D01*
X86868000Y-65532000D02*
X86868000Y-64592000D01*
X86868000Y-64592000D02*
X90960000Y-60500000D01*
X82804000Y-65532000D02*
X86868000Y-65532000D01*
X81026000Y-63754000D02*
X82804000Y-65532000D01*
X81026000Y-55372000D02*
X81026000Y-63754000D01*
X84836000Y-51562000D02*
X81026000Y-55372000D01*
X86398000Y-51562000D02*
X84836000Y-51562000D01*
X90960000Y-47000000D02*
X86398000Y-51562000D01*
X134112000Y-101092000D02*
X134112000Y-91948000D01*
X134112000Y-91948000D02*
X132334000Y-90170000D01*
X132588000Y-102616000D02*
X134112000Y-101092000D01*
X130873919Y-102616000D02*
X132588000Y-102616000D01*
X128960000Y-99500000D02*
X128960000Y-100702081D01*
X128960000Y-100702081D02*
X130873919Y-102616000D01*
X135636000Y-86868000D02*
X135636000Y-80010000D01*
X135636000Y-80010000D02*
X132842000Y-77216000D01*
X132334000Y-90170000D02*
X135636000Y-86868000D01*
X129794000Y-90170000D02*
X132334000Y-90170000D01*
X128960000Y-89336000D02*
X129794000Y-90170000D01*
X128960000Y-86500000D02*
X128960000Y-89336000D01*
X135128000Y-74930000D02*
X135128000Y-67830162D01*
X135128000Y-67830162D02*
X132321838Y-65024000D01*
X132842000Y-77216000D02*
X135128000Y-74930000D01*
X129794000Y-77216000D02*
X132842000Y-77216000D01*
X128960000Y-76382000D02*
X129794000Y-77216000D01*
X128960000Y-73500000D02*
X128960000Y-76382000D01*
X129540000Y-65024000D02*
X128960000Y-64444000D01*
X128960000Y-64444000D02*
X128960000Y-60500000D01*
X132321838Y-65024000D02*
X129540000Y-65024000D01*
X134105919Y-63239919D02*
X132321838Y-65024000D01*
X134105919Y-53848000D02*
X134105919Y-63239919D01*
X128960000Y-47500000D02*
X128960000Y-48702081D01*
X128960000Y-48702081D02*
X134105919Y-53848000D01*
X139446000Y-90678000D02*
X141782000Y-90678000D01*
X141782000Y-90678000D02*
X145960000Y-86500000D01*
X136144000Y-93980000D02*
X139446000Y-90678000D01*
X136144000Y-102672162D02*
X136144000Y-93980000D01*
X136623919Y-103152081D02*
X136144000Y-102672162D01*
X143510000Y-103152081D02*
X136623919Y-103152081D01*
X145960000Y-99500000D02*
X145960000Y-100702081D01*
X145960000Y-100702081D02*
X143510000Y-103152081D01*
X155448000Y-78232000D02*
X155448000Y-70866000D01*
X155448000Y-70866000D02*
X153162000Y-68580000D01*
X152400000Y-81280000D02*
X155448000Y-78232000D01*
X148844000Y-81280000D02*
X152400000Y-81280000D01*
X145960000Y-84164000D02*
X148844000Y-81280000D01*
X145960000Y-86500000D02*
X145960000Y-84164000D01*
X156210000Y-59182000D02*
X153670000Y-56642000D01*
X153670000Y-56642000D02*
X152654000Y-56642000D01*
X156210000Y-65532000D02*
X156210000Y-59182000D01*
X153162000Y-68580000D02*
X156210000Y-65532000D01*
X149098000Y-68580000D02*
X153162000Y-68580000D01*
X145960000Y-71718000D02*
X149098000Y-68580000D01*
X145960000Y-73500000D02*
X145960000Y-71718000D01*
X152654000Y-56642000D02*
X149318000Y-56642000D01*
X149318000Y-56642000D02*
X145960000Y-60000000D01*
X155194000Y-54102000D02*
X152654000Y-56642000D01*
X155194000Y-46736000D02*
X155194000Y-54102000D01*
X152654000Y-44196000D02*
X155194000Y-46736000D01*
X148844000Y-44196000D02*
X152654000Y-44196000D01*
X146809999Y-46230001D02*
X148844000Y-44196000D01*
X145960000Y-47500000D02*
X146809999Y-46650001D01*
X146809999Y-46650001D02*
X146809999Y-46230001D01*
X147320000Y-39001000D02*
X147320000Y-46140000D01*
X147320000Y-46140000D02*
X145960000Y-47500000D01*
X147000000Y-37500000D02*
X147000000Y-38681000D01*
X147000000Y-38681000D02*
X147320000Y-39001000D01*
X128778000Y-44450000D02*
X128960000Y-44632000D01*
X128960000Y-44632000D02*
X128960000Y-47500000D01*
X130000000Y-43228000D02*
X128778000Y-44450000D01*
X130000000Y-37500000D02*
X130000000Y-43228000D01*
X112500000Y-41932000D02*
X110960000Y-43472000D01*
X110960000Y-43472000D02*
X110960000Y-47500000D01*
X112500000Y-37500000D02*
X112500000Y-41932000D01*
X56000000Y-68340000D02*
X56000000Y-66218680D01*
X56000000Y-66218680D02*
X56000000Y-63260000D01*
X72500000Y-36500000D02*
X72500000Y-45460000D01*
X72500000Y-45460000D02*
X70960000Y-47000000D01*
X92000000Y-37000000D02*
X92000000Y-45960000D01*
X92000000Y-45960000D02*
X90960000Y-47000000D01*
X92202000Y-30480000D02*
X130048000Y-30480000D01*
X130048000Y-30480000D02*
X144780000Y-30480000D01*
X130000000Y-37500000D02*
X130000000Y-30528000D01*
X130000000Y-30528000D02*
X130048000Y-30480000D01*
X65278000Y-30480000D02*
X92202000Y-30480000D01*
X92000000Y-37000000D02*
X92000000Y-35819000D01*
X92000000Y-35819000D02*
X92202000Y-35617000D01*
X92202000Y-35617000D02*
X92202000Y-30480000D01*
X72500000Y-36500000D02*
X72500000Y-35319000D01*
X72500000Y-35319000D02*
X67661000Y-30480000D01*
X67661000Y-30480000D02*
X65278000Y-30480000D01*
X56000000Y-63260000D02*
X56000000Y-61138680D01*
X56000000Y-61138680D02*
X56134000Y-61004680D01*
X56134000Y-39624000D02*
X65278000Y-30480000D01*
X147000000Y-32700000D02*
X147000000Y-37500000D01*
X56134000Y-61004680D02*
X56134000Y-39624000D01*
X144780000Y-30480000D02*
X147000000Y-32700000D01*
D22*
X132023000Y-106188000D02*
X131707000Y-106188000D01*
X131707000Y-106188000D02*
X118880000Y-106188000D01*
X119132500Y-106188000D02*
X118880000Y-106188000D01*
X118880000Y-106188000D02*
X104910000Y-106188000D01*
X134992500Y-110061500D02*
X134992500Y-109157500D01*
X134992500Y-109157500D02*
X132023000Y-106188000D01*
X105035500Y-106188000D02*
X104910000Y-106188000D01*
X104910000Y-106188000D02*
X91702000Y-106188000D01*
X122610000Y-110569500D02*
X122610000Y-109665500D01*
X122610000Y-109665500D02*
X119132500Y-106188000D01*
X92399000Y-106315000D02*
X91575000Y-106315000D01*
X91575000Y-106315000D02*
X82304000Y-106315000D01*
X91702000Y-106188000D02*
X91575000Y-106315000D01*
X108005000Y-110061500D02*
X108005000Y-109157500D01*
X108005000Y-109157500D02*
X105035500Y-106188000D01*
X95495500Y-110315500D02*
X95495500Y-109411500D01*
X95495500Y-109411500D02*
X92399000Y-106315000D01*
X82033500Y-106044500D02*
X82033500Y-109998000D01*
D23*
X108005000Y-110061500D02*
X108105000Y-110061500D01*
D22*
X65880000Y-86000000D02*
X65880000Y-87202081D01*
X65880000Y-87202081D02*
X65786000Y-87296081D01*
X65786000Y-87296081D02*
X65786000Y-89916000D01*
X65786000Y-89916000D02*
X73500000Y-97630000D01*
X73500000Y-97630000D02*
X73500000Y-99000000D01*
X91694000Y-55118000D02*
X93500000Y-53312000D01*
X93500000Y-53312000D02*
X93500000Y-47000000D01*
X87376000Y-55118000D02*
X91694000Y-55118000D01*
X85852000Y-56642000D02*
X87376000Y-55118000D01*
X85852000Y-59269919D02*
X85852000Y-56642000D01*
X85880000Y-60500000D02*
X85880000Y-59297919D01*
X85880000Y-59297919D02*
X85852000Y-59269919D01*
X129794000Y-92964000D02*
X131500000Y-94670000D01*
X131500000Y-94670000D02*
X131500000Y-99500000D01*
X126492000Y-92964000D02*
X129794000Y-92964000D01*
X123880000Y-90352000D02*
X126492000Y-92964000D01*
X123880000Y-86500000D02*
X123880000Y-90352000D01*
X146812000Y-54102000D02*
X148500000Y-52414000D01*
X148500000Y-52414000D02*
X148500000Y-47500000D01*
X142748000Y-54102000D02*
X146812000Y-54102000D01*
X140880000Y-55970000D02*
X142748000Y-54102000D01*
X140880000Y-60000000D02*
X140880000Y-55970000D01*
X159463000Y-91775000D02*
X154653500Y-91775000D01*
X154653500Y-91775000D02*
X154637000Y-91791500D01*
M02*
