G04 #@! TF.FileFunction,Other,Fab,Top*
%FSLAX46Y46*%
G04 Gerber Fmt 4.6, Leading zero omitted, Abs format (unit mm)*
G04 Created by KiCad (PCBNEW 4.0.7) date Wed Jun 20 13:02:34 2018*
%MOMM*%
%LPD*%
G01*
G04 APERTURE LIST*
%ADD10C,0.100000*%
%ADD11C,0.150000*%
%ADD12C,0.075000*%
G04 APERTURE END LIST*
D10*
X104005000Y-64930000D02*
X105910000Y-64930000D01*
X105910000Y-64930000D02*
X105910000Y-67470000D01*
X105910000Y-67470000D02*
X103370000Y-67470000D01*
X103370000Y-67470000D02*
X103370000Y-65565000D01*
X103370000Y-65565000D02*
X104005000Y-64930000D01*
X106545000Y-64930000D02*
X108450000Y-64930000D01*
X108450000Y-64930000D02*
X108450000Y-67470000D01*
X108450000Y-67470000D02*
X105910000Y-67470000D01*
X105910000Y-67470000D02*
X105910000Y-65565000D01*
X105910000Y-65565000D02*
X106545000Y-64930000D01*
X106545000Y-62390000D02*
X108450000Y-62390000D01*
X108450000Y-62390000D02*
X108450000Y-64930000D01*
X108450000Y-64930000D02*
X105910000Y-64930000D01*
X105910000Y-64930000D02*
X105910000Y-63025000D01*
X105910000Y-63025000D02*
X106545000Y-62390000D01*
X104005000Y-62390000D02*
X105910000Y-62390000D01*
X105910000Y-62390000D02*
X105910000Y-64930000D01*
X105910000Y-64930000D02*
X103370000Y-64930000D01*
X103370000Y-64930000D02*
X103370000Y-63025000D01*
X103370000Y-63025000D02*
X104005000Y-62390000D01*
X109085000Y-62390000D02*
X110990000Y-62390000D01*
X110990000Y-62390000D02*
X110990000Y-64930000D01*
X110990000Y-64930000D02*
X108450000Y-64930000D01*
X108450000Y-64930000D02*
X108450000Y-63025000D01*
X108450000Y-63025000D02*
X109085000Y-62390000D01*
X111625000Y-62390000D02*
X113530000Y-62390000D01*
X113530000Y-62390000D02*
X113530000Y-64930000D01*
X113530000Y-64930000D02*
X110990000Y-64930000D01*
X110990000Y-64930000D02*
X110990000Y-63025000D01*
X110990000Y-63025000D02*
X111625000Y-62390000D01*
X111625000Y-64930000D02*
X113530000Y-64930000D01*
X113530000Y-64930000D02*
X113530000Y-67470000D01*
X113530000Y-67470000D02*
X110990000Y-67470000D01*
X110990000Y-67470000D02*
X110990000Y-65565000D01*
X110990000Y-65565000D02*
X111625000Y-64930000D01*
X109085000Y-64930000D02*
X110990000Y-64930000D01*
X110990000Y-64930000D02*
X110990000Y-67470000D01*
X110990000Y-67470000D02*
X108450000Y-67470000D01*
X108450000Y-67470000D02*
X108450000Y-65565000D01*
X108450000Y-65565000D02*
X109085000Y-64930000D01*
X114165000Y-64930000D02*
X116070000Y-64930000D01*
X116070000Y-64930000D02*
X116070000Y-67470000D01*
X116070000Y-67470000D02*
X113530000Y-67470000D01*
X113530000Y-67470000D02*
X113530000Y-65565000D01*
X113530000Y-65565000D02*
X114165000Y-64930000D01*
X114165000Y-62390000D02*
X116070000Y-62390000D01*
X116070000Y-62390000D02*
X116070000Y-64930000D01*
X116070000Y-64930000D02*
X113530000Y-64930000D01*
X113530000Y-64930000D02*
X113530000Y-63025000D01*
X113530000Y-63025000D02*
X114165000Y-62390000D01*
X104005000Y-75090000D02*
X105910000Y-75090000D01*
X105910000Y-75090000D02*
X105910000Y-77630000D01*
X105910000Y-77630000D02*
X103370000Y-77630000D01*
X103370000Y-77630000D02*
X103370000Y-75725000D01*
X103370000Y-75725000D02*
X104005000Y-75090000D01*
X106545000Y-75090000D02*
X108450000Y-75090000D01*
X108450000Y-75090000D02*
X108450000Y-77630000D01*
X108450000Y-77630000D02*
X105910000Y-77630000D01*
X105910000Y-77630000D02*
X105910000Y-75725000D01*
X105910000Y-75725000D02*
X106545000Y-75090000D01*
X106545000Y-72550000D02*
X108450000Y-72550000D01*
X108450000Y-72550000D02*
X108450000Y-75090000D01*
X108450000Y-75090000D02*
X105910000Y-75090000D01*
X105910000Y-75090000D02*
X105910000Y-73185000D01*
X105910000Y-73185000D02*
X106545000Y-72550000D01*
X104005000Y-72550000D02*
X105910000Y-72550000D01*
X105910000Y-72550000D02*
X105910000Y-75090000D01*
X105910000Y-75090000D02*
X103370000Y-75090000D01*
X103370000Y-75090000D02*
X103370000Y-73185000D01*
X103370000Y-73185000D02*
X104005000Y-72550000D01*
X109085000Y-72550000D02*
X110990000Y-72550000D01*
X110990000Y-72550000D02*
X110990000Y-75090000D01*
X110990000Y-75090000D02*
X108450000Y-75090000D01*
X108450000Y-75090000D02*
X108450000Y-73185000D01*
X108450000Y-73185000D02*
X109085000Y-72550000D01*
X111625000Y-72550000D02*
X113530000Y-72550000D01*
X113530000Y-72550000D02*
X113530000Y-75090000D01*
X113530000Y-75090000D02*
X110990000Y-75090000D01*
X110990000Y-75090000D02*
X110990000Y-73185000D01*
X110990000Y-73185000D02*
X111625000Y-72550000D01*
X111625000Y-75090000D02*
X113530000Y-75090000D01*
X113530000Y-75090000D02*
X113530000Y-77630000D01*
X113530000Y-77630000D02*
X110990000Y-77630000D01*
X110990000Y-77630000D02*
X110990000Y-75725000D01*
X110990000Y-75725000D02*
X111625000Y-75090000D01*
X109085000Y-75090000D02*
X110990000Y-75090000D01*
X110990000Y-75090000D02*
X110990000Y-77630000D01*
X110990000Y-77630000D02*
X108450000Y-77630000D01*
X108450000Y-77630000D02*
X108450000Y-75725000D01*
X108450000Y-75725000D02*
X109085000Y-75090000D01*
X114165000Y-75090000D02*
X116070000Y-75090000D01*
X116070000Y-75090000D02*
X116070000Y-77630000D01*
X116070000Y-77630000D02*
X113530000Y-77630000D01*
X113530000Y-77630000D02*
X113530000Y-75725000D01*
X113530000Y-75725000D02*
X114165000Y-75090000D01*
X114165000Y-72550000D02*
X116070000Y-72550000D01*
X116070000Y-72550000D02*
X116070000Y-75090000D01*
X116070000Y-75090000D02*
X113530000Y-75090000D01*
X113530000Y-75090000D02*
X113530000Y-73185000D01*
X113530000Y-73185000D02*
X114165000Y-72550000D01*
X114165000Y-67470000D02*
X116070000Y-67470000D01*
X116070000Y-67470000D02*
X116070000Y-70010000D01*
X116070000Y-70010000D02*
X113530000Y-70010000D01*
X113530000Y-70010000D02*
X113530000Y-68105000D01*
X113530000Y-68105000D02*
X114165000Y-67470000D01*
X114165000Y-70010000D02*
X116070000Y-70010000D01*
X116070000Y-70010000D02*
X116070000Y-72550000D01*
X116070000Y-72550000D02*
X113530000Y-72550000D01*
X113530000Y-72550000D02*
X113530000Y-70645000D01*
X113530000Y-70645000D02*
X114165000Y-70010000D01*
X109085000Y-70010000D02*
X110990000Y-70010000D01*
X110990000Y-70010000D02*
X110990000Y-72550000D01*
X110990000Y-72550000D02*
X108450000Y-72550000D01*
X108450000Y-72550000D02*
X108450000Y-70645000D01*
X108450000Y-70645000D02*
X109085000Y-70010000D01*
X111625000Y-70010000D02*
X113530000Y-70010000D01*
X113530000Y-70010000D02*
X113530000Y-72550000D01*
X113530000Y-72550000D02*
X110990000Y-72550000D01*
X110990000Y-72550000D02*
X110990000Y-70645000D01*
X110990000Y-70645000D02*
X111625000Y-70010000D01*
X111625000Y-67470000D02*
X113530000Y-67470000D01*
X113530000Y-67470000D02*
X113530000Y-70010000D01*
X113530000Y-70010000D02*
X110990000Y-70010000D01*
X110990000Y-70010000D02*
X110990000Y-68105000D01*
X110990000Y-68105000D02*
X111625000Y-67470000D01*
X109085000Y-67470000D02*
X110990000Y-67470000D01*
X110990000Y-67470000D02*
X110990000Y-70010000D01*
X110990000Y-70010000D02*
X108450000Y-70010000D01*
X108450000Y-70010000D02*
X108450000Y-68105000D01*
X108450000Y-68105000D02*
X109085000Y-67470000D01*
X104005000Y-67470000D02*
X105910000Y-67470000D01*
X105910000Y-67470000D02*
X105910000Y-70010000D01*
X105910000Y-70010000D02*
X103370000Y-70010000D01*
X103370000Y-70010000D02*
X103370000Y-68105000D01*
X103370000Y-68105000D02*
X104005000Y-67470000D01*
X106545000Y-67470000D02*
X108450000Y-67470000D01*
X108450000Y-67470000D02*
X108450000Y-70010000D01*
X108450000Y-70010000D02*
X105910000Y-70010000D01*
X105910000Y-70010000D02*
X105910000Y-68105000D01*
X105910000Y-68105000D02*
X106545000Y-67470000D01*
X106545000Y-70010000D02*
X108450000Y-70010000D01*
X108450000Y-70010000D02*
X108450000Y-72550000D01*
X108450000Y-72550000D02*
X105910000Y-72550000D01*
X105910000Y-72550000D02*
X105910000Y-70645000D01*
X105910000Y-70645000D02*
X106545000Y-70010000D01*
X104005000Y-70010000D02*
X105910000Y-70010000D01*
X105910000Y-70010000D02*
X105910000Y-72550000D01*
X105910000Y-72550000D02*
X103370000Y-72550000D01*
X103370000Y-72550000D02*
X103370000Y-70645000D01*
X103370000Y-70645000D02*
X104005000Y-70010000D01*
X104005000Y-80170000D02*
X105910000Y-80170000D01*
X105910000Y-80170000D02*
X105910000Y-82710000D01*
X105910000Y-82710000D02*
X103370000Y-82710000D01*
X103370000Y-82710000D02*
X103370000Y-80805000D01*
X103370000Y-80805000D02*
X104005000Y-80170000D01*
X106545000Y-80170000D02*
X108450000Y-80170000D01*
X108450000Y-80170000D02*
X108450000Y-82710000D01*
X108450000Y-82710000D02*
X105910000Y-82710000D01*
X105910000Y-82710000D02*
X105910000Y-80805000D01*
X105910000Y-80805000D02*
X106545000Y-80170000D01*
X106545000Y-77630000D02*
X108450000Y-77630000D01*
X108450000Y-77630000D02*
X108450000Y-80170000D01*
X108450000Y-80170000D02*
X105910000Y-80170000D01*
X105910000Y-80170000D02*
X105910000Y-78265000D01*
X105910000Y-78265000D02*
X106545000Y-77630000D01*
X104005000Y-77630000D02*
X105910000Y-77630000D01*
X105910000Y-77630000D02*
X105910000Y-80170000D01*
X105910000Y-80170000D02*
X103370000Y-80170000D01*
X103370000Y-80170000D02*
X103370000Y-78265000D01*
X103370000Y-78265000D02*
X104005000Y-77630000D01*
X109085000Y-77630000D02*
X110990000Y-77630000D01*
X110990000Y-77630000D02*
X110990000Y-80170000D01*
X110990000Y-80170000D02*
X108450000Y-80170000D01*
X108450000Y-80170000D02*
X108450000Y-78265000D01*
X108450000Y-78265000D02*
X109085000Y-77630000D01*
X111625000Y-77630000D02*
X113530000Y-77630000D01*
X113530000Y-77630000D02*
X113530000Y-80170000D01*
X113530000Y-80170000D02*
X110990000Y-80170000D01*
X110990000Y-80170000D02*
X110990000Y-78265000D01*
X110990000Y-78265000D02*
X111625000Y-77630000D01*
X111625000Y-80170000D02*
X113530000Y-80170000D01*
X113530000Y-80170000D02*
X113530000Y-82710000D01*
X113530000Y-82710000D02*
X110990000Y-82710000D01*
X110990000Y-82710000D02*
X110990000Y-80805000D01*
X110990000Y-80805000D02*
X111625000Y-80170000D01*
X109085000Y-80170000D02*
X110990000Y-80170000D01*
X110990000Y-80170000D02*
X110990000Y-82710000D01*
X110990000Y-82710000D02*
X108450000Y-82710000D01*
X108450000Y-82710000D02*
X108450000Y-80805000D01*
X108450000Y-80805000D02*
X109085000Y-80170000D01*
X114165000Y-80170000D02*
X116070000Y-80170000D01*
X116070000Y-80170000D02*
X116070000Y-82710000D01*
X116070000Y-82710000D02*
X113530000Y-82710000D01*
X113530000Y-82710000D02*
X113530000Y-80805000D01*
X113530000Y-80805000D02*
X114165000Y-80170000D01*
X114165000Y-77630000D02*
X116070000Y-77630000D01*
X116070000Y-77630000D02*
X116070000Y-80170000D01*
X116070000Y-80170000D02*
X113530000Y-80170000D01*
X113530000Y-80170000D02*
X113530000Y-78265000D01*
X113530000Y-78265000D02*
X114165000Y-77630000D01*
X114165000Y-82710000D02*
X116070000Y-82710000D01*
X116070000Y-82710000D02*
X116070000Y-85250000D01*
X116070000Y-85250000D02*
X113530000Y-85250000D01*
X113530000Y-85250000D02*
X113530000Y-83345000D01*
X113530000Y-83345000D02*
X114165000Y-82710000D01*
X114165000Y-85250000D02*
X116070000Y-85250000D01*
X116070000Y-85250000D02*
X116070000Y-87790000D01*
X116070000Y-87790000D02*
X113530000Y-87790000D01*
X113530000Y-87790000D02*
X113530000Y-85885000D01*
X113530000Y-85885000D02*
X114165000Y-85250000D01*
X109085000Y-85250000D02*
X110990000Y-85250000D01*
X110990000Y-85250000D02*
X110990000Y-87790000D01*
X110990000Y-87790000D02*
X108450000Y-87790000D01*
X108450000Y-87790000D02*
X108450000Y-85885000D01*
X108450000Y-85885000D02*
X109085000Y-85250000D01*
X111625000Y-85250000D02*
X113530000Y-85250000D01*
X113530000Y-85250000D02*
X113530000Y-87790000D01*
X113530000Y-87790000D02*
X110990000Y-87790000D01*
X110990000Y-87790000D02*
X110990000Y-85885000D01*
X110990000Y-85885000D02*
X111625000Y-85250000D01*
X111625000Y-82710000D02*
X113530000Y-82710000D01*
X113530000Y-82710000D02*
X113530000Y-85250000D01*
X113530000Y-85250000D02*
X110990000Y-85250000D01*
X110990000Y-85250000D02*
X110990000Y-83345000D01*
X110990000Y-83345000D02*
X111625000Y-82710000D01*
X109085000Y-82710000D02*
X110990000Y-82710000D01*
X110990000Y-82710000D02*
X110990000Y-85250000D01*
X110990000Y-85250000D02*
X108450000Y-85250000D01*
X108450000Y-85250000D02*
X108450000Y-83345000D01*
X108450000Y-83345000D02*
X109085000Y-82710000D01*
X104005000Y-82710000D02*
X105910000Y-82710000D01*
X105910000Y-82710000D02*
X105910000Y-85250000D01*
X105910000Y-85250000D02*
X103370000Y-85250000D01*
X103370000Y-85250000D02*
X103370000Y-83345000D01*
X103370000Y-83345000D02*
X104005000Y-82710000D01*
X106545000Y-82710000D02*
X108450000Y-82710000D01*
X108450000Y-82710000D02*
X108450000Y-85250000D01*
X108450000Y-85250000D02*
X105910000Y-85250000D01*
X105910000Y-85250000D02*
X105910000Y-83345000D01*
X105910000Y-83345000D02*
X106545000Y-82710000D01*
X106545000Y-85250000D02*
X108450000Y-85250000D01*
X108450000Y-85250000D02*
X108450000Y-87790000D01*
X108450000Y-87790000D02*
X105910000Y-87790000D01*
X105910000Y-87790000D02*
X105910000Y-85885000D01*
X105910000Y-85885000D02*
X106545000Y-85250000D01*
X104005000Y-85250000D02*
X105910000Y-85250000D01*
X105910000Y-85250000D02*
X105910000Y-87790000D01*
X105910000Y-87790000D02*
X103370000Y-87790000D01*
X103370000Y-87790000D02*
X103370000Y-85885000D01*
X103370000Y-85885000D02*
X104005000Y-85250000D01*
X132770000Y-98865000D02*
X132770000Y-100770000D01*
X132770000Y-100770000D02*
X122610000Y-100770000D01*
X122610000Y-100770000D02*
X122610000Y-98230000D01*
X122610000Y-98230000D02*
X132135000Y-98230000D01*
X132135000Y-98230000D02*
X132770000Y-98865000D01*
X90511500Y-122079000D02*
X90511500Y-120839000D01*
X92511500Y-122079000D02*
X90511500Y-122079000D01*
X92511500Y-120839000D02*
X92511500Y-122079000D01*
X90511500Y-120839000D02*
X92511500Y-120839000D01*
X101576000Y-122333000D02*
X101576000Y-121093000D01*
X103576000Y-122333000D02*
X101576000Y-122333000D01*
X103576000Y-121093000D02*
X103576000Y-122333000D01*
X101576000Y-121093000D02*
X103576000Y-121093000D01*
X113323000Y-121745500D02*
X113323000Y-120505500D01*
X115323000Y-121745500D02*
X113323000Y-121745500D01*
X115323000Y-120505500D02*
X115323000Y-121745500D01*
X113323000Y-120505500D02*
X115323000Y-120505500D01*
X129769500Y-120825000D02*
X129769500Y-119585000D01*
X131769500Y-120825000D02*
X129769500Y-120825000D01*
X131769500Y-119585000D02*
X131769500Y-120825000D01*
X129769500Y-119585000D02*
X131769500Y-119585000D01*
X143119500Y-120110500D02*
X143119500Y-118870500D01*
X145119500Y-120110500D02*
X143119500Y-120110500D01*
X145119500Y-118870500D02*
X145119500Y-120110500D01*
X143119500Y-118870500D02*
X145119500Y-118870500D01*
X74770000Y-46365000D02*
X74770000Y-48270000D01*
X74770000Y-48270000D02*
X64610000Y-48270000D01*
X64610000Y-48270000D02*
X64610000Y-45730000D01*
X64610000Y-45730000D02*
X74135000Y-45730000D01*
X74135000Y-45730000D02*
X74770000Y-46365000D01*
X74770000Y-59365000D02*
X74770000Y-61270000D01*
X74770000Y-61270000D02*
X64610000Y-61270000D01*
X64610000Y-61270000D02*
X64610000Y-58730000D01*
X64610000Y-58730000D02*
X74135000Y-58730000D01*
X74135000Y-58730000D02*
X74770000Y-59365000D01*
X74770000Y-72365000D02*
X74770000Y-74270000D01*
X74770000Y-74270000D02*
X64610000Y-74270000D01*
X64610000Y-74270000D02*
X64610000Y-71730000D01*
X64610000Y-71730000D02*
X74135000Y-71730000D01*
X74135000Y-71730000D02*
X74770000Y-72365000D01*
X74770000Y-85365000D02*
X74770000Y-87270000D01*
X74770000Y-87270000D02*
X64610000Y-87270000D01*
X64610000Y-87270000D02*
X64610000Y-84730000D01*
X64610000Y-84730000D02*
X74135000Y-84730000D01*
X74135000Y-84730000D02*
X74770000Y-85365000D01*
X88590500Y-114252500D02*
X88590500Y-116157500D01*
X88590500Y-116157500D02*
X83510500Y-116157500D01*
X83510500Y-116157500D02*
X83510500Y-113617500D01*
X83510500Y-113617500D02*
X87955500Y-113617500D01*
X87955500Y-113617500D02*
X88590500Y-114252500D01*
X102116000Y-114443000D02*
X102116000Y-116348000D01*
X102116000Y-116348000D02*
X97036000Y-116348000D01*
X97036000Y-116348000D02*
X97036000Y-113808000D01*
X97036000Y-113808000D02*
X101481000Y-113808000D01*
X101481000Y-113808000D02*
X102116000Y-114443000D01*
X94770000Y-98365000D02*
X94770000Y-100270000D01*
X94770000Y-100270000D02*
X84610000Y-100270000D01*
X84610000Y-100270000D02*
X84610000Y-97730000D01*
X84610000Y-97730000D02*
X94135000Y-97730000D01*
X94135000Y-97730000D02*
X94770000Y-98365000D01*
X94770000Y-85365000D02*
X94770000Y-87270000D01*
X94770000Y-87270000D02*
X84610000Y-87270000D01*
X84610000Y-87270000D02*
X84610000Y-84730000D01*
X84610000Y-84730000D02*
X94135000Y-84730000D01*
X94135000Y-84730000D02*
X94770000Y-85365000D01*
X94770000Y-72365000D02*
X94770000Y-74270000D01*
X94770000Y-74270000D02*
X84610000Y-74270000D01*
X84610000Y-74270000D02*
X84610000Y-71730000D01*
X84610000Y-71730000D02*
X94135000Y-71730000D01*
X94135000Y-71730000D02*
X94770000Y-72365000D01*
X94770000Y-59865000D02*
X94770000Y-61770000D01*
X94770000Y-61770000D02*
X84610000Y-61770000D01*
X84610000Y-61770000D02*
X84610000Y-59230000D01*
X84610000Y-59230000D02*
X94135000Y-59230000D01*
X94135000Y-59230000D02*
X94770000Y-59865000D01*
X114770000Y-46865000D02*
X114770000Y-48770000D01*
X114770000Y-48770000D02*
X104610000Y-48770000D01*
X104610000Y-48770000D02*
X104610000Y-46230000D01*
X104610000Y-46230000D02*
X114135000Y-46230000D01*
X114135000Y-46230000D02*
X114770000Y-46865000D01*
X114498500Y-114570000D02*
X114498500Y-116475000D01*
X114498500Y-116475000D02*
X109418500Y-116475000D01*
X109418500Y-116475000D02*
X109418500Y-113935000D01*
X109418500Y-113935000D02*
X113863500Y-113935000D01*
X113863500Y-113935000D02*
X114498500Y-114570000D01*
X132770000Y-46865000D02*
X132770000Y-48770000D01*
X132770000Y-48770000D02*
X122610000Y-48770000D01*
X122610000Y-48770000D02*
X122610000Y-46230000D01*
X122610000Y-46230000D02*
X132135000Y-46230000D01*
X132135000Y-46230000D02*
X132770000Y-46865000D01*
X132770000Y-59865000D02*
X132770000Y-61770000D01*
X132770000Y-61770000D02*
X122610000Y-61770000D01*
X122610000Y-61770000D02*
X122610000Y-59230000D01*
X122610000Y-59230000D02*
X132135000Y-59230000D01*
X132135000Y-59230000D02*
X132770000Y-59865000D01*
X132770000Y-72865000D02*
X132770000Y-74770000D01*
X132770000Y-74770000D02*
X122610000Y-74770000D01*
X122610000Y-74770000D02*
X122610000Y-72230000D01*
X122610000Y-72230000D02*
X132135000Y-72230000D01*
X132135000Y-72230000D02*
X132770000Y-72865000D01*
X132770000Y-85865000D02*
X132770000Y-87770000D01*
X132770000Y-87770000D02*
X122610000Y-87770000D01*
X122610000Y-87770000D02*
X122610000Y-85230000D01*
X122610000Y-85230000D02*
X132135000Y-85230000D01*
X132135000Y-85230000D02*
X132770000Y-85865000D01*
X128722500Y-114379500D02*
X128722500Y-116284500D01*
X128722500Y-116284500D02*
X123642500Y-116284500D01*
X123642500Y-116284500D02*
X123642500Y-113744500D01*
X123642500Y-113744500D02*
X128087500Y-113744500D01*
X128087500Y-113744500D02*
X128722500Y-114379500D01*
X149770000Y-98865000D02*
X149770000Y-100770000D01*
X149770000Y-100770000D02*
X139610000Y-100770000D01*
X139610000Y-100770000D02*
X139610000Y-98230000D01*
X139610000Y-98230000D02*
X149135000Y-98230000D01*
X149135000Y-98230000D02*
X149770000Y-98865000D01*
X149770000Y-85865000D02*
X149770000Y-87770000D01*
X149770000Y-87770000D02*
X139610000Y-87770000D01*
X139610000Y-87770000D02*
X139610000Y-85230000D01*
X139610000Y-85230000D02*
X149135000Y-85230000D01*
X149135000Y-85230000D02*
X149770000Y-85865000D01*
X149770000Y-72865000D02*
X149770000Y-74770000D01*
X149770000Y-74770000D02*
X139610000Y-74770000D01*
X139610000Y-74770000D02*
X139610000Y-72230000D01*
X139610000Y-72230000D02*
X149135000Y-72230000D01*
X149135000Y-72230000D02*
X149770000Y-72865000D01*
X149770000Y-59365000D02*
X149770000Y-61270000D01*
X149770000Y-61270000D02*
X139610000Y-61270000D01*
X139610000Y-61270000D02*
X139610000Y-58730000D01*
X139610000Y-58730000D02*
X149135000Y-58730000D01*
X149135000Y-58730000D02*
X149770000Y-59365000D01*
X141930500Y-114379500D02*
X141930500Y-116284500D01*
X141930500Y-116284500D02*
X136850500Y-116284500D01*
X136850500Y-116284500D02*
X136850500Y-113744500D01*
X136850500Y-113744500D02*
X141295500Y-113744500D01*
X141295500Y-113744500D02*
X141930500Y-114379500D01*
X64332000Y-110451000D02*
X64332000Y-108546000D01*
X64332000Y-108546000D02*
X71952000Y-108546000D01*
X71952000Y-108546000D02*
X71952000Y-111086000D01*
X71952000Y-111086000D02*
X64967000Y-111086000D01*
X64967000Y-111086000D02*
X64332000Y-110451000D01*
X64586000Y-121541000D02*
X64586000Y-119636000D01*
X64586000Y-119636000D02*
X72206000Y-119636000D01*
X72206000Y-119636000D02*
X72206000Y-122176000D01*
X72206000Y-122176000D02*
X65221000Y-122176000D01*
X65221000Y-122176000D02*
X64586000Y-121541000D01*
X160098000Y-113365000D02*
X158193000Y-113365000D01*
X158193000Y-113365000D02*
X158193000Y-85425000D01*
X158193000Y-85425000D02*
X160733000Y-85425000D01*
X160733000Y-85425000D02*
X160733000Y-112730000D01*
X160733000Y-112730000D02*
X160098000Y-113365000D01*
X84383500Y-109378000D02*
X84383500Y-110618000D01*
X82383500Y-109378000D02*
X84383500Y-109378000D01*
X82383500Y-110618000D02*
X82383500Y-109378000D01*
X84383500Y-110618000D02*
X82383500Y-110618000D01*
X85019500Y-124237000D02*
X83779500Y-124237000D01*
X85019500Y-122237000D02*
X85019500Y-124237000D01*
X83779500Y-122237000D02*
X85019500Y-122237000D01*
X83779500Y-124237000D02*
X83779500Y-122237000D01*
X97845500Y-109695500D02*
X97845500Y-110935500D01*
X95845500Y-109695500D02*
X97845500Y-109695500D01*
X95845500Y-110935500D02*
X95845500Y-109695500D01*
X97845500Y-110935500D02*
X95845500Y-110935500D01*
X97862000Y-123983000D02*
X96622000Y-123983000D01*
X97862000Y-121983000D02*
X97862000Y-123983000D01*
X96622000Y-121983000D02*
X97862000Y-121983000D01*
X96622000Y-123983000D02*
X96622000Y-121983000D01*
X110355000Y-109441500D02*
X110355000Y-110681500D01*
X108355000Y-109441500D02*
X110355000Y-109441500D01*
X108355000Y-110681500D02*
X108355000Y-109441500D01*
X110355000Y-110681500D02*
X108355000Y-110681500D01*
X109736000Y-124030500D02*
X108496000Y-124030500D01*
X109736000Y-122030500D02*
X109736000Y-124030500D01*
X108496000Y-122030500D02*
X109736000Y-122030500D01*
X108496000Y-124030500D02*
X108496000Y-122030500D01*
X124960000Y-109949500D02*
X124960000Y-111189500D01*
X122960000Y-109949500D02*
X124960000Y-109949500D01*
X122960000Y-111189500D02*
X122960000Y-109949500D01*
X124960000Y-111189500D02*
X122960000Y-111189500D01*
X126563500Y-122602000D02*
X125323500Y-122602000D01*
X126563500Y-120602000D02*
X126563500Y-122602000D01*
X125323500Y-120602000D02*
X126563500Y-120602000D01*
X125323500Y-122602000D02*
X125323500Y-120602000D01*
X137342500Y-109441500D02*
X137342500Y-110681500D01*
X135342500Y-109441500D02*
X137342500Y-109441500D01*
X135342500Y-110681500D02*
X135342500Y-109441500D01*
X137342500Y-110681500D02*
X135342500Y-110681500D01*
X140675500Y-122776500D02*
X139435500Y-122776500D01*
X140675500Y-120776500D02*
X140675500Y-122776500D01*
X139435500Y-120776500D02*
X140675500Y-120776500D01*
X139435500Y-122776500D02*
X139435500Y-120776500D01*
X74770000Y-98365000D02*
X74770000Y-100270000D01*
X74770000Y-100270000D02*
X64610000Y-100270000D01*
X64610000Y-100270000D02*
X64610000Y-97730000D01*
X64610000Y-97730000D02*
X74135000Y-97730000D01*
X74135000Y-97730000D02*
X74770000Y-98365000D01*
X94770000Y-46365000D02*
X94770000Y-48270000D01*
X94770000Y-48270000D02*
X84610000Y-48270000D01*
X84610000Y-48270000D02*
X84610000Y-45730000D01*
X84610000Y-45730000D02*
X94135000Y-45730000D01*
X94135000Y-45730000D02*
X94770000Y-46365000D01*
X149770000Y-46865000D02*
X149770000Y-48770000D01*
X149770000Y-48770000D02*
X139610000Y-48770000D01*
X139610000Y-48770000D02*
X139610000Y-46230000D01*
X139610000Y-46230000D02*
X149135000Y-46230000D01*
X149135000Y-46230000D02*
X149770000Y-46865000D01*
X74000000Y-36500000D02*
G75*
G03X74000000Y-36500000I-4000000J0D01*
G01*
X74700000Y-36500000D02*
X73500000Y-36500000D01*
X74100000Y-37150000D02*
X74100000Y-35850000D01*
X93500000Y-37000000D02*
G75*
G03X93500000Y-37000000I-4000000J0D01*
G01*
X94200000Y-37000000D02*
X93000000Y-37000000D01*
X93600000Y-37650000D02*
X93600000Y-36350000D01*
X114000000Y-37500000D02*
G75*
G03X114000000Y-37500000I-4000000J0D01*
G01*
X114700000Y-37500000D02*
X113500000Y-37500000D01*
X114100000Y-38150000D02*
X114100000Y-36850000D01*
X131500000Y-37500000D02*
G75*
G03X131500000Y-37500000I-4000000J0D01*
G01*
X132200000Y-37500000D02*
X131000000Y-37500000D01*
X131600000Y-38150000D02*
X131600000Y-36850000D01*
X148500000Y-37500000D02*
G75*
G03X148500000Y-37500000I-4000000J0D01*
G01*
X149200000Y-37500000D02*
X148000000Y-37500000D01*
X148600000Y-38150000D02*
X148600000Y-36850000D01*
X155257000Y-91441500D02*
X154017000Y-91441500D01*
X155257000Y-89441500D02*
X155257000Y-91441500D01*
X154017000Y-89441500D02*
X155257000Y-89441500D01*
X154017000Y-91441500D02*
X154017000Y-89441500D01*
X163154066Y-34000000D02*
G75*
G03X163154066Y-34000000I-2154066J0D01*
G01*
X57154066Y-34000000D02*
G75*
G03X57154066Y-34000000I-2154066J0D01*
G01*
X57154066Y-124000000D02*
G75*
G03X57154066Y-124000000I-2154066J0D01*
G01*
X163154066Y-124000000D02*
G75*
G03X163154066Y-124000000I-2154066J0D01*
G01*
X58550000Y-80980000D02*
X58550000Y-60780000D01*
X59750000Y-80930000D02*
X59750000Y-80980000D01*
X59750000Y-80980000D02*
X52250000Y-80980000D01*
X52250000Y-80980000D02*
X52250000Y-60780000D01*
X52250000Y-60780000D02*
X59750000Y-60780000D01*
X59750000Y-60780000D02*
X59750000Y-80930000D01*
D11*
X122002381Y-101523810D02*
X121954762Y-101619048D01*
X121859524Y-101666667D01*
X121002381Y-101666667D01*
X121954762Y-100761904D02*
X122002381Y-100857142D01*
X122002381Y-101047619D01*
X121954762Y-101142857D01*
X121859524Y-101190476D01*
X121478571Y-101190476D01*
X121383333Y-101142857D01*
X121335714Y-101047619D01*
X121335714Y-100857142D01*
X121383333Y-100761904D01*
X121478571Y-100714285D01*
X121573810Y-100714285D01*
X121669048Y-101190476D01*
X122002381Y-99857142D02*
X121002381Y-99857142D01*
X121954762Y-99857142D02*
X122002381Y-99952380D01*
X122002381Y-100142857D01*
X121954762Y-100238095D01*
X121907143Y-100285714D01*
X121811905Y-100333333D01*
X121526190Y-100333333D01*
X121430952Y-100285714D01*
X121383333Y-100238095D01*
X121335714Y-100142857D01*
X121335714Y-99952380D01*
X121383333Y-99857142D01*
X121954762Y-99428571D02*
X122002381Y-99333333D01*
X122002381Y-99142857D01*
X121954762Y-99047618D01*
X121859524Y-98999999D01*
X121811905Y-98999999D01*
X121716667Y-99047618D01*
X121669048Y-99142857D01*
X121669048Y-99285714D01*
X121621429Y-99380952D01*
X121526190Y-99428571D01*
X121478571Y-99428571D01*
X121383333Y-99380952D01*
X121335714Y-99285714D01*
X121335714Y-99142857D01*
X121383333Y-99047618D01*
X122097619Y-98809523D02*
X122097619Y-98047618D01*
X121335714Y-97380951D02*
X122002381Y-97380951D01*
X120954762Y-97619047D02*
X121669048Y-97857142D01*
X121669048Y-97238094D01*
X126880477Y-98952381D02*
X126880477Y-99666667D01*
X126832857Y-99809524D01*
X126737619Y-99904762D01*
X126594762Y-99952381D01*
X126499524Y-99952381D01*
X127309048Y-99047619D02*
X127356667Y-99000000D01*
X127451905Y-98952381D01*
X127690001Y-98952381D01*
X127785239Y-99000000D01*
X127832858Y-99047619D01*
X127880477Y-99142857D01*
X127880477Y-99238095D01*
X127832858Y-99380952D01*
X127261429Y-99952381D01*
X127880477Y-99952381D01*
X128356667Y-99952381D02*
X128547143Y-99952381D01*
X128642382Y-99904762D01*
X128690001Y-99857143D01*
X128785239Y-99714286D01*
X128832858Y-99523810D01*
X128832858Y-99142857D01*
X128785239Y-99047619D01*
X128737620Y-99000000D01*
X128642382Y-98952381D01*
X128451905Y-98952381D01*
X128356667Y-99000000D01*
X128309048Y-99047619D01*
X128261429Y-99142857D01*
X128261429Y-99380952D01*
X128309048Y-99476190D01*
X128356667Y-99523810D01*
X128451905Y-99571429D01*
X128642382Y-99571429D01*
X128737620Y-99523810D01*
X128785239Y-99476190D01*
X128832858Y-99380952D01*
X89963881Y-123661381D02*
X89392452Y-123661381D01*
X89678166Y-123661381D02*
X89678166Y-122661381D01*
X89582928Y-122804238D01*
X89487690Y-122899476D01*
X89392452Y-122947095D01*
X90582928Y-122661381D02*
X90678167Y-122661381D01*
X90773405Y-122709000D01*
X90821024Y-122756619D01*
X90868643Y-122851857D01*
X90916262Y-123042333D01*
X90916262Y-123280429D01*
X90868643Y-123470905D01*
X90821024Y-123566143D01*
X90773405Y-123613762D01*
X90678167Y-123661381D01*
X90582928Y-123661381D01*
X90487690Y-123613762D01*
X90440071Y-123566143D01*
X90392452Y-123470905D01*
X90344833Y-123280429D01*
X90344833Y-123042333D01*
X90392452Y-122851857D01*
X90440071Y-122756619D01*
X90487690Y-122709000D01*
X90582928Y-122661381D01*
X91535309Y-122661381D02*
X91630548Y-122661381D01*
X91725786Y-122709000D01*
X91773405Y-122756619D01*
X91821024Y-122851857D01*
X91868643Y-123042333D01*
X91868643Y-123280429D01*
X91821024Y-123470905D01*
X91773405Y-123566143D01*
X91725786Y-123613762D01*
X91630548Y-123661381D01*
X91535309Y-123661381D01*
X91440071Y-123613762D01*
X91392452Y-123566143D01*
X91344833Y-123470905D01*
X91297214Y-123280429D01*
X91297214Y-123042333D01*
X91344833Y-122851857D01*
X91392452Y-122756619D01*
X91440071Y-122709000D01*
X91535309Y-122661381D01*
X92297214Y-122994714D02*
X92297214Y-123661381D01*
X92297214Y-123089952D02*
X92344833Y-123042333D01*
X92440071Y-122994714D01*
X92582929Y-122994714D01*
X92678167Y-123042333D01*
X92725786Y-123137571D01*
X92725786Y-123661381D01*
X93535310Y-123137571D02*
X93201976Y-123137571D01*
X93201976Y-123661381D02*
X93201976Y-122661381D01*
X93678167Y-122661381D01*
X91344834Y-120066143D02*
X91297215Y-120113762D01*
X91154358Y-120161381D01*
X91059120Y-120161381D01*
X90916262Y-120113762D01*
X90821024Y-120018524D01*
X90773405Y-119923286D01*
X90725786Y-119732810D01*
X90725786Y-119589952D01*
X90773405Y-119399476D01*
X90821024Y-119304238D01*
X90916262Y-119209000D01*
X91059120Y-119161381D01*
X91154358Y-119161381D01*
X91297215Y-119209000D01*
X91344834Y-119256619D01*
X92201977Y-119161381D02*
X92011500Y-119161381D01*
X91916262Y-119209000D01*
X91868643Y-119256619D01*
X91773405Y-119399476D01*
X91725786Y-119589952D01*
X91725786Y-119970905D01*
X91773405Y-120066143D01*
X91821024Y-120113762D01*
X91916262Y-120161381D01*
X92106739Y-120161381D01*
X92201977Y-120113762D01*
X92249596Y-120066143D01*
X92297215Y-119970905D01*
X92297215Y-119732810D01*
X92249596Y-119637571D01*
X92201977Y-119589952D01*
X92106739Y-119542333D01*
X91916262Y-119542333D01*
X91821024Y-119589952D01*
X91773405Y-119637571D01*
X91725786Y-119732810D01*
X101028381Y-123915381D02*
X100456952Y-123915381D01*
X100742666Y-123915381D02*
X100742666Y-122915381D01*
X100647428Y-123058238D01*
X100552190Y-123153476D01*
X100456952Y-123201095D01*
X101647428Y-122915381D02*
X101742667Y-122915381D01*
X101837905Y-122963000D01*
X101885524Y-123010619D01*
X101933143Y-123105857D01*
X101980762Y-123296333D01*
X101980762Y-123534429D01*
X101933143Y-123724905D01*
X101885524Y-123820143D01*
X101837905Y-123867762D01*
X101742667Y-123915381D01*
X101647428Y-123915381D01*
X101552190Y-123867762D01*
X101504571Y-123820143D01*
X101456952Y-123724905D01*
X101409333Y-123534429D01*
X101409333Y-123296333D01*
X101456952Y-123105857D01*
X101504571Y-123010619D01*
X101552190Y-122963000D01*
X101647428Y-122915381D01*
X102599809Y-122915381D02*
X102695048Y-122915381D01*
X102790286Y-122963000D01*
X102837905Y-123010619D01*
X102885524Y-123105857D01*
X102933143Y-123296333D01*
X102933143Y-123534429D01*
X102885524Y-123724905D01*
X102837905Y-123820143D01*
X102790286Y-123867762D01*
X102695048Y-123915381D01*
X102599809Y-123915381D01*
X102504571Y-123867762D01*
X102456952Y-123820143D01*
X102409333Y-123724905D01*
X102361714Y-123534429D01*
X102361714Y-123296333D01*
X102409333Y-123105857D01*
X102456952Y-123010619D01*
X102504571Y-122963000D01*
X102599809Y-122915381D01*
X103361714Y-123248714D02*
X103361714Y-123915381D01*
X103361714Y-123343952D02*
X103409333Y-123296333D01*
X103504571Y-123248714D01*
X103647429Y-123248714D01*
X103742667Y-123296333D01*
X103790286Y-123391571D01*
X103790286Y-123915381D01*
X104599810Y-123391571D02*
X104266476Y-123391571D01*
X104266476Y-123915381D02*
X104266476Y-122915381D01*
X104742667Y-122915381D01*
X102409334Y-120320143D02*
X102361715Y-120367762D01*
X102218858Y-120415381D01*
X102123620Y-120415381D01*
X101980762Y-120367762D01*
X101885524Y-120272524D01*
X101837905Y-120177286D01*
X101790286Y-119986810D01*
X101790286Y-119843952D01*
X101837905Y-119653476D01*
X101885524Y-119558238D01*
X101980762Y-119463000D01*
X102123620Y-119415381D01*
X102218858Y-119415381D01*
X102361715Y-119463000D01*
X102409334Y-119510619D01*
X102742667Y-119415381D02*
X103409334Y-119415381D01*
X102980762Y-120415381D01*
X112775381Y-123327881D02*
X112203952Y-123327881D01*
X112489666Y-123327881D02*
X112489666Y-122327881D01*
X112394428Y-122470738D01*
X112299190Y-122565976D01*
X112203952Y-122613595D01*
X113394428Y-122327881D02*
X113489667Y-122327881D01*
X113584905Y-122375500D01*
X113632524Y-122423119D01*
X113680143Y-122518357D01*
X113727762Y-122708833D01*
X113727762Y-122946929D01*
X113680143Y-123137405D01*
X113632524Y-123232643D01*
X113584905Y-123280262D01*
X113489667Y-123327881D01*
X113394428Y-123327881D01*
X113299190Y-123280262D01*
X113251571Y-123232643D01*
X113203952Y-123137405D01*
X113156333Y-122946929D01*
X113156333Y-122708833D01*
X113203952Y-122518357D01*
X113251571Y-122423119D01*
X113299190Y-122375500D01*
X113394428Y-122327881D01*
X114346809Y-122327881D02*
X114442048Y-122327881D01*
X114537286Y-122375500D01*
X114584905Y-122423119D01*
X114632524Y-122518357D01*
X114680143Y-122708833D01*
X114680143Y-122946929D01*
X114632524Y-123137405D01*
X114584905Y-123232643D01*
X114537286Y-123280262D01*
X114442048Y-123327881D01*
X114346809Y-123327881D01*
X114251571Y-123280262D01*
X114203952Y-123232643D01*
X114156333Y-123137405D01*
X114108714Y-122946929D01*
X114108714Y-122708833D01*
X114156333Y-122518357D01*
X114203952Y-122423119D01*
X114251571Y-122375500D01*
X114346809Y-122327881D01*
X115108714Y-122661214D02*
X115108714Y-123327881D01*
X115108714Y-122756452D02*
X115156333Y-122708833D01*
X115251571Y-122661214D01*
X115394429Y-122661214D01*
X115489667Y-122708833D01*
X115537286Y-122804071D01*
X115537286Y-123327881D01*
X116346810Y-122804071D02*
X116013476Y-122804071D01*
X116013476Y-123327881D02*
X116013476Y-122327881D01*
X116489667Y-122327881D01*
X114156334Y-119732643D02*
X114108715Y-119780262D01*
X113965858Y-119827881D01*
X113870620Y-119827881D01*
X113727762Y-119780262D01*
X113632524Y-119685024D01*
X113584905Y-119589786D01*
X113537286Y-119399310D01*
X113537286Y-119256452D01*
X113584905Y-119065976D01*
X113632524Y-118970738D01*
X113727762Y-118875500D01*
X113870620Y-118827881D01*
X113965858Y-118827881D01*
X114108715Y-118875500D01*
X114156334Y-118923119D01*
X114727762Y-119256452D02*
X114632524Y-119208833D01*
X114584905Y-119161214D01*
X114537286Y-119065976D01*
X114537286Y-119018357D01*
X114584905Y-118923119D01*
X114632524Y-118875500D01*
X114727762Y-118827881D01*
X114918239Y-118827881D01*
X115013477Y-118875500D01*
X115061096Y-118923119D01*
X115108715Y-119018357D01*
X115108715Y-119065976D01*
X115061096Y-119161214D01*
X115013477Y-119208833D01*
X114918239Y-119256452D01*
X114727762Y-119256452D01*
X114632524Y-119304071D01*
X114584905Y-119351690D01*
X114537286Y-119446929D01*
X114537286Y-119637405D01*
X114584905Y-119732643D01*
X114632524Y-119780262D01*
X114727762Y-119827881D01*
X114918239Y-119827881D01*
X115013477Y-119780262D01*
X115061096Y-119732643D01*
X115108715Y-119637405D01*
X115108715Y-119446929D01*
X115061096Y-119351690D01*
X115013477Y-119304071D01*
X114918239Y-119256452D01*
X129221881Y-122407381D02*
X128650452Y-122407381D01*
X128936166Y-122407381D02*
X128936166Y-121407381D01*
X128840928Y-121550238D01*
X128745690Y-121645476D01*
X128650452Y-121693095D01*
X129840928Y-121407381D02*
X129936167Y-121407381D01*
X130031405Y-121455000D01*
X130079024Y-121502619D01*
X130126643Y-121597857D01*
X130174262Y-121788333D01*
X130174262Y-122026429D01*
X130126643Y-122216905D01*
X130079024Y-122312143D01*
X130031405Y-122359762D01*
X129936167Y-122407381D01*
X129840928Y-122407381D01*
X129745690Y-122359762D01*
X129698071Y-122312143D01*
X129650452Y-122216905D01*
X129602833Y-122026429D01*
X129602833Y-121788333D01*
X129650452Y-121597857D01*
X129698071Y-121502619D01*
X129745690Y-121455000D01*
X129840928Y-121407381D01*
X130793309Y-121407381D02*
X130888548Y-121407381D01*
X130983786Y-121455000D01*
X131031405Y-121502619D01*
X131079024Y-121597857D01*
X131126643Y-121788333D01*
X131126643Y-122026429D01*
X131079024Y-122216905D01*
X131031405Y-122312143D01*
X130983786Y-122359762D01*
X130888548Y-122407381D01*
X130793309Y-122407381D01*
X130698071Y-122359762D01*
X130650452Y-122312143D01*
X130602833Y-122216905D01*
X130555214Y-122026429D01*
X130555214Y-121788333D01*
X130602833Y-121597857D01*
X130650452Y-121502619D01*
X130698071Y-121455000D01*
X130793309Y-121407381D01*
X131555214Y-121740714D02*
X131555214Y-122407381D01*
X131555214Y-121835952D02*
X131602833Y-121788333D01*
X131698071Y-121740714D01*
X131840929Y-121740714D01*
X131936167Y-121788333D01*
X131983786Y-121883571D01*
X131983786Y-122407381D01*
X132793310Y-121883571D02*
X132459976Y-121883571D01*
X132459976Y-122407381D02*
X132459976Y-121407381D01*
X132936167Y-121407381D01*
X130602834Y-118812143D02*
X130555215Y-118859762D01*
X130412358Y-118907381D01*
X130317120Y-118907381D01*
X130174262Y-118859762D01*
X130079024Y-118764524D01*
X130031405Y-118669286D01*
X129983786Y-118478810D01*
X129983786Y-118335952D01*
X130031405Y-118145476D01*
X130079024Y-118050238D01*
X130174262Y-117955000D01*
X130317120Y-117907381D01*
X130412358Y-117907381D01*
X130555215Y-117955000D01*
X130602834Y-118002619D01*
X131079024Y-118907381D02*
X131269500Y-118907381D01*
X131364739Y-118859762D01*
X131412358Y-118812143D01*
X131507596Y-118669286D01*
X131555215Y-118478810D01*
X131555215Y-118097857D01*
X131507596Y-118002619D01*
X131459977Y-117955000D01*
X131364739Y-117907381D01*
X131174262Y-117907381D01*
X131079024Y-117955000D01*
X131031405Y-118002619D01*
X130983786Y-118097857D01*
X130983786Y-118335952D01*
X131031405Y-118431190D01*
X131079024Y-118478810D01*
X131174262Y-118526429D01*
X131364739Y-118526429D01*
X131459977Y-118478810D01*
X131507596Y-118431190D01*
X131555215Y-118335952D01*
X142571881Y-121692881D02*
X142000452Y-121692881D01*
X142286166Y-121692881D02*
X142286166Y-120692881D01*
X142190928Y-120835738D01*
X142095690Y-120930976D01*
X142000452Y-120978595D01*
X143190928Y-120692881D02*
X143286167Y-120692881D01*
X143381405Y-120740500D01*
X143429024Y-120788119D01*
X143476643Y-120883357D01*
X143524262Y-121073833D01*
X143524262Y-121311929D01*
X143476643Y-121502405D01*
X143429024Y-121597643D01*
X143381405Y-121645262D01*
X143286167Y-121692881D01*
X143190928Y-121692881D01*
X143095690Y-121645262D01*
X143048071Y-121597643D01*
X143000452Y-121502405D01*
X142952833Y-121311929D01*
X142952833Y-121073833D01*
X143000452Y-120883357D01*
X143048071Y-120788119D01*
X143095690Y-120740500D01*
X143190928Y-120692881D01*
X144143309Y-120692881D02*
X144238548Y-120692881D01*
X144333786Y-120740500D01*
X144381405Y-120788119D01*
X144429024Y-120883357D01*
X144476643Y-121073833D01*
X144476643Y-121311929D01*
X144429024Y-121502405D01*
X144381405Y-121597643D01*
X144333786Y-121645262D01*
X144238548Y-121692881D01*
X144143309Y-121692881D01*
X144048071Y-121645262D01*
X144000452Y-121597643D01*
X143952833Y-121502405D01*
X143905214Y-121311929D01*
X143905214Y-121073833D01*
X143952833Y-120883357D01*
X144000452Y-120788119D01*
X144048071Y-120740500D01*
X144143309Y-120692881D01*
X144905214Y-121026214D02*
X144905214Y-121692881D01*
X144905214Y-121121452D02*
X144952833Y-121073833D01*
X145048071Y-121026214D01*
X145190929Y-121026214D01*
X145286167Y-121073833D01*
X145333786Y-121169071D01*
X145333786Y-121692881D01*
X146143310Y-121169071D02*
X145809976Y-121169071D01*
X145809976Y-121692881D02*
X145809976Y-120692881D01*
X146286167Y-120692881D01*
X143476643Y-118097643D02*
X143429024Y-118145262D01*
X143286167Y-118192881D01*
X143190929Y-118192881D01*
X143048071Y-118145262D01*
X142952833Y-118050024D01*
X142905214Y-117954786D01*
X142857595Y-117764310D01*
X142857595Y-117621452D01*
X142905214Y-117430976D01*
X142952833Y-117335738D01*
X143048071Y-117240500D01*
X143190929Y-117192881D01*
X143286167Y-117192881D01*
X143429024Y-117240500D01*
X143476643Y-117288119D01*
X144429024Y-118192881D02*
X143857595Y-118192881D01*
X144143309Y-118192881D02*
X144143309Y-117192881D01*
X144048071Y-117335738D01*
X143952833Y-117430976D01*
X143857595Y-117478595D01*
X145048071Y-117192881D02*
X145143310Y-117192881D01*
X145238548Y-117240500D01*
X145286167Y-117288119D01*
X145333786Y-117383357D01*
X145381405Y-117573833D01*
X145381405Y-117811929D01*
X145333786Y-118002405D01*
X145286167Y-118097643D01*
X145238548Y-118145262D01*
X145143310Y-118192881D01*
X145048071Y-118192881D01*
X144952833Y-118145262D01*
X144905214Y-118097643D01*
X144857595Y-118002405D01*
X144809976Y-117811929D01*
X144809976Y-117573833D01*
X144857595Y-117383357D01*
X144905214Y-117288119D01*
X144952833Y-117240500D01*
X145048071Y-117192881D01*
X64002381Y-49023810D02*
X63954762Y-49119048D01*
X63859524Y-49166667D01*
X63002381Y-49166667D01*
X63954762Y-48261904D02*
X64002381Y-48357142D01*
X64002381Y-48547619D01*
X63954762Y-48642857D01*
X63859524Y-48690476D01*
X63478571Y-48690476D01*
X63383333Y-48642857D01*
X63335714Y-48547619D01*
X63335714Y-48357142D01*
X63383333Y-48261904D01*
X63478571Y-48214285D01*
X63573810Y-48214285D01*
X63669048Y-48690476D01*
X64002381Y-47357142D02*
X63002381Y-47357142D01*
X63954762Y-47357142D02*
X64002381Y-47452380D01*
X64002381Y-47642857D01*
X63954762Y-47738095D01*
X63907143Y-47785714D01*
X63811905Y-47833333D01*
X63526190Y-47833333D01*
X63430952Y-47785714D01*
X63383333Y-47738095D01*
X63335714Y-47642857D01*
X63335714Y-47452380D01*
X63383333Y-47357142D01*
X63954762Y-46928571D02*
X64002381Y-46833333D01*
X64002381Y-46642857D01*
X63954762Y-46547618D01*
X63859524Y-46499999D01*
X63811905Y-46499999D01*
X63716667Y-46547618D01*
X63669048Y-46642857D01*
X63669048Y-46785714D01*
X63621429Y-46880952D01*
X63526190Y-46928571D01*
X63478571Y-46928571D01*
X63383333Y-46880952D01*
X63335714Y-46785714D01*
X63335714Y-46642857D01*
X63383333Y-46547618D01*
X64097619Y-46309523D02*
X64097619Y-45547618D01*
X64002381Y-44785713D02*
X64002381Y-45357142D01*
X64002381Y-45071428D02*
X63002381Y-45071428D01*
X63145238Y-45166666D01*
X63240476Y-45261904D01*
X63288095Y-45357142D01*
X69356667Y-46452381D02*
X69356667Y-47166667D01*
X69309047Y-47309524D01*
X69213809Y-47404762D01*
X69070952Y-47452381D01*
X68975714Y-47452381D01*
X70356667Y-47452381D02*
X69785238Y-47452381D01*
X70070952Y-47452381D02*
X70070952Y-46452381D01*
X69975714Y-46595238D01*
X69880476Y-46690476D01*
X69785238Y-46738095D01*
X64002381Y-62023810D02*
X63954762Y-62119048D01*
X63859524Y-62166667D01*
X63002381Y-62166667D01*
X63954762Y-61261904D02*
X64002381Y-61357142D01*
X64002381Y-61547619D01*
X63954762Y-61642857D01*
X63859524Y-61690476D01*
X63478571Y-61690476D01*
X63383333Y-61642857D01*
X63335714Y-61547619D01*
X63335714Y-61357142D01*
X63383333Y-61261904D01*
X63478571Y-61214285D01*
X63573810Y-61214285D01*
X63669048Y-61690476D01*
X64002381Y-60357142D02*
X63002381Y-60357142D01*
X63954762Y-60357142D02*
X64002381Y-60452380D01*
X64002381Y-60642857D01*
X63954762Y-60738095D01*
X63907143Y-60785714D01*
X63811905Y-60833333D01*
X63526190Y-60833333D01*
X63430952Y-60785714D01*
X63383333Y-60738095D01*
X63335714Y-60642857D01*
X63335714Y-60452380D01*
X63383333Y-60357142D01*
X63954762Y-59928571D02*
X64002381Y-59833333D01*
X64002381Y-59642857D01*
X63954762Y-59547618D01*
X63859524Y-59499999D01*
X63811905Y-59499999D01*
X63716667Y-59547618D01*
X63669048Y-59642857D01*
X63669048Y-59785714D01*
X63621429Y-59880952D01*
X63526190Y-59928571D01*
X63478571Y-59928571D01*
X63383333Y-59880952D01*
X63335714Y-59785714D01*
X63335714Y-59642857D01*
X63383333Y-59547618D01*
X64097619Y-59309523D02*
X64097619Y-58547618D01*
X64002381Y-57785713D02*
X64002381Y-58357142D01*
X64002381Y-58071428D02*
X63002381Y-58071428D01*
X63145238Y-58166666D01*
X63240476Y-58261904D01*
X63288095Y-58357142D01*
X69356667Y-59452381D02*
X69356667Y-60166667D01*
X69309047Y-60309524D01*
X69213809Y-60404762D01*
X69070952Y-60452381D01*
X68975714Y-60452381D01*
X69785238Y-59547619D02*
X69832857Y-59500000D01*
X69928095Y-59452381D01*
X70166191Y-59452381D01*
X70261429Y-59500000D01*
X70309048Y-59547619D01*
X70356667Y-59642857D01*
X70356667Y-59738095D01*
X70309048Y-59880952D01*
X69737619Y-60452381D01*
X70356667Y-60452381D01*
X64002381Y-75023810D02*
X63954762Y-75119048D01*
X63859524Y-75166667D01*
X63002381Y-75166667D01*
X63954762Y-74261904D02*
X64002381Y-74357142D01*
X64002381Y-74547619D01*
X63954762Y-74642857D01*
X63859524Y-74690476D01*
X63478571Y-74690476D01*
X63383333Y-74642857D01*
X63335714Y-74547619D01*
X63335714Y-74357142D01*
X63383333Y-74261904D01*
X63478571Y-74214285D01*
X63573810Y-74214285D01*
X63669048Y-74690476D01*
X64002381Y-73357142D02*
X63002381Y-73357142D01*
X63954762Y-73357142D02*
X64002381Y-73452380D01*
X64002381Y-73642857D01*
X63954762Y-73738095D01*
X63907143Y-73785714D01*
X63811905Y-73833333D01*
X63526190Y-73833333D01*
X63430952Y-73785714D01*
X63383333Y-73738095D01*
X63335714Y-73642857D01*
X63335714Y-73452380D01*
X63383333Y-73357142D01*
X63954762Y-72928571D02*
X64002381Y-72833333D01*
X64002381Y-72642857D01*
X63954762Y-72547618D01*
X63859524Y-72499999D01*
X63811905Y-72499999D01*
X63716667Y-72547618D01*
X63669048Y-72642857D01*
X63669048Y-72785714D01*
X63621429Y-72880952D01*
X63526190Y-72928571D01*
X63478571Y-72928571D01*
X63383333Y-72880952D01*
X63335714Y-72785714D01*
X63335714Y-72642857D01*
X63383333Y-72547618D01*
X64097619Y-72309523D02*
X64097619Y-71547618D01*
X64002381Y-70785713D02*
X64002381Y-71357142D01*
X64002381Y-71071428D02*
X63002381Y-71071428D01*
X63145238Y-71166666D01*
X63240476Y-71261904D01*
X63288095Y-71357142D01*
X69356667Y-72452381D02*
X69356667Y-73166667D01*
X69309047Y-73309524D01*
X69213809Y-73404762D01*
X69070952Y-73452381D01*
X68975714Y-73452381D01*
X69737619Y-72452381D02*
X70356667Y-72452381D01*
X70023333Y-72833333D01*
X70166191Y-72833333D01*
X70261429Y-72880952D01*
X70309048Y-72928571D01*
X70356667Y-73023810D01*
X70356667Y-73261905D01*
X70309048Y-73357143D01*
X70261429Y-73404762D01*
X70166191Y-73452381D01*
X69880476Y-73452381D01*
X69785238Y-73404762D01*
X69737619Y-73357143D01*
X64002381Y-88023810D02*
X63954762Y-88119048D01*
X63859524Y-88166667D01*
X63002381Y-88166667D01*
X63954762Y-87261904D02*
X64002381Y-87357142D01*
X64002381Y-87547619D01*
X63954762Y-87642857D01*
X63859524Y-87690476D01*
X63478571Y-87690476D01*
X63383333Y-87642857D01*
X63335714Y-87547619D01*
X63335714Y-87357142D01*
X63383333Y-87261904D01*
X63478571Y-87214285D01*
X63573810Y-87214285D01*
X63669048Y-87690476D01*
X64002381Y-86357142D02*
X63002381Y-86357142D01*
X63954762Y-86357142D02*
X64002381Y-86452380D01*
X64002381Y-86642857D01*
X63954762Y-86738095D01*
X63907143Y-86785714D01*
X63811905Y-86833333D01*
X63526190Y-86833333D01*
X63430952Y-86785714D01*
X63383333Y-86738095D01*
X63335714Y-86642857D01*
X63335714Y-86452380D01*
X63383333Y-86357142D01*
X63954762Y-85928571D02*
X64002381Y-85833333D01*
X64002381Y-85642857D01*
X63954762Y-85547618D01*
X63859524Y-85499999D01*
X63811905Y-85499999D01*
X63716667Y-85547618D01*
X63669048Y-85642857D01*
X63669048Y-85785714D01*
X63621429Y-85880952D01*
X63526190Y-85928571D01*
X63478571Y-85928571D01*
X63383333Y-85880952D01*
X63335714Y-85785714D01*
X63335714Y-85642857D01*
X63383333Y-85547618D01*
X64097619Y-85309523D02*
X64097619Y-84547618D01*
X64002381Y-83785713D02*
X64002381Y-84357142D01*
X64002381Y-84071428D02*
X63002381Y-84071428D01*
X63145238Y-84166666D01*
X63240476Y-84261904D01*
X63288095Y-84357142D01*
X69356667Y-85452381D02*
X69356667Y-86166667D01*
X69309047Y-86309524D01*
X69213809Y-86404762D01*
X69070952Y-86452381D01*
X68975714Y-86452381D01*
X70261429Y-85785714D02*
X70261429Y-86452381D01*
X70023333Y-85404762D02*
X69785238Y-86119048D01*
X70404286Y-86119048D01*
X82902881Y-116697024D02*
X81902881Y-116697024D01*
X82283833Y-116697024D02*
X82236214Y-116601786D01*
X82236214Y-116411309D01*
X82283833Y-116316071D01*
X82331452Y-116268452D01*
X82426690Y-116220833D01*
X82712405Y-116220833D01*
X82807643Y-116268452D01*
X82855262Y-116316071D01*
X82902881Y-116411309D01*
X82902881Y-116601786D01*
X82855262Y-116697024D01*
X82236214Y-115935119D02*
X82236214Y-115554167D01*
X81902881Y-115792262D02*
X82760024Y-115792262D01*
X82855262Y-115744643D01*
X82902881Y-115649405D01*
X82902881Y-115554167D01*
X82236214Y-115220833D02*
X82902881Y-115220833D01*
X82331452Y-115220833D02*
X82283833Y-115173214D01*
X82236214Y-115077976D01*
X82236214Y-114935118D01*
X82283833Y-114839880D01*
X82379071Y-114792261D01*
X82902881Y-114792261D01*
X82998119Y-114554166D02*
X82998119Y-113792261D01*
X82902881Y-113030356D02*
X82902881Y-113601785D01*
X82902881Y-113316071D02*
X81902881Y-113316071D01*
X82045738Y-113411309D01*
X82140976Y-113506547D01*
X82188595Y-113601785D01*
X85717167Y-114339881D02*
X85717167Y-115054167D01*
X85669547Y-115197024D01*
X85574309Y-115292262D01*
X85431452Y-115339881D01*
X85336214Y-115339881D01*
X86669548Y-114339881D02*
X86193357Y-114339881D01*
X86145738Y-114816071D01*
X86193357Y-114768452D01*
X86288595Y-114720833D01*
X86526691Y-114720833D01*
X86621929Y-114768452D01*
X86669548Y-114816071D01*
X86717167Y-114911310D01*
X86717167Y-115149405D01*
X86669548Y-115244643D01*
X86621929Y-115292262D01*
X86526691Y-115339881D01*
X86288595Y-115339881D01*
X86193357Y-115292262D01*
X86145738Y-115244643D01*
X96428381Y-116887524D02*
X95428381Y-116887524D01*
X95809333Y-116887524D02*
X95761714Y-116792286D01*
X95761714Y-116601809D01*
X95809333Y-116506571D01*
X95856952Y-116458952D01*
X95952190Y-116411333D01*
X96237905Y-116411333D01*
X96333143Y-116458952D01*
X96380762Y-116506571D01*
X96428381Y-116601809D01*
X96428381Y-116792286D01*
X96380762Y-116887524D01*
X95761714Y-116125619D02*
X95761714Y-115744667D01*
X95428381Y-115982762D02*
X96285524Y-115982762D01*
X96380762Y-115935143D01*
X96428381Y-115839905D01*
X96428381Y-115744667D01*
X95761714Y-115411333D02*
X96428381Y-115411333D01*
X95856952Y-115411333D02*
X95809333Y-115363714D01*
X95761714Y-115268476D01*
X95761714Y-115125618D01*
X95809333Y-115030380D01*
X95904571Y-114982761D01*
X96428381Y-114982761D01*
X96523619Y-114744666D02*
X96523619Y-113982761D01*
X95523619Y-113792285D02*
X95476000Y-113744666D01*
X95428381Y-113649428D01*
X95428381Y-113411332D01*
X95476000Y-113316094D01*
X95523619Y-113268475D01*
X95618857Y-113220856D01*
X95714095Y-113220856D01*
X95856952Y-113268475D01*
X96428381Y-113839904D01*
X96428381Y-113220856D01*
X99242667Y-114530381D02*
X99242667Y-115244667D01*
X99195047Y-115387524D01*
X99099809Y-115482762D01*
X98956952Y-115530381D01*
X98861714Y-115530381D01*
X100147429Y-114530381D02*
X99956952Y-114530381D01*
X99861714Y-114578000D01*
X99814095Y-114625619D01*
X99718857Y-114768476D01*
X99671238Y-114958952D01*
X99671238Y-115339905D01*
X99718857Y-115435143D01*
X99766476Y-115482762D01*
X99861714Y-115530381D01*
X100052191Y-115530381D01*
X100147429Y-115482762D01*
X100195048Y-115435143D01*
X100242667Y-115339905D01*
X100242667Y-115101810D01*
X100195048Y-115006571D01*
X100147429Y-114958952D01*
X100052191Y-114911333D01*
X99861714Y-114911333D01*
X99766476Y-114958952D01*
X99718857Y-115006571D01*
X99671238Y-115101810D01*
X84002381Y-101023810D02*
X83954762Y-101119048D01*
X83859524Y-101166667D01*
X83002381Y-101166667D01*
X84002381Y-100214285D02*
X83002381Y-100214285D01*
X83954762Y-100214285D02*
X84002381Y-100309523D01*
X84002381Y-100500000D01*
X83954762Y-100595238D01*
X83907143Y-100642857D01*
X83811905Y-100690476D01*
X83526190Y-100690476D01*
X83430952Y-100642857D01*
X83383333Y-100595238D01*
X83335714Y-100500000D01*
X83335714Y-100309523D01*
X83383333Y-100214285D01*
X83954762Y-99357142D02*
X84002381Y-99452380D01*
X84002381Y-99642857D01*
X83954762Y-99738095D01*
X83859524Y-99785714D01*
X83478571Y-99785714D01*
X83383333Y-99738095D01*
X83335714Y-99642857D01*
X83335714Y-99452380D01*
X83383333Y-99357142D01*
X83478571Y-99309523D01*
X83573810Y-99309523D01*
X83669048Y-99785714D01*
X83954762Y-98928571D02*
X84002381Y-98833333D01*
X84002381Y-98642857D01*
X83954762Y-98547618D01*
X83859524Y-98499999D01*
X83811905Y-98499999D01*
X83716667Y-98547618D01*
X83669048Y-98642857D01*
X83669048Y-98785714D01*
X83621429Y-98880952D01*
X83526190Y-98928571D01*
X83478571Y-98928571D01*
X83383333Y-98880952D01*
X83335714Y-98785714D01*
X83335714Y-98642857D01*
X83383333Y-98547618D01*
X84097619Y-98309523D02*
X84097619Y-97547618D01*
X83097619Y-97357142D02*
X83050000Y-97309523D01*
X83002381Y-97214285D01*
X83002381Y-96976189D01*
X83050000Y-96880951D01*
X83097619Y-96833332D01*
X83192857Y-96785713D01*
X83288095Y-96785713D01*
X83430952Y-96833332D01*
X84002381Y-97404761D01*
X84002381Y-96785713D01*
X89356667Y-98452381D02*
X89356667Y-99166667D01*
X89309047Y-99309524D01*
X89213809Y-99404762D01*
X89070952Y-99452381D01*
X88975714Y-99452381D01*
X89737619Y-98452381D02*
X90404286Y-98452381D01*
X89975714Y-99452381D01*
X84002381Y-88023810D02*
X83954762Y-88119048D01*
X83859524Y-88166667D01*
X83002381Y-88166667D01*
X83954762Y-87261904D02*
X84002381Y-87357142D01*
X84002381Y-87547619D01*
X83954762Y-87642857D01*
X83859524Y-87690476D01*
X83478571Y-87690476D01*
X83383333Y-87642857D01*
X83335714Y-87547619D01*
X83335714Y-87357142D01*
X83383333Y-87261904D01*
X83478571Y-87214285D01*
X83573810Y-87214285D01*
X83669048Y-87690476D01*
X84002381Y-86357142D02*
X83002381Y-86357142D01*
X83954762Y-86357142D02*
X84002381Y-86452380D01*
X84002381Y-86642857D01*
X83954762Y-86738095D01*
X83907143Y-86785714D01*
X83811905Y-86833333D01*
X83526190Y-86833333D01*
X83430952Y-86785714D01*
X83383333Y-86738095D01*
X83335714Y-86642857D01*
X83335714Y-86452380D01*
X83383333Y-86357142D01*
X83954762Y-85928571D02*
X84002381Y-85833333D01*
X84002381Y-85642857D01*
X83954762Y-85547618D01*
X83859524Y-85499999D01*
X83811905Y-85499999D01*
X83716667Y-85547618D01*
X83669048Y-85642857D01*
X83669048Y-85785714D01*
X83621429Y-85880952D01*
X83526190Y-85928571D01*
X83478571Y-85928571D01*
X83383333Y-85880952D01*
X83335714Y-85785714D01*
X83335714Y-85642857D01*
X83383333Y-85547618D01*
X84097619Y-85309523D02*
X84097619Y-84547618D01*
X83097619Y-84357142D02*
X83050000Y-84309523D01*
X83002381Y-84214285D01*
X83002381Y-83976189D01*
X83050000Y-83880951D01*
X83097619Y-83833332D01*
X83192857Y-83785713D01*
X83288095Y-83785713D01*
X83430952Y-83833332D01*
X84002381Y-84404761D01*
X84002381Y-83785713D01*
X89356667Y-85452381D02*
X89356667Y-86166667D01*
X89309047Y-86309524D01*
X89213809Y-86404762D01*
X89070952Y-86452381D01*
X88975714Y-86452381D01*
X89975714Y-85880952D02*
X89880476Y-85833333D01*
X89832857Y-85785714D01*
X89785238Y-85690476D01*
X89785238Y-85642857D01*
X89832857Y-85547619D01*
X89880476Y-85500000D01*
X89975714Y-85452381D01*
X90166191Y-85452381D01*
X90261429Y-85500000D01*
X90309048Y-85547619D01*
X90356667Y-85642857D01*
X90356667Y-85690476D01*
X90309048Y-85785714D01*
X90261429Y-85833333D01*
X90166191Y-85880952D01*
X89975714Y-85880952D01*
X89880476Y-85928571D01*
X89832857Y-85976190D01*
X89785238Y-86071429D01*
X89785238Y-86261905D01*
X89832857Y-86357143D01*
X89880476Y-86404762D01*
X89975714Y-86452381D01*
X90166191Y-86452381D01*
X90261429Y-86404762D01*
X90309048Y-86357143D01*
X90356667Y-86261905D01*
X90356667Y-86071429D01*
X90309048Y-85976190D01*
X90261429Y-85928571D01*
X90166191Y-85880952D01*
X84002381Y-75023810D02*
X83954762Y-75119048D01*
X83859524Y-75166667D01*
X83002381Y-75166667D01*
X83954762Y-74261904D02*
X84002381Y-74357142D01*
X84002381Y-74547619D01*
X83954762Y-74642857D01*
X83859524Y-74690476D01*
X83478571Y-74690476D01*
X83383333Y-74642857D01*
X83335714Y-74547619D01*
X83335714Y-74357142D01*
X83383333Y-74261904D01*
X83478571Y-74214285D01*
X83573810Y-74214285D01*
X83669048Y-74690476D01*
X84002381Y-73357142D02*
X83002381Y-73357142D01*
X83954762Y-73357142D02*
X84002381Y-73452380D01*
X84002381Y-73642857D01*
X83954762Y-73738095D01*
X83907143Y-73785714D01*
X83811905Y-73833333D01*
X83526190Y-73833333D01*
X83430952Y-73785714D01*
X83383333Y-73738095D01*
X83335714Y-73642857D01*
X83335714Y-73452380D01*
X83383333Y-73357142D01*
X83954762Y-72928571D02*
X84002381Y-72833333D01*
X84002381Y-72642857D01*
X83954762Y-72547618D01*
X83859524Y-72499999D01*
X83811905Y-72499999D01*
X83716667Y-72547618D01*
X83669048Y-72642857D01*
X83669048Y-72785714D01*
X83621429Y-72880952D01*
X83526190Y-72928571D01*
X83478571Y-72928571D01*
X83383333Y-72880952D01*
X83335714Y-72785714D01*
X83335714Y-72642857D01*
X83383333Y-72547618D01*
X84097619Y-72309523D02*
X84097619Y-71547618D01*
X83097619Y-71357142D02*
X83050000Y-71309523D01*
X83002381Y-71214285D01*
X83002381Y-70976189D01*
X83050000Y-70880951D01*
X83097619Y-70833332D01*
X83192857Y-70785713D01*
X83288095Y-70785713D01*
X83430952Y-70833332D01*
X84002381Y-71404761D01*
X84002381Y-70785713D01*
X89356667Y-72452381D02*
X89356667Y-73166667D01*
X89309047Y-73309524D01*
X89213809Y-73404762D01*
X89070952Y-73452381D01*
X88975714Y-73452381D01*
X89880476Y-73452381D02*
X90070952Y-73452381D01*
X90166191Y-73404762D01*
X90213810Y-73357143D01*
X90309048Y-73214286D01*
X90356667Y-73023810D01*
X90356667Y-72642857D01*
X90309048Y-72547619D01*
X90261429Y-72500000D01*
X90166191Y-72452381D01*
X89975714Y-72452381D01*
X89880476Y-72500000D01*
X89832857Y-72547619D01*
X89785238Y-72642857D01*
X89785238Y-72880952D01*
X89832857Y-72976190D01*
X89880476Y-73023810D01*
X89975714Y-73071429D01*
X90166191Y-73071429D01*
X90261429Y-73023810D01*
X90309048Y-72976190D01*
X90356667Y-72880952D01*
X84002381Y-62523810D02*
X83954762Y-62619048D01*
X83859524Y-62666667D01*
X83002381Y-62666667D01*
X83954762Y-61761904D02*
X84002381Y-61857142D01*
X84002381Y-62047619D01*
X83954762Y-62142857D01*
X83859524Y-62190476D01*
X83478571Y-62190476D01*
X83383333Y-62142857D01*
X83335714Y-62047619D01*
X83335714Y-61857142D01*
X83383333Y-61761904D01*
X83478571Y-61714285D01*
X83573810Y-61714285D01*
X83669048Y-62190476D01*
X84002381Y-60857142D02*
X83002381Y-60857142D01*
X83954762Y-60857142D02*
X84002381Y-60952380D01*
X84002381Y-61142857D01*
X83954762Y-61238095D01*
X83907143Y-61285714D01*
X83811905Y-61333333D01*
X83526190Y-61333333D01*
X83430952Y-61285714D01*
X83383333Y-61238095D01*
X83335714Y-61142857D01*
X83335714Y-60952380D01*
X83383333Y-60857142D01*
X83954762Y-60428571D02*
X84002381Y-60333333D01*
X84002381Y-60142857D01*
X83954762Y-60047618D01*
X83859524Y-59999999D01*
X83811905Y-59999999D01*
X83716667Y-60047618D01*
X83669048Y-60142857D01*
X83669048Y-60285714D01*
X83621429Y-60380952D01*
X83526190Y-60428571D01*
X83478571Y-60428571D01*
X83383333Y-60380952D01*
X83335714Y-60285714D01*
X83335714Y-60142857D01*
X83383333Y-60047618D01*
X84097619Y-59809523D02*
X84097619Y-59047618D01*
X83097619Y-58857142D02*
X83050000Y-58809523D01*
X83002381Y-58714285D01*
X83002381Y-58476189D01*
X83050000Y-58380951D01*
X83097619Y-58333332D01*
X83192857Y-58285713D01*
X83288095Y-58285713D01*
X83430952Y-58333332D01*
X84002381Y-58904761D01*
X84002381Y-58285713D01*
X88880477Y-59952381D02*
X88880477Y-60666667D01*
X88832857Y-60809524D01*
X88737619Y-60904762D01*
X88594762Y-60952381D01*
X88499524Y-60952381D01*
X89880477Y-60952381D02*
X89309048Y-60952381D01*
X89594762Y-60952381D02*
X89594762Y-59952381D01*
X89499524Y-60095238D01*
X89404286Y-60190476D01*
X89309048Y-60238095D01*
X90499524Y-59952381D02*
X90594763Y-59952381D01*
X90690001Y-60000000D01*
X90737620Y-60047619D01*
X90785239Y-60142857D01*
X90832858Y-60333333D01*
X90832858Y-60571429D01*
X90785239Y-60761905D01*
X90737620Y-60857143D01*
X90690001Y-60904762D01*
X90594763Y-60952381D01*
X90499524Y-60952381D01*
X90404286Y-60904762D01*
X90356667Y-60857143D01*
X90309048Y-60761905D01*
X90261429Y-60571429D01*
X90261429Y-60333333D01*
X90309048Y-60142857D01*
X90356667Y-60047619D01*
X90404286Y-60000000D01*
X90499524Y-59952381D01*
X104002381Y-49119048D02*
X103954762Y-49214286D01*
X103859524Y-49261905D01*
X103002381Y-49261905D01*
X103954762Y-48357142D02*
X104002381Y-48452380D01*
X104002381Y-48642857D01*
X103954762Y-48738095D01*
X103859524Y-48785714D01*
X103478571Y-48785714D01*
X103383333Y-48738095D01*
X103335714Y-48642857D01*
X103335714Y-48452380D01*
X103383333Y-48357142D01*
X103478571Y-48309523D01*
X103573810Y-48309523D01*
X103669048Y-48785714D01*
X104002381Y-47452380D02*
X103002381Y-47452380D01*
X103954762Y-47452380D02*
X104002381Y-47547618D01*
X104002381Y-47738095D01*
X103954762Y-47833333D01*
X103907143Y-47880952D01*
X103811905Y-47928571D01*
X103526190Y-47928571D01*
X103430952Y-47880952D01*
X103383333Y-47833333D01*
X103335714Y-47738095D01*
X103335714Y-47547618D01*
X103383333Y-47452380D01*
X104097619Y-47214285D02*
X104097619Y-46452380D01*
X103002381Y-46309523D02*
X103002381Y-45690475D01*
X103383333Y-46023809D01*
X103383333Y-45880951D01*
X103430952Y-45785713D01*
X103478571Y-45738094D01*
X103573810Y-45690475D01*
X103811905Y-45690475D01*
X103907143Y-45738094D01*
X103954762Y-45785713D01*
X104002381Y-45880951D01*
X104002381Y-46166666D01*
X103954762Y-46261904D01*
X103907143Y-46309523D01*
X108880477Y-46952381D02*
X108880477Y-47666667D01*
X108832857Y-47809524D01*
X108737619Y-47904762D01*
X108594762Y-47952381D01*
X108499524Y-47952381D01*
X109880477Y-47952381D02*
X109309048Y-47952381D01*
X109594762Y-47952381D02*
X109594762Y-46952381D01*
X109499524Y-47095238D01*
X109404286Y-47190476D01*
X109309048Y-47238095D01*
X110832858Y-47952381D02*
X110261429Y-47952381D01*
X110547143Y-47952381D02*
X110547143Y-46952381D01*
X110451905Y-47095238D01*
X110356667Y-47190476D01*
X110261429Y-47238095D01*
X108810881Y-117014524D02*
X107810881Y-117014524D01*
X108191833Y-117014524D02*
X108144214Y-116919286D01*
X108144214Y-116728809D01*
X108191833Y-116633571D01*
X108239452Y-116585952D01*
X108334690Y-116538333D01*
X108620405Y-116538333D01*
X108715643Y-116585952D01*
X108763262Y-116633571D01*
X108810881Y-116728809D01*
X108810881Y-116919286D01*
X108763262Y-117014524D01*
X108144214Y-116252619D02*
X108144214Y-115871667D01*
X107810881Y-116109762D02*
X108668024Y-116109762D01*
X108763262Y-116062143D01*
X108810881Y-115966905D01*
X108810881Y-115871667D01*
X108144214Y-115538333D02*
X108810881Y-115538333D01*
X108239452Y-115538333D02*
X108191833Y-115490714D01*
X108144214Y-115395476D01*
X108144214Y-115252618D01*
X108191833Y-115157380D01*
X108287071Y-115109761D01*
X108810881Y-115109761D01*
X108906119Y-114871666D02*
X108906119Y-114109761D01*
X107810881Y-113966904D02*
X107810881Y-113347856D01*
X108191833Y-113681190D01*
X108191833Y-113538332D01*
X108239452Y-113443094D01*
X108287071Y-113395475D01*
X108382310Y-113347856D01*
X108620405Y-113347856D01*
X108715643Y-113395475D01*
X108763262Y-113443094D01*
X108810881Y-113538332D01*
X108810881Y-113824047D01*
X108763262Y-113919285D01*
X108715643Y-113966904D01*
X111148977Y-114657381D02*
X111148977Y-115371667D01*
X111101357Y-115514524D01*
X111006119Y-115609762D01*
X110863262Y-115657381D01*
X110768024Y-115657381D01*
X112148977Y-115657381D02*
X111577548Y-115657381D01*
X111863262Y-115657381D02*
X111863262Y-114657381D01*
X111768024Y-114800238D01*
X111672786Y-114895476D01*
X111577548Y-114943095D01*
X112529929Y-114752619D02*
X112577548Y-114705000D01*
X112672786Y-114657381D01*
X112910882Y-114657381D01*
X113006120Y-114705000D01*
X113053739Y-114752619D01*
X113101358Y-114847857D01*
X113101358Y-114943095D01*
X113053739Y-115085952D01*
X112482310Y-115657381D01*
X113101358Y-115657381D01*
X122002381Y-49523810D02*
X121954762Y-49619048D01*
X121859524Y-49666667D01*
X121002381Y-49666667D01*
X121954762Y-48761904D02*
X122002381Y-48857142D01*
X122002381Y-49047619D01*
X121954762Y-49142857D01*
X121859524Y-49190476D01*
X121478571Y-49190476D01*
X121383333Y-49142857D01*
X121335714Y-49047619D01*
X121335714Y-48857142D01*
X121383333Y-48761904D01*
X121478571Y-48714285D01*
X121573810Y-48714285D01*
X121669048Y-49190476D01*
X122002381Y-47857142D02*
X121002381Y-47857142D01*
X121954762Y-47857142D02*
X122002381Y-47952380D01*
X122002381Y-48142857D01*
X121954762Y-48238095D01*
X121907143Y-48285714D01*
X121811905Y-48333333D01*
X121526190Y-48333333D01*
X121430952Y-48285714D01*
X121383333Y-48238095D01*
X121335714Y-48142857D01*
X121335714Y-47952380D01*
X121383333Y-47857142D01*
X121954762Y-47428571D02*
X122002381Y-47333333D01*
X122002381Y-47142857D01*
X121954762Y-47047618D01*
X121859524Y-46999999D01*
X121811905Y-46999999D01*
X121716667Y-47047618D01*
X121669048Y-47142857D01*
X121669048Y-47285714D01*
X121621429Y-47380952D01*
X121526190Y-47428571D01*
X121478571Y-47428571D01*
X121383333Y-47380952D01*
X121335714Y-47285714D01*
X121335714Y-47142857D01*
X121383333Y-47047618D01*
X122097619Y-46809523D02*
X122097619Y-46047618D01*
X121335714Y-45380951D02*
X122002381Y-45380951D01*
X120954762Y-45619047D02*
X121669048Y-45857142D01*
X121669048Y-45238094D01*
X126880477Y-46952381D02*
X126880477Y-47666667D01*
X126832857Y-47809524D01*
X126737619Y-47904762D01*
X126594762Y-47952381D01*
X126499524Y-47952381D01*
X127880477Y-47952381D02*
X127309048Y-47952381D01*
X127594762Y-47952381D02*
X127594762Y-46952381D01*
X127499524Y-47095238D01*
X127404286Y-47190476D01*
X127309048Y-47238095D01*
X128213810Y-46952381D02*
X128832858Y-46952381D01*
X128499524Y-47333333D01*
X128642382Y-47333333D01*
X128737620Y-47380952D01*
X128785239Y-47428571D01*
X128832858Y-47523810D01*
X128832858Y-47761905D01*
X128785239Y-47857143D01*
X128737620Y-47904762D01*
X128642382Y-47952381D01*
X128356667Y-47952381D01*
X128261429Y-47904762D01*
X128213810Y-47857143D01*
X122002381Y-62523810D02*
X121954762Y-62619048D01*
X121859524Y-62666667D01*
X121002381Y-62666667D01*
X121954762Y-61761904D02*
X122002381Y-61857142D01*
X122002381Y-62047619D01*
X121954762Y-62142857D01*
X121859524Y-62190476D01*
X121478571Y-62190476D01*
X121383333Y-62142857D01*
X121335714Y-62047619D01*
X121335714Y-61857142D01*
X121383333Y-61761904D01*
X121478571Y-61714285D01*
X121573810Y-61714285D01*
X121669048Y-62190476D01*
X122002381Y-60857142D02*
X121002381Y-60857142D01*
X121954762Y-60857142D02*
X122002381Y-60952380D01*
X122002381Y-61142857D01*
X121954762Y-61238095D01*
X121907143Y-61285714D01*
X121811905Y-61333333D01*
X121526190Y-61333333D01*
X121430952Y-61285714D01*
X121383333Y-61238095D01*
X121335714Y-61142857D01*
X121335714Y-60952380D01*
X121383333Y-60857142D01*
X121954762Y-60428571D02*
X122002381Y-60333333D01*
X122002381Y-60142857D01*
X121954762Y-60047618D01*
X121859524Y-59999999D01*
X121811905Y-59999999D01*
X121716667Y-60047618D01*
X121669048Y-60142857D01*
X121669048Y-60285714D01*
X121621429Y-60380952D01*
X121526190Y-60428571D01*
X121478571Y-60428571D01*
X121383333Y-60380952D01*
X121335714Y-60285714D01*
X121335714Y-60142857D01*
X121383333Y-60047618D01*
X122097619Y-59809523D02*
X122097619Y-59047618D01*
X121335714Y-58380951D02*
X122002381Y-58380951D01*
X120954762Y-58619047D02*
X121669048Y-58857142D01*
X121669048Y-58238094D01*
X126880477Y-59952381D02*
X126880477Y-60666667D01*
X126832857Y-60809524D01*
X126737619Y-60904762D01*
X126594762Y-60952381D01*
X126499524Y-60952381D01*
X127880477Y-60952381D02*
X127309048Y-60952381D01*
X127594762Y-60952381D02*
X127594762Y-59952381D01*
X127499524Y-60095238D01*
X127404286Y-60190476D01*
X127309048Y-60238095D01*
X128737620Y-60285714D02*
X128737620Y-60952381D01*
X128499524Y-59904762D02*
X128261429Y-60619048D01*
X128880477Y-60619048D01*
X122002381Y-75523810D02*
X121954762Y-75619048D01*
X121859524Y-75666667D01*
X121002381Y-75666667D01*
X121954762Y-74761904D02*
X122002381Y-74857142D01*
X122002381Y-75047619D01*
X121954762Y-75142857D01*
X121859524Y-75190476D01*
X121478571Y-75190476D01*
X121383333Y-75142857D01*
X121335714Y-75047619D01*
X121335714Y-74857142D01*
X121383333Y-74761904D01*
X121478571Y-74714285D01*
X121573810Y-74714285D01*
X121669048Y-75190476D01*
X122002381Y-73857142D02*
X121002381Y-73857142D01*
X121954762Y-73857142D02*
X122002381Y-73952380D01*
X122002381Y-74142857D01*
X121954762Y-74238095D01*
X121907143Y-74285714D01*
X121811905Y-74333333D01*
X121526190Y-74333333D01*
X121430952Y-74285714D01*
X121383333Y-74238095D01*
X121335714Y-74142857D01*
X121335714Y-73952380D01*
X121383333Y-73857142D01*
X121954762Y-73428571D02*
X122002381Y-73333333D01*
X122002381Y-73142857D01*
X121954762Y-73047618D01*
X121859524Y-72999999D01*
X121811905Y-72999999D01*
X121716667Y-73047618D01*
X121669048Y-73142857D01*
X121669048Y-73285714D01*
X121621429Y-73380952D01*
X121526190Y-73428571D01*
X121478571Y-73428571D01*
X121383333Y-73380952D01*
X121335714Y-73285714D01*
X121335714Y-73142857D01*
X121383333Y-73047618D01*
X122097619Y-72809523D02*
X122097619Y-72047618D01*
X121335714Y-71380951D02*
X122002381Y-71380951D01*
X120954762Y-71619047D02*
X121669048Y-71857142D01*
X121669048Y-71238094D01*
X126880477Y-72952381D02*
X126880477Y-73666667D01*
X126832857Y-73809524D01*
X126737619Y-73904762D01*
X126594762Y-73952381D01*
X126499524Y-73952381D01*
X127880477Y-73952381D02*
X127309048Y-73952381D01*
X127594762Y-73952381D02*
X127594762Y-72952381D01*
X127499524Y-73095238D01*
X127404286Y-73190476D01*
X127309048Y-73238095D01*
X128785239Y-72952381D02*
X128309048Y-72952381D01*
X128261429Y-73428571D01*
X128309048Y-73380952D01*
X128404286Y-73333333D01*
X128642382Y-73333333D01*
X128737620Y-73380952D01*
X128785239Y-73428571D01*
X128832858Y-73523810D01*
X128832858Y-73761905D01*
X128785239Y-73857143D01*
X128737620Y-73904762D01*
X128642382Y-73952381D01*
X128404286Y-73952381D01*
X128309048Y-73904762D01*
X128261429Y-73857143D01*
X122002381Y-88523810D02*
X121954762Y-88619048D01*
X121859524Y-88666667D01*
X121002381Y-88666667D01*
X121954762Y-87761904D02*
X122002381Y-87857142D01*
X122002381Y-88047619D01*
X121954762Y-88142857D01*
X121859524Y-88190476D01*
X121478571Y-88190476D01*
X121383333Y-88142857D01*
X121335714Y-88047619D01*
X121335714Y-87857142D01*
X121383333Y-87761904D01*
X121478571Y-87714285D01*
X121573810Y-87714285D01*
X121669048Y-88190476D01*
X122002381Y-86857142D02*
X121002381Y-86857142D01*
X121954762Y-86857142D02*
X122002381Y-86952380D01*
X122002381Y-87142857D01*
X121954762Y-87238095D01*
X121907143Y-87285714D01*
X121811905Y-87333333D01*
X121526190Y-87333333D01*
X121430952Y-87285714D01*
X121383333Y-87238095D01*
X121335714Y-87142857D01*
X121335714Y-86952380D01*
X121383333Y-86857142D01*
X121954762Y-86428571D02*
X122002381Y-86333333D01*
X122002381Y-86142857D01*
X121954762Y-86047618D01*
X121859524Y-85999999D01*
X121811905Y-85999999D01*
X121716667Y-86047618D01*
X121669048Y-86142857D01*
X121669048Y-86285714D01*
X121621429Y-86380952D01*
X121526190Y-86428571D01*
X121478571Y-86428571D01*
X121383333Y-86380952D01*
X121335714Y-86285714D01*
X121335714Y-86142857D01*
X121383333Y-86047618D01*
X122097619Y-85809523D02*
X122097619Y-85047618D01*
X121335714Y-84380951D02*
X122002381Y-84380951D01*
X120954762Y-84619047D02*
X121669048Y-84857142D01*
X121669048Y-84238094D01*
X126880477Y-85952381D02*
X126880477Y-86666667D01*
X126832857Y-86809524D01*
X126737619Y-86904762D01*
X126594762Y-86952381D01*
X126499524Y-86952381D01*
X127880477Y-86952381D02*
X127309048Y-86952381D01*
X127594762Y-86952381D02*
X127594762Y-85952381D01*
X127499524Y-86095238D01*
X127404286Y-86190476D01*
X127309048Y-86238095D01*
X128737620Y-85952381D02*
X128547143Y-85952381D01*
X128451905Y-86000000D01*
X128404286Y-86047619D01*
X128309048Y-86190476D01*
X128261429Y-86380952D01*
X128261429Y-86761905D01*
X128309048Y-86857143D01*
X128356667Y-86904762D01*
X128451905Y-86952381D01*
X128642382Y-86952381D01*
X128737620Y-86904762D01*
X128785239Y-86857143D01*
X128832858Y-86761905D01*
X128832858Y-86523810D01*
X128785239Y-86428571D01*
X128737620Y-86380952D01*
X128642382Y-86333333D01*
X128451905Y-86333333D01*
X128356667Y-86380952D01*
X128309048Y-86428571D01*
X128261429Y-86523810D01*
X123034881Y-116824024D02*
X122034881Y-116824024D01*
X122415833Y-116824024D02*
X122368214Y-116728786D01*
X122368214Y-116538309D01*
X122415833Y-116443071D01*
X122463452Y-116395452D01*
X122558690Y-116347833D01*
X122844405Y-116347833D01*
X122939643Y-116395452D01*
X122987262Y-116443071D01*
X123034881Y-116538309D01*
X123034881Y-116728786D01*
X122987262Y-116824024D01*
X122368214Y-116062119D02*
X122368214Y-115681167D01*
X122034881Y-115919262D02*
X122892024Y-115919262D01*
X122987262Y-115871643D01*
X123034881Y-115776405D01*
X123034881Y-115681167D01*
X122368214Y-115347833D02*
X123034881Y-115347833D01*
X122463452Y-115347833D02*
X122415833Y-115300214D01*
X122368214Y-115204976D01*
X122368214Y-115062118D01*
X122415833Y-114966880D01*
X122511071Y-114919261D01*
X123034881Y-114919261D01*
X123130119Y-114681166D02*
X123130119Y-113919261D01*
X122368214Y-113252594D02*
X123034881Y-113252594D01*
X121987262Y-113490690D02*
X122701548Y-113728785D01*
X122701548Y-113109737D01*
X125372977Y-114466881D02*
X125372977Y-115181167D01*
X125325357Y-115324024D01*
X125230119Y-115419262D01*
X125087262Y-115466881D01*
X124992024Y-115466881D01*
X126372977Y-115466881D02*
X125801548Y-115466881D01*
X126087262Y-115466881D02*
X126087262Y-114466881D01*
X125992024Y-114609738D01*
X125896786Y-114704976D01*
X125801548Y-114752595D01*
X126706310Y-114466881D02*
X127372977Y-114466881D01*
X126944405Y-115466881D01*
X139002381Y-101523810D02*
X138954762Y-101619048D01*
X138859524Y-101666667D01*
X138002381Y-101666667D01*
X138954762Y-100761904D02*
X139002381Y-100857142D01*
X139002381Y-101047619D01*
X138954762Y-101142857D01*
X138859524Y-101190476D01*
X138478571Y-101190476D01*
X138383333Y-101142857D01*
X138335714Y-101047619D01*
X138335714Y-100857142D01*
X138383333Y-100761904D01*
X138478571Y-100714285D01*
X138573810Y-100714285D01*
X138669048Y-101190476D01*
X139002381Y-99857142D02*
X138002381Y-99857142D01*
X138954762Y-99857142D02*
X139002381Y-99952380D01*
X139002381Y-100142857D01*
X138954762Y-100238095D01*
X138907143Y-100285714D01*
X138811905Y-100333333D01*
X138526190Y-100333333D01*
X138430952Y-100285714D01*
X138383333Y-100238095D01*
X138335714Y-100142857D01*
X138335714Y-99952380D01*
X138383333Y-99857142D01*
X138954762Y-99428571D02*
X139002381Y-99333333D01*
X139002381Y-99142857D01*
X138954762Y-99047618D01*
X138859524Y-98999999D01*
X138811905Y-98999999D01*
X138716667Y-99047618D01*
X138669048Y-99142857D01*
X138669048Y-99285714D01*
X138621429Y-99380952D01*
X138526190Y-99428571D01*
X138478571Y-99428571D01*
X138383333Y-99380952D01*
X138335714Y-99285714D01*
X138335714Y-99142857D01*
X138383333Y-99047618D01*
X139097619Y-98809523D02*
X139097619Y-98047618D01*
X138002381Y-97333332D02*
X138002381Y-97809523D01*
X138478571Y-97857142D01*
X138430952Y-97809523D01*
X138383333Y-97714285D01*
X138383333Y-97476189D01*
X138430952Y-97380951D01*
X138478571Y-97333332D01*
X138573810Y-97285713D01*
X138811905Y-97285713D01*
X138907143Y-97333332D01*
X138954762Y-97380951D01*
X139002381Y-97476189D01*
X139002381Y-97714285D01*
X138954762Y-97809523D01*
X138907143Y-97857142D01*
X143880477Y-98952381D02*
X143880477Y-99666667D01*
X143832857Y-99809524D01*
X143737619Y-99904762D01*
X143594762Y-99952381D01*
X143499524Y-99952381D01*
X144880477Y-99952381D02*
X144309048Y-99952381D01*
X144594762Y-99952381D02*
X144594762Y-98952381D01*
X144499524Y-99095238D01*
X144404286Y-99190476D01*
X144309048Y-99238095D01*
X145451905Y-99380952D02*
X145356667Y-99333333D01*
X145309048Y-99285714D01*
X145261429Y-99190476D01*
X145261429Y-99142857D01*
X145309048Y-99047619D01*
X145356667Y-99000000D01*
X145451905Y-98952381D01*
X145642382Y-98952381D01*
X145737620Y-99000000D01*
X145785239Y-99047619D01*
X145832858Y-99142857D01*
X145832858Y-99190476D01*
X145785239Y-99285714D01*
X145737620Y-99333333D01*
X145642382Y-99380952D01*
X145451905Y-99380952D01*
X145356667Y-99428571D01*
X145309048Y-99476190D01*
X145261429Y-99571429D01*
X145261429Y-99761905D01*
X145309048Y-99857143D01*
X145356667Y-99904762D01*
X145451905Y-99952381D01*
X145642382Y-99952381D01*
X145737620Y-99904762D01*
X145785239Y-99857143D01*
X145832858Y-99761905D01*
X145832858Y-99571429D01*
X145785239Y-99476190D01*
X145737620Y-99428571D01*
X145642382Y-99380952D01*
X139002381Y-88523810D02*
X138954762Y-88619048D01*
X138859524Y-88666667D01*
X138002381Y-88666667D01*
X138954762Y-87761904D02*
X139002381Y-87857142D01*
X139002381Y-88047619D01*
X138954762Y-88142857D01*
X138859524Y-88190476D01*
X138478571Y-88190476D01*
X138383333Y-88142857D01*
X138335714Y-88047619D01*
X138335714Y-87857142D01*
X138383333Y-87761904D01*
X138478571Y-87714285D01*
X138573810Y-87714285D01*
X138669048Y-88190476D01*
X139002381Y-86857142D02*
X138002381Y-86857142D01*
X138954762Y-86857142D02*
X139002381Y-86952380D01*
X139002381Y-87142857D01*
X138954762Y-87238095D01*
X138907143Y-87285714D01*
X138811905Y-87333333D01*
X138526190Y-87333333D01*
X138430952Y-87285714D01*
X138383333Y-87238095D01*
X138335714Y-87142857D01*
X138335714Y-86952380D01*
X138383333Y-86857142D01*
X138954762Y-86428571D02*
X139002381Y-86333333D01*
X139002381Y-86142857D01*
X138954762Y-86047618D01*
X138859524Y-85999999D01*
X138811905Y-85999999D01*
X138716667Y-86047618D01*
X138669048Y-86142857D01*
X138669048Y-86285714D01*
X138621429Y-86380952D01*
X138526190Y-86428571D01*
X138478571Y-86428571D01*
X138383333Y-86380952D01*
X138335714Y-86285714D01*
X138335714Y-86142857D01*
X138383333Y-86047618D01*
X139097619Y-85809523D02*
X139097619Y-85047618D01*
X138002381Y-84333332D02*
X138002381Y-84809523D01*
X138478571Y-84857142D01*
X138430952Y-84809523D01*
X138383333Y-84714285D01*
X138383333Y-84476189D01*
X138430952Y-84380951D01*
X138478571Y-84333332D01*
X138573810Y-84285713D01*
X138811905Y-84285713D01*
X138907143Y-84333332D01*
X138954762Y-84380951D01*
X139002381Y-84476189D01*
X139002381Y-84714285D01*
X138954762Y-84809523D01*
X138907143Y-84857142D01*
X143880477Y-85952381D02*
X143880477Y-86666667D01*
X143832857Y-86809524D01*
X143737619Y-86904762D01*
X143594762Y-86952381D01*
X143499524Y-86952381D01*
X144880477Y-86952381D02*
X144309048Y-86952381D01*
X144594762Y-86952381D02*
X144594762Y-85952381D01*
X144499524Y-86095238D01*
X144404286Y-86190476D01*
X144309048Y-86238095D01*
X145356667Y-86952381D02*
X145547143Y-86952381D01*
X145642382Y-86904762D01*
X145690001Y-86857143D01*
X145785239Y-86714286D01*
X145832858Y-86523810D01*
X145832858Y-86142857D01*
X145785239Y-86047619D01*
X145737620Y-86000000D01*
X145642382Y-85952381D01*
X145451905Y-85952381D01*
X145356667Y-86000000D01*
X145309048Y-86047619D01*
X145261429Y-86142857D01*
X145261429Y-86380952D01*
X145309048Y-86476190D01*
X145356667Y-86523810D01*
X145451905Y-86571429D01*
X145642382Y-86571429D01*
X145737620Y-86523810D01*
X145785239Y-86476190D01*
X145832858Y-86380952D01*
X139002381Y-75523810D02*
X138954762Y-75619048D01*
X138859524Y-75666667D01*
X138002381Y-75666667D01*
X138954762Y-74761904D02*
X139002381Y-74857142D01*
X139002381Y-75047619D01*
X138954762Y-75142857D01*
X138859524Y-75190476D01*
X138478571Y-75190476D01*
X138383333Y-75142857D01*
X138335714Y-75047619D01*
X138335714Y-74857142D01*
X138383333Y-74761904D01*
X138478571Y-74714285D01*
X138573810Y-74714285D01*
X138669048Y-75190476D01*
X139002381Y-73857142D02*
X138002381Y-73857142D01*
X138954762Y-73857142D02*
X139002381Y-73952380D01*
X139002381Y-74142857D01*
X138954762Y-74238095D01*
X138907143Y-74285714D01*
X138811905Y-74333333D01*
X138526190Y-74333333D01*
X138430952Y-74285714D01*
X138383333Y-74238095D01*
X138335714Y-74142857D01*
X138335714Y-73952380D01*
X138383333Y-73857142D01*
X138954762Y-73428571D02*
X139002381Y-73333333D01*
X139002381Y-73142857D01*
X138954762Y-73047618D01*
X138859524Y-72999999D01*
X138811905Y-72999999D01*
X138716667Y-73047618D01*
X138669048Y-73142857D01*
X138669048Y-73285714D01*
X138621429Y-73380952D01*
X138526190Y-73428571D01*
X138478571Y-73428571D01*
X138383333Y-73380952D01*
X138335714Y-73285714D01*
X138335714Y-73142857D01*
X138383333Y-73047618D01*
X139097619Y-72809523D02*
X139097619Y-72047618D01*
X138002381Y-71333332D02*
X138002381Y-71809523D01*
X138478571Y-71857142D01*
X138430952Y-71809523D01*
X138383333Y-71714285D01*
X138383333Y-71476189D01*
X138430952Y-71380951D01*
X138478571Y-71333332D01*
X138573810Y-71285713D01*
X138811905Y-71285713D01*
X138907143Y-71333332D01*
X138954762Y-71380951D01*
X139002381Y-71476189D01*
X139002381Y-71714285D01*
X138954762Y-71809523D01*
X138907143Y-71857142D01*
X143880477Y-72952381D02*
X143880477Y-73666667D01*
X143832857Y-73809524D01*
X143737619Y-73904762D01*
X143594762Y-73952381D01*
X143499524Y-73952381D01*
X144309048Y-73047619D02*
X144356667Y-73000000D01*
X144451905Y-72952381D01*
X144690001Y-72952381D01*
X144785239Y-73000000D01*
X144832858Y-73047619D01*
X144880477Y-73142857D01*
X144880477Y-73238095D01*
X144832858Y-73380952D01*
X144261429Y-73952381D01*
X144880477Y-73952381D01*
X145499524Y-72952381D02*
X145594763Y-72952381D01*
X145690001Y-73000000D01*
X145737620Y-73047619D01*
X145785239Y-73142857D01*
X145832858Y-73333333D01*
X145832858Y-73571429D01*
X145785239Y-73761905D01*
X145737620Y-73857143D01*
X145690001Y-73904762D01*
X145594763Y-73952381D01*
X145499524Y-73952381D01*
X145404286Y-73904762D01*
X145356667Y-73857143D01*
X145309048Y-73761905D01*
X145261429Y-73571429D01*
X145261429Y-73333333D01*
X145309048Y-73142857D01*
X145356667Y-73047619D01*
X145404286Y-73000000D01*
X145499524Y-72952381D01*
X139002381Y-62023810D02*
X138954762Y-62119048D01*
X138859524Y-62166667D01*
X138002381Y-62166667D01*
X138954762Y-61261904D02*
X139002381Y-61357142D01*
X139002381Y-61547619D01*
X138954762Y-61642857D01*
X138859524Y-61690476D01*
X138478571Y-61690476D01*
X138383333Y-61642857D01*
X138335714Y-61547619D01*
X138335714Y-61357142D01*
X138383333Y-61261904D01*
X138478571Y-61214285D01*
X138573810Y-61214285D01*
X138669048Y-61690476D01*
X139002381Y-60357142D02*
X138002381Y-60357142D01*
X138954762Y-60357142D02*
X139002381Y-60452380D01*
X139002381Y-60642857D01*
X138954762Y-60738095D01*
X138907143Y-60785714D01*
X138811905Y-60833333D01*
X138526190Y-60833333D01*
X138430952Y-60785714D01*
X138383333Y-60738095D01*
X138335714Y-60642857D01*
X138335714Y-60452380D01*
X138383333Y-60357142D01*
X138954762Y-59928571D02*
X139002381Y-59833333D01*
X139002381Y-59642857D01*
X138954762Y-59547618D01*
X138859524Y-59499999D01*
X138811905Y-59499999D01*
X138716667Y-59547618D01*
X138669048Y-59642857D01*
X138669048Y-59785714D01*
X138621429Y-59880952D01*
X138526190Y-59928571D01*
X138478571Y-59928571D01*
X138383333Y-59880952D01*
X138335714Y-59785714D01*
X138335714Y-59642857D01*
X138383333Y-59547618D01*
X139097619Y-59309523D02*
X139097619Y-58547618D01*
X138002381Y-57833332D02*
X138002381Y-58309523D01*
X138478571Y-58357142D01*
X138430952Y-58309523D01*
X138383333Y-58214285D01*
X138383333Y-57976189D01*
X138430952Y-57880951D01*
X138478571Y-57833332D01*
X138573810Y-57785713D01*
X138811905Y-57785713D01*
X138907143Y-57833332D01*
X138954762Y-57880951D01*
X139002381Y-57976189D01*
X139002381Y-58214285D01*
X138954762Y-58309523D01*
X138907143Y-58357142D01*
X143880477Y-59452381D02*
X143880477Y-60166667D01*
X143832857Y-60309524D01*
X143737619Y-60404762D01*
X143594762Y-60452381D01*
X143499524Y-60452381D01*
X144309048Y-59547619D02*
X144356667Y-59500000D01*
X144451905Y-59452381D01*
X144690001Y-59452381D01*
X144785239Y-59500000D01*
X144832858Y-59547619D01*
X144880477Y-59642857D01*
X144880477Y-59738095D01*
X144832858Y-59880952D01*
X144261429Y-60452381D01*
X144880477Y-60452381D01*
X145832858Y-60452381D02*
X145261429Y-60452381D01*
X145547143Y-60452381D02*
X145547143Y-59452381D01*
X145451905Y-59595238D01*
X145356667Y-59690476D01*
X145261429Y-59738095D01*
X136242881Y-116824024D02*
X135242881Y-116824024D01*
X135623833Y-116824024D02*
X135576214Y-116728786D01*
X135576214Y-116538309D01*
X135623833Y-116443071D01*
X135671452Y-116395452D01*
X135766690Y-116347833D01*
X136052405Y-116347833D01*
X136147643Y-116395452D01*
X136195262Y-116443071D01*
X136242881Y-116538309D01*
X136242881Y-116728786D01*
X136195262Y-116824024D01*
X135576214Y-116062119D02*
X135576214Y-115681167D01*
X135242881Y-115919262D02*
X136100024Y-115919262D01*
X136195262Y-115871643D01*
X136242881Y-115776405D01*
X136242881Y-115681167D01*
X135576214Y-115347833D02*
X136242881Y-115347833D01*
X135671452Y-115347833D02*
X135623833Y-115300214D01*
X135576214Y-115204976D01*
X135576214Y-115062118D01*
X135623833Y-114966880D01*
X135719071Y-114919261D01*
X136242881Y-114919261D01*
X136338119Y-114681166D02*
X136338119Y-113919261D01*
X135242881Y-113204975D02*
X135242881Y-113681166D01*
X135719071Y-113728785D01*
X135671452Y-113681166D01*
X135623833Y-113585928D01*
X135623833Y-113347832D01*
X135671452Y-113252594D01*
X135719071Y-113204975D01*
X135814310Y-113157356D01*
X136052405Y-113157356D01*
X136147643Y-113204975D01*
X136195262Y-113252594D01*
X136242881Y-113347832D01*
X136242881Y-113585928D01*
X136195262Y-113681166D01*
X136147643Y-113728785D01*
X138580977Y-114466881D02*
X138580977Y-115181167D01*
X138533357Y-115324024D01*
X138438119Y-115419262D01*
X138295262Y-115466881D01*
X138200024Y-115466881D01*
X139009548Y-114562119D02*
X139057167Y-114514500D01*
X139152405Y-114466881D01*
X139390501Y-114466881D01*
X139485739Y-114514500D01*
X139533358Y-114562119D01*
X139580977Y-114657357D01*
X139580977Y-114752595D01*
X139533358Y-114895452D01*
X138961929Y-115466881D01*
X139580977Y-115466881D01*
X139961929Y-114562119D02*
X140009548Y-114514500D01*
X140104786Y-114466881D01*
X140342882Y-114466881D01*
X140438120Y-114514500D01*
X140485739Y-114562119D01*
X140533358Y-114657357D01*
X140533358Y-114752595D01*
X140485739Y-114895452D01*
X139914310Y-115466881D01*
X140533358Y-115466881D01*
X73464381Y-111673143D02*
X72464381Y-111673143D01*
X72464381Y-111292190D01*
X72512000Y-111196952D01*
X72559619Y-111149333D01*
X72654857Y-111101714D01*
X72797714Y-111101714D01*
X72892952Y-111149333D01*
X72940571Y-111196952D01*
X72988190Y-111292190D01*
X72988190Y-111673143D01*
X73464381Y-110530286D02*
X73416762Y-110625524D01*
X73369143Y-110673143D01*
X73273905Y-110720762D01*
X72988190Y-110720762D01*
X72892952Y-110673143D01*
X72845333Y-110625524D01*
X72797714Y-110530286D01*
X72797714Y-110387428D01*
X72845333Y-110292190D01*
X72892952Y-110244571D01*
X72988190Y-110196952D01*
X73273905Y-110196952D01*
X73369143Y-110244571D01*
X73416762Y-110292190D01*
X73464381Y-110387428D01*
X73464381Y-110530286D01*
X72797714Y-109911238D02*
X72797714Y-109530286D01*
X72464381Y-109768381D02*
X73321524Y-109768381D01*
X73416762Y-109720762D01*
X73464381Y-109625524D01*
X73464381Y-109530286D01*
X73559619Y-109435047D02*
X73559619Y-108673142D01*
X73464381Y-107911237D02*
X73464381Y-108482666D01*
X73464381Y-108196952D02*
X72464381Y-108196952D01*
X72607238Y-108292190D01*
X72702476Y-108387428D01*
X72750095Y-108482666D01*
X67332477Y-109268381D02*
X67332477Y-109982667D01*
X67284857Y-110125524D01*
X67189619Y-110220762D01*
X67046762Y-110268381D01*
X66951524Y-110268381D01*
X67761048Y-109363619D02*
X67808667Y-109316000D01*
X67903905Y-109268381D01*
X68142001Y-109268381D01*
X68237239Y-109316000D01*
X68284858Y-109363619D01*
X68332477Y-109458857D01*
X68332477Y-109554095D01*
X68284858Y-109696952D01*
X67713429Y-110268381D01*
X68332477Y-110268381D01*
X68665810Y-109268381D02*
X69284858Y-109268381D01*
X68951524Y-109649333D01*
X69094382Y-109649333D01*
X69189620Y-109696952D01*
X69237239Y-109744571D01*
X69284858Y-109839810D01*
X69284858Y-110077905D01*
X69237239Y-110173143D01*
X69189620Y-110220762D01*
X69094382Y-110268381D01*
X68808667Y-110268381D01*
X68713429Y-110220762D01*
X68665810Y-110173143D01*
X73718381Y-122763143D02*
X72718381Y-122763143D01*
X72718381Y-122382190D01*
X72766000Y-122286952D01*
X72813619Y-122239333D01*
X72908857Y-122191714D01*
X73051714Y-122191714D01*
X73146952Y-122239333D01*
X73194571Y-122286952D01*
X73242190Y-122382190D01*
X73242190Y-122763143D01*
X73718381Y-121620286D02*
X73670762Y-121715524D01*
X73623143Y-121763143D01*
X73527905Y-121810762D01*
X73242190Y-121810762D01*
X73146952Y-121763143D01*
X73099333Y-121715524D01*
X73051714Y-121620286D01*
X73051714Y-121477428D01*
X73099333Y-121382190D01*
X73146952Y-121334571D01*
X73242190Y-121286952D01*
X73527905Y-121286952D01*
X73623143Y-121334571D01*
X73670762Y-121382190D01*
X73718381Y-121477428D01*
X73718381Y-121620286D01*
X73051714Y-121001238D02*
X73051714Y-120620286D01*
X72718381Y-120858381D02*
X73575524Y-120858381D01*
X73670762Y-120810762D01*
X73718381Y-120715524D01*
X73718381Y-120620286D01*
X73813619Y-120525047D02*
X73813619Y-119763142D01*
X72813619Y-119572666D02*
X72766000Y-119525047D01*
X72718381Y-119429809D01*
X72718381Y-119191713D01*
X72766000Y-119096475D01*
X72813619Y-119048856D01*
X72908857Y-119001237D01*
X73004095Y-119001237D01*
X73146952Y-119048856D01*
X73718381Y-119620285D01*
X73718381Y-119001237D01*
X67586477Y-120358381D02*
X67586477Y-121072667D01*
X67538857Y-121215524D01*
X67443619Y-121310762D01*
X67300762Y-121358381D01*
X67205524Y-121358381D01*
X68015048Y-120453619D02*
X68062667Y-120406000D01*
X68157905Y-120358381D01*
X68396001Y-120358381D01*
X68491239Y-120406000D01*
X68538858Y-120453619D01*
X68586477Y-120548857D01*
X68586477Y-120644095D01*
X68538858Y-120786952D01*
X67967429Y-121358381D01*
X68586477Y-121358381D01*
X69443620Y-120691714D02*
X69443620Y-121358381D01*
X69205524Y-120310762D02*
X68967429Y-121025048D01*
X69586477Y-121025048D01*
X153867761Y-84817381D02*
X153867761Y-84150714D01*
X153867761Y-84245952D02*
X153915380Y-84198333D01*
X154010618Y-84150714D01*
X154153476Y-84150714D01*
X154248714Y-84198333D01*
X154296333Y-84293571D01*
X154296333Y-84817381D01*
X154296333Y-84293571D02*
X154343952Y-84198333D01*
X154439190Y-84150714D01*
X154582047Y-84150714D01*
X154677285Y-84198333D01*
X154724904Y-84293571D01*
X154724904Y-84817381D01*
X155629666Y-84817381D02*
X155629666Y-84293571D01*
X155582047Y-84198333D01*
X155486809Y-84150714D01*
X155296332Y-84150714D01*
X155201094Y-84198333D01*
X155629666Y-84769762D02*
X155534428Y-84817381D01*
X155296332Y-84817381D01*
X155201094Y-84769762D01*
X155153475Y-84674524D01*
X155153475Y-84579286D01*
X155201094Y-84484048D01*
X155296332Y-84436429D01*
X155534428Y-84436429D01*
X155629666Y-84388810D01*
X156105856Y-84817381D02*
X156105856Y-84150714D01*
X156105856Y-83817381D02*
X156058237Y-83865000D01*
X156105856Y-83912619D01*
X156153475Y-83865000D01*
X156105856Y-83817381D01*
X156105856Y-83912619D01*
X156582046Y-84150714D02*
X156582046Y-84817381D01*
X156582046Y-84245952D02*
X156629665Y-84198333D01*
X156724903Y-84150714D01*
X156867761Y-84150714D01*
X156962999Y-84198333D01*
X157010618Y-84293571D01*
X157010618Y-84817381D01*
X157248713Y-84912619D02*
X158010618Y-84912619D01*
X158677285Y-84769762D02*
X158582047Y-84817381D01*
X158391570Y-84817381D01*
X158296332Y-84769762D01*
X158248713Y-84722143D01*
X158201094Y-84626905D01*
X158201094Y-84341190D01*
X158248713Y-84245952D01*
X158296332Y-84198333D01*
X158391570Y-84150714D01*
X158582047Y-84150714D01*
X158677285Y-84198333D01*
X159248713Y-84817381D02*
X159153475Y-84769762D01*
X159105856Y-84722143D01*
X159058237Y-84626905D01*
X159058237Y-84341190D01*
X159105856Y-84245952D01*
X159153475Y-84198333D01*
X159248713Y-84150714D01*
X159391571Y-84150714D01*
X159486809Y-84198333D01*
X159534428Y-84245952D01*
X159582047Y-84341190D01*
X159582047Y-84626905D01*
X159534428Y-84722143D01*
X159486809Y-84769762D01*
X159391571Y-84817381D01*
X159248713Y-84817381D01*
X160010618Y-84150714D02*
X160010618Y-84817381D01*
X160010618Y-84245952D02*
X160058237Y-84198333D01*
X160153475Y-84150714D01*
X160296333Y-84150714D01*
X160391571Y-84198333D01*
X160439190Y-84293571D01*
X160439190Y-84817381D01*
X160772523Y-84150714D02*
X161153475Y-84150714D01*
X160915380Y-83817381D02*
X160915380Y-84674524D01*
X160962999Y-84769762D01*
X161058237Y-84817381D01*
X161153475Y-84817381D01*
X161486809Y-84817381D02*
X161486809Y-84150714D01*
X161486809Y-84341190D02*
X161534428Y-84245952D01*
X161582047Y-84198333D01*
X161677285Y-84150714D01*
X161772524Y-84150714D01*
X162248714Y-84817381D02*
X162153476Y-84769762D01*
X162105857Y-84722143D01*
X162058238Y-84626905D01*
X162058238Y-84341190D01*
X162105857Y-84245952D01*
X162153476Y-84198333D01*
X162248714Y-84150714D01*
X162391572Y-84150714D01*
X162486810Y-84198333D01*
X162534429Y-84245952D01*
X162582048Y-84341190D01*
X162582048Y-84626905D01*
X162534429Y-84722143D01*
X162486810Y-84769762D01*
X162391572Y-84817381D01*
X162248714Y-84817381D01*
X163153476Y-84817381D02*
X163058238Y-84769762D01*
X163010619Y-84674524D01*
X163010619Y-83817381D01*
X163677286Y-84817381D02*
X163582048Y-84769762D01*
X163534429Y-84674524D01*
X163534429Y-83817381D01*
X164439192Y-84769762D02*
X164343954Y-84817381D01*
X164153477Y-84817381D01*
X164058239Y-84769762D01*
X164010620Y-84674524D01*
X164010620Y-84293571D01*
X164058239Y-84198333D01*
X164153477Y-84150714D01*
X164343954Y-84150714D01*
X164439192Y-84198333D01*
X164486811Y-84293571D01*
X164486811Y-84388810D01*
X164010620Y-84484048D01*
X164915382Y-84817381D02*
X164915382Y-84150714D01*
X164915382Y-84341190D02*
X164963001Y-84245952D01*
X165010620Y-84198333D01*
X165105858Y-84150714D01*
X165201097Y-84150714D01*
X158915381Y-100204523D02*
X159629667Y-100204523D01*
X159772524Y-100252143D01*
X159867762Y-100347381D01*
X159915381Y-100490238D01*
X159915381Y-100585476D01*
X159010619Y-99775952D02*
X158963000Y-99728333D01*
X158915381Y-99633095D01*
X158915381Y-99394999D01*
X158963000Y-99299761D01*
X159010619Y-99252142D01*
X159105857Y-99204523D01*
X159201095Y-99204523D01*
X159343952Y-99252142D01*
X159915381Y-99823571D01*
X159915381Y-99204523D01*
X158915381Y-98347380D02*
X158915381Y-98537857D01*
X158963000Y-98633095D01*
X159010619Y-98680714D01*
X159153476Y-98775952D01*
X159343952Y-98823571D01*
X159724905Y-98823571D01*
X159820143Y-98775952D01*
X159867762Y-98728333D01*
X159915381Y-98633095D01*
X159915381Y-98442618D01*
X159867762Y-98347380D01*
X159820143Y-98299761D01*
X159724905Y-98252142D01*
X159486810Y-98252142D01*
X159391571Y-98299761D01*
X159343952Y-98347380D01*
X159296333Y-98442618D01*
X159296333Y-98633095D01*
X159343952Y-98728333D01*
X159391571Y-98775952D01*
X159486810Y-98823571D01*
X82693024Y-108700381D02*
X82121595Y-108700381D01*
X82407309Y-108700381D02*
X82407309Y-107700381D01*
X82312071Y-107843238D01*
X82216833Y-107938476D01*
X82121595Y-107986095D01*
X83312071Y-107700381D02*
X83407310Y-107700381D01*
X83502548Y-107748000D01*
X83550167Y-107795619D01*
X83597786Y-107890857D01*
X83645405Y-108081333D01*
X83645405Y-108319429D01*
X83597786Y-108509905D01*
X83550167Y-108605143D01*
X83502548Y-108652762D01*
X83407310Y-108700381D01*
X83312071Y-108700381D01*
X83216833Y-108652762D01*
X83169214Y-108605143D01*
X83121595Y-108509905D01*
X83073976Y-108319429D01*
X83073976Y-108081333D01*
X83121595Y-107890857D01*
X83169214Y-107795619D01*
X83216833Y-107748000D01*
X83312071Y-107700381D01*
X84073976Y-108700381D02*
X84073976Y-107700381D01*
X84645405Y-108700381D02*
X84216833Y-108128952D01*
X84645405Y-107700381D02*
X84073976Y-108271810D01*
D12*
X83300167Y-110224190D02*
X83133500Y-109986095D01*
X83014453Y-110224190D02*
X83014453Y-109724190D01*
X83204929Y-109724190D01*
X83252548Y-109748000D01*
X83276357Y-109771810D01*
X83300167Y-109819429D01*
X83300167Y-109890857D01*
X83276357Y-109938476D01*
X83252548Y-109962286D01*
X83204929Y-109986095D01*
X83014453Y-109986095D01*
X83776357Y-110224190D02*
X83490643Y-110224190D01*
X83633500Y-110224190D02*
X83633500Y-109724190D01*
X83585881Y-109795619D01*
X83538262Y-109843238D01*
X83490643Y-109867048D01*
D11*
X86601881Y-123451285D02*
X86601881Y-124022714D01*
X86601881Y-123737000D02*
X85601881Y-123737000D01*
X85744738Y-123832238D01*
X85839976Y-123927476D01*
X85887595Y-124022714D01*
X86601881Y-123022714D02*
X85601881Y-123022714D01*
X86601881Y-122451285D02*
X86030452Y-122879857D01*
X85601881Y-122451285D02*
X86173310Y-123022714D01*
D12*
X84625690Y-123320333D02*
X84387595Y-123487000D01*
X84625690Y-123606047D02*
X84125690Y-123606047D01*
X84125690Y-123415571D01*
X84149500Y-123367952D01*
X84173310Y-123344143D01*
X84220929Y-123320333D01*
X84292357Y-123320333D01*
X84339976Y-123344143D01*
X84363786Y-123367952D01*
X84387595Y-123415571D01*
X84387595Y-123606047D01*
X84173310Y-123129857D02*
X84149500Y-123106047D01*
X84125690Y-123058428D01*
X84125690Y-122939381D01*
X84149500Y-122891762D01*
X84173310Y-122867952D01*
X84220929Y-122844143D01*
X84268548Y-122844143D01*
X84339976Y-122867952D01*
X84625690Y-123153666D01*
X84625690Y-122844143D01*
D11*
X96155024Y-109017881D02*
X95583595Y-109017881D01*
X95869309Y-109017881D02*
X95869309Y-108017881D01*
X95774071Y-108160738D01*
X95678833Y-108255976D01*
X95583595Y-108303595D01*
X96774071Y-108017881D02*
X96869310Y-108017881D01*
X96964548Y-108065500D01*
X97012167Y-108113119D01*
X97059786Y-108208357D01*
X97107405Y-108398833D01*
X97107405Y-108636929D01*
X97059786Y-108827405D01*
X97012167Y-108922643D01*
X96964548Y-108970262D01*
X96869310Y-109017881D01*
X96774071Y-109017881D01*
X96678833Y-108970262D01*
X96631214Y-108922643D01*
X96583595Y-108827405D01*
X96535976Y-108636929D01*
X96535976Y-108398833D01*
X96583595Y-108208357D01*
X96631214Y-108113119D01*
X96678833Y-108065500D01*
X96774071Y-108017881D01*
X97535976Y-109017881D02*
X97535976Y-108017881D01*
X98107405Y-109017881D02*
X97678833Y-108446452D01*
X98107405Y-108017881D02*
X97535976Y-108589310D01*
D12*
X96762167Y-110541690D02*
X96595500Y-110303595D01*
X96476453Y-110541690D02*
X96476453Y-110041690D01*
X96666929Y-110041690D01*
X96714548Y-110065500D01*
X96738357Y-110089310D01*
X96762167Y-110136929D01*
X96762167Y-110208357D01*
X96738357Y-110255976D01*
X96714548Y-110279786D01*
X96666929Y-110303595D01*
X96476453Y-110303595D01*
X96928834Y-110041690D02*
X97238357Y-110041690D01*
X97071691Y-110232167D01*
X97143119Y-110232167D01*
X97190738Y-110255976D01*
X97214548Y-110279786D01*
X97238357Y-110327405D01*
X97238357Y-110446452D01*
X97214548Y-110494071D01*
X97190738Y-110517881D01*
X97143119Y-110541690D01*
X97000262Y-110541690D01*
X96952643Y-110517881D01*
X96928834Y-110494071D01*
D11*
X99444381Y-123197285D02*
X99444381Y-123768714D01*
X99444381Y-123483000D02*
X98444381Y-123483000D01*
X98587238Y-123578238D01*
X98682476Y-123673476D01*
X98730095Y-123768714D01*
X99444381Y-122768714D02*
X98444381Y-122768714D01*
X99444381Y-122197285D02*
X98872952Y-122625857D01*
X98444381Y-122197285D02*
X99015810Y-122768714D01*
D12*
X97468190Y-123066333D02*
X97230095Y-123233000D01*
X97468190Y-123352047D02*
X96968190Y-123352047D01*
X96968190Y-123161571D01*
X96992000Y-123113952D01*
X97015810Y-123090143D01*
X97063429Y-123066333D01*
X97134857Y-123066333D01*
X97182476Y-123090143D01*
X97206286Y-123113952D01*
X97230095Y-123161571D01*
X97230095Y-123352047D01*
X97134857Y-122637762D02*
X97468190Y-122637762D01*
X96944381Y-122756809D02*
X97301524Y-122875857D01*
X97301524Y-122566333D01*
D11*
X108664524Y-108763881D02*
X108093095Y-108763881D01*
X108378809Y-108763881D02*
X108378809Y-107763881D01*
X108283571Y-107906738D01*
X108188333Y-108001976D01*
X108093095Y-108049595D01*
X109283571Y-107763881D02*
X109378810Y-107763881D01*
X109474048Y-107811500D01*
X109521667Y-107859119D01*
X109569286Y-107954357D01*
X109616905Y-108144833D01*
X109616905Y-108382929D01*
X109569286Y-108573405D01*
X109521667Y-108668643D01*
X109474048Y-108716262D01*
X109378810Y-108763881D01*
X109283571Y-108763881D01*
X109188333Y-108716262D01*
X109140714Y-108668643D01*
X109093095Y-108573405D01*
X109045476Y-108382929D01*
X109045476Y-108144833D01*
X109093095Y-107954357D01*
X109140714Y-107859119D01*
X109188333Y-107811500D01*
X109283571Y-107763881D01*
X110045476Y-108763881D02*
X110045476Y-107763881D01*
X110616905Y-108763881D02*
X110188333Y-108192452D01*
X110616905Y-107763881D02*
X110045476Y-108335310D01*
D12*
X109271667Y-110287690D02*
X109105000Y-110049595D01*
X108985953Y-110287690D02*
X108985953Y-109787690D01*
X109176429Y-109787690D01*
X109224048Y-109811500D01*
X109247857Y-109835310D01*
X109271667Y-109882929D01*
X109271667Y-109954357D01*
X109247857Y-110001976D01*
X109224048Y-110025786D01*
X109176429Y-110049595D01*
X108985953Y-110049595D01*
X109724048Y-109787690D02*
X109485953Y-109787690D01*
X109462143Y-110025786D01*
X109485953Y-110001976D01*
X109533572Y-109978167D01*
X109652619Y-109978167D01*
X109700238Y-110001976D01*
X109724048Y-110025786D01*
X109747857Y-110073405D01*
X109747857Y-110192452D01*
X109724048Y-110240071D01*
X109700238Y-110263881D01*
X109652619Y-110287690D01*
X109533572Y-110287690D01*
X109485953Y-110263881D01*
X109462143Y-110240071D01*
D11*
X111318381Y-123244785D02*
X111318381Y-123816214D01*
X111318381Y-123530500D02*
X110318381Y-123530500D01*
X110461238Y-123625738D01*
X110556476Y-123720976D01*
X110604095Y-123816214D01*
X111318381Y-122816214D02*
X110318381Y-122816214D01*
X111318381Y-122244785D02*
X110746952Y-122673357D01*
X110318381Y-122244785D02*
X110889810Y-122816214D01*
D12*
X109342190Y-123113833D02*
X109104095Y-123280500D01*
X109342190Y-123399547D02*
X108842190Y-123399547D01*
X108842190Y-123209071D01*
X108866000Y-123161452D01*
X108889810Y-123137643D01*
X108937429Y-123113833D01*
X109008857Y-123113833D01*
X109056476Y-123137643D01*
X109080286Y-123161452D01*
X109104095Y-123209071D01*
X109104095Y-123399547D01*
X108842190Y-122685262D02*
X108842190Y-122780500D01*
X108866000Y-122828119D01*
X108889810Y-122851928D01*
X108961238Y-122899547D01*
X109056476Y-122923357D01*
X109246952Y-122923357D01*
X109294571Y-122899547D01*
X109318381Y-122875738D01*
X109342190Y-122828119D01*
X109342190Y-122732881D01*
X109318381Y-122685262D01*
X109294571Y-122661452D01*
X109246952Y-122637643D01*
X109127905Y-122637643D01*
X109080286Y-122661452D01*
X109056476Y-122685262D01*
X109032667Y-122732881D01*
X109032667Y-122828119D01*
X109056476Y-122875738D01*
X109080286Y-122899547D01*
X109127905Y-122923357D01*
D11*
X123269524Y-109271881D02*
X122698095Y-109271881D01*
X122983809Y-109271881D02*
X122983809Y-108271881D01*
X122888571Y-108414738D01*
X122793333Y-108509976D01*
X122698095Y-108557595D01*
X123888571Y-108271881D02*
X123983810Y-108271881D01*
X124079048Y-108319500D01*
X124126667Y-108367119D01*
X124174286Y-108462357D01*
X124221905Y-108652833D01*
X124221905Y-108890929D01*
X124174286Y-109081405D01*
X124126667Y-109176643D01*
X124079048Y-109224262D01*
X123983810Y-109271881D01*
X123888571Y-109271881D01*
X123793333Y-109224262D01*
X123745714Y-109176643D01*
X123698095Y-109081405D01*
X123650476Y-108890929D01*
X123650476Y-108652833D01*
X123698095Y-108462357D01*
X123745714Y-108367119D01*
X123793333Y-108319500D01*
X123888571Y-108271881D01*
X124650476Y-109271881D02*
X124650476Y-108271881D01*
X125221905Y-109271881D02*
X124793333Y-108700452D01*
X125221905Y-108271881D02*
X124650476Y-108843310D01*
D12*
X123876667Y-110795690D02*
X123710000Y-110557595D01*
X123590953Y-110795690D02*
X123590953Y-110295690D01*
X123781429Y-110295690D01*
X123829048Y-110319500D01*
X123852857Y-110343310D01*
X123876667Y-110390929D01*
X123876667Y-110462357D01*
X123852857Y-110509976D01*
X123829048Y-110533786D01*
X123781429Y-110557595D01*
X123590953Y-110557595D01*
X124043334Y-110295690D02*
X124376667Y-110295690D01*
X124162381Y-110795690D01*
D11*
X128145881Y-121816285D02*
X128145881Y-122387714D01*
X128145881Y-122102000D02*
X127145881Y-122102000D01*
X127288738Y-122197238D01*
X127383976Y-122292476D01*
X127431595Y-122387714D01*
X128145881Y-121387714D02*
X127145881Y-121387714D01*
X128145881Y-120816285D02*
X127574452Y-121244857D01*
X127145881Y-120816285D02*
X127717310Y-121387714D01*
D12*
X126169690Y-121685333D02*
X125931595Y-121852000D01*
X126169690Y-121971047D02*
X125669690Y-121971047D01*
X125669690Y-121780571D01*
X125693500Y-121732952D01*
X125717310Y-121709143D01*
X125764929Y-121685333D01*
X125836357Y-121685333D01*
X125883976Y-121709143D01*
X125907786Y-121732952D01*
X125931595Y-121780571D01*
X125931595Y-121971047D01*
X125883976Y-121399619D02*
X125860167Y-121447238D01*
X125836357Y-121471047D01*
X125788738Y-121494857D01*
X125764929Y-121494857D01*
X125717310Y-121471047D01*
X125693500Y-121447238D01*
X125669690Y-121399619D01*
X125669690Y-121304381D01*
X125693500Y-121256762D01*
X125717310Y-121232952D01*
X125764929Y-121209143D01*
X125788738Y-121209143D01*
X125836357Y-121232952D01*
X125860167Y-121256762D01*
X125883976Y-121304381D01*
X125883976Y-121399619D01*
X125907786Y-121447238D01*
X125931595Y-121471047D01*
X125979214Y-121494857D01*
X126074452Y-121494857D01*
X126122071Y-121471047D01*
X126145881Y-121447238D01*
X126169690Y-121399619D01*
X126169690Y-121304381D01*
X126145881Y-121256762D01*
X126122071Y-121232952D01*
X126074452Y-121209143D01*
X125979214Y-121209143D01*
X125931595Y-121232952D01*
X125907786Y-121256762D01*
X125883976Y-121304381D01*
D11*
X135652024Y-108763881D02*
X135080595Y-108763881D01*
X135366309Y-108763881D02*
X135366309Y-107763881D01*
X135271071Y-107906738D01*
X135175833Y-108001976D01*
X135080595Y-108049595D01*
X136271071Y-107763881D02*
X136366310Y-107763881D01*
X136461548Y-107811500D01*
X136509167Y-107859119D01*
X136556786Y-107954357D01*
X136604405Y-108144833D01*
X136604405Y-108382929D01*
X136556786Y-108573405D01*
X136509167Y-108668643D01*
X136461548Y-108716262D01*
X136366310Y-108763881D01*
X136271071Y-108763881D01*
X136175833Y-108716262D01*
X136128214Y-108668643D01*
X136080595Y-108573405D01*
X136032976Y-108382929D01*
X136032976Y-108144833D01*
X136080595Y-107954357D01*
X136128214Y-107859119D01*
X136175833Y-107811500D01*
X136271071Y-107763881D01*
X137032976Y-108763881D02*
X137032976Y-107763881D01*
X137604405Y-108763881D02*
X137175833Y-108192452D01*
X137604405Y-107763881D02*
X137032976Y-108335310D01*
D12*
X136259167Y-110287690D02*
X136092500Y-110049595D01*
X135973453Y-110287690D02*
X135973453Y-109787690D01*
X136163929Y-109787690D01*
X136211548Y-109811500D01*
X136235357Y-109835310D01*
X136259167Y-109882929D01*
X136259167Y-109954357D01*
X136235357Y-110001976D01*
X136211548Y-110025786D01*
X136163929Y-110049595D01*
X135973453Y-110049595D01*
X136497262Y-110287690D02*
X136592500Y-110287690D01*
X136640119Y-110263881D01*
X136663929Y-110240071D01*
X136711548Y-110168643D01*
X136735357Y-110073405D01*
X136735357Y-109882929D01*
X136711548Y-109835310D01*
X136687738Y-109811500D01*
X136640119Y-109787690D01*
X136544881Y-109787690D01*
X136497262Y-109811500D01*
X136473453Y-109835310D01*
X136449643Y-109882929D01*
X136449643Y-110001976D01*
X136473453Y-110049595D01*
X136497262Y-110073405D01*
X136544881Y-110097214D01*
X136640119Y-110097214D01*
X136687738Y-110073405D01*
X136711548Y-110049595D01*
X136735357Y-110001976D01*
D11*
X142257881Y-121990785D02*
X142257881Y-122562214D01*
X142257881Y-122276500D02*
X141257881Y-122276500D01*
X141400738Y-122371738D01*
X141495976Y-122466976D01*
X141543595Y-122562214D01*
X142257881Y-121562214D02*
X141257881Y-121562214D01*
X142257881Y-120990785D02*
X141686452Y-121419357D01*
X141257881Y-120990785D02*
X141829310Y-121562214D01*
D12*
X140281690Y-122097928D02*
X140043595Y-122264595D01*
X140281690Y-122383642D02*
X139781690Y-122383642D01*
X139781690Y-122193166D01*
X139805500Y-122145547D01*
X139829310Y-122121738D01*
X139876929Y-122097928D01*
X139948357Y-122097928D01*
X139995976Y-122121738D01*
X140019786Y-122145547D01*
X140043595Y-122193166D01*
X140043595Y-122383642D01*
X140281690Y-121621738D02*
X140281690Y-121907452D01*
X140281690Y-121764595D02*
X139781690Y-121764595D01*
X139853119Y-121812214D01*
X139900738Y-121859833D01*
X139924548Y-121907452D01*
X139781690Y-121312214D02*
X139781690Y-121264595D01*
X139805500Y-121216976D01*
X139829310Y-121193167D01*
X139876929Y-121169357D01*
X139972167Y-121145548D01*
X140091214Y-121145548D01*
X140186452Y-121169357D01*
X140234071Y-121193167D01*
X140257881Y-121216976D01*
X140281690Y-121264595D01*
X140281690Y-121312214D01*
X140257881Y-121359833D01*
X140234071Y-121383643D01*
X140186452Y-121407452D01*
X140091214Y-121431262D01*
X139972167Y-121431262D01*
X139876929Y-121407452D01*
X139829310Y-121383643D01*
X139805500Y-121359833D01*
X139781690Y-121312214D01*
D11*
X64002381Y-101023810D02*
X63954762Y-101119048D01*
X63859524Y-101166667D01*
X63002381Y-101166667D01*
X63954762Y-100261904D02*
X64002381Y-100357142D01*
X64002381Y-100547619D01*
X63954762Y-100642857D01*
X63859524Y-100690476D01*
X63478571Y-100690476D01*
X63383333Y-100642857D01*
X63335714Y-100547619D01*
X63335714Y-100357142D01*
X63383333Y-100261904D01*
X63478571Y-100214285D01*
X63573810Y-100214285D01*
X63669048Y-100690476D01*
X64002381Y-99357142D02*
X63002381Y-99357142D01*
X63954762Y-99357142D02*
X64002381Y-99452380D01*
X64002381Y-99642857D01*
X63954762Y-99738095D01*
X63907143Y-99785714D01*
X63811905Y-99833333D01*
X63526190Y-99833333D01*
X63430952Y-99785714D01*
X63383333Y-99738095D01*
X63335714Y-99642857D01*
X63335714Y-99452380D01*
X63383333Y-99357142D01*
X63954762Y-98928571D02*
X64002381Y-98833333D01*
X64002381Y-98642857D01*
X63954762Y-98547618D01*
X63859524Y-98499999D01*
X63811905Y-98499999D01*
X63716667Y-98547618D01*
X63669048Y-98642857D01*
X63669048Y-98785714D01*
X63621429Y-98880952D01*
X63526190Y-98928571D01*
X63478571Y-98928571D01*
X63383333Y-98880952D01*
X63335714Y-98785714D01*
X63335714Y-98642857D01*
X63383333Y-98547618D01*
X64097619Y-98309523D02*
X64097619Y-97547618D01*
X64002381Y-96785713D02*
X64002381Y-97357142D01*
X64002381Y-97071428D02*
X63002381Y-97071428D01*
X63145238Y-97166666D01*
X63240476Y-97261904D01*
X63288095Y-97357142D01*
X68880477Y-98452381D02*
X68880477Y-99166667D01*
X68832857Y-99309524D01*
X68737619Y-99404762D01*
X68594762Y-99452381D01*
X68499524Y-99452381D01*
X69309048Y-98547619D02*
X69356667Y-98500000D01*
X69451905Y-98452381D01*
X69690001Y-98452381D01*
X69785239Y-98500000D01*
X69832858Y-98547619D01*
X69880477Y-98642857D01*
X69880477Y-98738095D01*
X69832858Y-98880952D01*
X69261429Y-99452381D01*
X69880477Y-99452381D01*
X70213810Y-98452381D02*
X70880477Y-98452381D01*
X70451905Y-99452381D01*
X84002381Y-49023810D02*
X83954762Y-49119048D01*
X83859524Y-49166667D01*
X83002381Y-49166667D01*
X83954762Y-48261904D02*
X84002381Y-48357142D01*
X84002381Y-48547619D01*
X83954762Y-48642857D01*
X83859524Y-48690476D01*
X83478571Y-48690476D01*
X83383333Y-48642857D01*
X83335714Y-48547619D01*
X83335714Y-48357142D01*
X83383333Y-48261904D01*
X83478571Y-48214285D01*
X83573810Y-48214285D01*
X83669048Y-48690476D01*
X84002381Y-47357142D02*
X83002381Y-47357142D01*
X83954762Y-47357142D02*
X84002381Y-47452380D01*
X84002381Y-47642857D01*
X83954762Y-47738095D01*
X83907143Y-47785714D01*
X83811905Y-47833333D01*
X83526190Y-47833333D01*
X83430952Y-47785714D01*
X83383333Y-47738095D01*
X83335714Y-47642857D01*
X83335714Y-47452380D01*
X83383333Y-47357142D01*
X83954762Y-46928571D02*
X84002381Y-46833333D01*
X84002381Y-46642857D01*
X83954762Y-46547618D01*
X83859524Y-46499999D01*
X83811905Y-46499999D01*
X83716667Y-46547618D01*
X83669048Y-46642857D01*
X83669048Y-46785714D01*
X83621429Y-46880952D01*
X83526190Y-46928571D01*
X83478571Y-46928571D01*
X83383333Y-46880952D01*
X83335714Y-46785714D01*
X83335714Y-46642857D01*
X83383333Y-46547618D01*
X84097619Y-46309523D02*
X84097619Y-45547618D01*
X83097619Y-45357142D02*
X83050000Y-45309523D01*
X83002381Y-45214285D01*
X83002381Y-44976189D01*
X83050000Y-44880951D01*
X83097619Y-44833332D01*
X83192857Y-44785713D01*
X83288095Y-44785713D01*
X83430952Y-44833332D01*
X84002381Y-45404761D01*
X84002381Y-44785713D01*
X88880477Y-46452381D02*
X88880477Y-47166667D01*
X88832857Y-47309524D01*
X88737619Y-47404762D01*
X88594762Y-47452381D01*
X88499524Y-47452381D01*
X89309048Y-46547619D02*
X89356667Y-46500000D01*
X89451905Y-46452381D01*
X89690001Y-46452381D01*
X89785239Y-46500000D01*
X89832858Y-46547619D01*
X89880477Y-46642857D01*
X89880477Y-46738095D01*
X89832858Y-46880952D01*
X89261429Y-47452381D01*
X89880477Y-47452381D01*
X90451905Y-46880952D02*
X90356667Y-46833333D01*
X90309048Y-46785714D01*
X90261429Y-46690476D01*
X90261429Y-46642857D01*
X90309048Y-46547619D01*
X90356667Y-46500000D01*
X90451905Y-46452381D01*
X90642382Y-46452381D01*
X90737620Y-46500000D01*
X90785239Y-46547619D01*
X90832858Y-46642857D01*
X90832858Y-46690476D01*
X90785239Y-46785714D01*
X90737620Y-46833333D01*
X90642382Y-46880952D01*
X90451905Y-46880952D01*
X90356667Y-46928571D01*
X90309048Y-46976190D01*
X90261429Y-47071429D01*
X90261429Y-47261905D01*
X90309048Y-47357143D01*
X90356667Y-47404762D01*
X90451905Y-47452381D01*
X90642382Y-47452381D01*
X90737620Y-47404762D01*
X90785239Y-47357143D01*
X90832858Y-47261905D01*
X90832858Y-47071429D01*
X90785239Y-46976190D01*
X90737620Y-46928571D01*
X90642382Y-46880952D01*
X139002381Y-49523810D02*
X138954762Y-49619048D01*
X138859524Y-49666667D01*
X138002381Y-49666667D01*
X138954762Y-48761904D02*
X139002381Y-48857142D01*
X139002381Y-49047619D01*
X138954762Y-49142857D01*
X138859524Y-49190476D01*
X138478571Y-49190476D01*
X138383333Y-49142857D01*
X138335714Y-49047619D01*
X138335714Y-48857142D01*
X138383333Y-48761904D01*
X138478571Y-48714285D01*
X138573810Y-48714285D01*
X138669048Y-49190476D01*
X139002381Y-47857142D02*
X138002381Y-47857142D01*
X138954762Y-47857142D02*
X139002381Y-47952380D01*
X139002381Y-48142857D01*
X138954762Y-48238095D01*
X138907143Y-48285714D01*
X138811905Y-48333333D01*
X138526190Y-48333333D01*
X138430952Y-48285714D01*
X138383333Y-48238095D01*
X138335714Y-48142857D01*
X138335714Y-47952380D01*
X138383333Y-47857142D01*
X138954762Y-47428571D02*
X139002381Y-47333333D01*
X139002381Y-47142857D01*
X138954762Y-47047618D01*
X138859524Y-46999999D01*
X138811905Y-46999999D01*
X138716667Y-47047618D01*
X138669048Y-47142857D01*
X138669048Y-47285714D01*
X138621429Y-47380952D01*
X138526190Y-47428571D01*
X138478571Y-47428571D01*
X138383333Y-47380952D01*
X138335714Y-47285714D01*
X138335714Y-47142857D01*
X138383333Y-47047618D01*
X139097619Y-46809523D02*
X139097619Y-46047618D01*
X138002381Y-45333332D02*
X138002381Y-45809523D01*
X138478571Y-45857142D01*
X138430952Y-45809523D01*
X138383333Y-45714285D01*
X138383333Y-45476189D01*
X138430952Y-45380951D01*
X138478571Y-45333332D01*
X138573810Y-45285713D01*
X138811905Y-45285713D01*
X138907143Y-45333332D01*
X138954762Y-45380951D01*
X139002381Y-45476189D01*
X139002381Y-45714285D01*
X138954762Y-45809523D01*
X138907143Y-45857142D01*
X143880477Y-46952381D02*
X143880477Y-47666667D01*
X143832857Y-47809524D01*
X143737619Y-47904762D01*
X143594762Y-47952381D01*
X143499524Y-47952381D01*
X144261429Y-46952381D02*
X144880477Y-46952381D01*
X144547143Y-47333333D01*
X144690001Y-47333333D01*
X144785239Y-47380952D01*
X144832858Y-47428571D01*
X144880477Y-47523810D01*
X144880477Y-47761905D01*
X144832858Y-47857143D01*
X144785239Y-47904762D01*
X144690001Y-47952381D01*
X144404286Y-47952381D01*
X144309048Y-47904762D01*
X144261429Y-47857143D01*
X145499524Y-46952381D02*
X145594763Y-46952381D01*
X145690001Y-47000000D01*
X145737620Y-47047619D01*
X145785239Y-47142857D01*
X145832858Y-47333333D01*
X145832858Y-47571429D01*
X145785239Y-47761905D01*
X145737620Y-47857143D01*
X145690001Y-47904762D01*
X145594763Y-47952381D01*
X145499524Y-47952381D01*
X145404286Y-47904762D01*
X145356667Y-47857143D01*
X145309048Y-47761905D01*
X145261429Y-47571429D01*
X145261429Y-47333333D01*
X145309048Y-47142857D01*
X145356667Y-47047619D01*
X145404286Y-47000000D01*
X145499524Y-46952381D01*
X69809524Y-31547143D02*
X69761905Y-31594762D01*
X69619048Y-31642381D01*
X69523810Y-31642381D01*
X69380952Y-31594762D01*
X69285714Y-31499524D01*
X69238095Y-31404286D01*
X69190476Y-31213810D01*
X69190476Y-31070952D01*
X69238095Y-30880476D01*
X69285714Y-30785238D01*
X69380952Y-30690000D01*
X69523810Y-30642381D01*
X69619048Y-30642381D01*
X69761905Y-30690000D01*
X69809524Y-30737619D01*
X70238095Y-31642381D02*
X70238095Y-30642381D01*
X70619048Y-30642381D01*
X70714286Y-30690000D01*
X70761905Y-30737619D01*
X70809524Y-30832857D01*
X70809524Y-30975714D01*
X70761905Y-31070952D01*
X70714286Y-31118571D01*
X70619048Y-31166190D01*
X70238095Y-31166190D01*
X69833334Y-36857143D02*
X69785715Y-36904762D01*
X69642858Y-36952381D01*
X69547620Y-36952381D01*
X69404762Y-36904762D01*
X69309524Y-36809524D01*
X69261905Y-36714286D01*
X69214286Y-36523810D01*
X69214286Y-36380952D01*
X69261905Y-36190476D01*
X69309524Y-36095238D01*
X69404762Y-36000000D01*
X69547620Y-35952381D01*
X69642858Y-35952381D01*
X69785715Y-36000000D01*
X69833334Y-36047619D01*
X70785715Y-36952381D02*
X70214286Y-36952381D01*
X70500000Y-36952381D02*
X70500000Y-35952381D01*
X70404762Y-36095238D01*
X70309524Y-36190476D01*
X70214286Y-36238095D01*
X89309524Y-32047143D02*
X89261905Y-32094762D01*
X89119048Y-32142381D01*
X89023810Y-32142381D01*
X88880952Y-32094762D01*
X88785714Y-31999524D01*
X88738095Y-31904286D01*
X88690476Y-31713810D01*
X88690476Y-31570952D01*
X88738095Y-31380476D01*
X88785714Y-31285238D01*
X88880952Y-31190000D01*
X89023810Y-31142381D01*
X89119048Y-31142381D01*
X89261905Y-31190000D01*
X89309524Y-31237619D01*
X89738095Y-32142381D02*
X89738095Y-31142381D01*
X90119048Y-31142381D01*
X90214286Y-31190000D01*
X90261905Y-31237619D01*
X90309524Y-31332857D01*
X90309524Y-31475714D01*
X90261905Y-31570952D01*
X90214286Y-31618571D01*
X90119048Y-31666190D01*
X89738095Y-31666190D01*
X89333334Y-37357143D02*
X89285715Y-37404762D01*
X89142858Y-37452381D01*
X89047620Y-37452381D01*
X88904762Y-37404762D01*
X88809524Y-37309524D01*
X88761905Y-37214286D01*
X88714286Y-37023810D01*
X88714286Y-36880952D01*
X88761905Y-36690476D01*
X88809524Y-36595238D01*
X88904762Y-36500000D01*
X89047620Y-36452381D01*
X89142858Y-36452381D01*
X89285715Y-36500000D01*
X89333334Y-36547619D01*
X89714286Y-36547619D02*
X89761905Y-36500000D01*
X89857143Y-36452381D01*
X90095239Y-36452381D01*
X90190477Y-36500000D01*
X90238096Y-36547619D01*
X90285715Y-36642857D01*
X90285715Y-36738095D01*
X90238096Y-36880952D01*
X89666667Y-37452381D01*
X90285715Y-37452381D01*
X109809524Y-32547143D02*
X109761905Y-32594762D01*
X109619048Y-32642381D01*
X109523810Y-32642381D01*
X109380952Y-32594762D01*
X109285714Y-32499524D01*
X109238095Y-32404286D01*
X109190476Y-32213810D01*
X109190476Y-32070952D01*
X109238095Y-31880476D01*
X109285714Y-31785238D01*
X109380952Y-31690000D01*
X109523810Y-31642381D01*
X109619048Y-31642381D01*
X109761905Y-31690000D01*
X109809524Y-31737619D01*
X110238095Y-32642381D02*
X110238095Y-31642381D01*
X110619048Y-31642381D01*
X110714286Y-31690000D01*
X110761905Y-31737619D01*
X110809524Y-31832857D01*
X110809524Y-31975714D01*
X110761905Y-32070952D01*
X110714286Y-32118571D01*
X110619048Y-32166190D01*
X110238095Y-32166190D01*
X109833334Y-37857143D02*
X109785715Y-37904762D01*
X109642858Y-37952381D01*
X109547620Y-37952381D01*
X109404762Y-37904762D01*
X109309524Y-37809524D01*
X109261905Y-37714286D01*
X109214286Y-37523810D01*
X109214286Y-37380952D01*
X109261905Y-37190476D01*
X109309524Y-37095238D01*
X109404762Y-37000000D01*
X109547620Y-36952381D01*
X109642858Y-36952381D01*
X109785715Y-37000000D01*
X109833334Y-37047619D01*
X110166667Y-36952381D02*
X110785715Y-36952381D01*
X110452381Y-37333333D01*
X110595239Y-37333333D01*
X110690477Y-37380952D01*
X110738096Y-37428571D01*
X110785715Y-37523810D01*
X110785715Y-37761905D01*
X110738096Y-37857143D01*
X110690477Y-37904762D01*
X110595239Y-37952381D01*
X110309524Y-37952381D01*
X110214286Y-37904762D01*
X110166667Y-37857143D01*
X127309524Y-32547143D02*
X127261905Y-32594762D01*
X127119048Y-32642381D01*
X127023810Y-32642381D01*
X126880952Y-32594762D01*
X126785714Y-32499524D01*
X126738095Y-32404286D01*
X126690476Y-32213810D01*
X126690476Y-32070952D01*
X126738095Y-31880476D01*
X126785714Y-31785238D01*
X126880952Y-31690000D01*
X127023810Y-31642381D01*
X127119048Y-31642381D01*
X127261905Y-31690000D01*
X127309524Y-31737619D01*
X127738095Y-32642381D02*
X127738095Y-31642381D01*
X128119048Y-31642381D01*
X128214286Y-31690000D01*
X128261905Y-31737619D01*
X128309524Y-31832857D01*
X128309524Y-31975714D01*
X128261905Y-32070952D01*
X128214286Y-32118571D01*
X128119048Y-32166190D01*
X127738095Y-32166190D01*
X127333334Y-37857143D02*
X127285715Y-37904762D01*
X127142858Y-37952381D01*
X127047620Y-37952381D01*
X126904762Y-37904762D01*
X126809524Y-37809524D01*
X126761905Y-37714286D01*
X126714286Y-37523810D01*
X126714286Y-37380952D01*
X126761905Y-37190476D01*
X126809524Y-37095238D01*
X126904762Y-37000000D01*
X127047620Y-36952381D01*
X127142858Y-36952381D01*
X127285715Y-37000000D01*
X127333334Y-37047619D01*
X128190477Y-37285714D02*
X128190477Y-37952381D01*
X127952381Y-36904762D02*
X127714286Y-37619048D01*
X128333334Y-37619048D01*
X144309524Y-32547143D02*
X144261905Y-32594762D01*
X144119048Y-32642381D01*
X144023810Y-32642381D01*
X143880952Y-32594762D01*
X143785714Y-32499524D01*
X143738095Y-32404286D01*
X143690476Y-32213810D01*
X143690476Y-32070952D01*
X143738095Y-31880476D01*
X143785714Y-31785238D01*
X143880952Y-31690000D01*
X144023810Y-31642381D01*
X144119048Y-31642381D01*
X144261905Y-31690000D01*
X144309524Y-31737619D01*
X144738095Y-32642381D02*
X144738095Y-31642381D01*
X145119048Y-31642381D01*
X145214286Y-31690000D01*
X145261905Y-31737619D01*
X145309524Y-31832857D01*
X145309524Y-31975714D01*
X145261905Y-32070952D01*
X145214286Y-32118571D01*
X145119048Y-32166190D01*
X144738095Y-32166190D01*
X144333334Y-37857143D02*
X144285715Y-37904762D01*
X144142858Y-37952381D01*
X144047620Y-37952381D01*
X143904762Y-37904762D01*
X143809524Y-37809524D01*
X143761905Y-37714286D01*
X143714286Y-37523810D01*
X143714286Y-37380952D01*
X143761905Y-37190476D01*
X143809524Y-37095238D01*
X143904762Y-37000000D01*
X144047620Y-36952381D01*
X144142858Y-36952381D01*
X144285715Y-37000000D01*
X144333334Y-37047619D01*
X145238096Y-36952381D02*
X144761905Y-36952381D01*
X144714286Y-37428571D01*
X144761905Y-37380952D01*
X144857143Y-37333333D01*
X145095239Y-37333333D01*
X145190477Y-37380952D01*
X145238096Y-37428571D01*
X145285715Y-37523810D01*
X145285715Y-37761905D01*
X145238096Y-37857143D01*
X145190477Y-37904762D01*
X145095239Y-37952381D01*
X144857143Y-37952381D01*
X144761905Y-37904762D01*
X144714286Y-37857143D01*
X155934619Y-93251024D02*
X155887000Y-93203405D01*
X155839381Y-93108167D01*
X155839381Y-92870071D01*
X155887000Y-92774833D01*
X155934619Y-92727214D01*
X156029857Y-92679595D01*
X156125095Y-92679595D01*
X156267952Y-92727214D01*
X156839381Y-93298643D01*
X156839381Y-92679595D01*
X156172714Y-91822452D02*
X156839381Y-91822452D01*
X155791762Y-92060548D02*
X156506048Y-92298643D01*
X156506048Y-91679595D01*
X155839381Y-91108167D02*
X155839381Y-91012928D01*
X155887000Y-90917690D01*
X155934619Y-90870071D01*
X156029857Y-90822452D01*
X156220333Y-90774833D01*
X156458429Y-90774833D01*
X156648905Y-90822452D01*
X156744143Y-90870071D01*
X156791762Y-90917690D01*
X156839381Y-91012928D01*
X156839381Y-91108167D01*
X156791762Y-91203405D01*
X156744143Y-91251024D01*
X156648905Y-91298643D01*
X156458429Y-91346262D01*
X156220333Y-91346262D01*
X156029857Y-91298643D01*
X155934619Y-91251024D01*
X155887000Y-91203405D01*
X155839381Y-91108167D01*
X156839381Y-90203405D02*
X156791762Y-90298643D01*
X156744143Y-90346262D01*
X156648905Y-90393881D01*
X156363190Y-90393881D01*
X156267952Y-90346262D01*
X156220333Y-90298643D01*
X156172714Y-90203405D01*
X156172714Y-90060547D01*
X156220333Y-89965309D01*
X156267952Y-89917690D01*
X156363190Y-89870071D01*
X156648905Y-89870071D01*
X156744143Y-89917690D01*
X156791762Y-89965309D01*
X156839381Y-90060547D01*
X156839381Y-90203405D01*
X156839381Y-89441500D02*
X155839381Y-89441500D01*
X156839381Y-89012928D02*
X156315571Y-89012928D01*
X156220333Y-89060547D01*
X156172714Y-89155785D01*
X156172714Y-89298643D01*
X156220333Y-89393881D01*
X156267952Y-89441500D01*
X156839381Y-88536738D02*
X156172714Y-88536738D01*
X156267952Y-88536738D02*
X156220333Y-88489119D01*
X156172714Y-88393881D01*
X156172714Y-88251023D01*
X156220333Y-88155785D01*
X156315571Y-88108166D01*
X156839381Y-88108166D01*
X156315571Y-88108166D02*
X156220333Y-88060547D01*
X156172714Y-87965309D01*
X156172714Y-87822452D01*
X156220333Y-87727214D01*
X156315571Y-87679595D01*
X156839381Y-87679595D01*
D12*
X154863190Y-90762928D02*
X154625095Y-90929595D01*
X154863190Y-91048642D02*
X154363190Y-91048642D01*
X154363190Y-90858166D01*
X154387000Y-90810547D01*
X154410810Y-90786738D01*
X154458429Y-90762928D01*
X154529857Y-90762928D01*
X154577476Y-90786738D01*
X154601286Y-90810547D01*
X154625095Y-90858166D01*
X154625095Y-91048642D01*
X154863190Y-90286738D02*
X154863190Y-90572452D01*
X154863190Y-90429595D02*
X154363190Y-90429595D01*
X154434619Y-90477214D01*
X154482238Y-90524833D01*
X154506048Y-90572452D01*
X154863190Y-89810548D02*
X154863190Y-90096262D01*
X154863190Y-89953405D02*
X154363190Y-89953405D01*
X154434619Y-90001024D01*
X154482238Y-90048643D01*
X154506048Y-90096262D01*
D11*
X160142858Y-37452381D02*
X159571429Y-37452381D01*
X159857143Y-37452381D02*
X159857143Y-36452381D01*
X159761905Y-36595238D01*
X159666667Y-36690476D01*
X159571429Y-36738095D01*
X160571429Y-36785714D02*
X160571429Y-37785714D01*
X160571429Y-36833333D02*
X160666667Y-36785714D01*
X160857144Y-36785714D01*
X160952382Y-36833333D01*
X161000001Y-36880952D01*
X161047620Y-36976190D01*
X161047620Y-37261905D01*
X161000001Y-37357143D01*
X160952382Y-37404762D01*
X160857144Y-37452381D01*
X160666667Y-37452381D01*
X160571429Y-37404762D01*
X161476191Y-37452381D02*
X161476191Y-36785714D01*
X161476191Y-36452381D02*
X161428572Y-36500000D01*
X161476191Y-36547619D01*
X161523810Y-36500000D01*
X161476191Y-36452381D01*
X161476191Y-36547619D01*
X161952381Y-36785714D02*
X161952381Y-37452381D01*
X161952381Y-36880952D02*
X162000000Y-36833333D01*
X162095238Y-36785714D01*
X162238096Y-36785714D01*
X162333334Y-36833333D01*
X162380953Y-36928571D01*
X162380953Y-37452381D01*
X54142858Y-37452381D02*
X53571429Y-37452381D01*
X53857143Y-37452381D02*
X53857143Y-36452381D01*
X53761905Y-36595238D01*
X53666667Y-36690476D01*
X53571429Y-36738095D01*
X54571429Y-36785714D02*
X54571429Y-37785714D01*
X54571429Y-36833333D02*
X54666667Y-36785714D01*
X54857144Y-36785714D01*
X54952382Y-36833333D01*
X55000001Y-36880952D01*
X55047620Y-36976190D01*
X55047620Y-37261905D01*
X55000001Y-37357143D01*
X54952382Y-37404762D01*
X54857144Y-37452381D01*
X54666667Y-37452381D01*
X54571429Y-37404762D01*
X55476191Y-37452381D02*
X55476191Y-36785714D01*
X55476191Y-36452381D02*
X55428572Y-36500000D01*
X55476191Y-36547619D01*
X55523810Y-36500000D01*
X55476191Y-36452381D01*
X55476191Y-36547619D01*
X55952381Y-36785714D02*
X55952381Y-37452381D01*
X55952381Y-36880952D02*
X56000000Y-36833333D01*
X56095238Y-36785714D01*
X56238096Y-36785714D01*
X56333334Y-36833333D01*
X56380953Y-36928571D01*
X56380953Y-37452381D01*
X54142858Y-127452381D02*
X53571429Y-127452381D01*
X53857143Y-127452381D02*
X53857143Y-126452381D01*
X53761905Y-126595238D01*
X53666667Y-126690476D01*
X53571429Y-126738095D01*
X54571429Y-126785714D02*
X54571429Y-127785714D01*
X54571429Y-126833333D02*
X54666667Y-126785714D01*
X54857144Y-126785714D01*
X54952382Y-126833333D01*
X55000001Y-126880952D01*
X55047620Y-126976190D01*
X55047620Y-127261905D01*
X55000001Y-127357143D01*
X54952382Y-127404762D01*
X54857144Y-127452381D01*
X54666667Y-127452381D01*
X54571429Y-127404762D01*
X55476191Y-127452381D02*
X55476191Y-126785714D01*
X55476191Y-126452381D02*
X55428572Y-126500000D01*
X55476191Y-126547619D01*
X55523810Y-126500000D01*
X55476191Y-126452381D01*
X55476191Y-126547619D01*
X55952381Y-126785714D02*
X55952381Y-127452381D01*
X55952381Y-126880952D02*
X56000000Y-126833333D01*
X56095238Y-126785714D01*
X56238096Y-126785714D01*
X56333334Y-126833333D01*
X56380953Y-126928571D01*
X56380953Y-127452381D01*
X160142858Y-127452381D02*
X159571429Y-127452381D01*
X159857143Y-127452381D02*
X159857143Y-126452381D01*
X159761905Y-126595238D01*
X159666667Y-126690476D01*
X159571429Y-126738095D01*
X160571429Y-126785714D02*
X160571429Y-127785714D01*
X160571429Y-126833333D02*
X160666667Y-126785714D01*
X160857144Y-126785714D01*
X160952382Y-126833333D01*
X161000001Y-126880952D01*
X161047620Y-126976190D01*
X161047620Y-127261905D01*
X161000001Y-127357143D01*
X160952382Y-127404762D01*
X160857144Y-127452381D01*
X160666667Y-127452381D01*
X160571429Y-127404762D01*
X161476191Y-127452381D02*
X161476191Y-126785714D01*
X161476191Y-126452381D02*
X161428572Y-126500000D01*
X161476191Y-126547619D01*
X161523810Y-126500000D01*
X161476191Y-126452381D01*
X161476191Y-126547619D01*
X161952381Y-126785714D02*
X161952381Y-127452381D01*
X161952381Y-126880952D02*
X162000000Y-126833333D01*
X162095238Y-126785714D01*
X162238096Y-126785714D01*
X162333334Y-126833333D01*
X162380953Y-126928571D01*
X162380953Y-127452381D01*
X60535714Y-72828572D02*
X61535714Y-72828572D01*
X60583333Y-72828572D02*
X60535714Y-72733334D01*
X60535714Y-72542857D01*
X60583333Y-72447619D01*
X60630952Y-72400000D01*
X60726190Y-72352381D01*
X61011905Y-72352381D01*
X61107143Y-72400000D01*
X61154762Y-72447619D01*
X61202381Y-72542857D01*
X61202381Y-72733334D01*
X61154762Y-72828572D01*
X61202381Y-71780953D02*
X61154762Y-71876191D01*
X61107143Y-71923810D01*
X61011905Y-71971429D01*
X60726190Y-71971429D01*
X60630952Y-71923810D01*
X60583333Y-71876191D01*
X60535714Y-71780953D01*
X60535714Y-71638095D01*
X60583333Y-71542857D01*
X60630952Y-71495238D01*
X60726190Y-71447619D01*
X61011905Y-71447619D01*
X61107143Y-71495238D01*
X61154762Y-71542857D01*
X61202381Y-71638095D01*
X61202381Y-71780953D01*
X60535714Y-71114286D02*
X61202381Y-70923810D01*
X60726190Y-70733333D01*
X61202381Y-70542857D01*
X60535714Y-70352381D01*
X61154762Y-69590476D02*
X61202381Y-69685714D01*
X61202381Y-69876191D01*
X61154762Y-69971429D01*
X61059524Y-70019048D01*
X60678571Y-70019048D01*
X60583333Y-69971429D01*
X60535714Y-69876191D01*
X60535714Y-69685714D01*
X60583333Y-69590476D01*
X60678571Y-69542857D01*
X60773810Y-69542857D01*
X60869048Y-70019048D01*
X61202381Y-69114286D02*
X60535714Y-69114286D01*
X60726190Y-69114286D02*
X60630952Y-69066667D01*
X60583333Y-69019048D01*
X60535714Y-68923810D01*
X60535714Y-68828571D01*
X55452381Y-71689523D02*
X56166667Y-71689523D01*
X56309524Y-71737143D01*
X56404762Y-71832381D01*
X56452381Y-71975238D01*
X56452381Y-72070476D01*
X55547619Y-71260952D02*
X55500000Y-71213333D01*
X55452381Y-71118095D01*
X55452381Y-70879999D01*
X55500000Y-70784761D01*
X55547619Y-70737142D01*
X55642857Y-70689523D01*
X55738095Y-70689523D01*
X55880952Y-70737142D01*
X56452381Y-71308571D01*
X56452381Y-70689523D01*
X55452381Y-69784761D02*
X55452381Y-70260952D01*
X55928571Y-70308571D01*
X55880952Y-70260952D01*
X55833333Y-70165714D01*
X55833333Y-69927618D01*
X55880952Y-69832380D01*
X55928571Y-69784761D01*
X56023810Y-69737142D01*
X56261905Y-69737142D01*
X56357143Y-69784761D01*
X56404762Y-69832380D01*
X56452381Y-69927618D01*
X56452381Y-70165714D01*
X56404762Y-70260952D01*
X56357143Y-70308571D01*
M02*
