G04 #@! TF.FileFunction,Copper,L2,Bot,Signal*
%FSLAX46Y46*%
G04 Gerber Fmt 4.6, Leading zero omitted, Abs format (unit mm)*
G04 Created by KiCad (PCBNEW 4.0.7) date Mon Jun 18 14:33:00 2018*
%MOMM*%
%LPD*%
G01*
G04 APERTURE LIST*
%ADD10C,0.100000*%
%ADD11R,1.700000X1.700000*%
%ADD12O,1.700000X1.700000*%
%ADD13R,1.600000X1.600000*%
%ADD14C,1.600000*%
%ADD15C,5.000000*%
%ADD16C,0.600000*%
%ADD17C,0.381000*%
%ADD18C,0.254000*%
%ADD19C,0.500000*%
G04 APERTURE END LIST*
D10*
D11*
X104140000Y-76200000D03*
X106680000Y-76200000D03*
X106680000Y-73660000D03*
X104140000Y-73660000D03*
X109220000Y-73660000D03*
X111760000Y-73660000D03*
X111760000Y-76200000D03*
X109220000Y-76200000D03*
X114300000Y-76200000D03*
X114300000Y-73660000D03*
X104140000Y-86360000D03*
X106680000Y-86360000D03*
X106680000Y-83820000D03*
X104140000Y-83820000D03*
X109220000Y-83820000D03*
X111760000Y-83820000D03*
X111760000Y-86360000D03*
X109220000Y-86360000D03*
X114300000Y-86360000D03*
X114300000Y-83820000D03*
X114300000Y-78740000D03*
X114300000Y-81280000D03*
X109220000Y-81280000D03*
X111760000Y-81280000D03*
X111760000Y-78740000D03*
X109220000Y-78740000D03*
X104140000Y-78740000D03*
X106680000Y-78740000D03*
X106680000Y-81280000D03*
X104140000Y-81280000D03*
X104140000Y-91440000D03*
X106680000Y-91440000D03*
X106680000Y-88900000D03*
X104140000Y-88900000D03*
X109220000Y-88900000D03*
X111760000Y-88900000D03*
X111760000Y-91440000D03*
X109220000Y-91440000D03*
X114300000Y-91440000D03*
X114300000Y-88900000D03*
X114300000Y-93980000D03*
X114300000Y-96520000D03*
X109220000Y-96520000D03*
X111760000Y-96520000D03*
X111760000Y-93980000D03*
X109220000Y-93980000D03*
X104140000Y-93980000D03*
X106680000Y-93980000D03*
X106680000Y-96520000D03*
X104140000Y-96520000D03*
X115570000Y-37846000D03*
D12*
X113030000Y-37846000D03*
X110490000Y-37846000D03*
X107950000Y-37846000D03*
D11*
X133477000Y-89154000D03*
D12*
X130937000Y-89154000D03*
X128397000Y-89154000D03*
X125857000Y-89154000D03*
D11*
X73469500Y-59690000D03*
D12*
X70929500Y-59690000D03*
X68389500Y-59690000D03*
X65849500Y-59690000D03*
D11*
X73406000Y-67056000D03*
D12*
X70866000Y-67056000D03*
X68326000Y-67056000D03*
X65786000Y-67056000D03*
D11*
X73279000Y-74422000D03*
D12*
X70739000Y-74422000D03*
X68199000Y-74422000D03*
X65659000Y-74422000D03*
D11*
X73279000Y-81788000D03*
D12*
X70739000Y-81788000D03*
X68199000Y-81788000D03*
X65659000Y-81788000D03*
D11*
X67754500Y-115379500D03*
D12*
X65214500Y-115379500D03*
D11*
X81280000Y-115570000D03*
D12*
X78740000Y-115570000D03*
D11*
X93599000Y-89154000D03*
D12*
X91059000Y-89154000D03*
X88519000Y-89154000D03*
X85979000Y-89154000D03*
D11*
X93599000Y-81788000D03*
D12*
X91059000Y-81788000D03*
X88519000Y-81788000D03*
X85979000Y-81788000D03*
D11*
X93472000Y-74422000D03*
D12*
X90932000Y-74422000D03*
X88392000Y-74422000D03*
X85852000Y-74422000D03*
D11*
X93472000Y-67056000D03*
D12*
X90932000Y-67056000D03*
X88392000Y-67056000D03*
X85852000Y-67056000D03*
D11*
X114554000Y-59817000D03*
D12*
X112014000Y-59817000D03*
X109474000Y-59817000D03*
X106934000Y-59817000D03*
D11*
X93662500Y-115697000D03*
D12*
X91122500Y-115697000D03*
D11*
X133500000Y-59750000D03*
D12*
X130960000Y-59750000D03*
X128420000Y-59750000D03*
X125880000Y-59750000D03*
D11*
X133477000Y-67056000D03*
D12*
X130937000Y-67056000D03*
X128397000Y-67056000D03*
X125857000Y-67056000D03*
D11*
X133604000Y-74422000D03*
D12*
X131064000Y-74422000D03*
X128524000Y-74422000D03*
X125984000Y-74422000D03*
D11*
X133604000Y-81788000D03*
D12*
X131064000Y-81788000D03*
X128524000Y-81788000D03*
X125984000Y-81788000D03*
D11*
X107886500Y-115506500D03*
D12*
X105346500Y-115506500D03*
D11*
X153670000Y-89154000D03*
D12*
X151130000Y-89154000D03*
X148590000Y-89154000D03*
X146050000Y-89154000D03*
D11*
X153543000Y-81788000D03*
D12*
X151003000Y-81788000D03*
X148463000Y-81788000D03*
X145923000Y-81788000D03*
D11*
X153670000Y-74422000D03*
D12*
X151130000Y-74422000D03*
X148590000Y-74422000D03*
X146050000Y-74422000D03*
D11*
X153543000Y-67056000D03*
D12*
X151003000Y-67056000D03*
X148463000Y-67056000D03*
X145923000Y-67056000D03*
D11*
X121094500Y-115506500D03*
D12*
X118554500Y-115506500D03*
D11*
X130937000Y-110109000D03*
D12*
X133477000Y-110109000D03*
X136017000Y-110109000D03*
D11*
X130937000Y-104902000D03*
D12*
X133477000Y-104902000D03*
X136017000Y-104902000D03*
D11*
X148463000Y-125095000D03*
D12*
X148463000Y-122555000D03*
X148463000Y-120015000D03*
X148463000Y-117475000D03*
X148463000Y-114935000D03*
X148463000Y-112395000D03*
X148463000Y-109855000D03*
X148463000Y-107315000D03*
X148463000Y-104775000D03*
X148463000Y-102235000D03*
X148463000Y-99695000D03*
D11*
X73406000Y-89154000D03*
D12*
X70866000Y-89154000D03*
X68326000Y-89154000D03*
X65786000Y-89154000D03*
D11*
X93472000Y-59690000D03*
D12*
X90932000Y-59690000D03*
X88392000Y-59690000D03*
X85852000Y-59690000D03*
D11*
X153700000Y-59700000D03*
D12*
X151160000Y-59700000D03*
X148620000Y-59700000D03*
X146080000Y-59700000D03*
D13*
X80264000Y-48514000D03*
D14*
X75264000Y-48514000D03*
D13*
X96266000Y-48514000D03*
D14*
X91266000Y-48514000D03*
D13*
X114554000Y-48260000D03*
D14*
X109554000Y-48260000D03*
D13*
X128524000Y-48260000D03*
D14*
X123524000Y-48260000D03*
D13*
X143256000Y-48260000D03*
D14*
X138256000Y-48260000D03*
D15*
X161000000Y-34000000D03*
X55000000Y-34000000D03*
X55000000Y-124000000D03*
X161000000Y-124000000D03*
D16*
X85344000Y-117729000D03*
X72517000Y-117856000D03*
X126492000Y-116840000D03*
X112903000Y-117602000D03*
X100203000Y-119380000D03*
X121285000Y-38862000D03*
D17*
X68199000Y-81788000D02*
X68199000Y-89027000D01*
X68199000Y-89027000D02*
X68326000Y-89154000D01*
X68199000Y-74422000D02*
X68199000Y-81788000D01*
X68326000Y-67056000D02*
X68326000Y-74295000D01*
X68326000Y-74295000D02*
X68199000Y-74422000D01*
X68389500Y-59690000D02*
X68389500Y-66992500D01*
X68389500Y-66992500D02*
X68326000Y-67056000D01*
X88519000Y-81788000D02*
X88519000Y-89154000D01*
X88392000Y-74422000D02*
X88392000Y-81661000D01*
X88392000Y-81661000D02*
X88519000Y-81788000D01*
X88392000Y-67056000D02*
X88392000Y-74422000D01*
X88392000Y-59690000D02*
X88392000Y-67056000D01*
X128397000Y-67056000D02*
X128397000Y-59773000D01*
X128397000Y-59773000D02*
X128420000Y-59750000D01*
X128524000Y-74422000D02*
X128524000Y-67183000D01*
X128524000Y-67183000D02*
X128397000Y-67056000D01*
X128524000Y-81788000D02*
X128524000Y-74422000D01*
X128397000Y-89154000D02*
X128397000Y-81915000D01*
X128397000Y-81915000D02*
X128524000Y-81788000D01*
X148463000Y-81788000D02*
X148463000Y-89027000D01*
X148463000Y-89027000D02*
X148590000Y-89154000D01*
X148590000Y-74422000D02*
X148590000Y-81661000D01*
X148590000Y-81661000D02*
X148463000Y-81788000D01*
X148463000Y-67056000D02*
X148463000Y-74295000D01*
X148463000Y-74295000D02*
X148590000Y-74422000D01*
X148620000Y-59700000D02*
X148620000Y-66899000D01*
X148620000Y-66899000D02*
X148463000Y-67056000D01*
D18*
X84328000Y-117729000D02*
X84201000Y-117602000D01*
X85344000Y-117729000D02*
X84328000Y-117729000D01*
X71374000Y-117475000D02*
X71455001Y-117556001D01*
X72517000Y-117856000D02*
X72217001Y-117556001D01*
X72217001Y-117556001D02*
X71455001Y-117556001D01*
X128016000Y-116967000D02*
X127889000Y-116840000D01*
X126492000Y-116840000D02*
X127889000Y-116840000D01*
X112903000Y-117602000D02*
X113538000Y-117602000D01*
X113665000Y-117602000D02*
X113538000Y-117602000D01*
X93662500Y-115697000D02*
X96520000Y-115697000D01*
X96520000Y-115697000D02*
X100203000Y-119380000D01*
X100203000Y-119380000D02*
X101346000Y-119380000D01*
X101219000Y-119380000D02*
X101346000Y-119380000D01*
D17*
X109554000Y-48260000D02*
X109554000Y-59737000D01*
X109554000Y-59737000D02*
X109474000Y-59817000D01*
X141859000Y-58420000D02*
X138256000Y-54817000D01*
X138256000Y-54817000D02*
X138256000Y-48260000D01*
X143764000Y-58420000D02*
X141859000Y-58420000D01*
X143803499Y-58459499D02*
X143764000Y-58420000D01*
X148620000Y-59700000D02*
X147379499Y-58459499D01*
X147379499Y-58459499D02*
X143803499Y-58459499D01*
X128420000Y-59750000D02*
X123524000Y-54854000D01*
X123524000Y-54854000D02*
X123524000Y-48260000D01*
X88392000Y-59690000D02*
X91266000Y-56816000D01*
X91266000Y-56816000D02*
X91266000Y-48514000D01*
X73114001Y-49313999D02*
X68389500Y-54038500D01*
X68389500Y-54038500D02*
X68389500Y-59690000D01*
X75264000Y-48514000D02*
X74464001Y-49313999D01*
X74464001Y-49313999D02*
X73114001Y-49313999D01*
X81153000Y-41493630D02*
X90929630Y-41493630D01*
X90929630Y-41493630D02*
X91266000Y-41830000D01*
X75264000Y-48514000D02*
X75264000Y-47382630D01*
X75264000Y-47382630D02*
X81153000Y-41493630D01*
X94009499Y-39086501D02*
X91266000Y-41830000D01*
X91266000Y-41830000D02*
X91266000Y-48514000D01*
X113030000Y-37846000D02*
X111789499Y-39086501D01*
X111789499Y-39086501D02*
X94009499Y-39086501D01*
X113030000Y-37846000D02*
X113030000Y-44784000D01*
X113030000Y-44784000D02*
X109554000Y-48260000D01*
X123524000Y-41101000D02*
X131097000Y-41101000D01*
X131097000Y-41101000D02*
X138256000Y-48260000D01*
X121285000Y-38862000D02*
X123524000Y-41101000D01*
X123524000Y-41101000D02*
X123524000Y-48260000D01*
D19*
G36*
X158878571Y-30819051D02*
X157822758Y-31873022D01*
X157250652Y-33250806D01*
X157249350Y-34742649D01*
X157819051Y-36121429D01*
X158873022Y-37177242D01*
X160250806Y-37749348D01*
X161742649Y-37750650D01*
X163121429Y-37180949D01*
X164177242Y-36126978D01*
X164675000Y-34928244D01*
X164675000Y-123074264D01*
X164180949Y-121878571D01*
X163126978Y-120822758D01*
X161749194Y-120250652D01*
X160257351Y-120249350D01*
X158878571Y-120819051D01*
X157822758Y-121873022D01*
X157250652Y-123250806D01*
X157249350Y-124742649D01*
X157819051Y-126121429D01*
X158873022Y-127177242D01*
X160071756Y-127675000D01*
X55925736Y-127675000D01*
X57121429Y-127180949D01*
X58177242Y-126126978D01*
X58525408Y-125288500D01*
X146855000Y-125288500D01*
X146855000Y-126095775D01*
X146970398Y-126374372D01*
X147183627Y-126587601D01*
X147462224Y-126703000D01*
X148269500Y-126703000D01*
X148459000Y-126513500D01*
X148459000Y-125099000D01*
X148467000Y-125099000D01*
X148467000Y-126513500D01*
X148656500Y-126703000D01*
X149463776Y-126703000D01*
X149742373Y-126587601D01*
X149955602Y-126374372D01*
X150071000Y-126095775D01*
X150071000Y-125288500D01*
X149881500Y-125099000D01*
X148467000Y-125099000D01*
X148459000Y-125099000D01*
X147044500Y-125099000D01*
X146855000Y-125288500D01*
X58525408Y-125288500D01*
X58749348Y-124749194D01*
X58750650Y-123257351D01*
X58180949Y-121878571D01*
X57126978Y-120822758D01*
X55749194Y-120250652D01*
X54257351Y-120249350D01*
X52878571Y-120819051D01*
X51822758Y-121873022D01*
X51325000Y-123071756D01*
X51325000Y-115338359D01*
X63114500Y-115338359D01*
X63114500Y-115420641D01*
X63274353Y-116224276D01*
X63729576Y-116905565D01*
X64410865Y-117360788D01*
X65214500Y-117520641D01*
X66018135Y-117360788D01*
X66644506Y-116942260D01*
X66753725Y-116987500D01*
X67561000Y-116987500D01*
X67750500Y-116798000D01*
X67750500Y-115383500D01*
X67758500Y-115383500D01*
X67758500Y-116798000D01*
X67948000Y-116987500D01*
X68755275Y-116987500D01*
X69033872Y-116872102D01*
X69247101Y-116658873D01*
X69362500Y-116380276D01*
X69362500Y-115573000D01*
X69318359Y-115528859D01*
X76640000Y-115528859D01*
X76640000Y-115611141D01*
X76799853Y-116414776D01*
X77255076Y-117096065D01*
X77936365Y-117551288D01*
X78740000Y-117711141D01*
X79543635Y-117551288D01*
X80170006Y-117132760D01*
X80279225Y-117178000D01*
X81086500Y-117178000D01*
X81276000Y-116988500D01*
X81276000Y-115574000D01*
X81284000Y-115574000D01*
X81284000Y-116988500D01*
X81473500Y-117178000D01*
X82280775Y-117178000D01*
X82559372Y-117062602D01*
X82772601Y-116849373D01*
X82888000Y-116570776D01*
X82888000Y-115763500D01*
X82780359Y-115655859D01*
X89022500Y-115655859D01*
X89022500Y-115738141D01*
X89182353Y-116541776D01*
X89637576Y-117223065D01*
X90318865Y-117678288D01*
X91122500Y-117838141D01*
X91926135Y-117678288D01*
X92552506Y-117259760D01*
X92661725Y-117305000D01*
X93469000Y-117305000D01*
X93658500Y-117115500D01*
X93658500Y-115701000D01*
X93666500Y-115701000D01*
X93666500Y-117115500D01*
X93856000Y-117305000D01*
X94663275Y-117305000D01*
X94941872Y-117189602D01*
X95155101Y-116976373D01*
X95270500Y-116697776D01*
X95270500Y-115890500D01*
X95081000Y-115701000D01*
X93666500Y-115701000D01*
X93658500Y-115701000D01*
X93638500Y-115701000D01*
X93638500Y-115693000D01*
X93658500Y-115693000D01*
X93658500Y-114278500D01*
X93666500Y-114278500D01*
X93666500Y-115693000D01*
X95081000Y-115693000D01*
X95270500Y-115503500D01*
X95270500Y-115465359D01*
X103246500Y-115465359D01*
X103246500Y-115547641D01*
X103406353Y-116351276D01*
X103861576Y-117032565D01*
X104542865Y-117487788D01*
X105346500Y-117647641D01*
X106150135Y-117487788D01*
X106776506Y-117069260D01*
X106885725Y-117114500D01*
X107693000Y-117114500D01*
X107882500Y-116925000D01*
X107882500Y-115510500D01*
X107890500Y-115510500D01*
X107890500Y-116925000D01*
X108080000Y-117114500D01*
X108887275Y-117114500D01*
X109165872Y-116999102D01*
X109379101Y-116785873D01*
X109494500Y-116507276D01*
X109494500Y-115700000D01*
X109305000Y-115510500D01*
X107890500Y-115510500D01*
X107882500Y-115510500D01*
X107862500Y-115510500D01*
X107862500Y-115502500D01*
X107882500Y-115502500D01*
X107882500Y-114088000D01*
X107890500Y-114088000D01*
X107890500Y-115502500D01*
X109305000Y-115502500D01*
X109342141Y-115465359D01*
X116454500Y-115465359D01*
X116454500Y-115547641D01*
X116614353Y-116351276D01*
X117069576Y-117032565D01*
X117750865Y-117487788D01*
X118554500Y-117647641D01*
X119358135Y-117487788D01*
X119984506Y-117069260D01*
X120093725Y-117114500D01*
X120901000Y-117114500D01*
X121090500Y-116925000D01*
X121090500Y-115510500D01*
X121098500Y-115510500D01*
X121098500Y-116925000D01*
X121288000Y-117114500D01*
X122095275Y-117114500D01*
X122373872Y-116999102D01*
X122587101Y-116785873D01*
X122702500Y-116507276D01*
X122702500Y-115700000D01*
X122513000Y-115510500D01*
X121098500Y-115510500D01*
X121090500Y-115510500D01*
X121070500Y-115510500D01*
X121070500Y-115502500D01*
X121090500Y-115502500D01*
X121090500Y-114088000D01*
X121098500Y-114088000D01*
X121098500Y-115502500D01*
X122513000Y-115502500D01*
X122702500Y-115313000D01*
X122702500Y-114505724D01*
X122587101Y-114227127D01*
X122373872Y-114013898D01*
X122095275Y-113898500D01*
X121288000Y-113898500D01*
X121098500Y-114088000D01*
X121090500Y-114088000D01*
X120901000Y-113898500D01*
X120093725Y-113898500D01*
X119984506Y-113943740D01*
X119358135Y-113525212D01*
X118554500Y-113365359D01*
X117750865Y-113525212D01*
X117069576Y-113980435D01*
X116614353Y-114661724D01*
X116454500Y-115465359D01*
X109342141Y-115465359D01*
X109494500Y-115313000D01*
X109494500Y-114505724D01*
X109379101Y-114227127D01*
X109165872Y-114013898D01*
X108887275Y-113898500D01*
X108080000Y-113898500D01*
X107890500Y-114088000D01*
X107882500Y-114088000D01*
X107693000Y-113898500D01*
X106885725Y-113898500D01*
X106776506Y-113943740D01*
X106150135Y-113525212D01*
X105346500Y-113365359D01*
X104542865Y-113525212D01*
X103861576Y-113980435D01*
X103406353Y-114661724D01*
X103246500Y-115465359D01*
X95270500Y-115465359D01*
X95270500Y-114696224D01*
X95155101Y-114417627D01*
X94941872Y-114204398D01*
X94663275Y-114089000D01*
X93856000Y-114089000D01*
X93666500Y-114278500D01*
X93658500Y-114278500D01*
X93469000Y-114089000D01*
X92661725Y-114089000D01*
X92552506Y-114134240D01*
X91926135Y-113715712D01*
X91122500Y-113555859D01*
X90318865Y-113715712D01*
X89637576Y-114170935D01*
X89182353Y-114852224D01*
X89022500Y-115655859D01*
X82780359Y-115655859D01*
X82698500Y-115574000D01*
X81284000Y-115574000D01*
X81276000Y-115574000D01*
X81256000Y-115574000D01*
X81256000Y-115566000D01*
X81276000Y-115566000D01*
X81276000Y-114151500D01*
X81284000Y-114151500D01*
X81284000Y-115566000D01*
X82698500Y-115566000D01*
X82888000Y-115376500D01*
X82888000Y-114569224D01*
X82772601Y-114290627D01*
X82559372Y-114077398D01*
X82280775Y-113962000D01*
X81473500Y-113962000D01*
X81284000Y-114151500D01*
X81276000Y-114151500D01*
X81086500Y-113962000D01*
X80279225Y-113962000D01*
X80170006Y-114007240D01*
X79543635Y-113588712D01*
X78740000Y-113428859D01*
X77936365Y-113588712D01*
X77255076Y-114043935D01*
X76799853Y-114725224D01*
X76640000Y-115528859D01*
X69318359Y-115528859D01*
X69173000Y-115383500D01*
X67758500Y-115383500D01*
X67750500Y-115383500D01*
X67730500Y-115383500D01*
X67730500Y-115375500D01*
X67750500Y-115375500D01*
X67750500Y-113961000D01*
X67758500Y-113961000D01*
X67758500Y-115375500D01*
X69173000Y-115375500D01*
X69362500Y-115186000D01*
X69362500Y-114378724D01*
X69247101Y-114100127D01*
X69033872Y-113886898D01*
X68755275Y-113771500D01*
X67948000Y-113771500D01*
X67758500Y-113961000D01*
X67750500Y-113961000D01*
X67561000Y-113771500D01*
X66753725Y-113771500D01*
X66644506Y-113816740D01*
X66018135Y-113398212D01*
X65214500Y-113238359D01*
X64410865Y-113398212D01*
X63729576Y-113853435D01*
X63274353Y-114534724D01*
X63114500Y-115338359D01*
X51325000Y-115338359D01*
X51325000Y-109259000D01*
X128812512Y-109259000D01*
X128812512Y-110959000D01*
X128899673Y-111422222D01*
X129173437Y-111847663D01*
X129591153Y-112133076D01*
X130087000Y-112233488D01*
X131787000Y-112233488D01*
X132250222Y-112146327D01*
X132508501Y-111980129D01*
X132673365Y-112090288D01*
X133477000Y-112250141D01*
X134280635Y-112090288D01*
X134961924Y-111635065D01*
X135102435Y-111424775D01*
X135645511Y-111673500D01*
X135761503Y-111696572D01*
X136013000Y-111527494D01*
X136013000Y-110113000D01*
X136021000Y-110113000D01*
X136021000Y-111527494D01*
X136272497Y-111696572D01*
X136388489Y-111673500D01*
X136958919Y-111412247D01*
X137385951Y-110952586D01*
X137604572Y-110364497D01*
X137435495Y-110113000D01*
X136021000Y-110113000D01*
X136013000Y-110113000D01*
X135993000Y-110113000D01*
X135993000Y-110105000D01*
X136013000Y-110105000D01*
X136013000Y-108690506D01*
X136021000Y-108690506D01*
X136021000Y-110105000D01*
X137435495Y-110105000D01*
X137604572Y-109853503D01*
X137385951Y-109265414D01*
X136958919Y-108805753D01*
X136388489Y-108544500D01*
X136272497Y-108521428D01*
X136021000Y-108690506D01*
X136013000Y-108690506D01*
X135761503Y-108521428D01*
X135645511Y-108544500D01*
X135102435Y-108793225D01*
X134961924Y-108582935D01*
X134280635Y-108127712D01*
X133477000Y-107967859D01*
X132673365Y-108127712D01*
X132507586Y-108238482D01*
X132282847Y-108084924D01*
X131787000Y-107984512D01*
X130087000Y-107984512D01*
X129623778Y-108071673D01*
X129198337Y-108345437D01*
X128912924Y-108763153D01*
X128812512Y-109259000D01*
X51325000Y-109259000D01*
X51325000Y-104052000D01*
X128812512Y-104052000D01*
X128812512Y-105752000D01*
X128899673Y-106215222D01*
X129173437Y-106640663D01*
X129591153Y-106926076D01*
X130087000Y-107026488D01*
X131787000Y-107026488D01*
X132250222Y-106939327D01*
X132508501Y-106773129D01*
X132673365Y-106883288D01*
X133477000Y-107043141D01*
X134280635Y-106883288D01*
X134961924Y-106428065D01*
X135102435Y-106217775D01*
X135645511Y-106466500D01*
X135761503Y-106489572D01*
X136013000Y-106320494D01*
X136013000Y-104906000D01*
X136021000Y-104906000D01*
X136021000Y-106320494D01*
X136272497Y-106489572D01*
X136388489Y-106466500D01*
X136958919Y-106205247D01*
X137385951Y-105745586D01*
X137604572Y-105157497D01*
X137435495Y-104906000D01*
X136021000Y-104906000D01*
X136013000Y-104906000D01*
X135993000Y-104906000D01*
X135993000Y-104898000D01*
X136013000Y-104898000D01*
X136013000Y-103483506D01*
X136021000Y-103483506D01*
X136021000Y-104898000D01*
X137435495Y-104898000D01*
X137604572Y-104646503D01*
X137385951Y-104058414D01*
X136958919Y-103598753D01*
X136388489Y-103337500D01*
X136272497Y-103314428D01*
X136021000Y-103483506D01*
X136013000Y-103483506D01*
X135761503Y-103314428D01*
X135645511Y-103337500D01*
X135102435Y-103586225D01*
X134961924Y-103375935D01*
X134280635Y-102920712D01*
X133477000Y-102760859D01*
X132673365Y-102920712D01*
X132507586Y-103031482D01*
X132282847Y-102877924D01*
X131787000Y-102777512D01*
X130087000Y-102777512D01*
X129623778Y-102864673D01*
X129198337Y-103138437D01*
X128912924Y-103556153D01*
X128812512Y-104052000D01*
X51325000Y-104052000D01*
X51325000Y-102235000D01*
X146321859Y-102235000D01*
X146481712Y-103038635D01*
X146793327Y-103505000D01*
X146481712Y-103971365D01*
X146321859Y-104775000D01*
X146481712Y-105578635D01*
X146793327Y-106045000D01*
X146481712Y-106511365D01*
X146321859Y-107315000D01*
X146481712Y-108118635D01*
X146793327Y-108585000D01*
X146481712Y-109051365D01*
X146321859Y-109855000D01*
X146481712Y-110658635D01*
X146793327Y-111125000D01*
X146481712Y-111591365D01*
X146321859Y-112395000D01*
X146481712Y-113198635D01*
X146793327Y-113665000D01*
X146481712Y-114131365D01*
X146321859Y-114935000D01*
X146481712Y-115738635D01*
X146793327Y-116205000D01*
X146481712Y-116671365D01*
X146321859Y-117475000D01*
X146481712Y-118278635D01*
X146793327Y-118745000D01*
X146481712Y-119211365D01*
X146321859Y-120015000D01*
X146481712Y-120818635D01*
X146793327Y-121285000D01*
X146481712Y-121751365D01*
X146321859Y-122555000D01*
X146481712Y-123358635D01*
X146900240Y-123985006D01*
X146855000Y-124094225D01*
X146855000Y-124901500D01*
X147044500Y-125091000D01*
X148459000Y-125091000D01*
X148459000Y-125071000D01*
X148467000Y-125071000D01*
X148467000Y-125091000D01*
X149881500Y-125091000D01*
X150071000Y-124901500D01*
X150071000Y-124094225D01*
X150025760Y-123985006D01*
X150444288Y-123358635D01*
X150604141Y-122555000D01*
X150444288Y-121751365D01*
X150132673Y-121285000D01*
X150444288Y-120818635D01*
X150604141Y-120015000D01*
X150444288Y-119211365D01*
X150132673Y-118745000D01*
X150444288Y-118278635D01*
X150604141Y-117475000D01*
X150444288Y-116671365D01*
X150132673Y-116205000D01*
X150444288Y-115738635D01*
X150604141Y-114935000D01*
X150444288Y-114131365D01*
X150132673Y-113665000D01*
X150444288Y-113198635D01*
X150604141Y-112395000D01*
X150444288Y-111591365D01*
X150132673Y-111125000D01*
X150444288Y-110658635D01*
X150604141Y-109855000D01*
X150444288Y-109051365D01*
X150132673Y-108585000D01*
X150444288Y-108118635D01*
X150604141Y-107315000D01*
X150444288Y-106511365D01*
X150132673Y-106045000D01*
X150444288Y-105578635D01*
X150604141Y-104775000D01*
X150444288Y-103971365D01*
X150132673Y-103505000D01*
X150444288Y-103038635D01*
X150604141Y-102235000D01*
X150444288Y-101431365D01*
X149989065Y-100750076D01*
X149778775Y-100609565D01*
X150027500Y-100066489D01*
X150050572Y-99950497D01*
X149881494Y-99699000D01*
X148467000Y-99699000D01*
X148467000Y-99719000D01*
X148459000Y-99719000D01*
X148459000Y-99699000D01*
X147044506Y-99699000D01*
X146875428Y-99950497D01*
X146898500Y-100066489D01*
X147147225Y-100609565D01*
X146936935Y-100750076D01*
X146481712Y-101431365D01*
X146321859Y-102235000D01*
X51325000Y-102235000D01*
X51325000Y-99439503D01*
X146875428Y-99439503D01*
X147044506Y-99691000D01*
X148459000Y-99691000D01*
X148459000Y-98276505D01*
X148467000Y-98276505D01*
X148467000Y-99691000D01*
X149881494Y-99691000D01*
X150050572Y-99439503D01*
X150027500Y-99323511D01*
X149766247Y-98753081D01*
X149306586Y-98326049D01*
X148718497Y-98107428D01*
X148467000Y-98276505D01*
X148459000Y-98276505D01*
X148207503Y-98107428D01*
X147619414Y-98326049D01*
X147159753Y-98753081D01*
X146898500Y-99323511D01*
X146875428Y-99439503D01*
X51325000Y-99439503D01*
X51325000Y-89112859D01*
X63686000Y-89112859D01*
X63686000Y-89195141D01*
X63845853Y-89998776D01*
X64301076Y-90680065D01*
X64982365Y-91135288D01*
X65786000Y-91295141D01*
X66589635Y-91135288D01*
X67270924Y-90680065D01*
X67411435Y-90469775D01*
X67954511Y-90718500D01*
X68070503Y-90741572D01*
X68322000Y-90572494D01*
X68322000Y-89158000D01*
X68302000Y-89158000D01*
X68302000Y-89150000D01*
X68322000Y-89150000D01*
X68322000Y-87735506D01*
X68330000Y-87735506D01*
X68330000Y-89150000D01*
X68350000Y-89150000D01*
X68350000Y-89158000D01*
X68330000Y-89158000D01*
X68330000Y-90572494D01*
X68581497Y-90741572D01*
X68697489Y-90718500D01*
X69240565Y-90469775D01*
X69381076Y-90680065D01*
X70062365Y-91135288D01*
X70866000Y-91295141D01*
X71669635Y-91135288D01*
X71835414Y-91024518D01*
X72060153Y-91178076D01*
X72556000Y-91278488D01*
X74256000Y-91278488D01*
X74719222Y-91191327D01*
X75144663Y-90917563D01*
X75430076Y-90499847D01*
X75530488Y-90004000D01*
X75530488Y-89112859D01*
X83879000Y-89112859D01*
X83879000Y-89195141D01*
X84038853Y-89998776D01*
X84494076Y-90680065D01*
X85175365Y-91135288D01*
X85979000Y-91295141D01*
X86782635Y-91135288D01*
X87463924Y-90680065D01*
X87604435Y-90469775D01*
X88147511Y-90718500D01*
X88263503Y-90741572D01*
X88515000Y-90572494D01*
X88515000Y-89158000D01*
X88495000Y-89158000D01*
X88495000Y-89150000D01*
X88515000Y-89150000D01*
X88515000Y-87735506D01*
X88523000Y-87735506D01*
X88523000Y-89150000D01*
X88543000Y-89150000D01*
X88543000Y-89158000D01*
X88523000Y-89158000D01*
X88523000Y-90572494D01*
X88774497Y-90741572D01*
X88890489Y-90718500D01*
X89433565Y-90469775D01*
X89574076Y-90680065D01*
X90255365Y-91135288D01*
X91059000Y-91295141D01*
X91862635Y-91135288D01*
X92028414Y-91024518D01*
X92253153Y-91178076D01*
X92749000Y-91278488D01*
X94449000Y-91278488D01*
X94912222Y-91191327D01*
X95337663Y-90917563D01*
X95623076Y-90499847D01*
X95723488Y-90004000D01*
X95723488Y-88304000D01*
X95636327Y-87840778D01*
X95362563Y-87415337D01*
X94944847Y-87129924D01*
X94449000Y-87029512D01*
X92749000Y-87029512D01*
X92285778Y-87116673D01*
X92027499Y-87282871D01*
X91862635Y-87172712D01*
X91059000Y-87012859D01*
X90255365Y-87172712D01*
X89574076Y-87627935D01*
X89433565Y-87838225D01*
X88890489Y-87589500D01*
X88774497Y-87566428D01*
X88523000Y-87735506D01*
X88515000Y-87735506D01*
X88263503Y-87566428D01*
X88147511Y-87589500D01*
X87604435Y-87838225D01*
X87463924Y-87627935D01*
X86782635Y-87172712D01*
X85979000Y-87012859D01*
X85175365Y-87172712D01*
X84494076Y-87627935D01*
X84038853Y-88309224D01*
X83879000Y-89112859D01*
X75530488Y-89112859D01*
X75530488Y-88304000D01*
X75443327Y-87840778D01*
X75169563Y-87415337D01*
X74751847Y-87129924D01*
X74256000Y-87029512D01*
X72556000Y-87029512D01*
X72092778Y-87116673D01*
X71834499Y-87282871D01*
X71669635Y-87172712D01*
X70866000Y-87012859D01*
X70062365Y-87172712D01*
X69381076Y-87627935D01*
X69240565Y-87838225D01*
X68697489Y-87589500D01*
X68581497Y-87566428D01*
X68330000Y-87735506D01*
X68322000Y-87735506D01*
X68070503Y-87566428D01*
X67954511Y-87589500D01*
X67411435Y-87838225D01*
X67270924Y-87627935D01*
X66589635Y-87172712D01*
X65786000Y-87012859D01*
X64982365Y-87172712D01*
X64301076Y-87627935D01*
X63845853Y-88309224D01*
X63686000Y-89112859D01*
X51325000Y-89112859D01*
X51325000Y-81746859D01*
X63559000Y-81746859D01*
X63559000Y-81829141D01*
X63718853Y-82632776D01*
X64174076Y-83314065D01*
X64855365Y-83769288D01*
X65659000Y-83929141D01*
X66462635Y-83769288D01*
X67143924Y-83314065D01*
X67284435Y-83103775D01*
X67827511Y-83352500D01*
X67943503Y-83375572D01*
X68195000Y-83206494D01*
X68195000Y-81792000D01*
X68175000Y-81792000D01*
X68175000Y-81784000D01*
X68195000Y-81784000D01*
X68195000Y-80369506D01*
X68203000Y-80369506D01*
X68203000Y-81784000D01*
X68223000Y-81784000D01*
X68223000Y-81792000D01*
X68203000Y-81792000D01*
X68203000Y-83206494D01*
X68454497Y-83375572D01*
X68570489Y-83352500D01*
X69113565Y-83103775D01*
X69254076Y-83314065D01*
X69935365Y-83769288D01*
X70739000Y-83929141D01*
X71542635Y-83769288D01*
X71708414Y-83658518D01*
X71933153Y-83812076D01*
X72429000Y-83912488D01*
X74129000Y-83912488D01*
X74592222Y-83825327D01*
X75017663Y-83551563D01*
X75303076Y-83133847D01*
X75403488Y-82638000D01*
X75403488Y-81746859D01*
X83879000Y-81746859D01*
X83879000Y-81829141D01*
X84038853Y-82632776D01*
X84494076Y-83314065D01*
X85175365Y-83769288D01*
X85979000Y-83929141D01*
X86782635Y-83769288D01*
X87463924Y-83314065D01*
X87604435Y-83103775D01*
X88147511Y-83352500D01*
X88263503Y-83375572D01*
X88515000Y-83206494D01*
X88515000Y-81792000D01*
X88495000Y-81792000D01*
X88495000Y-81784000D01*
X88515000Y-81784000D01*
X88515000Y-80369506D01*
X88523000Y-80369506D01*
X88523000Y-81784000D01*
X88543000Y-81784000D01*
X88543000Y-81792000D01*
X88523000Y-81792000D01*
X88523000Y-83206494D01*
X88774497Y-83375572D01*
X88890489Y-83352500D01*
X89433565Y-83103775D01*
X89574076Y-83314065D01*
X90255365Y-83769288D01*
X91059000Y-83929141D01*
X91862635Y-83769288D01*
X92028414Y-83658518D01*
X92253153Y-83812076D01*
X92749000Y-83912488D01*
X94449000Y-83912488D01*
X94912222Y-83825327D01*
X95337663Y-83551563D01*
X95623076Y-83133847D01*
X95723488Y-82638000D01*
X95723488Y-80938000D01*
X95636327Y-80474778D01*
X95362563Y-80049337D01*
X94944847Y-79763924D01*
X94449000Y-79663512D01*
X92749000Y-79663512D01*
X92285778Y-79750673D01*
X92027499Y-79916871D01*
X91862635Y-79806712D01*
X91059000Y-79646859D01*
X90255365Y-79806712D01*
X89574076Y-80261935D01*
X89433565Y-80472225D01*
X88890489Y-80223500D01*
X88774497Y-80200428D01*
X88523000Y-80369506D01*
X88515000Y-80369506D01*
X88263503Y-80200428D01*
X88147511Y-80223500D01*
X87604435Y-80472225D01*
X87463924Y-80261935D01*
X86782635Y-79806712D01*
X85979000Y-79646859D01*
X85175365Y-79806712D01*
X84494076Y-80261935D01*
X84038853Y-80943224D01*
X83879000Y-81746859D01*
X75403488Y-81746859D01*
X75403488Y-80938000D01*
X75316327Y-80474778D01*
X75042563Y-80049337D01*
X74624847Y-79763924D01*
X74129000Y-79663512D01*
X72429000Y-79663512D01*
X71965778Y-79750673D01*
X71707499Y-79916871D01*
X71542635Y-79806712D01*
X70739000Y-79646859D01*
X69935365Y-79806712D01*
X69254076Y-80261935D01*
X69113565Y-80472225D01*
X68570489Y-80223500D01*
X68454497Y-80200428D01*
X68203000Y-80369506D01*
X68195000Y-80369506D01*
X67943503Y-80200428D01*
X67827511Y-80223500D01*
X67284435Y-80472225D01*
X67143924Y-80261935D01*
X66462635Y-79806712D01*
X65659000Y-79646859D01*
X64855365Y-79806712D01*
X64174076Y-80261935D01*
X63718853Y-80943224D01*
X63559000Y-81746859D01*
X51325000Y-81746859D01*
X51325000Y-74380859D01*
X63559000Y-74380859D01*
X63559000Y-74463141D01*
X63718853Y-75266776D01*
X64174076Y-75948065D01*
X64855365Y-76403288D01*
X65659000Y-76563141D01*
X66462635Y-76403288D01*
X67143924Y-75948065D01*
X67284435Y-75737775D01*
X67827511Y-75986500D01*
X67943503Y-76009572D01*
X68195000Y-75840494D01*
X68195000Y-74426000D01*
X68175000Y-74426000D01*
X68175000Y-74418000D01*
X68195000Y-74418000D01*
X68195000Y-73003506D01*
X68203000Y-73003506D01*
X68203000Y-74418000D01*
X68223000Y-74418000D01*
X68223000Y-74426000D01*
X68203000Y-74426000D01*
X68203000Y-75840494D01*
X68454497Y-76009572D01*
X68570489Y-75986500D01*
X69113565Y-75737775D01*
X69254076Y-75948065D01*
X69935365Y-76403288D01*
X70739000Y-76563141D01*
X71542635Y-76403288D01*
X71708414Y-76292518D01*
X71933153Y-76446076D01*
X72429000Y-76546488D01*
X74129000Y-76546488D01*
X74592222Y-76459327D01*
X75017663Y-76185563D01*
X75303076Y-75767847D01*
X75403488Y-75272000D01*
X75403488Y-74380859D01*
X83752000Y-74380859D01*
X83752000Y-74463141D01*
X83911853Y-75266776D01*
X84367076Y-75948065D01*
X85048365Y-76403288D01*
X85852000Y-76563141D01*
X86655635Y-76403288D01*
X87336924Y-75948065D01*
X87477435Y-75737775D01*
X88020511Y-75986500D01*
X88136503Y-76009572D01*
X88388000Y-75840494D01*
X88388000Y-74426000D01*
X88368000Y-74426000D01*
X88368000Y-74418000D01*
X88388000Y-74418000D01*
X88388000Y-73003506D01*
X88396000Y-73003506D01*
X88396000Y-74418000D01*
X88416000Y-74418000D01*
X88416000Y-74426000D01*
X88396000Y-74426000D01*
X88396000Y-75840494D01*
X88647497Y-76009572D01*
X88763489Y-75986500D01*
X89306565Y-75737775D01*
X89447076Y-75948065D01*
X90128365Y-76403288D01*
X90932000Y-76563141D01*
X91735635Y-76403288D01*
X91901414Y-76292518D01*
X92126153Y-76446076D01*
X92622000Y-76546488D01*
X94322000Y-76546488D01*
X94785222Y-76459327D01*
X95210663Y-76185563D01*
X95496076Y-75767847D01*
X95596488Y-75272000D01*
X95596488Y-73572000D01*
X95509327Y-73108778D01*
X95317069Y-72810000D01*
X102015512Y-72810000D01*
X102015512Y-74510000D01*
X102097442Y-74945420D01*
X102015512Y-75350000D01*
X102015512Y-77050000D01*
X102097442Y-77485420D01*
X102015512Y-77890000D01*
X102015512Y-79590000D01*
X102097442Y-80025420D01*
X102015512Y-80430000D01*
X102015512Y-82130000D01*
X102097442Y-82565420D01*
X102015512Y-82970000D01*
X102015512Y-84670000D01*
X102097442Y-85105420D01*
X102015512Y-85510000D01*
X102015512Y-87210000D01*
X102097442Y-87645420D01*
X102015512Y-88050000D01*
X102015512Y-89750000D01*
X102097442Y-90185420D01*
X102015512Y-90590000D01*
X102015512Y-92290000D01*
X102097442Y-92725420D01*
X102015512Y-93130000D01*
X102015512Y-94830000D01*
X102097442Y-95265420D01*
X102015512Y-95670000D01*
X102015512Y-97370000D01*
X102102673Y-97833222D01*
X102376437Y-98258663D01*
X102794153Y-98544076D01*
X103290000Y-98644488D01*
X104990000Y-98644488D01*
X105425420Y-98562558D01*
X105830000Y-98644488D01*
X107530000Y-98644488D01*
X107965420Y-98562558D01*
X108370000Y-98644488D01*
X110070000Y-98644488D01*
X110505420Y-98562558D01*
X110910000Y-98644488D01*
X112610000Y-98644488D01*
X113045420Y-98562558D01*
X113450000Y-98644488D01*
X115150000Y-98644488D01*
X115613222Y-98557327D01*
X116038663Y-98283563D01*
X116324076Y-97865847D01*
X116424488Y-97370000D01*
X116424488Y-95670000D01*
X116342558Y-95234580D01*
X116424488Y-94830000D01*
X116424488Y-93130000D01*
X116342558Y-92694580D01*
X116424488Y-92290000D01*
X116424488Y-90590000D01*
X116342558Y-90154580D01*
X116424488Y-89750000D01*
X116424488Y-89112859D01*
X123757000Y-89112859D01*
X123757000Y-89195141D01*
X123916853Y-89998776D01*
X124372076Y-90680065D01*
X125053365Y-91135288D01*
X125857000Y-91295141D01*
X126660635Y-91135288D01*
X127341924Y-90680065D01*
X127482435Y-90469775D01*
X128025511Y-90718500D01*
X128141503Y-90741572D01*
X128393000Y-90572494D01*
X128393000Y-89158000D01*
X128373000Y-89158000D01*
X128373000Y-89150000D01*
X128393000Y-89150000D01*
X128393000Y-87735506D01*
X128401000Y-87735506D01*
X128401000Y-89150000D01*
X128421000Y-89150000D01*
X128421000Y-89158000D01*
X128401000Y-89158000D01*
X128401000Y-90572494D01*
X128652497Y-90741572D01*
X128768489Y-90718500D01*
X129311565Y-90469775D01*
X129452076Y-90680065D01*
X130133365Y-91135288D01*
X130937000Y-91295141D01*
X131740635Y-91135288D01*
X131906414Y-91024518D01*
X132131153Y-91178076D01*
X132627000Y-91278488D01*
X134327000Y-91278488D01*
X134790222Y-91191327D01*
X135215663Y-90917563D01*
X135501076Y-90499847D01*
X135601488Y-90004000D01*
X135601488Y-89112859D01*
X143950000Y-89112859D01*
X143950000Y-89195141D01*
X144109853Y-89998776D01*
X144565076Y-90680065D01*
X145246365Y-91135288D01*
X146050000Y-91295141D01*
X146853635Y-91135288D01*
X147534924Y-90680065D01*
X147675435Y-90469775D01*
X148218511Y-90718500D01*
X148334503Y-90741572D01*
X148586000Y-90572494D01*
X148586000Y-89158000D01*
X148566000Y-89158000D01*
X148566000Y-89150000D01*
X148586000Y-89150000D01*
X148586000Y-87735506D01*
X148594000Y-87735506D01*
X148594000Y-89150000D01*
X148614000Y-89150000D01*
X148614000Y-89158000D01*
X148594000Y-89158000D01*
X148594000Y-90572494D01*
X148845497Y-90741572D01*
X148961489Y-90718500D01*
X149504565Y-90469775D01*
X149645076Y-90680065D01*
X150326365Y-91135288D01*
X151130000Y-91295141D01*
X151933635Y-91135288D01*
X152099414Y-91024518D01*
X152324153Y-91178076D01*
X152820000Y-91278488D01*
X154520000Y-91278488D01*
X154983222Y-91191327D01*
X155408663Y-90917563D01*
X155694076Y-90499847D01*
X155794488Y-90004000D01*
X155794488Y-88304000D01*
X155707327Y-87840778D01*
X155433563Y-87415337D01*
X155015847Y-87129924D01*
X154520000Y-87029512D01*
X152820000Y-87029512D01*
X152356778Y-87116673D01*
X152098499Y-87282871D01*
X151933635Y-87172712D01*
X151130000Y-87012859D01*
X150326365Y-87172712D01*
X149645076Y-87627935D01*
X149504565Y-87838225D01*
X148961489Y-87589500D01*
X148845497Y-87566428D01*
X148594000Y-87735506D01*
X148586000Y-87735506D01*
X148334503Y-87566428D01*
X148218511Y-87589500D01*
X147675435Y-87838225D01*
X147534924Y-87627935D01*
X146853635Y-87172712D01*
X146050000Y-87012859D01*
X145246365Y-87172712D01*
X144565076Y-87627935D01*
X144109853Y-88309224D01*
X143950000Y-89112859D01*
X135601488Y-89112859D01*
X135601488Y-88304000D01*
X135514327Y-87840778D01*
X135240563Y-87415337D01*
X134822847Y-87129924D01*
X134327000Y-87029512D01*
X132627000Y-87029512D01*
X132163778Y-87116673D01*
X131905499Y-87282871D01*
X131740635Y-87172712D01*
X130937000Y-87012859D01*
X130133365Y-87172712D01*
X129452076Y-87627935D01*
X129311565Y-87838225D01*
X128768489Y-87589500D01*
X128652497Y-87566428D01*
X128401000Y-87735506D01*
X128393000Y-87735506D01*
X128141503Y-87566428D01*
X128025511Y-87589500D01*
X127482435Y-87838225D01*
X127341924Y-87627935D01*
X126660635Y-87172712D01*
X125857000Y-87012859D01*
X125053365Y-87172712D01*
X124372076Y-87627935D01*
X123916853Y-88309224D01*
X123757000Y-89112859D01*
X116424488Y-89112859D01*
X116424488Y-88050000D01*
X116342558Y-87614580D01*
X116424488Y-87210000D01*
X116424488Y-85510000D01*
X116342558Y-85074580D01*
X116424488Y-84670000D01*
X116424488Y-82970000D01*
X116342558Y-82534580D01*
X116424488Y-82130000D01*
X116424488Y-81746859D01*
X123884000Y-81746859D01*
X123884000Y-81829141D01*
X124043853Y-82632776D01*
X124499076Y-83314065D01*
X125180365Y-83769288D01*
X125984000Y-83929141D01*
X126787635Y-83769288D01*
X127468924Y-83314065D01*
X127609435Y-83103775D01*
X128152511Y-83352500D01*
X128268503Y-83375572D01*
X128520000Y-83206494D01*
X128520000Y-81792000D01*
X128500000Y-81792000D01*
X128500000Y-81784000D01*
X128520000Y-81784000D01*
X128520000Y-80369506D01*
X128528000Y-80369506D01*
X128528000Y-81784000D01*
X128548000Y-81784000D01*
X128548000Y-81792000D01*
X128528000Y-81792000D01*
X128528000Y-83206494D01*
X128779497Y-83375572D01*
X128895489Y-83352500D01*
X129438565Y-83103775D01*
X129579076Y-83314065D01*
X130260365Y-83769288D01*
X131064000Y-83929141D01*
X131867635Y-83769288D01*
X132033414Y-83658518D01*
X132258153Y-83812076D01*
X132754000Y-83912488D01*
X134454000Y-83912488D01*
X134917222Y-83825327D01*
X135342663Y-83551563D01*
X135628076Y-83133847D01*
X135728488Y-82638000D01*
X135728488Y-81746859D01*
X143823000Y-81746859D01*
X143823000Y-81829141D01*
X143982853Y-82632776D01*
X144438076Y-83314065D01*
X145119365Y-83769288D01*
X145923000Y-83929141D01*
X146726635Y-83769288D01*
X147407924Y-83314065D01*
X147548435Y-83103775D01*
X148091511Y-83352500D01*
X148207503Y-83375572D01*
X148459000Y-83206494D01*
X148459000Y-81792000D01*
X148439000Y-81792000D01*
X148439000Y-81784000D01*
X148459000Y-81784000D01*
X148459000Y-80369506D01*
X148467000Y-80369506D01*
X148467000Y-81784000D01*
X148487000Y-81784000D01*
X148487000Y-81792000D01*
X148467000Y-81792000D01*
X148467000Y-83206494D01*
X148718497Y-83375572D01*
X148834489Y-83352500D01*
X149377565Y-83103775D01*
X149518076Y-83314065D01*
X150199365Y-83769288D01*
X151003000Y-83929141D01*
X151806635Y-83769288D01*
X151972414Y-83658518D01*
X152197153Y-83812076D01*
X152693000Y-83912488D01*
X154393000Y-83912488D01*
X154856222Y-83825327D01*
X155281663Y-83551563D01*
X155567076Y-83133847D01*
X155667488Y-82638000D01*
X155667488Y-80938000D01*
X155580327Y-80474778D01*
X155306563Y-80049337D01*
X154888847Y-79763924D01*
X154393000Y-79663512D01*
X152693000Y-79663512D01*
X152229778Y-79750673D01*
X151971499Y-79916871D01*
X151806635Y-79806712D01*
X151003000Y-79646859D01*
X150199365Y-79806712D01*
X149518076Y-80261935D01*
X149377565Y-80472225D01*
X148834489Y-80223500D01*
X148718497Y-80200428D01*
X148467000Y-80369506D01*
X148459000Y-80369506D01*
X148207503Y-80200428D01*
X148091511Y-80223500D01*
X147548435Y-80472225D01*
X147407924Y-80261935D01*
X146726635Y-79806712D01*
X145923000Y-79646859D01*
X145119365Y-79806712D01*
X144438076Y-80261935D01*
X143982853Y-80943224D01*
X143823000Y-81746859D01*
X135728488Y-81746859D01*
X135728488Y-80938000D01*
X135641327Y-80474778D01*
X135367563Y-80049337D01*
X134949847Y-79763924D01*
X134454000Y-79663512D01*
X132754000Y-79663512D01*
X132290778Y-79750673D01*
X132032499Y-79916871D01*
X131867635Y-79806712D01*
X131064000Y-79646859D01*
X130260365Y-79806712D01*
X129579076Y-80261935D01*
X129438565Y-80472225D01*
X128895489Y-80223500D01*
X128779497Y-80200428D01*
X128528000Y-80369506D01*
X128520000Y-80369506D01*
X128268503Y-80200428D01*
X128152511Y-80223500D01*
X127609435Y-80472225D01*
X127468924Y-80261935D01*
X126787635Y-79806712D01*
X125984000Y-79646859D01*
X125180365Y-79806712D01*
X124499076Y-80261935D01*
X124043853Y-80943224D01*
X123884000Y-81746859D01*
X116424488Y-81746859D01*
X116424488Y-80430000D01*
X116342558Y-79994580D01*
X116424488Y-79590000D01*
X116424488Y-77890000D01*
X116342558Y-77454580D01*
X116424488Y-77050000D01*
X116424488Y-75350000D01*
X116342558Y-74914580D01*
X116424488Y-74510000D01*
X116424488Y-74380859D01*
X123884000Y-74380859D01*
X123884000Y-74463141D01*
X124043853Y-75266776D01*
X124499076Y-75948065D01*
X125180365Y-76403288D01*
X125984000Y-76563141D01*
X126787635Y-76403288D01*
X127468924Y-75948065D01*
X127609435Y-75737775D01*
X128152511Y-75986500D01*
X128268503Y-76009572D01*
X128520000Y-75840494D01*
X128520000Y-74426000D01*
X128500000Y-74426000D01*
X128500000Y-74418000D01*
X128520000Y-74418000D01*
X128520000Y-73003506D01*
X128528000Y-73003506D01*
X128528000Y-74418000D01*
X128548000Y-74418000D01*
X128548000Y-74426000D01*
X128528000Y-74426000D01*
X128528000Y-75840494D01*
X128779497Y-76009572D01*
X128895489Y-75986500D01*
X129438565Y-75737775D01*
X129579076Y-75948065D01*
X130260365Y-76403288D01*
X131064000Y-76563141D01*
X131867635Y-76403288D01*
X132033414Y-76292518D01*
X132258153Y-76446076D01*
X132754000Y-76546488D01*
X134454000Y-76546488D01*
X134917222Y-76459327D01*
X135342663Y-76185563D01*
X135628076Y-75767847D01*
X135728488Y-75272000D01*
X135728488Y-74380859D01*
X143950000Y-74380859D01*
X143950000Y-74463141D01*
X144109853Y-75266776D01*
X144565076Y-75948065D01*
X145246365Y-76403288D01*
X146050000Y-76563141D01*
X146853635Y-76403288D01*
X147534924Y-75948065D01*
X147675435Y-75737775D01*
X148218511Y-75986500D01*
X148334503Y-76009572D01*
X148586000Y-75840494D01*
X148586000Y-74426000D01*
X148566000Y-74426000D01*
X148566000Y-74418000D01*
X148586000Y-74418000D01*
X148586000Y-73003506D01*
X148594000Y-73003506D01*
X148594000Y-74418000D01*
X148614000Y-74418000D01*
X148614000Y-74426000D01*
X148594000Y-74426000D01*
X148594000Y-75840494D01*
X148845497Y-76009572D01*
X148961489Y-75986500D01*
X149504565Y-75737775D01*
X149645076Y-75948065D01*
X150326365Y-76403288D01*
X151130000Y-76563141D01*
X151933635Y-76403288D01*
X152099414Y-76292518D01*
X152324153Y-76446076D01*
X152820000Y-76546488D01*
X154520000Y-76546488D01*
X154983222Y-76459327D01*
X155408663Y-76185563D01*
X155694076Y-75767847D01*
X155794488Y-75272000D01*
X155794488Y-73572000D01*
X155707327Y-73108778D01*
X155433563Y-72683337D01*
X155015847Y-72397924D01*
X154520000Y-72297512D01*
X152820000Y-72297512D01*
X152356778Y-72384673D01*
X152098499Y-72550871D01*
X151933635Y-72440712D01*
X151130000Y-72280859D01*
X150326365Y-72440712D01*
X149645076Y-72895935D01*
X149504565Y-73106225D01*
X148961489Y-72857500D01*
X148845497Y-72834428D01*
X148594000Y-73003506D01*
X148586000Y-73003506D01*
X148334503Y-72834428D01*
X148218511Y-72857500D01*
X147675435Y-73106225D01*
X147534924Y-72895935D01*
X146853635Y-72440712D01*
X146050000Y-72280859D01*
X145246365Y-72440712D01*
X144565076Y-72895935D01*
X144109853Y-73577224D01*
X143950000Y-74380859D01*
X135728488Y-74380859D01*
X135728488Y-73572000D01*
X135641327Y-73108778D01*
X135367563Y-72683337D01*
X134949847Y-72397924D01*
X134454000Y-72297512D01*
X132754000Y-72297512D01*
X132290778Y-72384673D01*
X132032499Y-72550871D01*
X131867635Y-72440712D01*
X131064000Y-72280859D01*
X130260365Y-72440712D01*
X129579076Y-72895935D01*
X129438565Y-73106225D01*
X128895489Y-72857500D01*
X128779497Y-72834428D01*
X128528000Y-73003506D01*
X128520000Y-73003506D01*
X128268503Y-72834428D01*
X128152511Y-72857500D01*
X127609435Y-73106225D01*
X127468924Y-72895935D01*
X126787635Y-72440712D01*
X125984000Y-72280859D01*
X125180365Y-72440712D01*
X124499076Y-72895935D01*
X124043853Y-73577224D01*
X123884000Y-74380859D01*
X116424488Y-74380859D01*
X116424488Y-72810000D01*
X116337327Y-72346778D01*
X116063563Y-71921337D01*
X115645847Y-71635924D01*
X115150000Y-71535512D01*
X113450000Y-71535512D01*
X113014580Y-71617442D01*
X112610000Y-71535512D01*
X110910000Y-71535512D01*
X110474580Y-71617442D01*
X110070000Y-71535512D01*
X108370000Y-71535512D01*
X107934580Y-71617442D01*
X107530000Y-71535512D01*
X105830000Y-71535512D01*
X105394580Y-71617442D01*
X104990000Y-71535512D01*
X103290000Y-71535512D01*
X102826778Y-71622673D01*
X102401337Y-71896437D01*
X102115924Y-72314153D01*
X102015512Y-72810000D01*
X95317069Y-72810000D01*
X95235563Y-72683337D01*
X94817847Y-72397924D01*
X94322000Y-72297512D01*
X92622000Y-72297512D01*
X92158778Y-72384673D01*
X91900499Y-72550871D01*
X91735635Y-72440712D01*
X90932000Y-72280859D01*
X90128365Y-72440712D01*
X89447076Y-72895935D01*
X89306565Y-73106225D01*
X88763489Y-72857500D01*
X88647497Y-72834428D01*
X88396000Y-73003506D01*
X88388000Y-73003506D01*
X88136503Y-72834428D01*
X88020511Y-72857500D01*
X87477435Y-73106225D01*
X87336924Y-72895935D01*
X86655635Y-72440712D01*
X85852000Y-72280859D01*
X85048365Y-72440712D01*
X84367076Y-72895935D01*
X83911853Y-73577224D01*
X83752000Y-74380859D01*
X75403488Y-74380859D01*
X75403488Y-73572000D01*
X75316327Y-73108778D01*
X75042563Y-72683337D01*
X74624847Y-72397924D01*
X74129000Y-72297512D01*
X72429000Y-72297512D01*
X71965778Y-72384673D01*
X71707499Y-72550871D01*
X71542635Y-72440712D01*
X70739000Y-72280859D01*
X69935365Y-72440712D01*
X69254076Y-72895935D01*
X69113565Y-73106225D01*
X68570489Y-72857500D01*
X68454497Y-72834428D01*
X68203000Y-73003506D01*
X68195000Y-73003506D01*
X67943503Y-72834428D01*
X67827511Y-72857500D01*
X67284435Y-73106225D01*
X67143924Y-72895935D01*
X66462635Y-72440712D01*
X65659000Y-72280859D01*
X64855365Y-72440712D01*
X64174076Y-72895935D01*
X63718853Y-73577224D01*
X63559000Y-74380859D01*
X51325000Y-74380859D01*
X51325000Y-67014859D01*
X63686000Y-67014859D01*
X63686000Y-67097141D01*
X63845853Y-67900776D01*
X64301076Y-68582065D01*
X64982365Y-69037288D01*
X65786000Y-69197141D01*
X66589635Y-69037288D01*
X67270924Y-68582065D01*
X67411435Y-68371775D01*
X67954511Y-68620500D01*
X68070503Y-68643572D01*
X68322000Y-68474494D01*
X68322000Y-67060000D01*
X68302000Y-67060000D01*
X68302000Y-67052000D01*
X68322000Y-67052000D01*
X68322000Y-65637506D01*
X68330000Y-65637506D01*
X68330000Y-67052000D01*
X68350000Y-67052000D01*
X68350000Y-67060000D01*
X68330000Y-67060000D01*
X68330000Y-68474494D01*
X68581497Y-68643572D01*
X68697489Y-68620500D01*
X69240565Y-68371775D01*
X69381076Y-68582065D01*
X70062365Y-69037288D01*
X70866000Y-69197141D01*
X71669635Y-69037288D01*
X71835414Y-68926518D01*
X72060153Y-69080076D01*
X72556000Y-69180488D01*
X74256000Y-69180488D01*
X74719222Y-69093327D01*
X75144663Y-68819563D01*
X75430076Y-68401847D01*
X75530488Y-67906000D01*
X75530488Y-67014859D01*
X83752000Y-67014859D01*
X83752000Y-67097141D01*
X83911853Y-67900776D01*
X84367076Y-68582065D01*
X85048365Y-69037288D01*
X85852000Y-69197141D01*
X86655635Y-69037288D01*
X87336924Y-68582065D01*
X87477435Y-68371775D01*
X88020511Y-68620500D01*
X88136503Y-68643572D01*
X88388000Y-68474494D01*
X88388000Y-67060000D01*
X88368000Y-67060000D01*
X88368000Y-67052000D01*
X88388000Y-67052000D01*
X88388000Y-65637506D01*
X88396000Y-65637506D01*
X88396000Y-67052000D01*
X88416000Y-67052000D01*
X88416000Y-67060000D01*
X88396000Y-67060000D01*
X88396000Y-68474494D01*
X88647497Y-68643572D01*
X88763489Y-68620500D01*
X89306565Y-68371775D01*
X89447076Y-68582065D01*
X90128365Y-69037288D01*
X90932000Y-69197141D01*
X91735635Y-69037288D01*
X91901414Y-68926518D01*
X92126153Y-69080076D01*
X92622000Y-69180488D01*
X94322000Y-69180488D01*
X94785222Y-69093327D01*
X95210663Y-68819563D01*
X95496076Y-68401847D01*
X95596488Y-67906000D01*
X95596488Y-67014859D01*
X123757000Y-67014859D01*
X123757000Y-67097141D01*
X123916853Y-67900776D01*
X124372076Y-68582065D01*
X125053365Y-69037288D01*
X125857000Y-69197141D01*
X126660635Y-69037288D01*
X127341924Y-68582065D01*
X127482435Y-68371775D01*
X128025511Y-68620500D01*
X128141503Y-68643572D01*
X128393000Y-68474494D01*
X128393000Y-67060000D01*
X128373000Y-67060000D01*
X128373000Y-67052000D01*
X128393000Y-67052000D01*
X128393000Y-65637506D01*
X128401000Y-65637506D01*
X128401000Y-67052000D01*
X128421000Y-67052000D01*
X128421000Y-67060000D01*
X128401000Y-67060000D01*
X128401000Y-68474494D01*
X128652497Y-68643572D01*
X128768489Y-68620500D01*
X129311565Y-68371775D01*
X129452076Y-68582065D01*
X130133365Y-69037288D01*
X130937000Y-69197141D01*
X131740635Y-69037288D01*
X131906414Y-68926518D01*
X132131153Y-69080076D01*
X132627000Y-69180488D01*
X134327000Y-69180488D01*
X134790222Y-69093327D01*
X135215663Y-68819563D01*
X135501076Y-68401847D01*
X135601488Y-67906000D01*
X135601488Y-67014859D01*
X143823000Y-67014859D01*
X143823000Y-67097141D01*
X143982853Y-67900776D01*
X144438076Y-68582065D01*
X145119365Y-69037288D01*
X145923000Y-69197141D01*
X146726635Y-69037288D01*
X147407924Y-68582065D01*
X147548435Y-68371775D01*
X148091511Y-68620500D01*
X148207503Y-68643572D01*
X148459000Y-68474494D01*
X148459000Y-67060000D01*
X148439000Y-67060000D01*
X148439000Y-67052000D01*
X148459000Y-67052000D01*
X148459000Y-65637506D01*
X148467000Y-65637506D01*
X148467000Y-67052000D01*
X148487000Y-67052000D01*
X148487000Y-67060000D01*
X148467000Y-67060000D01*
X148467000Y-68474494D01*
X148718497Y-68643572D01*
X148834489Y-68620500D01*
X149377565Y-68371775D01*
X149518076Y-68582065D01*
X150199365Y-69037288D01*
X151003000Y-69197141D01*
X151806635Y-69037288D01*
X151972414Y-68926518D01*
X152197153Y-69080076D01*
X152693000Y-69180488D01*
X154393000Y-69180488D01*
X154856222Y-69093327D01*
X155281663Y-68819563D01*
X155567076Y-68401847D01*
X155667488Y-67906000D01*
X155667488Y-66206000D01*
X155580327Y-65742778D01*
X155306563Y-65317337D01*
X154888847Y-65031924D01*
X154393000Y-64931512D01*
X152693000Y-64931512D01*
X152229778Y-65018673D01*
X151971499Y-65184871D01*
X151806635Y-65074712D01*
X151003000Y-64914859D01*
X150199365Y-65074712D01*
X149518076Y-65529935D01*
X149377565Y-65740225D01*
X148834489Y-65491500D01*
X148718497Y-65468428D01*
X148467000Y-65637506D01*
X148459000Y-65637506D01*
X148207503Y-65468428D01*
X148091511Y-65491500D01*
X147548435Y-65740225D01*
X147407924Y-65529935D01*
X146726635Y-65074712D01*
X145923000Y-64914859D01*
X145119365Y-65074712D01*
X144438076Y-65529935D01*
X143982853Y-66211224D01*
X143823000Y-67014859D01*
X135601488Y-67014859D01*
X135601488Y-66206000D01*
X135514327Y-65742778D01*
X135240563Y-65317337D01*
X134822847Y-65031924D01*
X134327000Y-64931512D01*
X132627000Y-64931512D01*
X132163778Y-65018673D01*
X131905499Y-65184871D01*
X131740635Y-65074712D01*
X130937000Y-64914859D01*
X130133365Y-65074712D01*
X129452076Y-65529935D01*
X129311565Y-65740225D01*
X128768489Y-65491500D01*
X128652497Y-65468428D01*
X128401000Y-65637506D01*
X128393000Y-65637506D01*
X128141503Y-65468428D01*
X128025511Y-65491500D01*
X127482435Y-65740225D01*
X127341924Y-65529935D01*
X126660635Y-65074712D01*
X125857000Y-64914859D01*
X125053365Y-65074712D01*
X124372076Y-65529935D01*
X123916853Y-66211224D01*
X123757000Y-67014859D01*
X95596488Y-67014859D01*
X95596488Y-66206000D01*
X95509327Y-65742778D01*
X95235563Y-65317337D01*
X94817847Y-65031924D01*
X94322000Y-64931512D01*
X92622000Y-64931512D01*
X92158778Y-65018673D01*
X91900499Y-65184871D01*
X91735635Y-65074712D01*
X90932000Y-64914859D01*
X90128365Y-65074712D01*
X89447076Y-65529935D01*
X89306565Y-65740225D01*
X88763489Y-65491500D01*
X88647497Y-65468428D01*
X88396000Y-65637506D01*
X88388000Y-65637506D01*
X88136503Y-65468428D01*
X88020511Y-65491500D01*
X87477435Y-65740225D01*
X87336924Y-65529935D01*
X86655635Y-65074712D01*
X85852000Y-64914859D01*
X85048365Y-65074712D01*
X84367076Y-65529935D01*
X83911853Y-66211224D01*
X83752000Y-67014859D01*
X75530488Y-67014859D01*
X75530488Y-66206000D01*
X75443327Y-65742778D01*
X75169563Y-65317337D01*
X74751847Y-65031924D01*
X74256000Y-64931512D01*
X72556000Y-64931512D01*
X72092778Y-65018673D01*
X71834499Y-65184871D01*
X71669635Y-65074712D01*
X70866000Y-64914859D01*
X70062365Y-65074712D01*
X69381076Y-65529935D01*
X69240565Y-65740225D01*
X68697489Y-65491500D01*
X68581497Y-65468428D01*
X68330000Y-65637506D01*
X68322000Y-65637506D01*
X68070503Y-65468428D01*
X67954511Y-65491500D01*
X67411435Y-65740225D01*
X67270924Y-65529935D01*
X66589635Y-65074712D01*
X65786000Y-64914859D01*
X64982365Y-65074712D01*
X64301076Y-65529935D01*
X63845853Y-66211224D01*
X63686000Y-67014859D01*
X51325000Y-67014859D01*
X51325000Y-59648859D01*
X63749500Y-59648859D01*
X63749500Y-59731141D01*
X63909353Y-60534776D01*
X64364576Y-61216065D01*
X65045865Y-61671288D01*
X65849500Y-61831141D01*
X66653135Y-61671288D01*
X67334424Y-61216065D01*
X67474935Y-61005775D01*
X68018011Y-61254500D01*
X68134003Y-61277572D01*
X68385500Y-61108494D01*
X68385500Y-59694000D01*
X68365500Y-59694000D01*
X68365500Y-59686000D01*
X68385500Y-59686000D01*
X68385500Y-58271506D01*
X68393500Y-58271506D01*
X68393500Y-59686000D01*
X68413500Y-59686000D01*
X68413500Y-59694000D01*
X68393500Y-59694000D01*
X68393500Y-61108494D01*
X68644997Y-61277572D01*
X68760989Y-61254500D01*
X69304065Y-61005775D01*
X69444576Y-61216065D01*
X70125865Y-61671288D01*
X70929500Y-61831141D01*
X71733135Y-61671288D01*
X71898914Y-61560518D01*
X72123653Y-61714076D01*
X72619500Y-61814488D01*
X74319500Y-61814488D01*
X74782722Y-61727327D01*
X75208163Y-61453563D01*
X75493576Y-61035847D01*
X75593988Y-60540000D01*
X75593988Y-59648859D01*
X83752000Y-59648859D01*
X83752000Y-59731141D01*
X83911853Y-60534776D01*
X84367076Y-61216065D01*
X85048365Y-61671288D01*
X85852000Y-61831141D01*
X86655635Y-61671288D01*
X87336924Y-61216065D01*
X87477435Y-61005775D01*
X88020511Y-61254500D01*
X88136503Y-61277572D01*
X88388000Y-61108494D01*
X88388000Y-59694000D01*
X88368000Y-59694000D01*
X88368000Y-59686000D01*
X88388000Y-59686000D01*
X88388000Y-58271506D01*
X88396000Y-58271506D01*
X88396000Y-59686000D01*
X88416000Y-59686000D01*
X88416000Y-59694000D01*
X88396000Y-59694000D01*
X88396000Y-61108494D01*
X88647497Y-61277572D01*
X88763489Y-61254500D01*
X89306565Y-61005775D01*
X89447076Y-61216065D01*
X90128365Y-61671288D01*
X90932000Y-61831141D01*
X91735635Y-61671288D01*
X91901414Y-61560518D01*
X92126153Y-61714076D01*
X92622000Y-61814488D01*
X94322000Y-61814488D01*
X94785222Y-61727327D01*
X95210663Y-61453563D01*
X95496076Y-61035847D01*
X95596488Y-60540000D01*
X95596488Y-59775859D01*
X104834000Y-59775859D01*
X104834000Y-59858141D01*
X104993853Y-60661776D01*
X105449076Y-61343065D01*
X106130365Y-61798288D01*
X106934000Y-61958141D01*
X107737635Y-61798288D01*
X108418924Y-61343065D01*
X108559435Y-61132775D01*
X109102511Y-61381500D01*
X109218503Y-61404572D01*
X109470000Y-61235494D01*
X109470000Y-59821000D01*
X109450000Y-59821000D01*
X109450000Y-59813000D01*
X109470000Y-59813000D01*
X109470000Y-58398506D01*
X109478000Y-58398506D01*
X109478000Y-59813000D01*
X109498000Y-59813000D01*
X109498000Y-59821000D01*
X109478000Y-59821000D01*
X109478000Y-61235494D01*
X109729497Y-61404572D01*
X109845489Y-61381500D01*
X110388565Y-61132775D01*
X110529076Y-61343065D01*
X111210365Y-61798288D01*
X112014000Y-61958141D01*
X112817635Y-61798288D01*
X112983414Y-61687518D01*
X113208153Y-61841076D01*
X113704000Y-61941488D01*
X115404000Y-61941488D01*
X115867222Y-61854327D01*
X116292663Y-61580563D01*
X116578076Y-61162847D01*
X116678488Y-60667000D01*
X116678488Y-59708859D01*
X123780000Y-59708859D01*
X123780000Y-59791141D01*
X123939853Y-60594776D01*
X124395076Y-61276065D01*
X125076365Y-61731288D01*
X125880000Y-61891141D01*
X126683635Y-61731288D01*
X127364924Y-61276065D01*
X127505435Y-61065775D01*
X128048511Y-61314500D01*
X128164503Y-61337572D01*
X128416000Y-61168494D01*
X128416000Y-59754000D01*
X128396000Y-59754000D01*
X128396000Y-59746000D01*
X128416000Y-59746000D01*
X128416000Y-58331506D01*
X128424000Y-58331506D01*
X128424000Y-59746000D01*
X128444000Y-59746000D01*
X128444000Y-59754000D01*
X128424000Y-59754000D01*
X128424000Y-61168494D01*
X128675497Y-61337572D01*
X128791489Y-61314500D01*
X129334565Y-61065775D01*
X129475076Y-61276065D01*
X130156365Y-61731288D01*
X130960000Y-61891141D01*
X131763635Y-61731288D01*
X131929414Y-61620518D01*
X132154153Y-61774076D01*
X132650000Y-61874488D01*
X134350000Y-61874488D01*
X134813222Y-61787327D01*
X135238663Y-61513563D01*
X135524076Y-61095847D01*
X135624488Y-60600000D01*
X135624488Y-59658859D01*
X143980000Y-59658859D01*
X143980000Y-59741141D01*
X144139853Y-60544776D01*
X144595076Y-61226065D01*
X145276365Y-61681288D01*
X146080000Y-61841141D01*
X146883635Y-61681288D01*
X147564924Y-61226065D01*
X147705435Y-61015775D01*
X148248511Y-61264500D01*
X148364503Y-61287572D01*
X148616000Y-61118494D01*
X148616000Y-59704000D01*
X148596000Y-59704000D01*
X148596000Y-59696000D01*
X148616000Y-59696000D01*
X148616000Y-58281506D01*
X148624000Y-58281506D01*
X148624000Y-59696000D01*
X148644000Y-59696000D01*
X148644000Y-59704000D01*
X148624000Y-59704000D01*
X148624000Y-61118494D01*
X148875497Y-61287572D01*
X148991489Y-61264500D01*
X149534565Y-61015775D01*
X149675076Y-61226065D01*
X150356365Y-61681288D01*
X151160000Y-61841141D01*
X151963635Y-61681288D01*
X152129414Y-61570518D01*
X152354153Y-61724076D01*
X152850000Y-61824488D01*
X154550000Y-61824488D01*
X155013222Y-61737327D01*
X155438663Y-61463563D01*
X155724076Y-61045847D01*
X155824488Y-60550000D01*
X155824488Y-58850000D01*
X155737327Y-58386778D01*
X155463563Y-57961337D01*
X155045847Y-57675924D01*
X154550000Y-57575512D01*
X152850000Y-57575512D01*
X152386778Y-57662673D01*
X152128499Y-57828871D01*
X151963635Y-57718712D01*
X151160000Y-57558859D01*
X150356365Y-57718712D01*
X149675076Y-58173935D01*
X149534565Y-58384225D01*
X148991489Y-58135500D01*
X148875497Y-58112428D01*
X148624000Y-58281506D01*
X148616000Y-58281506D01*
X148364503Y-58112428D01*
X148248511Y-58135500D01*
X147705435Y-58384225D01*
X147564924Y-58173935D01*
X146883635Y-57718712D01*
X146080000Y-57558859D01*
X145276365Y-57718712D01*
X144595076Y-58173935D01*
X144139853Y-58855224D01*
X143980000Y-59658859D01*
X135624488Y-59658859D01*
X135624488Y-58900000D01*
X135537327Y-58436778D01*
X135263563Y-58011337D01*
X134845847Y-57725924D01*
X134350000Y-57625512D01*
X132650000Y-57625512D01*
X132186778Y-57712673D01*
X131928499Y-57878871D01*
X131763635Y-57768712D01*
X130960000Y-57608859D01*
X130156365Y-57768712D01*
X129475076Y-58223935D01*
X129334565Y-58434225D01*
X128791489Y-58185500D01*
X128675497Y-58162428D01*
X128424000Y-58331506D01*
X128416000Y-58331506D01*
X128164503Y-58162428D01*
X128048511Y-58185500D01*
X127505435Y-58434225D01*
X127364924Y-58223935D01*
X126683635Y-57768712D01*
X125880000Y-57608859D01*
X125076365Y-57768712D01*
X124395076Y-58223935D01*
X123939853Y-58905224D01*
X123780000Y-59708859D01*
X116678488Y-59708859D01*
X116678488Y-58967000D01*
X116591327Y-58503778D01*
X116317563Y-58078337D01*
X115899847Y-57792924D01*
X115404000Y-57692512D01*
X113704000Y-57692512D01*
X113240778Y-57779673D01*
X112982499Y-57945871D01*
X112817635Y-57835712D01*
X112014000Y-57675859D01*
X111210365Y-57835712D01*
X110529076Y-58290935D01*
X110388565Y-58501225D01*
X109845489Y-58252500D01*
X109729497Y-58229428D01*
X109478000Y-58398506D01*
X109470000Y-58398506D01*
X109218503Y-58229428D01*
X109102511Y-58252500D01*
X108559435Y-58501225D01*
X108418924Y-58290935D01*
X107737635Y-57835712D01*
X106934000Y-57675859D01*
X106130365Y-57835712D01*
X105449076Y-58290935D01*
X104993853Y-58972224D01*
X104834000Y-59775859D01*
X95596488Y-59775859D01*
X95596488Y-58840000D01*
X95509327Y-58376778D01*
X95235563Y-57951337D01*
X94817847Y-57665924D01*
X94322000Y-57565512D01*
X92622000Y-57565512D01*
X92158778Y-57652673D01*
X91900499Y-57818871D01*
X91735635Y-57708712D01*
X90932000Y-57548859D01*
X90128365Y-57708712D01*
X89447076Y-58163935D01*
X89306565Y-58374225D01*
X88763489Y-58125500D01*
X88647497Y-58102428D01*
X88396000Y-58271506D01*
X88388000Y-58271506D01*
X88136503Y-58102428D01*
X88020511Y-58125500D01*
X87477435Y-58374225D01*
X87336924Y-58163935D01*
X86655635Y-57708712D01*
X85852000Y-57548859D01*
X85048365Y-57708712D01*
X84367076Y-58163935D01*
X83911853Y-58845224D01*
X83752000Y-59648859D01*
X75593988Y-59648859D01*
X75593988Y-58840000D01*
X75506827Y-58376778D01*
X75233063Y-57951337D01*
X74815347Y-57665924D01*
X74319500Y-57565512D01*
X72619500Y-57565512D01*
X72156278Y-57652673D01*
X71897999Y-57818871D01*
X71733135Y-57708712D01*
X70929500Y-57548859D01*
X70125865Y-57708712D01*
X69444576Y-58163935D01*
X69304065Y-58374225D01*
X68760989Y-58125500D01*
X68644997Y-58102428D01*
X68393500Y-58271506D01*
X68385500Y-58271506D01*
X68134003Y-58102428D01*
X68018011Y-58125500D01*
X67474935Y-58374225D01*
X67334424Y-58163935D01*
X66653135Y-57708712D01*
X65849500Y-57548859D01*
X65045865Y-57708712D01*
X64364576Y-58163935D01*
X63909353Y-58845224D01*
X63749500Y-59648859D01*
X51325000Y-59648859D01*
X51325000Y-49506083D01*
X74277574Y-49506083D01*
X74333529Y-49801489D01*
X74897058Y-50059561D01*
X75516450Y-50082335D01*
X76097409Y-49866344D01*
X76194471Y-49801489D01*
X76250426Y-49506083D01*
X75264000Y-48519657D01*
X74277574Y-49506083D01*
X51325000Y-49506083D01*
X51325000Y-48766450D01*
X73695665Y-48766450D01*
X73911656Y-49347409D01*
X73976511Y-49444471D01*
X74271917Y-49500426D01*
X75258343Y-48514000D01*
X75269657Y-48514000D01*
X76256083Y-49500426D01*
X76551489Y-49444471D01*
X76809561Y-48880942D01*
X76832335Y-48261550D01*
X76628765Y-47714000D01*
X78189512Y-47714000D01*
X78189512Y-49314000D01*
X78276673Y-49777222D01*
X78550437Y-50202663D01*
X78968153Y-50488076D01*
X79464000Y-50588488D01*
X81064000Y-50588488D01*
X81527222Y-50501327D01*
X81952663Y-50227563D01*
X82238076Y-49809847D01*
X82299590Y-49506083D01*
X90279574Y-49506083D01*
X90335529Y-49801489D01*
X90899058Y-50059561D01*
X91518450Y-50082335D01*
X92099409Y-49866344D01*
X92196471Y-49801489D01*
X92252426Y-49506083D01*
X91266000Y-48519657D01*
X90279574Y-49506083D01*
X82299590Y-49506083D01*
X82338488Y-49314000D01*
X82338488Y-48766450D01*
X89697665Y-48766450D01*
X89913656Y-49347409D01*
X89978511Y-49444471D01*
X90273917Y-49500426D01*
X91260343Y-48514000D01*
X91271657Y-48514000D01*
X92258083Y-49500426D01*
X92553489Y-49444471D01*
X92811561Y-48880942D01*
X92834335Y-48261550D01*
X92630765Y-47714000D01*
X94191512Y-47714000D01*
X94191512Y-49314000D01*
X94278673Y-49777222D01*
X94552437Y-50202663D01*
X94970153Y-50488076D01*
X95466000Y-50588488D01*
X97066000Y-50588488D01*
X97529222Y-50501327D01*
X97954663Y-50227563D01*
X98240076Y-49809847D01*
X98340488Y-49314000D01*
X98340488Y-49252083D01*
X108567574Y-49252083D01*
X108623529Y-49547489D01*
X109187058Y-49805561D01*
X109806450Y-49828335D01*
X110387409Y-49612344D01*
X110484471Y-49547489D01*
X110540426Y-49252083D01*
X109554000Y-48265657D01*
X108567574Y-49252083D01*
X98340488Y-49252083D01*
X98340488Y-48512450D01*
X107985665Y-48512450D01*
X108201656Y-49093409D01*
X108266511Y-49190471D01*
X108561917Y-49246426D01*
X109548343Y-48260000D01*
X109559657Y-48260000D01*
X110546083Y-49246426D01*
X110841489Y-49190471D01*
X111099561Y-48626942D01*
X111122335Y-48007550D01*
X110918765Y-47460000D01*
X112479512Y-47460000D01*
X112479512Y-49060000D01*
X112566673Y-49523222D01*
X112840437Y-49948663D01*
X113258153Y-50234076D01*
X113754000Y-50334488D01*
X115354000Y-50334488D01*
X115817222Y-50247327D01*
X116242663Y-49973563D01*
X116528076Y-49555847D01*
X116589590Y-49252083D01*
X122537574Y-49252083D01*
X122593529Y-49547489D01*
X123157058Y-49805561D01*
X123776450Y-49828335D01*
X124357409Y-49612344D01*
X124454471Y-49547489D01*
X124510426Y-49252083D01*
X123524000Y-48265657D01*
X122537574Y-49252083D01*
X116589590Y-49252083D01*
X116628488Y-49060000D01*
X116628488Y-48512450D01*
X121955665Y-48512450D01*
X122171656Y-49093409D01*
X122236511Y-49190471D01*
X122531917Y-49246426D01*
X123518343Y-48260000D01*
X123529657Y-48260000D01*
X124516083Y-49246426D01*
X124811489Y-49190471D01*
X125069561Y-48626942D01*
X125092335Y-48007550D01*
X124888765Y-47460000D01*
X126449512Y-47460000D01*
X126449512Y-49060000D01*
X126536673Y-49523222D01*
X126810437Y-49948663D01*
X127228153Y-50234076D01*
X127724000Y-50334488D01*
X129324000Y-50334488D01*
X129787222Y-50247327D01*
X130212663Y-49973563D01*
X130498076Y-49555847D01*
X130559590Y-49252083D01*
X137269574Y-49252083D01*
X137325529Y-49547489D01*
X137889058Y-49805561D01*
X138508450Y-49828335D01*
X139089409Y-49612344D01*
X139186471Y-49547489D01*
X139242426Y-49252083D01*
X138256000Y-48265657D01*
X137269574Y-49252083D01*
X130559590Y-49252083D01*
X130598488Y-49060000D01*
X130598488Y-48512450D01*
X136687665Y-48512450D01*
X136903656Y-49093409D01*
X136968511Y-49190471D01*
X137263917Y-49246426D01*
X138250343Y-48260000D01*
X138261657Y-48260000D01*
X139248083Y-49246426D01*
X139543489Y-49190471D01*
X139801561Y-48626942D01*
X139824335Y-48007550D01*
X139620765Y-47460000D01*
X141181512Y-47460000D01*
X141181512Y-49060000D01*
X141268673Y-49523222D01*
X141542437Y-49948663D01*
X141960153Y-50234076D01*
X142456000Y-50334488D01*
X144056000Y-50334488D01*
X144519222Y-50247327D01*
X144944663Y-49973563D01*
X145230076Y-49555847D01*
X145330488Y-49060000D01*
X145330488Y-47460000D01*
X145243327Y-46996778D01*
X144969563Y-46571337D01*
X144551847Y-46285924D01*
X144056000Y-46185512D01*
X142456000Y-46185512D01*
X141992778Y-46272673D01*
X141567337Y-46546437D01*
X141281924Y-46964153D01*
X141181512Y-47460000D01*
X139620765Y-47460000D01*
X139608344Y-47426591D01*
X139543489Y-47329529D01*
X139248083Y-47273574D01*
X138261657Y-48260000D01*
X138250343Y-48260000D01*
X137263917Y-47273574D01*
X136968511Y-47329529D01*
X136710439Y-47893058D01*
X136687665Y-48512450D01*
X130598488Y-48512450D01*
X130598488Y-47460000D01*
X130562346Y-47267917D01*
X137269574Y-47267917D01*
X138256000Y-48254343D01*
X139242426Y-47267917D01*
X139186471Y-46972511D01*
X138622942Y-46714439D01*
X138003550Y-46691665D01*
X137422591Y-46907656D01*
X137325529Y-46972511D01*
X137269574Y-47267917D01*
X130562346Y-47267917D01*
X130511327Y-46996778D01*
X130237563Y-46571337D01*
X129819847Y-46285924D01*
X129324000Y-46185512D01*
X127724000Y-46185512D01*
X127260778Y-46272673D01*
X126835337Y-46546437D01*
X126549924Y-46964153D01*
X126449512Y-47460000D01*
X124888765Y-47460000D01*
X124876344Y-47426591D01*
X124811489Y-47329529D01*
X124516083Y-47273574D01*
X123529657Y-48260000D01*
X123518343Y-48260000D01*
X122531917Y-47273574D01*
X122236511Y-47329529D01*
X121978439Y-47893058D01*
X121955665Y-48512450D01*
X116628488Y-48512450D01*
X116628488Y-47460000D01*
X116592346Y-47267917D01*
X122537574Y-47267917D01*
X123524000Y-48254343D01*
X124510426Y-47267917D01*
X124454471Y-46972511D01*
X123890942Y-46714439D01*
X123271550Y-46691665D01*
X122690591Y-46907656D01*
X122593529Y-46972511D01*
X122537574Y-47267917D01*
X116592346Y-47267917D01*
X116541327Y-46996778D01*
X116267563Y-46571337D01*
X115849847Y-46285924D01*
X115354000Y-46185512D01*
X113754000Y-46185512D01*
X113290778Y-46272673D01*
X112865337Y-46546437D01*
X112579924Y-46964153D01*
X112479512Y-47460000D01*
X110918765Y-47460000D01*
X110906344Y-47426591D01*
X110841489Y-47329529D01*
X110546083Y-47273574D01*
X109559657Y-48260000D01*
X109548343Y-48260000D01*
X108561917Y-47273574D01*
X108266511Y-47329529D01*
X108008439Y-47893058D01*
X107985665Y-48512450D01*
X98340488Y-48512450D01*
X98340488Y-47714000D01*
X98256552Y-47267917D01*
X108567574Y-47267917D01*
X109554000Y-48254343D01*
X110540426Y-47267917D01*
X110484471Y-46972511D01*
X109920942Y-46714439D01*
X109301550Y-46691665D01*
X108720591Y-46907656D01*
X108623529Y-46972511D01*
X108567574Y-47267917D01*
X98256552Y-47267917D01*
X98253327Y-47250778D01*
X97979563Y-46825337D01*
X97561847Y-46539924D01*
X97066000Y-46439512D01*
X95466000Y-46439512D01*
X95002778Y-46526673D01*
X94577337Y-46800437D01*
X94291924Y-47218153D01*
X94191512Y-47714000D01*
X92630765Y-47714000D01*
X92618344Y-47680591D01*
X92553489Y-47583529D01*
X92258083Y-47527574D01*
X91271657Y-48514000D01*
X91260343Y-48514000D01*
X90273917Y-47527574D01*
X89978511Y-47583529D01*
X89720439Y-48147058D01*
X89697665Y-48766450D01*
X82338488Y-48766450D01*
X82338488Y-47714000D01*
X82302346Y-47521917D01*
X90279574Y-47521917D01*
X91266000Y-48508343D01*
X92252426Y-47521917D01*
X92196471Y-47226511D01*
X91632942Y-46968439D01*
X91013550Y-46945665D01*
X90432591Y-47161656D01*
X90335529Y-47226511D01*
X90279574Y-47521917D01*
X82302346Y-47521917D01*
X82251327Y-47250778D01*
X81977563Y-46825337D01*
X81559847Y-46539924D01*
X81064000Y-46439512D01*
X79464000Y-46439512D01*
X79000778Y-46526673D01*
X78575337Y-46800437D01*
X78289924Y-47218153D01*
X78189512Y-47714000D01*
X76628765Y-47714000D01*
X76616344Y-47680591D01*
X76551489Y-47583529D01*
X76256083Y-47527574D01*
X75269657Y-48514000D01*
X75258343Y-48514000D01*
X74271917Y-47527574D01*
X73976511Y-47583529D01*
X73718439Y-48147058D01*
X73695665Y-48766450D01*
X51325000Y-48766450D01*
X51325000Y-47521917D01*
X74277574Y-47521917D01*
X75264000Y-48508343D01*
X76250426Y-47521917D01*
X76194471Y-47226511D01*
X75630942Y-46968439D01*
X75011550Y-46945665D01*
X74430591Y-47161656D01*
X74333529Y-47226511D01*
X74277574Y-47521917D01*
X51325000Y-47521917D01*
X51325000Y-37804859D01*
X105850000Y-37804859D01*
X105850000Y-37887141D01*
X106009853Y-38690776D01*
X106465076Y-39372065D01*
X107146365Y-39827288D01*
X107950000Y-39987141D01*
X108753635Y-39827288D01*
X109220000Y-39515673D01*
X109686365Y-39827288D01*
X110490000Y-39987141D01*
X111293635Y-39827288D01*
X111974924Y-39372065D01*
X112115435Y-39161775D01*
X112658511Y-39410500D01*
X112774503Y-39433572D01*
X113026000Y-39264494D01*
X113026000Y-37850000D01*
X113034000Y-37850000D01*
X113034000Y-39264494D01*
X113285497Y-39433572D01*
X113401489Y-39410500D01*
X113971919Y-39149247D01*
X114051711Y-39063358D01*
X114077399Y-39125373D01*
X114290628Y-39338602D01*
X114569225Y-39454000D01*
X115376500Y-39454000D01*
X115566000Y-39264500D01*
X115566000Y-37850000D01*
X115574000Y-37850000D01*
X115574000Y-39264500D01*
X115763500Y-39454000D01*
X116570775Y-39454000D01*
X116849372Y-39338602D01*
X117062601Y-39125373D01*
X117178000Y-38846776D01*
X117178000Y-38039500D01*
X116988500Y-37850000D01*
X115574000Y-37850000D01*
X115566000Y-37850000D01*
X113034000Y-37850000D01*
X113026000Y-37850000D01*
X113006000Y-37850000D01*
X113006000Y-37842000D01*
X113026000Y-37842000D01*
X113026000Y-36427506D01*
X113034000Y-36427506D01*
X113034000Y-37842000D01*
X115566000Y-37842000D01*
X115566000Y-36427500D01*
X115574000Y-36427500D01*
X115574000Y-37842000D01*
X116988500Y-37842000D01*
X117178000Y-37652500D01*
X117178000Y-36845224D01*
X117062601Y-36566627D01*
X116849372Y-36353398D01*
X116570775Y-36238000D01*
X115763500Y-36238000D01*
X115574000Y-36427500D01*
X115566000Y-36427500D01*
X115376500Y-36238000D01*
X114569225Y-36238000D01*
X114290628Y-36353398D01*
X114077399Y-36566627D01*
X114051711Y-36628642D01*
X113971919Y-36542753D01*
X113401489Y-36281500D01*
X113285497Y-36258428D01*
X113034000Y-36427506D01*
X113026000Y-36427506D01*
X112774503Y-36258428D01*
X112658511Y-36281500D01*
X112115435Y-36530225D01*
X111974924Y-36319935D01*
X111293635Y-35864712D01*
X110490000Y-35704859D01*
X109686365Y-35864712D01*
X109220000Y-36176327D01*
X108753635Y-35864712D01*
X107950000Y-35704859D01*
X107146365Y-35864712D01*
X106465076Y-36319935D01*
X106009853Y-37001224D01*
X105850000Y-37804859D01*
X51325000Y-37804859D01*
X51325000Y-34925736D01*
X51819051Y-36121429D01*
X52873022Y-37177242D01*
X54250806Y-37749348D01*
X55742649Y-37750650D01*
X57121429Y-37180949D01*
X58177242Y-36126978D01*
X58749348Y-34749194D01*
X58750650Y-33257351D01*
X58180949Y-31878571D01*
X57126978Y-30822758D01*
X55928244Y-30325000D01*
X160074264Y-30325000D01*
X158878571Y-30819051D01*
X158878571Y-30819051D01*
G37*
X158878571Y-30819051D02*
X157822758Y-31873022D01*
X157250652Y-33250806D01*
X157249350Y-34742649D01*
X157819051Y-36121429D01*
X158873022Y-37177242D01*
X160250806Y-37749348D01*
X161742649Y-37750650D01*
X163121429Y-37180949D01*
X164177242Y-36126978D01*
X164675000Y-34928244D01*
X164675000Y-123074264D01*
X164180949Y-121878571D01*
X163126978Y-120822758D01*
X161749194Y-120250652D01*
X160257351Y-120249350D01*
X158878571Y-120819051D01*
X157822758Y-121873022D01*
X157250652Y-123250806D01*
X157249350Y-124742649D01*
X157819051Y-126121429D01*
X158873022Y-127177242D01*
X160071756Y-127675000D01*
X55925736Y-127675000D01*
X57121429Y-127180949D01*
X58177242Y-126126978D01*
X58525408Y-125288500D01*
X146855000Y-125288500D01*
X146855000Y-126095775D01*
X146970398Y-126374372D01*
X147183627Y-126587601D01*
X147462224Y-126703000D01*
X148269500Y-126703000D01*
X148459000Y-126513500D01*
X148459000Y-125099000D01*
X148467000Y-125099000D01*
X148467000Y-126513500D01*
X148656500Y-126703000D01*
X149463776Y-126703000D01*
X149742373Y-126587601D01*
X149955602Y-126374372D01*
X150071000Y-126095775D01*
X150071000Y-125288500D01*
X149881500Y-125099000D01*
X148467000Y-125099000D01*
X148459000Y-125099000D01*
X147044500Y-125099000D01*
X146855000Y-125288500D01*
X58525408Y-125288500D01*
X58749348Y-124749194D01*
X58750650Y-123257351D01*
X58180949Y-121878571D01*
X57126978Y-120822758D01*
X55749194Y-120250652D01*
X54257351Y-120249350D01*
X52878571Y-120819051D01*
X51822758Y-121873022D01*
X51325000Y-123071756D01*
X51325000Y-115338359D01*
X63114500Y-115338359D01*
X63114500Y-115420641D01*
X63274353Y-116224276D01*
X63729576Y-116905565D01*
X64410865Y-117360788D01*
X65214500Y-117520641D01*
X66018135Y-117360788D01*
X66644506Y-116942260D01*
X66753725Y-116987500D01*
X67561000Y-116987500D01*
X67750500Y-116798000D01*
X67750500Y-115383500D01*
X67758500Y-115383500D01*
X67758500Y-116798000D01*
X67948000Y-116987500D01*
X68755275Y-116987500D01*
X69033872Y-116872102D01*
X69247101Y-116658873D01*
X69362500Y-116380276D01*
X69362500Y-115573000D01*
X69318359Y-115528859D01*
X76640000Y-115528859D01*
X76640000Y-115611141D01*
X76799853Y-116414776D01*
X77255076Y-117096065D01*
X77936365Y-117551288D01*
X78740000Y-117711141D01*
X79543635Y-117551288D01*
X80170006Y-117132760D01*
X80279225Y-117178000D01*
X81086500Y-117178000D01*
X81276000Y-116988500D01*
X81276000Y-115574000D01*
X81284000Y-115574000D01*
X81284000Y-116988500D01*
X81473500Y-117178000D01*
X82280775Y-117178000D01*
X82559372Y-117062602D01*
X82772601Y-116849373D01*
X82888000Y-116570776D01*
X82888000Y-115763500D01*
X82780359Y-115655859D01*
X89022500Y-115655859D01*
X89022500Y-115738141D01*
X89182353Y-116541776D01*
X89637576Y-117223065D01*
X90318865Y-117678288D01*
X91122500Y-117838141D01*
X91926135Y-117678288D01*
X92552506Y-117259760D01*
X92661725Y-117305000D01*
X93469000Y-117305000D01*
X93658500Y-117115500D01*
X93658500Y-115701000D01*
X93666500Y-115701000D01*
X93666500Y-117115500D01*
X93856000Y-117305000D01*
X94663275Y-117305000D01*
X94941872Y-117189602D01*
X95155101Y-116976373D01*
X95270500Y-116697776D01*
X95270500Y-115890500D01*
X95081000Y-115701000D01*
X93666500Y-115701000D01*
X93658500Y-115701000D01*
X93638500Y-115701000D01*
X93638500Y-115693000D01*
X93658500Y-115693000D01*
X93658500Y-114278500D01*
X93666500Y-114278500D01*
X93666500Y-115693000D01*
X95081000Y-115693000D01*
X95270500Y-115503500D01*
X95270500Y-115465359D01*
X103246500Y-115465359D01*
X103246500Y-115547641D01*
X103406353Y-116351276D01*
X103861576Y-117032565D01*
X104542865Y-117487788D01*
X105346500Y-117647641D01*
X106150135Y-117487788D01*
X106776506Y-117069260D01*
X106885725Y-117114500D01*
X107693000Y-117114500D01*
X107882500Y-116925000D01*
X107882500Y-115510500D01*
X107890500Y-115510500D01*
X107890500Y-116925000D01*
X108080000Y-117114500D01*
X108887275Y-117114500D01*
X109165872Y-116999102D01*
X109379101Y-116785873D01*
X109494500Y-116507276D01*
X109494500Y-115700000D01*
X109305000Y-115510500D01*
X107890500Y-115510500D01*
X107882500Y-115510500D01*
X107862500Y-115510500D01*
X107862500Y-115502500D01*
X107882500Y-115502500D01*
X107882500Y-114088000D01*
X107890500Y-114088000D01*
X107890500Y-115502500D01*
X109305000Y-115502500D01*
X109342141Y-115465359D01*
X116454500Y-115465359D01*
X116454500Y-115547641D01*
X116614353Y-116351276D01*
X117069576Y-117032565D01*
X117750865Y-117487788D01*
X118554500Y-117647641D01*
X119358135Y-117487788D01*
X119984506Y-117069260D01*
X120093725Y-117114500D01*
X120901000Y-117114500D01*
X121090500Y-116925000D01*
X121090500Y-115510500D01*
X121098500Y-115510500D01*
X121098500Y-116925000D01*
X121288000Y-117114500D01*
X122095275Y-117114500D01*
X122373872Y-116999102D01*
X122587101Y-116785873D01*
X122702500Y-116507276D01*
X122702500Y-115700000D01*
X122513000Y-115510500D01*
X121098500Y-115510500D01*
X121090500Y-115510500D01*
X121070500Y-115510500D01*
X121070500Y-115502500D01*
X121090500Y-115502500D01*
X121090500Y-114088000D01*
X121098500Y-114088000D01*
X121098500Y-115502500D01*
X122513000Y-115502500D01*
X122702500Y-115313000D01*
X122702500Y-114505724D01*
X122587101Y-114227127D01*
X122373872Y-114013898D01*
X122095275Y-113898500D01*
X121288000Y-113898500D01*
X121098500Y-114088000D01*
X121090500Y-114088000D01*
X120901000Y-113898500D01*
X120093725Y-113898500D01*
X119984506Y-113943740D01*
X119358135Y-113525212D01*
X118554500Y-113365359D01*
X117750865Y-113525212D01*
X117069576Y-113980435D01*
X116614353Y-114661724D01*
X116454500Y-115465359D01*
X109342141Y-115465359D01*
X109494500Y-115313000D01*
X109494500Y-114505724D01*
X109379101Y-114227127D01*
X109165872Y-114013898D01*
X108887275Y-113898500D01*
X108080000Y-113898500D01*
X107890500Y-114088000D01*
X107882500Y-114088000D01*
X107693000Y-113898500D01*
X106885725Y-113898500D01*
X106776506Y-113943740D01*
X106150135Y-113525212D01*
X105346500Y-113365359D01*
X104542865Y-113525212D01*
X103861576Y-113980435D01*
X103406353Y-114661724D01*
X103246500Y-115465359D01*
X95270500Y-115465359D01*
X95270500Y-114696224D01*
X95155101Y-114417627D01*
X94941872Y-114204398D01*
X94663275Y-114089000D01*
X93856000Y-114089000D01*
X93666500Y-114278500D01*
X93658500Y-114278500D01*
X93469000Y-114089000D01*
X92661725Y-114089000D01*
X92552506Y-114134240D01*
X91926135Y-113715712D01*
X91122500Y-113555859D01*
X90318865Y-113715712D01*
X89637576Y-114170935D01*
X89182353Y-114852224D01*
X89022500Y-115655859D01*
X82780359Y-115655859D01*
X82698500Y-115574000D01*
X81284000Y-115574000D01*
X81276000Y-115574000D01*
X81256000Y-115574000D01*
X81256000Y-115566000D01*
X81276000Y-115566000D01*
X81276000Y-114151500D01*
X81284000Y-114151500D01*
X81284000Y-115566000D01*
X82698500Y-115566000D01*
X82888000Y-115376500D01*
X82888000Y-114569224D01*
X82772601Y-114290627D01*
X82559372Y-114077398D01*
X82280775Y-113962000D01*
X81473500Y-113962000D01*
X81284000Y-114151500D01*
X81276000Y-114151500D01*
X81086500Y-113962000D01*
X80279225Y-113962000D01*
X80170006Y-114007240D01*
X79543635Y-113588712D01*
X78740000Y-113428859D01*
X77936365Y-113588712D01*
X77255076Y-114043935D01*
X76799853Y-114725224D01*
X76640000Y-115528859D01*
X69318359Y-115528859D01*
X69173000Y-115383500D01*
X67758500Y-115383500D01*
X67750500Y-115383500D01*
X67730500Y-115383500D01*
X67730500Y-115375500D01*
X67750500Y-115375500D01*
X67750500Y-113961000D01*
X67758500Y-113961000D01*
X67758500Y-115375500D01*
X69173000Y-115375500D01*
X69362500Y-115186000D01*
X69362500Y-114378724D01*
X69247101Y-114100127D01*
X69033872Y-113886898D01*
X68755275Y-113771500D01*
X67948000Y-113771500D01*
X67758500Y-113961000D01*
X67750500Y-113961000D01*
X67561000Y-113771500D01*
X66753725Y-113771500D01*
X66644506Y-113816740D01*
X66018135Y-113398212D01*
X65214500Y-113238359D01*
X64410865Y-113398212D01*
X63729576Y-113853435D01*
X63274353Y-114534724D01*
X63114500Y-115338359D01*
X51325000Y-115338359D01*
X51325000Y-109259000D01*
X128812512Y-109259000D01*
X128812512Y-110959000D01*
X128899673Y-111422222D01*
X129173437Y-111847663D01*
X129591153Y-112133076D01*
X130087000Y-112233488D01*
X131787000Y-112233488D01*
X132250222Y-112146327D01*
X132508501Y-111980129D01*
X132673365Y-112090288D01*
X133477000Y-112250141D01*
X134280635Y-112090288D01*
X134961924Y-111635065D01*
X135102435Y-111424775D01*
X135645511Y-111673500D01*
X135761503Y-111696572D01*
X136013000Y-111527494D01*
X136013000Y-110113000D01*
X136021000Y-110113000D01*
X136021000Y-111527494D01*
X136272497Y-111696572D01*
X136388489Y-111673500D01*
X136958919Y-111412247D01*
X137385951Y-110952586D01*
X137604572Y-110364497D01*
X137435495Y-110113000D01*
X136021000Y-110113000D01*
X136013000Y-110113000D01*
X135993000Y-110113000D01*
X135993000Y-110105000D01*
X136013000Y-110105000D01*
X136013000Y-108690506D01*
X136021000Y-108690506D01*
X136021000Y-110105000D01*
X137435495Y-110105000D01*
X137604572Y-109853503D01*
X137385951Y-109265414D01*
X136958919Y-108805753D01*
X136388489Y-108544500D01*
X136272497Y-108521428D01*
X136021000Y-108690506D01*
X136013000Y-108690506D01*
X135761503Y-108521428D01*
X135645511Y-108544500D01*
X135102435Y-108793225D01*
X134961924Y-108582935D01*
X134280635Y-108127712D01*
X133477000Y-107967859D01*
X132673365Y-108127712D01*
X132507586Y-108238482D01*
X132282847Y-108084924D01*
X131787000Y-107984512D01*
X130087000Y-107984512D01*
X129623778Y-108071673D01*
X129198337Y-108345437D01*
X128912924Y-108763153D01*
X128812512Y-109259000D01*
X51325000Y-109259000D01*
X51325000Y-104052000D01*
X128812512Y-104052000D01*
X128812512Y-105752000D01*
X128899673Y-106215222D01*
X129173437Y-106640663D01*
X129591153Y-106926076D01*
X130087000Y-107026488D01*
X131787000Y-107026488D01*
X132250222Y-106939327D01*
X132508501Y-106773129D01*
X132673365Y-106883288D01*
X133477000Y-107043141D01*
X134280635Y-106883288D01*
X134961924Y-106428065D01*
X135102435Y-106217775D01*
X135645511Y-106466500D01*
X135761503Y-106489572D01*
X136013000Y-106320494D01*
X136013000Y-104906000D01*
X136021000Y-104906000D01*
X136021000Y-106320494D01*
X136272497Y-106489572D01*
X136388489Y-106466500D01*
X136958919Y-106205247D01*
X137385951Y-105745586D01*
X137604572Y-105157497D01*
X137435495Y-104906000D01*
X136021000Y-104906000D01*
X136013000Y-104906000D01*
X135993000Y-104906000D01*
X135993000Y-104898000D01*
X136013000Y-104898000D01*
X136013000Y-103483506D01*
X136021000Y-103483506D01*
X136021000Y-104898000D01*
X137435495Y-104898000D01*
X137604572Y-104646503D01*
X137385951Y-104058414D01*
X136958919Y-103598753D01*
X136388489Y-103337500D01*
X136272497Y-103314428D01*
X136021000Y-103483506D01*
X136013000Y-103483506D01*
X135761503Y-103314428D01*
X135645511Y-103337500D01*
X135102435Y-103586225D01*
X134961924Y-103375935D01*
X134280635Y-102920712D01*
X133477000Y-102760859D01*
X132673365Y-102920712D01*
X132507586Y-103031482D01*
X132282847Y-102877924D01*
X131787000Y-102777512D01*
X130087000Y-102777512D01*
X129623778Y-102864673D01*
X129198337Y-103138437D01*
X128912924Y-103556153D01*
X128812512Y-104052000D01*
X51325000Y-104052000D01*
X51325000Y-102235000D01*
X146321859Y-102235000D01*
X146481712Y-103038635D01*
X146793327Y-103505000D01*
X146481712Y-103971365D01*
X146321859Y-104775000D01*
X146481712Y-105578635D01*
X146793327Y-106045000D01*
X146481712Y-106511365D01*
X146321859Y-107315000D01*
X146481712Y-108118635D01*
X146793327Y-108585000D01*
X146481712Y-109051365D01*
X146321859Y-109855000D01*
X146481712Y-110658635D01*
X146793327Y-111125000D01*
X146481712Y-111591365D01*
X146321859Y-112395000D01*
X146481712Y-113198635D01*
X146793327Y-113665000D01*
X146481712Y-114131365D01*
X146321859Y-114935000D01*
X146481712Y-115738635D01*
X146793327Y-116205000D01*
X146481712Y-116671365D01*
X146321859Y-117475000D01*
X146481712Y-118278635D01*
X146793327Y-118745000D01*
X146481712Y-119211365D01*
X146321859Y-120015000D01*
X146481712Y-120818635D01*
X146793327Y-121285000D01*
X146481712Y-121751365D01*
X146321859Y-122555000D01*
X146481712Y-123358635D01*
X146900240Y-123985006D01*
X146855000Y-124094225D01*
X146855000Y-124901500D01*
X147044500Y-125091000D01*
X148459000Y-125091000D01*
X148459000Y-125071000D01*
X148467000Y-125071000D01*
X148467000Y-125091000D01*
X149881500Y-125091000D01*
X150071000Y-124901500D01*
X150071000Y-124094225D01*
X150025760Y-123985006D01*
X150444288Y-123358635D01*
X150604141Y-122555000D01*
X150444288Y-121751365D01*
X150132673Y-121285000D01*
X150444288Y-120818635D01*
X150604141Y-120015000D01*
X150444288Y-119211365D01*
X150132673Y-118745000D01*
X150444288Y-118278635D01*
X150604141Y-117475000D01*
X150444288Y-116671365D01*
X150132673Y-116205000D01*
X150444288Y-115738635D01*
X150604141Y-114935000D01*
X150444288Y-114131365D01*
X150132673Y-113665000D01*
X150444288Y-113198635D01*
X150604141Y-112395000D01*
X150444288Y-111591365D01*
X150132673Y-111125000D01*
X150444288Y-110658635D01*
X150604141Y-109855000D01*
X150444288Y-109051365D01*
X150132673Y-108585000D01*
X150444288Y-108118635D01*
X150604141Y-107315000D01*
X150444288Y-106511365D01*
X150132673Y-106045000D01*
X150444288Y-105578635D01*
X150604141Y-104775000D01*
X150444288Y-103971365D01*
X150132673Y-103505000D01*
X150444288Y-103038635D01*
X150604141Y-102235000D01*
X150444288Y-101431365D01*
X149989065Y-100750076D01*
X149778775Y-100609565D01*
X150027500Y-100066489D01*
X150050572Y-99950497D01*
X149881494Y-99699000D01*
X148467000Y-99699000D01*
X148467000Y-99719000D01*
X148459000Y-99719000D01*
X148459000Y-99699000D01*
X147044506Y-99699000D01*
X146875428Y-99950497D01*
X146898500Y-100066489D01*
X147147225Y-100609565D01*
X146936935Y-100750076D01*
X146481712Y-101431365D01*
X146321859Y-102235000D01*
X51325000Y-102235000D01*
X51325000Y-99439503D01*
X146875428Y-99439503D01*
X147044506Y-99691000D01*
X148459000Y-99691000D01*
X148459000Y-98276505D01*
X148467000Y-98276505D01*
X148467000Y-99691000D01*
X149881494Y-99691000D01*
X150050572Y-99439503D01*
X150027500Y-99323511D01*
X149766247Y-98753081D01*
X149306586Y-98326049D01*
X148718497Y-98107428D01*
X148467000Y-98276505D01*
X148459000Y-98276505D01*
X148207503Y-98107428D01*
X147619414Y-98326049D01*
X147159753Y-98753081D01*
X146898500Y-99323511D01*
X146875428Y-99439503D01*
X51325000Y-99439503D01*
X51325000Y-89112859D01*
X63686000Y-89112859D01*
X63686000Y-89195141D01*
X63845853Y-89998776D01*
X64301076Y-90680065D01*
X64982365Y-91135288D01*
X65786000Y-91295141D01*
X66589635Y-91135288D01*
X67270924Y-90680065D01*
X67411435Y-90469775D01*
X67954511Y-90718500D01*
X68070503Y-90741572D01*
X68322000Y-90572494D01*
X68322000Y-89158000D01*
X68302000Y-89158000D01*
X68302000Y-89150000D01*
X68322000Y-89150000D01*
X68322000Y-87735506D01*
X68330000Y-87735506D01*
X68330000Y-89150000D01*
X68350000Y-89150000D01*
X68350000Y-89158000D01*
X68330000Y-89158000D01*
X68330000Y-90572494D01*
X68581497Y-90741572D01*
X68697489Y-90718500D01*
X69240565Y-90469775D01*
X69381076Y-90680065D01*
X70062365Y-91135288D01*
X70866000Y-91295141D01*
X71669635Y-91135288D01*
X71835414Y-91024518D01*
X72060153Y-91178076D01*
X72556000Y-91278488D01*
X74256000Y-91278488D01*
X74719222Y-91191327D01*
X75144663Y-90917563D01*
X75430076Y-90499847D01*
X75530488Y-90004000D01*
X75530488Y-89112859D01*
X83879000Y-89112859D01*
X83879000Y-89195141D01*
X84038853Y-89998776D01*
X84494076Y-90680065D01*
X85175365Y-91135288D01*
X85979000Y-91295141D01*
X86782635Y-91135288D01*
X87463924Y-90680065D01*
X87604435Y-90469775D01*
X88147511Y-90718500D01*
X88263503Y-90741572D01*
X88515000Y-90572494D01*
X88515000Y-89158000D01*
X88495000Y-89158000D01*
X88495000Y-89150000D01*
X88515000Y-89150000D01*
X88515000Y-87735506D01*
X88523000Y-87735506D01*
X88523000Y-89150000D01*
X88543000Y-89150000D01*
X88543000Y-89158000D01*
X88523000Y-89158000D01*
X88523000Y-90572494D01*
X88774497Y-90741572D01*
X88890489Y-90718500D01*
X89433565Y-90469775D01*
X89574076Y-90680065D01*
X90255365Y-91135288D01*
X91059000Y-91295141D01*
X91862635Y-91135288D01*
X92028414Y-91024518D01*
X92253153Y-91178076D01*
X92749000Y-91278488D01*
X94449000Y-91278488D01*
X94912222Y-91191327D01*
X95337663Y-90917563D01*
X95623076Y-90499847D01*
X95723488Y-90004000D01*
X95723488Y-88304000D01*
X95636327Y-87840778D01*
X95362563Y-87415337D01*
X94944847Y-87129924D01*
X94449000Y-87029512D01*
X92749000Y-87029512D01*
X92285778Y-87116673D01*
X92027499Y-87282871D01*
X91862635Y-87172712D01*
X91059000Y-87012859D01*
X90255365Y-87172712D01*
X89574076Y-87627935D01*
X89433565Y-87838225D01*
X88890489Y-87589500D01*
X88774497Y-87566428D01*
X88523000Y-87735506D01*
X88515000Y-87735506D01*
X88263503Y-87566428D01*
X88147511Y-87589500D01*
X87604435Y-87838225D01*
X87463924Y-87627935D01*
X86782635Y-87172712D01*
X85979000Y-87012859D01*
X85175365Y-87172712D01*
X84494076Y-87627935D01*
X84038853Y-88309224D01*
X83879000Y-89112859D01*
X75530488Y-89112859D01*
X75530488Y-88304000D01*
X75443327Y-87840778D01*
X75169563Y-87415337D01*
X74751847Y-87129924D01*
X74256000Y-87029512D01*
X72556000Y-87029512D01*
X72092778Y-87116673D01*
X71834499Y-87282871D01*
X71669635Y-87172712D01*
X70866000Y-87012859D01*
X70062365Y-87172712D01*
X69381076Y-87627935D01*
X69240565Y-87838225D01*
X68697489Y-87589500D01*
X68581497Y-87566428D01*
X68330000Y-87735506D01*
X68322000Y-87735506D01*
X68070503Y-87566428D01*
X67954511Y-87589500D01*
X67411435Y-87838225D01*
X67270924Y-87627935D01*
X66589635Y-87172712D01*
X65786000Y-87012859D01*
X64982365Y-87172712D01*
X64301076Y-87627935D01*
X63845853Y-88309224D01*
X63686000Y-89112859D01*
X51325000Y-89112859D01*
X51325000Y-81746859D01*
X63559000Y-81746859D01*
X63559000Y-81829141D01*
X63718853Y-82632776D01*
X64174076Y-83314065D01*
X64855365Y-83769288D01*
X65659000Y-83929141D01*
X66462635Y-83769288D01*
X67143924Y-83314065D01*
X67284435Y-83103775D01*
X67827511Y-83352500D01*
X67943503Y-83375572D01*
X68195000Y-83206494D01*
X68195000Y-81792000D01*
X68175000Y-81792000D01*
X68175000Y-81784000D01*
X68195000Y-81784000D01*
X68195000Y-80369506D01*
X68203000Y-80369506D01*
X68203000Y-81784000D01*
X68223000Y-81784000D01*
X68223000Y-81792000D01*
X68203000Y-81792000D01*
X68203000Y-83206494D01*
X68454497Y-83375572D01*
X68570489Y-83352500D01*
X69113565Y-83103775D01*
X69254076Y-83314065D01*
X69935365Y-83769288D01*
X70739000Y-83929141D01*
X71542635Y-83769288D01*
X71708414Y-83658518D01*
X71933153Y-83812076D01*
X72429000Y-83912488D01*
X74129000Y-83912488D01*
X74592222Y-83825327D01*
X75017663Y-83551563D01*
X75303076Y-83133847D01*
X75403488Y-82638000D01*
X75403488Y-81746859D01*
X83879000Y-81746859D01*
X83879000Y-81829141D01*
X84038853Y-82632776D01*
X84494076Y-83314065D01*
X85175365Y-83769288D01*
X85979000Y-83929141D01*
X86782635Y-83769288D01*
X87463924Y-83314065D01*
X87604435Y-83103775D01*
X88147511Y-83352500D01*
X88263503Y-83375572D01*
X88515000Y-83206494D01*
X88515000Y-81792000D01*
X88495000Y-81792000D01*
X88495000Y-81784000D01*
X88515000Y-81784000D01*
X88515000Y-80369506D01*
X88523000Y-80369506D01*
X88523000Y-81784000D01*
X88543000Y-81784000D01*
X88543000Y-81792000D01*
X88523000Y-81792000D01*
X88523000Y-83206494D01*
X88774497Y-83375572D01*
X88890489Y-83352500D01*
X89433565Y-83103775D01*
X89574076Y-83314065D01*
X90255365Y-83769288D01*
X91059000Y-83929141D01*
X91862635Y-83769288D01*
X92028414Y-83658518D01*
X92253153Y-83812076D01*
X92749000Y-83912488D01*
X94449000Y-83912488D01*
X94912222Y-83825327D01*
X95337663Y-83551563D01*
X95623076Y-83133847D01*
X95723488Y-82638000D01*
X95723488Y-80938000D01*
X95636327Y-80474778D01*
X95362563Y-80049337D01*
X94944847Y-79763924D01*
X94449000Y-79663512D01*
X92749000Y-79663512D01*
X92285778Y-79750673D01*
X92027499Y-79916871D01*
X91862635Y-79806712D01*
X91059000Y-79646859D01*
X90255365Y-79806712D01*
X89574076Y-80261935D01*
X89433565Y-80472225D01*
X88890489Y-80223500D01*
X88774497Y-80200428D01*
X88523000Y-80369506D01*
X88515000Y-80369506D01*
X88263503Y-80200428D01*
X88147511Y-80223500D01*
X87604435Y-80472225D01*
X87463924Y-80261935D01*
X86782635Y-79806712D01*
X85979000Y-79646859D01*
X85175365Y-79806712D01*
X84494076Y-80261935D01*
X84038853Y-80943224D01*
X83879000Y-81746859D01*
X75403488Y-81746859D01*
X75403488Y-80938000D01*
X75316327Y-80474778D01*
X75042563Y-80049337D01*
X74624847Y-79763924D01*
X74129000Y-79663512D01*
X72429000Y-79663512D01*
X71965778Y-79750673D01*
X71707499Y-79916871D01*
X71542635Y-79806712D01*
X70739000Y-79646859D01*
X69935365Y-79806712D01*
X69254076Y-80261935D01*
X69113565Y-80472225D01*
X68570489Y-80223500D01*
X68454497Y-80200428D01*
X68203000Y-80369506D01*
X68195000Y-80369506D01*
X67943503Y-80200428D01*
X67827511Y-80223500D01*
X67284435Y-80472225D01*
X67143924Y-80261935D01*
X66462635Y-79806712D01*
X65659000Y-79646859D01*
X64855365Y-79806712D01*
X64174076Y-80261935D01*
X63718853Y-80943224D01*
X63559000Y-81746859D01*
X51325000Y-81746859D01*
X51325000Y-74380859D01*
X63559000Y-74380859D01*
X63559000Y-74463141D01*
X63718853Y-75266776D01*
X64174076Y-75948065D01*
X64855365Y-76403288D01*
X65659000Y-76563141D01*
X66462635Y-76403288D01*
X67143924Y-75948065D01*
X67284435Y-75737775D01*
X67827511Y-75986500D01*
X67943503Y-76009572D01*
X68195000Y-75840494D01*
X68195000Y-74426000D01*
X68175000Y-74426000D01*
X68175000Y-74418000D01*
X68195000Y-74418000D01*
X68195000Y-73003506D01*
X68203000Y-73003506D01*
X68203000Y-74418000D01*
X68223000Y-74418000D01*
X68223000Y-74426000D01*
X68203000Y-74426000D01*
X68203000Y-75840494D01*
X68454497Y-76009572D01*
X68570489Y-75986500D01*
X69113565Y-75737775D01*
X69254076Y-75948065D01*
X69935365Y-76403288D01*
X70739000Y-76563141D01*
X71542635Y-76403288D01*
X71708414Y-76292518D01*
X71933153Y-76446076D01*
X72429000Y-76546488D01*
X74129000Y-76546488D01*
X74592222Y-76459327D01*
X75017663Y-76185563D01*
X75303076Y-75767847D01*
X75403488Y-75272000D01*
X75403488Y-74380859D01*
X83752000Y-74380859D01*
X83752000Y-74463141D01*
X83911853Y-75266776D01*
X84367076Y-75948065D01*
X85048365Y-76403288D01*
X85852000Y-76563141D01*
X86655635Y-76403288D01*
X87336924Y-75948065D01*
X87477435Y-75737775D01*
X88020511Y-75986500D01*
X88136503Y-76009572D01*
X88388000Y-75840494D01*
X88388000Y-74426000D01*
X88368000Y-74426000D01*
X88368000Y-74418000D01*
X88388000Y-74418000D01*
X88388000Y-73003506D01*
X88396000Y-73003506D01*
X88396000Y-74418000D01*
X88416000Y-74418000D01*
X88416000Y-74426000D01*
X88396000Y-74426000D01*
X88396000Y-75840494D01*
X88647497Y-76009572D01*
X88763489Y-75986500D01*
X89306565Y-75737775D01*
X89447076Y-75948065D01*
X90128365Y-76403288D01*
X90932000Y-76563141D01*
X91735635Y-76403288D01*
X91901414Y-76292518D01*
X92126153Y-76446076D01*
X92622000Y-76546488D01*
X94322000Y-76546488D01*
X94785222Y-76459327D01*
X95210663Y-76185563D01*
X95496076Y-75767847D01*
X95596488Y-75272000D01*
X95596488Y-73572000D01*
X95509327Y-73108778D01*
X95317069Y-72810000D01*
X102015512Y-72810000D01*
X102015512Y-74510000D01*
X102097442Y-74945420D01*
X102015512Y-75350000D01*
X102015512Y-77050000D01*
X102097442Y-77485420D01*
X102015512Y-77890000D01*
X102015512Y-79590000D01*
X102097442Y-80025420D01*
X102015512Y-80430000D01*
X102015512Y-82130000D01*
X102097442Y-82565420D01*
X102015512Y-82970000D01*
X102015512Y-84670000D01*
X102097442Y-85105420D01*
X102015512Y-85510000D01*
X102015512Y-87210000D01*
X102097442Y-87645420D01*
X102015512Y-88050000D01*
X102015512Y-89750000D01*
X102097442Y-90185420D01*
X102015512Y-90590000D01*
X102015512Y-92290000D01*
X102097442Y-92725420D01*
X102015512Y-93130000D01*
X102015512Y-94830000D01*
X102097442Y-95265420D01*
X102015512Y-95670000D01*
X102015512Y-97370000D01*
X102102673Y-97833222D01*
X102376437Y-98258663D01*
X102794153Y-98544076D01*
X103290000Y-98644488D01*
X104990000Y-98644488D01*
X105425420Y-98562558D01*
X105830000Y-98644488D01*
X107530000Y-98644488D01*
X107965420Y-98562558D01*
X108370000Y-98644488D01*
X110070000Y-98644488D01*
X110505420Y-98562558D01*
X110910000Y-98644488D01*
X112610000Y-98644488D01*
X113045420Y-98562558D01*
X113450000Y-98644488D01*
X115150000Y-98644488D01*
X115613222Y-98557327D01*
X116038663Y-98283563D01*
X116324076Y-97865847D01*
X116424488Y-97370000D01*
X116424488Y-95670000D01*
X116342558Y-95234580D01*
X116424488Y-94830000D01*
X116424488Y-93130000D01*
X116342558Y-92694580D01*
X116424488Y-92290000D01*
X116424488Y-90590000D01*
X116342558Y-90154580D01*
X116424488Y-89750000D01*
X116424488Y-89112859D01*
X123757000Y-89112859D01*
X123757000Y-89195141D01*
X123916853Y-89998776D01*
X124372076Y-90680065D01*
X125053365Y-91135288D01*
X125857000Y-91295141D01*
X126660635Y-91135288D01*
X127341924Y-90680065D01*
X127482435Y-90469775D01*
X128025511Y-90718500D01*
X128141503Y-90741572D01*
X128393000Y-90572494D01*
X128393000Y-89158000D01*
X128373000Y-89158000D01*
X128373000Y-89150000D01*
X128393000Y-89150000D01*
X128393000Y-87735506D01*
X128401000Y-87735506D01*
X128401000Y-89150000D01*
X128421000Y-89150000D01*
X128421000Y-89158000D01*
X128401000Y-89158000D01*
X128401000Y-90572494D01*
X128652497Y-90741572D01*
X128768489Y-90718500D01*
X129311565Y-90469775D01*
X129452076Y-90680065D01*
X130133365Y-91135288D01*
X130937000Y-91295141D01*
X131740635Y-91135288D01*
X131906414Y-91024518D01*
X132131153Y-91178076D01*
X132627000Y-91278488D01*
X134327000Y-91278488D01*
X134790222Y-91191327D01*
X135215663Y-90917563D01*
X135501076Y-90499847D01*
X135601488Y-90004000D01*
X135601488Y-89112859D01*
X143950000Y-89112859D01*
X143950000Y-89195141D01*
X144109853Y-89998776D01*
X144565076Y-90680065D01*
X145246365Y-91135288D01*
X146050000Y-91295141D01*
X146853635Y-91135288D01*
X147534924Y-90680065D01*
X147675435Y-90469775D01*
X148218511Y-90718500D01*
X148334503Y-90741572D01*
X148586000Y-90572494D01*
X148586000Y-89158000D01*
X148566000Y-89158000D01*
X148566000Y-89150000D01*
X148586000Y-89150000D01*
X148586000Y-87735506D01*
X148594000Y-87735506D01*
X148594000Y-89150000D01*
X148614000Y-89150000D01*
X148614000Y-89158000D01*
X148594000Y-89158000D01*
X148594000Y-90572494D01*
X148845497Y-90741572D01*
X148961489Y-90718500D01*
X149504565Y-90469775D01*
X149645076Y-90680065D01*
X150326365Y-91135288D01*
X151130000Y-91295141D01*
X151933635Y-91135288D01*
X152099414Y-91024518D01*
X152324153Y-91178076D01*
X152820000Y-91278488D01*
X154520000Y-91278488D01*
X154983222Y-91191327D01*
X155408663Y-90917563D01*
X155694076Y-90499847D01*
X155794488Y-90004000D01*
X155794488Y-88304000D01*
X155707327Y-87840778D01*
X155433563Y-87415337D01*
X155015847Y-87129924D01*
X154520000Y-87029512D01*
X152820000Y-87029512D01*
X152356778Y-87116673D01*
X152098499Y-87282871D01*
X151933635Y-87172712D01*
X151130000Y-87012859D01*
X150326365Y-87172712D01*
X149645076Y-87627935D01*
X149504565Y-87838225D01*
X148961489Y-87589500D01*
X148845497Y-87566428D01*
X148594000Y-87735506D01*
X148586000Y-87735506D01*
X148334503Y-87566428D01*
X148218511Y-87589500D01*
X147675435Y-87838225D01*
X147534924Y-87627935D01*
X146853635Y-87172712D01*
X146050000Y-87012859D01*
X145246365Y-87172712D01*
X144565076Y-87627935D01*
X144109853Y-88309224D01*
X143950000Y-89112859D01*
X135601488Y-89112859D01*
X135601488Y-88304000D01*
X135514327Y-87840778D01*
X135240563Y-87415337D01*
X134822847Y-87129924D01*
X134327000Y-87029512D01*
X132627000Y-87029512D01*
X132163778Y-87116673D01*
X131905499Y-87282871D01*
X131740635Y-87172712D01*
X130937000Y-87012859D01*
X130133365Y-87172712D01*
X129452076Y-87627935D01*
X129311565Y-87838225D01*
X128768489Y-87589500D01*
X128652497Y-87566428D01*
X128401000Y-87735506D01*
X128393000Y-87735506D01*
X128141503Y-87566428D01*
X128025511Y-87589500D01*
X127482435Y-87838225D01*
X127341924Y-87627935D01*
X126660635Y-87172712D01*
X125857000Y-87012859D01*
X125053365Y-87172712D01*
X124372076Y-87627935D01*
X123916853Y-88309224D01*
X123757000Y-89112859D01*
X116424488Y-89112859D01*
X116424488Y-88050000D01*
X116342558Y-87614580D01*
X116424488Y-87210000D01*
X116424488Y-85510000D01*
X116342558Y-85074580D01*
X116424488Y-84670000D01*
X116424488Y-82970000D01*
X116342558Y-82534580D01*
X116424488Y-82130000D01*
X116424488Y-81746859D01*
X123884000Y-81746859D01*
X123884000Y-81829141D01*
X124043853Y-82632776D01*
X124499076Y-83314065D01*
X125180365Y-83769288D01*
X125984000Y-83929141D01*
X126787635Y-83769288D01*
X127468924Y-83314065D01*
X127609435Y-83103775D01*
X128152511Y-83352500D01*
X128268503Y-83375572D01*
X128520000Y-83206494D01*
X128520000Y-81792000D01*
X128500000Y-81792000D01*
X128500000Y-81784000D01*
X128520000Y-81784000D01*
X128520000Y-80369506D01*
X128528000Y-80369506D01*
X128528000Y-81784000D01*
X128548000Y-81784000D01*
X128548000Y-81792000D01*
X128528000Y-81792000D01*
X128528000Y-83206494D01*
X128779497Y-83375572D01*
X128895489Y-83352500D01*
X129438565Y-83103775D01*
X129579076Y-83314065D01*
X130260365Y-83769288D01*
X131064000Y-83929141D01*
X131867635Y-83769288D01*
X132033414Y-83658518D01*
X132258153Y-83812076D01*
X132754000Y-83912488D01*
X134454000Y-83912488D01*
X134917222Y-83825327D01*
X135342663Y-83551563D01*
X135628076Y-83133847D01*
X135728488Y-82638000D01*
X135728488Y-81746859D01*
X143823000Y-81746859D01*
X143823000Y-81829141D01*
X143982853Y-82632776D01*
X144438076Y-83314065D01*
X145119365Y-83769288D01*
X145923000Y-83929141D01*
X146726635Y-83769288D01*
X147407924Y-83314065D01*
X147548435Y-83103775D01*
X148091511Y-83352500D01*
X148207503Y-83375572D01*
X148459000Y-83206494D01*
X148459000Y-81792000D01*
X148439000Y-81792000D01*
X148439000Y-81784000D01*
X148459000Y-81784000D01*
X148459000Y-80369506D01*
X148467000Y-80369506D01*
X148467000Y-81784000D01*
X148487000Y-81784000D01*
X148487000Y-81792000D01*
X148467000Y-81792000D01*
X148467000Y-83206494D01*
X148718497Y-83375572D01*
X148834489Y-83352500D01*
X149377565Y-83103775D01*
X149518076Y-83314065D01*
X150199365Y-83769288D01*
X151003000Y-83929141D01*
X151806635Y-83769288D01*
X151972414Y-83658518D01*
X152197153Y-83812076D01*
X152693000Y-83912488D01*
X154393000Y-83912488D01*
X154856222Y-83825327D01*
X155281663Y-83551563D01*
X155567076Y-83133847D01*
X155667488Y-82638000D01*
X155667488Y-80938000D01*
X155580327Y-80474778D01*
X155306563Y-80049337D01*
X154888847Y-79763924D01*
X154393000Y-79663512D01*
X152693000Y-79663512D01*
X152229778Y-79750673D01*
X151971499Y-79916871D01*
X151806635Y-79806712D01*
X151003000Y-79646859D01*
X150199365Y-79806712D01*
X149518076Y-80261935D01*
X149377565Y-80472225D01*
X148834489Y-80223500D01*
X148718497Y-80200428D01*
X148467000Y-80369506D01*
X148459000Y-80369506D01*
X148207503Y-80200428D01*
X148091511Y-80223500D01*
X147548435Y-80472225D01*
X147407924Y-80261935D01*
X146726635Y-79806712D01*
X145923000Y-79646859D01*
X145119365Y-79806712D01*
X144438076Y-80261935D01*
X143982853Y-80943224D01*
X143823000Y-81746859D01*
X135728488Y-81746859D01*
X135728488Y-80938000D01*
X135641327Y-80474778D01*
X135367563Y-80049337D01*
X134949847Y-79763924D01*
X134454000Y-79663512D01*
X132754000Y-79663512D01*
X132290778Y-79750673D01*
X132032499Y-79916871D01*
X131867635Y-79806712D01*
X131064000Y-79646859D01*
X130260365Y-79806712D01*
X129579076Y-80261935D01*
X129438565Y-80472225D01*
X128895489Y-80223500D01*
X128779497Y-80200428D01*
X128528000Y-80369506D01*
X128520000Y-80369506D01*
X128268503Y-80200428D01*
X128152511Y-80223500D01*
X127609435Y-80472225D01*
X127468924Y-80261935D01*
X126787635Y-79806712D01*
X125984000Y-79646859D01*
X125180365Y-79806712D01*
X124499076Y-80261935D01*
X124043853Y-80943224D01*
X123884000Y-81746859D01*
X116424488Y-81746859D01*
X116424488Y-80430000D01*
X116342558Y-79994580D01*
X116424488Y-79590000D01*
X116424488Y-77890000D01*
X116342558Y-77454580D01*
X116424488Y-77050000D01*
X116424488Y-75350000D01*
X116342558Y-74914580D01*
X116424488Y-74510000D01*
X116424488Y-74380859D01*
X123884000Y-74380859D01*
X123884000Y-74463141D01*
X124043853Y-75266776D01*
X124499076Y-75948065D01*
X125180365Y-76403288D01*
X125984000Y-76563141D01*
X126787635Y-76403288D01*
X127468924Y-75948065D01*
X127609435Y-75737775D01*
X128152511Y-75986500D01*
X128268503Y-76009572D01*
X128520000Y-75840494D01*
X128520000Y-74426000D01*
X128500000Y-74426000D01*
X128500000Y-74418000D01*
X128520000Y-74418000D01*
X128520000Y-73003506D01*
X128528000Y-73003506D01*
X128528000Y-74418000D01*
X128548000Y-74418000D01*
X128548000Y-74426000D01*
X128528000Y-74426000D01*
X128528000Y-75840494D01*
X128779497Y-76009572D01*
X128895489Y-75986500D01*
X129438565Y-75737775D01*
X129579076Y-75948065D01*
X130260365Y-76403288D01*
X131064000Y-76563141D01*
X131867635Y-76403288D01*
X132033414Y-76292518D01*
X132258153Y-76446076D01*
X132754000Y-76546488D01*
X134454000Y-76546488D01*
X134917222Y-76459327D01*
X135342663Y-76185563D01*
X135628076Y-75767847D01*
X135728488Y-75272000D01*
X135728488Y-74380859D01*
X143950000Y-74380859D01*
X143950000Y-74463141D01*
X144109853Y-75266776D01*
X144565076Y-75948065D01*
X145246365Y-76403288D01*
X146050000Y-76563141D01*
X146853635Y-76403288D01*
X147534924Y-75948065D01*
X147675435Y-75737775D01*
X148218511Y-75986500D01*
X148334503Y-76009572D01*
X148586000Y-75840494D01*
X148586000Y-74426000D01*
X148566000Y-74426000D01*
X148566000Y-74418000D01*
X148586000Y-74418000D01*
X148586000Y-73003506D01*
X148594000Y-73003506D01*
X148594000Y-74418000D01*
X148614000Y-74418000D01*
X148614000Y-74426000D01*
X148594000Y-74426000D01*
X148594000Y-75840494D01*
X148845497Y-76009572D01*
X148961489Y-75986500D01*
X149504565Y-75737775D01*
X149645076Y-75948065D01*
X150326365Y-76403288D01*
X151130000Y-76563141D01*
X151933635Y-76403288D01*
X152099414Y-76292518D01*
X152324153Y-76446076D01*
X152820000Y-76546488D01*
X154520000Y-76546488D01*
X154983222Y-76459327D01*
X155408663Y-76185563D01*
X155694076Y-75767847D01*
X155794488Y-75272000D01*
X155794488Y-73572000D01*
X155707327Y-73108778D01*
X155433563Y-72683337D01*
X155015847Y-72397924D01*
X154520000Y-72297512D01*
X152820000Y-72297512D01*
X152356778Y-72384673D01*
X152098499Y-72550871D01*
X151933635Y-72440712D01*
X151130000Y-72280859D01*
X150326365Y-72440712D01*
X149645076Y-72895935D01*
X149504565Y-73106225D01*
X148961489Y-72857500D01*
X148845497Y-72834428D01*
X148594000Y-73003506D01*
X148586000Y-73003506D01*
X148334503Y-72834428D01*
X148218511Y-72857500D01*
X147675435Y-73106225D01*
X147534924Y-72895935D01*
X146853635Y-72440712D01*
X146050000Y-72280859D01*
X145246365Y-72440712D01*
X144565076Y-72895935D01*
X144109853Y-73577224D01*
X143950000Y-74380859D01*
X135728488Y-74380859D01*
X135728488Y-73572000D01*
X135641327Y-73108778D01*
X135367563Y-72683337D01*
X134949847Y-72397924D01*
X134454000Y-72297512D01*
X132754000Y-72297512D01*
X132290778Y-72384673D01*
X132032499Y-72550871D01*
X131867635Y-72440712D01*
X131064000Y-72280859D01*
X130260365Y-72440712D01*
X129579076Y-72895935D01*
X129438565Y-73106225D01*
X128895489Y-72857500D01*
X128779497Y-72834428D01*
X128528000Y-73003506D01*
X128520000Y-73003506D01*
X128268503Y-72834428D01*
X128152511Y-72857500D01*
X127609435Y-73106225D01*
X127468924Y-72895935D01*
X126787635Y-72440712D01*
X125984000Y-72280859D01*
X125180365Y-72440712D01*
X124499076Y-72895935D01*
X124043853Y-73577224D01*
X123884000Y-74380859D01*
X116424488Y-74380859D01*
X116424488Y-72810000D01*
X116337327Y-72346778D01*
X116063563Y-71921337D01*
X115645847Y-71635924D01*
X115150000Y-71535512D01*
X113450000Y-71535512D01*
X113014580Y-71617442D01*
X112610000Y-71535512D01*
X110910000Y-71535512D01*
X110474580Y-71617442D01*
X110070000Y-71535512D01*
X108370000Y-71535512D01*
X107934580Y-71617442D01*
X107530000Y-71535512D01*
X105830000Y-71535512D01*
X105394580Y-71617442D01*
X104990000Y-71535512D01*
X103290000Y-71535512D01*
X102826778Y-71622673D01*
X102401337Y-71896437D01*
X102115924Y-72314153D01*
X102015512Y-72810000D01*
X95317069Y-72810000D01*
X95235563Y-72683337D01*
X94817847Y-72397924D01*
X94322000Y-72297512D01*
X92622000Y-72297512D01*
X92158778Y-72384673D01*
X91900499Y-72550871D01*
X91735635Y-72440712D01*
X90932000Y-72280859D01*
X90128365Y-72440712D01*
X89447076Y-72895935D01*
X89306565Y-73106225D01*
X88763489Y-72857500D01*
X88647497Y-72834428D01*
X88396000Y-73003506D01*
X88388000Y-73003506D01*
X88136503Y-72834428D01*
X88020511Y-72857500D01*
X87477435Y-73106225D01*
X87336924Y-72895935D01*
X86655635Y-72440712D01*
X85852000Y-72280859D01*
X85048365Y-72440712D01*
X84367076Y-72895935D01*
X83911853Y-73577224D01*
X83752000Y-74380859D01*
X75403488Y-74380859D01*
X75403488Y-73572000D01*
X75316327Y-73108778D01*
X75042563Y-72683337D01*
X74624847Y-72397924D01*
X74129000Y-72297512D01*
X72429000Y-72297512D01*
X71965778Y-72384673D01*
X71707499Y-72550871D01*
X71542635Y-72440712D01*
X70739000Y-72280859D01*
X69935365Y-72440712D01*
X69254076Y-72895935D01*
X69113565Y-73106225D01*
X68570489Y-72857500D01*
X68454497Y-72834428D01*
X68203000Y-73003506D01*
X68195000Y-73003506D01*
X67943503Y-72834428D01*
X67827511Y-72857500D01*
X67284435Y-73106225D01*
X67143924Y-72895935D01*
X66462635Y-72440712D01*
X65659000Y-72280859D01*
X64855365Y-72440712D01*
X64174076Y-72895935D01*
X63718853Y-73577224D01*
X63559000Y-74380859D01*
X51325000Y-74380859D01*
X51325000Y-67014859D01*
X63686000Y-67014859D01*
X63686000Y-67097141D01*
X63845853Y-67900776D01*
X64301076Y-68582065D01*
X64982365Y-69037288D01*
X65786000Y-69197141D01*
X66589635Y-69037288D01*
X67270924Y-68582065D01*
X67411435Y-68371775D01*
X67954511Y-68620500D01*
X68070503Y-68643572D01*
X68322000Y-68474494D01*
X68322000Y-67060000D01*
X68302000Y-67060000D01*
X68302000Y-67052000D01*
X68322000Y-67052000D01*
X68322000Y-65637506D01*
X68330000Y-65637506D01*
X68330000Y-67052000D01*
X68350000Y-67052000D01*
X68350000Y-67060000D01*
X68330000Y-67060000D01*
X68330000Y-68474494D01*
X68581497Y-68643572D01*
X68697489Y-68620500D01*
X69240565Y-68371775D01*
X69381076Y-68582065D01*
X70062365Y-69037288D01*
X70866000Y-69197141D01*
X71669635Y-69037288D01*
X71835414Y-68926518D01*
X72060153Y-69080076D01*
X72556000Y-69180488D01*
X74256000Y-69180488D01*
X74719222Y-69093327D01*
X75144663Y-68819563D01*
X75430076Y-68401847D01*
X75530488Y-67906000D01*
X75530488Y-67014859D01*
X83752000Y-67014859D01*
X83752000Y-67097141D01*
X83911853Y-67900776D01*
X84367076Y-68582065D01*
X85048365Y-69037288D01*
X85852000Y-69197141D01*
X86655635Y-69037288D01*
X87336924Y-68582065D01*
X87477435Y-68371775D01*
X88020511Y-68620500D01*
X88136503Y-68643572D01*
X88388000Y-68474494D01*
X88388000Y-67060000D01*
X88368000Y-67060000D01*
X88368000Y-67052000D01*
X88388000Y-67052000D01*
X88388000Y-65637506D01*
X88396000Y-65637506D01*
X88396000Y-67052000D01*
X88416000Y-67052000D01*
X88416000Y-67060000D01*
X88396000Y-67060000D01*
X88396000Y-68474494D01*
X88647497Y-68643572D01*
X88763489Y-68620500D01*
X89306565Y-68371775D01*
X89447076Y-68582065D01*
X90128365Y-69037288D01*
X90932000Y-69197141D01*
X91735635Y-69037288D01*
X91901414Y-68926518D01*
X92126153Y-69080076D01*
X92622000Y-69180488D01*
X94322000Y-69180488D01*
X94785222Y-69093327D01*
X95210663Y-68819563D01*
X95496076Y-68401847D01*
X95596488Y-67906000D01*
X95596488Y-67014859D01*
X123757000Y-67014859D01*
X123757000Y-67097141D01*
X123916853Y-67900776D01*
X124372076Y-68582065D01*
X125053365Y-69037288D01*
X125857000Y-69197141D01*
X126660635Y-69037288D01*
X127341924Y-68582065D01*
X127482435Y-68371775D01*
X128025511Y-68620500D01*
X128141503Y-68643572D01*
X128393000Y-68474494D01*
X128393000Y-67060000D01*
X128373000Y-67060000D01*
X128373000Y-67052000D01*
X128393000Y-67052000D01*
X128393000Y-65637506D01*
X128401000Y-65637506D01*
X128401000Y-67052000D01*
X128421000Y-67052000D01*
X128421000Y-67060000D01*
X128401000Y-67060000D01*
X128401000Y-68474494D01*
X128652497Y-68643572D01*
X128768489Y-68620500D01*
X129311565Y-68371775D01*
X129452076Y-68582065D01*
X130133365Y-69037288D01*
X130937000Y-69197141D01*
X131740635Y-69037288D01*
X131906414Y-68926518D01*
X132131153Y-69080076D01*
X132627000Y-69180488D01*
X134327000Y-69180488D01*
X134790222Y-69093327D01*
X135215663Y-68819563D01*
X135501076Y-68401847D01*
X135601488Y-67906000D01*
X135601488Y-67014859D01*
X143823000Y-67014859D01*
X143823000Y-67097141D01*
X143982853Y-67900776D01*
X144438076Y-68582065D01*
X145119365Y-69037288D01*
X145923000Y-69197141D01*
X146726635Y-69037288D01*
X147407924Y-68582065D01*
X147548435Y-68371775D01*
X148091511Y-68620500D01*
X148207503Y-68643572D01*
X148459000Y-68474494D01*
X148459000Y-67060000D01*
X148439000Y-67060000D01*
X148439000Y-67052000D01*
X148459000Y-67052000D01*
X148459000Y-65637506D01*
X148467000Y-65637506D01*
X148467000Y-67052000D01*
X148487000Y-67052000D01*
X148487000Y-67060000D01*
X148467000Y-67060000D01*
X148467000Y-68474494D01*
X148718497Y-68643572D01*
X148834489Y-68620500D01*
X149377565Y-68371775D01*
X149518076Y-68582065D01*
X150199365Y-69037288D01*
X151003000Y-69197141D01*
X151806635Y-69037288D01*
X151972414Y-68926518D01*
X152197153Y-69080076D01*
X152693000Y-69180488D01*
X154393000Y-69180488D01*
X154856222Y-69093327D01*
X155281663Y-68819563D01*
X155567076Y-68401847D01*
X155667488Y-67906000D01*
X155667488Y-66206000D01*
X155580327Y-65742778D01*
X155306563Y-65317337D01*
X154888847Y-65031924D01*
X154393000Y-64931512D01*
X152693000Y-64931512D01*
X152229778Y-65018673D01*
X151971499Y-65184871D01*
X151806635Y-65074712D01*
X151003000Y-64914859D01*
X150199365Y-65074712D01*
X149518076Y-65529935D01*
X149377565Y-65740225D01*
X148834489Y-65491500D01*
X148718497Y-65468428D01*
X148467000Y-65637506D01*
X148459000Y-65637506D01*
X148207503Y-65468428D01*
X148091511Y-65491500D01*
X147548435Y-65740225D01*
X147407924Y-65529935D01*
X146726635Y-65074712D01*
X145923000Y-64914859D01*
X145119365Y-65074712D01*
X144438076Y-65529935D01*
X143982853Y-66211224D01*
X143823000Y-67014859D01*
X135601488Y-67014859D01*
X135601488Y-66206000D01*
X135514327Y-65742778D01*
X135240563Y-65317337D01*
X134822847Y-65031924D01*
X134327000Y-64931512D01*
X132627000Y-64931512D01*
X132163778Y-65018673D01*
X131905499Y-65184871D01*
X131740635Y-65074712D01*
X130937000Y-64914859D01*
X130133365Y-65074712D01*
X129452076Y-65529935D01*
X129311565Y-65740225D01*
X128768489Y-65491500D01*
X128652497Y-65468428D01*
X128401000Y-65637506D01*
X128393000Y-65637506D01*
X128141503Y-65468428D01*
X128025511Y-65491500D01*
X127482435Y-65740225D01*
X127341924Y-65529935D01*
X126660635Y-65074712D01*
X125857000Y-64914859D01*
X125053365Y-65074712D01*
X124372076Y-65529935D01*
X123916853Y-66211224D01*
X123757000Y-67014859D01*
X95596488Y-67014859D01*
X95596488Y-66206000D01*
X95509327Y-65742778D01*
X95235563Y-65317337D01*
X94817847Y-65031924D01*
X94322000Y-64931512D01*
X92622000Y-64931512D01*
X92158778Y-65018673D01*
X91900499Y-65184871D01*
X91735635Y-65074712D01*
X90932000Y-64914859D01*
X90128365Y-65074712D01*
X89447076Y-65529935D01*
X89306565Y-65740225D01*
X88763489Y-65491500D01*
X88647497Y-65468428D01*
X88396000Y-65637506D01*
X88388000Y-65637506D01*
X88136503Y-65468428D01*
X88020511Y-65491500D01*
X87477435Y-65740225D01*
X87336924Y-65529935D01*
X86655635Y-65074712D01*
X85852000Y-64914859D01*
X85048365Y-65074712D01*
X84367076Y-65529935D01*
X83911853Y-66211224D01*
X83752000Y-67014859D01*
X75530488Y-67014859D01*
X75530488Y-66206000D01*
X75443327Y-65742778D01*
X75169563Y-65317337D01*
X74751847Y-65031924D01*
X74256000Y-64931512D01*
X72556000Y-64931512D01*
X72092778Y-65018673D01*
X71834499Y-65184871D01*
X71669635Y-65074712D01*
X70866000Y-64914859D01*
X70062365Y-65074712D01*
X69381076Y-65529935D01*
X69240565Y-65740225D01*
X68697489Y-65491500D01*
X68581497Y-65468428D01*
X68330000Y-65637506D01*
X68322000Y-65637506D01*
X68070503Y-65468428D01*
X67954511Y-65491500D01*
X67411435Y-65740225D01*
X67270924Y-65529935D01*
X66589635Y-65074712D01*
X65786000Y-64914859D01*
X64982365Y-65074712D01*
X64301076Y-65529935D01*
X63845853Y-66211224D01*
X63686000Y-67014859D01*
X51325000Y-67014859D01*
X51325000Y-59648859D01*
X63749500Y-59648859D01*
X63749500Y-59731141D01*
X63909353Y-60534776D01*
X64364576Y-61216065D01*
X65045865Y-61671288D01*
X65849500Y-61831141D01*
X66653135Y-61671288D01*
X67334424Y-61216065D01*
X67474935Y-61005775D01*
X68018011Y-61254500D01*
X68134003Y-61277572D01*
X68385500Y-61108494D01*
X68385500Y-59694000D01*
X68365500Y-59694000D01*
X68365500Y-59686000D01*
X68385500Y-59686000D01*
X68385500Y-58271506D01*
X68393500Y-58271506D01*
X68393500Y-59686000D01*
X68413500Y-59686000D01*
X68413500Y-59694000D01*
X68393500Y-59694000D01*
X68393500Y-61108494D01*
X68644997Y-61277572D01*
X68760989Y-61254500D01*
X69304065Y-61005775D01*
X69444576Y-61216065D01*
X70125865Y-61671288D01*
X70929500Y-61831141D01*
X71733135Y-61671288D01*
X71898914Y-61560518D01*
X72123653Y-61714076D01*
X72619500Y-61814488D01*
X74319500Y-61814488D01*
X74782722Y-61727327D01*
X75208163Y-61453563D01*
X75493576Y-61035847D01*
X75593988Y-60540000D01*
X75593988Y-59648859D01*
X83752000Y-59648859D01*
X83752000Y-59731141D01*
X83911853Y-60534776D01*
X84367076Y-61216065D01*
X85048365Y-61671288D01*
X85852000Y-61831141D01*
X86655635Y-61671288D01*
X87336924Y-61216065D01*
X87477435Y-61005775D01*
X88020511Y-61254500D01*
X88136503Y-61277572D01*
X88388000Y-61108494D01*
X88388000Y-59694000D01*
X88368000Y-59694000D01*
X88368000Y-59686000D01*
X88388000Y-59686000D01*
X88388000Y-58271506D01*
X88396000Y-58271506D01*
X88396000Y-59686000D01*
X88416000Y-59686000D01*
X88416000Y-59694000D01*
X88396000Y-59694000D01*
X88396000Y-61108494D01*
X88647497Y-61277572D01*
X88763489Y-61254500D01*
X89306565Y-61005775D01*
X89447076Y-61216065D01*
X90128365Y-61671288D01*
X90932000Y-61831141D01*
X91735635Y-61671288D01*
X91901414Y-61560518D01*
X92126153Y-61714076D01*
X92622000Y-61814488D01*
X94322000Y-61814488D01*
X94785222Y-61727327D01*
X95210663Y-61453563D01*
X95496076Y-61035847D01*
X95596488Y-60540000D01*
X95596488Y-59775859D01*
X104834000Y-59775859D01*
X104834000Y-59858141D01*
X104993853Y-60661776D01*
X105449076Y-61343065D01*
X106130365Y-61798288D01*
X106934000Y-61958141D01*
X107737635Y-61798288D01*
X108418924Y-61343065D01*
X108559435Y-61132775D01*
X109102511Y-61381500D01*
X109218503Y-61404572D01*
X109470000Y-61235494D01*
X109470000Y-59821000D01*
X109450000Y-59821000D01*
X109450000Y-59813000D01*
X109470000Y-59813000D01*
X109470000Y-58398506D01*
X109478000Y-58398506D01*
X109478000Y-59813000D01*
X109498000Y-59813000D01*
X109498000Y-59821000D01*
X109478000Y-59821000D01*
X109478000Y-61235494D01*
X109729497Y-61404572D01*
X109845489Y-61381500D01*
X110388565Y-61132775D01*
X110529076Y-61343065D01*
X111210365Y-61798288D01*
X112014000Y-61958141D01*
X112817635Y-61798288D01*
X112983414Y-61687518D01*
X113208153Y-61841076D01*
X113704000Y-61941488D01*
X115404000Y-61941488D01*
X115867222Y-61854327D01*
X116292663Y-61580563D01*
X116578076Y-61162847D01*
X116678488Y-60667000D01*
X116678488Y-59708859D01*
X123780000Y-59708859D01*
X123780000Y-59791141D01*
X123939853Y-60594776D01*
X124395076Y-61276065D01*
X125076365Y-61731288D01*
X125880000Y-61891141D01*
X126683635Y-61731288D01*
X127364924Y-61276065D01*
X127505435Y-61065775D01*
X128048511Y-61314500D01*
X128164503Y-61337572D01*
X128416000Y-61168494D01*
X128416000Y-59754000D01*
X128396000Y-59754000D01*
X128396000Y-59746000D01*
X128416000Y-59746000D01*
X128416000Y-58331506D01*
X128424000Y-58331506D01*
X128424000Y-59746000D01*
X128444000Y-59746000D01*
X128444000Y-59754000D01*
X128424000Y-59754000D01*
X128424000Y-61168494D01*
X128675497Y-61337572D01*
X128791489Y-61314500D01*
X129334565Y-61065775D01*
X129475076Y-61276065D01*
X130156365Y-61731288D01*
X130960000Y-61891141D01*
X131763635Y-61731288D01*
X131929414Y-61620518D01*
X132154153Y-61774076D01*
X132650000Y-61874488D01*
X134350000Y-61874488D01*
X134813222Y-61787327D01*
X135238663Y-61513563D01*
X135524076Y-61095847D01*
X135624488Y-60600000D01*
X135624488Y-59658859D01*
X143980000Y-59658859D01*
X143980000Y-59741141D01*
X144139853Y-60544776D01*
X144595076Y-61226065D01*
X145276365Y-61681288D01*
X146080000Y-61841141D01*
X146883635Y-61681288D01*
X147564924Y-61226065D01*
X147705435Y-61015775D01*
X148248511Y-61264500D01*
X148364503Y-61287572D01*
X148616000Y-61118494D01*
X148616000Y-59704000D01*
X148596000Y-59704000D01*
X148596000Y-59696000D01*
X148616000Y-59696000D01*
X148616000Y-58281506D01*
X148624000Y-58281506D01*
X148624000Y-59696000D01*
X148644000Y-59696000D01*
X148644000Y-59704000D01*
X148624000Y-59704000D01*
X148624000Y-61118494D01*
X148875497Y-61287572D01*
X148991489Y-61264500D01*
X149534565Y-61015775D01*
X149675076Y-61226065D01*
X150356365Y-61681288D01*
X151160000Y-61841141D01*
X151963635Y-61681288D01*
X152129414Y-61570518D01*
X152354153Y-61724076D01*
X152850000Y-61824488D01*
X154550000Y-61824488D01*
X155013222Y-61737327D01*
X155438663Y-61463563D01*
X155724076Y-61045847D01*
X155824488Y-60550000D01*
X155824488Y-58850000D01*
X155737327Y-58386778D01*
X155463563Y-57961337D01*
X155045847Y-57675924D01*
X154550000Y-57575512D01*
X152850000Y-57575512D01*
X152386778Y-57662673D01*
X152128499Y-57828871D01*
X151963635Y-57718712D01*
X151160000Y-57558859D01*
X150356365Y-57718712D01*
X149675076Y-58173935D01*
X149534565Y-58384225D01*
X148991489Y-58135500D01*
X148875497Y-58112428D01*
X148624000Y-58281506D01*
X148616000Y-58281506D01*
X148364503Y-58112428D01*
X148248511Y-58135500D01*
X147705435Y-58384225D01*
X147564924Y-58173935D01*
X146883635Y-57718712D01*
X146080000Y-57558859D01*
X145276365Y-57718712D01*
X144595076Y-58173935D01*
X144139853Y-58855224D01*
X143980000Y-59658859D01*
X135624488Y-59658859D01*
X135624488Y-58900000D01*
X135537327Y-58436778D01*
X135263563Y-58011337D01*
X134845847Y-57725924D01*
X134350000Y-57625512D01*
X132650000Y-57625512D01*
X132186778Y-57712673D01*
X131928499Y-57878871D01*
X131763635Y-57768712D01*
X130960000Y-57608859D01*
X130156365Y-57768712D01*
X129475076Y-58223935D01*
X129334565Y-58434225D01*
X128791489Y-58185500D01*
X128675497Y-58162428D01*
X128424000Y-58331506D01*
X128416000Y-58331506D01*
X128164503Y-58162428D01*
X128048511Y-58185500D01*
X127505435Y-58434225D01*
X127364924Y-58223935D01*
X126683635Y-57768712D01*
X125880000Y-57608859D01*
X125076365Y-57768712D01*
X124395076Y-58223935D01*
X123939853Y-58905224D01*
X123780000Y-59708859D01*
X116678488Y-59708859D01*
X116678488Y-58967000D01*
X116591327Y-58503778D01*
X116317563Y-58078337D01*
X115899847Y-57792924D01*
X115404000Y-57692512D01*
X113704000Y-57692512D01*
X113240778Y-57779673D01*
X112982499Y-57945871D01*
X112817635Y-57835712D01*
X112014000Y-57675859D01*
X111210365Y-57835712D01*
X110529076Y-58290935D01*
X110388565Y-58501225D01*
X109845489Y-58252500D01*
X109729497Y-58229428D01*
X109478000Y-58398506D01*
X109470000Y-58398506D01*
X109218503Y-58229428D01*
X109102511Y-58252500D01*
X108559435Y-58501225D01*
X108418924Y-58290935D01*
X107737635Y-57835712D01*
X106934000Y-57675859D01*
X106130365Y-57835712D01*
X105449076Y-58290935D01*
X104993853Y-58972224D01*
X104834000Y-59775859D01*
X95596488Y-59775859D01*
X95596488Y-58840000D01*
X95509327Y-58376778D01*
X95235563Y-57951337D01*
X94817847Y-57665924D01*
X94322000Y-57565512D01*
X92622000Y-57565512D01*
X92158778Y-57652673D01*
X91900499Y-57818871D01*
X91735635Y-57708712D01*
X90932000Y-57548859D01*
X90128365Y-57708712D01*
X89447076Y-58163935D01*
X89306565Y-58374225D01*
X88763489Y-58125500D01*
X88647497Y-58102428D01*
X88396000Y-58271506D01*
X88388000Y-58271506D01*
X88136503Y-58102428D01*
X88020511Y-58125500D01*
X87477435Y-58374225D01*
X87336924Y-58163935D01*
X86655635Y-57708712D01*
X85852000Y-57548859D01*
X85048365Y-57708712D01*
X84367076Y-58163935D01*
X83911853Y-58845224D01*
X83752000Y-59648859D01*
X75593988Y-59648859D01*
X75593988Y-58840000D01*
X75506827Y-58376778D01*
X75233063Y-57951337D01*
X74815347Y-57665924D01*
X74319500Y-57565512D01*
X72619500Y-57565512D01*
X72156278Y-57652673D01*
X71897999Y-57818871D01*
X71733135Y-57708712D01*
X70929500Y-57548859D01*
X70125865Y-57708712D01*
X69444576Y-58163935D01*
X69304065Y-58374225D01*
X68760989Y-58125500D01*
X68644997Y-58102428D01*
X68393500Y-58271506D01*
X68385500Y-58271506D01*
X68134003Y-58102428D01*
X68018011Y-58125500D01*
X67474935Y-58374225D01*
X67334424Y-58163935D01*
X66653135Y-57708712D01*
X65849500Y-57548859D01*
X65045865Y-57708712D01*
X64364576Y-58163935D01*
X63909353Y-58845224D01*
X63749500Y-59648859D01*
X51325000Y-59648859D01*
X51325000Y-49506083D01*
X74277574Y-49506083D01*
X74333529Y-49801489D01*
X74897058Y-50059561D01*
X75516450Y-50082335D01*
X76097409Y-49866344D01*
X76194471Y-49801489D01*
X76250426Y-49506083D01*
X75264000Y-48519657D01*
X74277574Y-49506083D01*
X51325000Y-49506083D01*
X51325000Y-48766450D01*
X73695665Y-48766450D01*
X73911656Y-49347409D01*
X73976511Y-49444471D01*
X74271917Y-49500426D01*
X75258343Y-48514000D01*
X75269657Y-48514000D01*
X76256083Y-49500426D01*
X76551489Y-49444471D01*
X76809561Y-48880942D01*
X76832335Y-48261550D01*
X76628765Y-47714000D01*
X78189512Y-47714000D01*
X78189512Y-49314000D01*
X78276673Y-49777222D01*
X78550437Y-50202663D01*
X78968153Y-50488076D01*
X79464000Y-50588488D01*
X81064000Y-50588488D01*
X81527222Y-50501327D01*
X81952663Y-50227563D01*
X82238076Y-49809847D01*
X82299590Y-49506083D01*
X90279574Y-49506083D01*
X90335529Y-49801489D01*
X90899058Y-50059561D01*
X91518450Y-50082335D01*
X92099409Y-49866344D01*
X92196471Y-49801489D01*
X92252426Y-49506083D01*
X91266000Y-48519657D01*
X90279574Y-49506083D01*
X82299590Y-49506083D01*
X82338488Y-49314000D01*
X82338488Y-48766450D01*
X89697665Y-48766450D01*
X89913656Y-49347409D01*
X89978511Y-49444471D01*
X90273917Y-49500426D01*
X91260343Y-48514000D01*
X91271657Y-48514000D01*
X92258083Y-49500426D01*
X92553489Y-49444471D01*
X92811561Y-48880942D01*
X92834335Y-48261550D01*
X92630765Y-47714000D01*
X94191512Y-47714000D01*
X94191512Y-49314000D01*
X94278673Y-49777222D01*
X94552437Y-50202663D01*
X94970153Y-50488076D01*
X95466000Y-50588488D01*
X97066000Y-50588488D01*
X97529222Y-50501327D01*
X97954663Y-50227563D01*
X98240076Y-49809847D01*
X98340488Y-49314000D01*
X98340488Y-49252083D01*
X108567574Y-49252083D01*
X108623529Y-49547489D01*
X109187058Y-49805561D01*
X109806450Y-49828335D01*
X110387409Y-49612344D01*
X110484471Y-49547489D01*
X110540426Y-49252083D01*
X109554000Y-48265657D01*
X108567574Y-49252083D01*
X98340488Y-49252083D01*
X98340488Y-48512450D01*
X107985665Y-48512450D01*
X108201656Y-49093409D01*
X108266511Y-49190471D01*
X108561917Y-49246426D01*
X109548343Y-48260000D01*
X109559657Y-48260000D01*
X110546083Y-49246426D01*
X110841489Y-49190471D01*
X111099561Y-48626942D01*
X111122335Y-48007550D01*
X110918765Y-47460000D01*
X112479512Y-47460000D01*
X112479512Y-49060000D01*
X112566673Y-49523222D01*
X112840437Y-49948663D01*
X113258153Y-50234076D01*
X113754000Y-50334488D01*
X115354000Y-50334488D01*
X115817222Y-50247327D01*
X116242663Y-49973563D01*
X116528076Y-49555847D01*
X116589590Y-49252083D01*
X122537574Y-49252083D01*
X122593529Y-49547489D01*
X123157058Y-49805561D01*
X123776450Y-49828335D01*
X124357409Y-49612344D01*
X124454471Y-49547489D01*
X124510426Y-49252083D01*
X123524000Y-48265657D01*
X122537574Y-49252083D01*
X116589590Y-49252083D01*
X116628488Y-49060000D01*
X116628488Y-48512450D01*
X121955665Y-48512450D01*
X122171656Y-49093409D01*
X122236511Y-49190471D01*
X122531917Y-49246426D01*
X123518343Y-48260000D01*
X123529657Y-48260000D01*
X124516083Y-49246426D01*
X124811489Y-49190471D01*
X125069561Y-48626942D01*
X125092335Y-48007550D01*
X124888765Y-47460000D01*
X126449512Y-47460000D01*
X126449512Y-49060000D01*
X126536673Y-49523222D01*
X126810437Y-49948663D01*
X127228153Y-50234076D01*
X127724000Y-50334488D01*
X129324000Y-50334488D01*
X129787222Y-50247327D01*
X130212663Y-49973563D01*
X130498076Y-49555847D01*
X130559590Y-49252083D01*
X137269574Y-49252083D01*
X137325529Y-49547489D01*
X137889058Y-49805561D01*
X138508450Y-49828335D01*
X139089409Y-49612344D01*
X139186471Y-49547489D01*
X139242426Y-49252083D01*
X138256000Y-48265657D01*
X137269574Y-49252083D01*
X130559590Y-49252083D01*
X130598488Y-49060000D01*
X130598488Y-48512450D01*
X136687665Y-48512450D01*
X136903656Y-49093409D01*
X136968511Y-49190471D01*
X137263917Y-49246426D01*
X138250343Y-48260000D01*
X138261657Y-48260000D01*
X139248083Y-49246426D01*
X139543489Y-49190471D01*
X139801561Y-48626942D01*
X139824335Y-48007550D01*
X139620765Y-47460000D01*
X141181512Y-47460000D01*
X141181512Y-49060000D01*
X141268673Y-49523222D01*
X141542437Y-49948663D01*
X141960153Y-50234076D01*
X142456000Y-50334488D01*
X144056000Y-50334488D01*
X144519222Y-50247327D01*
X144944663Y-49973563D01*
X145230076Y-49555847D01*
X145330488Y-49060000D01*
X145330488Y-47460000D01*
X145243327Y-46996778D01*
X144969563Y-46571337D01*
X144551847Y-46285924D01*
X144056000Y-46185512D01*
X142456000Y-46185512D01*
X141992778Y-46272673D01*
X141567337Y-46546437D01*
X141281924Y-46964153D01*
X141181512Y-47460000D01*
X139620765Y-47460000D01*
X139608344Y-47426591D01*
X139543489Y-47329529D01*
X139248083Y-47273574D01*
X138261657Y-48260000D01*
X138250343Y-48260000D01*
X137263917Y-47273574D01*
X136968511Y-47329529D01*
X136710439Y-47893058D01*
X136687665Y-48512450D01*
X130598488Y-48512450D01*
X130598488Y-47460000D01*
X130562346Y-47267917D01*
X137269574Y-47267917D01*
X138256000Y-48254343D01*
X139242426Y-47267917D01*
X139186471Y-46972511D01*
X138622942Y-46714439D01*
X138003550Y-46691665D01*
X137422591Y-46907656D01*
X137325529Y-46972511D01*
X137269574Y-47267917D01*
X130562346Y-47267917D01*
X130511327Y-46996778D01*
X130237563Y-46571337D01*
X129819847Y-46285924D01*
X129324000Y-46185512D01*
X127724000Y-46185512D01*
X127260778Y-46272673D01*
X126835337Y-46546437D01*
X126549924Y-46964153D01*
X126449512Y-47460000D01*
X124888765Y-47460000D01*
X124876344Y-47426591D01*
X124811489Y-47329529D01*
X124516083Y-47273574D01*
X123529657Y-48260000D01*
X123518343Y-48260000D01*
X122531917Y-47273574D01*
X122236511Y-47329529D01*
X121978439Y-47893058D01*
X121955665Y-48512450D01*
X116628488Y-48512450D01*
X116628488Y-47460000D01*
X116592346Y-47267917D01*
X122537574Y-47267917D01*
X123524000Y-48254343D01*
X124510426Y-47267917D01*
X124454471Y-46972511D01*
X123890942Y-46714439D01*
X123271550Y-46691665D01*
X122690591Y-46907656D01*
X122593529Y-46972511D01*
X122537574Y-47267917D01*
X116592346Y-47267917D01*
X116541327Y-46996778D01*
X116267563Y-46571337D01*
X115849847Y-46285924D01*
X115354000Y-46185512D01*
X113754000Y-46185512D01*
X113290778Y-46272673D01*
X112865337Y-46546437D01*
X112579924Y-46964153D01*
X112479512Y-47460000D01*
X110918765Y-47460000D01*
X110906344Y-47426591D01*
X110841489Y-47329529D01*
X110546083Y-47273574D01*
X109559657Y-48260000D01*
X109548343Y-48260000D01*
X108561917Y-47273574D01*
X108266511Y-47329529D01*
X108008439Y-47893058D01*
X107985665Y-48512450D01*
X98340488Y-48512450D01*
X98340488Y-47714000D01*
X98256552Y-47267917D01*
X108567574Y-47267917D01*
X109554000Y-48254343D01*
X110540426Y-47267917D01*
X110484471Y-46972511D01*
X109920942Y-46714439D01*
X109301550Y-46691665D01*
X108720591Y-46907656D01*
X108623529Y-46972511D01*
X108567574Y-47267917D01*
X98256552Y-47267917D01*
X98253327Y-47250778D01*
X97979563Y-46825337D01*
X97561847Y-46539924D01*
X97066000Y-46439512D01*
X95466000Y-46439512D01*
X95002778Y-46526673D01*
X94577337Y-46800437D01*
X94291924Y-47218153D01*
X94191512Y-47714000D01*
X92630765Y-47714000D01*
X92618344Y-47680591D01*
X92553489Y-47583529D01*
X92258083Y-47527574D01*
X91271657Y-48514000D01*
X91260343Y-48514000D01*
X90273917Y-47527574D01*
X89978511Y-47583529D01*
X89720439Y-48147058D01*
X89697665Y-48766450D01*
X82338488Y-48766450D01*
X82338488Y-47714000D01*
X82302346Y-47521917D01*
X90279574Y-47521917D01*
X91266000Y-48508343D01*
X92252426Y-47521917D01*
X92196471Y-47226511D01*
X91632942Y-46968439D01*
X91013550Y-46945665D01*
X90432591Y-47161656D01*
X90335529Y-47226511D01*
X90279574Y-47521917D01*
X82302346Y-47521917D01*
X82251327Y-47250778D01*
X81977563Y-46825337D01*
X81559847Y-46539924D01*
X81064000Y-46439512D01*
X79464000Y-46439512D01*
X79000778Y-46526673D01*
X78575337Y-46800437D01*
X78289924Y-47218153D01*
X78189512Y-47714000D01*
X76628765Y-47714000D01*
X76616344Y-47680591D01*
X76551489Y-47583529D01*
X76256083Y-47527574D01*
X75269657Y-48514000D01*
X75258343Y-48514000D01*
X74271917Y-47527574D01*
X73976511Y-47583529D01*
X73718439Y-48147058D01*
X73695665Y-48766450D01*
X51325000Y-48766450D01*
X51325000Y-47521917D01*
X74277574Y-47521917D01*
X75264000Y-48508343D01*
X76250426Y-47521917D01*
X76194471Y-47226511D01*
X75630942Y-46968439D01*
X75011550Y-46945665D01*
X74430591Y-47161656D01*
X74333529Y-47226511D01*
X74277574Y-47521917D01*
X51325000Y-47521917D01*
X51325000Y-37804859D01*
X105850000Y-37804859D01*
X105850000Y-37887141D01*
X106009853Y-38690776D01*
X106465076Y-39372065D01*
X107146365Y-39827288D01*
X107950000Y-39987141D01*
X108753635Y-39827288D01*
X109220000Y-39515673D01*
X109686365Y-39827288D01*
X110490000Y-39987141D01*
X111293635Y-39827288D01*
X111974924Y-39372065D01*
X112115435Y-39161775D01*
X112658511Y-39410500D01*
X112774503Y-39433572D01*
X113026000Y-39264494D01*
X113026000Y-37850000D01*
X113034000Y-37850000D01*
X113034000Y-39264494D01*
X113285497Y-39433572D01*
X113401489Y-39410500D01*
X113971919Y-39149247D01*
X114051711Y-39063358D01*
X114077399Y-39125373D01*
X114290628Y-39338602D01*
X114569225Y-39454000D01*
X115376500Y-39454000D01*
X115566000Y-39264500D01*
X115566000Y-37850000D01*
X115574000Y-37850000D01*
X115574000Y-39264500D01*
X115763500Y-39454000D01*
X116570775Y-39454000D01*
X116849372Y-39338602D01*
X117062601Y-39125373D01*
X117178000Y-38846776D01*
X117178000Y-38039500D01*
X116988500Y-37850000D01*
X115574000Y-37850000D01*
X115566000Y-37850000D01*
X113034000Y-37850000D01*
X113026000Y-37850000D01*
X113006000Y-37850000D01*
X113006000Y-37842000D01*
X113026000Y-37842000D01*
X113026000Y-36427506D01*
X113034000Y-36427506D01*
X113034000Y-37842000D01*
X115566000Y-37842000D01*
X115566000Y-36427500D01*
X115574000Y-36427500D01*
X115574000Y-37842000D01*
X116988500Y-37842000D01*
X117178000Y-37652500D01*
X117178000Y-36845224D01*
X117062601Y-36566627D01*
X116849372Y-36353398D01*
X116570775Y-36238000D01*
X115763500Y-36238000D01*
X115574000Y-36427500D01*
X115566000Y-36427500D01*
X115376500Y-36238000D01*
X114569225Y-36238000D01*
X114290628Y-36353398D01*
X114077399Y-36566627D01*
X114051711Y-36628642D01*
X113971919Y-36542753D01*
X113401489Y-36281500D01*
X113285497Y-36258428D01*
X113034000Y-36427506D01*
X113026000Y-36427506D01*
X112774503Y-36258428D01*
X112658511Y-36281500D01*
X112115435Y-36530225D01*
X111974924Y-36319935D01*
X111293635Y-35864712D01*
X110490000Y-35704859D01*
X109686365Y-35864712D01*
X109220000Y-36176327D01*
X108753635Y-35864712D01*
X107950000Y-35704859D01*
X107146365Y-35864712D01*
X106465076Y-36319935D01*
X106009853Y-37001224D01*
X105850000Y-37804859D01*
X51325000Y-37804859D01*
X51325000Y-34925736D01*
X51819051Y-36121429D01*
X52873022Y-37177242D01*
X54250806Y-37749348D01*
X55742649Y-37750650D01*
X57121429Y-37180949D01*
X58177242Y-36126978D01*
X58749348Y-34749194D01*
X58750650Y-33257351D01*
X58180949Y-31878571D01*
X57126978Y-30822758D01*
X55928244Y-30325000D01*
X160074264Y-30325000D01*
X158878571Y-30819051D01*
M02*
