G04 #@! TF.FileFunction,Copper,L1,Top,Signal*
%FSLAX46Y46*%
G04 Gerber Fmt 4.6, Leading zero omitted, Abs format (unit mm)*
G04 Created by KiCad (PCBNEW 4.0.7) date Wed Jun 20 13:04:55 2018*
%MOMM*%
%LPD*%
G01*
G04 APERTURE LIST*
%ADD10C,0.100000*%
%ADD11R,1.700000X1.700000*%
%ADD12C,5.000000*%
%ADD13O,1.700000X1.700000*%
%ADD14O,1.727200X1.727200*%
%ADD15C,3.000000*%
%ADD16R,3.000000X3.000000*%
%ADD17C,0.254000*%
%ADD18C,0.381000*%
G04 APERTURE END LIST*
D10*
D11*
X93980000Y-140970000D03*
X93980000Y-138430000D03*
X93980000Y-133350000D03*
X93980000Y-135890000D03*
X91440000Y-135890000D03*
X91440000Y-133350000D03*
X91440000Y-138430000D03*
X91440000Y-140970000D03*
X91440000Y-128270000D03*
X91440000Y-130810000D03*
X93980000Y-130810000D03*
X93980000Y-128270000D03*
X88900000Y-128270000D03*
X88900000Y-130810000D03*
X86360000Y-130810000D03*
X86360000Y-128270000D03*
X86360000Y-140970000D03*
X86360000Y-138430000D03*
X86360000Y-133350000D03*
X86360000Y-135890000D03*
X88900000Y-135890000D03*
X88900000Y-133350000D03*
X88900000Y-138430000D03*
X88900000Y-140970000D03*
X96520000Y-135890000D03*
X96520000Y-133350000D03*
X96520000Y-138430000D03*
X96520000Y-140970000D03*
X96520000Y-128270000D03*
X96520000Y-130810000D03*
X116840000Y-140970000D03*
X116840000Y-138430000D03*
X116840000Y-133350000D03*
X116840000Y-135890000D03*
X114300000Y-135890000D03*
X114300000Y-133350000D03*
X114300000Y-138430000D03*
X114300000Y-140970000D03*
X114300000Y-128270000D03*
X114300000Y-130810000D03*
X116840000Y-130810000D03*
X116840000Y-128270000D03*
X111760000Y-128270000D03*
X111760000Y-130810000D03*
X109220000Y-130810000D03*
X109220000Y-128270000D03*
X109220000Y-140970000D03*
X109220000Y-138430000D03*
X109220000Y-133350000D03*
X109220000Y-135890000D03*
X111760000Y-135890000D03*
X111760000Y-133350000D03*
X111760000Y-138430000D03*
X111760000Y-140970000D03*
X101600000Y-140970000D03*
X101600000Y-138430000D03*
X101600000Y-133350000D03*
X101600000Y-135890000D03*
X99060000Y-135890000D03*
X99060000Y-133350000D03*
X99060000Y-138430000D03*
X99060000Y-140970000D03*
X99060000Y-128270000D03*
X99060000Y-130810000D03*
X101600000Y-130810000D03*
X101600000Y-128270000D03*
X106680000Y-128270000D03*
X106680000Y-130810000D03*
X104140000Y-130810000D03*
X104140000Y-128270000D03*
X104140000Y-140970000D03*
X104140000Y-138430000D03*
X104140000Y-133350000D03*
X104140000Y-135890000D03*
X106680000Y-135890000D03*
X106680000Y-133350000D03*
X106680000Y-138430000D03*
X106680000Y-140970000D03*
X127000000Y-140970000D03*
X127000000Y-138430000D03*
X127000000Y-133350000D03*
X127000000Y-135890000D03*
X124460000Y-135890000D03*
X124460000Y-133350000D03*
X124460000Y-138430000D03*
X124460000Y-140970000D03*
X124460000Y-128270000D03*
X124460000Y-130810000D03*
X127000000Y-130810000D03*
X127000000Y-128270000D03*
X121920000Y-128270000D03*
X121920000Y-130810000D03*
X119380000Y-130810000D03*
X119380000Y-128270000D03*
X119380000Y-140970000D03*
X119380000Y-138430000D03*
X119380000Y-133350000D03*
X119380000Y-135890000D03*
X121920000Y-135890000D03*
X121920000Y-133350000D03*
X121920000Y-138430000D03*
X121920000Y-140970000D03*
X132080000Y-140970000D03*
X132080000Y-138430000D03*
X132080000Y-133350000D03*
X132080000Y-135890000D03*
X129540000Y-135890000D03*
X129540000Y-133350000D03*
X129540000Y-138430000D03*
X129540000Y-140970000D03*
X129540000Y-128270000D03*
X129540000Y-130810000D03*
X132080000Y-130810000D03*
X132080000Y-128270000D03*
X137160000Y-128270000D03*
X137160000Y-130810000D03*
X134620000Y-130810000D03*
X134620000Y-128270000D03*
X134620000Y-140970000D03*
X134620000Y-138430000D03*
X134620000Y-133350000D03*
X134620000Y-135890000D03*
X137160000Y-135890000D03*
X137160000Y-133350000D03*
X137160000Y-138430000D03*
X137160000Y-140970000D03*
D12*
X77000000Y-53000000D03*
X77000000Y-143000000D03*
X183000000Y-143000000D03*
X183000000Y-53000000D03*
D11*
X93110000Y-108000000D03*
D13*
X93110000Y-105460000D03*
X93110000Y-102920000D03*
X93110000Y-100380000D03*
X93110000Y-97840000D03*
X93110000Y-95300000D03*
X93110000Y-92760000D03*
X93110000Y-90220000D03*
X93110000Y-87680000D03*
X93110000Y-85140000D03*
X93110000Y-82600000D03*
D11*
X105110000Y-108000000D03*
D13*
X105110000Y-105460000D03*
X105110000Y-102920000D03*
X105110000Y-100380000D03*
X105110000Y-97840000D03*
X105110000Y-95300000D03*
X105110000Y-92760000D03*
X105110000Y-90220000D03*
X105110000Y-87680000D03*
X105110000Y-85140000D03*
X105110000Y-82600000D03*
D11*
X116110000Y-108000000D03*
D13*
X116110000Y-105460000D03*
X116110000Y-102920000D03*
X116110000Y-100380000D03*
X116110000Y-97840000D03*
X116110000Y-95300000D03*
X116110000Y-92760000D03*
X116110000Y-90220000D03*
X116110000Y-87680000D03*
X116110000Y-85140000D03*
X116110000Y-82600000D03*
D11*
X126110000Y-83000000D03*
D13*
X126110000Y-85540000D03*
X126110000Y-88080000D03*
X126110000Y-90620000D03*
X126110000Y-93160000D03*
X126110000Y-95700000D03*
X126110000Y-98240000D03*
X126110000Y-100780000D03*
X126110000Y-103320000D03*
X126110000Y-105860000D03*
X126110000Y-108400000D03*
D11*
X148110000Y-83000000D03*
D13*
X148110000Y-85540000D03*
X148110000Y-88080000D03*
X148110000Y-90620000D03*
X148110000Y-93160000D03*
X148110000Y-95700000D03*
X148110000Y-98240000D03*
X148110000Y-100780000D03*
X148110000Y-103320000D03*
X148110000Y-105860000D03*
X148110000Y-108400000D03*
D11*
X157110000Y-83000000D03*
D13*
X157110000Y-85540000D03*
X157110000Y-88080000D03*
X157110000Y-90620000D03*
X157110000Y-93160000D03*
X157110000Y-95700000D03*
X157110000Y-98240000D03*
X157110000Y-100780000D03*
X157110000Y-103320000D03*
X157110000Y-105860000D03*
X157110000Y-108400000D03*
D14*
X135737000Y-97600000D03*
X138277000Y-97600000D03*
X138277000Y-95060000D03*
X135737000Y-95060000D03*
X138277000Y-92520000D03*
X122910000Y-120460000D03*
X117830000Y-120460000D03*
X115290000Y-120460000D03*
X112750000Y-120460000D03*
X110210000Y-120460000D03*
X107670000Y-120460000D03*
X105130000Y-120460000D03*
X102590000Y-120460000D03*
X158470000Y-72200000D03*
X155930000Y-72200000D03*
X153390000Y-72200000D03*
X150850000Y-72200000D03*
X148310000Y-72200000D03*
X145770000Y-72200000D03*
X143230000Y-72200000D03*
X140690000Y-72200000D03*
X135610000Y-72200000D03*
X133070000Y-72200000D03*
X130530000Y-72200000D03*
X127990000Y-72200000D03*
X125450000Y-72200000D03*
X122910000Y-72200000D03*
X120370000Y-72200000D03*
X117830000Y-72200000D03*
X98526000Y-72200000D03*
X113766000Y-72200000D03*
X111226000Y-72200000D03*
X108686000Y-72200000D03*
X90906000Y-72200000D03*
X93446000Y-72200000D03*
X95986000Y-72200000D03*
X101066000Y-72200000D03*
X103606000Y-72200000D03*
X106146000Y-72200000D03*
X100050000Y-120460000D03*
X125450000Y-120460000D03*
X127990000Y-120460000D03*
X130530000Y-120460000D03*
X133070000Y-120460000D03*
X135610000Y-120460000D03*
X138150000Y-120460000D03*
X140690000Y-120460000D03*
X145770000Y-120460000D03*
X148310000Y-120460000D03*
X150850000Y-120460000D03*
X153390000Y-120460000D03*
X155930000Y-120460000D03*
X158470000Y-120460000D03*
X161010000Y-120460000D03*
X163550000Y-120460000D03*
X166090000Y-72200000D03*
X168630000Y-72200000D03*
X166090000Y-74740000D03*
X168630000Y-74740000D03*
X166090000Y-77280000D03*
X168630000Y-77280000D03*
X166090000Y-79820000D03*
X168630000Y-79820000D03*
X166090000Y-82360000D03*
X168630000Y-82360000D03*
X166090000Y-84900000D03*
X168630000Y-84900000D03*
X166090000Y-87440000D03*
X168630000Y-87440000D03*
X166090000Y-89980000D03*
X168630000Y-89980000D03*
X166090000Y-92520000D03*
X168630000Y-92520000D03*
X166090000Y-95060000D03*
X168630000Y-95060000D03*
X166090000Y-97600000D03*
X168630000Y-97600000D03*
X166090000Y-100140000D03*
X168630000Y-100140000D03*
X166090000Y-102680000D03*
X168630000Y-102680000D03*
X166090000Y-105220000D03*
X168630000Y-105220000D03*
X166090000Y-107760000D03*
X168630000Y-107760000D03*
X166090000Y-110300000D03*
X168630000Y-110300000D03*
X166090000Y-112840000D03*
X168630000Y-112840000D03*
X166090000Y-115380000D03*
X168630000Y-115380000D03*
X135737000Y-92520000D03*
D15*
X133350000Y-54610000D03*
X138430000Y-54610000D03*
D16*
X128270000Y-54610000D03*
D15*
X143510000Y-54610000D03*
D17*
X93110000Y-105460000D02*
X87110000Y-99460000D01*
X87110000Y-99460000D02*
X87110000Y-80000000D01*
X87110000Y-80000000D02*
X80110000Y-73000000D01*
X80110000Y-73000000D02*
X80110000Y-66000000D01*
X80110000Y-66000000D02*
X82110000Y-64000000D01*
X82110000Y-64000000D02*
X122330000Y-64000000D01*
X122330000Y-64000000D02*
X130530000Y-72200000D01*
X93110000Y-102920000D02*
X88110000Y-97920000D01*
X88110000Y-97920000D02*
X88110000Y-80000000D01*
X88110000Y-80000000D02*
X81110000Y-73000000D01*
X81110000Y-73000000D02*
X81110000Y-67000000D01*
X83110000Y-65000000D02*
X120790000Y-65000000D01*
X81110000Y-67000000D02*
X83110000Y-65000000D01*
X120790000Y-65000000D02*
X127990000Y-72200000D01*
X93110000Y-100380000D02*
X89110000Y-96380000D01*
X89110000Y-96380000D02*
X89110000Y-80000000D01*
X83110000Y-66000000D02*
X119250000Y-66000000D01*
X119250000Y-66000000D02*
X125450000Y-72200000D01*
X82110000Y-67000000D02*
X83110000Y-66000000D01*
X89110000Y-80000000D02*
X82110000Y-73000000D01*
X82110000Y-73000000D02*
X82110000Y-67000000D01*
X84110000Y-67000000D02*
X117710000Y-67000000D01*
X117710000Y-67000000D02*
X122910000Y-72200000D01*
X83110000Y-68000000D02*
X84110000Y-67000000D01*
X83110000Y-73000000D02*
X83110000Y-68000000D01*
X90110000Y-80000000D02*
X83110000Y-73000000D01*
X90110000Y-95000000D02*
X90110000Y-80000000D01*
X92100001Y-96990001D02*
X90110000Y-95000000D01*
X93110000Y-97840000D02*
X92260001Y-96990001D01*
X92260001Y-96990001D02*
X92100001Y-96990001D01*
X93110000Y-95300000D02*
X91110000Y-93300000D01*
X84110000Y-68000000D02*
X116170000Y-68000000D01*
X116170000Y-68000000D02*
X119506401Y-71336401D01*
X119506401Y-71336401D02*
X120370000Y-72200000D01*
X90298057Y-78545989D02*
X90201959Y-78545989D01*
X91110000Y-93300000D02*
X91110000Y-79357932D01*
X91110000Y-79357932D02*
X90298057Y-78545989D01*
X83655970Y-68454030D02*
X84110000Y-68000000D01*
X83655970Y-72000000D02*
X83655970Y-68454030D01*
X90201959Y-78545989D02*
X83655970Y-72000000D01*
X97110000Y-110000000D02*
X105018022Y-117908022D01*
X97110000Y-96760000D02*
X97110000Y-110000000D01*
X122046401Y-119596401D02*
X122910000Y-120460000D01*
X105018022Y-117908022D02*
X120358022Y-117908022D01*
X93110000Y-92760000D02*
X97110000Y-96760000D01*
X120358022Y-117908022D02*
X122046401Y-119596401D01*
X124586401Y-119596401D02*
X125450000Y-120460000D01*
X122444011Y-117454011D02*
X124586401Y-119596401D01*
X93110000Y-90220000D02*
X98110000Y-95220000D01*
X98110000Y-110000000D02*
X105564011Y-117454011D01*
X105564011Y-117454011D02*
X122444011Y-117454011D01*
X98110000Y-95220000D02*
X98110000Y-110000000D01*
X116966401Y-71336401D02*
X117830000Y-72200000D01*
X114630000Y-69000000D02*
X116966401Y-71336401D01*
X85110000Y-69000000D02*
X114630000Y-69000000D01*
X84110000Y-70000000D02*
X85110000Y-69000000D01*
X84110000Y-71811962D02*
X84110000Y-70000000D01*
X90486114Y-78091978D02*
X90390016Y-78091978D01*
X91932999Y-79538863D02*
X90486114Y-78091978D01*
X93110000Y-87680000D02*
X91932999Y-86502999D01*
X91932999Y-86502999D02*
X91932999Y-79538863D01*
X90390016Y-78091978D02*
X84110000Y-71811962D01*
X105110000Y-105460000D02*
X112522000Y-98048000D01*
X112522000Y-98048000D02*
X112522000Y-73444000D01*
X112522000Y-73444000D02*
X113766000Y-72200000D01*
X111252000Y-96778000D02*
X111226000Y-96752000D01*
X111226000Y-96752000D02*
X111226000Y-72200000D01*
X105110000Y-102920000D02*
X111252000Y-96778000D01*
X110236000Y-94488000D02*
X110236000Y-73750000D01*
X110236000Y-73750000D02*
X108686000Y-72200000D01*
X105959999Y-98764001D02*
X110236000Y-94488000D01*
X105110000Y-100380000D02*
X105959999Y-99530001D01*
X105959999Y-99530001D02*
X105959999Y-98764001D01*
X105110000Y-97840000D02*
X108966000Y-93984000D01*
X108966000Y-93984000D02*
X108966000Y-75020000D01*
X108966000Y-75020000D02*
X106146000Y-72200000D01*
X107950000Y-92202000D02*
X107950000Y-76544000D01*
X107950000Y-76544000D02*
X103606000Y-72200000D01*
X105959999Y-94192001D02*
X107950000Y-92202000D01*
X105110000Y-95300000D02*
X105959999Y-94450001D01*
X105959999Y-94450001D02*
X105959999Y-94192001D01*
X125297303Y-116545989D02*
X127990000Y-119238686D01*
X111298057Y-116545989D02*
X125297303Y-116545989D01*
X102110000Y-95760000D02*
X102110000Y-107357932D01*
X105110000Y-92760000D02*
X102110000Y-95760000D01*
X127990000Y-119238686D02*
X127990000Y-120460000D01*
X102110000Y-107357932D02*
X111298057Y-116545989D01*
X127110000Y-122000000D02*
X128990000Y-122000000D01*
X128990000Y-122000000D02*
X130530000Y-120460000D01*
X126799399Y-121689399D02*
X127110000Y-122000000D01*
X124110000Y-117000000D02*
X126799399Y-119689399D01*
X126799399Y-119689399D02*
X126799399Y-121689399D01*
X107110000Y-117000000D02*
X124110000Y-117000000D01*
X101110000Y-111000000D02*
X107110000Y-117000000D01*
X105110000Y-90220000D02*
X101110000Y-94220000D01*
X101110000Y-94220000D02*
X101110000Y-111000000D01*
X103790000Y-87680000D02*
X101066000Y-84956000D01*
X101066000Y-84956000D02*
X101066000Y-72200000D01*
X105110000Y-87680000D02*
X103790000Y-87680000D01*
X122610000Y-77000000D02*
X163830000Y-77000000D01*
X163830000Y-77000000D02*
X166090000Y-74740000D01*
X120110000Y-79500000D02*
X122610000Y-77000000D01*
X120110000Y-101460000D02*
X120110000Y-79500000D01*
X116110000Y-105460000D02*
X120110000Y-101460000D01*
X164610000Y-73500000D02*
X167390000Y-73500000D01*
X167390000Y-73500000D02*
X168630000Y-74740000D01*
X163610000Y-74500000D02*
X164610000Y-73500000D01*
X162110000Y-74500000D02*
X163610000Y-74500000D01*
X160110000Y-76500000D02*
X162110000Y-74500000D01*
X122110000Y-76500000D02*
X160110000Y-76500000D01*
X119610000Y-79000000D02*
X122110000Y-76500000D01*
X116110000Y-102920000D02*
X119610000Y-99420000D01*
X119610000Y-99420000D02*
X119610000Y-79000000D01*
X169110000Y-76000000D02*
X167370000Y-76000000D01*
X167370000Y-76000000D02*
X166090000Y-77280000D01*
X172110000Y-73000000D02*
X169110000Y-76000000D01*
X172110000Y-69000000D02*
X172110000Y-73000000D01*
X169610000Y-66500000D02*
X172110000Y-69000000D01*
X144627910Y-66500000D02*
X169610000Y-66500000D01*
X116110000Y-100380000D02*
X119110000Y-97380000D01*
X119110000Y-97380000D02*
X119110000Y-77500000D01*
X120610000Y-76000000D02*
X135498294Y-76000000D01*
X135498294Y-76000000D02*
X139499399Y-71998895D01*
X139499399Y-71998895D02*
X139499399Y-71628511D01*
X139499399Y-71628511D02*
X144627910Y-66500000D01*
X119110000Y-77500000D02*
X120610000Y-76000000D01*
X139045389Y-71422543D02*
X144467932Y-66000000D01*
X173110000Y-69000000D02*
X173110000Y-72800000D01*
X169493599Y-76416401D02*
X168630000Y-77280000D01*
X116110000Y-97840000D02*
X118610000Y-95340000D01*
X173110000Y-72800000D02*
X169493599Y-76416401D01*
X144467932Y-66000000D02*
X170110000Y-66000000D01*
X139045388Y-71810838D02*
X139045389Y-71422543D01*
X135356226Y-75500000D02*
X139045388Y-71810838D01*
X118610000Y-95340000D02*
X118610000Y-76500000D01*
X170110000Y-66000000D02*
X173110000Y-69000000D01*
X119610000Y-75500000D02*
X135356226Y-75500000D01*
X118610000Y-76500000D02*
X119610000Y-75500000D01*
X166953599Y-78956401D02*
X166090000Y-79820000D01*
X118110000Y-75500000D02*
X118610000Y-75000000D01*
X173610000Y-74000000D02*
X169110000Y-78500000D01*
X144325864Y-65500000D02*
X170610000Y-65500000D01*
X169110000Y-78500000D02*
X167410000Y-78500000D01*
X116110000Y-95300000D02*
X118110000Y-93300000D01*
X167410000Y-78500000D02*
X166953599Y-78956401D01*
X173610000Y-68500000D02*
X173610000Y-74000000D01*
X138591379Y-71234485D02*
X144325864Y-65500000D01*
X138591378Y-71622780D02*
X138591379Y-71234485D01*
X135214158Y-75000000D02*
X138591378Y-71622780D01*
X118110000Y-93300000D02*
X118110000Y-75500000D01*
X170610000Y-65500000D02*
X173610000Y-68500000D01*
X118610000Y-75000000D02*
X135214158Y-75000000D01*
X133070000Y-119817932D02*
X133070000Y-120460000D01*
X124752068Y-111500000D02*
X133070000Y-119817932D01*
X114110000Y-94760000D02*
X114110000Y-111500000D01*
X114110000Y-111500000D02*
X124752068Y-111500000D01*
X116110000Y-92760000D02*
X114110000Y-94760000D01*
X134070000Y-122000000D02*
X135610000Y-120460000D01*
X116110000Y-90220000D02*
X113610000Y-92720000D01*
X132610000Y-122000000D02*
X134070000Y-122000000D01*
X113610000Y-92720000D02*
X113610000Y-112000000D01*
X131879399Y-121269399D02*
X132610000Y-122000000D01*
X125610000Y-113000000D02*
X131879399Y-119269399D01*
X131879399Y-119269399D02*
X131879399Y-121269399D01*
X114610000Y-113000000D02*
X125610000Y-113000000D01*
X113610000Y-112000000D02*
X114610000Y-113000000D01*
X116110000Y-87680000D02*
X113110000Y-84680000D01*
X113110000Y-84680000D02*
X113110000Y-75500000D01*
X113110000Y-75500000D02*
X114110000Y-74500000D01*
X171110000Y-65000000D02*
X174244000Y-68134000D01*
X169493599Y-78956401D02*
X168630000Y-79820000D01*
X114110000Y-74500000D02*
X135072090Y-74500000D01*
X135072090Y-74500000D02*
X138137368Y-71434722D01*
X174244000Y-68134000D02*
X174244000Y-74206000D01*
X138137368Y-71434722D02*
X138137369Y-71046427D01*
X138137369Y-71046427D02*
X144183796Y-65000000D01*
X144183796Y-65000000D02*
X171110000Y-65000000D01*
X174244000Y-74206000D02*
X169493599Y-78956401D01*
X165226401Y-81496401D02*
X166090000Y-82360000D01*
X165226401Y-81474333D02*
X165226401Y-81496401D01*
X161252068Y-77500000D02*
X165226401Y-81474333D01*
X132610000Y-77500000D02*
X161252068Y-77500000D01*
X129610000Y-80500000D02*
X132610000Y-77500000D01*
X129610000Y-82040000D02*
X129610000Y-80500000D01*
X126110000Y-85540000D02*
X129610000Y-82040000D01*
X167439399Y-83550601D02*
X167766401Y-83223599D01*
X165382669Y-83550601D02*
X167439399Y-83550601D01*
X164610000Y-81500000D02*
X164610000Y-82777932D01*
X133110000Y-78000000D02*
X161110000Y-78000000D01*
X164610000Y-82777932D02*
X165382669Y-83550601D01*
X130110000Y-81000000D02*
X133110000Y-78000000D01*
X167766401Y-83223599D02*
X168630000Y-82360000D01*
X130110000Y-83000000D02*
X130110000Y-81000000D01*
X161110000Y-78000000D02*
X164610000Y-81500000D01*
X128095389Y-86094611D02*
X128095389Y-85014611D01*
X128095389Y-85014611D02*
X130110000Y-83000000D01*
X126110000Y-88080000D02*
X128095389Y-86094611D01*
X126110000Y-90620000D02*
X128549400Y-88180600D01*
X128549400Y-88180600D02*
X128549400Y-85267800D01*
X159726800Y-78536800D02*
X166090000Y-84900000D01*
X133273800Y-78536800D02*
X159726800Y-78536800D01*
X130733800Y-81076800D02*
X133273800Y-78536800D01*
X130733800Y-83083400D02*
X130733800Y-81076800D01*
X128549400Y-85267800D02*
X130733800Y-83083400D01*
X167280601Y-86249399D02*
X167766401Y-85763599D01*
X165116399Y-86249399D02*
X167280601Y-86249399D01*
X159373736Y-79171800D02*
X164899399Y-84697463D01*
X164899399Y-86032399D02*
X165116399Y-86249399D01*
X131470400Y-81076800D02*
X133375400Y-79171800D01*
X131470400Y-83007200D02*
X131470400Y-81076800D01*
X133375400Y-79171800D02*
X159373736Y-79171800D01*
X126110000Y-93160000D02*
X129082800Y-90187200D01*
X167766401Y-85763599D02*
X168630000Y-84900000D01*
X164899399Y-84697463D02*
X164899399Y-86032399D01*
X129082800Y-90187200D02*
X129082800Y-85394800D01*
X129082800Y-85394800D02*
X131470400Y-83007200D01*
X126110000Y-95700000D02*
X129565400Y-92244600D01*
X164868686Y-87440000D02*
X166090000Y-87440000D01*
X164445390Y-87016704D02*
X164868686Y-87440000D01*
X164445390Y-84885522D02*
X164445390Y-87016704D01*
X133578600Y-79629000D02*
X159188868Y-79629000D01*
X159188868Y-79629000D02*
X164445390Y-84885522D01*
X131927600Y-81280000D02*
X133578600Y-79629000D01*
X131927600Y-83362800D02*
X131927600Y-81280000D01*
X129565400Y-85725000D02*
X131927600Y-83362800D01*
X129565400Y-92244600D02*
X129565400Y-85725000D01*
X132791200Y-118516400D02*
X136206400Y-118516400D01*
X136206400Y-118516400D02*
X138150000Y-120460000D01*
X122174000Y-107899200D02*
X132791200Y-118516400D01*
X122174000Y-102082600D02*
X122174000Y-107899200D01*
X125166601Y-99089999D02*
X122174000Y-102082600D01*
X126110000Y-98240000D02*
X125260001Y-99089999D01*
X125260001Y-99089999D02*
X125166601Y-99089999D01*
X126110000Y-100780000D02*
X124907919Y-100780000D01*
X124907919Y-100780000D02*
X123901200Y-101786719D01*
X123901200Y-108813600D02*
X132394601Y-117307001D01*
X123901200Y-101786719D02*
X123901200Y-108813600D01*
X132394601Y-117307001D02*
X137537001Y-117307001D01*
X137537001Y-117307001D02*
X139826401Y-119596401D01*
X139826401Y-119596401D02*
X140690000Y-120460000D01*
X133553200Y-80467200D02*
X159385000Y-80467200D01*
X159385000Y-80467200D02*
X163991379Y-85073579D01*
X132384800Y-81635600D02*
X133553200Y-80467200D01*
X132384800Y-97045200D02*
X132384800Y-81635600D01*
X163991379Y-85073579D02*
X163991379Y-87791379D01*
X167987932Y-87440000D02*
X168630000Y-87440000D01*
X166797331Y-88630601D02*
X167987932Y-87440000D01*
X164830601Y-88630601D02*
X166797331Y-88630601D01*
X163991379Y-87791379D02*
X164830601Y-88630601D01*
X126110000Y-103320000D02*
X132384800Y-97045200D01*
X147167119Y-127746051D02*
X171374290Y-127746050D01*
X171374290Y-127746050D02*
X176504600Y-122615740D01*
X142179748Y-91470252D02*
X142179748Y-122758686D01*
X142179748Y-122758686D02*
X147167119Y-127746051D01*
X148110000Y-85540000D02*
X142179748Y-91470252D01*
X176504600Y-122615740D02*
X176504600Y-95758000D01*
X169377201Y-88630601D02*
X167439399Y-88630601D01*
X176504600Y-95758000D02*
X169377201Y-88630601D01*
X166953599Y-89116401D02*
X166090000Y-89980000D01*
X167439399Y-88630601D02*
X166953599Y-89116401D01*
X148110000Y-88080000D02*
X142633758Y-93556242D01*
X169851314Y-89980000D02*
X168630000Y-89980000D01*
X142633758Y-122570628D02*
X147355175Y-127292041D01*
X176044211Y-96172897D02*
X169851314Y-89980000D01*
X142633758Y-93556242D02*
X142633758Y-122570628D01*
X176044211Y-122434061D02*
X176044211Y-96172897D01*
X147355175Y-127292041D02*
X171186232Y-127292040D01*
X171186232Y-127292040D02*
X176044211Y-122434061D01*
X143087768Y-95642232D02*
X143087768Y-122382570D01*
X148110000Y-90620000D02*
X143087768Y-95642232D01*
X147543231Y-126838031D02*
X170998174Y-126838030D01*
X170998174Y-126838030D02*
X175590200Y-122246004D01*
X143087768Y-122382570D02*
X147543231Y-126838031D01*
X175590200Y-96748600D02*
X170170999Y-91329399D01*
X175590200Y-122246004D02*
X175590200Y-96748600D01*
X166953599Y-91656401D02*
X166090000Y-92520000D01*
X167280601Y-91329399D02*
X166953599Y-91656401D01*
X170170999Y-91329399D02*
X167280601Y-91329399D01*
X143541778Y-97728222D02*
X143541778Y-122194512D01*
X174669421Y-122524713D02*
X174669420Y-97338106D01*
X147731287Y-126384021D02*
X170810116Y-126384020D01*
X148110000Y-93160000D02*
X143541778Y-97728222D01*
X174669420Y-97338106D02*
X169851314Y-92520000D01*
X169851314Y-92520000D02*
X168630000Y-92520000D01*
X170810116Y-126384020D02*
X174669421Y-122524713D01*
X143541778Y-122194512D02*
X147731287Y-126384021D01*
X143995790Y-122006458D02*
X147919343Y-125930011D01*
X148110000Y-95700000D02*
X143995789Y-99814211D01*
X143995789Y-99814211D02*
X143995790Y-122006458D01*
X170622058Y-125930010D02*
X174215411Y-122336657D01*
X147919343Y-125930011D02*
X170622058Y-125930010D01*
X166953599Y-94196401D02*
X166090000Y-95060000D01*
X167280601Y-93869399D02*
X166953599Y-94196401D01*
X174215410Y-98040810D02*
X170043999Y-93869399D01*
X174215411Y-122336657D02*
X174215410Y-98040810D01*
X170043999Y-93869399D02*
X167280601Y-93869399D01*
X149250400Y-121818400D02*
X147128400Y-121818400D01*
X147128400Y-121818400D02*
X145770000Y-120460000D01*
X149500601Y-121568199D02*
X149250400Y-121818400D01*
X150495000Y-118618000D02*
X149500601Y-119612399D01*
X149500601Y-119612399D02*
X149500601Y-121568199D01*
X150495000Y-100625000D02*
X150495000Y-118618000D01*
X148110000Y-98240000D02*
X150495000Y-100625000D01*
X147878800Y-118643400D02*
X148310000Y-119074600D01*
X148310000Y-119074600D02*
X148310000Y-120460000D01*
X147878800Y-117271800D02*
X147878800Y-118643400D01*
X150037800Y-115112800D02*
X147878800Y-117271800D01*
X150037800Y-101505719D02*
X150037800Y-115112800D01*
X148110000Y-100780000D02*
X149312081Y-100780000D01*
X149312081Y-100780000D02*
X150037800Y-101505719D01*
X144449800Y-106980200D02*
X144449800Y-121818400D01*
X170434000Y-125476000D02*
X173761400Y-122148600D01*
X148107400Y-125476000D02*
X170434000Y-125476000D01*
X148110000Y-103320000D02*
X144449800Y-106980200D01*
X144449800Y-121818400D02*
X148107400Y-125476000D01*
X173761400Y-122148600D02*
X173761400Y-100191400D01*
X173761400Y-100191400D02*
X168630000Y-95060000D01*
X157110000Y-85540000D02*
X158312081Y-85540000D01*
X164211000Y-91438919D02*
X164211000Y-95721000D01*
X158312081Y-85540000D02*
X164211000Y-91438919D01*
X164211000Y-95721000D02*
X166090000Y-97600000D01*
X159809600Y-88080000D02*
X163576000Y-91846400D01*
X163576000Y-91846400D02*
X163576000Y-96983932D01*
X167766401Y-98463599D02*
X168630000Y-97600000D01*
X167439399Y-98790601D02*
X167766401Y-98463599D01*
X165382669Y-98790601D02*
X167439399Y-98790601D01*
X163576000Y-96983932D02*
X165382669Y-98790601D01*
X157110000Y-88080000D02*
X159809600Y-88080000D01*
X157110000Y-90620000D02*
X161079600Y-90620000D01*
X162890200Y-92430600D02*
X162890200Y-96940200D01*
X161079600Y-90620000D02*
X162890200Y-92430600D01*
X162890200Y-96940200D02*
X166090000Y-100140000D01*
X157110000Y-93160000D02*
X165280601Y-101330601D01*
X165280601Y-101330601D02*
X167439399Y-101330601D01*
X167439399Y-101330601D02*
X168630000Y-100140000D01*
X157110000Y-95700000D02*
X164090000Y-102680000D01*
X164090000Y-102680000D02*
X166090000Y-102680000D01*
X152501600Y-101646319D02*
X152501600Y-118808400D01*
X152501600Y-118808400D02*
X150850000Y-120460000D01*
X157110000Y-98240000D02*
X155907919Y-98240000D01*
X155907919Y-98240000D02*
X152501600Y-101646319D01*
X157110000Y-100780000D02*
X153390000Y-104500000D01*
X153390000Y-104500000D02*
X153390000Y-120460000D01*
X157110000Y-103320000D02*
X158312081Y-103320000D01*
X158862682Y-103870601D02*
X167439399Y-103870601D01*
X158312081Y-103320000D02*
X158862682Y-103870601D01*
X167439399Y-103870601D02*
X167766401Y-103543599D01*
X167766401Y-103543599D02*
X168630000Y-102680000D01*
D18*
X138430000Y-124460000D02*
X121830000Y-124460000D01*
X121830000Y-124460000D02*
X117830000Y-120460000D01*
X149860000Y-135890000D02*
X138430000Y-124460000D01*
X175260000Y-135890000D02*
X149860000Y-135890000D01*
X182880000Y-128270000D02*
X175260000Y-135890000D01*
X182880000Y-62230000D02*
X182880000Y-128270000D01*
X175260000Y-54610000D02*
X182880000Y-62230000D01*
X143510000Y-54610000D02*
X175260000Y-54610000D01*
X138430000Y-54610000D02*
X143510000Y-54610000D01*
M02*
