G04 #@! TF.FileFunction,Copper,L2,Bot,Signal*
%FSLAX46Y46*%
G04 Gerber Fmt 4.6, Leading zero omitted, Abs format (unit mm)*
G04 Created by KiCad (PCBNEW 4.0.7) date Mon Jun 18 14:33:48 2018*
%MOMM*%
%LPD*%
G01*
G04 APERTURE LIST*
%ADD10C,0.100000*%
%ADD11R,1.700000X1.700000*%
%ADD12C,5.000000*%
%ADD13O,1.700000X1.700000*%
%ADD14O,1.727200X1.727200*%
%ADD15C,0.500000*%
G04 APERTURE END LIST*
D10*
D11*
X99060000Y-142240000D03*
X99060000Y-139700000D03*
X99060000Y-134620000D03*
X99060000Y-137160000D03*
X96520000Y-137160000D03*
X96520000Y-134620000D03*
X96520000Y-139700000D03*
X96520000Y-142240000D03*
X96520000Y-129540000D03*
X96520000Y-132080000D03*
X99060000Y-132080000D03*
X99060000Y-129540000D03*
X93980000Y-129540000D03*
X93980000Y-132080000D03*
X91440000Y-132080000D03*
X91440000Y-129540000D03*
X91440000Y-142240000D03*
X91440000Y-139700000D03*
X91440000Y-134620000D03*
X91440000Y-137160000D03*
X93980000Y-137160000D03*
X93980000Y-134620000D03*
X93980000Y-139700000D03*
X93980000Y-142240000D03*
X101600000Y-137160000D03*
X101600000Y-134620000D03*
X101600000Y-139700000D03*
X101600000Y-142240000D03*
X101600000Y-129540000D03*
X101600000Y-132080000D03*
X121920000Y-142240000D03*
X121920000Y-139700000D03*
X121920000Y-134620000D03*
X121920000Y-137160000D03*
X119380000Y-137160000D03*
X119380000Y-134620000D03*
X119380000Y-139700000D03*
X119380000Y-142240000D03*
X119380000Y-129540000D03*
X119380000Y-132080000D03*
X121920000Y-132080000D03*
X121920000Y-129540000D03*
X116840000Y-129540000D03*
X116840000Y-132080000D03*
X114300000Y-132080000D03*
X114300000Y-129540000D03*
X114300000Y-142240000D03*
X114300000Y-139700000D03*
X114300000Y-134620000D03*
X114300000Y-137160000D03*
X116840000Y-137160000D03*
X116840000Y-134620000D03*
X116840000Y-139700000D03*
X116840000Y-142240000D03*
X106680000Y-142240000D03*
X106680000Y-139700000D03*
X106680000Y-134620000D03*
X106680000Y-137160000D03*
X104140000Y-137160000D03*
X104140000Y-134620000D03*
X104140000Y-139700000D03*
X104140000Y-142240000D03*
X104140000Y-129540000D03*
X104140000Y-132080000D03*
X106680000Y-132080000D03*
X106680000Y-129540000D03*
X111760000Y-129540000D03*
X111760000Y-132080000D03*
X109220000Y-132080000D03*
X109220000Y-129540000D03*
X109220000Y-142240000D03*
X109220000Y-139700000D03*
X109220000Y-134620000D03*
X109220000Y-137160000D03*
X111760000Y-137160000D03*
X111760000Y-134620000D03*
X111760000Y-139700000D03*
X111760000Y-142240000D03*
X132080000Y-142240000D03*
X132080000Y-139700000D03*
X132080000Y-134620000D03*
X132080000Y-137160000D03*
X129540000Y-137160000D03*
X129540000Y-134620000D03*
X129540000Y-139700000D03*
X129540000Y-142240000D03*
X129540000Y-129540000D03*
X129540000Y-132080000D03*
X132080000Y-132080000D03*
X132080000Y-129540000D03*
X127000000Y-129540000D03*
X127000000Y-132080000D03*
X124460000Y-132080000D03*
X124460000Y-129540000D03*
X124460000Y-142240000D03*
X124460000Y-139700000D03*
X124460000Y-134620000D03*
X124460000Y-137160000D03*
X127000000Y-137160000D03*
X127000000Y-134620000D03*
X127000000Y-139700000D03*
X127000000Y-142240000D03*
X137160000Y-142240000D03*
X137160000Y-139700000D03*
X137160000Y-134620000D03*
X137160000Y-137160000D03*
X134620000Y-137160000D03*
X134620000Y-134620000D03*
X134620000Y-139700000D03*
X134620000Y-142240000D03*
X134620000Y-129540000D03*
X134620000Y-132080000D03*
X137160000Y-132080000D03*
X137160000Y-129540000D03*
X142240000Y-129540000D03*
X142240000Y-132080000D03*
X139700000Y-132080000D03*
X139700000Y-129540000D03*
X139700000Y-142240000D03*
X139700000Y-139700000D03*
X139700000Y-134620000D03*
X139700000Y-137160000D03*
X142240000Y-137160000D03*
X142240000Y-134620000D03*
X142240000Y-139700000D03*
X142240000Y-142240000D03*
D12*
X77000000Y-53000000D03*
X77000000Y-143000000D03*
X183000000Y-143000000D03*
X183000000Y-53000000D03*
D11*
X102000000Y-108000000D03*
D13*
X102000000Y-105460000D03*
X102000000Y-102920000D03*
X102000000Y-100380000D03*
X102000000Y-97840000D03*
X102000000Y-95300000D03*
X102000000Y-92760000D03*
X102000000Y-90220000D03*
X102000000Y-87680000D03*
X102000000Y-85140000D03*
X102000000Y-82600000D03*
D11*
X114000000Y-108000000D03*
D13*
X114000000Y-105460000D03*
X114000000Y-102920000D03*
X114000000Y-100380000D03*
X114000000Y-97840000D03*
X114000000Y-95300000D03*
X114000000Y-92760000D03*
X114000000Y-90220000D03*
X114000000Y-87680000D03*
X114000000Y-85140000D03*
X114000000Y-82600000D03*
D11*
X125000000Y-108000000D03*
D13*
X125000000Y-105460000D03*
X125000000Y-102920000D03*
X125000000Y-100380000D03*
X125000000Y-97840000D03*
X125000000Y-95300000D03*
X125000000Y-92760000D03*
X125000000Y-90220000D03*
X125000000Y-87680000D03*
X125000000Y-85140000D03*
X125000000Y-82600000D03*
D11*
X135000000Y-83000000D03*
D13*
X135000000Y-85540000D03*
X135000000Y-88080000D03*
X135000000Y-90620000D03*
X135000000Y-93160000D03*
X135000000Y-95700000D03*
X135000000Y-98240000D03*
X135000000Y-100780000D03*
X135000000Y-103320000D03*
X135000000Y-105860000D03*
X135000000Y-108400000D03*
D11*
X157000000Y-83000000D03*
D13*
X157000000Y-85540000D03*
X157000000Y-88080000D03*
X157000000Y-90620000D03*
X157000000Y-93160000D03*
X157000000Y-95700000D03*
X157000000Y-98240000D03*
X157000000Y-100780000D03*
X157000000Y-103320000D03*
X157000000Y-105860000D03*
X157000000Y-108400000D03*
D11*
X166000000Y-83000000D03*
D13*
X166000000Y-85540000D03*
X166000000Y-88080000D03*
X166000000Y-90620000D03*
X166000000Y-93160000D03*
X166000000Y-95700000D03*
X166000000Y-98240000D03*
X166000000Y-100780000D03*
X166000000Y-103320000D03*
X166000000Y-105860000D03*
X166000000Y-108400000D03*
D11*
X105000000Y-56000000D03*
D13*
X107540000Y-56000000D03*
X110080000Y-56000000D03*
X112620000Y-56000000D03*
D14*
X144627000Y-97600000D03*
X147167000Y-97600000D03*
X147167000Y-95060000D03*
X144627000Y-95060000D03*
X147167000Y-92520000D03*
X131800000Y-120460000D03*
X126720000Y-120460000D03*
X124180000Y-120460000D03*
X121640000Y-120460000D03*
X119100000Y-120460000D03*
X116560000Y-120460000D03*
X114020000Y-120460000D03*
X111480000Y-120460000D03*
X167360000Y-72200000D03*
X164820000Y-72200000D03*
X162280000Y-72200000D03*
X159740000Y-72200000D03*
X157200000Y-72200000D03*
X154660000Y-72200000D03*
X152120000Y-72200000D03*
X149580000Y-72200000D03*
X144500000Y-72200000D03*
X141960000Y-72200000D03*
X139420000Y-72200000D03*
X136880000Y-72200000D03*
X134340000Y-72200000D03*
X131800000Y-72200000D03*
X129260000Y-72200000D03*
X126720000Y-72200000D03*
X107416000Y-72200000D03*
X122656000Y-72200000D03*
X120116000Y-72200000D03*
X117576000Y-72200000D03*
X99796000Y-72200000D03*
X102336000Y-72200000D03*
X104876000Y-72200000D03*
X109956000Y-72200000D03*
X112496000Y-72200000D03*
X115036000Y-72200000D03*
X108940000Y-120460000D03*
X134340000Y-120460000D03*
X136880000Y-120460000D03*
X139420000Y-120460000D03*
X141960000Y-120460000D03*
X144500000Y-120460000D03*
X147040000Y-120460000D03*
X149580000Y-120460000D03*
X154660000Y-120460000D03*
X157200000Y-120460000D03*
X159740000Y-120460000D03*
X162280000Y-120460000D03*
X164820000Y-120460000D03*
X167360000Y-120460000D03*
X169900000Y-120460000D03*
X172440000Y-120460000D03*
X174980000Y-72200000D03*
X177520000Y-72200000D03*
X174980000Y-74740000D03*
X177520000Y-74740000D03*
X174980000Y-77280000D03*
X177520000Y-77280000D03*
X174980000Y-79820000D03*
X177520000Y-79820000D03*
X174980000Y-82360000D03*
X177520000Y-82360000D03*
X174980000Y-84900000D03*
X177520000Y-84900000D03*
X174980000Y-87440000D03*
X177520000Y-87440000D03*
X174980000Y-89980000D03*
X177520000Y-89980000D03*
X174980000Y-92520000D03*
X177520000Y-92520000D03*
X174980000Y-95060000D03*
X177520000Y-95060000D03*
X174980000Y-97600000D03*
X177520000Y-97600000D03*
X174980000Y-100140000D03*
X177520000Y-100140000D03*
X174980000Y-102680000D03*
X177520000Y-102680000D03*
X174980000Y-105220000D03*
X177520000Y-105220000D03*
X174980000Y-107760000D03*
X177520000Y-107760000D03*
X174980000Y-110300000D03*
X177520000Y-110300000D03*
X174980000Y-112840000D03*
X177520000Y-112840000D03*
X174980000Y-115380000D03*
X177520000Y-115380000D03*
X144627000Y-92520000D03*
D15*
G36*
X180878571Y-49819051D02*
X179822758Y-50873022D01*
X179250652Y-52250806D01*
X179249350Y-53742649D01*
X179819051Y-55121429D01*
X180873022Y-56177242D01*
X182250806Y-56749348D01*
X183742649Y-56750650D01*
X185121429Y-56180949D01*
X186177242Y-55126978D01*
X186675000Y-53928244D01*
X186675000Y-142074264D01*
X186180949Y-140878571D01*
X185126978Y-139822758D01*
X183749194Y-139250652D01*
X182257351Y-139249350D01*
X180878571Y-139819051D01*
X179822758Y-140873022D01*
X179250652Y-142250806D01*
X179249350Y-143742649D01*
X179819051Y-145121429D01*
X180873022Y-146177242D01*
X182071756Y-146675000D01*
X77925736Y-146675000D01*
X79121429Y-146180949D01*
X80177242Y-145126978D01*
X80749348Y-143749194D01*
X80750650Y-142257351D01*
X80180949Y-140878571D01*
X79126978Y-139822758D01*
X77749194Y-139250652D01*
X76257351Y-139249350D01*
X74878571Y-139819051D01*
X73822758Y-140873022D01*
X73325000Y-142071756D01*
X73325000Y-128690000D01*
X89315512Y-128690000D01*
X89315512Y-130390000D01*
X89397442Y-130825420D01*
X89315512Y-131230000D01*
X89315512Y-132930000D01*
X89397442Y-133365420D01*
X89315512Y-133770000D01*
X89315512Y-135470000D01*
X89397442Y-135905420D01*
X89315512Y-136310000D01*
X89315512Y-138010000D01*
X89397442Y-138445420D01*
X89315512Y-138850000D01*
X89315512Y-140550000D01*
X89397442Y-140985420D01*
X89315512Y-141390000D01*
X89315512Y-143090000D01*
X89402673Y-143553222D01*
X89676437Y-143978663D01*
X90094153Y-144264076D01*
X90590000Y-144364488D01*
X92290000Y-144364488D01*
X92725420Y-144282558D01*
X93130000Y-144364488D01*
X94830000Y-144364488D01*
X95265420Y-144282558D01*
X95670000Y-144364488D01*
X97370000Y-144364488D01*
X97805420Y-144282558D01*
X98210000Y-144364488D01*
X99910000Y-144364488D01*
X100345420Y-144282558D01*
X100750000Y-144364488D01*
X102450000Y-144364488D01*
X102885420Y-144282558D01*
X103290000Y-144364488D01*
X104990000Y-144364488D01*
X105425420Y-144282558D01*
X105830000Y-144364488D01*
X107530000Y-144364488D01*
X107965420Y-144282558D01*
X108370000Y-144364488D01*
X110070000Y-144364488D01*
X110505420Y-144282558D01*
X110910000Y-144364488D01*
X112610000Y-144364488D01*
X113045420Y-144282558D01*
X113450000Y-144364488D01*
X115150000Y-144364488D01*
X115585420Y-144282558D01*
X115990000Y-144364488D01*
X117690000Y-144364488D01*
X118125420Y-144282558D01*
X118530000Y-144364488D01*
X120230000Y-144364488D01*
X120665420Y-144282558D01*
X121070000Y-144364488D01*
X122770000Y-144364488D01*
X123205420Y-144282558D01*
X123610000Y-144364488D01*
X125310000Y-144364488D01*
X125745420Y-144282558D01*
X126150000Y-144364488D01*
X127850000Y-144364488D01*
X128285420Y-144282558D01*
X128690000Y-144364488D01*
X130390000Y-144364488D01*
X130825420Y-144282558D01*
X131230000Y-144364488D01*
X132930000Y-144364488D01*
X133365420Y-144282558D01*
X133770000Y-144364488D01*
X135470000Y-144364488D01*
X135905420Y-144282558D01*
X136310000Y-144364488D01*
X138010000Y-144364488D01*
X138445420Y-144282558D01*
X138850000Y-144364488D01*
X140550000Y-144364488D01*
X140985420Y-144282558D01*
X141390000Y-144364488D01*
X143090000Y-144364488D01*
X143553222Y-144277327D01*
X143978663Y-144003563D01*
X144264076Y-143585847D01*
X144364488Y-143090000D01*
X144364488Y-141390000D01*
X144282558Y-140954580D01*
X144364488Y-140550000D01*
X144364488Y-138850000D01*
X144282558Y-138414580D01*
X144364488Y-138010000D01*
X144364488Y-136310000D01*
X144282558Y-135874580D01*
X144364488Y-135470000D01*
X144364488Y-133770000D01*
X144282558Y-133334580D01*
X144364488Y-132930000D01*
X144364488Y-131230000D01*
X144282558Y-130794580D01*
X144364488Y-130390000D01*
X144364488Y-128690000D01*
X144277327Y-128226778D01*
X144003563Y-127801337D01*
X143585847Y-127515924D01*
X143090000Y-127415512D01*
X141390000Y-127415512D01*
X140954580Y-127497442D01*
X140550000Y-127415512D01*
X138850000Y-127415512D01*
X138414580Y-127497442D01*
X138010000Y-127415512D01*
X136310000Y-127415512D01*
X135874580Y-127497442D01*
X135470000Y-127415512D01*
X133770000Y-127415512D01*
X133334580Y-127497442D01*
X132930000Y-127415512D01*
X131230000Y-127415512D01*
X130794580Y-127497442D01*
X130390000Y-127415512D01*
X128690000Y-127415512D01*
X128254580Y-127497442D01*
X127850000Y-127415512D01*
X126150000Y-127415512D01*
X125714580Y-127497442D01*
X125310000Y-127415512D01*
X123610000Y-127415512D01*
X123174580Y-127497442D01*
X122770000Y-127415512D01*
X121070000Y-127415512D01*
X120634580Y-127497442D01*
X120230000Y-127415512D01*
X118530000Y-127415512D01*
X118094580Y-127497442D01*
X117690000Y-127415512D01*
X115990000Y-127415512D01*
X115554580Y-127497442D01*
X115150000Y-127415512D01*
X113450000Y-127415512D01*
X113014580Y-127497442D01*
X112610000Y-127415512D01*
X110910000Y-127415512D01*
X110474580Y-127497442D01*
X110070000Y-127415512D01*
X108370000Y-127415512D01*
X107934580Y-127497442D01*
X107530000Y-127415512D01*
X105830000Y-127415512D01*
X105394580Y-127497442D01*
X104990000Y-127415512D01*
X103290000Y-127415512D01*
X102854580Y-127497442D01*
X102450000Y-127415512D01*
X100750000Y-127415512D01*
X100314580Y-127497442D01*
X99910000Y-127415512D01*
X98210000Y-127415512D01*
X97774580Y-127497442D01*
X97370000Y-127415512D01*
X95670000Y-127415512D01*
X95234580Y-127497442D01*
X94830000Y-127415512D01*
X93130000Y-127415512D01*
X92694580Y-127497442D01*
X92290000Y-127415512D01*
X90590000Y-127415512D01*
X90126778Y-127502673D01*
X89701337Y-127776437D01*
X89415924Y-128194153D01*
X89315512Y-128690000D01*
X73325000Y-128690000D01*
X73325000Y-121024413D01*
X92119506Y-121024413D01*
X92552479Y-122072286D01*
X93353497Y-122874704D01*
X94400613Y-123309504D01*
X95534413Y-123310494D01*
X96582286Y-122877521D01*
X97384704Y-122076503D01*
X97819504Y-121029387D01*
X97820001Y-120460000D01*
X106784992Y-120460000D01*
X106945880Y-121268840D01*
X107404051Y-121954541D01*
X108089752Y-122412712D01*
X108898592Y-122573600D01*
X108981408Y-122573600D01*
X109790248Y-122412712D01*
X110210000Y-122132243D01*
X110629752Y-122412712D01*
X111438592Y-122573600D01*
X111521408Y-122573600D01*
X112330248Y-122412712D01*
X112750000Y-122132243D01*
X113169752Y-122412712D01*
X113978592Y-122573600D01*
X114061408Y-122573600D01*
X114870248Y-122412712D01*
X115290000Y-122132243D01*
X115709752Y-122412712D01*
X116518592Y-122573600D01*
X116601408Y-122573600D01*
X117410248Y-122412712D01*
X117830000Y-122132243D01*
X118249752Y-122412712D01*
X119058592Y-122573600D01*
X119141408Y-122573600D01*
X119950248Y-122412712D01*
X120635949Y-121954541D01*
X120741681Y-121796302D01*
X120789308Y-121840547D01*
X121382376Y-122061005D01*
X121636000Y-121892095D01*
X121636000Y-120464000D01*
X121644000Y-120464000D01*
X121644000Y-121892095D01*
X121897624Y-122061005D01*
X122490692Y-121840547D01*
X122910000Y-121451019D01*
X123329308Y-121840547D01*
X123922376Y-122061005D01*
X124176000Y-121892095D01*
X124176000Y-120464000D01*
X121644000Y-120464000D01*
X121636000Y-120464000D01*
X121616000Y-120464000D01*
X121616000Y-120456000D01*
X121636000Y-120456000D01*
X121636000Y-119027905D01*
X121644000Y-119027905D01*
X121644000Y-120456000D01*
X124176000Y-120456000D01*
X124176000Y-119027905D01*
X124184000Y-119027905D01*
X124184000Y-120456000D01*
X124204000Y-120456000D01*
X124204000Y-120464000D01*
X124184000Y-120464000D01*
X124184000Y-121892095D01*
X124437624Y-122061005D01*
X125030692Y-121840547D01*
X125078319Y-121796302D01*
X125184051Y-121954541D01*
X125869752Y-122412712D01*
X126678592Y-122573600D01*
X126761408Y-122573600D01*
X127570248Y-122412712D01*
X128255949Y-121954541D01*
X128714120Y-121268840D01*
X128875008Y-120460000D01*
X129644992Y-120460000D01*
X129805880Y-121268840D01*
X130264051Y-121954541D01*
X130949752Y-122412712D01*
X131758592Y-122573600D01*
X131841408Y-122573600D01*
X132650248Y-122412712D01*
X133070000Y-122132243D01*
X133489752Y-122412712D01*
X134298592Y-122573600D01*
X134381408Y-122573600D01*
X135190248Y-122412712D01*
X135610000Y-122132243D01*
X136029752Y-122412712D01*
X136838592Y-122573600D01*
X136921408Y-122573600D01*
X137730248Y-122412712D01*
X138150000Y-122132243D01*
X138569752Y-122412712D01*
X139378592Y-122573600D01*
X139461408Y-122573600D01*
X140270248Y-122412712D01*
X140690000Y-122132243D01*
X141109752Y-122412712D01*
X141918592Y-122573600D01*
X142001408Y-122573600D01*
X142810248Y-122412712D01*
X143230000Y-122132243D01*
X143649752Y-122412712D01*
X144458592Y-122573600D01*
X144541408Y-122573600D01*
X145350248Y-122412712D01*
X145770000Y-122132243D01*
X146189752Y-122412712D01*
X146998592Y-122573600D01*
X147081408Y-122573600D01*
X147890248Y-122412712D01*
X148310000Y-122132243D01*
X148729752Y-122412712D01*
X149538592Y-122573600D01*
X149621408Y-122573600D01*
X150430248Y-122412712D01*
X151115949Y-121954541D01*
X151574120Y-121268840D01*
X151735008Y-120460000D01*
X152504992Y-120460000D01*
X152665880Y-121268840D01*
X153124051Y-121954541D01*
X153809752Y-122412712D01*
X154618592Y-122573600D01*
X154701408Y-122573600D01*
X155510248Y-122412712D01*
X155930000Y-122132243D01*
X156349752Y-122412712D01*
X157158592Y-122573600D01*
X157241408Y-122573600D01*
X158050248Y-122412712D01*
X158470000Y-122132243D01*
X158889752Y-122412712D01*
X159698592Y-122573600D01*
X159781408Y-122573600D01*
X160590248Y-122412712D01*
X161010000Y-122132243D01*
X161429752Y-122412712D01*
X162238592Y-122573600D01*
X162321408Y-122573600D01*
X163130248Y-122412712D01*
X163550000Y-122132243D01*
X163969752Y-122412712D01*
X164778592Y-122573600D01*
X164861408Y-122573600D01*
X165670248Y-122412712D01*
X166090000Y-122132243D01*
X166509752Y-122412712D01*
X167318592Y-122573600D01*
X167401408Y-122573600D01*
X168210248Y-122412712D01*
X168630000Y-122132243D01*
X169049752Y-122412712D01*
X169858592Y-122573600D01*
X169941408Y-122573600D01*
X170750248Y-122412712D01*
X171170000Y-122132243D01*
X171589752Y-122412712D01*
X172398592Y-122573600D01*
X172481408Y-122573600D01*
X173290248Y-122412712D01*
X173975949Y-121954541D01*
X174434120Y-121268840D01*
X174482739Y-121024413D01*
X174669506Y-121024413D01*
X175102479Y-122072286D01*
X175903497Y-122874704D01*
X176950613Y-123309504D01*
X178084413Y-123310494D01*
X179132286Y-122877521D01*
X179934704Y-122076503D01*
X180369504Y-121029387D01*
X180370494Y-119895587D01*
X179937521Y-118847714D01*
X179136503Y-118045296D01*
X178089387Y-117610496D01*
X176955587Y-117609506D01*
X175907714Y-118042479D01*
X175105296Y-118843497D01*
X174670496Y-119890613D01*
X174669506Y-121024413D01*
X174482739Y-121024413D01*
X174595008Y-120460000D01*
X174434120Y-119651160D01*
X173975949Y-118965459D01*
X173290248Y-118507288D01*
X172481408Y-118346400D01*
X172398592Y-118346400D01*
X171589752Y-118507288D01*
X171170000Y-118787757D01*
X170750248Y-118507288D01*
X169941408Y-118346400D01*
X169858592Y-118346400D01*
X169049752Y-118507288D01*
X168630000Y-118787757D01*
X168210248Y-118507288D01*
X167401408Y-118346400D01*
X167318592Y-118346400D01*
X166509752Y-118507288D01*
X166090000Y-118787757D01*
X165670248Y-118507288D01*
X164861408Y-118346400D01*
X164778592Y-118346400D01*
X163969752Y-118507288D01*
X163550000Y-118787757D01*
X163130248Y-118507288D01*
X162321408Y-118346400D01*
X162238592Y-118346400D01*
X161429752Y-118507288D01*
X161010000Y-118787757D01*
X160590248Y-118507288D01*
X159781408Y-118346400D01*
X159698592Y-118346400D01*
X158889752Y-118507288D01*
X158470000Y-118787757D01*
X158050248Y-118507288D01*
X157241408Y-118346400D01*
X157158592Y-118346400D01*
X156349752Y-118507288D01*
X155930000Y-118787757D01*
X155510248Y-118507288D01*
X154701408Y-118346400D01*
X154618592Y-118346400D01*
X153809752Y-118507288D01*
X153124051Y-118965459D01*
X152665880Y-119651160D01*
X152504992Y-120460000D01*
X151735008Y-120460000D01*
X151574120Y-119651160D01*
X151115949Y-118965459D01*
X150430248Y-118507288D01*
X149621408Y-118346400D01*
X149538592Y-118346400D01*
X148729752Y-118507288D01*
X148310000Y-118787757D01*
X147890248Y-118507288D01*
X147081408Y-118346400D01*
X146998592Y-118346400D01*
X146189752Y-118507288D01*
X145770000Y-118787757D01*
X145350248Y-118507288D01*
X144541408Y-118346400D01*
X144458592Y-118346400D01*
X143649752Y-118507288D01*
X143230000Y-118787757D01*
X142810248Y-118507288D01*
X142001408Y-118346400D01*
X141918592Y-118346400D01*
X141109752Y-118507288D01*
X140690000Y-118787757D01*
X140270248Y-118507288D01*
X139461408Y-118346400D01*
X139378592Y-118346400D01*
X138569752Y-118507288D01*
X138150000Y-118787757D01*
X137730248Y-118507288D01*
X136921408Y-118346400D01*
X136838592Y-118346400D01*
X136029752Y-118507288D01*
X135610000Y-118787757D01*
X135190248Y-118507288D01*
X134381408Y-118346400D01*
X134298592Y-118346400D01*
X133489752Y-118507288D01*
X133070000Y-118787757D01*
X132650248Y-118507288D01*
X131841408Y-118346400D01*
X131758592Y-118346400D01*
X130949752Y-118507288D01*
X130264051Y-118965459D01*
X129805880Y-119651160D01*
X129644992Y-120460000D01*
X128875008Y-120460000D01*
X128714120Y-119651160D01*
X128255949Y-118965459D01*
X127570248Y-118507288D01*
X126761408Y-118346400D01*
X126678592Y-118346400D01*
X125869752Y-118507288D01*
X125184051Y-118965459D01*
X125078319Y-119123698D01*
X125030692Y-119079453D01*
X124437624Y-118858995D01*
X124184000Y-119027905D01*
X124176000Y-119027905D01*
X123922376Y-118858995D01*
X123329308Y-119079453D01*
X122910000Y-119468981D01*
X122490692Y-119079453D01*
X121897624Y-118858995D01*
X121644000Y-119027905D01*
X121636000Y-119027905D01*
X121382376Y-118858995D01*
X120789308Y-119079453D01*
X120741681Y-119123698D01*
X120635949Y-118965459D01*
X119950248Y-118507288D01*
X119141408Y-118346400D01*
X119058592Y-118346400D01*
X118249752Y-118507288D01*
X117830000Y-118787757D01*
X117410248Y-118507288D01*
X116601408Y-118346400D01*
X116518592Y-118346400D01*
X115709752Y-118507288D01*
X115290000Y-118787757D01*
X114870248Y-118507288D01*
X114061408Y-118346400D01*
X113978592Y-118346400D01*
X113169752Y-118507288D01*
X112750000Y-118787757D01*
X112330248Y-118507288D01*
X111521408Y-118346400D01*
X111438592Y-118346400D01*
X110629752Y-118507288D01*
X110210000Y-118787757D01*
X109790248Y-118507288D01*
X108981408Y-118346400D01*
X108898592Y-118346400D01*
X108089752Y-118507288D01*
X107404051Y-118965459D01*
X106945880Y-119651160D01*
X106784992Y-120460000D01*
X97820001Y-120460000D01*
X97820494Y-119895587D01*
X97387521Y-118847714D01*
X96586503Y-118045296D01*
X95539387Y-117610496D01*
X94405587Y-117609506D01*
X93357714Y-118042479D01*
X92555296Y-118843497D01*
X92120496Y-119890613D01*
X92119506Y-121024413D01*
X73325000Y-121024413D01*
X73325000Y-115944413D01*
X144189506Y-115944413D01*
X144622479Y-116992286D01*
X145423497Y-117794704D01*
X146470613Y-118229504D01*
X147604413Y-118230494D01*
X148652286Y-117797521D01*
X149454704Y-116996503D01*
X149889504Y-115949387D01*
X149889776Y-115637624D01*
X173378995Y-115637624D01*
X173402276Y-115754664D01*
X173665751Y-116329913D01*
X174129308Y-116760547D01*
X174722376Y-116981005D01*
X174976000Y-116812095D01*
X174976000Y-115384000D01*
X174984000Y-115384000D01*
X174984000Y-116812095D01*
X175237624Y-116981005D01*
X175830692Y-116760547D01*
X176250000Y-116371019D01*
X176669308Y-116760547D01*
X177262376Y-116981005D01*
X177516000Y-116812095D01*
X177516000Y-115384000D01*
X177524000Y-115384000D01*
X177524000Y-116812095D01*
X177777624Y-116981005D01*
X178370692Y-116760547D01*
X178834249Y-116329913D01*
X179097724Y-115754664D01*
X179121005Y-115637624D01*
X178952094Y-115384000D01*
X177524000Y-115384000D01*
X177516000Y-115384000D01*
X174984000Y-115384000D01*
X174976000Y-115384000D01*
X173547906Y-115384000D01*
X173378995Y-115637624D01*
X149889776Y-115637624D01*
X149890494Y-114815587D01*
X149457521Y-113767714D01*
X148656503Y-112965296D01*
X147609387Y-112530496D01*
X146475587Y-112529506D01*
X145427714Y-112962479D01*
X144625296Y-113763497D01*
X144190496Y-114810613D01*
X144189506Y-115944413D01*
X73325000Y-115944413D01*
X73325000Y-108193500D01*
X100392000Y-108193500D01*
X100392000Y-109000775D01*
X100507398Y-109279372D01*
X100720627Y-109492601D01*
X100999224Y-109608000D01*
X101806500Y-109608000D01*
X101996000Y-109418500D01*
X101996000Y-108004000D01*
X102004000Y-108004000D01*
X102004000Y-109418500D01*
X102193500Y-109608000D01*
X103000776Y-109608000D01*
X103279373Y-109492601D01*
X103492602Y-109279372D01*
X103608000Y-109000775D01*
X103608000Y-108193500D01*
X112392000Y-108193500D01*
X112392000Y-109000775D01*
X112507398Y-109279372D01*
X112720627Y-109492601D01*
X112999224Y-109608000D01*
X113806500Y-109608000D01*
X113996000Y-109418500D01*
X113996000Y-108004000D01*
X114004000Y-108004000D01*
X114004000Y-109418500D01*
X114193500Y-109608000D01*
X115000776Y-109608000D01*
X115279373Y-109492601D01*
X115492602Y-109279372D01*
X115608000Y-109000775D01*
X115608000Y-108193500D01*
X123392000Y-108193500D01*
X123392000Y-109000775D01*
X123507398Y-109279372D01*
X123720627Y-109492601D01*
X123999224Y-109608000D01*
X124806500Y-109608000D01*
X124996000Y-109418500D01*
X124996000Y-108004000D01*
X125004000Y-108004000D01*
X125004000Y-109418500D01*
X125193500Y-109608000D01*
X126000776Y-109608000D01*
X126279373Y-109492601D01*
X126492602Y-109279372D01*
X126608000Y-109000775D01*
X126608000Y-108655497D01*
X133412428Y-108655497D01*
X133435500Y-108771489D01*
X133696753Y-109341919D01*
X134156414Y-109768951D01*
X134744503Y-109987572D01*
X134996000Y-109818495D01*
X134996000Y-108404000D01*
X135004000Y-108404000D01*
X135004000Y-109818495D01*
X135255497Y-109987572D01*
X135843586Y-109768951D01*
X136303247Y-109341919D01*
X136564500Y-108771489D01*
X136587572Y-108655497D01*
X155412428Y-108655497D01*
X155435500Y-108771489D01*
X155696753Y-109341919D01*
X156156414Y-109768951D01*
X156744503Y-109987572D01*
X156996000Y-109818495D01*
X156996000Y-108404000D01*
X157004000Y-108404000D01*
X157004000Y-109818495D01*
X157255497Y-109987572D01*
X157843586Y-109768951D01*
X158303247Y-109341919D01*
X158564500Y-108771489D01*
X158587572Y-108655497D01*
X164412428Y-108655497D01*
X164435500Y-108771489D01*
X164696753Y-109341919D01*
X165156414Y-109768951D01*
X165744503Y-109987572D01*
X165996000Y-109818495D01*
X165996000Y-108404000D01*
X166004000Y-108404000D01*
X166004000Y-109818495D01*
X166255497Y-109987572D01*
X166843586Y-109768951D01*
X167303247Y-109341919D01*
X167564500Y-108771489D01*
X167587572Y-108655497D01*
X167418494Y-108404000D01*
X166004000Y-108404000D01*
X165996000Y-108404000D01*
X164581506Y-108404000D01*
X164412428Y-108655497D01*
X158587572Y-108655497D01*
X158418494Y-108404000D01*
X157004000Y-108404000D01*
X156996000Y-108404000D01*
X155581506Y-108404000D01*
X155412428Y-108655497D01*
X136587572Y-108655497D01*
X136418494Y-108404000D01*
X135004000Y-108404000D01*
X134996000Y-108404000D01*
X133581506Y-108404000D01*
X133412428Y-108655497D01*
X126608000Y-108655497D01*
X126608000Y-108193500D01*
X126418500Y-108004000D01*
X125004000Y-108004000D01*
X124996000Y-108004000D01*
X123581500Y-108004000D01*
X123392000Y-108193500D01*
X115608000Y-108193500D01*
X115418500Y-108004000D01*
X114004000Y-108004000D01*
X113996000Y-108004000D01*
X112581500Y-108004000D01*
X112392000Y-108193500D01*
X103608000Y-108193500D01*
X103418500Y-108004000D01*
X102004000Y-108004000D01*
X101996000Y-108004000D01*
X100581500Y-108004000D01*
X100392000Y-108193500D01*
X73325000Y-108193500D01*
X73325000Y-85140000D01*
X99858859Y-85140000D01*
X100018712Y-85943635D01*
X100330327Y-86410000D01*
X100018712Y-86876365D01*
X99858859Y-87680000D01*
X100018712Y-88483635D01*
X100330327Y-88950000D01*
X100018712Y-89416365D01*
X99858859Y-90220000D01*
X100018712Y-91023635D01*
X100330327Y-91490000D01*
X100018712Y-91956365D01*
X99858859Y-92760000D01*
X100018712Y-93563635D01*
X100330327Y-94030000D01*
X100018712Y-94496365D01*
X99858859Y-95300000D01*
X100018712Y-96103635D01*
X100330327Y-96570000D01*
X100018712Y-97036365D01*
X99858859Y-97840000D01*
X100018712Y-98643635D01*
X100330327Y-99110000D01*
X100018712Y-99576365D01*
X99858859Y-100380000D01*
X100018712Y-101183635D01*
X100330327Y-101650000D01*
X100018712Y-102116365D01*
X99858859Y-102920000D01*
X100018712Y-103723635D01*
X100330327Y-104190000D01*
X100018712Y-104656365D01*
X99858859Y-105460000D01*
X100018712Y-106263635D01*
X100437240Y-106890006D01*
X100392000Y-106999225D01*
X100392000Y-107806500D01*
X100581500Y-107996000D01*
X101996000Y-107996000D01*
X101996000Y-107976000D01*
X102004000Y-107976000D01*
X102004000Y-107996000D01*
X103418500Y-107996000D01*
X103608000Y-107806500D01*
X103608000Y-106999225D01*
X103562760Y-106890006D01*
X103981288Y-106263635D01*
X104141141Y-105460000D01*
X103981288Y-104656365D01*
X103669673Y-104190000D01*
X103981288Y-103723635D01*
X104141141Y-102920000D01*
X103981288Y-102116365D01*
X103669673Y-101650000D01*
X103981288Y-101183635D01*
X104141141Y-100380000D01*
X103981288Y-99576365D01*
X103669673Y-99110000D01*
X103981288Y-98643635D01*
X104141141Y-97840000D01*
X103981288Y-97036365D01*
X103669673Y-96570000D01*
X103981288Y-96103635D01*
X104141141Y-95300000D01*
X103981288Y-94496365D01*
X103669673Y-94030000D01*
X103981288Y-93563635D01*
X104141141Y-92760000D01*
X103981288Y-91956365D01*
X103669673Y-91490000D01*
X103981288Y-91023635D01*
X104141141Y-90220000D01*
X103981288Y-89416365D01*
X103669673Y-88950000D01*
X103981288Y-88483635D01*
X104141141Y-87680000D01*
X103981288Y-86876365D01*
X103669673Y-86410000D01*
X103981288Y-85943635D01*
X104141141Y-85140000D01*
X111858859Y-85140000D01*
X112018712Y-85943635D01*
X112330327Y-86410000D01*
X112018712Y-86876365D01*
X111858859Y-87680000D01*
X112018712Y-88483635D01*
X112330327Y-88950000D01*
X112018712Y-89416365D01*
X111858859Y-90220000D01*
X112018712Y-91023635D01*
X112330327Y-91490000D01*
X112018712Y-91956365D01*
X111858859Y-92760000D01*
X112018712Y-93563635D01*
X112330327Y-94030000D01*
X112018712Y-94496365D01*
X111858859Y-95300000D01*
X112018712Y-96103635D01*
X112330327Y-96570000D01*
X112018712Y-97036365D01*
X111858859Y-97840000D01*
X112018712Y-98643635D01*
X112330327Y-99110000D01*
X112018712Y-99576365D01*
X111858859Y-100380000D01*
X112018712Y-101183635D01*
X112330327Y-101650000D01*
X112018712Y-102116365D01*
X111858859Y-102920000D01*
X112018712Y-103723635D01*
X112330327Y-104190000D01*
X112018712Y-104656365D01*
X111858859Y-105460000D01*
X112018712Y-106263635D01*
X112437240Y-106890006D01*
X112392000Y-106999225D01*
X112392000Y-107806500D01*
X112581500Y-107996000D01*
X113996000Y-107996000D01*
X113996000Y-107976000D01*
X114004000Y-107976000D01*
X114004000Y-107996000D01*
X115418500Y-107996000D01*
X115608000Y-107806500D01*
X115608000Y-106999225D01*
X115562760Y-106890006D01*
X115981288Y-106263635D01*
X116141141Y-105460000D01*
X115981288Y-104656365D01*
X115669673Y-104190000D01*
X115981288Y-103723635D01*
X116141141Y-102920000D01*
X115981288Y-102116365D01*
X115669673Y-101650000D01*
X115981288Y-101183635D01*
X116141141Y-100380000D01*
X115981288Y-99576365D01*
X115669673Y-99110000D01*
X115981288Y-98643635D01*
X116141141Y-97840000D01*
X115981288Y-97036365D01*
X115669673Y-96570000D01*
X115981288Y-96103635D01*
X116141141Y-95300000D01*
X115981288Y-94496365D01*
X115669673Y-94030000D01*
X115981288Y-93563635D01*
X116141141Y-92760000D01*
X115981288Y-91956365D01*
X115669673Y-91490000D01*
X115981288Y-91023635D01*
X116141141Y-90220000D01*
X115981288Y-89416365D01*
X115669673Y-88950000D01*
X115981288Y-88483635D01*
X116141141Y-87680000D01*
X115981288Y-86876365D01*
X115669673Y-86410000D01*
X115981288Y-85943635D01*
X116141141Y-85140000D01*
X122858859Y-85140000D01*
X123018712Y-85943635D01*
X123330327Y-86410000D01*
X123018712Y-86876365D01*
X122858859Y-87680000D01*
X123018712Y-88483635D01*
X123330327Y-88950000D01*
X123018712Y-89416365D01*
X122858859Y-90220000D01*
X123018712Y-91023635D01*
X123330327Y-91490000D01*
X123018712Y-91956365D01*
X122858859Y-92760000D01*
X123018712Y-93563635D01*
X123330327Y-94030000D01*
X123018712Y-94496365D01*
X122858859Y-95300000D01*
X123018712Y-96103635D01*
X123330327Y-96570000D01*
X123018712Y-97036365D01*
X122858859Y-97840000D01*
X123018712Y-98643635D01*
X123330327Y-99110000D01*
X123018712Y-99576365D01*
X122858859Y-100380000D01*
X123018712Y-101183635D01*
X123330327Y-101650000D01*
X123018712Y-102116365D01*
X122858859Y-102920000D01*
X123018712Y-103723635D01*
X123330327Y-104190000D01*
X123018712Y-104656365D01*
X122858859Y-105460000D01*
X123018712Y-106263635D01*
X123437240Y-106890006D01*
X123392000Y-106999225D01*
X123392000Y-107806500D01*
X123581500Y-107996000D01*
X124996000Y-107996000D01*
X124996000Y-107976000D01*
X125004000Y-107976000D01*
X125004000Y-107996000D01*
X126418500Y-107996000D01*
X126608000Y-107806500D01*
X126608000Y-106999225D01*
X126562760Y-106890006D01*
X126981288Y-106263635D01*
X127141141Y-105460000D01*
X126981288Y-104656365D01*
X126669673Y-104190000D01*
X126981288Y-103723635D01*
X127141141Y-102920000D01*
X126981288Y-102116365D01*
X126669673Y-101650000D01*
X126981288Y-101183635D01*
X127141141Y-100380000D01*
X126981288Y-99576365D01*
X126669673Y-99110000D01*
X126981288Y-98643635D01*
X127141141Y-97840000D01*
X126981288Y-97036365D01*
X126669673Y-96570000D01*
X126981288Y-96103635D01*
X127141141Y-95300000D01*
X126981288Y-94496365D01*
X126669673Y-94030000D01*
X126981288Y-93563635D01*
X127141141Y-92760000D01*
X126981288Y-91956365D01*
X126669673Y-91490000D01*
X126981288Y-91023635D01*
X127141141Y-90220000D01*
X126981288Y-89416365D01*
X126669673Y-88950000D01*
X126981288Y-88483635D01*
X127141141Y-87680000D01*
X126981288Y-86876365D01*
X126669673Y-86410000D01*
X126981288Y-85943635D01*
X127061576Y-85540000D01*
X132858859Y-85540000D01*
X133018712Y-86343635D01*
X133330327Y-86810000D01*
X133018712Y-87276365D01*
X132858859Y-88080000D01*
X133018712Y-88883635D01*
X133330327Y-89350000D01*
X133018712Y-89816365D01*
X132858859Y-90620000D01*
X133018712Y-91423635D01*
X133330327Y-91890000D01*
X133018712Y-92356365D01*
X132858859Y-93160000D01*
X133018712Y-93963635D01*
X133330327Y-94430000D01*
X133018712Y-94896365D01*
X132858859Y-95700000D01*
X133018712Y-96503635D01*
X133330327Y-96970000D01*
X133018712Y-97436365D01*
X132858859Y-98240000D01*
X133018712Y-99043635D01*
X133330327Y-99510000D01*
X133018712Y-99976365D01*
X132858859Y-100780000D01*
X133018712Y-101583635D01*
X133330327Y-102050000D01*
X133018712Y-102516365D01*
X132858859Y-103320000D01*
X133018712Y-104123635D01*
X133330327Y-104590000D01*
X133018712Y-105056365D01*
X132858859Y-105860000D01*
X133018712Y-106663635D01*
X133473935Y-107344924D01*
X133684225Y-107485435D01*
X133435500Y-108028511D01*
X133412428Y-108144503D01*
X133581506Y-108396000D01*
X134996000Y-108396000D01*
X134996000Y-108376000D01*
X135004000Y-108376000D01*
X135004000Y-108396000D01*
X136418494Y-108396000D01*
X136587572Y-108144503D01*
X136564500Y-108028511D01*
X136315775Y-107485435D01*
X136526065Y-107344924D01*
X136981288Y-106663635D01*
X137141141Y-105860000D01*
X136981288Y-105056365D01*
X136669673Y-104590000D01*
X136981288Y-104123635D01*
X137141141Y-103320000D01*
X136981288Y-102516365D01*
X136669673Y-102050000D01*
X136981288Y-101583635D01*
X137141141Y-100780000D01*
X136981288Y-99976365D01*
X136669673Y-99510000D01*
X136981288Y-99043635D01*
X137141141Y-98240000D01*
X136981288Y-97436365D01*
X136669673Y-96970000D01*
X136981288Y-96503635D01*
X137141141Y-95700000D01*
X136981288Y-94896365D01*
X136669673Y-94430000D01*
X136981288Y-93963635D01*
X137141141Y-93160000D01*
X137013838Y-92520000D01*
X142471992Y-92520000D01*
X142632880Y-93328840D01*
X142941017Y-93790000D01*
X142632880Y-94251160D01*
X142471992Y-95060000D01*
X142632880Y-95868840D01*
X142941017Y-96330000D01*
X142632880Y-96791160D01*
X142471992Y-97600000D01*
X142632880Y-98408840D01*
X143091051Y-99094541D01*
X143776752Y-99552712D01*
X144585592Y-99713600D01*
X144668408Y-99713600D01*
X145477248Y-99552712D01*
X146162949Y-99094541D01*
X146268681Y-98936302D01*
X146316308Y-98980547D01*
X146909376Y-99201005D01*
X147163000Y-99032095D01*
X147163000Y-97604000D01*
X147171000Y-97604000D01*
X147171000Y-99032095D01*
X147424624Y-99201005D01*
X148017692Y-98980547D01*
X148481249Y-98549913D01*
X148744724Y-97974664D01*
X148768005Y-97857624D01*
X148599094Y-97604000D01*
X147171000Y-97604000D01*
X147163000Y-97604000D01*
X147143000Y-97604000D01*
X147143000Y-97596000D01*
X147163000Y-97596000D01*
X147163000Y-97576000D01*
X147171000Y-97576000D01*
X147171000Y-97596000D01*
X148599094Y-97596000D01*
X148768005Y-97342376D01*
X148744724Y-97225336D01*
X148499692Y-96690353D01*
X148702949Y-96554541D01*
X149161120Y-95868840D01*
X149322008Y-95060000D01*
X149161120Y-94251160D01*
X148852983Y-93790000D01*
X149161120Y-93328840D01*
X149322008Y-92520000D01*
X149161120Y-91711160D01*
X148702949Y-91025459D01*
X148017248Y-90567288D01*
X147208408Y-90406400D01*
X147125592Y-90406400D01*
X146316752Y-90567288D01*
X145897000Y-90847757D01*
X145477248Y-90567288D01*
X144668408Y-90406400D01*
X144585592Y-90406400D01*
X143776752Y-90567288D01*
X143091051Y-91025459D01*
X142632880Y-91711160D01*
X142471992Y-92520000D01*
X137013838Y-92520000D01*
X136981288Y-92356365D01*
X136669673Y-91890000D01*
X136981288Y-91423635D01*
X137141141Y-90620000D01*
X136981288Y-89816365D01*
X136669673Y-89350000D01*
X136981288Y-88883635D01*
X137141141Y-88080000D01*
X137126106Y-88004413D01*
X144189506Y-88004413D01*
X144622479Y-89052286D01*
X145423497Y-89854704D01*
X146470613Y-90289504D01*
X147604413Y-90290494D01*
X148652286Y-89857521D01*
X149454704Y-89056503D01*
X149889504Y-88009387D01*
X149890494Y-86875587D01*
X149457521Y-85827714D01*
X149170309Y-85540000D01*
X154858859Y-85540000D01*
X155018712Y-86343635D01*
X155330327Y-86810000D01*
X155018712Y-87276365D01*
X154858859Y-88080000D01*
X155018712Y-88883635D01*
X155330327Y-89350000D01*
X155018712Y-89816365D01*
X154858859Y-90620000D01*
X155018712Y-91423635D01*
X155330327Y-91890000D01*
X155018712Y-92356365D01*
X154858859Y-93160000D01*
X155018712Y-93963635D01*
X155330327Y-94430000D01*
X155018712Y-94896365D01*
X154858859Y-95700000D01*
X155018712Y-96503635D01*
X155330327Y-96970000D01*
X155018712Y-97436365D01*
X154858859Y-98240000D01*
X155018712Y-99043635D01*
X155330327Y-99510000D01*
X155018712Y-99976365D01*
X154858859Y-100780000D01*
X155018712Y-101583635D01*
X155330327Y-102050000D01*
X155018712Y-102516365D01*
X154858859Y-103320000D01*
X155018712Y-104123635D01*
X155330327Y-104590000D01*
X155018712Y-105056365D01*
X154858859Y-105860000D01*
X155018712Y-106663635D01*
X155473935Y-107344924D01*
X155684225Y-107485435D01*
X155435500Y-108028511D01*
X155412428Y-108144503D01*
X155581506Y-108396000D01*
X156996000Y-108396000D01*
X156996000Y-108376000D01*
X157004000Y-108376000D01*
X157004000Y-108396000D01*
X158418494Y-108396000D01*
X158587572Y-108144503D01*
X158564500Y-108028511D01*
X158315775Y-107485435D01*
X158526065Y-107344924D01*
X158981288Y-106663635D01*
X159141141Y-105860000D01*
X158981288Y-105056365D01*
X158669673Y-104590000D01*
X158981288Y-104123635D01*
X159141141Y-103320000D01*
X158981288Y-102516365D01*
X158669673Y-102050000D01*
X158981288Y-101583635D01*
X159141141Y-100780000D01*
X158981288Y-99976365D01*
X158669673Y-99510000D01*
X158981288Y-99043635D01*
X159141141Y-98240000D01*
X158981288Y-97436365D01*
X158669673Y-96970000D01*
X158981288Y-96503635D01*
X159141141Y-95700000D01*
X158981288Y-94896365D01*
X158669673Y-94430000D01*
X158981288Y-93963635D01*
X159141141Y-93160000D01*
X158981288Y-92356365D01*
X158669673Y-91890000D01*
X158981288Y-91423635D01*
X159141141Y-90620000D01*
X158981288Y-89816365D01*
X158669673Y-89350000D01*
X158981288Y-88883635D01*
X159141141Y-88080000D01*
X158981288Y-87276365D01*
X158669673Y-86810000D01*
X158981288Y-86343635D01*
X159141141Y-85540000D01*
X163858859Y-85540000D01*
X164018712Y-86343635D01*
X164330327Y-86810000D01*
X164018712Y-87276365D01*
X163858859Y-88080000D01*
X164018712Y-88883635D01*
X164330327Y-89350000D01*
X164018712Y-89816365D01*
X163858859Y-90620000D01*
X164018712Y-91423635D01*
X164330327Y-91890000D01*
X164018712Y-92356365D01*
X163858859Y-93160000D01*
X164018712Y-93963635D01*
X164330327Y-94430000D01*
X164018712Y-94896365D01*
X163858859Y-95700000D01*
X164018712Y-96503635D01*
X164330327Y-96970000D01*
X164018712Y-97436365D01*
X163858859Y-98240000D01*
X164018712Y-99043635D01*
X164330327Y-99510000D01*
X164018712Y-99976365D01*
X163858859Y-100780000D01*
X164018712Y-101583635D01*
X164330327Y-102050000D01*
X164018712Y-102516365D01*
X163858859Y-103320000D01*
X164018712Y-104123635D01*
X164330327Y-104590000D01*
X164018712Y-105056365D01*
X163858859Y-105860000D01*
X164018712Y-106663635D01*
X164473935Y-107344924D01*
X164684225Y-107485435D01*
X164435500Y-108028511D01*
X164412428Y-108144503D01*
X164581506Y-108396000D01*
X165996000Y-108396000D01*
X165996000Y-108376000D01*
X166004000Y-108376000D01*
X166004000Y-108396000D01*
X167418494Y-108396000D01*
X167587572Y-108144503D01*
X167564500Y-108028511D01*
X167315775Y-107485435D01*
X167526065Y-107344924D01*
X167981288Y-106663635D01*
X168141141Y-105860000D01*
X167981288Y-105056365D01*
X167669673Y-104590000D01*
X167981288Y-104123635D01*
X168141141Y-103320000D01*
X167981288Y-102516365D01*
X167669673Y-102050000D01*
X167981288Y-101583635D01*
X168141141Y-100780000D01*
X167981288Y-99976365D01*
X167669673Y-99510000D01*
X167981288Y-99043635D01*
X168141141Y-98240000D01*
X167981288Y-97436365D01*
X167669673Y-96970000D01*
X167981288Y-96503635D01*
X168141141Y-95700000D01*
X167981288Y-94896365D01*
X167669673Y-94430000D01*
X167981288Y-93963635D01*
X168141141Y-93160000D01*
X167981288Y-92356365D01*
X167669673Y-91890000D01*
X167981288Y-91423635D01*
X168141141Y-90620000D01*
X167981288Y-89816365D01*
X167669673Y-89350000D01*
X167981288Y-88883635D01*
X168141141Y-88080000D01*
X167981288Y-87276365D01*
X167669673Y-86810000D01*
X167981288Y-86343635D01*
X168141141Y-85540000D01*
X167981288Y-84736365D01*
X167562760Y-84109994D01*
X167608000Y-84000775D01*
X167608000Y-83193500D01*
X167418500Y-83004000D01*
X166004000Y-83004000D01*
X166004000Y-83024000D01*
X165996000Y-83024000D01*
X165996000Y-83004000D01*
X164581500Y-83004000D01*
X164392000Y-83193500D01*
X164392000Y-84000775D01*
X164437240Y-84109994D01*
X164018712Y-84736365D01*
X163858859Y-85540000D01*
X159141141Y-85540000D01*
X158981288Y-84736365D01*
X158562760Y-84109994D01*
X158608000Y-84000775D01*
X158608000Y-83193500D01*
X158418500Y-83004000D01*
X157004000Y-83004000D01*
X157004000Y-83024000D01*
X156996000Y-83024000D01*
X156996000Y-83004000D01*
X155581500Y-83004000D01*
X155392000Y-83193500D01*
X155392000Y-84000775D01*
X155437240Y-84109994D01*
X155018712Y-84736365D01*
X154858859Y-85540000D01*
X149170309Y-85540000D01*
X148656503Y-85025296D01*
X147609387Y-84590496D01*
X146475587Y-84589506D01*
X145427714Y-85022479D01*
X144625296Y-85823497D01*
X144190496Y-86870613D01*
X144189506Y-88004413D01*
X137126106Y-88004413D01*
X136981288Y-87276365D01*
X136669673Y-86810000D01*
X136981288Y-86343635D01*
X137141141Y-85540000D01*
X136981288Y-84736365D01*
X136562760Y-84109994D01*
X136608000Y-84000775D01*
X136608000Y-83193500D01*
X136418500Y-83004000D01*
X135004000Y-83004000D01*
X135004000Y-83024000D01*
X134996000Y-83024000D01*
X134996000Y-83004000D01*
X133581500Y-83004000D01*
X133392000Y-83193500D01*
X133392000Y-84000775D01*
X133437240Y-84109994D01*
X133018712Y-84736365D01*
X132858859Y-85540000D01*
X127061576Y-85540000D01*
X127141141Y-85140000D01*
X126981288Y-84336365D01*
X126526065Y-83655076D01*
X126315775Y-83514565D01*
X126564500Y-82971489D01*
X126587572Y-82855497D01*
X126418494Y-82604000D01*
X125004000Y-82604000D01*
X125004000Y-82624000D01*
X124996000Y-82624000D01*
X124996000Y-82604000D01*
X123581506Y-82604000D01*
X123412428Y-82855497D01*
X123435500Y-82971489D01*
X123684225Y-83514565D01*
X123473935Y-83655076D01*
X123018712Y-84336365D01*
X122858859Y-85140000D01*
X116141141Y-85140000D01*
X115981288Y-84336365D01*
X115526065Y-83655076D01*
X115315775Y-83514565D01*
X115564500Y-82971489D01*
X115587572Y-82855497D01*
X115418494Y-82604000D01*
X114004000Y-82604000D01*
X114004000Y-82624000D01*
X113996000Y-82624000D01*
X113996000Y-82604000D01*
X112581506Y-82604000D01*
X112412428Y-82855497D01*
X112435500Y-82971489D01*
X112684225Y-83514565D01*
X112473935Y-83655076D01*
X112018712Y-84336365D01*
X111858859Y-85140000D01*
X104141141Y-85140000D01*
X103981288Y-84336365D01*
X103526065Y-83655076D01*
X103315775Y-83514565D01*
X103564500Y-82971489D01*
X103587572Y-82855497D01*
X103418494Y-82604000D01*
X102004000Y-82604000D01*
X102004000Y-82624000D01*
X101996000Y-82624000D01*
X101996000Y-82604000D01*
X100581506Y-82604000D01*
X100412428Y-82855497D01*
X100435500Y-82971489D01*
X100684225Y-83514565D01*
X100473935Y-83655076D01*
X100018712Y-84336365D01*
X99858859Y-85140000D01*
X73325000Y-85140000D01*
X73325000Y-82344503D01*
X100412428Y-82344503D01*
X100581506Y-82596000D01*
X101996000Y-82596000D01*
X101996000Y-81181505D01*
X102004000Y-81181505D01*
X102004000Y-82596000D01*
X103418494Y-82596000D01*
X103587572Y-82344503D01*
X112412428Y-82344503D01*
X112581506Y-82596000D01*
X113996000Y-82596000D01*
X113996000Y-81181505D01*
X114004000Y-81181505D01*
X114004000Y-82596000D01*
X115418494Y-82596000D01*
X115587572Y-82344503D01*
X123412428Y-82344503D01*
X123581506Y-82596000D01*
X124996000Y-82596000D01*
X124996000Y-81181505D01*
X125004000Y-81181505D01*
X125004000Y-82596000D01*
X126418494Y-82596000D01*
X126587572Y-82344503D01*
X126564500Y-82228511D01*
X126459489Y-81999225D01*
X133392000Y-81999225D01*
X133392000Y-82806500D01*
X133581500Y-82996000D01*
X134996000Y-82996000D01*
X134996000Y-81581500D01*
X135004000Y-81581500D01*
X135004000Y-82996000D01*
X136418500Y-82996000D01*
X136608000Y-82806500D01*
X136608000Y-81999225D01*
X155392000Y-81999225D01*
X155392000Y-82806500D01*
X155581500Y-82996000D01*
X156996000Y-82996000D01*
X156996000Y-81581500D01*
X157004000Y-81581500D01*
X157004000Y-82996000D01*
X158418500Y-82996000D01*
X158608000Y-82806500D01*
X158608000Y-81999225D01*
X164392000Y-81999225D01*
X164392000Y-82806500D01*
X164581500Y-82996000D01*
X165996000Y-82996000D01*
X165996000Y-81581500D01*
X166004000Y-81581500D01*
X166004000Y-82996000D01*
X167418500Y-82996000D01*
X167608000Y-82806500D01*
X167608000Y-81999225D01*
X167492602Y-81720628D01*
X167279373Y-81507399D01*
X167000776Y-81392000D01*
X166193500Y-81392000D01*
X166004000Y-81581500D01*
X165996000Y-81581500D01*
X165806500Y-81392000D01*
X164999224Y-81392000D01*
X164720627Y-81507399D01*
X164507398Y-81720628D01*
X164392000Y-81999225D01*
X158608000Y-81999225D01*
X158492602Y-81720628D01*
X158279373Y-81507399D01*
X158000776Y-81392000D01*
X157193500Y-81392000D01*
X157004000Y-81581500D01*
X156996000Y-81581500D01*
X156806500Y-81392000D01*
X155999224Y-81392000D01*
X155720627Y-81507399D01*
X155507398Y-81720628D01*
X155392000Y-81999225D01*
X136608000Y-81999225D01*
X136492602Y-81720628D01*
X136279373Y-81507399D01*
X136000776Y-81392000D01*
X135193500Y-81392000D01*
X135004000Y-81581500D01*
X134996000Y-81581500D01*
X134806500Y-81392000D01*
X133999224Y-81392000D01*
X133720627Y-81507399D01*
X133507398Y-81720628D01*
X133392000Y-81999225D01*
X126459489Y-81999225D01*
X126303247Y-81658081D01*
X125843586Y-81231049D01*
X125255497Y-81012428D01*
X125004000Y-81181505D01*
X124996000Y-81181505D01*
X124744503Y-81012428D01*
X124156414Y-81231049D01*
X123696753Y-81658081D01*
X123435500Y-82228511D01*
X123412428Y-82344503D01*
X115587572Y-82344503D01*
X115564500Y-82228511D01*
X115303247Y-81658081D01*
X114843586Y-81231049D01*
X114255497Y-81012428D01*
X114004000Y-81181505D01*
X113996000Y-81181505D01*
X113744503Y-81012428D01*
X113156414Y-81231049D01*
X112696753Y-81658081D01*
X112435500Y-82228511D01*
X112412428Y-82344503D01*
X103587572Y-82344503D01*
X103564500Y-82228511D01*
X103303247Y-81658081D01*
X102843586Y-81231049D01*
X102255497Y-81012428D01*
X102004000Y-81181505D01*
X101996000Y-81181505D01*
X101744503Y-81012428D01*
X101156414Y-81231049D01*
X100696753Y-81658081D01*
X100435500Y-82228511D01*
X100412428Y-82344503D01*
X73325000Y-82344503D01*
X73325000Y-72764413D01*
X93389506Y-72764413D01*
X93822479Y-73812286D01*
X94623497Y-74614704D01*
X95670613Y-75049504D01*
X96804413Y-75050494D01*
X97852286Y-74617521D01*
X98569650Y-73901409D01*
X98945752Y-74152712D01*
X99754592Y-74313600D01*
X99837408Y-74313600D01*
X100646248Y-74152712D01*
X101066000Y-73872243D01*
X101485752Y-74152712D01*
X102294592Y-74313600D01*
X102377408Y-74313600D01*
X103186248Y-74152712D01*
X103606000Y-73872243D01*
X104025752Y-74152712D01*
X104834592Y-74313600D01*
X104917408Y-74313600D01*
X105726248Y-74152712D01*
X106411949Y-73694541D01*
X106517681Y-73536302D01*
X106565308Y-73580547D01*
X107158376Y-73801005D01*
X107412000Y-73632095D01*
X107412000Y-72204000D01*
X107392000Y-72204000D01*
X107392000Y-72196000D01*
X107412000Y-72196000D01*
X107412000Y-70767905D01*
X107420000Y-70767905D01*
X107420000Y-72196000D01*
X107440000Y-72196000D01*
X107440000Y-72204000D01*
X107420000Y-72204000D01*
X107420000Y-73632095D01*
X107673624Y-73801005D01*
X108266692Y-73580547D01*
X108314319Y-73536302D01*
X108420051Y-73694541D01*
X109105752Y-74152712D01*
X109914592Y-74313600D01*
X109997408Y-74313600D01*
X110806248Y-74152712D01*
X111226000Y-73872243D01*
X111645752Y-74152712D01*
X112454592Y-74313600D01*
X112537408Y-74313600D01*
X113346248Y-74152712D01*
X113766000Y-73872243D01*
X114185752Y-74152712D01*
X114994592Y-74313600D01*
X115077408Y-74313600D01*
X115886248Y-74152712D01*
X116306000Y-73872243D01*
X116725752Y-74152712D01*
X117534592Y-74313600D01*
X117617408Y-74313600D01*
X118426248Y-74152712D01*
X118846000Y-73872243D01*
X119265752Y-74152712D01*
X120074592Y-74313600D01*
X120157408Y-74313600D01*
X120966248Y-74152712D01*
X121386000Y-73872243D01*
X121805752Y-74152712D01*
X122614592Y-74313600D01*
X122697408Y-74313600D01*
X123506248Y-74152712D01*
X124191949Y-73694541D01*
X124650120Y-73008840D01*
X124688000Y-72818404D01*
X124725880Y-73008840D01*
X125184051Y-73694541D01*
X125869752Y-74152712D01*
X126678592Y-74313600D01*
X126761408Y-74313600D01*
X127570248Y-74152712D01*
X127990000Y-73872243D01*
X128409752Y-74152712D01*
X129218592Y-74313600D01*
X129301408Y-74313600D01*
X130110248Y-74152712D01*
X130530000Y-73872243D01*
X130949752Y-74152712D01*
X131758592Y-74313600D01*
X131841408Y-74313600D01*
X132650248Y-74152712D01*
X133070000Y-73872243D01*
X133489752Y-74152712D01*
X134298592Y-74313600D01*
X134381408Y-74313600D01*
X135190248Y-74152712D01*
X135610000Y-73872243D01*
X136029752Y-74152712D01*
X136838592Y-74313600D01*
X136921408Y-74313600D01*
X137730248Y-74152712D01*
X138150000Y-73872243D01*
X138569752Y-74152712D01*
X139378592Y-74313600D01*
X139461408Y-74313600D01*
X140270248Y-74152712D01*
X140690000Y-73872243D01*
X141109752Y-74152712D01*
X141918592Y-74313600D01*
X142001408Y-74313600D01*
X142810248Y-74152712D01*
X143230000Y-73872243D01*
X143649752Y-74152712D01*
X144458592Y-74313600D01*
X144541408Y-74313600D01*
X145350248Y-74152712D01*
X146035949Y-73694541D01*
X146494120Y-73008840D01*
X146655008Y-72200000D01*
X147424992Y-72200000D01*
X147585880Y-73008840D01*
X148044051Y-73694541D01*
X148729752Y-74152712D01*
X149538592Y-74313600D01*
X149621408Y-74313600D01*
X150430248Y-74152712D01*
X150850000Y-73872243D01*
X151269752Y-74152712D01*
X152078592Y-74313600D01*
X152161408Y-74313600D01*
X152970248Y-74152712D01*
X153390000Y-73872243D01*
X153809752Y-74152712D01*
X154618592Y-74313600D01*
X154701408Y-74313600D01*
X155510248Y-74152712D01*
X155930000Y-73872243D01*
X156349752Y-74152712D01*
X157158592Y-74313600D01*
X157241408Y-74313600D01*
X158050248Y-74152712D01*
X158470000Y-73872243D01*
X158889752Y-74152712D01*
X159698592Y-74313600D01*
X159781408Y-74313600D01*
X160590248Y-74152712D01*
X161010000Y-73872243D01*
X161429752Y-74152712D01*
X162238592Y-74313600D01*
X162321408Y-74313600D01*
X163130248Y-74152712D01*
X163550000Y-73872243D01*
X163969752Y-74152712D01*
X164778592Y-74313600D01*
X164861408Y-74313600D01*
X165670248Y-74152712D01*
X166090000Y-73872243D01*
X166509752Y-74152712D01*
X167318592Y-74313600D01*
X167401408Y-74313600D01*
X168210248Y-74152712D01*
X168745394Y-73795139D01*
X168752479Y-73812286D01*
X169553497Y-74614704D01*
X170600613Y-75049504D01*
X171734413Y-75050494D01*
X172782286Y-74617521D01*
X172865972Y-74533981D01*
X172824992Y-74740000D01*
X172985880Y-75548840D01*
X173294017Y-76010000D01*
X172985880Y-76471160D01*
X172824992Y-77280000D01*
X172985880Y-78088840D01*
X173294017Y-78550000D01*
X172985880Y-79011160D01*
X172824992Y-79820000D01*
X172985880Y-80628840D01*
X173294017Y-81090000D01*
X172985880Y-81551160D01*
X172824992Y-82360000D01*
X172985880Y-83168840D01*
X173294017Y-83630000D01*
X172985880Y-84091160D01*
X172824992Y-84900000D01*
X172985880Y-85708840D01*
X173294017Y-86170000D01*
X172985880Y-86631160D01*
X172824992Y-87440000D01*
X172985880Y-88248840D01*
X173294017Y-88710000D01*
X172985880Y-89171160D01*
X172824992Y-89980000D01*
X172985880Y-90788840D01*
X173294017Y-91250000D01*
X172985880Y-91711160D01*
X172824992Y-92520000D01*
X172985880Y-93328840D01*
X173294017Y-93790000D01*
X172985880Y-94251160D01*
X172824992Y-95060000D01*
X172985880Y-95868840D01*
X173294017Y-96330000D01*
X172985880Y-96791160D01*
X172824992Y-97600000D01*
X172985880Y-98408840D01*
X173294017Y-98870000D01*
X172985880Y-99331160D01*
X172824992Y-100140000D01*
X172985880Y-100948840D01*
X173294017Y-101410000D01*
X172985880Y-101871160D01*
X172824992Y-102680000D01*
X172985880Y-103488840D01*
X173294017Y-103950000D01*
X172985880Y-104411160D01*
X172824992Y-105220000D01*
X172985880Y-106028840D01*
X173294017Y-106490000D01*
X172985880Y-106951160D01*
X172824992Y-107760000D01*
X172985880Y-108568840D01*
X173294017Y-109030000D01*
X172985880Y-109491160D01*
X172824992Y-110300000D01*
X172985880Y-111108840D01*
X173294017Y-111570000D01*
X172985880Y-112031160D01*
X172824992Y-112840000D01*
X172985880Y-113648840D01*
X173444051Y-114334541D01*
X173647308Y-114470353D01*
X173402276Y-115005336D01*
X173378995Y-115122376D01*
X173547906Y-115376000D01*
X174976000Y-115376000D01*
X174976000Y-115356000D01*
X174984000Y-115356000D01*
X174984000Y-115376000D01*
X177516000Y-115376000D01*
X177516000Y-115356000D01*
X177524000Y-115356000D01*
X177524000Y-115376000D01*
X178952094Y-115376000D01*
X179121005Y-115122376D01*
X179097724Y-115005336D01*
X178852692Y-114470353D01*
X179055949Y-114334541D01*
X179514120Y-113648840D01*
X179675008Y-112840000D01*
X179514120Y-112031160D01*
X179205983Y-111570000D01*
X179514120Y-111108840D01*
X179675008Y-110300000D01*
X179514120Y-109491160D01*
X179205983Y-109030000D01*
X179514120Y-108568840D01*
X179675008Y-107760000D01*
X179514120Y-106951160D01*
X179205983Y-106490000D01*
X179514120Y-106028840D01*
X179675008Y-105220000D01*
X179514120Y-104411160D01*
X179205983Y-103950000D01*
X179514120Y-103488840D01*
X179675008Y-102680000D01*
X179514120Y-101871160D01*
X179205983Y-101410000D01*
X179514120Y-100948840D01*
X179675008Y-100140000D01*
X179514120Y-99331160D01*
X179205983Y-98870000D01*
X179514120Y-98408840D01*
X179675008Y-97600000D01*
X179514120Y-96791160D01*
X179205983Y-96330000D01*
X179514120Y-95868840D01*
X179675008Y-95060000D01*
X179514120Y-94251160D01*
X179205983Y-93790000D01*
X179514120Y-93328840D01*
X179675008Y-92520000D01*
X179514120Y-91711160D01*
X179205983Y-91250000D01*
X179514120Y-90788840D01*
X179675008Y-89980000D01*
X179514120Y-89171160D01*
X179205983Y-88710000D01*
X179514120Y-88248840D01*
X179675008Y-87440000D01*
X179514120Y-86631160D01*
X179205983Y-86170000D01*
X179514120Y-85708840D01*
X179675008Y-84900000D01*
X179514120Y-84091160D01*
X179205983Y-83630000D01*
X179514120Y-83168840D01*
X179675008Y-82360000D01*
X179514120Y-81551160D01*
X179205983Y-81090000D01*
X179514120Y-80628840D01*
X179675008Y-79820000D01*
X179514120Y-79011160D01*
X179205983Y-78550000D01*
X179514120Y-78088840D01*
X179675008Y-77280000D01*
X179514120Y-76471160D01*
X179205983Y-76010000D01*
X179514120Y-75548840D01*
X179675008Y-74740000D01*
X179514120Y-73931160D01*
X179205983Y-73470000D01*
X179514120Y-73008840D01*
X179675008Y-72200000D01*
X179514120Y-71391160D01*
X179055949Y-70705459D01*
X178370248Y-70247288D01*
X177561408Y-70086400D01*
X177478592Y-70086400D01*
X176669752Y-70247288D01*
X176250000Y-70527757D01*
X175830248Y-70247288D01*
X175021408Y-70086400D01*
X174938592Y-70086400D01*
X174129752Y-70247288D01*
X173594606Y-70604861D01*
X173587521Y-70587714D01*
X172786503Y-69785296D01*
X171739387Y-69350496D01*
X170605587Y-69349506D01*
X169557714Y-69782479D01*
X168755296Y-70583497D01*
X168746201Y-70605400D01*
X168210248Y-70247288D01*
X167401408Y-70086400D01*
X167318592Y-70086400D01*
X166509752Y-70247288D01*
X166090000Y-70527757D01*
X165670248Y-70247288D01*
X164861408Y-70086400D01*
X164778592Y-70086400D01*
X163969752Y-70247288D01*
X163550000Y-70527757D01*
X163130248Y-70247288D01*
X162321408Y-70086400D01*
X162238592Y-70086400D01*
X161429752Y-70247288D01*
X161010000Y-70527757D01*
X160590248Y-70247288D01*
X159781408Y-70086400D01*
X159698592Y-70086400D01*
X158889752Y-70247288D01*
X158470000Y-70527757D01*
X158050248Y-70247288D01*
X157241408Y-70086400D01*
X157158592Y-70086400D01*
X156349752Y-70247288D01*
X155930000Y-70527757D01*
X155510248Y-70247288D01*
X154701408Y-70086400D01*
X154618592Y-70086400D01*
X153809752Y-70247288D01*
X153390000Y-70527757D01*
X152970248Y-70247288D01*
X152161408Y-70086400D01*
X152078592Y-70086400D01*
X151269752Y-70247288D01*
X150850000Y-70527757D01*
X150430248Y-70247288D01*
X149621408Y-70086400D01*
X149538592Y-70086400D01*
X148729752Y-70247288D01*
X148044051Y-70705459D01*
X147585880Y-71391160D01*
X147424992Y-72200000D01*
X146655008Y-72200000D01*
X146494120Y-71391160D01*
X146035949Y-70705459D01*
X145350248Y-70247288D01*
X144541408Y-70086400D01*
X144458592Y-70086400D01*
X143649752Y-70247288D01*
X143230000Y-70527757D01*
X142810248Y-70247288D01*
X142001408Y-70086400D01*
X141918592Y-70086400D01*
X141109752Y-70247288D01*
X140690000Y-70527757D01*
X140270248Y-70247288D01*
X139461408Y-70086400D01*
X139378592Y-70086400D01*
X138569752Y-70247288D01*
X138150000Y-70527757D01*
X137730248Y-70247288D01*
X136921408Y-70086400D01*
X136838592Y-70086400D01*
X136029752Y-70247288D01*
X135610000Y-70527757D01*
X135190248Y-70247288D01*
X134381408Y-70086400D01*
X134298592Y-70086400D01*
X133489752Y-70247288D01*
X133070000Y-70527757D01*
X132650248Y-70247288D01*
X131841408Y-70086400D01*
X131758592Y-70086400D01*
X130949752Y-70247288D01*
X130530000Y-70527757D01*
X130110248Y-70247288D01*
X129301408Y-70086400D01*
X129218592Y-70086400D01*
X128409752Y-70247288D01*
X127990000Y-70527757D01*
X127570248Y-70247288D01*
X126761408Y-70086400D01*
X126678592Y-70086400D01*
X125869752Y-70247288D01*
X125184051Y-70705459D01*
X124725880Y-71391160D01*
X124688000Y-71581596D01*
X124650120Y-71391160D01*
X124191949Y-70705459D01*
X123506248Y-70247288D01*
X122697408Y-70086400D01*
X122614592Y-70086400D01*
X121805752Y-70247288D01*
X121386000Y-70527757D01*
X120966248Y-70247288D01*
X120157408Y-70086400D01*
X120074592Y-70086400D01*
X119265752Y-70247288D01*
X118846000Y-70527757D01*
X118426248Y-70247288D01*
X117617408Y-70086400D01*
X117534592Y-70086400D01*
X116725752Y-70247288D01*
X116306000Y-70527757D01*
X115886248Y-70247288D01*
X115077408Y-70086400D01*
X114994592Y-70086400D01*
X114185752Y-70247288D01*
X113766000Y-70527757D01*
X113346248Y-70247288D01*
X112537408Y-70086400D01*
X112454592Y-70086400D01*
X111645752Y-70247288D01*
X111226000Y-70527757D01*
X110806248Y-70247288D01*
X109997408Y-70086400D01*
X109914592Y-70086400D01*
X109105752Y-70247288D01*
X108420051Y-70705459D01*
X108314319Y-70863698D01*
X108266692Y-70819453D01*
X107673624Y-70598995D01*
X107420000Y-70767905D01*
X107412000Y-70767905D01*
X107158376Y-70598995D01*
X106565308Y-70819453D01*
X106517681Y-70863698D01*
X106411949Y-70705459D01*
X105726248Y-70247288D01*
X104917408Y-70086400D01*
X104834592Y-70086400D01*
X104025752Y-70247288D01*
X103606000Y-70527757D01*
X103186248Y-70247288D01*
X102377408Y-70086400D01*
X102294592Y-70086400D01*
X101485752Y-70247288D01*
X101066000Y-70527757D01*
X100646248Y-70247288D01*
X99837408Y-70086400D01*
X99754592Y-70086400D01*
X98945752Y-70247288D01*
X98568993Y-70499031D01*
X97856503Y-69785296D01*
X96809387Y-69350496D01*
X95675587Y-69349506D01*
X94627714Y-69782479D01*
X93825296Y-70583497D01*
X93390496Y-71630613D01*
X93389506Y-72764413D01*
X73325000Y-72764413D01*
X73325000Y-53925736D01*
X73819051Y-55121429D01*
X74873022Y-56177242D01*
X76250806Y-56749348D01*
X77742649Y-56750650D01*
X79091053Y-56193500D01*
X103392000Y-56193500D01*
X103392000Y-57000776D01*
X103507399Y-57279373D01*
X103720628Y-57492602D01*
X103999225Y-57608000D01*
X104806500Y-57608000D01*
X104996000Y-57418500D01*
X104996000Y-56004000D01*
X105004000Y-56004000D01*
X105004000Y-57418500D01*
X105193500Y-57608000D01*
X106000775Y-57608000D01*
X106279372Y-57492602D01*
X106492601Y-57279373D01*
X106518289Y-57217358D01*
X106598081Y-57303247D01*
X107168511Y-57564500D01*
X107284503Y-57587572D01*
X107536000Y-57418494D01*
X107536000Y-56004000D01*
X105004000Y-56004000D01*
X104996000Y-56004000D01*
X103581500Y-56004000D01*
X103392000Y-56193500D01*
X79091053Y-56193500D01*
X79121429Y-56180949D01*
X80177242Y-55126978D01*
X80230290Y-54999224D01*
X103392000Y-54999224D01*
X103392000Y-55806500D01*
X103581500Y-55996000D01*
X104996000Y-55996000D01*
X104996000Y-54581500D01*
X105004000Y-54581500D01*
X105004000Y-55996000D01*
X107536000Y-55996000D01*
X107536000Y-54581506D01*
X107544000Y-54581506D01*
X107544000Y-55996000D01*
X107564000Y-55996000D01*
X107564000Y-56004000D01*
X107544000Y-56004000D01*
X107544000Y-57418494D01*
X107795497Y-57587572D01*
X107911489Y-57564500D01*
X108454565Y-57315775D01*
X108595076Y-57526065D01*
X109276365Y-57981288D01*
X110080000Y-58141141D01*
X110883635Y-57981288D01*
X111350000Y-57669673D01*
X111816365Y-57981288D01*
X112620000Y-58141141D01*
X113423635Y-57981288D01*
X114104924Y-57526065D01*
X114560147Y-56844776D01*
X114720000Y-56041141D01*
X114720000Y-55958859D01*
X114560147Y-55155224D01*
X114104924Y-54473935D01*
X113423635Y-54018712D01*
X112620000Y-53858859D01*
X111816365Y-54018712D01*
X111350000Y-54330327D01*
X110883635Y-54018712D01*
X110080000Y-53858859D01*
X109276365Y-54018712D01*
X108595076Y-54473935D01*
X108454565Y-54684225D01*
X107911489Y-54435500D01*
X107795497Y-54412428D01*
X107544000Y-54581506D01*
X107536000Y-54581506D01*
X107284503Y-54412428D01*
X107168511Y-54435500D01*
X106598081Y-54696753D01*
X106518289Y-54782642D01*
X106492601Y-54720627D01*
X106279372Y-54507398D01*
X106000775Y-54392000D01*
X105193500Y-54392000D01*
X105004000Y-54581500D01*
X104996000Y-54581500D01*
X104806500Y-54392000D01*
X103999225Y-54392000D01*
X103720628Y-54507398D01*
X103507399Y-54720627D01*
X103392000Y-54999224D01*
X80230290Y-54999224D01*
X80749348Y-53749194D01*
X80750650Y-52257351D01*
X80180949Y-50878571D01*
X79126978Y-49822758D01*
X77928244Y-49325000D01*
X182074264Y-49325000D01*
X180878571Y-49819051D01*
X180878571Y-49819051D01*
G37*
X180878571Y-49819051D02*
X179822758Y-50873022D01*
X179250652Y-52250806D01*
X179249350Y-53742649D01*
X179819051Y-55121429D01*
X180873022Y-56177242D01*
X182250806Y-56749348D01*
X183742649Y-56750650D01*
X185121429Y-56180949D01*
X186177242Y-55126978D01*
X186675000Y-53928244D01*
X186675000Y-142074264D01*
X186180949Y-140878571D01*
X185126978Y-139822758D01*
X183749194Y-139250652D01*
X182257351Y-139249350D01*
X180878571Y-139819051D01*
X179822758Y-140873022D01*
X179250652Y-142250806D01*
X179249350Y-143742649D01*
X179819051Y-145121429D01*
X180873022Y-146177242D01*
X182071756Y-146675000D01*
X77925736Y-146675000D01*
X79121429Y-146180949D01*
X80177242Y-145126978D01*
X80749348Y-143749194D01*
X80750650Y-142257351D01*
X80180949Y-140878571D01*
X79126978Y-139822758D01*
X77749194Y-139250652D01*
X76257351Y-139249350D01*
X74878571Y-139819051D01*
X73822758Y-140873022D01*
X73325000Y-142071756D01*
X73325000Y-128690000D01*
X89315512Y-128690000D01*
X89315512Y-130390000D01*
X89397442Y-130825420D01*
X89315512Y-131230000D01*
X89315512Y-132930000D01*
X89397442Y-133365420D01*
X89315512Y-133770000D01*
X89315512Y-135470000D01*
X89397442Y-135905420D01*
X89315512Y-136310000D01*
X89315512Y-138010000D01*
X89397442Y-138445420D01*
X89315512Y-138850000D01*
X89315512Y-140550000D01*
X89397442Y-140985420D01*
X89315512Y-141390000D01*
X89315512Y-143090000D01*
X89402673Y-143553222D01*
X89676437Y-143978663D01*
X90094153Y-144264076D01*
X90590000Y-144364488D01*
X92290000Y-144364488D01*
X92725420Y-144282558D01*
X93130000Y-144364488D01*
X94830000Y-144364488D01*
X95265420Y-144282558D01*
X95670000Y-144364488D01*
X97370000Y-144364488D01*
X97805420Y-144282558D01*
X98210000Y-144364488D01*
X99910000Y-144364488D01*
X100345420Y-144282558D01*
X100750000Y-144364488D01*
X102450000Y-144364488D01*
X102885420Y-144282558D01*
X103290000Y-144364488D01*
X104990000Y-144364488D01*
X105425420Y-144282558D01*
X105830000Y-144364488D01*
X107530000Y-144364488D01*
X107965420Y-144282558D01*
X108370000Y-144364488D01*
X110070000Y-144364488D01*
X110505420Y-144282558D01*
X110910000Y-144364488D01*
X112610000Y-144364488D01*
X113045420Y-144282558D01*
X113450000Y-144364488D01*
X115150000Y-144364488D01*
X115585420Y-144282558D01*
X115990000Y-144364488D01*
X117690000Y-144364488D01*
X118125420Y-144282558D01*
X118530000Y-144364488D01*
X120230000Y-144364488D01*
X120665420Y-144282558D01*
X121070000Y-144364488D01*
X122770000Y-144364488D01*
X123205420Y-144282558D01*
X123610000Y-144364488D01*
X125310000Y-144364488D01*
X125745420Y-144282558D01*
X126150000Y-144364488D01*
X127850000Y-144364488D01*
X128285420Y-144282558D01*
X128690000Y-144364488D01*
X130390000Y-144364488D01*
X130825420Y-144282558D01*
X131230000Y-144364488D01*
X132930000Y-144364488D01*
X133365420Y-144282558D01*
X133770000Y-144364488D01*
X135470000Y-144364488D01*
X135905420Y-144282558D01*
X136310000Y-144364488D01*
X138010000Y-144364488D01*
X138445420Y-144282558D01*
X138850000Y-144364488D01*
X140550000Y-144364488D01*
X140985420Y-144282558D01*
X141390000Y-144364488D01*
X143090000Y-144364488D01*
X143553222Y-144277327D01*
X143978663Y-144003563D01*
X144264076Y-143585847D01*
X144364488Y-143090000D01*
X144364488Y-141390000D01*
X144282558Y-140954580D01*
X144364488Y-140550000D01*
X144364488Y-138850000D01*
X144282558Y-138414580D01*
X144364488Y-138010000D01*
X144364488Y-136310000D01*
X144282558Y-135874580D01*
X144364488Y-135470000D01*
X144364488Y-133770000D01*
X144282558Y-133334580D01*
X144364488Y-132930000D01*
X144364488Y-131230000D01*
X144282558Y-130794580D01*
X144364488Y-130390000D01*
X144364488Y-128690000D01*
X144277327Y-128226778D01*
X144003563Y-127801337D01*
X143585847Y-127515924D01*
X143090000Y-127415512D01*
X141390000Y-127415512D01*
X140954580Y-127497442D01*
X140550000Y-127415512D01*
X138850000Y-127415512D01*
X138414580Y-127497442D01*
X138010000Y-127415512D01*
X136310000Y-127415512D01*
X135874580Y-127497442D01*
X135470000Y-127415512D01*
X133770000Y-127415512D01*
X133334580Y-127497442D01*
X132930000Y-127415512D01*
X131230000Y-127415512D01*
X130794580Y-127497442D01*
X130390000Y-127415512D01*
X128690000Y-127415512D01*
X128254580Y-127497442D01*
X127850000Y-127415512D01*
X126150000Y-127415512D01*
X125714580Y-127497442D01*
X125310000Y-127415512D01*
X123610000Y-127415512D01*
X123174580Y-127497442D01*
X122770000Y-127415512D01*
X121070000Y-127415512D01*
X120634580Y-127497442D01*
X120230000Y-127415512D01*
X118530000Y-127415512D01*
X118094580Y-127497442D01*
X117690000Y-127415512D01*
X115990000Y-127415512D01*
X115554580Y-127497442D01*
X115150000Y-127415512D01*
X113450000Y-127415512D01*
X113014580Y-127497442D01*
X112610000Y-127415512D01*
X110910000Y-127415512D01*
X110474580Y-127497442D01*
X110070000Y-127415512D01*
X108370000Y-127415512D01*
X107934580Y-127497442D01*
X107530000Y-127415512D01*
X105830000Y-127415512D01*
X105394580Y-127497442D01*
X104990000Y-127415512D01*
X103290000Y-127415512D01*
X102854580Y-127497442D01*
X102450000Y-127415512D01*
X100750000Y-127415512D01*
X100314580Y-127497442D01*
X99910000Y-127415512D01*
X98210000Y-127415512D01*
X97774580Y-127497442D01*
X97370000Y-127415512D01*
X95670000Y-127415512D01*
X95234580Y-127497442D01*
X94830000Y-127415512D01*
X93130000Y-127415512D01*
X92694580Y-127497442D01*
X92290000Y-127415512D01*
X90590000Y-127415512D01*
X90126778Y-127502673D01*
X89701337Y-127776437D01*
X89415924Y-128194153D01*
X89315512Y-128690000D01*
X73325000Y-128690000D01*
X73325000Y-121024413D01*
X92119506Y-121024413D01*
X92552479Y-122072286D01*
X93353497Y-122874704D01*
X94400613Y-123309504D01*
X95534413Y-123310494D01*
X96582286Y-122877521D01*
X97384704Y-122076503D01*
X97819504Y-121029387D01*
X97820001Y-120460000D01*
X106784992Y-120460000D01*
X106945880Y-121268840D01*
X107404051Y-121954541D01*
X108089752Y-122412712D01*
X108898592Y-122573600D01*
X108981408Y-122573600D01*
X109790248Y-122412712D01*
X110210000Y-122132243D01*
X110629752Y-122412712D01*
X111438592Y-122573600D01*
X111521408Y-122573600D01*
X112330248Y-122412712D01*
X112750000Y-122132243D01*
X113169752Y-122412712D01*
X113978592Y-122573600D01*
X114061408Y-122573600D01*
X114870248Y-122412712D01*
X115290000Y-122132243D01*
X115709752Y-122412712D01*
X116518592Y-122573600D01*
X116601408Y-122573600D01*
X117410248Y-122412712D01*
X117830000Y-122132243D01*
X118249752Y-122412712D01*
X119058592Y-122573600D01*
X119141408Y-122573600D01*
X119950248Y-122412712D01*
X120635949Y-121954541D01*
X120741681Y-121796302D01*
X120789308Y-121840547D01*
X121382376Y-122061005D01*
X121636000Y-121892095D01*
X121636000Y-120464000D01*
X121644000Y-120464000D01*
X121644000Y-121892095D01*
X121897624Y-122061005D01*
X122490692Y-121840547D01*
X122910000Y-121451019D01*
X123329308Y-121840547D01*
X123922376Y-122061005D01*
X124176000Y-121892095D01*
X124176000Y-120464000D01*
X121644000Y-120464000D01*
X121636000Y-120464000D01*
X121616000Y-120464000D01*
X121616000Y-120456000D01*
X121636000Y-120456000D01*
X121636000Y-119027905D01*
X121644000Y-119027905D01*
X121644000Y-120456000D01*
X124176000Y-120456000D01*
X124176000Y-119027905D01*
X124184000Y-119027905D01*
X124184000Y-120456000D01*
X124204000Y-120456000D01*
X124204000Y-120464000D01*
X124184000Y-120464000D01*
X124184000Y-121892095D01*
X124437624Y-122061005D01*
X125030692Y-121840547D01*
X125078319Y-121796302D01*
X125184051Y-121954541D01*
X125869752Y-122412712D01*
X126678592Y-122573600D01*
X126761408Y-122573600D01*
X127570248Y-122412712D01*
X128255949Y-121954541D01*
X128714120Y-121268840D01*
X128875008Y-120460000D01*
X129644992Y-120460000D01*
X129805880Y-121268840D01*
X130264051Y-121954541D01*
X130949752Y-122412712D01*
X131758592Y-122573600D01*
X131841408Y-122573600D01*
X132650248Y-122412712D01*
X133070000Y-122132243D01*
X133489752Y-122412712D01*
X134298592Y-122573600D01*
X134381408Y-122573600D01*
X135190248Y-122412712D01*
X135610000Y-122132243D01*
X136029752Y-122412712D01*
X136838592Y-122573600D01*
X136921408Y-122573600D01*
X137730248Y-122412712D01*
X138150000Y-122132243D01*
X138569752Y-122412712D01*
X139378592Y-122573600D01*
X139461408Y-122573600D01*
X140270248Y-122412712D01*
X140690000Y-122132243D01*
X141109752Y-122412712D01*
X141918592Y-122573600D01*
X142001408Y-122573600D01*
X142810248Y-122412712D01*
X143230000Y-122132243D01*
X143649752Y-122412712D01*
X144458592Y-122573600D01*
X144541408Y-122573600D01*
X145350248Y-122412712D01*
X145770000Y-122132243D01*
X146189752Y-122412712D01*
X146998592Y-122573600D01*
X147081408Y-122573600D01*
X147890248Y-122412712D01*
X148310000Y-122132243D01*
X148729752Y-122412712D01*
X149538592Y-122573600D01*
X149621408Y-122573600D01*
X150430248Y-122412712D01*
X151115949Y-121954541D01*
X151574120Y-121268840D01*
X151735008Y-120460000D01*
X152504992Y-120460000D01*
X152665880Y-121268840D01*
X153124051Y-121954541D01*
X153809752Y-122412712D01*
X154618592Y-122573600D01*
X154701408Y-122573600D01*
X155510248Y-122412712D01*
X155930000Y-122132243D01*
X156349752Y-122412712D01*
X157158592Y-122573600D01*
X157241408Y-122573600D01*
X158050248Y-122412712D01*
X158470000Y-122132243D01*
X158889752Y-122412712D01*
X159698592Y-122573600D01*
X159781408Y-122573600D01*
X160590248Y-122412712D01*
X161010000Y-122132243D01*
X161429752Y-122412712D01*
X162238592Y-122573600D01*
X162321408Y-122573600D01*
X163130248Y-122412712D01*
X163550000Y-122132243D01*
X163969752Y-122412712D01*
X164778592Y-122573600D01*
X164861408Y-122573600D01*
X165670248Y-122412712D01*
X166090000Y-122132243D01*
X166509752Y-122412712D01*
X167318592Y-122573600D01*
X167401408Y-122573600D01*
X168210248Y-122412712D01*
X168630000Y-122132243D01*
X169049752Y-122412712D01*
X169858592Y-122573600D01*
X169941408Y-122573600D01*
X170750248Y-122412712D01*
X171170000Y-122132243D01*
X171589752Y-122412712D01*
X172398592Y-122573600D01*
X172481408Y-122573600D01*
X173290248Y-122412712D01*
X173975949Y-121954541D01*
X174434120Y-121268840D01*
X174482739Y-121024413D01*
X174669506Y-121024413D01*
X175102479Y-122072286D01*
X175903497Y-122874704D01*
X176950613Y-123309504D01*
X178084413Y-123310494D01*
X179132286Y-122877521D01*
X179934704Y-122076503D01*
X180369504Y-121029387D01*
X180370494Y-119895587D01*
X179937521Y-118847714D01*
X179136503Y-118045296D01*
X178089387Y-117610496D01*
X176955587Y-117609506D01*
X175907714Y-118042479D01*
X175105296Y-118843497D01*
X174670496Y-119890613D01*
X174669506Y-121024413D01*
X174482739Y-121024413D01*
X174595008Y-120460000D01*
X174434120Y-119651160D01*
X173975949Y-118965459D01*
X173290248Y-118507288D01*
X172481408Y-118346400D01*
X172398592Y-118346400D01*
X171589752Y-118507288D01*
X171170000Y-118787757D01*
X170750248Y-118507288D01*
X169941408Y-118346400D01*
X169858592Y-118346400D01*
X169049752Y-118507288D01*
X168630000Y-118787757D01*
X168210248Y-118507288D01*
X167401408Y-118346400D01*
X167318592Y-118346400D01*
X166509752Y-118507288D01*
X166090000Y-118787757D01*
X165670248Y-118507288D01*
X164861408Y-118346400D01*
X164778592Y-118346400D01*
X163969752Y-118507288D01*
X163550000Y-118787757D01*
X163130248Y-118507288D01*
X162321408Y-118346400D01*
X162238592Y-118346400D01*
X161429752Y-118507288D01*
X161010000Y-118787757D01*
X160590248Y-118507288D01*
X159781408Y-118346400D01*
X159698592Y-118346400D01*
X158889752Y-118507288D01*
X158470000Y-118787757D01*
X158050248Y-118507288D01*
X157241408Y-118346400D01*
X157158592Y-118346400D01*
X156349752Y-118507288D01*
X155930000Y-118787757D01*
X155510248Y-118507288D01*
X154701408Y-118346400D01*
X154618592Y-118346400D01*
X153809752Y-118507288D01*
X153124051Y-118965459D01*
X152665880Y-119651160D01*
X152504992Y-120460000D01*
X151735008Y-120460000D01*
X151574120Y-119651160D01*
X151115949Y-118965459D01*
X150430248Y-118507288D01*
X149621408Y-118346400D01*
X149538592Y-118346400D01*
X148729752Y-118507288D01*
X148310000Y-118787757D01*
X147890248Y-118507288D01*
X147081408Y-118346400D01*
X146998592Y-118346400D01*
X146189752Y-118507288D01*
X145770000Y-118787757D01*
X145350248Y-118507288D01*
X144541408Y-118346400D01*
X144458592Y-118346400D01*
X143649752Y-118507288D01*
X143230000Y-118787757D01*
X142810248Y-118507288D01*
X142001408Y-118346400D01*
X141918592Y-118346400D01*
X141109752Y-118507288D01*
X140690000Y-118787757D01*
X140270248Y-118507288D01*
X139461408Y-118346400D01*
X139378592Y-118346400D01*
X138569752Y-118507288D01*
X138150000Y-118787757D01*
X137730248Y-118507288D01*
X136921408Y-118346400D01*
X136838592Y-118346400D01*
X136029752Y-118507288D01*
X135610000Y-118787757D01*
X135190248Y-118507288D01*
X134381408Y-118346400D01*
X134298592Y-118346400D01*
X133489752Y-118507288D01*
X133070000Y-118787757D01*
X132650248Y-118507288D01*
X131841408Y-118346400D01*
X131758592Y-118346400D01*
X130949752Y-118507288D01*
X130264051Y-118965459D01*
X129805880Y-119651160D01*
X129644992Y-120460000D01*
X128875008Y-120460000D01*
X128714120Y-119651160D01*
X128255949Y-118965459D01*
X127570248Y-118507288D01*
X126761408Y-118346400D01*
X126678592Y-118346400D01*
X125869752Y-118507288D01*
X125184051Y-118965459D01*
X125078319Y-119123698D01*
X125030692Y-119079453D01*
X124437624Y-118858995D01*
X124184000Y-119027905D01*
X124176000Y-119027905D01*
X123922376Y-118858995D01*
X123329308Y-119079453D01*
X122910000Y-119468981D01*
X122490692Y-119079453D01*
X121897624Y-118858995D01*
X121644000Y-119027905D01*
X121636000Y-119027905D01*
X121382376Y-118858995D01*
X120789308Y-119079453D01*
X120741681Y-119123698D01*
X120635949Y-118965459D01*
X119950248Y-118507288D01*
X119141408Y-118346400D01*
X119058592Y-118346400D01*
X118249752Y-118507288D01*
X117830000Y-118787757D01*
X117410248Y-118507288D01*
X116601408Y-118346400D01*
X116518592Y-118346400D01*
X115709752Y-118507288D01*
X115290000Y-118787757D01*
X114870248Y-118507288D01*
X114061408Y-118346400D01*
X113978592Y-118346400D01*
X113169752Y-118507288D01*
X112750000Y-118787757D01*
X112330248Y-118507288D01*
X111521408Y-118346400D01*
X111438592Y-118346400D01*
X110629752Y-118507288D01*
X110210000Y-118787757D01*
X109790248Y-118507288D01*
X108981408Y-118346400D01*
X108898592Y-118346400D01*
X108089752Y-118507288D01*
X107404051Y-118965459D01*
X106945880Y-119651160D01*
X106784992Y-120460000D01*
X97820001Y-120460000D01*
X97820494Y-119895587D01*
X97387521Y-118847714D01*
X96586503Y-118045296D01*
X95539387Y-117610496D01*
X94405587Y-117609506D01*
X93357714Y-118042479D01*
X92555296Y-118843497D01*
X92120496Y-119890613D01*
X92119506Y-121024413D01*
X73325000Y-121024413D01*
X73325000Y-115944413D01*
X144189506Y-115944413D01*
X144622479Y-116992286D01*
X145423497Y-117794704D01*
X146470613Y-118229504D01*
X147604413Y-118230494D01*
X148652286Y-117797521D01*
X149454704Y-116996503D01*
X149889504Y-115949387D01*
X149889776Y-115637624D01*
X173378995Y-115637624D01*
X173402276Y-115754664D01*
X173665751Y-116329913D01*
X174129308Y-116760547D01*
X174722376Y-116981005D01*
X174976000Y-116812095D01*
X174976000Y-115384000D01*
X174984000Y-115384000D01*
X174984000Y-116812095D01*
X175237624Y-116981005D01*
X175830692Y-116760547D01*
X176250000Y-116371019D01*
X176669308Y-116760547D01*
X177262376Y-116981005D01*
X177516000Y-116812095D01*
X177516000Y-115384000D01*
X177524000Y-115384000D01*
X177524000Y-116812095D01*
X177777624Y-116981005D01*
X178370692Y-116760547D01*
X178834249Y-116329913D01*
X179097724Y-115754664D01*
X179121005Y-115637624D01*
X178952094Y-115384000D01*
X177524000Y-115384000D01*
X177516000Y-115384000D01*
X174984000Y-115384000D01*
X174976000Y-115384000D01*
X173547906Y-115384000D01*
X173378995Y-115637624D01*
X149889776Y-115637624D01*
X149890494Y-114815587D01*
X149457521Y-113767714D01*
X148656503Y-112965296D01*
X147609387Y-112530496D01*
X146475587Y-112529506D01*
X145427714Y-112962479D01*
X144625296Y-113763497D01*
X144190496Y-114810613D01*
X144189506Y-115944413D01*
X73325000Y-115944413D01*
X73325000Y-108193500D01*
X100392000Y-108193500D01*
X100392000Y-109000775D01*
X100507398Y-109279372D01*
X100720627Y-109492601D01*
X100999224Y-109608000D01*
X101806500Y-109608000D01*
X101996000Y-109418500D01*
X101996000Y-108004000D01*
X102004000Y-108004000D01*
X102004000Y-109418500D01*
X102193500Y-109608000D01*
X103000776Y-109608000D01*
X103279373Y-109492601D01*
X103492602Y-109279372D01*
X103608000Y-109000775D01*
X103608000Y-108193500D01*
X112392000Y-108193500D01*
X112392000Y-109000775D01*
X112507398Y-109279372D01*
X112720627Y-109492601D01*
X112999224Y-109608000D01*
X113806500Y-109608000D01*
X113996000Y-109418500D01*
X113996000Y-108004000D01*
X114004000Y-108004000D01*
X114004000Y-109418500D01*
X114193500Y-109608000D01*
X115000776Y-109608000D01*
X115279373Y-109492601D01*
X115492602Y-109279372D01*
X115608000Y-109000775D01*
X115608000Y-108193500D01*
X123392000Y-108193500D01*
X123392000Y-109000775D01*
X123507398Y-109279372D01*
X123720627Y-109492601D01*
X123999224Y-109608000D01*
X124806500Y-109608000D01*
X124996000Y-109418500D01*
X124996000Y-108004000D01*
X125004000Y-108004000D01*
X125004000Y-109418500D01*
X125193500Y-109608000D01*
X126000776Y-109608000D01*
X126279373Y-109492601D01*
X126492602Y-109279372D01*
X126608000Y-109000775D01*
X126608000Y-108655497D01*
X133412428Y-108655497D01*
X133435500Y-108771489D01*
X133696753Y-109341919D01*
X134156414Y-109768951D01*
X134744503Y-109987572D01*
X134996000Y-109818495D01*
X134996000Y-108404000D01*
X135004000Y-108404000D01*
X135004000Y-109818495D01*
X135255497Y-109987572D01*
X135843586Y-109768951D01*
X136303247Y-109341919D01*
X136564500Y-108771489D01*
X136587572Y-108655497D01*
X155412428Y-108655497D01*
X155435500Y-108771489D01*
X155696753Y-109341919D01*
X156156414Y-109768951D01*
X156744503Y-109987572D01*
X156996000Y-109818495D01*
X156996000Y-108404000D01*
X157004000Y-108404000D01*
X157004000Y-109818495D01*
X157255497Y-109987572D01*
X157843586Y-109768951D01*
X158303247Y-109341919D01*
X158564500Y-108771489D01*
X158587572Y-108655497D01*
X164412428Y-108655497D01*
X164435500Y-108771489D01*
X164696753Y-109341919D01*
X165156414Y-109768951D01*
X165744503Y-109987572D01*
X165996000Y-109818495D01*
X165996000Y-108404000D01*
X166004000Y-108404000D01*
X166004000Y-109818495D01*
X166255497Y-109987572D01*
X166843586Y-109768951D01*
X167303247Y-109341919D01*
X167564500Y-108771489D01*
X167587572Y-108655497D01*
X167418494Y-108404000D01*
X166004000Y-108404000D01*
X165996000Y-108404000D01*
X164581506Y-108404000D01*
X164412428Y-108655497D01*
X158587572Y-108655497D01*
X158418494Y-108404000D01*
X157004000Y-108404000D01*
X156996000Y-108404000D01*
X155581506Y-108404000D01*
X155412428Y-108655497D01*
X136587572Y-108655497D01*
X136418494Y-108404000D01*
X135004000Y-108404000D01*
X134996000Y-108404000D01*
X133581506Y-108404000D01*
X133412428Y-108655497D01*
X126608000Y-108655497D01*
X126608000Y-108193500D01*
X126418500Y-108004000D01*
X125004000Y-108004000D01*
X124996000Y-108004000D01*
X123581500Y-108004000D01*
X123392000Y-108193500D01*
X115608000Y-108193500D01*
X115418500Y-108004000D01*
X114004000Y-108004000D01*
X113996000Y-108004000D01*
X112581500Y-108004000D01*
X112392000Y-108193500D01*
X103608000Y-108193500D01*
X103418500Y-108004000D01*
X102004000Y-108004000D01*
X101996000Y-108004000D01*
X100581500Y-108004000D01*
X100392000Y-108193500D01*
X73325000Y-108193500D01*
X73325000Y-85140000D01*
X99858859Y-85140000D01*
X100018712Y-85943635D01*
X100330327Y-86410000D01*
X100018712Y-86876365D01*
X99858859Y-87680000D01*
X100018712Y-88483635D01*
X100330327Y-88950000D01*
X100018712Y-89416365D01*
X99858859Y-90220000D01*
X100018712Y-91023635D01*
X100330327Y-91490000D01*
X100018712Y-91956365D01*
X99858859Y-92760000D01*
X100018712Y-93563635D01*
X100330327Y-94030000D01*
X100018712Y-94496365D01*
X99858859Y-95300000D01*
X100018712Y-96103635D01*
X100330327Y-96570000D01*
X100018712Y-97036365D01*
X99858859Y-97840000D01*
X100018712Y-98643635D01*
X100330327Y-99110000D01*
X100018712Y-99576365D01*
X99858859Y-100380000D01*
X100018712Y-101183635D01*
X100330327Y-101650000D01*
X100018712Y-102116365D01*
X99858859Y-102920000D01*
X100018712Y-103723635D01*
X100330327Y-104190000D01*
X100018712Y-104656365D01*
X99858859Y-105460000D01*
X100018712Y-106263635D01*
X100437240Y-106890006D01*
X100392000Y-106999225D01*
X100392000Y-107806500D01*
X100581500Y-107996000D01*
X101996000Y-107996000D01*
X101996000Y-107976000D01*
X102004000Y-107976000D01*
X102004000Y-107996000D01*
X103418500Y-107996000D01*
X103608000Y-107806500D01*
X103608000Y-106999225D01*
X103562760Y-106890006D01*
X103981288Y-106263635D01*
X104141141Y-105460000D01*
X103981288Y-104656365D01*
X103669673Y-104190000D01*
X103981288Y-103723635D01*
X104141141Y-102920000D01*
X103981288Y-102116365D01*
X103669673Y-101650000D01*
X103981288Y-101183635D01*
X104141141Y-100380000D01*
X103981288Y-99576365D01*
X103669673Y-99110000D01*
X103981288Y-98643635D01*
X104141141Y-97840000D01*
X103981288Y-97036365D01*
X103669673Y-96570000D01*
X103981288Y-96103635D01*
X104141141Y-95300000D01*
X103981288Y-94496365D01*
X103669673Y-94030000D01*
X103981288Y-93563635D01*
X104141141Y-92760000D01*
X103981288Y-91956365D01*
X103669673Y-91490000D01*
X103981288Y-91023635D01*
X104141141Y-90220000D01*
X103981288Y-89416365D01*
X103669673Y-88950000D01*
X103981288Y-88483635D01*
X104141141Y-87680000D01*
X103981288Y-86876365D01*
X103669673Y-86410000D01*
X103981288Y-85943635D01*
X104141141Y-85140000D01*
X111858859Y-85140000D01*
X112018712Y-85943635D01*
X112330327Y-86410000D01*
X112018712Y-86876365D01*
X111858859Y-87680000D01*
X112018712Y-88483635D01*
X112330327Y-88950000D01*
X112018712Y-89416365D01*
X111858859Y-90220000D01*
X112018712Y-91023635D01*
X112330327Y-91490000D01*
X112018712Y-91956365D01*
X111858859Y-92760000D01*
X112018712Y-93563635D01*
X112330327Y-94030000D01*
X112018712Y-94496365D01*
X111858859Y-95300000D01*
X112018712Y-96103635D01*
X112330327Y-96570000D01*
X112018712Y-97036365D01*
X111858859Y-97840000D01*
X112018712Y-98643635D01*
X112330327Y-99110000D01*
X112018712Y-99576365D01*
X111858859Y-100380000D01*
X112018712Y-101183635D01*
X112330327Y-101650000D01*
X112018712Y-102116365D01*
X111858859Y-102920000D01*
X112018712Y-103723635D01*
X112330327Y-104190000D01*
X112018712Y-104656365D01*
X111858859Y-105460000D01*
X112018712Y-106263635D01*
X112437240Y-106890006D01*
X112392000Y-106999225D01*
X112392000Y-107806500D01*
X112581500Y-107996000D01*
X113996000Y-107996000D01*
X113996000Y-107976000D01*
X114004000Y-107976000D01*
X114004000Y-107996000D01*
X115418500Y-107996000D01*
X115608000Y-107806500D01*
X115608000Y-106999225D01*
X115562760Y-106890006D01*
X115981288Y-106263635D01*
X116141141Y-105460000D01*
X115981288Y-104656365D01*
X115669673Y-104190000D01*
X115981288Y-103723635D01*
X116141141Y-102920000D01*
X115981288Y-102116365D01*
X115669673Y-101650000D01*
X115981288Y-101183635D01*
X116141141Y-100380000D01*
X115981288Y-99576365D01*
X115669673Y-99110000D01*
X115981288Y-98643635D01*
X116141141Y-97840000D01*
X115981288Y-97036365D01*
X115669673Y-96570000D01*
X115981288Y-96103635D01*
X116141141Y-95300000D01*
X115981288Y-94496365D01*
X115669673Y-94030000D01*
X115981288Y-93563635D01*
X116141141Y-92760000D01*
X115981288Y-91956365D01*
X115669673Y-91490000D01*
X115981288Y-91023635D01*
X116141141Y-90220000D01*
X115981288Y-89416365D01*
X115669673Y-88950000D01*
X115981288Y-88483635D01*
X116141141Y-87680000D01*
X115981288Y-86876365D01*
X115669673Y-86410000D01*
X115981288Y-85943635D01*
X116141141Y-85140000D01*
X122858859Y-85140000D01*
X123018712Y-85943635D01*
X123330327Y-86410000D01*
X123018712Y-86876365D01*
X122858859Y-87680000D01*
X123018712Y-88483635D01*
X123330327Y-88950000D01*
X123018712Y-89416365D01*
X122858859Y-90220000D01*
X123018712Y-91023635D01*
X123330327Y-91490000D01*
X123018712Y-91956365D01*
X122858859Y-92760000D01*
X123018712Y-93563635D01*
X123330327Y-94030000D01*
X123018712Y-94496365D01*
X122858859Y-95300000D01*
X123018712Y-96103635D01*
X123330327Y-96570000D01*
X123018712Y-97036365D01*
X122858859Y-97840000D01*
X123018712Y-98643635D01*
X123330327Y-99110000D01*
X123018712Y-99576365D01*
X122858859Y-100380000D01*
X123018712Y-101183635D01*
X123330327Y-101650000D01*
X123018712Y-102116365D01*
X122858859Y-102920000D01*
X123018712Y-103723635D01*
X123330327Y-104190000D01*
X123018712Y-104656365D01*
X122858859Y-105460000D01*
X123018712Y-106263635D01*
X123437240Y-106890006D01*
X123392000Y-106999225D01*
X123392000Y-107806500D01*
X123581500Y-107996000D01*
X124996000Y-107996000D01*
X124996000Y-107976000D01*
X125004000Y-107976000D01*
X125004000Y-107996000D01*
X126418500Y-107996000D01*
X126608000Y-107806500D01*
X126608000Y-106999225D01*
X126562760Y-106890006D01*
X126981288Y-106263635D01*
X127141141Y-105460000D01*
X126981288Y-104656365D01*
X126669673Y-104190000D01*
X126981288Y-103723635D01*
X127141141Y-102920000D01*
X126981288Y-102116365D01*
X126669673Y-101650000D01*
X126981288Y-101183635D01*
X127141141Y-100380000D01*
X126981288Y-99576365D01*
X126669673Y-99110000D01*
X126981288Y-98643635D01*
X127141141Y-97840000D01*
X126981288Y-97036365D01*
X126669673Y-96570000D01*
X126981288Y-96103635D01*
X127141141Y-95300000D01*
X126981288Y-94496365D01*
X126669673Y-94030000D01*
X126981288Y-93563635D01*
X127141141Y-92760000D01*
X126981288Y-91956365D01*
X126669673Y-91490000D01*
X126981288Y-91023635D01*
X127141141Y-90220000D01*
X126981288Y-89416365D01*
X126669673Y-88950000D01*
X126981288Y-88483635D01*
X127141141Y-87680000D01*
X126981288Y-86876365D01*
X126669673Y-86410000D01*
X126981288Y-85943635D01*
X127061576Y-85540000D01*
X132858859Y-85540000D01*
X133018712Y-86343635D01*
X133330327Y-86810000D01*
X133018712Y-87276365D01*
X132858859Y-88080000D01*
X133018712Y-88883635D01*
X133330327Y-89350000D01*
X133018712Y-89816365D01*
X132858859Y-90620000D01*
X133018712Y-91423635D01*
X133330327Y-91890000D01*
X133018712Y-92356365D01*
X132858859Y-93160000D01*
X133018712Y-93963635D01*
X133330327Y-94430000D01*
X133018712Y-94896365D01*
X132858859Y-95700000D01*
X133018712Y-96503635D01*
X133330327Y-96970000D01*
X133018712Y-97436365D01*
X132858859Y-98240000D01*
X133018712Y-99043635D01*
X133330327Y-99510000D01*
X133018712Y-99976365D01*
X132858859Y-100780000D01*
X133018712Y-101583635D01*
X133330327Y-102050000D01*
X133018712Y-102516365D01*
X132858859Y-103320000D01*
X133018712Y-104123635D01*
X133330327Y-104590000D01*
X133018712Y-105056365D01*
X132858859Y-105860000D01*
X133018712Y-106663635D01*
X133473935Y-107344924D01*
X133684225Y-107485435D01*
X133435500Y-108028511D01*
X133412428Y-108144503D01*
X133581506Y-108396000D01*
X134996000Y-108396000D01*
X134996000Y-108376000D01*
X135004000Y-108376000D01*
X135004000Y-108396000D01*
X136418494Y-108396000D01*
X136587572Y-108144503D01*
X136564500Y-108028511D01*
X136315775Y-107485435D01*
X136526065Y-107344924D01*
X136981288Y-106663635D01*
X137141141Y-105860000D01*
X136981288Y-105056365D01*
X136669673Y-104590000D01*
X136981288Y-104123635D01*
X137141141Y-103320000D01*
X136981288Y-102516365D01*
X136669673Y-102050000D01*
X136981288Y-101583635D01*
X137141141Y-100780000D01*
X136981288Y-99976365D01*
X136669673Y-99510000D01*
X136981288Y-99043635D01*
X137141141Y-98240000D01*
X136981288Y-97436365D01*
X136669673Y-96970000D01*
X136981288Y-96503635D01*
X137141141Y-95700000D01*
X136981288Y-94896365D01*
X136669673Y-94430000D01*
X136981288Y-93963635D01*
X137141141Y-93160000D01*
X137013838Y-92520000D01*
X142471992Y-92520000D01*
X142632880Y-93328840D01*
X142941017Y-93790000D01*
X142632880Y-94251160D01*
X142471992Y-95060000D01*
X142632880Y-95868840D01*
X142941017Y-96330000D01*
X142632880Y-96791160D01*
X142471992Y-97600000D01*
X142632880Y-98408840D01*
X143091051Y-99094541D01*
X143776752Y-99552712D01*
X144585592Y-99713600D01*
X144668408Y-99713600D01*
X145477248Y-99552712D01*
X146162949Y-99094541D01*
X146268681Y-98936302D01*
X146316308Y-98980547D01*
X146909376Y-99201005D01*
X147163000Y-99032095D01*
X147163000Y-97604000D01*
X147171000Y-97604000D01*
X147171000Y-99032095D01*
X147424624Y-99201005D01*
X148017692Y-98980547D01*
X148481249Y-98549913D01*
X148744724Y-97974664D01*
X148768005Y-97857624D01*
X148599094Y-97604000D01*
X147171000Y-97604000D01*
X147163000Y-97604000D01*
X147143000Y-97604000D01*
X147143000Y-97596000D01*
X147163000Y-97596000D01*
X147163000Y-97576000D01*
X147171000Y-97576000D01*
X147171000Y-97596000D01*
X148599094Y-97596000D01*
X148768005Y-97342376D01*
X148744724Y-97225336D01*
X148499692Y-96690353D01*
X148702949Y-96554541D01*
X149161120Y-95868840D01*
X149322008Y-95060000D01*
X149161120Y-94251160D01*
X148852983Y-93790000D01*
X149161120Y-93328840D01*
X149322008Y-92520000D01*
X149161120Y-91711160D01*
X148702949Y-91025459D01*
X148017248Y-90567288D01*
X147208408Y-90406400D01*
X147125592Y-90406400D01*
X146316752Y-90567288D01*
X145897000Y-90847757D01*
X145477248Y-90567288D01*
X144668408Y-90406400D01*
X144585592Y-90406400D01*
X143776752Y-90567288D01*
X143091051Y-91025459D01*
X142632880Y-91711160D01*
X142471992Y-92520000D01*
X137013838Y-92520000D01*
X136981288Y-92356365D01*
X136669673Y-91890000D01*
X136981288Y-91423635D01*
X137141141Y-90620000D01*
X136981288Y-89816365D01*
X136669673Y-89350000D01*
X136981288Y-88883635D01*
X137141141Y-88080000D01*
X137126106Y-88004413D01*
X144189506Y-88004413D01*
X144622479Y-89052286D01*
X145423497Y-89854704D01*
X146470613Y-90289504D01*
X147604413Y-90290494D01*
X148652286Y-89857521D01*
X149454704Y-89056503D01*
X149889504Y-88009387D01*
X149890494Y-86875587D01*
X149457521Y-85827714D01*
X149170309Y-85540000D01*
X154858859Y-85540000D01*
X155018712Y-86343635D01*
X155330327Y-86810000D01*
X155018712Y-87276365D01*
X154858859Y-88080000D01*
X155018712Y-88883635D01*
X155330327Y-89350000D01*
X155018712Y-89816365D01*
X154858859Y-90620000D01*
X155018712Y-91423635D01*
X155330327Y-91890000D01*
X155018712Y-92356365D01*
X154858859Y-93160000D01*
X155018712Y-93963635D01*
X155330327Y-94430000D01*
X155018712Y-94896365D01*
X154858859Y-95700000D01*
X155018712Y-96503635D01*
X155330327Y-96970000D01*
X155018712Y-97436365D01*
X154858859Y-98240000D01*
X155018712Y-99043635D01*
X155330327Y-99510000D01*
X155018712Y-99976365D01*
X154858859Y-100780000D01*
X155018712Y-101583635D01*
X155330327Y-102050000D01*
X155018712Y-102516365D01*
X154858859Y-103320000D01*
X155018712Y-104123635D01*
X155330327Y-104590000D01*
X155018712Y-105056365D01*
X154858859Y-105860000D01*
X155018712Y-106663635D01*
X155473935Y-107344924D01*
X155684225Y-107485435D01*
X155435500Y-108028511D01*
X155412428Y-108144503D01*
X155581506Y-108396000D01*
X156996000Y-108396000D01*
X156996000Y-108376000D01*
X157004000Y-108376000D01*
X157004000Y-108396000D01*
X158418494Y-108396000D01*
X158587572Y-108144503D01*
X158564500Y-108028511D01*
X158315775Y-107485435D01*
X158526065Y-107344924D01*
X158981288Y-106663635D01*
X159141141Y-105860000D01*
X158981288Y-105056365D01*
X158669673Y-104590000D01*
X158981288Y-104123635D01*
X159141141Y-103320000D01*
X158981288Y-102516365D01*
X158669673Y-102050000D01*
X158981288Y-101583635D01*
X159141141Y-100780000D01*
X158981288Y-99976365D01*
X158669673Y-99510000D01*
X158981288Y-99043635D01*
X159141141Y-98240000D01*
X158981288Y-97436365D01*
X158669673Y-96970000D01*
X158981288Y-96503635D01*
X159141141Y-95700000D01*
X158981288Y-94896365D01*
X158669673Y-94430000D01*
X158981288Y-93963635D01*
X159141141Y-93160000D01*
X158981288Y-92356365D01*
X158669673Y-91890000D01*
X158981288Y-91423635D01*
X159141141Y-90620000D01*
X158981288Y-89816365D01*
X158669673Y-89350000D01*
X158981288Y-88883635D01*
X159141141Y-88080000D01*
X158981288Y-87276365D01*
X158669673Y-86810000D01*
X158981288Y-86343635D01*
X159141141Y-85540000D01*
X163858859Y-85540000D01*
X164018712Y-86343635D01*
X164330327Y-86810000D01*
X164018712Y-87276365D01*
X163858859Y-88080000D01*
X164018712Y-88883635D01*
X164330327Y-89350000D01*
X164018712Y-89816365D01*
X163858859Y-90620000D01*
X164018712Y-91423635D01*
X164330327Y-91890000D01*
X164018712Y-92356365D01*
X163858859Y-93160000D01*
X164018712Y-93963635D01*
X164330327Y-94430000D01*
X164018712Y-94896365D01*
X163858859Y-95700000D01*
X164018712Y-96503635D01*
X164330327Y-96970000D01*
X164018712Y-97436365D01*
X163858859Y-98240000D01*
X164018712Y-99043635D01*
X164330327Y-99510000D01*
X164018712Y-99976365D01*
X163858859Y-100780000D01*
X164018712Y-101583635D01*
X164330327Y-102050000D01*
X164018712Y-102516365D01*
X163858859Y-103320000D01*
X164018712Y-104123635D01*
X164330327Y-104590000D01*
X164018712Y-105056365D01*
X163858859Y-105860000D01*
X164018712Y-106663635D01*
X164473935Y-107344924D01*
X164684225Y-107485435D01*
X164435500Y-108028511D01*
X164412428Y-108144503D01*
X164581506Y-108396000D01*
X165996000Y-108396000D01*
X165996000Y-108376000D01*
X166004000Y-108376000D01*
X166004000Y-108396000D01*
X167418494Y-108396000D01*
X167587572Y-108144503D01*
X167564500Y-108028511D01*
X167315775Y-107485435D01*
X167526065Y-107344924D01*
X167981288Y-106663635D01*
X168141141Y-105860000D01*
X167981288Y-105056365D01*
X167669673Y-104590000D01*
X167981288Y-104123635D01*
X168141141Y-103320000D01*
X167981288Y-102516365D01*
X167669673Y-102050000D01*
X167981288Y-101583635D01*
X168141141Y-100780000D01*
X167981288Y-99976365D01*
X167669673Y-99510000D01*
X167981288Y-99043635D01*
X168141141Y-98240000D01*
X167981288Y-97436365D01*
X167669673Y-96970000D01*
X167981288Y-96503635D01*
X168141141Y-95700000D01*
X167981288Y-94896365D01*
X167669673Y-94430000D01*
X167981288Y-93963635D01*
X168141141Y-93160000D01*
X167981288Y-92356365D01*
X167669673Y-91890000D01*
X167981288Y-91423635D01*
X168141141Y-90620000D01*
X167981288Y-89816365D01*
X167669673Y-89350000D01*
X167981288Y-88883635D01*
X168141141Y-88080000D01*
X167981288Y-87276365D01*
X167669673Y-86810000D01*
X167981288Y-86343635D01*
X168141141Y-85540000D01*
X167981288Y-84736365D01*
X167562760Y-84109994D01*
X167608000Y-84000775D01*
X167608000Y-83193500D01*
X167418500Y-83004000D01*
X166004000Y-83004000D01*
X166004000Y-83024000D01*
X165996000Y-83024000D01*
X165996000Y-83004000D01*
X164581500Y-83004000D01*
X164392000Y-83193500D01*
X164392000Y-84000775D01*
X164437240Y-84109994D01*
X164018712Y-84736365D01*
X163858859Y-85540000D01*
X159141141Y-85540000D01*
X158981288Y-84736365D01*
X158562760Y-84109994D01*
X158608000Y-84000775D01*
X158608000Y-83193500D01*
X158418500Y-83004000D01*
X157004000Y-83004000D01*
X157004000Y-83024000D01*
X156996000Y-83024000D01*
X156996000Y-83004000D01*
X155581500Y-83004000D01*
X155392000Y-83193500D01*
X155392000Y-84000775D01*
X155437240Y-84109994D01*
X155018712Y-84736365D01*
X154858859Y-85540000D01*
X149170309Y-85540000D01*
X148656503Y-85025296D01*
X147609387Y-84590496D01*
X146475587Y-84589506D01*
X145427714Y-85022479D01*
X144625296Y-85823497D01*
X144190496Y-86870613D01*
X144189506Y-88004413D01*
X137126106Y-88004413D01*
X136981288Y-87276365D01*
X136669673Y-86810000D01*
X136981288Y-86343635D01*
X137141141Y-85540000D01*
X136981288Y-84736365D01*
X136562760Y-84109994D01*
X136608000Y-84000775D01*
X136608000Y-83193500D01*
X136418500Y-83004000D01*
X135004000Y-83004000D01*
X135004000Y-83024000D01*
X134996000Y-83024000D01*
X134996000Y-83004000D01*
X133581500Y-83004000D01*
X133392000Y-83193500D01*
X133392000Y-84000775D01*
X133437240Y-84109994D01*
X133018712Y-84736365D01*
X132858859Y-85540000D01*
X127061576Y-85540000D01*
X127141141Y-85140000D01*
X126981288Y-84336365D01*
X126526065Y-83655076D01*
X126315775Y-83514565D01*
X126564500Y-82971489D01*
X126587572Y-82855497D01*
X126418494Y-82604000D01*
X125004000Y-82604000D01*
X125004000Y-82624000D01*
X124996000Y-82624000D01*
X124996000Y-82604000D01*
X123581506Y-82604000D01*
X123412428Y-82855497D01*
X123435500Y-82971489D01*
X123684225Y-83514565D01*
X123473935Y-83655076D01*
X123018712Y-84336365D01*
X122858859Y-85140000D01*
X116141141Y-85140000D01*
X115981288Y-84336365D01*
X115526065Y-83655076D01*
X115315775Y-83514565D01*
X115564500Y-82971489D01*
X115587572Y-82855497D01*
X115418494Y-82604000D01*
X114004000Y-82604000D01*
X114004000Y-82624000D01*
X113996000Y-82624000D01*
X113996000Y-82604000D01*
X112581506Y-82604000D01*
X112412428Y-82855497D01*
X112435500Y-82971489D01*
X112684225Y-83514565D01*
X112473935Y-83655076D01*
X112018712Y-84336365D01*
X111858859Y-85140000D01*
X104141141Y-85140000D01*
X103981288Y-84336365D01*
X103526065Y-83655076D01*
X103315775Y-83514565D01*
X103564500Y-82971489D01*
X103587572Y-82855497D01*
X103418494Y-82604000D01*
X102004000Y-82604000D01*
X102004000Y-82624000D01*
X101996000Y-82624000D01*
X101996000Y-82604000D01*
X100581506Y-82604000D01*
X100412428Y-82855497D01*
X100435500Y-82971489D01*
X100684225Y-83514565D01*
X100473935Y-83655076D01*
X100018712Y-84336365D01*
X99858859Y-85140000D01*
X73325000Y-85140000D01*
X73325000Y-82344503D01*
X100412428Y-82344503D01*
X100581506Y-82596000D01*
X101996000Y-82596000D01*
X101996000Y-81181505D01*
X102004000Y-81181505D01*
X102004000Y-82596000D01*
X103418494Y-82596000D01*
X103587572Y-82344503D01*
X112412428Y-82344503D01*
X112581506Y-82596000D01*
X113996000Y-82596000D01*
X113996000Y-81181505D01*
X114004000Y-81181505D01*
X114004000Y-82596000D01*
X115418494Y-82596000D01*
X115587572Y-82344503D01*
X123412428Y-82344503D01*
X123581506Y-82596000D01*
X124996000Y-82596000D01*
X124996000Y-81181505D01*
X125004000Y-81181505D01*
X125004000Y-82596000D01*
X126418494Y-82596000D01*
X126587572Y-82344503D01*
X126564500Y-82228511D01*
X126459489Y-81999225D01*
X133392000Y-81999225D01*
X133392000Y-82806500D01*
X133581500Y-82996000D01*
X134996000Y-82996000D01*
X134996000Y-81581500D01*
X135004000Y-81581500D01*
X135004000Y-82996000D01*
X136418500Y-82996000D01*
X136608000Y-82806500D01*
X136608000Y-81999225D01*
X155392000Y-81999225D01*
X155392000Y-82806500D01*
X155581500Y-82996000D01*
X156996000Y-82996000D01*
X156996000Y-81581500D01*
X157004000Y-81581500D01*
X157004000Y-82996000D01*
X158418500Y-82996000D01*
X158608000Y-82806500D01*
X158608000Y-81999225D01*
X164392000Y-81999225D01*
X164392000Y-82806500D01*
X164581500Y-82996000D01*
X165996000Y-82996000D01*
X165996000Y-81581500D01*
X166004000Y-81581500D01*
X166004000Y-82996000D01*
X167418500Y-82996000D01*
X167608000Y-82806500D01*
X167608000Y-81999225D01*
X167492602Y-81720628D01*
X167279373Y-81507399D01*
X167000776Y-81392000D01*
X166193500Y-81392000D01*
X166004000Y-81581500D01*
X165996000Y-81581500D01*
X165806500Y-81392000D01*
X164999224Y-81392000D01*
X164720627Y-81507399D01*
X164507398Y-81720628D01*
X164392000Y-81999225D01*
X158608000Y-81999225D01*
X158492602Y-81720628D01*
X158279373Y-81507399D01*
X158000776Y-81392000D01*
X157193500Y-81392000D01*
X157004000Y-81581500D01*
X156996000Y-81581500D01*
X156806500Y-81392000D01*
X155999224Y-81392000D01*
X155720627Y-81507399D01*
X155507398Y-81720628D01*
X155392000Y-81999225D01*
X136608000Y-81999225D01*
X136492602Y-81720628D01*
X136279373Y-81507399D01*
X136000776Y-81392000D01*
X135193500Y-81392000D01*
X135004000Y-81581500D01*
X134996000Y-81581500D01*
X134806500Y-81392000D01*
X133999224Y-81392000D01*
X133720627Y-81507399D01*
X133507398Y-81720628D01*
X133392000Y-81999225D01*
X126459489Y-81999225D01*
X126303247Y-81658081D01*
X125843586Y-81231049D01*
X125255497Y-81012428D01*
X125004000Y-81181505D01*
X124996000Y-81181505D01*
X124744503Y-81012428D01*
X124156414Y-81231049D01*
X123696753Y-81658081D01*
X123435500Y-82228511D01*
X123412428Y-82344503D01*
X115587572Y-82344503D01*
X115564500Y-82228511D01*
X115303247Y-81658081D01*
X114843586Y-81231049D01*
X114255497Y-81012428D01*
X114004000Y-81181505D01*
X113996000Y-81181505D01*
X113744503Y-81012428D01*
X113156414Y-81231049D01*
X112696753Y-81658081D01*
X112435500Y-82228511D01*
X112412428Y-82344503D01*
X103587572Y-82344503D01*
X103564500Y-82228511D01*
X103303247Y-81658081D01*
X102843586Y-81231049D01*
X102255497Y-81012428D01*
X102004000Y-81181505D01*
X101996000Y-81181505D01*
X101744503Y-81012428D01*
X101156414Y-81231049D01*
X100696753Y-81658081D01*
X100435500Y-82228511D01*
X100412428Y-82344503D01*
X73325000Y-82344503D01*
X73325000Y-72764413D01*
X93389506Y-72764413D01*
X93822479Y-73812286D01*
X94623497Y-74614704D01*
X95670613Y-75049504D01*
X96804413Y-75050494D01*
X97852286Y-74617521D01*
X98569650Y-73901409D01*
X98945752Y-74152712D01*
X99754592Y-74313600D01*
X99837408Y-74313600D01*
X100646248Y-74152712D01*
X101066000Y-73872243D01*
X101485752Y-74152712D01*
X102294592Y-74313600D01*
X102377408Y-74313600D01*
X103186248Y-74152712D01*
X103606000Y-73872243D01*
X104025752Y-74152712D01*
X104834592Y-74313600D01*
X104917408Y-74313600D01*
X105726248Y-74152712D01*
X106411949Y-73694541D01*
X106517681Y-73536302D01*
X106565308Y-73580547D01*
X107158376Y-73801005D01*
X107412000Y-73632095D01*
X107412000Y-72204000D01*
X107392000Y-72204000D01*
X107392000Y-72196000D01*
X107412000Y-72196000D01*
X107412000Y-70767905D01*
X107420000Y-70767905D01*
X107420000Y-72196000D01*
X107440000Y-72196000D01*
X107440000Y-72204000D01*
X107420000Y-72204000D01*
X107420000Y-73632095D01*
X107673624Y-73801005D01*
X108266692Y-73580547D01*
X108314319Y-73536302D01*
X108420051Y-73694541D01*
X109105752Y-74152712D01*
X109914592Y-74313600D01*
X109997408Y-74313600D01*
X110806248Y-74152712D01*
X111226000Y-73872243D01*
X111645752Y-74152712D01*
X112454592Y-74313600D01*
X112537408Y-74313600D01*
X113346248Y-74152712D01*
X113766000Y-73872243D01*
X114185752Y-74152712D01*
X114994592Y-74313600D01*
X115077408Y-74313600D01*
X115886248Y-74152712D01*
X116306000Y-73872243D01*
X116725752Y-74152712D01*
X117534592Y-74313600D01*
X117617408Y-74313600D01*
X118426248Y-74152712D01*
X118846000Y-73872243D01*
X119265752Y-74152712D01*
X120074592Y-74313600D01*
X120157408Y-74313600D01*
X120966248Y-74152712D01*
X121386000Y-73872243D01*
X121805752Y-74152712D01*
X122614592Y-74313600D01*
X122697408Y-74313600D01*
X123506248Y-74152712D01*
X124191949Y-73694541D01*
X124650120Y-73008840D01*
X124688000Y-72818404D01*
X124725880Y-73008840D01*
X125184051Y-73694541D01*
X125869752Y-74152712D01*
X126678592Y-74313600D01*
X126761408Y-74313600D01*
X127570248Y-74152712D01*
X127990000Y-73872243D01*
X128409752Y-74152712D01*
X129218592Y-74313600D01*
X129301408Y-74313600D01*
X130110248Y-74152712D01*
X130530000Y-73872243D01*
X130949752Y-74152712D01*
X131758592Y-74313600D01*
X131841408Y-74313600D01*
X132650248Y-74152712D01*
X133070000Y-73872243D01*
X133489752Y-74152712D01*
X134298592Y-74313600D01*
X134381408Y-74313600D01*
X135190248Y-74152712D01*
X135610000Y-73872243D01*
X136029752Y-74152712D01*
X136838592Y-74313600D01*
X136921408Y-74313600D01*
X137730248Y-74152712D01*
X138150000Y-73872243D01*
X138569752Y-74152712D01*
X139378592Y-74313600D01*
X139461408Y-74313600D01*
X140270248Y-74152712D01*
X140690000Y-73872243D01*
X141109752Y-74152712D01*
X141918592Y-74313600D01*
X142001408Y-74313600D01*
X142810248Y-74152712D01*
X143230000Y-73872243D01*
X143649752Y-74152712D01*
X144458592Y-74313600D01*
X144541408Y-74313600D01*
X145350248Y-74152712D01*
X146035949Y-73694541D01*
X146494120Y-73008840D01*
X146655008Y-72200000D01*
X147424992Y-72200000D01*
X147585880Y-73008840D01*
X148044051Y-73694541D01*
X148729752Y-74152712D01*
X149538592Y-74313600D01*
X149621408Y-74313600D01*
X150430248Y-74152712D01*
X150850000Y-73872243D01*
X151269752Y-74152712D01*
X152078592Y-74313600D01*
X152161408Y-74313600D01*
X152970248Y-74152712D01*
X153390000Y-73872243D01*
X153809752Y-74152712D01*
X154618592Y-74313600D01*
X154701408Y-74313600D01*
X155510248Y-74152712D01*
X155930000Y-73872243D01*
X156349752Y-74152712D01*
X157158592Y-74313600D01*
X157241408Y-74313600D01*
X158050248Y-74152712D01*
X158470000Y-73872243D01*
X158889752Y-74152712D01*
X159698592Y-74313600D01*
X159781408Y-74313600D01*
X160590248Y-74152712D01*
X161010000Y-73872243D01*
X161429752Y-74152712D01*
X162238592Y-74313600D01*
X162321408Y-74313600D01*
X163130248Y-74152712D01*
X163550000Y-73872243D01*
X163969752Y-74152712D01*
X164778592Y-74313600D01*
X164861408Y-74313600D01*
X165670248Y-74152712D01*
X166090000Y-73872243D01*
X166509752Y-74152712D01*
X167318592Y-74313600D01*
X167401408Y-74313600D01*
X168210248Y-74152712D01*
X168745394Y-73795139D01*
X168752479Y-73812286D01*
X169553497Y-74614704D01*
X170600613Y-75049504D01*
X171734413Y-75050494D01*
X172782286Y-74617521D01*
X172865972Y-74533981D01*
X172824992Y-74740000D01*
X172985880Y-75548840D01*
X173294017Y-76010000D01*
X172985880Y-76471160D01*
X172824992Y-77280000D01*
X172985880Y-78088840D01*
X173294017Y-78550000D01*
X172985880Y-79011160D01*
X172824992Y-79820000D01*
X172985880Y-80628840D01*
X173294017Y-81090000D01*
X172985880Y-81551160D01*
X172824992Y-82360000D01*
X172985880Y-83168840D01*
X173294017Y-83630000D01*
X172985880Y-84091160D01*
X172824992Y-84900000D01*
X172985880Y-85708840D01*
X173294017Y-86170000D01*
X172985880Y-86631160D01*
X172824992Y-87440000D01*
X172985880Y-88248840D01*
X173294017Y-88710000D01*
X172985880Y-89171160D01*
X172824992Y-89980000D01*
X172985880Y-90788840D01*
X173294017Y-91250000D01*
X172985880Y-91711160D01*
X172824992Y-92520000D01*
X172985880Y-93328840D01*
X173294017Y-93790000D01*
X172985880Y-94251160D01*
X172824992Y-95060000D01*
X172985880Y-95868840D01*
X173294017Y-96330000D01*
X172985880Y-96791160D01*
X172824992Y-97600000D01*
X172985880Y-98408840D01*
X173294017Y-98870000D01*
X172985880Y-99331160D01*
X172824992Y-100140000D01*
X172985880Y-100948840D01*
X173294017Y-101410000D01*
X172985880Y-101871160D01*
X172824992Y-102680000D01*
X172985880Y-103488840D01*
X173294017Y-103950000D01*
X172985880Y-104411160D01*
X172824992Y-105220000D01*
X172985880Y-106028840D01*
X173294017Y-106490000D01*
X172985880Y-106951160D01*
X172824992Y-107760000D01*
X172985880Y-108568840D01*
X173294017Y-109030000D01*
X172985880Y-109491160D01*
X172824992Y-110300000D01*
X172985880Y-111108840D01*
X173294017Y-111570000D01*
X172985880Y-112031160D01*
X172824992Y-112840000D01*
X172985880Y-113648840D01*
X173444051Y-114334541D01*
X173647308Y-114470353D01*
X173402276Y-115005336D01*
X173378995Y-115122376D01*
X173547906Y-115376000D01*
X174976000Y-115376000D01*
X174976000Y-115356000D01*
X174984000Y-115356000D01*
X174984000Y-115376000D01*
X177516000Y-115376000D01*
X177516000Y-115356000D01*
X177524000Y-115356000D01*
X177524000Y-115376000D01*
X178952094Y-115376000D01*
X179121005Y-115122376D01*
X179097724Y-115005336D01*
X178852692Y-114470353D01*
X179055949Y-114334541D01*
X179514120Y-113648840D01*
X179675008Y-112840000D01*
X179514120Y-112031160D01*
X179205983Y-111570000D01*
X179514120Y-111108840D01*
X179675008Y-110300000D01*
X179514120Y-109491160D01*
X179205983Y-109030000D01*
X179514120Y-108568840D01*
X179675008Y-107760000D01*
X179514120Y-106951160D01*
X179205983Y-106490000D01*
X179514120Y-106028840D01*
X179675008Y-105220000D01*
X179514120Y-104411160D01*
X179205983Y-103950000D01*
X179514120Y-103488840D01*
X179675008Y-102680000D01*
X179514120Y-101871160D01*
X179205983Y-101410000D01*
X179514120Y-100948840D01*
X179675008Y-100140000D01*
X179514120Y-99331160D01*
X179205983Y-98870000D01*
X179514120Y-98408840D01*
X179675008Y-97600000D01*
X179514120Y-96791160D01*
X179205983Y-96330000D01*
X179514120Y-95868840D01*
X179675008Y-95060000D01*
X179514120Y-94251160D01*
X179205983Y-93790000D01*
X179514120Y-93328840D01*
X179675008Y-92520000D01*
X179514120Y-91711160D01*
X179205983Y-91250000D01*
X179514120Y-90788840D01*
X179675008Y-89980000D01*
X179514120Y-89171160D01*
X179205983Y-88710000D01*
X179514120Y-88248840D01*
X179675008Y-87440000D01*
X179514120Y-86631160D01*
X179205983Y-86170000D01*
X179514120Y-85708840D01*
X179675008Y-84900000D01*
X179514120Y-84091160D01*
X179205983Y-83630000D01*
X179514120Y-83168840D01*
X179675008Y-82360000D01*
X179514120Y-81551160D01*
X179205983Y-81090000D01*
X179514120Y-80628840D01*
X179675008Y-79820000D01*
X179514120Y-79011160D01*
X179205983Y-78550000D01*
X179514120Y-78088840D01*
X179675008Y-77280000D01*
X179514120Y-76471160D01*
X179205983Y-76010000D01*
X179514120Y-75548840D01*
X179675008Y-74740000D01*
X179514120Y-73931160D01*
X179205983Y-73470000D01*
X179514120Y-73008840D01*
X179675008Y-72200000D01*
X179514120Y-71391160D01*
X179055949Y-70705459D01*
X178370248Y-70247288D01*
X177561408Y-70086400D01*
X177478592Y-70086400D01*
X176669752Y-70247288D01*
X176250000Y-70527757D01*
X175830248Y-70247288D01*
X175021408Y-70086400D01*
X174938592Y-70086400D01*
X174129752Y-70247288D01*
X173594606Y-70604861D01*
X173587521Y-70587714D01*
X172786503Y-69785296D01*
X171739387Y-69350496D01*
X170605587Y-69349506D01*
X169557714Y-69782479D01*
X168755296Y-70583497D01*
X168746201Y-70605400D01*
X168210248Y-70247288D01*
X167401408Y-70086400D01*
X167318592Y-70086400D01*
X166509752Y-70247288D01*
X166090000Y-70527757D01*
X165670248Y-70247288D01*
X164861408Y-70086400D01*
X164778592Y-70086400D01*
X163969752Y-70247288D01*
X163550000Y-70527757D01*
X163130248Y-70247288D01*
X162321408Y-70086400D01*
X162238592Y-70086400D01*
X161429752Y-70247288D01*
X161010000Y-70527757D01*
X160590248Y-70247288D01*
X159781408Y-70086400D01*
X159698592Y-70086400D01*
X158889752Y-70247288D01*
X158470000Y-70527757D01*
X158050248Y-70247288D01*
X157241408Y-70086400D01*
X157158592Y-70086400D01*
X156349752Y-70247288D01*
X155930000Y-70527757D01*
X155510248Y-70247288D01*
X154701408Y-70086400D01*
X154618592Y-70086400D01*
X153809752Y-70247288D01*
X153390000Y-70527757D01*
X152970248Y-70247288D01*
X152161408Y-70086400D01*
X152078592Y-70086400D01*
X151269752Y-70247288D01*
X150850000Y-70527757D01*
X150430248Y-70247288D01*
X149621408Y-70086400D01*
X149538592Y-70086400D01*
X148729752Y-70247288D01*
X148044051Y-70705459D01*
X147585880Y-71391160D01*
X147424992Y-72200000D01*
X146655008Y-72200000D01*
X146494120Y-71391160D01*
X146035949Y-70705459D01*
X145350248Y-70247288D01*
X144541408Y-70086400D01*
X144458592Y-70086400D01*
X143649752Y-70247288D01*
X143230000Y-70527757D01*
X142810248Y-70247288D01*
X142001408Y-70086400D01*
X141918592Y-70086400D01*
X141109752Y-70247288D01*
X140690000Y-70527757D01*
X140270248Y-70247288D01*
X139461408Y-70086400D01*
X139378592Y-70086400D01*
X138569752Y-70247288D01*
X138150000Y-70527757D01*
X137730248Y-70247288D01*
X136921408Y-70086400D01*
X136838592Y-70086400D01*
X136029752Y-70247288D01*
X135610000Y-70527757D01*
X135190248Y-70247288D01*
X134381408Y-70086400D01*
X134298592Y-70086400D01*
X133489752Y-70247288D01*
X133070000Y-70527757D01*
X132650248Y-70247288D01*
X131841408Y-70086400D01*
X131758592Y-70086400D01*
X130949752Y-70247288D01*
X130530000Y-70527757D01*
X130110248Y-70247288D01*
X129301408Y-70086400D01*
X129218592Y-70086400D01*
X128409752Y-70247288D01*
X127990000Y-70527757D01*
X127570248Y-70247288D01*
X126761408Y-70086400D01*
X126678592Y-70086400D01*
X125869752Y-70247288D01*
X125184051Y-70705459D01*
X124725880Y-71391160D01*
X124688000Y-71581596D01*
X124650120Y-71391160D01*
X124191949Y-70705459D01*
X123506248Y-70247288D01*
X122697408Y-70086400D01*
X122614592Y-70086400D01*
X121805752Y-70247288D01*
X121386000Y-70527757D01*
X120966248Y-70247288D01*
X120157408Y-70086400D01*
X120074592Y-70086400D01*
X119265752Y-70247288D01*
X118846000Y-70527757D01*
X118426248Y-70247288D01*
X117617408Y-70086400D01*
X117534592Y-70086400D01*
X116725752Y-70247288D01*
X116306000Y-70527757D01*
X115886248Y-70247288D01*
X115077408Y-70086400D01*
X114994592Y-70086400D01*
X114185752Y-70247288D01*
X113766000Y-70527757D01*
X113346248Y-70247288D01*
X112537408Y-70086400D01*
X112454592Y-70086400D01*
X111645752Y-70247288D01*
X111226000Y-70527757D01*
X110806248Y-70247288D01*
X109997408Y-70086400D01*
X109914592Y-70086400D01*
X109105752Y-70247288D01*
X108420051Y-70705459D01*
X108314319Y-70863698D01*
X108266692Y-70819453D01*
X107673624Y-70598995D01*
X107420000Y-70767905D01*
X107412000Y-70767905D01*
X107158376Y-70598995D01*
X106565308Y-70819453D01*
X106517681Y-70863698D01*
X106411949Y-70705459D01*
X105726248Y-70247288D01*
X104917408Y-70086400D01*
X104834592Y-70086400D01*
X104025752Y-70247288D01*
X103606000Y-70527757D01*
X103186248Y-70247288D01*
X102377408Y-70086400D01*
X102294592Y-70086400D01*
X101485752Y-70247288D01*
X101066000Y-70527757D01*
X100646248Y-70247288D01*
X99837408Y-70086400D01*
X99754592Y-70086400D01*
X98945752Y-70247288D01*
X98568993Y-70499031D01*
X97856503Y-69785296D01*
X96809387Y-69350496D01*
X95675587Y-69349506D01*
X94627714Y-69782479D01*
X93825296Y-70583497D01*
X93390496Y-71630613D01*
X93389506Y-72764413D01*
X73325000Y-72764413D01*
X73325000Y-53925736D01*
X73819051Y-55121429D01*
X74873022Y-56177242D01*
X76250806Y-56749348D01*
X77742649Y-56750650D01*
X79091053Y-56193500D01*
X103392000Y-56193500D01*
X103392000Y-57000776D01*
X103507399Y-57279373D01*
X103720628Y-57492602D01*
X103999225Y-57608000D01*
X104806500Y-57608000D01*
X104996000Y-57418500D01*
X104996000Y-56004000D01*
X105004000Y-56004000D01*
X105004000Y-57418500D01*
X105193500Y-57608000D01*
X106000775Y-57608000D01*
X106279372Y-57492602D01*
X106492601Y-57279373D01*
X106518289Y-57217358D01*
X106598081Y-57303247D01*
X107168511Y-57564500D01*
X107284503Y-57587572D01*
X107536000Y-57418494D01*
X107536000Y-56004000D01*
X105004000Y-56004000D01*
X104996000Y-56004000D01*
X103581500Y-56004000D01*
X103392000Y-56193500D01*
X79091053Y-56193500D01*
X79121429Y-56180949D01*
X80177242Y-55126978D01*
X80230290Y-54999224D01*
X103392000Y-54999224D01*
X103392000Y-55806500D01*
X103581500Y-55996000D01*
X104996000Y-55996000D01*
X104996000Y-54581500D01*
X105004000Y-54581500D01*
X105004000Y-55996000D01*
X107536000Y-55996000D01*
X107536000Y-54581506D01*
X107544000Y-54581506D01*
X107544000Y-55996000D01*
X107564000Y-55996000D01*
X107564000Y-56004000D01*
X107544000Y-56004000D01*
X107544000Y-57418494D01*
X107795497Y-57587572D01*
X107911489Y-57564500D01*
X108454565Y-57315775D01*
X108595076Y-57526065D01*
X109276365Y-57981288D01*
X110080000Y-58141141D01*
X110883635Y-57981288D01*
X111350000Y-57669673D01*
X111816365Y-57981288D01*
X112620000Y-58141141D01*
X113423635Y-57981288D01*
X114104924Y-57526065D01*
X114560147Y-56844776D01*
X114720000Y-56041141D01*
X114720000Y-55958859D01*
X114560147Y-55155224D01*
X114104924Y-54473935D01*
X113423635Y-54018712D01*
X112620000Y-53858859D01*
X111816365Y-54018712D01*
X111350000Y-54330327D01*
X110883635Y-54018712D01*
X110080000Y-53858859D01*
X109276365Y-54018712D01*
X108595076Y-54473935D01*
X108454565Y-54684225D01*
X107911489Y-54435500D01*
X107795497Y-54412428D01*
X107544000Y-54581506D01*
X107536000Y-54581506D01*
X107284503Y-54412428D01*
X107168511Y-54435500D01*
X106598081Y-54696753D01*
X106518289Y-54782642D01*
X106492601Y-54720627D01*
X106279372Y-54507398D01*
X106000775Y-54392000D01*
X105193500Y-54392000D01*
X105004000Y-54581500D01*
X104996000Y-54581500D01*
X104806500Y-54392000D01*
X103999225Y-54392000D01*
X103720628Y-54507398D01*
X103507399Y-54720627D01*
X103392000Y-54999224D01*
X80230290Y-54999224D01*
X80749348Y-53749194D01*
X80750650Y-52257351D01*
X80180949Y-50878571D01*
X79126978Y-49822758D01*
X77928244Y-49325000D01*
X182074264Y-49325000D01*
X180878571Y-49819051D01*
M02*
