G04 #@! TF.FileFunction,Copper,L2,Bot,Signal*
%FSLAX46Y46*%
G04 Gerber Fmt 4.6, Leading zero omitted, Abs format (unit mm)*
G04 Created by KiCad (PCBNEW 4.0.7) date Wed Jun 20 13:04:55 2018*
%MOMM*%
%LPD*%
G01*
G04 APERTURE LIST*
%ADD10C,0.100000*%
%ADD11R,1.700000X1.700000*%
%ADD12C,5.000000*%
%ADD13O,1.700000X1.700000*%
%ADD14O,1.727200X1.727200*%
%ADD15C,3.000000*%
%ADD16R,3.000000X3.000000*%
%ADD17C,0.500000*%
G04 APERTURE END LIST*
D10*
D11*
X93980000Y-140970000D03*
X93980000Y-138430000D03*
X93980000Y-133350000D03*
X93980000Y-135890000D03*
X91440000Y-135890000D03*
X91440000Y-133350000D03*
X91440000Y-138430000D03*
X91440000Y-140970000D03*
X91440000Y-128270000D03*
X91440000Y-130810000D03*
X93980000Y-130810000D03*
X93980000Y-128270000D03*
X88900000Y-128270000D03*
X88900000Y-130810000D03*
X86360000Y-130810000D03*
X86360000Y-128270000D03*
X86360000Y-140970000D03*
X86360000Y-138430000D03*
X86360000Y-133350000D03*
X86360000Y-135890000D03*
X88900000Y-135890000D03*
X88900000Y-133350000D03*
X88900000Y-138430000D03*
X88900000Y-140970000D03*
X96520000Y-135890000D03*
X96520000Y-133350000D03*
X96520000Y-138430000D03*
X96520000Y-140970000D03*
X96520000Y-128270000D03*
X96520000Y-130810000D03*
X116840000Y-140970000D03*
X116840000Y-138430000D03*
X116840000Y-133350000D03*
X116840000Y-135890000D03*
X114300000Y-135890000D03*
X114300000Y-133350000D03*
X114300000Y-138430000D03*
X114300000Y-140970000D03*
X114300000Y-128270000D03*
X114300000Y-130810000D03*
X116840000Y-130810000D03*
X116840000Y-128270000D03*
X111760000Y-128270000D03*
X111760000Y-130810000D03*
X109220000Y-130810000D03*
X109220000Y-128270000D03*
X109220000Y-140970000D03*
X109220000Y-138430000D03*
X109220000Y-133350000D03*
X109220000Y-135890000D03*
X111760000Y-135890000D03*
X111760000Y-133350000D03*
X111760000Y-138430000D03*
X111760000Y-140970000D03*
X101600000Y-140970000D03*
X101600000Y-138430000D03*
X101600000Y-133350000D03*
X101600000Y-135890000D03*
X99060000Y-135890000D03*
X99060000Y-133350000D03*
X99060000Y-138430000D03*
X99060000Y-140970000D03*
X99060000Y-128270000D03*
X99060000Y-130810000D03*
X101600000Y-130810000D03*
X101600000Y-128270000D03*
X106680000Y-128270000D03*
X106680000Y-130810000D03*
X104140000Y-130810000D03*
X104140000Y-128270000D03*
X104140000Y-140970000D03*
X104140000Y-138430000D03*
X104140000Y-133350000D03*
X104140000Y-135890000D03*
X106680000Y-135890000D03*
X106680000Y-133350000D03*
X106680000Y-138430000D03*
X106680000Y-140970000D03*
X127000000Y-140970000D03*
X127000000Y-138430000D03*
X127000000Y-133350000D03*
X127000000Y-135890000D03*
X124460000Y-135890000D03*
X124460000Y-133350000D03*
X124460000Y-138430000D03*
X124460000Y-140970000D03*
X124460000Y-128270000D03*
X124460000Y-130810000D03*
X127000000Y-130810000D03*
X127000000Y-128270000D03*
X121920000Y-128270000D03*
X121920000Y-130810000D03*
X119380000Y-130810000D03*
X119380000Y-128270000D03*
X119380000Y-140970000D03*
X119380000Y-138430000D03*
X119380000Y-133350000D03*
X119380000Y-135890000D03*
X121920000Y-135890000D03*
X121920000Y-133350000D03*
X121920000Y-138430000D03*
X121920000Y-140970000D03*
X132080000Y-140970000D03*
X132080000Y-138430000D03*
X132080000Y-133350000D03*
X132080000Y-135890000D03*
X129540000Y-135890000D03*
X129540000Y-133350000D03*
X129540000Y-138430000D03*
X129540000Y-140970000D03*
X129540000Y-128270000D03*
X129540000Y-130810000D03*
X132080000Y-130810000D03*
X132080000Y-128270000D03*
X137160000Y-128270000D03*
X137160000Y-130810000D03*
X134620000Y-130810000D03*
X134620000Y-128270000D03*
X134620000Y-140970000D03*
X134620000Y-138430000D03*
X134620000Y-133350000D03*
X134620000Y-135890000D03*
X137160000Y-135890000D03*
X137160000Y-133350000D03*
X137160000Y-138430000D03*
X137160000Y-140970000D03*
D12*
X77000000Y-53000000D03*
X77000000Y-143000000D03*
X183000000Y-143000000D03*
X183000000Y-53000000D03*
D11*
X93110000Y-108000000D03*
D13*
X93110000Y-105460000D03*
X93110000Y-102920000D03*
X93110000Y-100380000D03*
X93110000Y-97840000D03*
X93110000Y-95300000D03*
X93110000Y-92760000D03*
X93110000Y-90220000D03*
X93110000Y-87680000D03*
X93110000Y-85140000D03*
X93110000Y-82600000D03*
D11*
X105110000Y-108000000D03*
D13*
X105110000Y-105460000D03*
X105110000Y-102920000D03*
X105110000Y-100380000D03*
X105110000Y-97840000D03*
X105110000Y-95300000D03*
X105110000Y-92760000D03*
X105110000Y-90220000D03*
X105110000Y-87680000D03*
X105110000Y-85140000D03*
X105110000Y-82600000D03*
D11*
X116110000Y-108000000D03*
D13*
X116110000Y-105460000D03*
X116110000Y-102920000D03*
X116110000Y-100380000D03*
X116110000Y-97840000D03*
X116110000Y-95300000D03*
X116110000Y-92760000D03*
X116110000Y-90220000D03*
X116110000Y-87680000D03*
X116110000Y-85140000D03*
X116110000Y-82600000D03*
D11*
X126110000Y-83000000D03*
D13*
X126110000Y-85540000D03*
X126110000Y-88080000D03*
X126110000Y-90620000D03*
X126110000Y-93160000D03*
X126110000Y-95700000D03*
X126110000Y-98240000D03*
X126110000Y-100780000D03*
X126110000Y-103320000D03*
X126110000Y-105860000D03*
X126110000Y-108400000D03*
D11*
X148110000Y-83000000D03*
D13*
X148110000Y-85540000D03*
X148110000Y-88080000D03*
X148110000Y-90620000D03*
X148110000Y-93160000D03*
X148110000Y-95700000D03*
X148110000Y-98240000D03*
X148110000Y-100780000D03*
X148110000Y-103320000D03*
X148110000Y-105860000D03*
X148110000Y-108400000D03*
D11*
X157110000Y-83000000D03*
D13*
X157110000Y-85540000D03*
X157110000Y-88080000D03*
X157110000Y-90620000D03*
X157110000Y-93160000D03*
X157110000Y-95700000D03*
X157110000Y-98240000D03*
X157110000Y-100780000D03*
X157110000Y-103320000D03*
X157110000Y-105860000D03*
X157110000Y-108400000D03*
D14*
X135737000Y-97600000D03*
X138277000Y-97600000D03*
X138277000Y-95060000D03*
X135737000Y-95060000D03*
X138277000Y-92520000D03*
X122910000Y-120460000D03*
X117830000Y-120460000D03*
X115290000Y-120460000D03*
X112750000Y-120460000D03*
X110210000Y-120460000D03*
X107670000Y-120460000D03*
X105130000Y-120460000D03*
X102590000Y-120460000D03*
X158470000Y-72200000D03*
X155930000Y-72200000D03*
X153390000Y-72200000D03*
X150850000Y-72200000D03*
X148310000Y-72200000D03*
X145770000Y-72200000D03*
X143230000Y-72200000D03*
X140690000Y-72200000D03*
X135610000Y-72200000D03*
X133070000Y-72200000D03*
X130530000Y-72200000D03*
X127990000Y-72200000D03*
X125450000Y-72200000D03*
X122910000Y-72200000D03*
X120370000Y-72200000D03*
X117830000Y-72200000D03*
X98526000Y-72200000D03*
X113766000Y-72200000D03*
X111226000Y-72200000D03*
X108686000Y-72200000D03*
X90906000Y-72200000D03*
X93446000Y-72200000D03*
X95986000Y-72200000D03*
X101066000Y-72200000D03*
X103606000Y-72200000D03*
X106146000Y-72200000D03*
X100050000Y-120460000D03*
X125450000Y-120460000D03*
X127990000Y-120460000D03*
X130530000Y-120460000D03*
X133070000Y-120460000D03*
X135610000Y-120460000D03*
X138150000Y-120460000D03*
X140690000Y-120460000D03*
X145770000Y-120460000D03*
X148310000Y-120460000D03*
X150850000Y-120460000D03*
X153390000Y-120460000D03*
X155930000Y-120460000D03*
X158470000Y-120460000D03*
X161010000Y-120460000D03*
X163550000Y-120460000D03*
X166090000Y-72200000D03*
X168630000Y-72200000D03*
X166090000Y-74740000D03*
X168630000Y-74740000D03*
X166090000Y-77280000D03*
X168630000Y-77280000D03*
X166090000Y-79820000D03*
X168630000Y-79820000D03*
X166090000Y-82360000D03*
X168630000Y-82360000D03*
X166090000Y-84900000D03*
X168630000Y-84900000D03*
X166090000Y-87440000D03*
X168630000Y-87440000D03*
X166090000Y-89980000D03*
X168630000Y-89980000D03*
X166090000Y-92520000D03*
X168630000Y-92520000D03*
X166090000Y-95060000D03*
X168630000Y-95060000D03*
X166090000Y-97600000D03*
X168630000Y-97600000D03*
X166090000Y-100140000D03*
X168630000Y-100140000D03*
X166090000Y-102680000D03*
X168630000Y-102680000D03*
X166090000Y-105220000D03*
X168630000Y-105220000D03*
X166090000Y-107760000D03*
X168630000Y-107760000D03*
X166090000Y-110300000D03*
X168630000Y-110300000D03*
X166090000Y-112840000D03*
X168630000Y-112840000D03*
X166090000Y-115380000D03*
X168630000Y-115380000D03*
X135737000Y-92520000D03*
D15*
X133350000Y-54610000D03*
X138430000Y-54610000D03*
D16*
X128270000Y-54610000D03*
D15*
X143510000Y-54610000D03*
D17*
G36*
X180878571Y-49819051D02*
X179822758Y-50873022D01*
X179250652Y-52250806D01*
X179249350Y-53742649D01*
X179819051Y-55121429D01*
X180873022Y-56177242D01*
X182250806Y-56749348D01*
X183742649Y-56750650D01*
X185121429Y-56180949D01*
X186177242Y-55126978D01*
X186675000Y-53928244D01*
X186675000Y-142074264D01*
X186180949Y-140878571D01*
X185126978Y-139822758D01*
X183749194Y-139250652D01*
X182257351Y-139249350D01*
X180878571Y-139819051D01*
X179822758Y-140873022D01*
X179250652Y-142250806D01*
X179249350Y-143742649D01*
X179819051Y-145121429D01*
X180873022Y-146177242D01*
X182071756Y-146675000D01*
X77925736Y-146675000D01*
X79121429Y-146180949D01*
X80177242Y-145126978D01*
X80749348Y-143749194D01*
X80750650Y-142257351D01*
X80180949Y-140878571D01*
X79126978Y-139822758D01*
X77749194Y-139250652D01*
X76257351Y-139249350D01*
X74878571Y-139819051D01*
X73822758Y-140873022D01*
X73325000Y-142071756D01*
X73325000Y-127420000D01*
X84235512Y-127420000D01*
X84235512Y-129120000D01*
X84317442Y-129555420D01*
X84235512Y-129960000D01*
X84235512Y-131660000D01*
X84317442Y-132095420D01*
X84235512Y-132500000D01*
X84235512Y-134200000D01*
X84317442Y-134635420D01*
X84235512Y-135040000D01*
X84235512Y-136740000D01*
X84317442Y-137175420D01*
X84235512Y-137580000D01*
X84235512Y-139280000D01*
X84317442Y-139715420D01*
X84235512Y-140120000D01*
X84235512Y-141820000D01*
X84322673Y-142283222D01*
X84596437Y-142708663D01*
X85014153Y-142994076D01*
X85510000Y-143094488D01*
X87210000Y-143094488D01*
X87645420Y-143012558D01*
X88050000Y-143094488D01*
X89750000Y-143094488D01*
X90185420Y-143012558D01*
X90590000Y-143094488D01*
X92290000Y-143094488D01*
X92725420Y-143012558D01*
X93130000Y-143094488D01*
X94830000Y-143094488D01*
X95265420Y-143012558D01*
X95670000Y-143094488D01*
X97370000Y-143094488D01*
X97805420Y-143012558D01*
X98210000Y-143094488D01*
X99910000Y-143094488D01*
X100345420Y-143012558D01*
X100750000Y-143094488D01*
X102450000Y-143094488D01*
X102885420Y-143012558D01*
X103290000Y-143094488D01*
X104990000Y-143094488D01*
X105425420Y-143012558D01*
X105830000Y-143094488D01*
X107530000Y-143094488D01*
X107965420Y-143012558D01*
X108370000Y-143094488D01*
X110070000Y-143094488D01*
X110505420Y-143012558D01*
X110910000Y-143094488D01*
X112610000Y-143094488D01*
X113045420Y-143012558D01*
X113450000Y-143094488D01*
X115150000Y-143094488D01*
X115585420Y-143012558D01*
X115990000Y-143094488D01*
X117690000Y-143094488D01*
X118125420Y-143012558D01*
X118530000Y-143094488D01*
X120230000Y-143094488D01*
X120665420Y-143012558D01*
X121070000Y-143094488D01*
X122770000Y-143094488D01*
X123205420Y-143012558D01*
X123610000Y-143094488D01*
X125310000Y-143094488D01*
X125745420Y-143012558D01*
X126150000Y-143094488D01*
X127850000Y-143094488D01*
X128285420Y-143012558D01*
X128690000Y-143094488D01*
X130390000Y-143094488D01*
X130825420Y-143012558D01*
X131230000Y-143094488D01*
X132930000Y-143094488D01*
X133365420Y-143012558D01*
X133770000Y-143094488D01*
X135470000Y-143094488D01*
X135905420Y-143012558D01*
X136310000Y-143094488D01*
X138010000Y-143094488D01*
X138473222Y-143007327D01*
X138898663Y-142733563D01*
X139184076Y-142315847D01*
X139284488Y-141820000D01*
X139284488Y-140120000D01*
X139202558Y-139684580D01*
X139284488Y-139280000D01*
X139284488Y-137580000D01*
X139202558Y-137144580D01*
X139284488Y-136740000D01*
X139284488Y-135040000D01*
X139202558Y-134604580D01*
X139284488Y-134200000D01*
X139284488Y-132500000D01*
X139202558Y-132064580D01*
X139284488Y-131660000D01*
X139284488Y-129960000D01*
X139202558Y-129524580D01*
X139284488Y-129120000D01*
X139284488Y-127420000D01*
X139197327Y-126956778D01*
X138923563Y-126531337D01*
X138505847Y-126245924D01*
X138010000Y-126145512D01*
X136310000Y-126145512D01*
X135874580Y-126227442D01*
X135470000Y-126145512D01*
X133770000Y-126145512D01*
X133334580Y-126227442D01*
X132930000Y-126145512D01*
X131230000Y-126145512D01*
X130794580Y-126227442D01*
X130390000Y-126145512D01*
X128690000Y-126145512D01*
X128254580Y-126227442D01*
X127850000Y-126145512D01*
X126150000Y-126145512D01*
X125714580Y-126227442D01*
X125310000Y-126145512D01*
X123610000Y-126145512D01*
X123174580Y-126227442D01*
X122770000Y-126145512D01*
X121070000Y-126145512D01*
X120634580Y-126227442D01*
X120230000Y-126145512D01*
X118530000Y-126145512D01*
X118094580Y-126227442D01*
X117690000Y-126145512D01*
X115990000Y-126145512D01*
X115554580Y-126227442D01*
X115150000Y-126145512D01*
X113450000Y-126145512D01*
X113014580Y-126227442D01*
X112610000Y-126145512D01*
X110910000Y-126145512D01*
X110474580Y-126227442D01*
X110070000Y-126145512D01*
X108370000Y-126145512D01*
X107934580Y-126227442D01*
X107530000Y-126145512D01*
X105830000Y-126145512D01*
X105394580Y-126227442D01*
X104990000Y-126145512D01*
X103290000Y-126145512D01*
X102854580Y-126227442D01*
X102450000Y-126145512D01*
X100750000Y-126145512D01*
X100314580Y-126227442D01*
X99910000Y-126145512D01*
X98210000Y-126145512D01*
X97774580Y-126227442D01*
X97370000Y-126145512D01*
X95670000Y-126145512D01*
X95234580Y-126227442D01*
X94830000Y-126145512D01*
X93130000Y-126145512D01*
X92694580Y-126227442D01*
X92290000Y-126145512D01*
X90590000Y-126145512D01*
X90154580Y-126227442D01*
X89750000Y-126145512D01*
X88050000Y-126145512D01*
X87614580Y-126227442D01*
X87210000Y-126145512D01*
X85510000Y-126145512D01*
X85046778Y-126232673D01*
X84621337Y-126506437D01*
X84335924Y-126924153D01*
X84235512Y-127420000D01*
X73325000Y-127420000D01*
X73325000Y-121024413D01*
X83229506Y-121024413D01*
X83662479Y-122072286D01*
X84463497Y-122874704D01*
X85510613Y-123309504D01*
X86644413Y-123310494D01*
X87692286Y-122877521D01*
X88494704Y-122076503D01*
X88929504Y-121029387D01*
X88930001Y-120460000D01*
X97894992Y-120460000D01*
X98055880Y-121268840D01*
X98514051Y-121954541D01*
X99199752Y-122412712D01*
X100008592Y-122573600D01*
X100091408Y-122573600D01*
X100900248Y-122412712D01*
X101320000Y-122132243D01*
X101739752Y-122412712D01*
X102548592Y-122573600D01*
X102631408Y-122573600D01*
X103440248Y-122412712D01*
X103860000Y-122132243D01*
X104279752Y-122412712D01*
X105088592Y-122573600D01*
X105171408Y-122573600D01*
X105980248Y-122412712D01*
X106400000Y-122132243D01*
X106819752Y-122412712D01*
X107628592Y-122573600D01*
X107711408Y-122573600D01*
X108520248Y-122412712D01*
X108940000Y-122132243D01*
X109359752Y-122412712D01*
X110168592Y-122573600D01*
X110251408Y-122573600D01*
X111060248Y-122412712D01*
X111745949Y-121954541D01*
X111851681Y-121796302D01*
X111899308Y-121840547D01*
X112492376Y-122061005D01*
X112746000Y-121892095D01*
X112746000Y-120464000D01*
X112754000Y-120464000D01*
X112754000Y-121892095D01*
X113007624Y-122061005D01*
X113600692Y-121840547D01*
X114020000Y-121451019D01*
X114439308Y-121840547D01*
X115032376Y-122061005D01*
X115286000Y-121892095D01*
X115286000Y-120464000D01*
X112754000Y-120464000D01*
X112746000Y-120464000D01*
X112726000Y-120464000D01*
X112726000Y-120456000D01*
X112746000Y-120456000D01*
X112746000Y-119027905D01*
X112754000Y-119027905D01*
X112754000Y-120456000D01*
X115286000Y-120456000D01*
X115286000Y-119027905D01*
X115294000Y-119027905D01*
X115294000Y-120456000D01*
X115314000Y-120456000D01*
X115314000Y-120464000D01*
X115294000Y-120464000D01*
X115294000Y-121892095D01*
X115547624Y-122061005D01*
X116140692Y-121840547D01*
X116188319Y-121796302D01*
X116294051Y-121954541D01*
X116979752Y-122412712D01*
X117788592Y-122573600D01*
X117871408Y-122573600D01*
X118680248Y-122412712D01*
X119365949Y-121954541D01*
X119824120Y-121268840D01*
X119985008Y-120460000D01*
X120754992Y-120460000D01*
X120915880Y-121268840D01*
X121374051Y-121954541D01*
X122059752Y-122412712D01*
X122868592Y-122573600D01*
X122951408Y-122573600D01*
X123760248Y-122412712D01*
X124180000Y-122132243D01*
X124599752Y-122412712D01*
X125408592Y-122573600D01*
X125491408Y-122573600D01*
X126300248Y-122412712D01*
X126720000Y-122132243D01*
X127139752Y-122412712D01*
X127948592Y-122573600D01*
X128031408Y-122573600D01*
X128840248Y-122412712D01*
X129260000Y-122132243D01*
X129679752Y-122412712D01*
X130488592Y-122573600D01*
X130571408Y-122573600D01*
X131380248Y-122412712D01*
X131800000Y-122132243D01*
X132219752Y-122412712D01*
X133028592Y-122573600D01*
X133111408Y-122573600D01*
X133920248Y-122412712D01*
X134340000Y-122132243D01*
X134759752Y-122412712D01*
X135568592Y-122573600D01*
X135651408Y-122573600D01*
X136460248Y-122412712D01*
X136880000Y-122132243D01*
X137299752Y-122412712D01*
X138108592Y-122573600D01*
X138191408Y-122573600D01*
X139000248Y-122412712D01*
X139420000Y-122132243D01*
X139839752Y-122412712D01*
X140648592Y-122573600D01*
X140731408Y-122573600D01*
X141540248Y-122412712D01*
X142225949Y-121954541D01*
X142684120Y-121268840D01*
X142845008Y-120460000D01*
X143614992Y-120460000D01*
X143775880Y-121268840D01*
X144234051Y-121954541D01*
X144919752Y-122412712D01*
X145728592Y-122573600D01*
X145811408Y-122573600D01*
X146620248Y-122412712D01*
X147040000Y-122132243D01*
X147459752Y-122412712D01*
X148268592Y-122573600D01*
X148351408Y-122573600D01*
X149160248Y-122412712D01*
X149580000Y-122132243D01*
X149999752Y-122412712D01*
X150808592Y-122573600D01*
X150891408Y-122573600D01*
X151700248Y-122412712D01*
X152120000Y-122132243D01*
X152539752Y-122412712D01*
X153348592Y-122573600D01*
X153431408Y-122573600D01*
X154240248Y-122412712D01*
X154660000Y-122132243D01*
X155079752Y-122412712D01*
X155888592Y-122573600D01*
X155971408Y-122573600D01*
X156780248Y-122412712D01*
X157200000Y-122132243D01*
X157619752Y-122412712D01*
X158428592Y-122573600D01*
X158511408Y-122573600D01*
X159320248Y-122412712D01*
X159740000Y-122132243D01*
X160159752Y-122412712D01*
X160968592Y-122573600D01*
X161051408Y-122573600D01*
X161860248Y-122412712D01*
X162280000Y-122132243D01*
X162699752Y-122412712D01*
X163508592Y-122573600D01*
X163591408Y-122573600D01*
X164400248Y-122412712D01*
X165085949Y-121954541D01*
X165544120Y-121268840D01*
X165592739Y-121024413D01*
X165779506Y-121024413D01*
X166212479Y-122072286D01*
X167013497Y-122874704D01*
X168060613Y-123309504D01*
X169194413Y-123310494D01*
X170242286Y-122877521D01*
X171044704Y-122076503D01*
X171479504Y-121029387D01*
X171480494Y-119895587D01*
X171047521Y-118847714D01*
X170246503Y-118045296D01*
X169199387Y-117610496D01*
X168065587Y-117609506D01*
X167017714Y-118042479D01*
X166215296Y-118843497D01*
X165780496Y-119890613D01*
X165779506Y-121024413D01*
X165592739Y-121024413D01*
X165705008Y-120460000D01*
X165544120Y-119651160D01*
X165085949Y-118965459D01*
X164400248Y-118507288D01*
X163591408Y-118346400D01*
X163508592Y-118346400D01*
X162699752Y-118507288D01*
X162280000Y-118787757D01*
X161860248Y-118507288D01*
X161051408Y-118346400D01*
X160968592Y-118346400D01*
X160159752Y-118507288D01*
X159740000Y-118787757D01*
X159320248Y-118507288D01*
X158511408Y-118346400D01*
X158428592Y-118346400D01*
X157619752Y-118507288D01*
X157200000Y-118787757D01*
X156780248Y-118507288D01*
X155971408Y-118346400D01*
X155888592Y-118346400D01*
X155079752Y-118507288D01*
X154660000Y-118787757D01*
X154240248Y-118507288D01*
X153431408Y-118346400D01*
X153348592Y-118346400D01*
X152539752Y-118507288D01*
X152120000Y-118787757D01*
X151700248Y-118507288D01*
X150891408Y-118346400D01*
X150808592Y-118346400D01*
X149999752Y-118507288D01*
X149580000Y-118787757D01*
X149160248Y-118507288D01*
X148351408Y-118346400D01*
X148268592Y-118346400D01*
X147459752Y-118507288D01*
X147040000Y-118787757D01*
X146620248Y-118507288D01*
X145811408Y-118346400D01*
X145728592Y-118346400D01*
X144919752Y-118507288D01*
X144234051Y-118965459D01*
X143775880Y-119651160D01*
X143614992Y-120460000D01*
X142845008Y-120460000D01*
X142684120Y-119651160D01*
X142225949Y-118965459D01*
X141540248Y-118507288D01*
X140731408Y-118346400D01*
X140648592Y-118346400D01*
X139839752Y-118507288D01*
X139420000Y-118787757D01*
X139000248Y-118507288D01*
X138191408Y-118346400D01*
X138108592Y-118346400D01*
X137299752Y-118507288D01*
X136880000Y-118787757D01*
X136460248Y-118507288D01*
X135651408Y-118346400D01*
X135568592Y-118346400D01*
X134759752Y-118507288D01*
X134340000Y-118787757D01*
X133920248Y-118507288D01*
X133111408Y-118346400D01*
X133028592Y-118346400D01*
X132219752Y-118507288D01*
X131800000Y-118787757D01*
X131380248Y-118507288D01*
X130571408Y-118346400D01*
X130488592Y-118346400D01*
X129679752Y-118507288D01*
X129260000Y-118787757D01*
X128840248Y-118507288D01*
X128031408Y-118346400D01*
X127948592Y-118346400D01*
X127139752Y-118507288D01*
X126720000Y-118787757D01*
X126300248Y-118507288D01*
X125491408Y-118346400D01*
X125408592Y-118346400D01*
X124599752Y-118507288D01*
X124180000Y-118787757D01*
X123760248Y-118507288D01*
X122951408Y-118346400D01*
X122868592Y-118346400D01*
X122059752Y-118507288D01*
X121374051Y-118965459D01*
X120915880Y-119651160D01*
X120754992Y-120460000D01*
X119985008Y-120460000D01*
X119824120Y-119651160D01*
X119365949Y-118965459D01*
X118680248Y-118507288D01*
X117871408Y-118346400D01*
X117788592Y-118346400D01*
X116979752Y-118507288D01*
X116294051Y-118965459D01*
X116188319Y-119123698D01*
X116140692Y-119079453D01*
X115547624Y-118858995D01*
X115294000Y-119027905D01*
X115286000Y-119027905D01*
X115032376Y-118858995D01*
X114439308Y-119079453D01*
X114020000Y-119468981D01*
X113600692Y-119079453D01*
X113007624Y-118858995D01*
X112754000Y-119027905D01*
X112746000Y-119027905D01*
X112492376Y-118858995D01*
X111899308Y-119079453D01*
X111851681Y-119123698D01*
X111745949Y-118965459D01*
X111060248Y-118507288D01*
X110251408Y-118346400D01*
X110168592Y-118346400D01*
X109359752Y-118507288D01*
X108940000Y-118787757D01*
X108520248Y-118507288D01*
X107711408Y-118346400D01*
X107628592Y-118346400D01*
X106819752Y-118507288D01*
X106400000Y-118787757D01*
X105980248Y-118507288D01*
X105171408Y-118346400D01*
X105088592Y-118346400D01*
X104279752Y-118507288D01*
X103860000Y-118787757D01*
X103440248Y-118507288D01*
X102631408Y-118346400D01*
X102548592Y-118346400D01*
X101739752Y-118507288D01*
X101320000Y-118787757D01*
X100900248Y-118507288D01*
X100091408Y-118346400D01*
X100008592Y-118346400D01*
X99199752Y-118507288D01*
X98514051Y-118965459D01*
X98055880Y-119651160D01*
X97894992Y-120460000D01*
X88930001Y-120460000D01*
X88930494Y-119895587D01*
X88497521Y-118847714D01*
X87696503Y-118045296D01*
X86649387Y-117610496D01*
X85515587Y-117609506D01*
X84467714Y-118042479D01*
X83665296Y-118843497D01*
X83230496Y-119890613D01*
X83229506Y-121024413D01*
X73325000Y-121024413D01*
X73325000Y-115944413D01*
X135299506Y-115944413D01*
X135732479Y-116992286D01*
X136533497Y-117794704D01*
X137580613Y-118229504D01*
X138714413Y-118230494D01*
X139762286Y-117797521D01*
X140564704Y-116996503D01*
X140999504Y-115949387D01*
X140999776Y-115637624D01*
X164488995Y-115637624D01*
X164512276Y-115754664D01*
X164775751Y-116329913D01*
X165239308Y-116760547D01*
X165832376Y-116981005D01*
X166086000Y-116812095D01*
X166086000Y-115384000D01*
X166094000Y-115384000D01*
X166094000Y-116812095D01*
X166347624Y-116981005D01*
X166940692Y-116760547D01*
X167360000Y-116371019D01*
X167779308Y-116760547D01*
X168372376Y-116981005D01*
X168626000Y-116812095D01*
X168626000Y-115384000D01*
X168634000Y-115384000D01*
X168634000Y-116812095D01*
X168887624Y-116981005D01*
X169480692Y-116760547D01*
X169944249Y-116329913D01*
X170207724Y-115754664D01*
X170231005Y-115637624D01*
X170062094Y-115384000D01*
X168634000Y-115384000D01*
X168626000Y-115384000D01*
X166094000Y-115384000D01*
X166086000Y-115384000D01*
X164657906Y-115384000D01*
X164488995Y-115637624D01*
X140999776Y-115637624D01*
X141000494Y-114815587D01*
X140567521Y-113767714D01*
X139766503Y-112965296D01*
X138719387Y-112530496D01*
X137585587Y-112529506D01*
X136537714Y-112962479D01*
X135735296Y-113763497D01*
X135300496Y-114810613D01*
X135299506Y-115944413D01*
X73325000Y-115944413D01*
X73325000Y-108193500D01*
X91502000Y-108193500D01*
X91502000Y-109000775D01*
X91617398Y-109279372D01*
X91830627Y-109492601D01*
X92109224Y-109608000D01*
X92916500Y-109608000D01*
X93106000Y-109418500D01*
X93106000Y-108004000D01*
X93114000Y-108004000D01*
X93114000Y-109418500D01*
X93303500Y-109608000D01*
X94110776Y-109608000D01*
X94389373Y-109492601D01*
X94602602Y-109279372D01*
X94718000Y-109000775D01*
X94718000Y-108193500D01*
X103502000Y-108193500D01*
X103502000Y-109000775D01*
X103617398Y-109279372D01*
X103830627Y-109492601D01*
X104109224Y-109608000D01*
X104916500Y-109608000D01*
X105106000Y-109418500D01*
X105106000Y-108004000D01*
X105114000Y-108004000D01*
X105114000Y-109418500D01*
X105303500Y-109608000D01*
X106110776Y-109608000D01*
X106389373Y-109492601D01*
X106602602Y-109279372D01*
X106718000Y-109000775D01*
X106718000Y-108193500D01*
X114502000Y-108193500D01*
X114502000Y-109000775D01*
X114617398Y-109279372D01*
X114830627Y-109492601D01*
X115109224Y-109608000D01*
X115916500Y-109608000D01*
X116106000Y-109418500D01*
X116106000Y-108004000D01*
X116114000Y-108004000D01*
X116114000Y-109418500D01*
X116303500Y-109608000D01*
X117110776Y-109608000D01*
X117389373Y-109492601D01*
X117602602Y-109279372D01*
X117718000Y-109000775D01*
X117718000Y-108655497D01*
X124522428Y-108655497D01*
X124545500Y-108771489D01*
X124806753Y-109341919D01*
X125266414Y-109768951D01*
X125854503Y-109987572D01*
X126106000Y-109818495D01*
X126106000Y-108404000D01*
X126114000Y-108404000D01*
X126114000Y-109818495D01*
X126365497Y-109987572D01*
X126953586Y-109768951D01*
X127413247Y-109341919D01*
X127674500Y-108771489D01*
X127697572Y-108655497D01*
X146522428Y-108655497D01*
X146545500Y-108771489D01*
X146806753Y-109341919D01*
X147266414Y-109768951D01*
X147854503Y-109987572D01*
X148106000Y-109818495D01*
X148106000Y-108404000D01*
X148114000Y-108404000D01*
X148114000Y-109818495D01*
X148365497Y-109987572D01*
X148953586Y-109768951D01*
X149413247Y-109341919D01*
X149674500Y-108771489D01*
X149697572Y-108655497D01*
X155522428Y-108655497D01*
X155545500Y-108771489D01*
X155806753Y-109341919D01*
X156266414Y-109768951D01*
X156854503Y-109987572D01*
X157106000Y-109818495D01*
X157106000Y-108404000D01*
X157114000Y-108404000D01*
X157114000Y-109818495D01*
X157365497Y-109987572D01*
X157953586Y-109768951D01*
X158413247Y-109341919D01*
X158674500Y-108771489D01*
X158697572Y-108655497D01*
X158528494Y-108404000D01*
X157114000Y-108404000D01*
X157106000Y-108404000D01*
X155691506Y-108404000D01*
X155522428Y-108655497D01*
X149697572Y-108655497D01*
X149528494Y-108404000D01*
X148114000Y-108404000D01*
X148106000Y-108404000D01*
X146691506Y-108404000D01*
X146522428Y-108655497D01*
X127697572Y-108655497D01*
X127528494Y-108404000D01*
X126114000Y-108404000D01*
X126106000Y-108404000D01*
X124691506Y-108404000D01*
X124522428Y-108655497D01*
X117718000Y-108655497D01*
X117718000Y-108193500D01*
X117528500Y-108004000D01*
X116114000Y-108004000D01*
X116106000Y-108004000D01*
X114691500Y-108004000D01*
X114502000Y-108193500D01*
X106718000Y-108193500D01*
X106528500Y-108004000D01*
X105114000Y-108004000D01*
X105106000Y-108004000D01*
X103691500Y-108004000D01*
X103502000Y-108193500D01*
X94718000Y-108193500D01*
X94528500Y-108004000D01*
X93114000Y-108004000D01*
X93106000Y-108004000D01*
X91691500Y-108004000D01*
X91502000Y-108193500D01*
X73325000Y-108193500D01*
X73325000Y-85140000D01*
X90968859Y-85140000D01*
X91128712Y-85943635D01*
X91440327Y-86410000D01*
X91128712Y-86876365D01*
X90968859Y-87680000D01*
X91128712Y-88483635D01*
X91440327Y-88950000D01*
X91128712Y-89416365D01*
X90968859Y-90220000D01*
X91128712Y-91023635D01*
X91440327Y-91490000D01*
X91128712Y-91956365D01*
X90968859Y-92760000D01*
X91128712Y-93563635D01*
X91440327Y-94030000D01*
X91128712Y-94496365D01*
X90968859Y-95300000D01*
X91128712Y-96103635D01*
X91440327Y-96570000D01*
X91128712Y-97036365D01*
X90968859Y-97840000D01*
X91128712Y-98643635D01*
X91440327Y-99110000D01*
X91128712Y-99576365D01*
X90968859Y-100380000D01*
X91128712Y-101183635D01*
X91440327Y-101650000D01*
X91128712Y-102116365D01*
X90968859Y-102920000D01*
X91128712Y-103723635D01*
X91440327Y-104190000D01*
X91128712Y-104656365D01*
X90968859Y-105460000D01*
X91128712Y-106263635D01*
X91547240Y-106890006D01*
X91502000Y-106999225D01*
X91502000Y-107806500D01*
X91691500Y-107996000D01*
X93106000Y-107996000D01*
X93106000Y-107976000D01*
X93114000Y-107976000D01*
X93114000Y-107996000D01*
X94528500Y-107996000D01*
X94718000Y-107806500D01*
X94718000Y-106999225D01*
X94672760Y-106890006D01*
X95091288Y-106263635D01*
X95251141Y-105460000D01*
X95091288Y-104656365D01*
X94779673Y-104190000D01*
X95091288Y-103723635D01*
X95251141Y-102920000D01*
X95091288Y-102116365D01*
X94779673Y-101650000D01*
X95091288Y-101183635D01*
X95251141Y-100380000D01*
X95091288Y-99576365D01*
X94779673Y-99110000D01*
X95091288Y-98643635D01*
X95251141Y-97840000D01*
X95091288Y-97036365D01*
X94779673Y-96570000D01*
X95091288Y-96103635D01*
X95251141Y-95300000D01*
X95091288Y-94496365D01*
X94779673Y-94030000D01*
X95091288Y-93563635D01*
X95251141Y-92760000D01*
X95091288Y-91956365D01*
X94779673Y-91490000D01*
X95091288Y-91023635D01*
X95251141Y-90220000D01*
X95091288Y-89416365D01*
X94779673Y-88950000D01*
X95091288Y-88483635D01*
X95251141Y-87680000D01*
X95091288Y-86876365D01*
X94779673Y-86410000D01*
X95091288Y-85943635D01*
X95251141Y-85140000D01*
X102968859Y-85140000D01*
X103128712Y-85943635D01*
X103440327Y-86410000D01*
X103128712Y-86876365D01*
X102968859Y-87680000D01*
X103128712Y-88483635D01*
X103440327Y-88950000D01*
X103128712Y-89416365D01*
X102968859Y-90220000D01*
X103128712Y-91023635D01*
X103440327Y-91490000D01*
X103128712Y-91956365D01*
X102968859Y-92760000D01*
X103128712Y-93563635D01*
X103440327Y-94030000D01*
X103128712Y-94496365D01*
X102968859Y-95300000D01*
X103128712Y-96103635D01*
X103440327Y-96570000D01*
X103128712Y-97036365D01*
X102968859Y-97840000D01*
X103128712Y-98643635D01*
X103440327Y-99110000D01*
X103128712Y-99576365D01*
X102968859Y-100380000D01*
X103128712Y-101183635D01*
X103440327Y-101650000D01*
X103128712Y-102116365D01*
X102968859Y-102920000D01*
X103128712Y-103723635D01*
X103440327Y-104190000D01*
X103128712Y-104656365D01*
X102968859Y-105460000D01*
X103128712Y-106263635D01*
X103547240Y-106890006D01*
X103502000Y-106999225D01*
X103502000Y-107806500D01*
X103691500Y-107996000D01*
X105106000Y-107996000D01*
X105106000Y-107976000D01*
X105114000Y-107976000D01*
X105114000Y-107996000D01*
X106528500Y-107996000D01*
X106718000Y-107806500D01*
X106718000Y-106999225D01*
X106672760Y-106890006D01*
X107091288Y-106263635D01*
X107251141Y-105460000D01*
X107091288Y-104656365D01*
X106779673Y-104190000D01*
X107091288Y-103723635D01*
X107251141Y-102920000D01*
X107091288Y-102116365D01*
X106779673Y-101650000D01*
X107091288Y-101183635D01*
X107251141Y-100380000D01*
X107091288Y-99576365D01*
X106779673Y-99110000D01*
X107091288Y-98643635D01*
X107251141Y-97840000D01*
X107091288Y-97036365D01*
X106779673Y-96570000D01*
X107091288Y-96103635D01*
X107251141Y-95300000D01*
X107091288Y-94496365D01*
X106779673Y-94030000D01*
X107091288Y-93563635D01*
X107251141Y-92760000D01*
X107091288Y-91956365D01*
X106779673Y-91490000D01*
X107091288Y-91023635D01*
X107251141Y-90220000D01*
X107091288Y-89416365D01*
X106779673Y-88950000D01*
X107091288Y-88483635D01*
X107251141Y-87680000D01*
X107091288Y-86876365D01*
X106779673Y-86410000D01*
X107091288Y-85943635D01*
X107251141Y-85140000D01*
X113968859Y-85140000D01*
X114128712Y-85943635D01*
X114440327Y-86410000D01*
X114128712Y-86876365D01*
X113968859Y-87680000D01*
X114128712Y-88483635D01*
X114440327Y-88950000D01*
X114128712Y-89416365D01*
X113968859Y-90220000D01*
X114128712Y-91023635D01*
X114440327Y-91490000D01*
X114128712Y-91956365D01*
X113968859Y-92760000D01*
X114128712Y-93563635D01*
X114440327Y-94030000D01*
X114128712Y-94496365D01*
X113968859Y-95300000D01*
X114128712Y-96103635D01*
X114440327Y-96570000D01*
X114128712Y-97036365D01*
X113968859Y-97840000D01*
X114128712Y-98643635D01*
X114440327Y-99110000D01*
X114128712Y-99576365D01*
X113968859Y-100380000D01*
X114128712Y-101183635D01*
X114440327Y-101650000D01*
X114128712Y-102116365D01*
X113968859Y-102920000D01*
X114128712Y-103723635D01*
X114440327Y-104190000D01*
X114128712Y-104656365D01*
X113968859Y-105460000D01*
X114128712Y-106263635D01*
X114547240Y-106890006D01*
X114502000Y-106999225D01*
X114502000Y-107806500D01*
X114691500Y-107996000D01*
X116106000Y-107996000D01*
X116106000Y-107976000D01*
X116114000Y-107976000D01*
X116114000Y-107996000D01*
X117528500Y-107996000D01*
X117718000Y-107806500D01*
X117718000Y-106999225D01*
X117672760Y-106890006D01*
X118091288Y-106263635D01*
X118251141Y-105460000D01*
X118091288Y-104656365D01*
X117779673Y-104190000D01*
X118091288Y-103723635D01*
X118251141Y-102920000D01*
X118091288Y-102116365D01*
X117779673Y-101650000D01*
X118091288Y-101183635D01*
X118251141Y-100380000D01*
X118091288Y-99576365D01*
X117779673Y-99110000D01*
X118091288Y-98643635D01*
X118251141Y-97840000D01*
X118091288Y-97036365D01*
X117779673Y-96570000D01*
X118091288Y-96103635D01*
X118251141Y-95300000D01*
X118091288Y-94496365D01*
X117779673Y-94030000D01*
X118091288Y-93563635D01*
X118251141Y-92760000D01*
X118091288Y-91956365D01*
X117779673Y-91490000D01*
X118091288Y-91023635D01*
X118251141Y-90220000D01*
X118091288Y-89416365D01*
X117779673Y-88950000D01*
X118091288Y-88483635D01*
X118251141Y-87680000D01*
X118091288Y-86876365D01*
X117779673Y-86410000D01*
X118091288Y-85943635D01*
X118171576Y-85540000D01*
X123968859Y-85540000D01*
X124128712Y-86343635D01*
X124440327Y-86810000D01*
X124128712Y-87276365D01*
X123968859Y-88080000D01*
X124128712Y-88883635D01*
X124440327Y-89350000D01*
X124128712Y-89816365D01*
X123968859Y-90620000D01*
X124128712Y-91423635D01*
X124440327Y-91890000D01*
X124128712Y-92356365D01*
X123968859Y-93160000D01*
X124128712Y-93963635D01*
X124440327Y-94430000D01*
X124128712Y-94896365D01*
X123968859Y-95700000D01*
X124128712Y-96503635D01*
X124440327Y-96970000D01*
X124128712Y-97436365D01*
X123968859Y-98240000D01*
X124128712Y-99043635D01*
X124440327Y-99510000D01*
X124128712Y-99976365D01*
X123968859Y-100780000D01*
X124128712Y-101583635D01*
X124440327Y-102050000D01*
X124128712Y-102516365D01*
X123968859Y-103320000D01*
X124128712Y-104123635D01*
X124440327Y-104590000D01*
X124128712Y-105056365D01*
X123968859Y-105860000D01*
X124128712Y-106663635D01*
X124583935Y-107344924D01*
X124794225Y-107485435D01*
X124545500Y-108028511D01*
X124522428Y-108144503D01*
X124691506Y-108396000D01*
X126106000Y-108396000D01*
X126106000Y-108376000D01*
X126114000Y-108376000D01*
X126114000Y-108396000D01*
X127528494Y-108396000D01*
X127697572Y-108144503D01*
X127674500Y-108028511D01*
X127425775Y-107485435D01*
X127636065Y-107344924D01*
X128091288Y-106663635D01*
X128251141Y-105860000D01*
X128091288Y-105056365D01*
X127779673Y-104590000D01*
X128091288Y-104123635D01*
X128251141Y-103320000D01*
X128091288Y-102516365D01*
X127779673Y-102050000D01*
X128091288Y-101583635D01*
X128251141Y-100780000D01*
X128091288Y-99976365D01*
X127779673Y-99510000D01*
X128091288Y-99043635D01*
X128251141Y-98240000D01*
X128091288Y-97436365D01*
X127779673Y-96970000D01*
X128091288Y-96503635D01*
X128251141Y-95700000D01*
X128091288Y-94896365D01*
X127779673Y-94430000D01*
X128091288Y-93963635D01*
X128251141Y-93160000D01*
X128123838Y-92520000D01*
X133581992Y-92520000D01*
X133742880Y-93328840D01*
X134051017Y-93790000D01*
X133742880Y-94251160D01*
X133581992Y-95060000D01*
X133742880Y-95868840D01*
X134051017Y-96330000D01*
X133742880Y-96791160D01*
X133581992Y-97600000D01*
X133742880Y-98408840D01*
X134201051Y-99094541D01*
X134886752Y-99552712D01*
X135695592Y-99713600D01*
X135778408Y-99713600D01*
X136587248Y-99552712D01*
X137272949Y-99094541D01*
X137378681Y-98936302D01*
X137426308Y-98980547D01*
X138019376Y-99201005D01*
X138273000Y-99032095D01*
X138273000Y-97604000D01*
X138281000Y-97604000D01*
X138281000Y-99032095D01*
X138534624Y-99201005D01*
X139127692Y-98980547D01*
X139591249Y-98549913D01*
X139854724Y-97974664D01*
X139878005Y-97857624D01*
X139709094Y-97604000D01*
X138281000Y-97604000D01*
X138273000Y-97604000D01*
X138253000Y-97604000D01*
X138253000Y-97596000D01*
X138273000Y-97596000D01*
X138273000Y-97576000D01*
X138281000Y-97576000D01*
X138281000Y-97596000D01*
X139709094Y-97596000D01*
X139878005Y-97342376D01*
X139854724Y-97225336D01*
X139609692Y-96690353D01*
X139812949Y-96554541D01*
X140271120Y-95868840D01*
X140432008Y-95060000D01*
X140271120Y-94251160D01*
X139962983Y-93790000D01*
X140271120Y-93328840D01*
X140432008Y-92520000D01*
X140271120Y-91711160D01*
X139812949Y-91025459D01*
X139127248Y-90567288D01*
X138318408Y-90406400D01*
X138235592Y-90406400D01*
X137426752Y-90567288D01*
X137007000Y-90847757D01*
X136587248Y-90567288D01*
X135778408Y-90406400D01*
X135695592Y-90406400D01*
X134886752Y-90567288D01*
X134201051Y-91025459D01*
X133742880Y-91711160D01*
X133581992Y-92520000D01*
X128123838Y-92520000D01*
X128091288Y-92356365D01*
X127779673Y-91890000D01*
X128091288Y-91423635D01*
X128251141Y-90620000D01*
X128091288Y-89816365D01*
X127779673Y-89350000D01*
X128091288Y-88883635D01*
X128251141Y-88080000D01*
X128236106Y-88004413D01*
X135299506Y-88004413D01*
X135732479Y-89052286D01*
X136533497Y-89854704D01*
X137580613Y-90289504D01*
X138714413Y-90290494D01*
X139762286Y-89857521D01*
X140564704Y-89056503D01*
X140999504Y-88009387D01*
X141000494Y-86875587D01*
X140567521Y-85827714D01*
X140280309Y-85540000D01*
X145968859Y-85540000D01*
X146128712Y-86343635D01*
X146440327Y-86810000D01*
X146128712Y-87276365D01*
X145968859Y-88080000D01*
X146128712Y-88883635D01*
X146440327Y-89350000D01*
X146128712Y-89816365D01*
X145968859Y-90620000D01*
X146128712Y-91423635D01*
X146440327Y-91890000D01*
X146128712Y-92356365D01*
X145968859Y-93160000D01*
X146128712Y-93963635D01*
X146440327Y-94430000D01*
X146128712Y-94896365D01*
X145968859Y-95700000D01*
X146128712Y-96503635D01*
X146440327Y-96970000D01*
X146128712Y-97436365D01*
X145968859Y-98240000D01*
X146128712Y-99043635D01*
X146440327Y-99510000D01*
X146128712Y-99976365D01*
X145968859Y-100780000D01*
X146128712Y-101583635D01*
X146440327Y-102050000D01*
X146128712Y-102516365D01*
X145968859Y-103320000D01*
X146128712Y-104123635D01*
X146440327Y-104590000D01*
X146128712Y-105056365D01*
X145968859Y-105860000D01*
X146128712Y-106663635D01*
X146583935Y-107344924D01*
X146794225Y-107485435D01*
X146545500Y-108028511D01*
X146522428Y-108144503D01*
X146691506Y-108396000D01*
X148106000Y-108396000D01*
X148106000Y-108376000D01*
X148114000Y-108376000D01*
X148114000Y-108396000D01*
X149528494Y-108396000D01*
X149697572Y-108144503D01*
X149674500Y-108028511D01*
X149425775Y-107485435D01*
X149636065Y-107344924D01*
X150091288Y-106663635D01*
X150251141Y-105860000D01*
X150091288Y-105056365D01*
X149779673Y-104590000D01*
X150091288Y-104123635D01*
X150251141Y-103320000D01*
X150091288Y-102516365D01*
X149779673Y-102050000D01*
X150091288Y-101583635D01*
X150251141Y-100780000D01*
X150091288Y-99976365D01*
X149779673Y-99510000D01*
X150091288Y-99043635D01*
X150251141Y-98240000D01*
X150091288Y-97436365D01*
X149779673Y-96970000D01*
X150091288Y-96503635D01*
X150251141Y-95700000D01*
X150091288Y-94896365D01*
X149779673Y-94430000D01*
X150091288Y-93963635D01*
X150251141Y-93160000D01*
X150091288Y-92356365D01*
X149779673Y-91890000D01*
X150091288Y-91423635D01*
X150251141Y-90620000D01*
X150091288Y-89816365D01*
X149779673Y-89350000D01*
X150091288Y-88883635D01*
X150251141Y-88080000D01*
X150091288Y-87276365D01*
X149779673Y-86810000D01*
X150091288Y-86343635D01*
X150251141Y-85540000D01*
X154968859Y-85540000D01*
X155128712Y-86343635D01*
X155440327Y-86810000D01*
X155128712Y-87276365D01*
X154968859Y-88080000D01*
X155128712Y-88883635D01*
X155440327Y-89350000D01*
X155128712Y-89816365D01*
X154968859Y-90620000D01*
X155128712Y-91423635D01*
X155440327Y-91890000D01*
X155128712Y-92356365D01*
X154968859Y-93160000D01*
X155128712Y-93963635D01*
X155440327Y-94430000D01*
X155128712Y-94896365D01*
X154968859Y-95700000D01*
X155128712Y-96503635D01*
X155440327Y-96970000D01*
X155128712Y-97436365D01*
X154968859Y-98240000D01*
X155128712Y-99043635D01*
X155440327Y-99510000D01*
X155128712Y-99976365D01*
X154968859Y-100780000D01*
X155128712Y-101583635D01*
X155440327Y-102050000D01*
X155128712Y-102516365D01*
X154968859Y-103320000D01*
X155128712Y-104123635D01*
X155440327Y-104590000D01*
X155128712Y-105056365D01*
X154968859Y-105860000D01*
X155128712Y-106663635D01*
X155583935Y-107344924D01*
X155794225Y-107485435D01*
X155545500Y-108028511D01*
X155522428Y-108144503D01*
X155691506Y-108396000D01*
X157106000Y-108396000D01*
X157106000Y-108376000D01*
X157114000Y-108376000D01*
X157114000Y-108396000D01*
X158528494Y-108396000D01*
X158697572Y-108144503D01*
X158674500Y-108028511D01*
X158425775Y-107485435D01*
X158636065Y-107344924D01*
X159091288Y-106663635D01*
X159251141Y-105860000D01*
X159091288Y-105056365D01*
X158779673Y-104590000D01*
X159091288Y-104123635D01*
X159251141Y-103320000D01*
X159091288Y-102516365D01*
X158779673Y-102050000D01*
X159091288Y-101583635D01*
X159251141Y-100780000D01*
X159091288Y-99976365D01*
X158779673Y-99510000D01*
X159091288Y-99043635D01*
X159251141Y-98240000D01*
X159091288Y-97436365D01*
X158779673Y-96970000D01*
X159091288Y-96503635D01*
X159251141Y-95700000D01*
X159091288Y-94896365D01*
X158779673Y-94430000D01*
X159091288Y-93963635D01*
X159251141Y-93160000D01*
X159091288Y-92356365D01*
X158779673Y-91890000D01*
X159091288Y-91423635D01*
X159251141Y-90620000D01*
X159091288Y-89816365D01*
X158779673Y-89350000D01*
X159091288Y-88883635D01*
X159251141Y-88080000D01*
X159091288Y-87276365D01*
X158779673Y-86810000D01*
X159091288Y-86343635D01*
X159251141Y-85540000D01*
X159091288Y-84736365D01*
X158672760Y-84109994D01*
X158718000Y-84000775D01*
X158718000Y-83193500D01*
X158528500Y-83004000D01*
X157114000Y-83004000D01*
X157114000Y-83024000D01*
X157106000Y-83024000D01*
X157106000Y-83004000D01*
X155691500Y-83004000D01*
X155502000Y-83193500D01*
X155502000Y-84000775D01*
X155547240Y-84109994D01*
X155128712Y-84736365D01*
X154968859Y-85540000D01*
X150251141Y-85540000D01*
X150091288Y-84736365D01*
X149672760Y-84109994D01*
X149718000Y-84000775D01*
X149718000Y-83193500D01*
X149528500Y-83004000D01*
X148114000Y-83004000D01*
X148114000Y-83024000D01*
X148106000Y-83024000D01*
X148106000Y-83004000D01*
X146691500Y-83004000D01*
X146502000Y-83193500D01*
X146502000Y-84000775D01*
X146547240Y-84109994D01*
X146128712Y-84736365D01*
X145968859Y-85540000D01*
X140280309Y-85540000D01*
X139766503Y-85025296D01*
X138719387Y-84590496D01*
X137585587Y-84589506D01*
X136537714Y-85022479D01*
X135735296Y-85823497D01*
X135300496Y-86870613D01*
X135299506Y-88004413D01*
X128236106Y-88004413D01*
X128091288Y-87276365D01*
X127779673Y-86810000D01*
X128091288Y-86343635D01*
X128251141Y-85540000D01*
X128091288Y-84736365D01*
X127672760Y-84109994D01*
X127718000Y-84000775D01*
X127718000Y-83193500D01*
X127528500Y-83004000D01*
X126114000Y-83004000D01*
X126114000Y-83024000D01*
X126106000Y-83024000D01*
X126106000Y-83004000D01*
X124691500Y-83004000D01*
X124502000Y-83193500D01*
X124502000Y-84000775D01*
X124547240Y-84109994D01*
X124128712Y-84736365D01*
X123968859Y-85540000D01*
X118171576Y-85540000D01*
X118251141Y-85140000D01*
X118091288Y-84336365D01*
X117636065Y-83655076D01*
X117425775Y-83514565D01*
X117674500Y-82971489D01*
X117697572Y-82855497D01*
X117528494Y-82604000D01*
X116114000Y-82604000D01*
X116114000Y-82624000D01*
X116106000Y-82624000D01*
X116106000Y-82604000D01*
X114691506Y-82604000D01*
X114522428Y-82855497D01*
X114545500Y-82971489D01*
X114794225Y-83514565D01*
X114583935Y-83655076D01*
X114128712Y-84336365D01*
X113968859Y-85140000D01*
X107251141Y-85140000D01*
X107091288Y-84336365D01*
X106636065Y-83655076D01*
X106425775Y-83514565D01*
X106674500Y-82971489D01*
X106697572Y-82855497D01*
X106528494Y-82604000D01*
X105114000Y-82604000D01*
X105114000Y-82624000D01*
X105106000Y-82624000D01*
X105106000Y-82604000D01*
X103691506Y-82604000D01*
X103522428Y-82855497D01*
X103545500Y-82971489D01*
X103794225Y-83514565D01*
X103583935Y-83655076D01*
X103128712Y-84336365D01*
X102968859Y-85140000D01*
X95251141Y-85140000D01*
X95091288Y-84336365D01*
X94636065Y-83655076D01*
X94425775Y-83514565D01*
X94674500Y-82971489D01*
X94697572Y-82855497D01*
X94528494Y-82604000D01*
X93114000Y-82604000D01*
X93114000Y-82624000D01*
X93106000Y-82624000D01*
X93106000Y-82604000D01*
X91691506Y-82604000D01*
X91522428Y-82855497D01*
X91545500Y-82971489D01*
X91794225Y-83514565D01*
X91583935Y-83655076D01*
X91128712Y-84336365D01*
X90968859Y-85140000D01*
X73325000Y-85140000D01*
X73325000Y-82344503D01*
X91522428Y-82344503D01*
X91691506Y-82596000D01*
X93106000Y-82596000D01*
X93106000Y-81181505D01*
X93114000Y-81181505D01*
X93114000Y-82596000D01*
X94528494Y-82596000D01*
X94697572Y-82344503D01*
X103522428Y-82344503D01*
X103691506Y-82596000D01*
X105106000Y-82596000D01*
X105106000Y-81181505D01*
X105114000Y-81181505D01*
X105114000Y-82596000D01*
X106528494Y-82596000D01*
X106697572Y-82344503D01*
X114522428Y-82344503D01*
X114691506Y-82596000D01*
X116106000Y-82596000D01*
X116106000Y-81181505D01*
X116114000Y-81181505D01*
X116114000Y-82596000D01*
X117528494Y-82596000D01*
X117697572Y-82344503D01*
X117674500Y-82228511D01*
X117569489Y-81999225D01*
X124502000Y-81999225D01*
X124502000Y-82806500D01*
X124691500Y-82996000D01*
X126106000Y-82996000D01*
X126106000Y-81581500D01*
X126114000Y-81581500D01*
X126114000Y-82996000D01*
X127528500Y-82996000D01*
X127718000Y-82806500D01*
X127718000Y-81999225D01*
X146502000Y-81999225D01*
X146502000Y-82806500D01*
X146691500Y-82996000D01*
X148106000Y-82996000D01*
X148106000Y-81581500D01*
X148114000Y-81581500D01*
X148114000Y-82996000D01*
X149528500Y-82996000D01*
X149718000Y-82806500D01*
X149718000Y-81999225D01*
X155502000Y-81999225D01*
X155502000Y-82806500D01*
X155691500Y-82996000D01*
X157106000Y-82996000D01*
X157106000Y-81581500D01*
X157114000Y-81581500D01*
X157114000Y-82996000D01*
X158528500Y-82996000D01*
X158718000Y-82806500D01*
X158718000Y-81999225D01*
X158602602Y-81720628D01*
X158389373Y-81507399D01*
X158110776Y-81392000D01*
X157303500Y-81392000D01*
X157114000Y-81581500D01*
X157106000Y-81581500D01*
X156916500Y-81392000D01*
X156109224Y-81392000D01*
X155830627Y-81507399D01*
X155617398Y-81720628D01*
X155502000Y-81999225D01*
X149718000Y-81999225D01*
X149602602Y-81720628D01*
X149389373Y-81507399D01*
X149110776Y-81392000D01*
X148303500Y-81392000D01*
X148114000Y-81581500D01*
X148106000Y-81581500D01*
X147916500Y-81392000D01*
X147109224Y-81392000D01*
X146830627Y-81507399D01*
X146617398Y-81720628D01*
X146502000Y-81999225D01*
X127718000Y-81999225D01*
X127602602Y-81720628D01*
X127389373Y-81507399D01*
X127110776Y-81392000D01*
X126303500Y-81392000D01*
X126114000Y-81581500D01*
X126106000Y-81581500D01*
X125916500Y-81392000D01*
X125109224Y-81392000D01*
X124830627Y-81507399D01*
X124617398Y-81720628D01*
X124502000Y-81999225D01*
X117569489Y-81999225D01*
X117413247Y-81658081D01*
X116953586Y-81231049D01*
X116365497Y-81012428D01*
X116114000Y-81181505D01*
X116106000Y-81181505D01*
X115854503Y-81012428D01*
X115266414Y-81231049D01*
X114806753Y-81658081D01*
X114545500Y-82228511D01*
X114522428Y-82344503D01*
X106697572Y-82344503D01*
X106674500Y-82228511D01*
X106413247Y-81658081D01*
X105953586Y-81231049D01*
X105365497Y-81012428D01*
X105114000Y-81181505D01*
X105106000Y-81181505D01*
X104854503Y-81012428D01*
X104266414Y-81231049D01*
X103806753Y-81658081D01*
X103545500Y-82228511D01*
X103522428Y-82344503D01*
X94697572Y-82344503D01*
X94674500Y-82228511D01*
X94413247Y-81658081D01*
X93953586Y-81231049D01*
X93365497Y-81012428D01*
X93114000Y-81181505D01*
X93106000Y-81181505D01*
X92854503Y-81012428D01*
X92266414Y-81231049D01*
X91806753Y-81658081D01*
X91545500Y-82228511D01*
X91522428Y-82344503D01*
X73325000Y-82344503D01*
X73325000Y-72764413D01*
X84499506Y-72764413D01*
X84932479Y-73812286D01*
X85733497Y-74614704D01*
X86780613Y-75049504D01*
X87914413Y-75050494D01*
X88962286Y-74617521D01*
X89679650Y-73901409D01*
X90055752Y-74152712D01*
X90864592Y-74313600D01*
X90947408Y-74313600D01*
X91756248Y-74152712D01*
X92176000Y-73872243D01*
X92595752Y-74152712D01*
X93404592Y-74313600D01*
X93487408Y-74313600D01*
X94296248Y-74152712D01*
X94716000Y-73872243D01*
X95135752Y-74152712D01*
X95944592Y-74313600D01*
X96027408Y-74313600D01*
X96836248Y-74152712D01*
X97521949Y-73694541D01*
X97627681Y-73536302D01*
X97675308Y-73580547D01*
X98268376Y-73801005D01*
X98522000Y-73632095D01*
X98522000Y-72204000D01*
X98502000Y-72204000D01*
X98502000Y-72196000D01*
X98522000Y-72196000D01*
X98522000Y-70767905D01*
X98530000Y-70767905D01*
X98530000Y-72196000D01*
X98550000Y-72196000D01*
X98550000Y-72204000D01*
X98530000Y-72204000D01*
X98530000Y-73632095D01*
X98783624Y-73801005D01*
X99376692Y-73580547D01*
X99424319Y-73536302D01*
X99530051Y-73694541D01*
X100215752Y-74152712D01*
X101024592Y-74313600D01*
X101107408Y-74313600D01*
X101916248Y-74152712D01*
X102336000Y-73872243D01*
X102755752Y-74152712D01*
X103564592Y-74313600D01*
X103647408Y-74313600D01*
X104456248Y-74152712D01*
X104876000Y-73872243D01*
X105295752Y-74152712D01*
X106104592Y-74313600D01*
X106187408Y-74313600D01*
X106996248Y-74152712D01*
X107416000Y-73872243D01*
X107835752Y-74152712D01*
X108644592Y-74313600D01*
X108727408Y-74313600D01*
X109536248Y-74152712D01*
X109956000Y-73872243D01*
X110375752Y-74152712D01*
X111184592Y-74313600D01*
X111267408Y-74313600D01*
X112076248Y-74152712D01*
X112496000Y-73872243D01*
X112915752Y-74152712D01*
X113724592Y-74313600D01*
X113807408Y-74313600D01*
X114616248Y-74152712D01*
X115301949Y-73694541D01*
X115760120Y-73008840D01*
X115798000Y-72818404D01*
X115835880Y-73008840D01*
X116294051Y-73694541D01*
X116979752Y-74152712D01*
X117788592Y-74313600D01*
X117871408Y-74313600D01*
X118680248Y-74152712D01*
X119100000Y-73872243D01*
X119519752Y-74152712D01*
X120328592Y-74313600D01*
X120411408Y-74313600D01*
X121220248Y-74152712D01*
X121640000Y-73872243D01*
X122059752Y-74152712D01*
X122868592Y-74313600D01*
X122951408Y-74313600D01*
X123760248Y-74152712D01*
X124180000Y-73872243D01*
X124599752Y-74152712D01*
X125408592Y-74313600D01*
X125491408Y-74313600D01*
X126300248Y-74152712D01*
X126720000Y-73872243D01*
X127139752Y-74152712D01*
X127948592Y-74313600D01*
X128031408Y-74313600D01*
X128840248Y-74152712D01*
X129260000Y-73872243D01*
X129679752Y-74152712D01*
X130488592Y-74313600D01*
X130571408Y-74313600D01*
X131380248Y-74152712D01*
X131800000Y-73872243D01*
X132219752Y-74152712D01*
X133028592Y-74313600D01*
X133111408Y-74313600D01*
X133920248Y-74152712D01*
X134340000Y-73872243D01*
X134759752Y-74152712D01*
X135568592Y-74313600D01*
X135651408Y-74313600D01*
X136460248Y-74152712D01*
X137145949Y-73694541D01*
X137604120Y-73008840D01*
X137765008Y-72200000D01*
X138534992Y-72200000D01*
X138695880Y-73008840D01*
X139154051Y-73694541D01*
X139839752Y-74152712D01*
X140648592Y-74313600D01*
X140731408Y-74313600D01*
X141540248Y-74152712D01*
X141960000Y-73872243D01*
X142379752Y-74152712D01*
X143188592Y-74313600D01*
X143271408Y-74313600D01*
X144080248Y-74152712D01*
X144500000Y-73872243D01*
X144919752Y-74152712D01*
X145728592Y-74313600D01*
X145811408Y-74313600D01*
X146620248Y-74152712D01*
X147040000Y-73872243D01*
X147459752Y-74152712D01*
X148268592Y-74313600D01*
X148351408Y-74313600D01*
X149160248Y-74152712D01*
X149580000Y-73872243D01*
X149999752Y-74152712D01*
X150808592Y-74313600D01*
X150891408Y-74313600D01*
X151700248Y-74152712D01*
X152120000Y-73872243D01*
X152539752Y-74152712D01*
X153348592Y-74313600D01*
X153431408Y-74313600D01*
X154240248Y-74152712D01*
X154660000Y-73872243D01*
X155079752Y-74152712D01*
X155888592Y-74313600D01*
X155971408Y-74313600D01*
X156780248Y-74152712D01*
X157200000Y-73872243D01*
X157619752Y-74152712D01*
X158428592Y-74313600D01*
X158511408Y-74313600D01*
X159320248Y-74152712D01*
X159855394Y-73795139D01*
X159862479Y-73812286D01*
X160663497Y-74614704D01*
X161710613Y-75049504D01*
X162844413Y-75050494D01*
X163892286Y-74617521D01*
X163975972Y-74533981D01*
X163934992Y-74740000D01*
X164095880Y-75548840D01*
X164404017Y-76010000D01*
X164095880Y-76471160D01*
X163934992Y-77280000D01*
X164095880Y-78088840D01*
X164404017Y-78550000D01*
X164095880Y-79011160D01*
X163934992Y-79820000D01*
X164095880Y-80628840D01*
X164404017Y-81090000D01*
X164095880Y-81551160D01*
X163934992Y-82360000D01*
X164095880Y-83168840D01*
X164404017Y-83630000D01*
X164095880Y-84091160D01*
X163934992Y-84900000D01*
X164095880Y-85708840D01*
X164404017Y-86170000D01*
X164095880Y-86631160D01*
X163934992Y-87440000D01*
X164095880Y-88248840D01*
X164404017Y-88710000D01*
X164095880Y-89171160D01*
X163934992Y-89980000D01*
X164095880Y-90788840D01*
X164404017Y-91250000D01*
X164095880Y-91711160D01*
X163934992Y-92520000D01*
X164095880Y-93328840D01*
X164404017Y-93790000D01*
X164095880Y-94251160D01*
X163934992Y-95060000D01*
X164095880Y-95868840D01*
X164404017Y-96330000D01*
X164095880Y-96791160D01*
X163934992Y-97600000D01*
X164095880Y-98408840D01*
X164404017Y-98870000D01*
X164095880Y-99331160D01*
X163934992Y-100140000D01*
X164095880Y-100948840D01*
X164404017Y-101410000D01*
X164095880Y-101871160D01*
X163934992Y-102680000D01*
X164095880Y-103488840D01*
X164404017Y-103950000D01*
X164095880Y-104411160D01*
X163934992Y-105220000D01*
X164095880Y-106028840D01*
X164404017Y-106490000D01*
X164095880Y-106951160D01*
X163934992Y-107760000D01*
X164095880Y-108568840D01*
X164404017Y-109030000D01*
X164095880Y-109491160D01*
X163934992Y-110300000D01*
X164095880Y-111108840D01*
X164404017Y-111570000D01*
X164095880Y-112031160D01*
X163934992Y-112840000D01*
X164095880Y-113648840D01*
X164554051Y-114334541D01*
X164757308Y-114470353D01*
X164512276Y-115005336D01*
X164488995Y-115122376D01*
X164657906Y-115376000D01*
X166086000Y-115376000D01*
X166086000Y-115356000D01*
X166094000Y-115356000D01*
X166094000Y-115376000D01*
X168626000Y-115376000D01*
X168626000Y-115356000D01*
X168634000Y-115356000D01*
X168634000Y-115376000D01*
X170062094Y-115376000D01*
X170231005Y-115122376D01*
X170207724Y-115005336D01*
X169962692Y-114470353D01*
X170165949Y-114334541D01*
X170624120Y-113648840D01*
X170785008Y-112840000D01*
X170624120Y-112031160D01*
X170315983Y-111570000D01*
X170624120Y-111108840D01*
X170785008Y-110300000D01*
X170624120Y-109491160D01*
X170315983Y-109030000D01*
X170624120Y-108568840D01*
X170785008Y-107760000D01*
X170624120Y-106951160D01*
X170315983Y-106490000D01*
X170624120Y-106028840D01*
X170785008Y-105220000D01*
X170624120Y-104411160D01*
X170315983Y-103950000D01*
X170624120Y-103488840D01*
X170785008Y-102680000D01*
X170624120Y-101871160D01*
X170315983Y-101410000D01*
X170624120Y-100948840D01*
X170785008Y-100140000D01*
X170624120Y-99331160D01*
X170315983Y-98870000D01*
X170624120Y-98408840D01*
X170785008Y-97600000D01*
X170624120Y-96791160D01*
X170315983Y-96330000D01*
X170624120Y-95868840D01*
X170785008Y-95060000D01*
X170624120Y-94251160D01*
X170315983Y-93790000D01*
X170624120Y-93328840D01*
X170785008Y-92520000D01*
X170624120Y-91711160D01*
X170315983Y-91250000D01*
X170624120Y-90788840D01*
X170785008Y-89980000D01*
X170624120Y-89171160D01*
X170315983Y-88710000D01*
X170624120Y-88248840D01*
X170785008Y-87440000D01*
X170624120Y-86631160D01*
X170315983Y-86170000D01*
X170624120Y-85708840D01*
X170785008Y-84900000D01*
X170624120Y-84091160D01*
X170315983Y-83630000D01*
X170624120Y-83168840D01*
X170785008Y-82360000D01*
X170624120Y-81551160D01*
X170315983Y-81090000D01*
X170624120Y-80628840D01*
X170785008Y-79820000D01*
X170624120Y-79011160D01*
X170315983Y-78550000D01*
X170624120Y-78088840D01*
X170785008Y-77280000D01*
X170624120Y-76471160D01*
X170315983Y-76010000D01*
X170624120Y-75548840D01*
X170785008Y-74740000D01*
X170624120Y-73931160D01*
X170315983Y-73470000D01*
X170624120Y-73008840D01*
X170785008Y-72200000D01*
X170624120Y-71391160D01*
X170165949Y-70705459D01*
X169480248Y-70247288D01*
X168671408Y-70086400D01*
X168588592Y-70086400D01*
X167779752Y-70247288D01*
X167360000Y-70527757D01*
X166940248Y-70247288D01*
X166131408Y-70086400D01*
X166048592Y-70086400D01*
X165239752Y-70247288D01*
X164704606Y-70604861D01*
X164697521Y-70587714D01*
X163896503Y-69785296D01*
X162849387Y-69350496D01*
X161715587Y-69349506D01*
X160667714Y-69782479D01*
X159865296Y-70583497D01*
X159856201Y-70605400D01*
X159320248Y-70247288D01*
X158511408Y-70086400D01*
X158428592Y-70086400D01*
X157619752Y-70247288D01*
X157200000Y-70527757D01*
X156780248Y-70247288D01*
X155971408Y-70086400D01*
X155888592Y-70086400D01*
X155079752Y-70247288D01*
X154660000Y-70527757D01*
X154240248Y-70247288D01*
X153431408Y-70086400D01*
X153348592Y-70086400D01*
X152539752Y-70247288D01*
X152120000Y-70527757D01*
X151700248Y-70247288D01*
X150891408Y-70086400D01*
X150808592Y-70086400D01*
X149999752Y-70247288D01*
X149580000Y-70527757D01*
X149160248Y-70247288D01*
X148351408Y-70086400D01*
X148268592Y-70086400D01*
X147459752Y-70247288D01*
X147040000Y-70527757D01*
X146620248Y-70247288D01*
X145811408Y-70086400D01*
X145728592Y-70086400D01*
X144919752Y-70247288D01*
X144500000Y-70527757D01*
X144080248Y-70247288D01*
X143271408Y-70086400D01*
X143188592Y-70086400D01*
X142379752Y-70247288D01*
X141960000Y-70527757D01*
X141540248Y-70247288D01*
X140731408Y-70086400D01*
X140648592Y-70086400D01*
X139839752Y-70247288D01*
X139154051Y-70705459D01*
X138695880Y-71391160D01*
X138534992Y-72200000D01*
X137765008Y-72200000D01*
X137604120Y-71391160D01*
X137145949Y-70705459D01*
X136460248Y-70247288D01*
X135651408Y-70086400D01*
X135568592Y-70086400D01*
X134759752Y-70247288D01*
X134340000Y-70527757D01*
X133920248Y-70247288D01*
X133111408Y-70086400D01*
X133028592Y-70086400D01*
X132219752Y-70247288D01*
X131800000Y-70527757D01*
X131380248Y-70247288D01*
X130571408Y-70086400D01*
X130488592Y-70086400D01*
X129679752Y-70247288D01*
X129260000Y-70527757D01*
X128840248Y-70247288D01*
X128031408Y-70086400D01*
X127948592Y-70086400D01*
X127139752Y-70247288D01*
X126720000Y-70527757D01*
X126300248Y-70247288D01*
X125491408Y-70086400D01*
X125408592Y-70086400D01*
X124599752Y-70247288D01*
X124180000Y-70527757D01*
X123760248Y-70247288D01*
X122951408Y-70086400D01*
X122868592Y-70086400D01*
X122059752Y-70247288D01*
X121640000Y-70527757D01*
X121220248Y-70247288D01*
X120411408Y-70086400D01*
X120328592Y-70086400D01*
X119519752Y-70247288D01*
X119100000Y-70527757D01*
X118680248Y-70247288D01*
X117871408Y-70086400D01*
X117788592Y-70086400D01*
X116979752Y-70247288D01*
X116294051Y-70705459D01*
X115835880Y-71391160D01*
X115798000Y-71581596D01*
X115760120Y-71391160D01*
X115301949Y-70705459D01*
X114616248Y-70247288D01*
X113807408Y-70086400D01*
X113724592Y-70086400D01*
X112915752Y-70247288D01*
X112496000Y-70527757D01*
X112076248Y-70247288D01*
X111267408Y-70086400D01*
X111184592Y-70086400D01*
X110375752Y-70247288D01*
X109956000Y-70527757D01*
X109536248Y-70247288D01*
X108727408Y-70086400D01*
X108644592Y-70086400D01*
X107835752Y-70247288D01*
X107416000Y-70527757D01*
X106996248Y-70247288D01*
X106187408Y-70086400D01*
X106104592Y-70086400D01*
X105295752Y-70247288D01*
X104876000Y-70527757D01*
X104456248Y-70247288D01*
X103647408Y-70086400D01*
X103564592Y-70086400D01*
X102755752Y-70247288D01*
X102336000Y-70527757D01*
X101916248Y-70247288D01*
X101107408Y-70086400D01*
X101024592Y-70086400D01*
X100215752Y-70247288D01*
X99530051Y-70705459D01*
X99424319Y-70863698D01*
X99376692Y-70819453D01*
X98783624Y-70598995D01*
X98530000Y-70767905D01*
X98522000Y-70767905D01*
X98268376Y-70598995D01*
X97675308Y-70819453D01*
X97627681Y-70863698D01*
X97521949Y-70705459D01*
X96836248Y-70247288D01*
X96027408Y-70086400D01*
X95944592Y-70086400D01*
X95135752Y-70247288D01*
X94716000Y-70527757D01*
X94296248Y-70247288D01*
X93487408Y-70086400D01*
X93404592Y-70086400D01*
X92595752Y-70247288D01*
X92176000Y-70527757D01*
X91756248Y-70247288D01*
X90947408Y-70086400D01*
X90864592Y-70086400D01*
X90055752Y-70247288D01*
X89678993Y-70499031D01*
X88966503Y-69785296D01*
X87919387Y-69350496D01*
X86785587Y-69349506D01*
X85737714Y-69782479D01*
X84935296Y-70583497D01*
X84500496Y-71630613D01*
X84499506Y-72764413D01*
X73325000Y-72764413D01*
X73325000Y-53925736D01*
X73819051Y-55121429D01*
X74873022Y-56177242D01*
X76250806Y-56749348D01*
X77742649Y-56750650D01*
X79121429Y-56180949D01*
X80177242Y-55126978D01*
X80311561Y-54803500D01*
X126012000Y-54803500D01*
X126012000Y-56260775D01*
X126127398Y-56539372D01*
X126340627Y-56752601D01*
X126619224Y-56868000D01*
X128076500Y-56868000D01*
X128266000Y-56678500D01*
X128266000Y-54614000D01*
X128274000Y-54614000D01*
X128274000Y-56678500D01*
X128463500Y-56868000D01*
X129920776Y-56868000D01*
X130199373Y-56752601D01*
X130412602Y-56539372D01*
X130528000Y-56260775D01*
X130528000Y-56106756D01*
X131858901Y-56106756D01*
X132000016Y-56474897D01*
X132816443Y-56849556D01*
X133714099Y-56883263D01*
X134556324Y-56570886D01*
X134699984Y-56474897D01*
X134841099Y-56106756D01*
X133350000Y-54615657D01*
X131858901Y-56106756D01*
X130528000Y-56106756D01*
X130528000Y-54974099D01*
X131076737Y-54974099D01*
X131389114Y-55816324D01*
X131485103Y-55959984D01*
X131853244Y-56101099D01*
X133344343Y-54610000D01*
X133355657Y-54610000D01*
X134846756Y-56101099D01*
X135214897Y-55959984D01*
X135584484Y-55154609D01*
X135679523Y-55154609D01*
X136097304Y-56165715D01*
X136870216Y-56939977D01*
X137880591Y-57359522D01*
X138974609Y-57360477D01*
X139985715Y-56942696D01*
X140759977Y-56169784D01*
X140969998Y-55663997D01*
X141177304Y-56165715D01*
X141950216Y-56939977D01*
X142960591Y-57359522D01*
X144054609Y-57360477D01*
X145065715Y-56942696D01*
X145839977Y-56169784D01*
X146259522Y-55159409D01*
X146260477Y-54065391D01*
X145842696Y-53054285D01*
X145069784Y-52280023D01*
X144059409Y-51860478D01*
X142965391Y-51859523D01*
X141954285Y-52277304D01*
X141180023Y-53050216D01*
X140970002Y-53556003D01*
X140762696Y-53054285D01*
X139989784Y-52280023D01*
X138979409Y-51860478D01*
X137885391Y-51859523D01*
X136874285Y-52277304D01*
X136100023Y-53050216D01*
X135680478Y-54060591D01*
X135679523Y-55154609D01*
X135584484Y-55154609D01*
X135589556Y-55143557D01*
X135623263Y-54245901D01*
X135310886Y-53403676D01*
X135214897Y-53260016D01*
X134846756Y-53118901D01*
X133355657Y-54610000D01*
X133344343Y-54610000D01*
X131853244Y-53118901D01*
X131485103Y-53260016D01*
X131110444Y-54076443D01*
X131076737Y-54974099D01*
X130528000Y-54974099D01*
X130528000Y-54803500D01*
X130338500Y-54614000D01*
X128274000Y-54614000D01*
X128266000Y-54614000D01*
X126201500Y-54614000D01*
X126012000Y-54803500D01*
X80311561Y-54803500D01*
X80749348Y-53749194D01*
X80750037Y-52959225D01*
X126012000Y-52959225D01*
X126012000Y-54416500D01*
X126201500Y-54606000D01*
X128266000Y-54606000D01*
X128266000Y-52541500D01*
X128274000Y-52541500D01*
X128274000Y-54606000D01*
X130338500Y-54606000D01*
X130528000Y-54416500D01*
X130528000Y-53113244D01*
X131858901Y-53113244D01*
X133350000Y-54604343D01*
X134841099Y-53113244D01*
X134699984Y-52745103D01*
X133883557Y-52370444D01*
X132985901Y-52336737D01*
X132143676Y-52649114D01*
X132000016Y-52745103D01*
X131858901Y-53113244D01*
X130528000Y-53113244D01*
X130528000Y-52959225D01*
X130412602Y-52680628D01*
X130199373Y-52467399D01*
X129920776Y-52352000D01*
X128463500Y-52352000D01*
X128274000Y-52541500D01*
X128266000Y-52541500D01*
X128076500Y-52352000D01*
X126619224Y-52352000D01*
X126340627Y-52467399D01*
X126127398Y-52680628D01*
X126012000Y-52959225D01*
X80750037Y-52959225D01*
X80750650Y-52257351D01*
X80180949Y-50878571D01*
X79126978Y-49822758D01*
X77928244Y-49325000D01*
X182074264Y-49325000D01*
X180878571Y-49819051D01*
X180878571Y-49819051D01*
G37*
X180878571Y-49819051D02*
X179822758Y-50873022D01*
X179250652Y-52250806D01*
X179249350Y-53742649D01*
X179819051Y-55121429D01*
X180873022Y-56177242D01*
X182250806Y-56749348D01*
X183742649Y-56750650D01*
X185121429Y-56180949D01*
X186177242Y-55126978D01*
X186675000Y-53928244D01*
X186675000Y-142074264D01*
X186180949Y-140878571D01*
X185126978Y-139822758D01*
X183749194Y-139250652D01*
X182257351Y-139249350D01*
X180878571Y-139819051D01*
X179822758Y-140873022D01*
X179250652Y-142250806D01*
X179249350Y-143742649D01*
X179819051Y-145121429D01*
X180873022Y-146177242D01*
X182071756Y-146675000D01*
X77925736Y-146675000D01*
X79121429Y-146180949D01*
X80177242Y-145126978D01*
X80749348Y-143749194D01*
X80750650Y-142257351D01*
X80180949Y-140878571D01*
X79126978Y-139822758D01*
X77749194Y-139250652D01*
X76257351Y-139249350D01*
X74878571Y-139819051D01*
X73822758Y-140873022D01*
X73325000Y-142071756D01*
X73325000Y-127420000D01*
X84235512Y-127420000D01*
X84235512Y-129120000D01*
X84317442Y-129555420D01*
X84235512Y-129960000D01*
X84235512Y-131660000D01*
X84317442Y-132095420D01*
X84235512Y-132500000D01*
X84235512Y-134200000D01*
X84317442Y-134635420D01*
X84235512Y-135040000D01*
X84235512Y-136740000D01*
X84317442Y-137175420D01*
X84235512Y-137580000D01*
X84235512Y-139280000D01*
X84317442Y-139715420D01*
X84235512Y-140120000D01*
X84235512Y-141820000D01*
X84322673Y-142283222D01*
X84596437Y-142708663D01*
X85014153Y-142994076D01*
X85510000Y-143094488D01*
X87210000Y-143094488D01*
X87645420Y-143012558D01*
X88050000Y-143094488D01*
X89750000Y-143094488D01*
X90185420Y-143012558D01*
X90590000Y-143094488D01*
X92290000Y-143094488D01*
X92725420Y-143012558D01*
X93130000Y-143094488D01*
X94830000Y-143094488D01*
X95265420Y-143012558D01*
X95670000Y-143094488D01*
X97370000Y-143094488D01*
X97805420Y-143012558D01*
X98210000Y-143094488D01*
X99910000Y-143094488D01*
X100345420Y-143012558D01*
X100750000Y-143094488D01*
X102450000Y-143094488D01*
X102885420Y-143012558D01*
X103290000Y-143094488D01*
X104990000Y-143094488D01*
X105425420Y-143012558D01*
X105830000Y-143094488D01*
X107530000Y-143094488D01*
X107965420Y-143012558D01*
X108370000Y-143094488D01*
X110070000Y-143094488D01*
X110505420Y-143012558D01*
X110910000Y-143094488D01*
X112610000Y-143094488D01*
X113045420Y-143012558D01*
X113450000Y-143094488D01*
X115150000Y-143094488D01*
X115585420Y-143012558D01*
X115990000Y-143094488D01*
X117690000Y-143094488D01*
X118125420Y-143012558D01*
X118530000Y-143094488D01*
X120230000Y-143094488D01*
X120665420Y-143012558D01*
X121070000Y-143094488D01*
X122770000Y-143094488D01*
X123205420Y-143012558D01*
X123610000Y-143094488D01*
X125310000Y-143094488D01*
X125745420Y-143012558D01*
X126150000Y-143094488D01*
X127850000Y-143094488D01*
X128285420Y-143012558D01*
X128690000Y-143094488D01*
X130390000Y-143094488D01*
X130825420Y-143012558D01*
X131230000Y-143094488D01*
X132930000Y-143094488D01*
X133365420Y-143012558D01*
X133770000Y-143094488D01*
X135470000Y-143094488D01*
X135905420Y-143012558D01*
X136310000Y-143094488D01*
X138010000Y-143094488D01*
X138473222Y-143007327D01*
X138898663Y-142733563D01*
X139184076Y-142315847D01*
X139284488Y-141820000D01*
X139284488Y-140120000D01*
X139202558Y-139684580D01*
X139284488Y-139280000D01*
X139284488Y-137580000D01*
X139202558Y-137144580D01*
X139284488Y-136740000D01*
X139284488Y-135040000D01*
X139202558Y-134604580D01*
X139284488Y-134200000D01*
X139284488Y-132500000D01*
X139202558Y-132064580D01*
X139284488Y-131660000D01*
X139284488Y-129960000D01*
X139202558Y-129524580D01*
X139284488Y-129120000D01*
X139284488Y-127420000D01*
X139197327Y-126956778D01*
X138923563Y-126531337D01*
X138505847Y-126245924D01*
X138010000Y-126145512D01*
X136310000Y-126145512D01*
X135874580Y-126227442D01*
X135470000Y-126145512D01*
X133770000Y-126145512D01*
X133334580Y-126227442D01*
X132930000Y-126145512D01*
X131230000Y-126145512D01*
X130794580Y-126227442D01*
X130390000Y-126145512D01*
X128690000Y-126145512D01*
X128254580Y-126227442D01*
X127850000Y-126145512D01*
X126150000Y-126145512D01*
X125714580Y-126227442D01*
X125310000Y-126145512D01*
X123610000Y-126145512D01*
X123174580Y-126227442D01*
X122770000Y-126145512D01*
X121070000Y-126145512D01*
X120634580Y-126227442D01*
X120230000Y-126145512D01*
X118530000Y-126145512D01*
X118094580Y-126227442D01*
X117690000Y-126145512D01*
X115990000Y-126145512D01*
X115554580Y-126227442D01*
X115150000Y-126145512D01*
X113450000Y-126145512D01*
X113014580Y-126227442D01*
X112610000Y-126145512D01*
X110910000Y-126145512D01*
X110474580Y-126227442D01*
X110070000Y-126145512D01*
X108370000Y-126145512D01*
X107934580Y-126227442D01*
X107530000Y-126145512D01*
X105830000Y-126145512D01*
X105394580Y-126227442D01*
X104990000Y-126145512D01*
X103290000Y-126145512D01*
X102854580Y-126227442D01*
X102450000Y-126145512D01*
X100750000Y-126145512D01*
X100314580Y-126227442D01*
X99910000Y-126145512D01*
X98210000Y-126145512D01*
X97774580Y-126227442D01*
X97370000Y-126145512D01*
X95670000Y-126145512D01*
X95234580Y-126227442D01*
X94830000Y-126145512D01*
X93130000Y-126145512D01*
X92694580Y-126227442D01*
X92290000Y-126145512D01*
X90590000Y-126145512D01*
X90154580Y-126227442D01*
X89750000Y-126145512D01*
X88050000Y-126145512D01*
X87614580Y-126227442D01*
X87210000Y-126145512D01*
X85510000Y-126145512D01*
X85046778Y-126232673D01*
X84621337Y-126506437D01*
X84335924Y-126924153D01*
X84235512Y-127420000D01*
X73325000Y-127420000D01*
X73325000Y-121024413D01*
X83229506Y-121024413D01*
X83662479Y-122072286D01*
X84463497Y-122874704D01*
X85510613Y-123309504D01*
X86644413Y-123310494D01*
X87692286Y-122877521D01*
X88494704Y-122076503D01*
X88929504Y-121029387D01*
X88930001Y-120460000D01*
X97894992Y-120460000D01*
X98055880Y-121268840D01*
X98514051Y-121954541D01*
X99199752Y-122412712D01*
X100008592Y-122573600D01*
X100091408Y-122573600D01*
X100900248Y-122412712D01*
X101320000Y-122132243D01*
X101739752Y-122412712D01*
X102548592Y-122573600D01*
X102631408Y-122573600D01*
X103440248Y-122412712D01*
X103860000Y-122132243D01*
X104279752Y-122412712D01*
X105088592Y-122573600D01*
X105171408Y-122573600D01*
X105980248Y-122412712D01*
X106400000Y-122132243D01*
X106819752Y-122412712D01*
X107628592Y-122573600D01*
X107711408Y-122573600D01*
X108520248Y-122412712D01*
X108940000Y-122132243D01*
X109359752Y-122412712D01*
X110168592Y-122573600D01*
X110251408Y-122573600D01*
X111060248Y-122412712D01*
X111745949Y-121954541D01*
X111851681Y-121796302D01*
X111899308Y-121840547D01*
X112492376Y-122061005D01*
X112746000Y-121892095D01*
X112746000Y-120464000D01*
X112754000Y-120464000D01*
X112754000Y-121892095D01*
X113007624Y-122061005D01*
X113600692Y-121840547D01*
X114020000Y-121451019D01*
X114439308Y-121840547D01*
X115032376Y-122061005D01*
X115286000Y-121892095D01*
X115286000Y-120464000D01*
X112754000Y-120464000D01*
X112746000Y-120464000D01*
X112726000Y-120464000D01*
X112726000Y-120456000D01*
X112746000Y-120456000D01*
X112746000Y-119027905D01*
X112754000Y-119027905D01*
X112754000Y-120456000D01*
X115286000Y-120456000D01*
X115286000Y-119027905D01*
X115294000Y-119027905D01*
X115294000Y-120456000D01*
X115314000Y-120456000D01*
X115314000Y-120464000D01*
X115294000Y-120464000D01*
X115294000Y-121892095D01*
X115547624Y-122061005D01*
X116140692Y-121840547D01*
X116188319Y-121796302D01*
X116294051Y-121954541D01*
X116979752Y-122412712D01*
X117788592Y-122573600D01*
X117871408Y-122573600D01*
X118680248Y-122412712D01*
X119365949Y-121954541D01*
X119824120Y-121268840D01*
X119985008Y-120460000D01*
X120754992Y-120460000D01*
X120915880Y-121268840D01*
X121374051Y-121954541D01*
X122059752Y-122412712D01*
X122868592Y-122573600D01*
X122951408Y-122573600D01*
X123760248Y-122412712D01*
X124180000Y-122132243D01*
X124599752Y-122412712D01*
X125408592Y-122573600D01*
X125491408Y-122573600D01*
X126300248Y-122412712D01*
X126720000Y-122132243D01*
X127139752Y-122412712D01*
X127948592Y-122573600D01*
X128031408Y-122573600D01*
X128840248Y-122412712D01*
X129260000Y-122132243D01*
X129679752Y-122412712D01*
X130488592Y-122573600D01*
X130571408Y-122573600D01*
X131380248Y-122412712D01*
X131800000Y-122132243D01*
X132219752Y-122412712D01*
X133028592Y-122573600D01*
X133111408Y-122573600D01*
X133920248Y-122412712D01*
X134340000Y-122132243D01*
X134759752Y-122412712D01*
X135568592Y-122573600D01*
X135651408Y-122573600D01*
X136460248Y-122412712D01*
X136880000Y-122132243D01*
X137299752Y-122412712D01*
X138108592Y-122573600D01*
X138191408Y-122573600D01*
X139000248Y-122412712D01*
X139420000Y-122132243D01*
X139839752Y-122412712D01*
X140648592Y-122573600D01*
X140731408Y-122573600D01*
X141540248Y-122412712D01*
X142225949Y-121954541D01*
X142684120Y-121268840D01*
X142845008Y-120460000D01*
X143614992Y-120460000D01*
X143775880Y-121268840D01*
X144234051Y-121954541D01*
X144919752Y-122412712D01*
X145728592Y-122573600D01*
X145811408Y-122573600D01*
X146620248Y-122412712D01*
X147040000Y-122132243D01*
X147459752Y-122412712D01*
X148268592Y-122573600D01*
X148351408Y-122573600D01*
X149160248Y-122412712D01*
X149580000Y-122132243D01*
X149999752Y-122412712D01*
X150808592Y-122573600D01*
X150891408Y-122573600D01*
X151700248Y-122412712D01*
X152120000Y-122132243D01*
X152539752Y-122412712D01*
X153348592Y-122573600D01*
X153431408Y-122573600D01*
X154240248Y-122412712D01*
X154660000Y-122132243D01*
X155079752Y-122412712D01*
X155888592Y-122573600D01*
X155971408Y-122573600D01*
X156780248Y-122412712D01*
X157200000Y-122132243D01*
X157619752Y-122412712D01*
X158428592Y-122573600D01*
X158511408Y-122573600D01*
X159320248Y-122412712D01*
X159740000Y-122132243D01*
X160159752Y-122412712D01*
X160968592Y-122573600D01*
X161051408Y-122573600D01*
X161860248Y-122412712D01*
X162280000Y-122132243D01*
X162699752Y-122412712D01*
X163508592Y-122573600D01*
X163591408Y-122573600D01*
X164400248Y-122412712D01*
X165085949Y-121954541D01*
X165544120Y-121268840D01*
X165592739Y-121024413D01*
X165779506Y-121024413D01*
X166212479Y-122072286D01*
X167013497Y-122874704D01*
X168060613Y-123309504D01*
X169194413Y-123310494D01*
X170242286Y-122877521D01*
X171044704Y-122076503D01*
X171479504Y-121029387D01*
X171480494Y-119895587D01*
X171047521Y-118847714D01*
X170246503Y-118045296D01*
X169199387Y-117610496D01*
X168065587Y-117609506D01*
X167017714Y-118042479D01*
X166215296Y-118843497D01*
X165780496Y-119890613D01*
X165779506Y-121024413D01*
X165592739Y-121024413D01*
X165705008Y-120460000D01*
X165544120Y-119651160D01*
X165085949Y-118965459D01*
X164400248Y-118507288D01*
X163591408Y-118346400D01*
X163508592Y-118346400D01*
X162699752Y-118507288D01*
X162280000Y-118787757D01*
X161860248Y-118507288D01*
X161051408Y-118346400D01*
X160968592Y-118346400D01*
X160159752Y-118507288D01*
X159740000Y-118787757D01*
X159320248Y-118507288D01*
X158511408Y-118346400D01*
X158428592Y-118346400D01*
X157619752Y-118507288D01*
X157200000Y-118787757D01*
X156780248Y-118507288D01*
X155971408Y-118346400D01*
X155888592Y-118346400D01*
X155079752Y-118507288D01*
X154660000Y-118787757D01*
X154240248Y-118507288D01*
X153431408Y-118346400D01*
X153348592Y-118346400D01*
X152539752Y-118507288D01*
X152120000Y-118787757D01*
X151700248Y-118507288D01*
X150891408Y-118346400D01*
X150808592Y-118346400D01*
X149999752Y-118507288D01*
X149580000Y-118787757D01*
X149160248Y-118507288D01*
X148351408Y-118346400D01*
X148268592Y-118346400D01*
X147459752Y-118507288D01*
X147040000Y-118787757D01*
X146620248Y-118507288D01*
X145811408Y-118346400D01*
X145728592Y-118346400D01*
X144919752Y-118507288D01*
X144234051Y-118965459D01*
X143775880Y-119651160D01*
X143614992Y-120460000D01*
X142845008Y-120460000D01*
X142684120Y-119651160D01*
X142225949Y-118965459D01*
X141540248Y-118507288D01*
X140731408Y-118346400D01*
X140648592Y-118346400D01*
X139839752Y-118507288D01*
X139420000Y-118787757D01*
X139000248Y-118507288D01*
X138191408Y-118346400D01*
X138108592Y-118346400D01*
X137299752Y-118507288D01*
X136880000Y-118787757D01*
X136460248Y-118507288D01*
X135651408Y-118346400D01*
X135568592Y-118346400D01*
X134759752Y-118507288D01*
X134340000Y-118787757D01*
X133920248Y-118507288D01*
X133111408Y-118346400D01*
X133028592Y-118346400D01*
X132219752Y-118507288D01*
X131800000Y-118787757D01*
X131380248Y-118507288D01*
X130571408Y-118346400D01*
X130488592Y-118346400D01*
X129679752Y-118507288D01*
X129260000Y-118787757D01*
X128840248Y-118507288D01*
X128031408Y-118346400D01*
X127948592Y-118346400D01*
X127139752Y-118507288D01*
X126720000Y-118787757D01*
X126300248Y-118507288D01*
X125491408Y-118346400D01*
X125408592Y-118346400D01*
X124599752Y-118507288D01*
X124180000Y-118787757D01*
X123760248Y-118507288D01*
X122951408Y-118346400D01*
X122868592Y-118346400D01*
X122059752Y-118507288D01*
X121374051Y-118965459D01*
X120915880Y-119651160D01*
X120754992Y-120460000D01*
X119985008Y-120460000D01*
X119824120Y-119651160D01*
X119365949Y-118965459D01*
X118680248Y-118507288D01*
X117871408Y-118346400D01*
X117788592Y-118346400D01*
X116979752Y-118507288D01*
X116294051Y-118965459D01*
X116188319Y-119123698D01*
X116140692Y-119079453D01*
X115547624Y-118858995D01*
X115294000Y-119027905D01*
X115286000Y-119027905D01*
X115032376Y-118858995D01*
X114439308Y-119079453D01*
X114020000Y-119468981D01*
X113600692Y-119079453D01*
X113007624Y-118858995D01*
X112754000Y-119027905D01*
X112746000Y-119027905D01*
X112492376Y-118858995D01*
X111899308Y-119079453D01*
X111851681Y-119123698D01*
X111745949Y-118965459D01*
X111060248Y-118507288D01*
X110251408Y-118346400D01*
X110168592Y-118346400D01*
X109359752Y-118507288D01*
X108940000Y-118787757D01*
X108520248Y-118507288D01*
X107711408Y-118346400D01*
X107628592Y-118346400D01*
X106819752Y-118507288D01*
X106400000Y-118787757D01*
X105980248Y-118507288D01*
X105171408Y-118346400D01*
X105088592Y-118346400D01*
X104279752Y-118507288D01*
X103860000Y-118787757D01*
X103440248Y-118507288D01*
X102631408Y-118346400D01*
X102548592Y-118346400D01*
X101739752Y-118507288D01*
X101320000Y-118787757D01*
X100900248Y-118507288D01*
X100091408Y-118346400D01*
X100008592Y-118346400D01*
X99199752Y-118507288D01*
X98514051Y-118965459D01*
X98055880Y-119651160D01*
X97894992Y-120460000D01*
X88930001Y-120460000D01*
X88930494Y-119895587D01*
X88497521Y-118847714D01*
X87696503Y-118045296D01*
X86649387Y-117610496D01*
X85515587Y-117609506D01*
X84467714Y-118042479D01*
X83665296Y-118843497D01*
X83230496Y-119890613D01*
X83229506Y-121024413D01*
X73325000Y-121024413D01*
X73325000Y-115944413D01*
X135299506Y-115944413D01*
X135732479Y-116992286D01*
X136533497Y-117794704D01*
X137580613Y-118229504D01*
X138714413Y-118230494D01*
X139762286Y-117797521D01*
X140564704Y-116996503D01*
X140999504Y-115949387D01*
X140999776Y-115637624D01*
X164488995Y-115637624D01*
X164512276Y-115754664D01*
X164775751Y-116329913D01*
X165239308Y-116760547D01*
X165832376Y-116981005D01*
X166086000Y-116812095D01*
X166086000Y-115384000D01*
X166094000Y-115384000D01*
X166094000Y-116812095D01*
X166347624Y-116981005D01*
X166940692Y-116760547D01*
X167360000Y-116371019D01*
X167779308Y-116760547D01*
X168372376Y-116981005D01*
X168626000Y-116812095D01*
X168626000Y-115384000D01*
X168634000Y-115384000D01*
X168634000Y-116812095D01*
X168887624Y-116981005D01*
X169480692Y-116760547D01*
X169944249Y-116329913D01*
X170207724Y-115754664D01*
X170231005Y-115637624D01*
X170062094Y-115384000D01*
X168634000Y-115384000D01*
X168626000Y-115384000D01*
X166094000Y-115384000D01*
X166086000Y-115384000D01*
X164657906Y-115384000D01*
X164488995Y-115637624D01*
X140999776Y-115637624D01*
X141000494Y-114815587D01*
X140567521Y-113767714D01*
X139766503Y-112965296D01*
X138719387Y-112530496D01*
X137585587Y-112529506D01*
X136537714Y-112962479D01*
X135735296Y-113763497D01*
X135300496Y-114810613D01*
X135299506Y-115944413D01*
X73325000Y-115944413D01*
X73325000Y-108193500D01*
X91502000Y-108193500D01*
X91502000Y-109000775D01*
X91617398Y-109279372D01*
X91830627Y-109492601D01*
X92109224Y-109608000D01*
X92916500Y-109608000D01*
X93106000Y-109418500D01*
X93106000Y-108004000D01*
X93114000Y-108004000D01*
X93114000Y-109418500D01*
X93303500Y-109608000D01*
X94110776Y-109608000D01*
X94389373Y-109492601D01*
X94602602Y-109279372D01*
X94718000Y-109000775D01*
X94718000Y-108193500D01*
X103502000Y-108193500D01*
X103502000Y-109000775D01*
X103617398Y-109279372D01*
X103830627Y-109492601D01*
X104109224Y-109608000D01*
X104916500Y-109608000D01*
X105106000Y-109418500D01*
X105106000Y-108004000D01*
X105114000Y-108004000D01*
X105114000Y-109418500D01*
X105303500Y-109608000D01*
X106110776Y-109608000D01*
X106389373Y-109492601D01*
X106602602Y-109279372D01*
X106718000Y-109000775D01*
X106718000Y-108193500D01*
X114502000Y-108193500D01*
X114502000Y-109000775D01*
X114617398Y-109279372D01*
X114830627Y-109492601D01*
X115109224Y-109608000D01*
X115916500Y-109608000D01*
X116106000Y-109418500D01*
X116106000Y-108004000D01*
X116114000Y-108004000D01*
X116114000Y-109418500D01*
X116303500Y-109608000D01*
X117110776Y-109608000D01*
X117389373Y-109492601D01*
X117602602Y-109279372D01*
X117718000Y-109000775D01*
X117718000Y-108655497D01*
X124522428Y-108655497D01*
X124545500Y-108771489D01*
X124806753Y-109341919D01*
X125266414Y-109768951D01*
X125854503Y-109987572D01*
X126106000Y-109818495D01*
X126106000Y-108404000D01*
X126114000Y-108404000D01*
X126114000Y-109818495D01*
X126365497Y-109987572D01*
X126953586Y-109768951D01*
X127413247Y-109341919D01*
X127674500Y-108771489D01*
X127697572Y-108655497D01*
X146522428Y-108655497D01*
X146545500Y-108771489D01*
X146806753Y-109341919D01*
X147266414Y-109768951D01*
X147854503Y-109987572D01*
X148106000Y-109818495D01*
X148106000Y-108404000D01*
X148114000Y-108404000D01*
X148114000Y-109818495D01*
X148365497Y-109987572D01*
X148953586Y-109768951D01*
X149413247Y-109341919D01*
X149674500Y-108771489D01*
X149697572Y-108655497D01*
X155522428Y-108655497D01*
X155545500Y-108771489D01*
X155806753Y-109341919D01*
X156266414Y-109768951D01*
X156854503Y-109987572D01*
X157106000Y-109818495D01*
X157106000Y-108404000D01*
X157114000Y-108404000D01*
X157114000Y-109818495D01*
X157365497Y-109987572D01*
X157953586Y-109768951D01*
X158413247Y-109341919D01*
X158674500Y-108771489D01*
X158697572Y-108655497D01*
X158528494Y-108404000D01*
X157114000Y-108404000D01*
X157106000Y-108404000D01*
X155691506Y-108404000D01*
X155522428Y-108655497D01*
X149697572Y-108655497D01*
X149528494Y-108404000D01*
X148114000Y-108404000D01*
X148106000Y-108404000D01*
X146691506Y-108404000D01*
X146522428Y-108655497D01*
X127697572Y-108655497D01*
X127528494Y-108404000D01*
X126114000Y-108404000D01*
X126106000Y-108404000D01*
X124691506Y-108404000D01*
X124522428Y-108655497D01*
X117718000Y-108655497D01*
X117718000Y-108193500D01*
X117528500Y-108004000D01*
X116114000Y-108004000D01*
X116106000Y-108004000D01*
X114691500Y-108004000D01*
X114502000Y-108193500D01*
X106718000Y-108193500D01*
X106528500Y-108004000D01*
X105114000Y-108004000D01*
X105106000Y-108004000D01*
X103691500Y-108004000D01*
X103502000Y-108193500D01*
X94718000Y-108193500D01*
X94528500Y-108004000D01*
X93114000Y-108004000D01*
X93106000Y-108004000D01*
X91691500Y-108004000D01*
X91502000Y-108193500D01*
X73325000Y-108193500D01*
X73325000Y-85140000D01*
X90968859Y-85140000D01*
X91128712Y-85943635D01*
X91440327Y-86410000D01*
X91128712Y-86876365D01*
X90968859Y-87680000D01*
X91128712Y-88483635D01*
X91440327Y-88950000D01*
X91128712Y-89416365D01*
X90968859Y-90220000D01*
X91128712Y-91023635D01*
X91440327Y-91490000D01*
X91128712Y-91956365D01*
X90968859Y-92760000D01*
X91128712Y-93563635D01*
X91440327Y-94030000D01*
X91128712Y-94496365D01*
X90968859Y-95300000D01*
X91128712Y-96103635D01*
X91440327Y-96570000D01*
X91128712Y-97036365D01*
X90968859Y-97840000D01*
X91128712Y-98643635D01*
X91440327Y-99110000D01*
X91128712Y-99576365D01*
X90968859Y-100380000D01*
X91128712Y-101183635D01*
X91440327Y-101650000D01*
X91128712Y-102116365D01*
X90968859Y-102920000D01*
X91128712Y-103723635D01*
X91440327Y-104190000D01*
X91128712Y-104656365D01*
X90968859Y-105460000D01*
X91128712Y-106263635D01*
X91547240Y-106890006D01*
X91502000Y-106999225D01*
X91502000Y-107806500D01*
X91691500Y-107996000D01*
X93106000Y-107996000D01*
X93106000Y-107976000D01*
X93114000Y-107976000D01*
X93114000Y-107996000D01*
X94528500Y-107996000D01*
X94718000Y-107806500D01*
X94718000Y-106999225D01*
X94672760Y-106890006D01*
X95091288Y-106263635D01*
X95251141Y-105460000D01*
X95091288Y-104656365D01*
X94779673Y-104190000D01*
X95091288Y-103723635D01*
X95251141Y-102920000D01*
X95091288Y-102116365D01*
X94779673Y-101650000D01*
X95091288Y-101183635D01*
X95251141Y-100380000D01*
X95091288Y-99576365D01*
X94779673Y-99110000D01*
X95091288Y-98643635D01*
X95251141Y-97840000D01*
X95091288Y-97036365D01*
X94779673Y-96570000D01*
X95091288Y-96103635D01*
X95251141Y-95300000D01*
X95091288Y-94496365D01*
X94779673Y-94030000D01*
X95091288Y-93563635D01*
X95251141Y-92760000D01*
X95091288Y-91956365D01*
X94779673Y-91490000D01*
X95091288Y-91023635D01*
X95251141Y-90220000D01*
X95091288Y-89416365D01*
X94779673Y-88950000D01*
X95091288Y-88483635D01*
X95251141Y-87680000D01*
X95091288Y-86876365D01*
X94779673Y-86410000D01*
X95091288Y-85943635D01*
X95251141Y-85140000D01*
X102968859Y-85140000D01*
X103128712Y-85943635D01*
X103440327Y-86410000D01*
X103128712Y-86876365D01*
X102968859Y-87680000D01*
X103128712Y-88483635D01*
X103440327Y-88950000D01*
X103128712Y-89416365D01*
X102968859Y-90220000D01*
X103128712Y-91023635D01*
X103440327Y-91490000D01*
X103128712Y-91956365D01*
X102968859Y-92760000D01*
X103128712Y-93563635D01*
X103440327Y-94030000D01*
X103128712Y-94496365D01*
X102968859Y-95300000D01*
X103128712Y-96103635D01*
X103440327Y-96570000D01*
X103128712Y-97036365D01*
X102968859Y-97840000D01*
X103128712Y-98643635D01*
X103440327Y-99110000D01*
X103128712Y-99576365D01*
X102968859Y-100380000D01*
X103128712Y-101183635D01*
X103440327Y-101650000D01*
X103128712Y-102116365D01*
X102968859Y-102920000D01*
X103128712Y-103723635D01*
X103440327Y-104190000D01*
X103128712Y-104656365D01*
X102968859Y-105460000D01*
X103128712Y-106263635D01*
X103547240Y-106890006D01*
X103502000Y-106999225D01*
X103502000Y-107806500D01*
X103691500Y-107996000D01*
X105106000Y-107996000D01*
X105106000Y-107976000D01*
X105114000Y-107976000D01*
X105114000Y-107996000D01*
X106528500Y-107996000D01*
X106718000Y-107806500D01*
X106718000Y-106999225D01*
X106672760Y-106890006D01*
X107091288Y-106263635D01*
X107251141Y-105460000D01*
X107091288Y-104656365D01*
X106779673Y-104190000D01*
X107091288Y-103723635D01*
X107251141Y-102920000D01*
X107091288Y-102116365D01*
X106779673Y-101650000D01*
X107091288Y-101183635D01*
X107251141Y-100380000D01*
X107091288Y-99576365D01*
X106779673Y-99110000D01*
X107091288Y-98643635D01*
X107251141Y-97840000D01*
X107091288Y-97036365D01*
X106779673Y-96570000D01*
X107091288Y-96103635D01*
X107251141Y-95300000D01*
X107091288Y-94496365D01*
X106779673Y-94030000D01*
X107091288Y-93563635D01*
X107251141Y-92760000D01*
X107091288Y-91956365D01*
X106779673Y-91490000D01*
X107091288Y-91023635D01*
X107251141Y-90220000D01*
X107091288Y-89416365D01*
X106779673Y-88950000D01*
X107091288Y-88483635D01*
X107251141Y-87680000D01*
X107091288Y-86876365D01*
X106779673Y-86410000D01*
X107091288Y-85943635D01*
X107251141Y-85140000D01*
X113968859Y-85140000D01*
X114128712Y-85943635D01*
X114440327Y-86410000D01*
X114128712Y-86876365D01*
X113968859Y-87680000D01*
X114128712Y-88483635D01*
X114440327Y-88950000D01*
X114128712Y-89416365D01*
X113968859Y-90220000D01*
X114128712Y-91023635D01*
X114440327Y-91490000D01*
X114128712Y-91956365D01*
X113968859Y-92760000D01*
X114128712Y-93563635D01*
X114440327Y-94030000D01*
X114128712Y-94496365D01*
X113968859Y-95300000D01*
X114128712Y-96103635D01*
X114440327Y-96570000D01*
X114128712Y-97036365D01*
X113968859Y-97840000D01*
X114128712Y-98643635D01*
X114440327Y-99110000D01*
X114128712Y-99576365D01*
X113968859Y-100380000D01*
X114128712Y-101183635D01*
X114440327Y-101650000D01*
X114128712Y-102116365D01*
X113968859Y-102920000D01*
X114128712Y-103723635D01*
X114440327Y-104190000D01*
X114128712Y-104656365D01*
X113968859Y-105460000D01*
X114128712Y-106263635D01*
X114547240Y-106890006D01*
X114502000Y-106999225D01*
X114502000Y-107806500D01*
X114691500Y-107996000D01*
X116106000Y-107996000D01*
X116106000Y-107976000D01*
X116114000Y-107976000D01*
X116114000Y-107996000D01*
X117528500Y-107996000D01*
X117718000Y-107806500D01*
X117718000Y-106999225D01*
X117672760Y-106890006D01*
X118091288Y-106263635D01*
X118251141Y-105460000D01*
X118091288Y-104656365D01*
X117779673Y-104190000D01*
X118091288Y-103723635D01*
X118251141Y-102920000D01*
X118091288Y-102116365D01*
X117779673Y-101650000D01*
X118091288Y-101183635D01*
X118251141Y-100380000D01*
X118091288Y-99576365D01*
X117779673Y-99110000D01*
X118091288Y-98643635D01*
X118251141Y-97840000D01*
X118091288Y-97036365D01*
X117779673Y-96570000D01*
X118091288Y-96103635D01*
X118251141Y-95300000D01*
X118091288Y-94496365D01*
X117779673Y-94030000D01*
X118091288Y-93563635D01*
X118251141Y-92760000D01*
X118091288Y-91956365D01*
X117779673Y-91490000D01*
X118091288Y-91023635D01*
X118251141Y-90220000D01*
X118091288Y-89416365D01*
X117779673Y-88950000D01*
X118091288Y-88483635D01*
X118251141Y-87680000D01*
X118091288Y-86876365D01*
X117779673Y-86410000D01*
X118091288Y-85943635D01*
X118171576Y-85540000D01*
X123968859Y-85540000D01*
X124128712Y-86343635D01*
X124440327Y-86810000D01*
X124128712Y-87276365D01*
X123968859Y-88080000D01*
X124128712Y-88883635D01*
X124440327Y-89350000D01*
X124128712Y-89816365D01*
X123968859Y-90620000D01*
X124128712Y-91423635D01*
X124440327Y-91890000D01*
X124128712Y-92356365D01*
X123968859Y-93160000D01*
X124128712Y-93963635D01*
X124440327Y-94430000D01*
X124128712Y-94896365D01*
X123968859Y-95700000D01*
X124128712Y-96503635D01*
X124440327Y-96970000D01*
X124128712Y-97436365D01*
X123968859Y-98240000D01*
X124128712Y-99043635D01*
X124440327Y-99510000D01*
X124128712Y-99976365D01*
X123968859Y-100780000D01*
X124128712Y-101583635D01*
X124440327Y-102050000D01*
X124128712Y-102516365D01*
X123968859Y-103320000D01*
X124128712Y-104123635D01*
X124440327Y-104590000D01*
X124128712Y-105056365D01*
X123968859Y-105860000D01*
X124128712Y-106663635D01*
X124583935Y-107344924D01*
X124794225Y-107485435D01*
X124545500Y-108028511D01*
X124522428Y-108144503D01*
X124691506Y-108396000D01*
X126106000Y-108396000D01*
X126106000Y-108376000D01*
X126114000Y-108376000D01*
X126114000Y-108396000D01*
X127528494Y-108396000D01*
X127697572Y-108144503D01*
X127674500Y-108028511D01*
X127425775Y-107485435D01*
X127636065Y-107344924D01*
X128091288Y-106663635D01*
X128251141Y-105860000D01*
X128091288Y-105056365D01*
X127779673Y-104590000D01*
X128091288Y-104123635D01*
X128251141Y-103320000D01*
X128091288Y-102516365D01*
X127779673Y-102050000D01*
X128091288Y-101583635D01*
X128251141Y-100780000D01*
X128091288Y-99976365D01*
X127779673Y-99510000D01*
X128091288Y-99043635D01*
X128251141Y-98240000D01*
X128091288Y-97436365D01*
X127779673Y-96970000D01*
X128091288Y-96503635D01*
X128251141Y-95700000D01*
X128091288Y-94896365D01*
X127779673Y-94430000D01*
X128091288Y-93963635D01*
X128251141Y-93160000D01*
X128123838Y-92520000D01*
X133581992Y-92520000D01*
X133742880Y-93328840D01*
X134051017Y-93790000D01*
X133742880Y-94251160D01*
X133581992Y-95060000D01*
X133742880Y-95868840D01*
X134051017Y-96330000D01*
X133742880Y-96791160D01*
X133581992Y-97600000D01*
X133742880Y-98408840D01*
X134201051Y-99094541D01*
X134886752Y-99552712D01*
X135695592Y-99713600D01*
X135778408Y-99713600D01*
X136587248Y-99552712D01*
X137272949Y-99094541D01*
X137378681Y-98936302D01*
X137426308Y-98980547D01*
X138019376Y-99201005D01*
X138273000Y-99032095D01*
X138273000Y-97604000D01*
X138281000Y-97604000D01*
X138281000Y-99032095D01*
X138534624Y-99201005D01*
X139127692Y-98980547D01*
X139591249Y-98549913D01*
X139854724Y-97974664D01*
X139878005Y-97857624D01*
X139709094Y-97604000D01*
X138281000Y-97604000D01*
X138273000Y-97604000D01*
X138253000Y-97604000D01*
X138253000Y-97596000D01*
X138273000Y-97596000D01*
X138273000Y-97576000D01*
X138281000Y-97576000D01*
X138281000Y-97596000D01*
X139709094Y-97596000D01*
X139878005Y-97342376D01*
X139854724Y-97225336D01*
X139609692Y-96690353D01*
X139812949Y-96554541D01*
X140271120Y-95868840D01*
X140432008Y-95060000D01*
X140271120Y-94251160D01*
X139962983Y-93790000D01*
X140271120Y-93328840D01*
X140432008Y-92520000D01*
X140271120Y-91711160D01*
X139812949Y-91025459D01*
X139127248Y-90567288D01*
X138318408Y-90406400D01*
X138235592Y-90406400D01*
X137426752Y-90567288D01*
X137007000Y-90847757D01*
X136587248Y-90567288D01*
X135778408Y-90406400D01*
X135695592Y-90406400D01*
X134886752Y-90567288D01*
X134201051Y-91025459D01*
X133742880Y-91711160D01*
X133581992Y-92520000D01*
X128123838Y-92520000D01*
X128091288Y-92356365D01*
X127779673Y-91890000D01*
X128091288Y-91423635D01*
X128251141Y-90620000D01*
X128091288Y-89816365D01*
X127779673Y-89350000D01*
X128091288Y-88883635D01*
X128251141Y-88080000D01*
X128236106Y-88004413D01*
X135299506Y-88004413D01*
X135732479Y-89052286D01*
X136533497Y-89854704D01*
X137580613Y-90289504D01*
X138714413Y-90290494D01*
X139762286Y-89857521D01*
X140564704Y-89056503D01*
X140999504Y-88009387D01*
X141000494Y-86875587D01*
X140567521Y-85827714D01*
X140280309Y-85540000D01*
X145968859Y-85540000D01*
X146128712Y-86343635D01*
X146440327Y-86810000D01*
X146128712Y-87276365D01*
X145968859Y-88080000D01*
X146128712Y-88883635D01*
X146440327Y-89350000D01*
X146128712Y-89816365D01*
X145968859Y-90620000D01*
X146128712Y-91423635D01*
X146440327Y-91890000D01*
X146128712Y-92356365D01*
X145968859Y-93160000D01*
X146128712Y-93963635D01*
X146440327Y-94430000D01*
X146128712Y-94896365D01*
X145968859Y-95700000D01*
X146128712Y-96503635D01*
X146440327Y-96970000D01*
X146128712Y-97436365D01*
X145968859Y-98240000D01*
X146128712Y-99043635D01*
X146440327Y-99510000D01*
X146128712Y-99976365D01*
X145968859Y-100780000D01*
X146128712Y-101583635D01*
X146440327Y-102050000D01*
X146128712Y-102516365D01*
X145968859Y-103320000D01*
X146128712Y-104123635D01*
X146440327Y-104590000D01*
X146128712Y-105056365D01*
X145968859Y-105860000D01*
X146128712Y-106663635D01*
X146583935Y-107344924D01*
X146794225Y-107485435D01*
X146545500Y-108028511D01*
X146522428Y-108144503D01*
X146691506Y-108396000D01*
X148106000Y-108396000D01*
X148106000Y-108376000D01*
X148114000Y-108376000D01*
X148114000Y-108396000D01*
X149528494Y-108396000D01*
X149697572Y-108144503D01*
X149674500Y-108028511D01*
X149425775Y-107485435D01*
X149636065Y-107344924D01*
X150091288Y-106663635D01*
X150251141Y-105860000D01*
X150091288Y-105056365D01*
X149779673Y-104590000D01*
X150091288Y-104123635D01*
X150251141Y-103320000D01*
X150091288Y-102516365D01*
X149779673Y-102050000D01*
X150091288Y-101583635D01*
X150251141Y-100780000D01*
X150091288Y-99976365D01*
X149779673Y-99510000D01*
X150091288Y-99043635D01*
X150251141Y-98240000D01*
X150091288Y-97436365D01*
X149779673Y-96970000D01*
X150091288Y-96503635D01*
X150251141Y-95700000D01*
X150091288Y-94896365D01*
X149779673Y-94430000D01*
X150091288Y-93963635D01*
X150251141Y-93160000D01*
X150091288Y-92356365D01*
X149779673Y-91890000D01*
X150091288Y-91423635D01*
X150251141Y-90620000D01*
X150091288Y-89816365D01*
X149779673Y-89350000D01*
X150091288Y-88883635D01*
X150251141Y-88080000D01*
X150091288Y-87276365D01*
X149779673Y-86810000D01*
X150091288Y-86343635D01*
X150251141Y-85540000D01*
X154968859Y-85540000D01*
X155128712Y-86343635D01*
X155440327Y-86810000D01*
X155128712Y-87276365D01*
X154968859Y-88080000D01*
X155128712Y-88883635D01*
X155440327Y-89350000D01*
X155128712Y-89816365D01*
X154968859Y-90620000D01*
X155128712Y-91423635D01*
X155440327Y-91890000D01*
X155128712Y-92356365D01*
X154968859Y-93160000D01*
X155128712Y-93963635D01*
X155440327Y-94430000D01*
X155128712Y-94896365D01*
X154968859Y-95700000D01*
X155128712Y-96503635D01*
X155440327Y-96970000D01*
X155128712Y-97436365D01*
X154968859Y-98240000D01*
X155128712Y-99043635D01*
X155440327Y-99510000D01*
X155128712Y-99976365D01*
X154968859Y-100780000D01*
X155128712Y-101583635D01*
X155440327Y-102050000D01*
X155128712Y-102516365D01*
X154968859Y-103320000D01*
X155128712Y-104123635D01*
X155440327Y-104590000D01*
X155128712Y-105056365D01*
X154968859Y-105860000D01*
X155128712Y-106663635D01*
X155583935Y-107344924D01*
X155794225Y-107485435D01*
X155545500Y-108028511D01*
X155522428Y-108144503D01*
X155691506Y-108396000D01*
X157106000Y-108396000D01*
X157106000Y-108376000D01*
X157114000Y-108376000D01*
X157114000Y-108396000D01*
X158528494Y-108396000D01*
X158697572Y-108144503D01*
X158674500Y-108028511D01*
X158425775Y-107485435D01*
X158636065Y-107344924D01*
X159091288Y-106663635D01*
X159251141Y-105860000D01*
X159091288Y-105056365D01*
X158779673Y-104590000D01*
X159091288Y-104123635D01*
X159251141Y-103320000D01*
X159091288Y-102516365D01*
X158779673Y-102050000D01*
X159091288Y-101583635D01*
X159251141Y-100780000D01*
X159091288Y-99976365D01*
X158779673Y-99510000D01*
X159091288Y-99043635D01*
X159251141Y-98240000D01*
X159091288Y-97436365D01*
X158779673Y-96970000D01*
X159091288Y-96503635D01*
X159251141Y-95700000D01*
X159091288Y-94896365D01*
X158779673Y-94430000D01*
X159091288Y-93963635D01*
X159251141Y-93160000D01*
X159091288Y-92356365D01*
X158779673Y-91890000D01*
X159091288Y-91423635D01*
X159251141Y-90620000D01*
X159091288Y-89816365D01*
X158779673Y-89350000D01*
X159091288Y-88883635D01*
X159251141Y-88080000D01*
X159091288Y-87276365D01*
X158779673Y-86810000D01*
X159091288Y-86343635D01*
X159251141Y-85540000D01*
X159091288Y-84736365D01*
X158672760Y-84109994D01*
X158718000Y-84000775D01*
X158718000Y-83193500D01*
X158528500Y-83004000D01*
X157114000Y-83004000D01*
X157114000Y-83024000D01*
X157106000Y-83024000D01*
X157106000Y-83004000D01*
X155691500Y-83004000D01*
X155502000Y-83193500D01*
X155502000Y-84000775D01*
X155547240Y-84109994D01*
X155128712Y-84736365D01*
X154968859Y-85540000D01*
X150251141Y-85540000D01*
X150091288Y-84736365D01*
X149672760Y-84109994D01*
X149718000Y-84000775D01*
X149718000Y-83193500D01*
X149528500Y-83004000D01*
X148114000Y-83004000D01*
X148114000Y-83024000D01*
X148106000Y-83024000D01*
X148106000Y-83004000D01*
X146691500Y-83004000D01*
X146502000Y-83193500D01*
X146502000Y-84000775D01*
X146547240Y-84109994D01*
X146128712Y-84736365D01*
X145968859Y-85540000D01*
X140280309Y-85540000D01*
X139766503Y-85025296D01*
X138719387Y-84590496D01*
X137585587Y-84589506D01*
X136537714Y-85022479D01*
X135735296Y-85823497D01*
X135300496Y-86870613D01*
X135299506Y-88004413D01*
X128236106Y-88004413D01*
X128091288Y-87276365D01*
X127779673Y-86810000D01*
X128091288Y-86343635D01*
X128251141Y-85540000D01*
X128091288Y-84736365D01*
X127672760Y-84109994D01*
X127718000Y-84000775D01*
X127718000Y-83193500D01*
X127528500Y-83004000D01*
X126114000Y-83004000D01*
X126114000Y-83024000D01*
X126106000Y-83024000D01*
X126106000Y-83004000D01*
X124691500Y-83004000D01*
X124502000Y-83193500D01*
X124502000Y-84000775D01*
X124547240Y-84109994D01*
X124128712Y-84736365D01*
X123968859Y-85540000D01*
X118171576Y-85540000D01*
X118251141Y-85140000D01*
X118091288Y-84336365D01*
X117636065Y-83655076D01*
X117425775Y-83514565D01*
X117674500Y-82971489D01*
X117697572Y-82855497D01*
X117528494Y-82604000D01*
X116114000Y-82604000D01*
X116114000Y-82624000D01*
X116106000Y-82624000D01*
X116106000Y-82604000D01*
X114691506Y-82604000D01*
X114522428Y-82855497D01*
X114545500Y-82971489D01*
X114794225Y-83514565D01*
X114583935Y-83655076D01*
X114128712Y-84336365D01*
X113968859Y-85140000D01*
X107251141Y-85140000D01*
X107091288Y-84336365D01*
X106636065Y-83655076D01*
X106425775Y-83514565D01*
X106674500Y-82971489D01*
X106697572Y-82855497D01*
X106528494Y-82604000D01*
X105114000Y-82604000D01*
X105114000Y-82624000D01*
X105106000Y-82624000D01*
X105106000Y-82604000D01*
X103691506Y-82604000D01*
X103522428Y-82855497D01*
X103545500Y-82971489D01*
X103794225Y-83514565D01*
X103583935Y-83655076D01*
X103128712Y-84336365D01*
X102968859Y-85140000D01*
X95251141Y-85140000D01*
X95091288Y-84336365D01*
X94636065Y-83655076D01*
X94425775Y-83514565D01*
X94674500Y-82971489D01*
X94697572Y-82855497D01*
X94528494Y-82604000D01*
X93114000Y-82604000D01*
X93114000Y-82624000D01*
X93106000Y-82624000D01*
X93106000Y-82604000D01*
X91691506Y-82604000D01*
X91522428Y-82855497D01*
X91545500Y-82971489D01*
X91794225Y-83514565D01*
X91583935Y-83655076D01*
X91128712Y-84336365D01*
X90968859Y-85140000D01*
X73325000Y-85140000D01*
X73325000Y-82344503D01*
X91522428Y-82344503D01*
X91691506Y-82596000D01*
X93106000Y-82596000D01*
X93106000Y-81181505D01*
X93114000Y-81181505D01*
X93114000Y-82596000D01*
X94528494Y-82596000D01*
X94697572Y-82344503D01*
X103522428Y-82344503D01*
X103691506Y-82596000D01*
X105106000Y-82596000D01*
X105106000Y-81181505D01*
X105114000Y-81181505D01*
X105114000Y-82596000D01*
X106528494Y-82596000D01*
X106697572Y-82344503D01*
X114522428Y-82344503D01*
X114691506Y-82596000D01*
X116106000Y-82596000D01*
X116106000Y-81181505D01*
X116114000Y-81181505D01*
X116114000Y-82596000D01*
X117528494Y-82596000D01*
X117697572Y-82344503D01*
X117674500Y-82228511D01*
X117569489Y-81999225D01*
X124502000Y-81999225D01*
X124502000Y-82806500D01*
X124691500Y-82996000D01*
X126106000Y-82996000D01*
X126106000Y-81581500D01*
X126114000Y-81581500D01*
X126114000Y-82996000D01*
X127528500Y-82996000D01*
X127718000Y-82806500D01*
X127718000Y-81999225D01*
X146502000Y-81999225D01*
X146502000Y-82806500D01*
X146691500Y-82996000D01*
X148106000Y-82996000D01*
X148106000Y-81581500D01*
X148114000Y-81581500D01*
X148114000Y-82996000D01*
X149528500Y-82996000D01*
X149718000Y-82806500D01*
X149718000Y-81999225D01*
X155502000Y-81999225D01*
X155502000Y-82806500D01*
X155691500Y-82996000D01*
X157106000Y-82996000D01*
X157106000Y-81581500D01*
X157114000Y-81581500D01*
X157114000Y-82996000D01*
X158528500Y-82996000D01*
X158718000Y-82806500D01*
X158718000Y-81999225D01*
X158602602Y-81720628D01*
X158389373Y-81507399D01*
X158110776Y-81392000D01*
X157303500Y-81392000D01*
X157114000Y-81581500D01*
X157106000Y-81581500D01*
X156916500Y-81392000D01*
X156109224Y-81392000D01*
X155830627Y-81507399D01*
X155617398Y-81720628D01*
X155502000Y-81999225D01*
X149718000Y-81999225D01*
X149602602Y-81720628D01*
X149389373Y-81507399D01*
X149110776Y-81392000D01*
X148303500Y-81392000D01*
X148114000Y-81581500D01*
X148106000Y-81581500D01*
X147916500Y-81392000D01*
X147109224Y-81392000D01*
X146830627Y-81507399D01*
X146617398Y-81720628D01*
X146502000Y-81999225D01*
X127718000Y-81999225D01*
X127602602Y-81720628D01*
X127389373Y-81507399D01*
X127110776Y-81392000D01*
X126303500Y-81392000D01*
X126114000Y-81581500D01*
X126106000Y-81581500D01*
X125916500Y-81392000D01*
X125109224Y-81392000D01*
X124830627Y-81507399D01*
X124617398Y-81720628D01*
X124502000Y-81999225D01*
X117569489Y-81999225D01*
X117413247Y-81658081D01*
X116953586Y-81231049D01*
X116365497Y-81012428D01*
X116114000Y-81181505D01*
X116106000Y-81181505D01*
X115854503Y-81012428D01*
X115266414Y-81231049D01*
X114806753Y-81658081D01*
X114545500Y-82228511D01*
X114522428Y-82344503D01*
X106697572Y-82344503D01*
X106674500Y-82228511D01*
X106413247Y-81658081D01*
X105953586Y-81231049D01*
X105365497Y-81012428D01*
X105114000Y-81181505D01*
X105106000Y-81181505D01*
X104854503Y-81012428D01*
X104266414Y-81231049D01*
X103806753Y-81658081D01*
X103545500Y-82228511D01*
X103522428Y-82344503D01*
X94697572Y-82344503D01*
X94674500Y-82228511D01*
X94413247Y-81658081D01*
X93953586Y-81231049D01*
X93365497Y-81012428D01*
X93114000Y-81181505D01*
X93106000Y-81181505D01*
X92854503Y-81012428D01*
X92266414Y-81231049D01*
X91806753Y-81658081D01*
X91545500Y-82228511D01*
X91522428Y-82344503D01*
X73325000Y-82344503D01*
X73325000Y-72764413D01*
X84499506Y-72764413D01*
X84932479Y-73812286D01*
X85733497Y-74614704D01*
X86780613Y-75049504D01*
X87914413Y-75050494D01*
X88962286Y-74617521D01*
X89679650Y-73901409D01*
X90055752Y-74152712D01*
X90864592Y-74313600D01*
X90947408Y-74313600D01*
X91756248Y-74152712D01*
X92176000Y-73872243D01*
X92595752Y-74152712D01*
X93404592Y-74313600D01*
X93487408Y-74313600D01*
X94296248Y-74152712D01*
X94716000Y-73872243D01*
X95135752Y-74152712D01*
X95944592Y-74313600D01*
X96027408Y-74313600D01*
X96836248Y-74152712D01*
X97521949Y-73694541D01*
X97627681Y-73536302D01*
X97675308Y-73580547D01*
X98268376Y-73801005D01*
X98522000Y-73632095D01*
X98522000Y-72204000D01*
X98502000Y-72204000D01*
X98502000Y-72196000D01*
X98522000Y-72196000D01*
X98522000Y-70767905D01*
X98530000Y-70767905D01*
X98530000Y-72196000D01*
X98550000Y-72196000D01*
X98550000Y-72204000D01*
X98530000Y-72204000D01*
X98530000Y-73632095D01*
X98783624Y-73801005D01*
X99376692Y-73580547D01*
X99424319Y-73536302D01*
X99530051Y-73694541D01*
X100215752Y-74152712D01*
X101024592Y-74313600D01*
X101107408Y-74313600D01*
X101916248Y-74152712D01*
X102336000Y-73872243D01*
X102755752Y-74152712D01*
X103564592Y-74313600D01*
X103647408Y-74313600D01*
X104456248Y-74152712D01*
X104876000Y-73872243D01*
X105295752Y-74152712D01*
X106104592Y-74313600D01*
X106187408Y-74313600D01*
X106996248Y-74152712D01*
X107416000Y-73872243D01*
X107835752Y-74152712D01*
X108644592Y-74313600D01*
X108727408Y-74313600D01*
X109536248Y-74152712D01*
X109956000Y-73872243D01*
X110375752Y-74152712D01*
X111184592Y-74313600D01*
X111267408Y-74313600D01*
X112076248Y-74152712D01*
X112496000Y-73872243D01*
X112915752Y-74152712D01*
X113724592Y-74313600D01*
X113807408Y-74313600D01*
X114616248Y-74152712D01*
X115301949Y-73694541D01*
X115760120Y-73008840D01*
X115798000Y-72818404D01*
X115835880Y-73008840D01*
X116294051Y-73694541D01*
X116979752Y-74152712D01*
X117788592Y-74313600D01*
X117871408Y-74313600D01*
X118680248Y-74152712D01*
X119100000Y-73872243D01*
X119519752Y-74152712D01*
X120328592Y-74313600D01*
X120411408Y-74313600D01*
X121220248Y-74152712D01*
X121640000Y-73872243D01*
X122059752Y-74152712D01*
X122868592Y-74313600D01*
X122951408Y-74313600D01*
X123760248Y-74152712D01*
X124180000Y-73872243D01*
X124599752Y-74152712D01*
X125408592Y-74313600D01*
X125491408Y-74313600D01*
X126300248Y-74152712D01*
X126720000Y-73872243D01*
X127139752Y-74152712D01*
X127948592Y-74313600D01*
X128031408Y-74313600D01*
X128840248Y-74152712D01*
X129260000Y-73872243D01*
X129679752Y-74152712D01*
X130488592Y-74313600D01*
X130571408Y-74313600D01*
X131380248Y-74152712D01*
X131800000Y-73872243D01*
X132219752Y-74152712D01*
X133028592Y-74313600D01*
X133111408Y-74313600D01*
X133920248Y-74152712D01*
X134340000Y-73872243D01*
X134759752Y-74152712D01*
X135568592Y-74313600D01*
X135651408Y-74313600D01*
X136460248Y-74152712D01*
X137145949Y-73694541D01*
X137604120Y-73008840D01*
X137765008Y-72200000D01*
X138534992Y-72200000D01*
X138695880Y-73008840D01*
X139154051Y-73694541D01*
X139839752Y-74152712D01*
X140648592Y-74313600D01*
X140731408Y-74313600D01*
X141540248Y-74152712D01*
X141960000Y-73872243D01*
X142379752Y-74152712D01*
X143188592Y-74313600D01*
X143271408Y-74313600D01*
X144080248Y-74152712D01*
X144500000Y-73872243D01*
X144919752Y-74152712D01*
X145728592Y-74313600D01*
X145811408Y-74313600D01*
X146620248Y-74152712D01*
X147040000Y-73872243D01*
X147459752Y-74152712D01*
X148268592Y-74313600D01*
X148351408Y-74313600D01*
X149160248Y-74152712D01*
X149580000Y-73872243D01*
X149999752Y-74152712D01*
X150808592Y-74313600D01*
X150891408Y-74313600D01*
X151700248Y-74152712D01*
X152120000Y-73872243D01*
X152539752Y-74152712D01*
X153348592Y-74313600D01*
X153431408Y-74313600D01*
X154240248Y-74152712D01*
X154660000Y-73872243D01*
X155079752Y-74152712D01*
X155888592Y-74313600D01*
X155971408Y-74313600D01*
X156780248Y-74152712D01*
X157200000Y-73872243D01*
X157619752Y-74152712D01*
X158428592Y-74313600D01*
X158511408Y-74313600D01*
X159320248Y-74152712D01*
X159855394Y-73795139D01*
X159862479Y-73812286D01*
X160663497Y-74614704D01*
X161710613Y-75049504D01*
X162844413Y-75050494D01*
X163892286Y-74617521D01*
X163975972Y-74533981D01*
X163934992Y-74740000D01*
X164095880Y-75548840D01*
X164404017Y-76010000D01*
X164095880Y-76471160D01*
X163934992Y-77280000D01*
X164095880Y-78088840D01*
X164404017Y-78550000D01*
X164095880Y-79011160D01*
X163934992Y-79820000D01*
X164095880Y-80628840D01*
X164404017Y-81090000D01*
X164095880Y-81551160D01*
X163934992Y-82360000D01*
X164095880Y-83168840D01*
X164404017Y-83630000D01*
X164095880Y-84091160D01*
X163934992Y-84900000D01*
X164095880Y-85708840D01*
X164404017Y-86170000D01*
X164095880Y-86631160D01*
X163934992Y-87440000D01*
X164095880Y-88248840D01*
X164404017Y-88710000D01*
X164095880Y-89171160D01*
X163934992Y-89980000D01*
X164095880Y-90788840D01*
X164404017Y-91250000D01*
X164095880Y-91711160D01*
X163934992Y-92520000D01*
X164095880Y-93328840D01*
X164404017Y-93790000D01*
X164095880Y-94251160D01*
X163934992Y-95060000D01*
X164095880Y-95868840D01*
X164404017Y-96330000D01*
X164095880Y-96791160D01*
X163934992Y-97600000D01*
X164095880Y-98408840D01*
X164404017Y-98870000D01*
X164095880Y-99331160D01*
X163934992Y-100140000D01*
X164095880Y-100948840D01*
X164404017Y-101410000D01*
X164095880Y-101871160D01*
X163934992Y-102680000D01*
X164095880Y-103488840D01*
X164404017Y-103950000D01*
X164095880Y-104411160D01*
X163934992Y-105220000D01*
X164095880Y-106028840D01*
X164404017Y-106490000D01*
X164095880Y-106951160D01*
X163934992Y-107760000D01*
X164095880Y-108568840D01*
X164404017Y-109030000D01*
X164095880Y-109491160D01*
X163934992Y-110300000D01*
X164095880Y-111108840D01*
X164404017Y-111570000D01*
X164095880Y-112031160D01*
X163934992Y-112840000D01*
X164095880Y-113648840D01*
X164554051Y-114334541D01*
X164757308Y-114470353D01*
X164512276Y-115005336D01*
X164488995Y-115122376D01*
X164657906Y-115376000D01*
X166086000Y-115376000D01*
X166086000Y-115356000D01*
X166094000Y-115356000D01*
X166094000Y-115376000D01*
X168626000Y-115376000D01*
X168626000Y-115356000D01*
X168634000Y-115356000D01*
X168634000Y-115376000D01*
X170062094Y-115376000D01*
X170231005Y-115122376D01*
X170207724Y-115005336D01*
X169962692Y-114470353D01*
X170165949Y-114334541D01*
X170624120Y-113648840D01*
X170785008Y-112840000D01*
X170624120Y-112031160D01*
X170315983Y-111570000D01*
X170624120Y-111108840D01*
X170785008Y-110300000D01*
X170624120Y-109491160D01*
X170315983Y-109030000D01*
X170624120Y-108568840D01*
X170785008Y-107760000D01*
X170624120Y-106951160D01*
X170315983Y-106490000D01*
X170624120Y-106028840D01*
X170785008Y-105220000D01*
X170624120Y-104411160D01*
X170315983Y-103950000D01*
X170624120Y-103488840D01*
X170785008Y-102680000D01*
X170624120Y-101871160D01*
X170315983Y-101410000D01*
X170624120Y-100948840D01*
X170785008Y-100140000D01*
X170624120Y-99331160D01*
X170315983Y-98870000D01*
X170624120Y-98408840D01*
X170785008Y-97600000D01*
X170624120Y-96791160D01*
X170315983Y-96330000D01*
X170624120Y-95868840D01*
X170785008Y-95060000D01*
X170624120Y-94251160D01*
X170315983Y-93790000D01*
X170624120Y-93328840D01*
X170785008Y-92520000D01*
X170624120Y-91711160D01*
X170315983Y-91250000D01*
X170624120Y-90788840D01*
X170785008Y-89980000D01*
X170624120Y-89171160D01*
X170315983Y-88710000D01*
X170624120Y-88248840D01*
X170785008Y-87440000D01*
X170624120Y-86631160D01*
X170315983Y-86170000D01*
X170624120Y-85708840D01*
X170785008Y-84900000D01*
X170624120Y-84091160D01*
X170315983Y-83630000D01*
X170624120Y-83168840D01*
X170785008Y-82360000D01*
X170624120Y-81551160D01*
X170315983Y-81090000D01*
X170624120Y-80628840D01*
X170785008Y-79820000D01*
X170624120Y-79011160D01*
X170315983Y-78550000D01*
X170624120Y-78088840D01*
X170785008Y-77280000D01*
X170624120Y-76471160D01*
X170315983Y-76010000D01*
X170624120Y-75548840D01*
X170785008Y-74740000D01*
X170624120Y-73931160D01*
X170315983Y-73470000D01*
X170624120Y-73008840D01*
X170785008Y-72200000D01*
X170624120Y-71391160D01*
X170165949Y-70705459D01*
X169480248Y-70247288D01*
X168671408Y-70086400D01*
X168588592Y-70086400D01*
X167779752Y-70247288D01*
X167360000Y-70527757D01*
X166940248Y-70247288D01*
X166131408Y-70086400D01*
X166048592Y-70086400D01*
X165239752Y-70247288D01*
X164704606Y-70604861D01*
X164697521Y-70587714D01*
X163896503Y-69785296D01*
X162849387Y-69350496D01*
X161715587Y-69349506D01*
X160667714Y-69782479D01*
X159865296Y-70583497D01*
X159856201Y-70605400D01*
X159320248Y-70247288D01*
X158511408Y-70086400D01*
X158428592Y-70086400D01*
X157619752Y-70247288D01*
X157200000Y-70527757D01*
X156780248Y-70247288D01*
X155971408Y-70086400D01*
X155888592Y-70086400D01*
X155079752Y-70247288D01*
X154660000Y-70527757D01*
X154240248Y-70247288D01*
X153431408Y-70086400D01*
X153348592Y-70086400D01*
X152539752Y-70247288D01*
X152120000Y-70527757D01*
X151700248Y-70247288D01*
X150891408Y-70086400D01*
X150808592Y-70086400D01*
X149999752Y-70247288D01*
X149580000Y-70527757D01*
X149160248Y-70247288D01*
X148351408Y-70086400D01*
X148268592Y-70086400D01*
X147459752Y-70247288D01*
X147040000Y-70527757D01*
X146620248Y-70247288D01*
X145811408Y-70086400D01*
X145728592Y-70086400D01*
X144919752Y-70247288D01*
X144500000Y-70527757D01*
X144080248Y-70247288D01*
X143271408Y-70086400D01*
X143188592Y-70086400D01*
X142379752Y-70247288D01*
X141960000Y-70527757D01*
X141540248Y-70247288D01*
X140731408Y-70086400D01*
X140648592Y-70086400D01*
X139839752Y-70247288D01*
X139154051Y-70705459D01*
X138695880Y-71391160D01*
X138534992Y-72200000D01*
X137765008Y-72200000D01*
X137604120Y-71391160D01*
X137145949Y-70705459D01*
X136460248Y-70247288D01*
X135651408Y-70086400D01*
X135568592Y-70086400D01*
X134759752Y-70247288D01*
X134340000Y-70527757D01*
X133920248Y-70247288D01*
X133111408Y-70086400D01*
X133028592Y-70086400D01*
X132219752Y-70247288D01*
X131800000Y-70527757D01*
X131380248Y-70247288D01*
X130571408Y-70086400D01*
X130488592Y-70086400D01*
X129679752Y-70247288D01*
X129260000Y-70527757D01*
X128840248Y-70247288D01*
X128031408Y-70086400D01*
X127948592Y-70086400D01*
X127139752Y-70247288D01*
X126720000Y-70527757D01*
X126300248Y-70247288D01*
X125491408Y-70086400D01*
X125408592Y-70086400D01*
X124599752Y-70247288D01*
X124180000Y-70527757D01*
X123760248Y-70247288D01*
X122951408Y-70086400D01*
X122868592Y-70086400D01*
X122059752Y-70247288D01*
X121640000Y-70527757D01*
X121220248Y-70247288D01*
X120411408Y-70086400D01*
X120328592Y-70086400D01*
X119519752Y-70247288D01*
X119100000Y-70527757D01*
X118680248Y-70247288D01*
X117871408Y-70086400D01*
X117788592Y-70086400D01*
X116979752Y-70247288D01*
X116294051Y-70705459D01*
X115835880Y-71391160D01*
X115798000Y-71581596D01*
X115760120Y-71391160D01*
X115301949Y-70705459D01*
X114616248Y-70247288D01*
X113807408Y-70086400D01*
X113724592Y-70086400D01*
X112915752Y-70247288D01*
X112496000Y-70527757D01*
X112076248Y-70247288D01*
X111267408Y-70086400D01*
X111184592Y-70086400D01*
X110375752Y-70247288D01*
X109956000Y-70527757D01*
X109536248Y-70247288D01*
X108727408Y-70086400D01*
X108644592Y-70086400D01*
X107835752Y-70247288D01*
X107416000Y-70527757D01*
X106996248Y-70247288D01*
X106187408Y-70086400D01*
X106104592Y-70086400D01*
X105295752Y-70247288D01*
X104876000Y-70527757D01*
X104456248Y-70247288D01*
X103647408Y-70086400D01*
X103564592Y-70086400D01*
X102755752Y-70247288D01*
X102336000Y-70527757D01*
X101916248Y-70247288D01*
X101107408Y-70086400D01*
X101024592Y-70086400D01*
X100215752Y-70247288D01*
X99530051Y-70705459D01*
X99424319Y-70863698D01*
X99376692Y-70819453D01*
X98783624Y-70598995D01*
X98530000Y-70767905D01*
X98522000Y-70767905D01*
X98268376Y-70598995D01*
X97675308Y-70819453D01*
X97627681Y-70863698D01*
X97521949Y-70705459D01*
X96836248Y-70247288D01*
X96027408Y-70086400D01*
X95944592Y-70086400D01*
X95135752Y-70247288D01*
X94716000Y-70527757D01*
X94296248Y-70247288D01*
X93487408Y-70086400D01*
X93404592Y-70086400D01*
X92595752Y-70247288D01*
X92176000Y-70527757D01*
X91756248Y-70247288D01*
X90947408Y-70086400D01*
X90864592Y-70086400D01*
X90055752Y-70247288D01*
X89678993Y-70499031D01*
X88966503Y-69785296D01*
X87919387Y-69350496D01*
X86785587Y-69349506D01*
X85737714Y-69782479D01*
X84935296Y-70583497D01*
X84500496Y-71630613D01*
X84499506Y-72764413D01*
X73325000Y-72764413D01*
X73325000Y-53925736D01*
X73819051Y-55121429D01*
X74873022Y-56177242D01*
X76250806Y-56749348D01*
X77742649Y-56750650D01*
X79121429Y-56180949D01*
X80177242Y-55126978D01*
X80311561Y-54803500D01*
X126012000Y-54803500D01*
X126012000Y-56260775D01*
X126127398Y-56539372D01*
X126340627Y-56752601D01*
X126619224Y-56868000D01*
X128076500Y-56868000D01*
X128266000Y-56678500D01*
X128266000Y-54614000D01*
X128274000Y-54614000D01*
X128274000Y-56678500D01*
X128463500Y-56868000D01*
X129920776Y-56868000D01*
X130199373Y-56752601D01*
X130412602Y-56539372D01*
X130528000Y-56260775D01*
X130528000Y-56106756D01*
X131858901Y-56106756D01*
X132000016Y-56474897D01*
X132816443Y-56849556D01*
X133714099Y-56883263D01*
X134556324Y-56570886D01*
X134699984Y-56474897D01*
X134841099Y-56106756D01*
X133350000Y-54615657D01*
X131858901Y-56106756D01*
X130528000Y-56106756D01*
X130528000Y-54974099D01*
X131076737Y-54974099D01*
X131389114Y-55816324D01*
X131485103Y-55959984D01*
X131853244Y-56101099D01*
X133344343Y-54610000D01*
X133355657Y-54610000D01*
X134846756Y-56101099D01*
X135214897Y-55959984D01*
X135584484Y-55154609D01*
X135679523Y-55154609D01*
X136097304Y-56165715D01*
X136870216Y-56939977D01*
X137880591Y-57359522D01*
X138974609Y-57360477D01*
X139985715Y-56942696D01*
X140759977Y-56169784D01*
X140969998Y-55663997D01*
X141177304Y-56165715D01*
X141950216Y-56939977D01*
X142960591Y-57359522D01*
X144054609Y-57360477D01*
X145065715Y-56942696D01*
X145839977Y-56169784D01*
X146259522Y-55159409D01*
X146260477Y-54065391D01*
X145842696Y-53054285D01*
X145069784Y-52280023D01*
X144059409Y-51860478D01*
X142965391Y-51859523D01*
X141954285Y-52277304D01*
X141180023Y-53050216D01*
X140970002Y-53556003D01*
X140762696Y-53054285D01*
X139989784Y-52280023D01*
X138979409Y-51860478D01*
X137885391Y-51859523D01*
X136874285Y-52277304D01*
X136100023Y-53050216D01*
X135680478Y-54060591D01*
X135679523Y-55154609D01*
X135584484Y-55154609D01*
X135589556Y-55143557D01*
X135623263Y-54245901D01*
X135310886Y-53403676D01*
X135214897Y-53260016D01*
X134846756Y-53118901D01*
X133355657Y-54610000D01*
X133344343Y-54610000D01*
X131853244Y-53118901D01*
X131485103Y-53260016D01*
X131110444Y-54076443D01*
X131076737Y-54974099D01*
X130528000Y-54974099D01*
X130528000Y-54803500D01*
X130338500Y-54614000D01*
X128274000Y-54614000D01*
X128266000Y-54614000D01*
X126201500Y-54614000D01*
X126012000Y-54803500D01*
X80311561Y-54803500D01*
X80749348Y-53749194D01*
X80750037Y-52959225D01*
X126012000Y-52959225D01*
X126012000Y-54416500D01*
X126201500Y-54606000D01*
X128266000Y-54606000D01*
X128266000Y-52541500D01*
X128274000Y-52541500D01*
X128274000Y-54606000D01*
X130338500Y-54606000D01*
X130528000Y-54416500D01*
X130528000Y-53113244D01*
X131858901Y-53113244D01*
X133350000Y-54604343D01*
X134841099Y-53113244D01*
X134699984Y-52745103D01*
X133883557Y-52370444D01*
X132985901Y-52336737D01*
X132143676Y-52649114D01*
X132000016Y-52745103D01*
X131858901Y-53113244D01*
X130528000Y-53113244D01*
X130528000Y-52959225D01*
X130412602Y-52680628D01*
X130199373Y-52467399D01*
X129920776Y-52352000D01*
X128463500Y-52352000D01*
X128274000Y-52541500D01*
X128266000Y-52541500D01*
X128076500Y-52352000D01*
X126619224Y-52352000D01*
X126340627Y-52467399D01*
X126127398Y-52680628D01*
X126012000Y-52959225D01*
X80750037Y-52959225D01*
X80750650Y-52257351D01*
X80180949Y-50878571D01*
X79126978Y-49822758D01*
X77928244Y-49325000D01*
X182074264Y-49325000D01*
X180878571Y-49819051D01*
M02*
