G04 #@! TF.FileFunction,Legend,Top*
%FSLAX46Y46*%
G04 Gerber Fmt 4.6, Leading zero omitted, Abs format (unit mm)*
G04 Created by KiCad (PCBNEW 4.0.7) date Mon Jun 18 14:33:48 2018*
%MOMM*%
%LPD*%
G01*
G04 APERTURE LIST*
%ADD10C,0.100000*%
%ADD11C,0.200000*%
%ADD12C,0.120000*%
%ADD13C,0.150000*%
G04 APERTURE END LIST*
D10*
D11*
X164012116Y-108458000D02*
G75*
G03X164012116Y-108458000I-1198116J0D01*
G01*
X154995116Y-108458000D02*
G75*
G03X154995116Y-108458000I-1198116J0D01*
G01*
X132897116Y-108585000D02*
G75*
G03X132897116Y-108585000I-1198116J0D01*
G01*
X122864116Y-108204000D02*
G75*
G03X122864116Y-108204000I-1198116J0D01*
G01*
X111942116Y-108204000D02*
G75*
G03X111942116Y-108204000I-1198116J0D01*
G01*
X99877116Y-108077000D02*
G75*
G03X99877116Y-108077000I-1198116J0D01*
G01*
D12*
X97730000Y-143570000D02*
X100390000Y-143570000D01*
X97730000Y-143510000D02*
X97730000Y-143570000D01*
X100390000Y-143510000D02*
X100390000Y-143570000D01*
X97730000Y-143510000D02*
X100390000Y-143510000D01*
X97730000Y-142240000D02*
X97730000Y-140910000D01*
X97730000Y-140910000D02*
X99060000Y-140910000D01*
X97730000Y-141030000D02*
X100390000Y-141030000D01*
X97730000Y-140970000D02*
X97730000Y-141030000D01*
X100390000Y-140970000D02*
X100390000Y-141030000D01*
X97730000Y-140970000D02*
X100390000Y-140970000D01*
X97730000Y-139700000D02*
X97730000Y-138370000D01*
X97730000Y-138370000D02*
X99060000Y-138370000D01*
X97730000Y-135950000D02*
X100390000Y-135950000D01*
X97730000Y-135890000D02*
X97730000Y-135950000D01*
X100390000Y-135890000D02*
X100390000Y-135950000D01*
X97730000Y-135890000D02*
X100390000Y-135890000D01*
X97730000Y-134620000D02*
X97730000Y-133290000D01*
X97730000Y-133290000D02*
X99060000Y-133290000D01*
X97730000Y-138490000D02*
X100390000Y-138490000D01*
X97730000Y-138430000D02*
X97730000Y-138490000D01*
X100390000Y-138430000D02*
X100390000Y-138490000D01*
X97730000Y-138430000D02*
X100390000Y-138430000D01*
X97730000Y-137160000D02*
X97730000Y-135830000D01*
X97730000Y-135830000D02*
X99060000Y-135830000D01*
X95190000Y-138490000D02*
X97850000Y-138490000D01*
X95190000Y-138430000D02*
X95190000Y-138490000D01*
X97850000Y-138430000D02*
X97850000Y-138490000D01*
X95190000Y-138430000D02*
X97850000Y-138430000D01*
X95190000Y-137160000D02*
X95190000Y-135830000D01*
X95190000Y-135830000D02*
X96520000Y-135830000D01*
X95190000Y-135950000D02*
X97850000Y-135950000D01*
X95190000Y-135890000D02*
X95190000Y-135950000D01*
X97850000Y-135890000D02*
X97850000Y-135950000D01*
X95190000Y-135890000D02*
X97850000Y-135890000D01*
X95190000Y-134620000D02*
X95190000Y-133290000D01*
X95190000Y-133290000D02*
X96520000Y-133290000D01*
X95190000Y-141030000D02*
X97850000Y-141030000D01*
X95190000Y-140970000D02*
X95190000Y-141030000D01*
X97850000Y-140970000D02*
X97850000Y-141030000D01*
X95190000Y-140970000D02*
X97850000Y-140970000D01*
X95190000Y-139700000D02*
X95190000Y-138370000D01*
X95190000Y-138370000D02*
X96520000Y-138370000D01*
X95190000Y-143570000D02*
X97850000Y-143570000D01*
X95190000Y-143510000D02*
X95190000Y-143570000D01*
X97850000Y-143510000D02*
X97850000Y-143570000D01*
X95190000Y-143510000D02*
X97850000Y-143510000D01*
X95190000Y-142240000D02*
X95190000Y-140910000D01*
X95190000Y-140910000D02*
X96520000Y-140910000D01*
X95190000Y-130870000D02*
X97850000Y-130870000D01*
X95190000Y-130810000D02*
X95190000Y-130870000D01*
X97850000Y-130810000D02*
X97850000Y-130870000D01*
X95190000Y-130810000D02*
X97850000Y-130810000D01*
X95190000Y-129540000D02*
X95190000Y-128210000D01*
X95190000Y-128210000D02*
X96520000Y-128210000D01*
X95190000Y-133410000D02*
X97850000Y-133410000D01*
X95190000Y-133350000D02*
X95190000Y-133410000D01*
X97850000Y-133350000D02*
X97850000Y-133410000D01*
X95190000Y-133350000D02*
X97850000Y-133350000D01*
X95190000Y-132080000D02*
X95190000Y-130750000D01*
X95190000Y-130750000D02*
X96520000Y-130750000D01*
X97730000Y-133410000D02*
X100390000Y-133410000D01*
X97730000Y-133350000D02*
X97730000Y-133410000D01*
X100390000Y-133350000D02*
X100390000Y-133410000D01*
X97730000Y-133350000D02*
X100390000Y-133350000D01*
X97730000Y-132080000D02*
X97730000Y-130750000D01*
X97730000Y-130750000D02*
X99060000Y-130750000D01*
X97730000Y-130870000D02*
X100390000Y-130870000D01*
X97730000Y-130810000D02*
X97730000Y-130870000D01*
X100390000Y-130810000D02*
X100390000Y-130870000D01*
X97730000Y-130810000D02*
X100390000Y-130810000D01*
X97730000Y-129540000D02*
X97730000Y-128210000D01*
X97730000Y-128210000D02*
X99060000Y-128210000D01*
X92650000Y-130870000D02*
X95310000Y-130870000D01*
X92650000Y-130810000D02*
X92650000Y-130870000D01*
X95310000Y-130810000D02*
X95310000Y-130870000D01*
X92650000Y-130810000D02*
X95310000Y-130810000D01*
X92650000Y-129540000D02*
X92650000Y-128210000D01*
X92650000Y-128210000D02*
X93980000Y-128210000D01*
X92650000Y-133410000D02*
X95310000Y-133410000D01*
X92650000Y-133350000D02*
X92650000Y-133410000D01*
X95310000Y-133350000D02*
X95310000Y-133410000D01*
X92650000Y-133350000D02*
X95310000Y-133350000D01*
X92650000Y-132080000D02*
X92650000Y-130750000D01*
X92650000Y-130750000D02*
X93980000Y-130750000D01*
X90110000Y-133410000D02*
X92770000Y-133410000D01*
X90110000Y-133350000D02*
X90110000Y-133410000D01*
X92770000Y-133350000D02*
X92770000Y-133410000D01*
X90110000Y-133350000D02*
X92770000Y-133350000D01*
X90110000Y-132080000D02*
X90110000Y-130750000D01*
X90110000Y-130750000D02*
X91440000Y-130750000D01*
X90110000Y-130870000D02*
X92770000Y-130870000D01*
X90110000Y-130810000D02*
X90110000Y-130870000D01*
X92770000Y-130810000D02*
X92770000Y-130870000D01*
X90110000Y-130810000D02*
X92770000Y-130810000D01*
X90110000Y-129540000D02*
X90110000Y-128210000D01*
X90110000Y-128210000D02*
X91440000Y-128210000D01*
X90110000Y-143570000D02*
X92770000Y-143570000D01*
X90110000Y-143510000D02*
X90110000Y-143570000D01*
X92770000Y-143510000D02*
X92770000Y-143570000D01*
X90110000Y-143510000D02*
X92770000Y-143510000D01*
X90110000Y-142240000D02*
X90110000Y-140910000D01*
X90110000Y-140910000D02*
X91440000Y-140910000D01*
X90110000Y-141030000D02*
X92770000Y-141030000D01*
X90110000Y-140970000D02*
X90110000Y-141030000D01*
X92770000Y-140970000D02*
X92770000Y-141030000D01*
X90110000Y-140970000D02*
X92770000Y-140970000D01*
X90110000Y-139700000D02*
X90110000Y-138370000D01*
X90110000Y-138370000D02*
X91440000Y-138370000D01*
X90110000Y-135950000D02*
X92770000Y-135950000D01*
X90110000Y-135890000D02*
X90110000Y-135950000D01*
X92770000Y-135890000D02*
X92770000Y-135950000D01*
X90110000Y-135890000D02*
X92770000Y-135890000D01*
X90110000Y-134620000D02*
X90110000Y-133290000D01*
X90110000Y-133290000D02*
X91440000Y-133290000D01*
X90110000Y-138490000D02*
X92770000Y-138490000D01*
X90110000Y-138430000D02*
X90110000Y-138490000D01*
X92770000Y-138430000D02*
X92770000Y-138490000D01*
X90110000Y-138430000D02*
X92770000Y-138430000D01*
X90110000Y-137160000D02*
X90110000Y-135830000D01*
X90110000Y-135830000D02*
X91440000Y-135830000D01*
X92650000Y-138490000D02*
X95310000Y-138490000D01*
X92650000Y-138430000D02*
X92650000Y-138490000D01*
X95310000Y-138430000D02*
X95310000Y-138490000D01*
X92650000Y-138430000D02*
X95310000Y-138430000D01*
X92650000Y-137160000D02*
X92650000Y-135830000D01*
X92650000Y-135830000D02*
X93980000Y-135830000D01*
X92650000Y-135950000D02*
X95310000Y-135950000D01*
X92650000Y-135890000D02*
X92650000Y-135950000D01*
X95310000Y-135890000D02*
X95310000Y-135950000D01*
X92650000Y-135890000D02*
X95310000Y-135890000D01*
X92650000Y-134620000D02*
X92650000Y-133290000D01*
X92650000Y-133290000D02*
X93980000Y-133290000D01*
X92650000Y-141030000D02*
X95310000Y-141030000D01*
X92650000Y-140970000D02*
X92650000Y-141030000D01*
X95310000Y-140970000D02*
X95310000Y-141030000D01*
X92650000Y-140970000D02*
X95310000Y-140970000D01*
X92650000Y-139700000D02*
X92650000Y-138370000D01*
X92650000Y-138370000D02*
X93980000Y-138370000D01*
X92650000Y-143570000D02*
X95310000Y-143570000D01*
X92650000Y-143510000D02*
X92650000Y-143570000D01*
X95310000Y-143510000D02*
X95310000Y-143570000D01*
X92650000Y-143510000D02*
X95310000Y-143510000D01*
X92650000Y-142240000D02*
X92650000Y-140910000D01*
X92650000Y-140910000D02*
X93980000Y-140910000D01*
X100270000Y-138490000D02*
X102930000Y-138490000D01*
X100270000Y-138430000D02*
X100270000Y-138490000D01*
X102930000Y-138430000D02*
X102930000Y-138490000D01*
X100270000Y-138430000D02*
X102930000Y-138430000D01*
X100270000Y-137160000D02*
X100270000Y-135830000D01*
X100270000Y-135830000D02*
X101600000Y-135830000D01*
X100270000Y-135950000D02*
X102930000Y-135950000D01*
X100270000Y-135890000D02*
X100270000Y-135950000D01*
X102930000Y-135890000D02*
X102930000Y-135950000D01*
X100270000Y-135890000D02*
X102930000Y-135890000D01*
X100270000Y-134620000D02*
X100270000Y-133290000D01*
X100270000Y-133290000D02*
X101600000Y-133290000D01*
X100270000Y-141030000D02*
X102930000Y-141030000D01*
X100270000Y-140970000D02*
X100270000Y-141030000D01*
X102930000Y-140970000D02*
X102930000Y-141030000D01*
X100270000Y-140970000D02*
X102930000Y-140970000D01*
X100270000Y-139700000D02*
X100270000Y-138370000D01*
X100270000Y-138370000D02*
X101600000Y-138370000D01*
X100270000Y-143570000D02*
X102930000Y-143570000D01*
X100270000Y-143510000D02*
X100270000Y-143570000D01*
X102930000Y-143510000D02*
X102930000Y-143570000D01*
X100270000Y-143510000D02*
X102930000Y-143510000D01*
X100270000Y-142240000D02*
X100270000Y-140910000D01*
X100270000Y-140910000D02*
X101600000Y-140910000D01*
X100270000Y-130870000D02*
X102930000Y-130870000D01*
X100270000Y-130810000D02*
X100270000Y-130870000D01*
X102930000Y-130810000D02*
X102930000Y-130870000D01*
X100270000Y-130810000D02*
X102930000Y-130810000D01*
X100270000Y-129540000D02*
X100270000Y-128210000D01*
X100270000Y-128210000D02*
X101600000Y-128210000D01*
X100270000Y-133410000D02*
X102930000Y-133410000D01*
X100270000Y-133350000D02*
X100270000Y-133410000D01*
X102930000Y-133350000D02*
X102930000Y-133410000D01*
X100270000Y-133350000D02*
X102930000Y-133350000D01*
X100270000Y-132080000D02*
X100270000Y-130750000D01*
X100270000Y-130750000D02*
X101600000Y-130750000D01*
X120590000Y-143570000D02*
X123250000Y-143570000D01*
X120590000Y-143510000D02*
X120590000Y-143570000D01*
X123250000Y-143510000D02*
X123250000Y-143570000D01*
X120590000Y-143510000D02*
X123250000Y-143510000D01*
X120590000Y-142240000D02*
X120590000Y-140910000D01*
X120590000Y-140910000D02*
X121920000Y-140910000D01*
X120590000Y-141030000D02*
X123250000Y-141030000D01*
X120590000Y-140970000D02*
X120590000Y-141030000D01*
X123250000Y-140970000D02*
X123250000Y-141030000D01*
X120590000Y-140970000D02*
X123250000Y-140970000D01*
X120590000Y-139700000D02*
X120590000Y-138370000D01*
X120590000Y-138370000D02*
X121920000Y-138370000D01*
X120590000Y-135950000D02*
X123250000Y-135950000D01*
X120590000Y-135890000D02*
X120590000Y-135950000D01*
X123250000Y-135890000D02*
X123250000Y-135950000D01*
X120590000Y-135890000D02*
X123250000Y-135890000D01*
X120590000Y-134620000D02*
X120590000Y-133290000D01*
X120590000Y-133290000D02*
X121920000Y-133290000D01*
X120590000Y-138490000D02*
X123250000Y-138490000D01*
X120590000Y-138430000D02*
X120590000Y-138490000D01*
X123250000Y-138430000D02*
X123250000Y-138490000D01*
X120590000Y-138430000D02*
X123250000Y-138430000D01*
X120590000Y-137160000D02*
X120590000Y-135830000D01*
X120590000Y-135830000D02*
X121920000Y-135830000D01*
X118050000Y-138490000D02*
X120710000Y-138490000D01*
X118050000Y-138430000D02*
X118050000Y-138490000D01*
X120710000Y-138430000D02*
X120710000Y-138490000D01*
X118050000Y-138430000D02*
X120710000Y-138430000D01*
X118050000Y-137160000D02*
X118050000Y-135830000D01*
X118050000Y-135830000D02*
X119380000Y-135830000D01*
X118050000Y-135950000D02*
X120710000Y-135950000D01*
X118050000Y-135890000D02*
X118050000Y-135950000D01*
X120710000Y-135890000D02*
X120710000Y-135950000D01*
X118050000Y-135890000D02*
X120710000Y-135890000D01*
X118050000Y-134620000D02*
X118050000Y-133290000D01*
X118050000Y-133290000D02*
X119380000Y-133290000D01*
X118050000Y-141030000D02*
X120710000Y-141030000D01*
X118050000Y-140970000D02*
X118050000Y-141030000D01*
X120710000Y-140970000D02*
X120710000Y-141030000D01*
X118050000Y-140970000D02*
X120710000Y-140970000D01*
X118050000Y-139700000D02*
X118050000Y-138370000D01*
X118050000Y-138370000D02*
X119380000Y-138370000D01*
X118050000Y-143570000D02*
X120710000Y-143570000D01*
X118050000Y-143510000D02*
X118050000Y-143570000D01*
X120710000Y-143510000D02*
X120710000Y-143570000D01*
X118050000Y-143510000D02*
X120710000Y-143510000D01*
X118050000Y-142240000D02*
X118050000Y-140910000D01*
X118050000Y-140910000D02*
X119380000Y-140910000D01*
X118050000Y-130870000D02*
X120710000Y-130870000D01*
X118050000Y-130810000D02*
X118050000Y-130870000D01*
X120710000Y-130810000D02*
X120710000Y-130870000D01*
X118050000Y-130810000D02*
X120710000Y-130810000D01*
X118050000Y-129540000D02*
X118050000Y-128210000D01*
X118050000Y-128210000D02*
X119380000Y-128210000D01*
X118050000Y-133410000D02*
X120710000Y-133410000D01*
X118050000Y-133350000D02*
X118050000Y-133410000D01*
X120710000Y-133350000D02*
X120710000Y-133410000D01*
X118050000Y-133350000D02*
X120710000Y-133350000D01*
X118050000Y-132080000D02*
X118050000Y-130750000D01*
X118050000Y-130750000D02*
X119380000Y-130750000D01*
X120590000Y-133410000D02*
X123250000Y-133410000D01*
X120590000Y-133350000D02*
X120590000Y-133410000D01*
X123250000Y-133350000D02*
X123250000Y-133410000D01*
X120590000Y-133350000D02*
X123250000Y-133350000D01*
X120590000Y-132080000D02*
X120590000Y-130750000D01*
X120590000Y-130750000D02*
X121920000Y-130750000D01*
X120590000Y-130870000D02*
X123250000Y-130870000D01*
X120590000Y-130810000D02*
X120590000Y-130870000D01*
X123250000Y-130810000D02*
X123250000Y-130870000D01*
X120590000Y-130810000D02*
X123250000Y-130810000D01*
X120590000Y-129540000D02*
X120590000Y-128210000D01*
X120590000Y-128210000D02*
X121920000Y-128210000D01*
X115510000Y-130870000D02*
X118170000Y-130870000D01*
X115510000Y-130810000D02*
X115510000Y-130870000D01*
X118170000Y-130810000D02*
X118170000Y-130870000D01*
X115510000Y-130810000D02*
X118170000Y-130810000D01*
X115510000Y-129540000D02*
X115510000Y-128210000D01*
X115510000Y-128210000D02*
X116840000Y-128210000D01*
X115510000Y-133410000D02*
X118170000Y-133410000D01*
X115510000Y-133350000D02*
X115510000Y-133410000D01*
X118170000Y-133350000D02*
X118170000Y-133410000D01*
X115510000Y-133350000D02*
X118170000Y-133350000D01*
X115510000Y-132080000D02*
X115510000Y-130750000D01*
X115510000Y-130750000D02*
X116840000Y-130750000D01*
X112970000Y-133410000D02*
X115630000Y-133410000D01*
X112970000Y-133350000D02*
X112970000Y-133410000D01*
X115630000Y-133350000D02*
X115630000Y-133410000D01*
X112970000Y-133350000D02*
X115630000Y-133350000D01*
X112970000Y-132080000D02*
X112970000Y-130750000D01*
X112970000Y-130750000D02*
X114300000Y-130750000D01*
X112970000Y-130870000D02*
X115630000Y-130870000D01*
X112970000Y-130810000D02*
X112970000Y-130870000D01*
X115630000Y-130810000D02*
X115630000Y-130870000D01*
X112970000Y-130810000D02*
X115630000Y-130810000D01*
X112970000Y-129540000D02*
X112970000Y-128210000D01*
X112970000Y-128210000D02*
X114300000Y-128210000D01*
X112970000Y-143570000D02*
X115630000Y-143570000D01*
X112970000Y-143510000D02*
X112970000Y-143570000D01*
X115630000Y-143510000D02*
X115630000Y-143570000D01*
X112970000Y-143510000D02*
X115630000Y-143510000D01*
X112970000Y-142240000D02*
X112970000Y-140910000D01*
X112970000Y-140910000D02*
X114300000Y-140910000D01*
X112970000Y-141030000D02*
X115630000Y-141030000D01*
X112970000Y-140970000D02*
X112970000Y-141030000D01*
X115630000Y-140970000D02*
X115630000Y-141030000D01*
X112970000Y-140970000D02*
X115630000Y-140970000D01*
X112970000Y-139700000D02*
X112970000Y-138370000D01*
X112970000Y-138370000D02*
X114300000Y-138370000D01*
X112970000Y-135950000D02*
X115630000Y-135950000D01*
X112970000Y-135890000D02*
X112970000Y-135950000D01*
X115630000Y-135890000D02*
X115630000Y-135950000D01*
X112970000Y-135890000D02*
X115630000Y-135890000D01*
X112970000Y-134620000D02*
X112970000Y-133290000D01*
X112970000Y-133290000D02*
X114300000Y-133290000D01*
X112970000Y-138490000D02*
X115630000Y-138490000D01*
X112970000Y-138430000D02*
X112970000Y-138490000D01*
X115630000Y-138430000D02*
X115630000Y-138490000D01*
X112970000Y-138430000D02*
X115630000Y-138430000D01*
X112970000Y-137160000D02*
X112970000Y-135830000D01*
X112970000Y-135830000D02*
X114300000Y-135830000D01*
X115510000Y-138490000D02*
X118170000Y-138490000D01*
X115510000Y-138430000D02*
X115510000Y-138490000D01*
X118170000Y-138430000D02*
X118170000Y-138490000D01*
X115510000Y-138430000D02*
X118170000Y-138430000D01*
X115510000Y-137160000D02*
X115510000Y-135830000D01*
X115510000Y-135830000D02*
X116840000Y-135830000D01*
X115510000Y-135950000D02*
X118170000Y-135950000D01*
X115510000Y-135890000D02*
X115510000Y-135950000D01*
X118170000Y-135890000D02*
X118170000Y-135950000D01*
X115510000Y-135890000D02*
X118170000Y-135890000D01*
X115510000Y-134620000D02*
X115510000Y-133290000D01*
X115510000Y-133290000D02*
X116840000Y-133290000D01*
X115510000Y-141030000D02*
X118170000Y-141030000D01*
X115510000Y-140970000D02*
X115510000Y-141030000D01*
X118170000Y-140970000D02*
X118170000Y-141030000D01*
X115510000Y-140970000D02*
X118170000Y-140970000D01*
X115510000Y-139700000D02*
X115510000Y-138370000D01*
X115510000Y-138370000D02*
X116840000Y-138370000D01*
X115510000Y-143570000D02*
X118170000Y-143570000D01*
X115510000Y-143510000D02*
X115510000Y-143570000D01*
X118170000Y-143510000D02*
X118170000Y-143570000D01*
X115510000Y-143510000D02*
X118170000Y-143510000D01*
X115510000Y-142240000D02*
X115510000Y-140910000D01*
X115510000Y-140910000D02*
X116840000Y-140910000D01*
X105350000Y-143570000D02*
X108010000Y-143570000D01*
X105350000Y-143510000D02*
X105350000Y-143570000D01*
X108010000Y-143510000D02*
X108010000Y-143570000D01*
X105350000Y-143510000D02*
X108010000Y-143510000D01*
X105350000Y-142240000D02*
X105350000Y-140910000D01*
X105350000Y-140910000D02*
X106680000Y-140910000D01*
X105350000Y-141030000D02*
X108010000Y-141030000D01*
X105350000Y-140970000D02*
X105350000Y-141030000D01*
X108010000Y-140970000D02*
X108010000Y-141030000D01*
X105350000Y-140970000D02*
X108010000Y-140970000D01*
X105350000Y-139700000D02*
X105350000Y-138370000D01*
X105350000Y-138370000D02*
X106680000Y-138370000D01*
X105350000Y-135950000D02*
X108010000Y-135950000D01*
X105350000Y-135890000D02*
X105350000Y-135950000D01*
X108010000Y-135890000D02*
X108010000Y-135950000D01*
X105350000Y-135890000D02*
X108010000Y-135890000D01*
X105350000Y-134620000D02*
X105350000Y-133290000D01*
X105350000Y-133290000D02*
X106680000Y-133290000D01*
X105350000Y-138490000D02*
X108010000Y-138490000D01*
X105350000Y-138430000D02*
X105350000Y-138490000D01*
X108010000Y-138430000D02*
X108010000Y-138490000D01*
X105350000Y-138430000D02*
X108010000Y-138430000D01*
X105350000Y-137160000D02*
X105350000Y-135830000D01*
X105350000Y-135830000D02*
X106680000Y-135830000D01*
X102810000Y-138490000D02*
X105470000Y-138490000D01*
X102810000Y-138430000D02*
X102810000Y-138490000D01*
X105470000Y-138430000D02*
X105470000Y-138490000D01*
X102810000Y-138430000D02*
X105470000Y-138430000D01*
X102810000Y-137160000D02*
X102810000Y-135830000D01*
X102810000Y-135830000D02*
X104140000Y-135830000D01*
X102810000Y-135950000D02*
X105470000Y-135950000D01*
X102810000Y-135890000D02*
X102810000Y-135950000D01*
X105470000Y-135890000D02*
X105470000Y-135950000D01*
X102810000Y-135890000D02*
X105470000Y-135890000D01*
X102810000Y-134620000D02*
X102810000Y-133290000D01*
X102810000Y-133290000D02*
X104140000Y-133290000D01*
X102810000Y-141030000D02*
X105470000Y-141030000D01*
X102810000Y-140970000D02*
X102810000Y-141030000D01*
X105470000Y-140970000D02*
X105470000Y-141030000D01*
X102810000Y-140970000D02*
X105470000Y-140970000D01*
X102810000Y-139700000D02*
X102810000Y-138370000D01*
X102810000Y-138370000D02*
X104140000Y-138370000D01*
X102810000Y-143570000D02*
X105470000Y-143570000D01*
X102810000Y-143510000D02*
X102810000Y-143570000D01*
X105470000Y-143510000D02*
X105470000Y-143570000D01*
X102810000Y-143510000D02*
X105470000Y-143510000D01*
X102810000Y-142240000D02*
X102810000Y-140910000D01*
X102810000Y-140910000D02*
X104140000Y-140910000D01*
X102810000Y-130870000D02*
X105470000Y-130870000D01*
X102810000Y-130810000D02*
X102810000Y-130870000D01*
X105470000Y-130810000D02*
X105470000Y-130870000D01*
X102810000Y-130810000D02*
X105470000Y-130810000D01*
X102810000Y-129540000D02*
X102810000Y-128210000D01*
X102810000Y-128210000D02*
X104140000Y-128210000D01*
X102810000Y-133410000D02*
X105470000Y-133410000D01*
X102810000Y-133350000D02*
X102810000Y-133410000D01*
X105470000Y-133350000D02*
X105470000Y-133410000D01*
X102810000Y-133350000D02*
X105470000Y-133350000D01*
X102810000Y-132080000D02*
X102810000Y-130750000D01*
X102810000Y-130750000D02*
X104140000Y-130750000D01*
X105350000Y-133410000D02*
X108010000Y-133410000D01*
X105350000Y-133350000D02*
X105350000Y-133410000D01*
X108010000Y-133350000D02*
X108010000Y-133410000D01*
X105350000Y-133350000D02*
X108010000Y-133350000D01*
X105350000Y-132080000D02*
X105350000Y-130750000D01*
X105350000Y-130750000D02*
X106680000Y-130750000D01*
X105350000Y-130870000D02*
X108010000Y-130870000D01*
X105350000Y-130810000D02*
X105350000Y-130870000D01*
X108010000Y-130810000D02*
X108010000Y-130870000D01*
X105350000Y-130810000D02*
X108010000Y-130810000D01*
X105350000Y-129540000D02*
X105350000Y-128210000D01*
X105350000Y-128210000D02*
X106680000Y-128210000D01*
X110430000Y-130870000D02*
X113090000Y-130870000D01*
X110430000Y-130810000D02*
X110430000Y-130870000D01*
X113090000Y-130810000D02*
X113090000Y-130870000D01*
X110430000Y-130810000D02*
X113090000Y-130810000D01*
X110430000Y-129540000D02*
X110430000Y-128210000D01*
X110430000Y-128210000D02*
X111760000Y-128210000D01*
X110430000Y-133410000D02*
X113090000Y-133410000D01*
X110430000Y-133350000D02*
X110430000Y-133410000D01*
X113090000Y-133350000D02*
X113090000Y-133410000D01*
X110430000Y-133350000D02*
X113090000Y-133350000D01*
X110430000Y-132080000D02*
X110430000Y-130750000D01*
X110430000Y-130750000D02*
X111760000Y-130750000D01*
X107890000Y-133410000D02*
X110550000Y-133410000D01*
X107890000Y-133350000D02*
X107890000Y-133410000D01*
X110550000Y-133350000D02*
X110550000Y-133410000D01*
X107890000Y-133350000D02*
X110550000Y-133350000D01*
X107890000Y-132080000D02*
X107890000Y-130750000D01*
X107890000Y-130750000D02*
X109220000Y-130750000D01*
X107890000Y-130870000D02*
X110550000Y-130870000D01*
X107890000Y-130810000D02*
X107890000Y-130870000D01*
X110550000Y-130810000D02*
X110550000Y-130870000D01*
X107890000Y-130810000D02*
X110550000Y-130810000D01*
X107890000Y-129540000D02*
X107890000Y-128210000D01*
X107890000Y-128210000D02*
X109220000Y-128210000D01*
X107890000Y-143570000D02*
X110550000Y-143570000D01*
X107890000Y-143510000D02*
X107890000Y-143570000D01*
X110550000Y-143510000D02*
X110550000Y-143570000D01*
X107890000Y-143510000D02*
X110550000Y-143510000D01*
X107890000Y-142240000D02*
X107890000Y-140910000D01*
X107890000Y-140910000D02*
X109220000Y-140910000D01*
X107890000Y-141030000D02*
X110550000Y-141030000D01*
X107890000Y-140970000D02*
X107890000Y-141030000D01*
X110550000Y-140970000D02*
X110550000Y-141030000D01*
X107890000Y-140970000D02*
X110550000Y-140970000D01*
X107890000Y-139700000D02*
X107890000Y-138370000D01*
X107890000Y-138370000D02*
X109220000Y-138370000D01*
X107890000Y-135950000D02*
X110550000Y-135950000D01*
X107890000Y-135890000D02*
X107890000Y-135950000D01*
X110550000Y-135890000D02*
X110550000Y-135950000D01*
X107890000Y-135890000D02*
X110550000Y-135890000D01*
X107890000Y-134620000D02*
X107890000Y-133290000D01*
X107890000Y-133290000D02*
X109220000Y-133290000D01*
X107890000Y-138490000D02*
X110550000Y-138490000D01*
X107890000Y-138430000D02*
X107890000Y-138490000D01*
X110550000Y-138430000D02*
X110550000Y-138490000D01*
X107890000Y-138430000D02*
X110550000Y-138430000D01*
X107890000Y-137160000D02*
X107890000Y-135830000D01*
X107890000Y-135830000D02*
X109220000Y-135830000D01*
X110430000Y-138490000D02*
X113090000Y-138490000D01*
X110430000Y-138430000D02*
X110430000Y-138490000D01*
X113090000Y-138430000D02*
X113090000Y-138490000D01*
X110430000Y-138430000D02*
X113090000Y-138430000D01*
X110430000Y-137160000D02*
X110430000Y-135830000D01*
X110430000Y-135830000D02*
X111760000Y-135830000D01*
X110430000Y-135950000D02*
X113090000Y-135950000D01*
X110430000Y-135890000D02*
X110430000Y-135950000D01*
X113090000Y-135890000D02*
X113090000Y-135950000D01*
X110430000Y-135890000D02*
X113090000Y-135890000D01*
X110430000Y-134620000D02*
X110430000Y-133290000D01*
X110430000Y-133290000D02*
X111760000Y-133290000D01*
X110430000Y-141030000D02*
X113090000Y-141030000D01*
X110430000Y-140970000D02*
X110430000Y-141030000D01*
X113090000Y-140970000D02*
X113090000Y-141030000D01*
X110430000Y-140970000D02*
X113090000Y-140970000D01*
X110430000Y-139700000D02*
X110430000Y-138370000D01*
X110430000Y-138370000D02*
X111760000Y-138370000D01*
X110430000Y-143570000D02*
X113090000Y-143570000D01*
X110430000Y-143510000D02*
X110430000Y-143570000D01*
X113090000Y-143510000D02*
X113090000Y-143570000D01*
X110430000Y-143510000D02*
X113090000Y-143510000D01*
X110430000Y-142240000D02*
X110430000Y-140910000D01*
X110430000Y-140910000D02*
X111760000Y-140910000D01*
X130750000Y-143570000D02*
X133410000Y-143570000D01*
X130750000Y-143510000D02*
X130750000Y-143570000D01*
X133410000Y-143510000D02*
X133410000Y-143570000D01*
X130750000Y-143510000D02*
X133410000Y-143510000D01*
X130750000Y-142240000D02*
X130750000Y-140910000D01*
X130750000Y-140910000D02*
X132080000Y-140910000D01*
X130750000Y-141030000D02*
X133410000Y-141030000D01*
X130750000Y-140970000D02*
X130750000Y-141030000D01*
X133410000Y-140970000D02*
X133410000Y-141030000D01*
X130750000Y-140970000D02*
X133410000Y-140970000D01*
X130750000Y-139700000D02*
X130750000Y-138370000D01*
X130750000Y-138370000D02*
X132080000Y-138370000D01*
X130750000Y-135950000D02*
X133410000Y-135950000D01*
X130750000Y-135890000D02*
X130750000Y-135950000D01*
X133410000Y-135890000D02*
X133410000Y-135950000D01*
X130750000Y-135890000D02*
X133410000Y-135890000D01*
X130750000Y-134620000D02*
X130750000Y-133290000D01*
X130750000Y-133290000D02*
X132080000Y-133290000D01*
X130750000Y-138490000D02*
X133410000Y-138490000D01*
X130750000Y-138430000D02*
X130750000Y-138490000D01*
X133410000Y-138430000D02*
X133410000Y-138490000D01*
X130750000Y-138430000D02*
X133410000Y-138430000D01*
X130750000Y-137160000D02*
X130750000Y-135830000D01*
X130750000Y-135830000D02*
X132080000Y-135830000D01*
X128210000Y-138490000D02*
X130870000Y-138490000D01*
X128210000Y-138430000D02*
X128210000Y-138490000D01*
X130870000Y-138430000D02*
X130870000Y-138490000D01*
X128210000Y-138430000D02*
X130870000Y-138430000D01*
X128210000Y-137160000D02*
X128210000Y-135830000D01*
X128210000Y-135830000D02*
X129540000Y-135830000D01*
X128210000Y-135950000D02*
X130870000Y-135950000D01*
X128210000Y-135890000D02*
X128210000Y-135950000D01*
X130870000Y-135890000D02*
X130870000Y-135950000D01*
X128210000Y-135890000D02*
X130870000Y-135890000D01*
X128210000Y-134620000D02*
X128210000Y-133290000D01*
X128210000Y-133290000D02*
X129540000Y-133290000D01*
X128210000Y-141030000D02*
X130870000Y-141030000D01*
X128210000Y-140970000D02*
X128210000Y-141030000D01*
X130870000Y-140970000D02*
X130870000Y-141030000D01*
X128210000Y-140970000D02*
X130870000Y-140970000D01*
X128210000Y-139700000D02*
X128210000Y-138370000D01*
X128210000Y-138370000D02*
X129540000Y-138370000D01*
X128210000Y-143570000D02*
X130870000Y-143570000D01*
X128210000Y-143510000D02*
X128210000Y-143570000D01*
X130870000Y-143510000D02*
X130870000Y-143570000D01*
X128210000Y-143510000D02*
X130870000Y-143510000D01*
X128210000Y-142240000D02*
X128210000Y-140910000D01*
X128210000Y-140910000D02*
X129540000Y-140910000D01*
X128210000Y-130870000D02*
X130870000Y-130870000D01*
X128210000Y-130810000D02*
X128210000Y-130870000D01*
X130870000Y-130810000D02*
X130870000Y-130870000D01*
X128210000Y-130810000D02*
X130870000Y-130810000D01*
X128210000Y-129540000D02*
X128210000Y-128210000D01*
X128210000Y-128210000D02*
X129540000Y-128210000D01*
X128210000Y-133410000D02*
X130870000Y-133410000D01*
X128210000Y-133350000D02*
X128210000Y-133410000D01*
X130870000Y-133350000D02*
X130870000Y-133410000D01*
X128210000Y-133350000D02*
X130870000Y-133350000D01*
X128210000Y-132080000D02*
X128210000Y-130750000D01*
X128210000Y-130750000D02*
X129540000Y-130750000D01*
X130750000Y-133410000D02*
X133410000Y-133410000D01*
X130750000Y-133350000D02*
X130750000Y-133410000D01*
X133410000Y-133350000D02*
X133410000Y-133410000D01*
X130750000Y-133350000D02*
X133410000Y-133350000D01*
X130750000Y-132080000D02*
X130750000Y-130750000D01*
X130750000Y-130750000D02*
X132080000Y-130750000D01*
X130750000Y-130870000D02*
X133410000Y-130870000D01*
X130750000Y-130810000D02*
X130750000Y-130870000D01*
X133410000Y-130810000D02*
X133410000Y-130870000D01*
X130750000Y-130810000D02*
X133410000Y-130810000D01*
X130750000Y-129540000D02*
X130750000Y-128210000D01*
X130750000Y-128210000D02*
X132080000Y-128210000D01*
X125670000Y-130870000D02*
X128330000Y-130870000D01*
X125670000Y-130810000D02*
X125670000Y-130870000D01*
X128330000Y-130810000D02*
X128330000Y-130870000D01*
X125670000Y-130810000D02*
X128330000Y-130810000D01*
X125670000Y-129540000D02*
X125670000Y-128210000D01*
X125670000Y-128210000D02*
X127000000Y-128210000D01*
X125670000Y-133410000D02*
X128330000Y-133410000D01*
X125670000Y-133350000D02*
X125670000Y-133410000D01*
X128330000Y-133350000D02*
X128330000Y-133410000D01*
X125670000Y-133350000D02*
X128330000Y-133350000D01*
X125670000Y-132080000D02*
X125670000Y-130750000D01*
X125670000Y-130750000D02*
X127000000Y-130750000D01*
X123130000Y-133410000D02*
X125790000Y-133410000D01*
X123130000Y-133350000D02*
X123130000Y-133410000D01*
X125790000Y-133350000D02*
X125790000Y-133410000D01*
X123130000Y-133350000D02*
X125790000Y-133350000D01*
X123130000Y-132080000D02*
X123130000Y-130750000D01*
X123130000Y-130750000D02*
X124460000Y-130750000D01*
X123130000Y-130870000D02*
X125790000Y-130870000D01*
X123130000Y-130810000D02*
X123130000Y-130870000D01*
X125790000Y-130810000D02*
X125790000Y-130870000D01*
X123130000Y-130810000D02*
X125790000Y-130810000D01*
X123130000Y-129540000D02*
X123130000Y-128210000D01*
X123130000Y-128210000D02*
X124460000Y-128210000D01*
X123130000Y-143570000D02*
X125790000Y-143570000D01*
X123130000Y-143510000D02*
X123130000Y-143570000D01*
X125790000Y-143510000D02*
X125790000Y-143570000D01*
X123130000Y-143510000D02*
X125790000Y-143510000D01*
X123130000Y-142240000D02*
X123130000Y-140910000D01*
X123130000Y-140910000D02*
X124460000Y-140910000D01*
X123130000Y-141030000D02*
X125790000Y-141030000D01*
X123130000Y-140970000D02*
X123130000Y-141030000D01*
X125790000Y-140970000D02*
X125790000Y-141030000D01*
X123130000Y-140970000D02*
X125790000Y-140970000D01*
X123130000Y-139700000D02*
X123130000Y-138370000D01*
X123130000Y-138370000D02*
X124460000Y-138370000D01*
X123130000Y-135950000D02*
X125790000Y-135950000D01*
X123130000Y-135890000D02*
X123130000Y-135950000D01*
X125790000Y-135890000D02*
X125790000Y-135950000D01*
X123130000Y-135890000D02*
X125790000Y-135890000D01*
X123130000Y-134620000D02*
X123130000Y-133290000D01*
X123130000Y-133290000D02*
X124460000Y-133290000D01*
X123130000Y-138490000D02*
X125790000Y-138490000D01*
X123130000Y-138430000D02*
X123130000Y-138490000D01*
X125790000Y-138430000D02*
X125790000Y-138490000D01*
X123130000Y-138430000D02*
X125790000Y-138430000D01*
X123130000Y-137160000D02*
X123130000Y-135830000D01*
X123130000Y-135830000D02*
X124460000Y-135830000D01*
X125670000Y-138490000D02*
X128330000Y-138490000D01*
X125670000Y-138430000D02*
X125670000Y-138490000D01*
X128330000Y-138430000D02*
X128330000Y-138490000D01*
X125670000Y-138430000D02*
X128330000Y-138430000D01*
X125670000Y-137160000D02*
X125670000Y-135830000D01*
X125670000Y-135830000D02*
X127000000Y-135830000D01*
X125670000Y-135950000D02*
X128330000Y-135950000D01*
X125670000Y-135890000D02*
X125670000Y-135950000D01*
X128330000Y-135890000D02*
X128330000Y-135950000D01*
X125670000Y-135890000D02*
X128330000Y-135890000D01*
X125670000Y-134620000D02*
X125670000Y-133290000D01*
X125670000Y-133290000D02*
X127000000Y-133290000D01*
X125670000Y-141030000D02*
X128330000Y-141030000D01*
X125670000Y-140970000D02*
X125670000Y-141030000D01*
X128330000Y-140970000D02*
X128330000Y-141030000D01*
X125670000Y-140970000D02*
X128330000Y-140970000D01*
X125670000Y-139700000D02*
X125670000Y-138370000D01*
X125670000Y-138370000D02*
X127000000Y-138370000D01*
X125670000Y-143570000D02*
X128330000Y-143570000D01*
X125670000Y-143510000D02*
X125670000Y-143570000D01*
X128330000Y-143510000D02*
X128330000Y-143570000D01*
X125670000Y-143510000D02*
X128330000Y-143510000D01*
X125670000Y-142240000D02*
X125670000Y-140910000D01*
X125670000Y-140910000D02*
X127000000Y-140910000D01*
X135830000Y-143570000D02*
X138490000Y-143570000D01*
X135830000Y-143510000D02*
X135830000Y-143570000D01*
X138490000Y-143510000D02*
X138490000Y-143570000D01*
X135830000Y-143510000D02*
X138490000Y-143510000D01*
X135830000Y-142240000D02*
X135830000Y-140910000D01*
X135830000Y-140910000D02*
X137160000Y-140910000D01*
X135830000Y-141030000D02*
X138490000Y-141030000D01*
X135830000Y-140970000D02*
X135830000Y-141030000D01*
X138490000Y-140970000D02*
X138490000Y-141030000D01*
X135830000Y-140970000D02*
X138490000Y-140970000D01*
X135830000Y-139700000D02*
X135830000Y-138370000D01*
X135830000Y-138370000D02*
X137160000Y-138370000D01*
X135830000Y-135950000D02*
X138490000Y-135950000D01*
X135830000Y-135890000D02*
X135830000Y-135950000D01*
X138490000Y-135890000D02*
X138490000Y-135950000D01*
X135830000Y-135890000D02*
X138490000Y-135890000D01*
X135830000Y-134620000D02*
X135830000Y-133290000D01*
X135830000Y-133290000D02*
X137160000Y-133290000D01*
X135830000Y-138490000D02*
X138490000Y-138490000D01*
X135830000Y-138430000D02*
X135830000Y-138490000D01*
X138490000Y-138430000D02*
X138490000Y-138490000D01*
X135830000Y-138430000D02*
X138490000Y-138430000D01*
X135830000Y-137160000D02*
X135830000Y-135830000D01*
X135830000Y-135830000D02*
X137160000Y-135830000D01*
X133290000Y-138490000D02*
X135950000Y-138490000D01*
X133290000Y-138430000D02*
X133290000Y-138490000D01*
X135950000Y-138430000D02*
X135950000Y-138490000D01*
X133290000Y-138430000D02*
X135950000Y-138430000D01*
X133290000Y-137160000D02*
X133290000Y-135830000D01*
X133290000Y-135830000D02*
X134620000Y-135830000D01*
X133290000Y-135950000D02*
X135950000Y-135950000D01*
X133290000Y-135890000D02*
X133290000Y-135950000D01*
X135950000Y-135890000D02*
X135950000Y-135950000D01*
X133290000Y-135890000D02*
X135950000Y-135890000D01*
X133290000Y-134620000D02*
X133290000Y-133290000D01*
X133290000Y-133290000D02*
X134620000Y-133290000D01*
X133290000Y-141030000D02*
X135950000Y-141030000D01*
X133290000Y-140970000D02*
X133290000Y-141030000D01*
X135950000Y-140970000D02*
X135950000Y-141030000D01*
X133290000Y-140970000D02*
X135950000Y-140970000D01*
X133290000Y-139700000D02*
X133290000Y-138370000D01*
X133290000Y-138370000D02*
X134620000Y-138370000D01*
X133290000Y-143570000D02*
X135950000Y-143570000D01*
X133290000Y-143510000D02*
X133290000Y-143570000D01*
X135950000Y-143510000D02*
X135950000Y-143570000D01*
X133290000Y-143510000D02*
X135950000Y-143510000D01*
X133290000Y-142240000D02*
X133290000Y-140910000D01*
X133290000Y-140910000D02*
X134620000Y-140910000D01*
X133290000Y-130870000D02*
X135950000Y-130870000D01*
X133290000Y-130810000D02*
X133290000Y-130870000D01*
X135950000Y-130810000D02*
X135950000Y-130870000D01*
X133290000Y-130810000D02*
X135950000Y-130810000D01*
X133290000Y-129540000D02*
X133290000Y-128210000D01*
X133290000Y-128210000D02*
X134620000Y-128210000D01*
X133290000Y-133410000D02*
X135950000Y-133410000D01*
X133290000Y-133350000D02*
X133290000Y-133410000D01*
X135950000Y-133350000D02*
X135950000Y-133410000D01*
X133290000Y-133350000D02*
X135950000Y-133350000D01*
X133290000Y-132080000D02*
X133290000Y-130750000D01*
X133290000Y-130750000D02*
X134620000Y-130750000D01*
X135830000Y-133410000D02*
X138490000Y-133410000D01*
X135830000Y-133350000D02*
X135830000Y-133410000D01*
X138490000Y-133350000D02*
X138490000Y-133410000D01*
X135830000Y-133350000D02*
X138490000Y-133350000D01*
X135830000Y-132080000D02*
X135830000Y-130750000D01*
X135830000Y-130750000D02*
X137160000Y-130750000D01*
X135830000Y-130870000D02*
X138490000Y-130870000D01*
X135830000Y-130810000D02*
X135830000Y-130870000D01*
X138490000Y-130810000D02*
X138490000Y-130870000D01*
X135830000Y-130810000D02*
X138490000Y-130810000D01*
X135830000Y-129540000D02*
X135830000Y-128210000D01*
X135830000Y-128210000D02*
X137160000Y-128210000D01*
X140910000Y-130870000D02*
X143570000Y-130870000D01*
X140910000Y-130810000D02*
X140910000Y-130870000D01*
X143570000Y-130810000D02*
X143570000Y-130870000D01*
X140910000Y-130810000D02*
X143570000Y-130810000D01*
X140910000Y-129540000D02*
X140910000Y-128210000D01*
X140910000Y-128210000D02*
X142240000Y-128210000D01*
X140910000Y-133410000D02*
X143570000Y-133410000D01*
X140910000Y-133350000D02*
X140910000Y-133410000D01*
X143570000Y-133350000D02*
X143570000Y-133410000D01*
X140910000Y-133350000D02*
X143570000Y-133350000D01*
X140910000Y-132080000D02*
X140910000Y-130750000D01*
X140910000Y-130750000D02*
X142240000Y-130750000D01*
X138370000Y-133410000D02*
X141030000Y-133410000D01*
X138370000Y-133350000D02*
X138370000Y-133410000D01*
X141030000Y-133350000D02*
X141030000Y-133410000D01*
X138370000Y-133350000D02*
X141030000Y-133350000D01*
X138370000Y-132080000D02*
X138370000Y-130750000D01*
X138370000Y-130750000D02*
X139700000Y-130750000D01*
X138370000Y-130870000D02*
X141030000Y-130870000D01*
X138370000Y-130810000D02*
X138370000Y-130870000D01*
X141030000Y-130810000D02*
X141030000Y-130870000D01*
X138370000Y-130810000D02*
X141030000Y-130810000D01*
X138370000Y-129540000D02*
X138370000Y-128210000D01*
X138370000Y-128210000D02*
X139700000Y-128210000D01*
X138370000Y-143570000D02*
X141030000Y-143570000D01*
X138370000Y-143510000D02*
X138370000Y-143570000D01*
X141030000Y-143510000D02*
X141030000Y-143570000D01*
X138370000Y-143510000D02*
X141030000Y-143510000D01*
X138370000Y-142240000D02*
X138370000Y-140910000D01*
X138370000Y-140910000D02*
X139700000Y-140910000D01*
X138370000Y-141030000D02*
X141030000Y-141030000D01*
X138370000Y-140970000D02*
X138370000Y-141030000D01*
X141030000Y-140970000D02*
X141030000Y-141030000D01*
X138370000Y-140970000D02*
X141030000Y-140970000D01*
X138370000Y-139700000D02*
X138370000Y-138370000D01*
X138370000Y-138370000D02*
X139700000Y-138370000D01*
X138370000Y-135950000D02*
X141030000Y-135950000D01*
X138370000Y-135890000D02*
X138370000Y-135950000D01*
X141030000Y-135890000D02*
X141030000Y-135950000D01*
X138370000Y-135890000D02*
X141030000Y-135890000D01*
X138370000Y-134620000D02*
X138370000Y-133290000D01*
X138370000Y-133290000D02*
X139700000Y-133290000D01*
X138370000Y-138490000D02*
X141030000Y-138490000D01*
X138370000Y-138430000D02*
X138370000Y-138490000D01*
X141030000Y-138430000D02*
X141030000Y-138490000D01*
X138370000Y-138430000D02*
X141030000Y-138430000D01*
X138370000Y-137160000D02*
X138370000Y-135830000D01*
X138370000Y-135830000D02*
X139700000Y-135830000D01*
X140910000Y-138490000D02*
X143570000Y-138490000D01*
X140910000Y-138430000D02*
X140910000Y-138490000D01*
X143570000Y-138430000D02*
X143570000Y-138490000D01*
X140910000Y-138430000D02*
X143570000Y-138430000D01*
X140910000Y-137160000D02*
X140910000Y-135830000D01*
X140910000Y-135830000D02*
X142240000Y-135830000D01*
X140910000Y-135950000D02*
X143570000Y-135950000D01*
X140910000Y-135890000D02*
X140910000Y-135950000D01*
X143570000Y-135890000D02*
X143570000Y-135950000D01*
X140910000Y-135890000D02*
X143570000Y-135890000D01*
X140910000Y-134620000D02*
X140910000Y-133290000D01*
X140910000Y-133290000D02*
X142240000Y-133290000D01*
X140910000Y-141030000D02*
X143570000Y-141030000D01*
X140910000Y-140970000D02*
X140910000Y-141030000D01*
X143570000Y-140970000D02*
X143570000Y-141030000D01*
X140910000Y-140970000D02*
X143570000Y-140970000D01*
X140910000Y-139700000D02*
X140910000Y-138370000D01*
X140910000Y-138370000D02*
X142240000Y-138370000D01*
X140910000Y-143570000D02*
X143570000Y-143570000D01*
X140910000Y-143510000D02*
X140910000Y-143570000D01*
X143570000Y-143510000D02*
X143570000Y-143570000D01*
X140910000Y-143510000D02*
X143570000Y-143510000D01*
X140910000Y-142240000D02*
X140910000Y-140910000D01*
X140910000Y-140910000D02*
X142240000Y-140910000D01*
X79286000Y-53000000D02*
G75*
G03X79286000Y-53000000I-2286000J0D01*
G01*
X79286000Y-143000000D02*
G75*
G03X79286000Y-143000000I-2286000J0D01*
G01*
X185286000Y-143000000D02*
G75*
G03X185286000Y-143000000I-2286000J0D01*
G01*
X185286000Y-53000000D02*
G75*
G03X185286000Y-53000000I-2286000J0D01*
G01*
X103330000Y-81270000D02*
X100670000Y-81270000D01*
X103330000Y-106730000D02*
X103330000Y-81270000D01*
X100670000Y-106730000D02*
X100670000Y-81270000D01*
X103330000Y-106730000D02*
X100670000Y-106730000D01*
X103330000Y-108000000D02*
X103330000Y-109330000D01*
X103330000Y-109330000D02*
X102000000Y-109330000D01*
X115330000Y-81270000D02*
X112670000Y-81270000D01*
X115330000Y-106730000D02*
X115330000Y-81270000D01*
X112670000Y-106730000D02*
X112670000Y-81270000D01*
X115330000Y-106730000D02*
X112670000Y-106730000D01*
X115330000Y-108000000D02*
X115330000Y-109330000D01*
X115330000Y-109330000D02*
X114000000Y-109330000D01*
X126330000Y-81270000D02*
X123670000Y-81270000D01*
X126330000Y-106730000D02*
X126330000Y-81270000D01*
X123670000Y-106730000D02*
X123670000Y-81270000D01*
X126330000Y-106730000D02*
X123670000Y-106730000D01*
X126330000Y-108000000D02*
X126330000Y-109330000D01*
X126330000Y-109330000D02*
X125000000Y-109330000D01*
X133670000Y-109730000D02*
X136330000Y-109730000D01*
X133670000Y-84270000D02*
X133670000Y-109730000D01*
X136330000Y-84270000D02*
X136330000Y-109730000D01*
X133670000Y-84270000D02*
X136330000Y-84270000D01*
X133670000Y-83000000D02*
X133670000Y-81670000D01*
X133670000Y-81670000D02*
X135000000Y-81670000D01*
X155670000Y-109730000D02*
X158330000Y-109730000D01*
X155670000Y-84270000D02*
X155670000Y-109730000D01*
X158330000Y-84270000D02*
X158330000Y-109730000D01*
X155670000Y-84270000D02*
X158330000Y-84270000D01*
X155670000Y-83000000D02*
X155670000Y-81670000D01*
X155670000Y-81670000D02*
X157000000Y-81670000D01*
X164670000Y-109730000D02*
X167330000Y-109730000D01*
X164670000Y-84270000D02*
X164670000Y-109730000D01*
X167330000Y-84270000D02*
X167330000Y-109730000D01*
X164670000Y-84270000D02*
X167330000Y-84270000D01*
X164670000Y-83000000D02*
X164670000Y-81670000D01*
X164670000Y-81670000D02*
X166000000Y-81670000D01*
X113950000Y-57330000D02*
X113950000Y-54670000D01*
X106270000Y-57330000D02*
X113950000Y-57330000D01*
X106270000Y-54670000D02*
X113950000Y-54670000D01*
X106270000Y-57330000D02*
X106270000Y-54670000D01*
X105000000Y-57330000D02*
X103670000Y-57330000D01*
X103670000Y-57330000D02*
X103670000Y-56000000D01*
D13*
X81000000Y-69660000D02*
X81000000Y-123000000D01*
X180060000Y-82360000D02*
X180060000Y-71184000D01*
X182600000Y-84900000D02*
X180060000Y-82360000D01*
X182600000Y-119190000D02*
X182600000Y-84900000D01*
X180060000Y-121730000D02*
X182600000Y-119190000D01*
X180060000Y-123000000D02*
X180060000Y-121730000D01*
X178536000Y-69660000D02*
X180060000Y-71184000D01*
X81000000Y-123000000D02*
X180060000Y-123000000D01*
X81000000Y-69660000D02*
X178536000Y-69660000D01*
X75666667Y-50404381D02*
X75333333Y-49928190D01*
X75095238Y-50404381D02*
X75095238Y-49404381D01*
X75476191Y-49404381D01*
X75571429Y-49452000D01*
X75619048Y-49499619D01*
X75666667Y-49594857D01*
X75666667Y-49737714D01*
X75619048Y-49832952D01*
X75571429Y-49880571D01*
X75476191Y-49928190D01*
X75095238Y-49928190D01*
X76095238Y-49880571D02*
X76428572Y-49880571D01*
X76571429Y-50404381D02*
X76095238Y-50404381D01*
X76095238Y-49404381D01*
X76571429Y-49404381D01*
X77333334Y-49880571D02*
X77000000Y-49880571D01*
X77000000Y-50404381D02*
X77000000Y-49404381D01*
X77476191Y-49404381D01*
X78000000Y-49404381D02*
X78000000Y-49642476D01*
X77761905Y-49547238D02*
X78000000Y-49642476D01*
X78238096Y-49547238D01*
X77857143Y-49832952D02*
X78000000Y-49642476D01*
X78142858Y-49832952D01*
X78761905Y-49404381D02*
X78761905Y-49642476D01*
X78523810Y-49547238D02*
X78761905Y-49642476D01*
X79000001Y-49547238D01*
X78619048Y-49832952D02*
X78761905Y-49642476D01*
X78904763Y-49832952D01*
X75666667Y-140404381D02*
X75333333Y-139928190D01*
X75095238Y-140404381D02*
X75095238Y-139404381D01*
X75476191Y-139404381D01*
X75571429Y-139452000D01*
X75619048Y-139499619D01*
X75666667Y-139594857D01*
X75666667Y-139737714D01*
X75619048Y-139832952D01*
X75571429Y-139880571D01*
X75476191Y-139928190D01*
X75095238Y-139928190D01*
X76095238Y-139880571D02*
X76428572Y-139880571D01*
X76571429Y-140404381D02*
X76095238Y-140404381D01*
X76095238Y-139404381D01*
X76571429Y-139404381D01*
X77333334Y-139880571D02*
X77000000Y-139880571D01*
X77000000Y-140404381D02*
X77000000Y-139404381D01*
X77476191Y-139404381D01*
X78000000Y-139404381D02*
X78000000Y-139642476D01*
X77761905Y-139547238D02*
X78000000Y-139642476D01*
X78238096Y-139547238D01*
X77857143Y-139832952D02*
X78000000Y-139642476D01*
X78142858Y-139832952D01*
X78761905Y-139404381D02*
X78761905Y-139642476D01*
X78523810Y-139547238D02*
X78761905Y-139642476D01*
X79000001Y-139547238D01*
X78619048Y-139832952D02*
X78761905Y-139642476D01*
X78904763Y-139832952D01*
X181666667Y-140404381D02*
X181333333Y-139928190D01*
X181095238Y-140404381D02*
X181095238Y-139404381D01*
X181476191Y-139404381D01*
X181571429Y-139452000D01*
X181619048Y-139499619D01*
X181666667Y-139594857D01*
X181666667Y-139737714D01*
X181619048Y-139832952D01*
X181571429Y-139880571D01*
X181476191Y-139928190D01*
X181095238Y-139928190D01*
X182095238Y-139880571D02*
X182428572Y-139880571D01*
X182571429Y-140404381D02*
X182095238Y-140404381D01*
X182095238Y-139404381D01*
X182571429Y-139404381D01*
X183333334Y-139880571D02*
X183000000Y-139880571D01*
X183000000Y-140404381D02*
X183000000Y-139404381D01*
X183476191Y-139404381D01*
X184000000Y-139404381D02*
X184000000Y-139642476D01*
X183761905Y-139547238D02*
X184000000Y-139642476D01*
X184238096Y-139547238D01*
X183857143Y-139832952D02*
X184000000Y-139642476D01*
X184142858Y-139832952D01*
X184761905Y-139404381D02*
X184761905Y-139642476D01*
X184523810Y-139547238D02*
X184761905Y-139642476D01*
X185000001Y-139547238D01*
X184619048Y-139832952D02*
X184761905Y-139642476D01*
X184904763Y-139832952D01*
X181666667Y-50404381D02*
X181333333Y-49928190D01*
X181095238Y-50404381D02*
X181095238Y-49404381D01*
X181476191Y-49404381D01*
X181571429Y-49452000D01*
X181619048Y-49499619D01*
X181666667Y-49594857D01*
X181666667Y-49737714D01*
X181619048Y-49832952D01*
X181571429Y-49880571D01*
X181476191Y-49928190D01*
X181095238Y-49928190D01*
X182095238Y-49880571D02*
X182428572Y-49880571D01*
X182571429Y-50404381D02*
X182095238Y-50404381D01*
X182095238Y-49404381D01*
X182571429Y-49404381D01*
X183333334Y-49880571D02*
X183000000Y-49880571D01*
X183000000Y-50404381D02*
X183000000Y-49404381D01*
X183476191Y-49404381D01*
X184000000Y-49404381D02*
X184000000Y-49642476D01*
X183761905Y-49547238D02*
X184000000Y-49642476D01*
X184238096Y-49547238D01*
X183857143Y-49832952D02*
X184000000Y-49642476D01*
X184142858Y-49832952D01*
X184761905Y-49404381D02*
X184761905Y-49642476D01*
X184523810Y-49547238D02*
X184761905Y-49642476D01*
X185000001Y-49547238D01*
X184619048Y-49832952D02*
X184761905Y-49642476D01*
X184904763Y-49832952D01*
X101666667Y-109782381D02*
X101666667Y-110496667D01*
X101619047Y-110639524D01*
X101523809Y-110734762D01*
X101380952Y-110782381D01*
X101285714Y-110782381D01*
X102666667Y-110782381D02*
X102095238Y-110782381D01*
X102380952Y-110782381D02*
X102380952Y-109782381D01*
X102285714Y-109925238D01*
X102190476Y-110020476D01*
X102095238Y-110068095D01*
X113666667Y-109782381D02*
X113666667Y-110496667D01*
X113619047Y-110639524D01*
X113523809Y-110734762D01*
X113380952Y-110782381D01*
X113285714Y-110782381D01*
X114095238Y-109877619D02*
X114142857Y-109830000D01*
X114238095Y-109782381D01*
X114476191Y-109782381D01*
X114571429Y-109830000D01*
X114619048Y-109877619D01*
X114666667Y-109972857D01*
X114666667Y-110068095D01*
X114619048Y-110210952D01*
X114047619Y-110782381D01*
X114666667Y-110782381D01*
X124666667Y-109782381D02*
X124666667Y-110496667D01*
X124619047Y-110639524D01*
X124523809Y-110734762D01*
X124380952Y-110782381D01*
X124285714Y-110782381D01*
X125047619Y-109782381D02*
X125666667Y-109782381D01*
X125333333Y-110163333D01*
X125476191Y-110163333D01*
X125571429Y-110210952D01*
X125619048Y-110258571D01*
X125666667Y-110353810D01*
X125666667Y-110591905D01*
X125619048Y-110687143D01*
X125571429Y-110734762D01*
X125476191Y-110782381D01*
X125190476Y-110782381D01*
X125095238Y-110734762D01*
X125047619Y-110687143D01*
X134666667Y-80122381D02*
X134666667Y-80836667D01*
X134619047Y-80979524D01*
X134523809Y-81074762D01*
X134380952Y-81122381D01*
X134285714Y-81122381D01*
X135571429Y-80455714D02*
X135571429Y-81122381D01*
X135333333Y-80074762D02*
X135095238Y-80789048D01*
X135714286Y-80789048D01*
X156666667Y-80122381D02*
X156666667Y-80836667D01*
X156619047Y-80979524D01*
X156523809Y-81074762D01*
X156380952Y-81122381D01*
X156285714Y-81122381D01*
X157619048Y-80122381D02*
X157142857Y-80122381D01*
X157095238Y-80598571D01*
X157142857Y-80550952D01*
X157238095Y-80503333D01*
X157476191Y-80503333D01*
X157571429Y-80550952D01*
X157619048Y-80598571D01*
X157666667Y-80693810D01*
X157666667Y-80931905D01*
X157619048Y-81027143D01*
X157571429Y-81074762D01*
X157476191Y-81122381D01*
X157238095Y-81122381D01*
X157142857Y-81074762D01*
X157095238Y-81027143D01*
X165666667Y-80122381D02*
X165666667Y-80836667D01*
X165619047Y-80979524D01*
X165523809Y-81074762D01*
X165380952Y-81122381D01*
X165285714Y-81122381D01*
X166571429Y-80122381D02*
X166380952Y-80122381D01*
X166285714Y-80170000D01*
X166238095Y-80217619D01*
X166142857Y-80360476D01*
X166095238Y-80550952D01*
X166095238Y-80931905D01*
X166142857Y-81027143D01*
X166190476Y-81074762D01*
X166285714Y-81122381D01*
X166476191Y-81122381D01*
X166571429Y-81074762D01*
X166619048Y-81027143D01*
X166666667Y-80931905D01*
X166666667Y-80693810D01*
X166619048Y-80598571D01*
X166571429Y-80550952D01*
X166476191Y-80503333D01*
X166285714Y-80503333D01*
X166190476Y-80550952D01*
X166142857Y-80598571D01*
X166095238Y-80693810D01*
X102122381Y-56333333D02*
X102836667Y-56333333D01*
X102979524Y-56380953D01*
X103074762Y-56476191D01*
X103122381Y-56619048D01*
X103122381Y-56714286D01*
X102122381Y-55952381D02*
X102122381Y-55285714D01*
X103122381Y-55714286D01*
X82301905Y-68096381D02*
X82968572Y-69096381D01*
X82968572Y-68096381D02*
X82301905Y-69096381D01*
X83301905Y-68810667D02*
X83778096Y-68810667D01*
X83206667Y-69096381D02*
X83540000Y-68096381D01*
X83873334Y-69096381D01*
X84730477Y-69096381D02*
X84159048Y-69096381D01*
X84444762Y-69096381D02*
X84444762Y-68096381D01*
X84349524Y-68239238D01*
X84254286Y-68334476D01*
X84159048Y-68382095D01*
X143484000Y-91353143D02*
X143531619Y-91400762D01*
X143484000Y-91448381D01*
X143436381Y-91400762D01*
X143484000Y-91353143D01*
X143484000Y-91448381D01*
M02*
