M48
;DRILL file {KiCad 4.0.7} date Mon Jun 18 16:02:11 2018
;FORMAT={-:-/ absolute / metric / decimal}
FMAT,2
METRIC,TZ
T1C1.000
T2C1.016
T3C1.520
%
G90
G05
M71
T1
X86.36Y-128.27
X86.36Y-130.81
X86.36Y-133.35
X86.36Y-135.89
X86.36Y-138.43
X86.36Y-140.97
X88.9Y-128.27
X88.9Y-130.81
X88.9Y-133.35
X88.9Y-135.89
X88.9Y-138.43
X88.9Y-140.97
X91.44Y-128.27
X91.44Y-130.81
X91.44Y-133.35
X91.44Y-135.89
X91.44Y-138.43
X91.44Y-140.97
X93.11Y-82.6
X93.11Y-85.14
X93.11Y-87.68
X93.11Y-90.22
X93.11Y-92.76
X93.11Y-95.3
X93.11Y-97.84
X93.11Y-100.38
X93.11Y-102.92
X93.11Y-105.46
X93.11Y-108.
X93.98Y-128.27
X93.98Y-130.81
X93.98Y-133.35
X93.98Y-135.89
X93.98Y-138.43
X93.98Y-140.97
X96.52Y-128.27
X96.52Y-130.81
X96.52Y-133.35
X96.52Y-135.89
X96.52Y-138.43
X96.52Y-140.97
X99.06Y-128.27
X99.06Y-130.81
X99.06Y-133.35
X99.06Y-135.89
X99.06Y-138.43
X99.06Y-140.97
X101.6Y-128.27
X101.6Y-130.81
X101.6Y-133.35
X101.6Y-135.89
X101.6Y-138.43
X101.6Y-140.97
X104.14Y-128.27
X104.14Y-130.81
X104.14Y-133.35
X104.14Y-135.89
X104.14Y-138.43
X104.14Y-140.97
X105.11Y-82.6
X105.11Y-85.14
X105.11Y-87.68
X105.11Y-90.22
X105.11Y-92.76
X105.11Y-95.3
X105.11Y-97.84
X105.11Y-100.38
X105.11Y-102.92
X105.11Y-105.46
X105.11Y-108.
X106.68Y-128.27
X106.68Y-130.81
X106.68Y-133.35
X106.68Y-135.89
X106.68Y-138.43
X106.68Y-140.97
X109.22Y-128.27
X109.22Y-130.81
X109.22Y-133.35
X109.22Y-135.89
X109.22Y-138.43
X109.22Y-140.97
X111.76Y-128.27
X111.76Y-130.81
X111.76Y-133.35
X111.76Y-135.89
X111.76Y-138.43
X111.76Y-140.97
X114.3Y-128.27
X114.3Y-130.81
X114.3Y-133.35
X114.3Y-135.89
X114.3Y-138.43
X114.3Y-140.97
X116.11Y-82.6
X116.11Y-85.14
X116.11Y-87.68
X116.11Y-90.22
X116.11Y-92.76
X116.11Y-95.3
X116.11Y-97.84
X116.11Y-100.38
X116.11Y-102.92
X116.11Y-105.46
X116.11Y-108.
X116.84Y-128.27
X116.84Y-130.81
X116.84Y-133.35
X116.84Y-135.89
X116.84Y-138.43
X116.84Y-140.97
X119.38Y-128.27
X119.38Y-130.81
X119.38Y-133.35
X119.38Y-135.89
X119.38Y-138.43
X119.38Y-140.97
X121.92Y-128.27
X121.92Y-130.81
X121.92Y-133.35
X121.92Y-135.89
X121.92Y-138.43
X121.92Y-140.97
X124.46Y-128.27
X124.46Y-130.81
X124.46Y-133.35
X124.46Y-135.89
X124.46Y-138.43
X124.46Y-140.97
X126.11Y-83.
X126.11Y-85.54
X126.11Y-88.08
X126.11Y-90.62
X126.11Y-93.16
X126.11Y-95.7
X126.11Y-98.24
X126.11Y-100.78
X126.11Y-103.32
X126.11Y-105.86
X126.11Y-108.4
X127.Y-128.27
X127.Y-130.81
X127.Y-133.35
X127.Y-135.89
X127.Y-138.43
X127.Y-140.97
X129.54Y-128.27
X129.54Y-130.81
X129.54Y-133.35
X129.54Y-135.89
X129.54Y-138.43
X129.54Y-140.97
X132.08Y-128.27
X132.08Y-130.81
X132.08Y-133.35
X132.08Y-135.89
X132.08Y-138.43
X132.08Y-140.97
X134.62Y-128.27
X134.62Y-130.81
X134.62Y-133.35
X134.62Y-135.89
X134.62Y-138.43
X134.62Y-140.97
X137.16Y-128.27
X137.16Y-130.81
X137.16Y-133.35
X137.16Y-135.89
X137.16Y-138.43
X137.16Y-140.97
X148.11Y-83.
X148.11Y-85.54
X148.11Y-88.08
X148.11Y-90.62
X148.11Y-93.16
X148.11Y-95.7
X148.11Y-98.24
X148.11Y-100.78
X148.11Y-103.32
X148.11Y-105.86
X148.11Y-108.4
X157.11Y-83.
X157.11Y-85.54
X157.11Y-88.08
X157.11Y-90.62
X157.11Y-93.16
X157.11Y-95.7
X157.11Y-98.24
X157.11Y-100.78
X157.11Y-103.32
X157.11Y-105.86
X157.11Y-108.4
T2
X90.906Y-72.2
X93.446Y-72.2
X95.986Y-72.2
X98.526Y-72.2
X100.05Y-120.46
X101.066Y-72.2
X102.59Y-120.46
X103.606Y-72.2
X105.13Y-120.46
X106.146Y-72.2
X107.67Y-120.46
X108.686Y-72.2
X110.21Y-120.46
X111.226Y-72.2
X112.75Y-120.46
X113.766Y-72.2
X115.29Y-120.46
X117.83Y-72.2
X117.83Y-120.46
X120.37Y-72.2
X122.91Y-72.2
X122.91Y-120.46
X125.45Y-72.2
X125.45Y-120.46
X127.99Y-72.2
X127.99Y-120.46
X130.53Y-72.2
X130.53Y-120.46
X133.07Y-72.2
X133.07Y-120.46
X135.61Y-72.2
X135.61Y-120.46
X135.737Y-92.52
X135.737Y-95.06
X135.737Y-97.6
X138.15Y-120.46
X138.277Y-92.52
X138.277Y-95.06
X138.277Y-97.6
X140.69Y-72.2
X140.69Y-120.46
X143.23Y-72.2
X145.77Y-72.2
X145.77Y-120.46
X148.31Y-72.2
X148.31Y-120.46
X150.85Y-72.2
X150.85Y-120.46
X153.39Y-72.2
X153.39Y-120.46
X155.93Y-72.2
X155.93Y-120.46
X158.47Y-72.2
X158.47Y-120.46
X161.01Y-120.46
X163.55Y-120.46
X166.09Y-72.2
X166.09Y-74.74
X166.09Y-77.28
X166.09Y-79.82
X166.09Y-82.36
X166.09Y-84.9
X166.09Y-87.44
X166.09Y-89.98
X166.09Y-92.52
X166.09Y-95.06
X166.09Y-97.6
X166.09Y-100.14
X166.09Y-102.68
X166.09Y-105.22
X166.09Y-107.76
X166.09Y-110.3
X166.09Y-112.84
X166.09Y-115.38
X168.63Y-72.2
X168.63Y-74.74
X168.63Y-77.28
X168.63Y-79.82
X168.63Y-82.36
X168.63Y-84.9
X168.63Y-87.44
X168.63Y-89.98
X168.63Y-92.52
X168.63Y-95.06
X168.63Y-97.6
X168.63Y-100.14
X168.63Y-102.68
X168.63Y-105.22
X168.63Y-107.76
X168.63Y-110.3
X168.63Y-112.84
X168.63Y-115.38
T3
X128.27Y-54.61
X133.35Y-54.61
X138.43Y-54.61
X143.51Y-54.61
T0
M30
