M48
;DRILL file {KiCad 4.0.7} date Mon Jun 18 14:33:53 2018
;FORMAT={-:-/ absolute / metric / decimal}
FMAT,2
METRIC,TZ
T1C1.000
T2C1.016
%
G90
G05
M71
T1
X91.44Y-129.54
X91.44Y-132.08
X91.44Y-134.62
X91.44Y-137.16
X91.44Y-139.7
X91.44Y-142.24
X93.98Y-129.54
X93.98Y-132.08
X93.98Y-134.62
X93.98Y-137.16
X93.98Y-139.7
X93.98Y-142.24
X96.52Y-129.54
X96.52Y-132.08
X96.52Y-134.62
X96.52Y-137.16
X96.52Y-139.7
X96.52Y-142.24
X99.06Y-129.54
X99.06Y-132.08
X99.06Y-134.62
X99.06Y-137.16
X99.06Y-139.7
X99.06Y-142.24
X101.6Y-129.54
X101.6Y-132.08
X101.6Y-134.62
X101.6Y-137.16
X101.6Y-139.7
X101.6Y-142.24
X102.Y-82.6
X102.Y-85.14
X102.Y-87.68
X102.Y-90.22
X102.Y-92.76
X102.Y-95.3
X102.Y-97.84
X102.Y-100.38
X102.Y-102.92
X102.Y-105.46
X102.Y-108.
X104.14Y-129.54
X104.14Y-132.08
X104.14Y-134.62
X104.14Y-137.16
X104.14Y-139.7
X104.14Y-142.24
X105.Y-56.
X106.68Y-129.54
X106.68Y-132.08
X106.68Y-134.62
X106.68Y-137.16
X106.68Y-139.7
X106.68Y-142.24
X107.54Y-56.
X109.22Y-129.54
X109.22Y-132.08
X109.22Y-134.62
X109.22Y-137.16
X109.22Y-139.7
X109.22Y-142.24
X110.08Y-56.
X111.76Y-129.54
X111.76Y-132.08
X111.76Y-134.62
X111.76Y-137.16
X111.76Y-139.7
X111.76Y-142.24
X112.62Y-56.
X114.Y-82.6
X114.Y-85.14
X114.Y-87.68
X114.Y-90.22
X114.Y-92.76
X114.Y-95.3
X114.Y-97.84
X114.Y-100.38
X114.Y-102.92
X114.Y-105.46
X114.Y-108.
X114.3Y-129.54
X114.3Y-132.08
X114.3Y-134.62
X114.3Y-137.16
X114.3Y-139.7
X114.3Y-142.24
X116.84Y-129.54
X116.84Y-132.08
X116.84Y-134.62
X116.84Y-137.16
X116.84Y-139.7
X116.84Y-142.24
X119.38Y-129.54
X119.38Y-132.08
X119.38Y-134.62
X119.38Y-137.16
X119.38Y-139.7
X119.38Y-142.24
X121.92Y-129.54
X121.92Y-132.08
X121.92Y-134.62
X121.92Y-137.16
X121.92Y-139.7
X121.92Y-142.24
X124.46Y-129.54
X124.46Y-132.08
X124.46Y-134.62
X124.46Y-137.16
X124.46Y-139.7
X124.46Y-142.24
X125.Y-82.6
X125.Y-85.14
X125.Y-87.68
X125.Y-90.22
X125.Y-92.76
X125.Y-95.3
X125.Y-97.84
X125.Y-100.38
X125.Y-102.92
X125.Y-105.46
X125.Y-108.
X127.Y-129.54
X127.Y-132.08
X127.Y-134.62
X127.Y-137.16
X127.Y-139.7
X127.Y-142.24
X129.54Y-129.54
X129.54Y-132.08
X129.54Y-134.62
X129.54Y-137.16
X129.54Y-139.7
X129.54Y-142.24
X132.08Y-129.54
X132.08Y-132.08
X132.08Y-134.62
X132.08Y-137.16
X132.08Y-139.7
X132.08Y-142.24
X134.62Y-129.54
X134.62Y-132.08
X134.62Y-134.62
X134.62Y-137.16
X134.62Y-139.7
X134.62Y-142.24
X135.Y-83.
X135.Y-85.54
X135.Y-88.08
X135.Y-90.62
X135.Y-93.16
X135.Y-95.7
X135.Y-98.24
X135.Y-100.78
X135.Y-103.32
X135.Y-105.86
X135.Y-108.4
X137.16Y-129.54
X137.16Y-132.08
X137.16Y-134.62
X137.16Y-137.16
X137.16Y-139.7
X137.16Y-142.24
X139.7Y-129.54
X139.7Y-132.08
X139.7Y-134.62
X139.7Y-137.16
X139.7Y-139.7
X139.7Y-142.24
X142.24Y-129.54
X142.24Y-132.08
X142.24Y-134.62
X142.24Y-137.16
X142.24Y-139.7
X142.24Y-142.24
X157.Y-83.
X157.Y-85.54
X157.Y-88.08
X157.Y-90.62
X157.Y-93.16
X157.Y-95.7
X157.Y-98.24
X157.Y-100.78
X157.Y-103.32
X157.Y-105.86
X157.Y-108.4
X166.Y-83.
X166.Y-85.54
X166.Y-88.08
X166.Y-90.62
X166.Y-93.16
X166.Y-95.7
X166.Y-98.24
X166.Y-100.78
X166.Y-103.32
X166.Y-105.86
X166.Y-108.4
T2
X99.796Y-72.2
X102.336Y-72.2
X104.876Y-72.2
X107.416Y-72.2
X108.94Y-120.46
X109.956Y-72.2
X111.48Y-120.46
X112.496Y-72.2
X114.02Y-120.46
X115.036Y-72.2
X116.56Y-120.46
X117.576Y-72.2
X119.1Y-120.46
X120.116Y-72.2
X121.64Y-120.46
X122.656Y-72.2
X124.18Y-120.46
X126.72Y-72.2
X126.72Y-120.46
X129.26Y-72.2
X131.8Y-72.2
X131.8Y-120.46
X134.34Y-72.2
X134.34Y-120.46
X136.88Y-72.2
X136.88Y-120.46
X139.42Y-72.2
X139.42Y-120.46
X141.96Y-72.2
X141.96Y-120.46
X144.5Y-72.2
X144.5Y-120.46
X144.627Y-92.52
X144.627Y-95.06
X144.627Y-97.6
X147.04Y-120.46
X147.167Y-92.52
X147.167Y-95.06
X147.167Y-97.6
X149.58Y-72.2
X149.58Y-120.46
X152.12Y-72.2
X154.66Y-72.2
X154.66Y-120.46
X157.2Y-72.2
X157.2Y-120.46
X159.74Y-72.2
X159.74Y-120.46
X162.28Y-72.2
X162.28Y-120.46
X164.82Y-72.2
X164.82Y-120.46
X167.36Y-72.2
X167.36Y-120.46
X169.9Y-120.46
X172.44Y-120.46
X174.98Y-72.2
X174.98Y-74.74
X174.98Y-77.28
X174.98Y-79.82
X174.98Y-82.36
X174.98Y-84.9
X174.98Y-87.44
X174.98Y-89.98
X174.98Y-92.52
X174.98Y-95.06
X174.98Y-97.6
X174.98Y-100.14
X174.98Y-102.68
X174.98Y-105.22
X174.98Y-107.76
X174.98Y-110.3
X174.98Y-112.84
X174.98Y-115.38
X177.52Y-72.2
X177.52Y-74.74
X177.52Y-77.28
X177.52Y-79.82
X177.52Y-82.36
X177.52Y-84.9
X177.52Y-87.44
X177.52Y-89.98
X177.52Y-92.52
X177.52Y-95.06
X177.52Y-97.6
X177.52Y-100.14
X177.52Y-102.68
X177.52Y-105.22
X177.52Y-107.76
X177.52Y-110.3
X177.52Y-112.84
X177.52Y-115.38
T0
M30
