G04 #@! TF.FileFunction,Copper,L1,Top,Signal*
%FSLAX46Y46*%
G04 Gerber Fmt 4.6, Leading zero omitted, Abs format (unit mm)*
G04 Created by KiCad (PCBNEW 4.0.7) date Mon Jun 18 14:33:48 2018*
%MOMM*%
%LPD*%
G01*
G04 APERTURE LIST*
%ADD10C,0.100000*%
%ADD11R,1.700000X1.700000*%
%ADD12C,5.000000*%
%ADD13O,1.700000X1.700000*%
%ADD14O,1.727200X1.727200*%
%ADD15C,0.254000*%
G04 APERTURE END LIST*
D10*
D11*
X99060000Y-142240000D03*
X99060000Y-139700000D03*
X99060000Y-134620000D03*
X99060000Y-137160000D03*
X96520000Y-137160000D03*
X96520000Y-134620000D03*
X96520000Y-139700000D03*
X96520000Y-142240000D03*
X96520000Y-129540000D03*
X96520000Y-132080000D03*
X99060000Y-132080000D03*
X99060000Y-129540000D03*
X93980000Y-129540000D03*
X93980000Y-132080000D03*
X91440000Y-132080000D03*
X91440000Y-129540000D03*
X91440000Y-142240000D03*
X91440000Y-139700000D03*
X91440000Y-134620000D03*
X91440000Y-137160000D03*
X93980000Y-137160000D03*
X93980000Y-134620000D03*
X93980000Y-139700000D03*
X93980000Y-142240000D03*
X101600000Y-137160000D03*
X101600000Y-134620000D03*
X101600000Y-139700000D03*
X101600000Y-142240000D03*
X101600000Y-129540000D03*
X101600000Y-132080000D03*
X121920000Y-142240000D03*
X121920000Y-139700000D03*
X121920000Y-134620000D03*
X121920000Y-137160000D03*
X119380000Y-137160000D03*
X119380000Y-134620000D03*
X119380000Y-139700000D03*
X119380000Y-142240000D03*
X119380000Y-129540000D03*
X119380000Y-132080000D03*
X121920000Y-132080000D03*
X121920000Y-129540000D03*
X116840000Y-129540000D03*
X116840000Y-132080000D03*
X114300000Y-132080000D03*
X114300000Y-129540000D03*
X114300000Y-142240000D03*
X114300000Y-139700000D03*
X114300000Y-134620000D03*
X114300000Y-137160000D03*
X116840000Y-137160000D03*
X116840000Y-134620000D03*
X116840000Y-139700000D03*
X116840000Y-142240000D03*
X106680000Y-142240000D03*
X106680000Y-139700000D03*
X106680000Y-134620000D03*
X106680000Y-137160000D03*
X104140000Y-137160000D03*
X104140000Y-134620000D03*
X104140000Y-139700000D03*
X104140000Y-142240000D03*
X104140000Y-129540000D03*
X104140000Y-132080000D03*
X106680000Y-132080000D03*
X106680000Y-129540000D03*
X111760000Y-129540000D03*
X111760000Y-132080000D03*
X109220000Y-132080000D03*
X109220000Y-129540000D03*
X109220000Y-142240000D03*
X109220000Y-139700000D03*
X109220000Y-134620000D03*
X109220000Y-137160000D03*
X111760000Y-137160000D03*
X111760000Y-134620000D03*
X111760000Y-139700000D03*
X111760000Y-142240000D03*
X132080000Y-142240000D03*
X132080000Y-139700000D03*
X132080000Y-134620000D03*
X132080000Y-137160000D03*
X129540000Y-137160000D03*
X129540000Y-134620000D03*
X129540000Y-139700000D03*
X129540000Y-142240000D03*
X129540000Y-129540000D03*
X129540000Y-132080000D03*
X132080000Y-132080000D03*
X132080000Y-129540000D03*
X127000000Y-129540000D03*
X127000000Y-132080000D03*
X124460000Y-132080000D03*
X124460000Y-129540000D03*
X124460000Y-142240000D03*
X124460000Y-139700000D03*
X124460000Y-134620000D03*
X124460000Y-137160000D03*
X127000000Y-137160000D03*
X127000000Y-134620000D03*
X127000000Y-139700000D03*
X127000000Y-142240000D03*
X137160000Y-142240000D03*
X137160000Y-139700000D03*
X137160000Y-134620000D03*
X137160000Y-137160000D03*
X134620000Y-137160000D03*
X134620000Y-134620000D03*
X134620000Y-139700000D03*
X134620000Y-142240000D03*
X134620000Y-129540000D03*
X134620000Y-132080000D03*
X137160000Y-132080000D03*
X137160000Y-129540000D03*
X142240000Y-129540000D03*
X142240000Y-132080000D03*
X139700000Y-132080000D03*
X139700000Y-129540000D03*
X139700000Y-142240000D03*
X139700000Y-139700000D03*
X139700000Y-134620000D03*
X139700000Y-137160000D03*
X142240000Y-137160000D03*
X142240000Y-134620000D03*
X142240000Y-139700000D03*
X142240000Y-142240000D03*
D12*
X77000000Y-53000000D03*
X77000000Y-143000000D03*
X183000000Y-143000000D03*
X183000000Y-53000000D03*
D11*
X102000000Y-108000000D03*
D13*
X102000000Y-105460000D03*
X102000000Y-102920000D03*
X102000000Y-100380000D03*
X102000000Y-97840000D03*
X102000000Y-95300000D03*
X102000000Y-92760000D03*
X102000000Y-90220000D03*
X102000000Y-87680000D03*
X102000000Y-85140000D03*
X102000000Y-82600000D03*
D11*
X114000000Y-108000000D03*
D13*
X114000000Y-105460000D03*
X114000000Y-102920000D03*
X114000000Y-100380000D03*
X114000000Y-97840000D03*
X114000000Y-95300000D03*
X114000000Y-92760000D03*
X114000000Y-90220000D03*
X114000000Y-87680000D03*
X114000000Y-85140000D03*
X114000000Y-82600000D03*
D11*
X125000000Y-108000000D03*
D13*
X125000000Y-105460000D03*
X125000000Y-102920000D03*
X125000000Y-100380000D03*
X125000000Y-97840000D03*
X125000000Y-95300000D03*
X125000000Y-92760000D03*
X125000000Y-90220000D03*
X125000000Y-87680000D03*
X125000000Y-85140000D03*
X125000000Y-82600000D03*
D11*
X135000000Y-83000000D03*
D13*
X135000000Y-85540000D03*
X135000000Y-88080000D03*
X135000000Y-90620000D03*
X135000000Y-93160000D03*
X135000000Y-95700000D03*
X135000000Y-98240000D03*
X135000000Y-100780000D03*
X135000000Y-103320000D03*
X135000000Y-105860000D03*
X135000000Y-108400000D03*
D11*
X157000000Y-83000000D03*
D13*
X157000000Y-85540000D03*
X157000000Y-88080000D03*
X157000000Y-90620000D03*
X157000000Y-93160000D03*
X157000000Y-95700000D03*
X157000000Y-98240000D03*
X157000000Y-100780000D03*
X157000000Y-103320000D03*
X157000000Y-105860000D03*
X157000000Y-108400000D03*
D11*
X166000000Y-83000000D03*
D13*
X166000000Y-85540000D03*
X166000000Y-88080000D03*
X166000000Y-90620000D03*
X166000000Y-93160000D03*
X166000000Y-95700000D03*
X166000000Y-98240000D03*
X166000000Y-100780000D03*
X166000000Y-103320000D03*
X166000000Y-105860000D03*
X166000000Y-108400000D03*
D11*
X105000000Y-56000000D03*
D13*
X107540000Y-56000000D03*
X110080000Y-56000000D03*
X112620000Y-56000000D03*
D14*
X144627000Y-97600000D03*
X147167000Y-97600000D03*
X147167000Y-95060000D03*
X144627000Y-95060000D03*
X147167000Y-92520000D03*
X131800000Y-120460000D03*
X126720000Y-120460000D03*
X124180000Y-120460000D03*
X121640000Y-120460000D03*
X119100000Y-120460000D03*
X116560000Y-120460000D03*
X114020000Y-120460000D03*
X111480000Y-120460000D03*
X167360000Y-72200000D03*
X164820000Y-72200000D03*
X162280000Y-72200000D03*
X159740000Y-72200000D03*
X157200000Y-72200000D03*
X154660000Y-72200000D03*
X152120000Y-72200000D03*
X149580000Y-72200000D03*
X144500000Y-72200000D03*
X141960000Y-72200000D03*
X139420000Y-72200000D03*
X136880000Y-72200000D03*
X134340000Y-72200000D03*
X131800000Y-72200000D03*
X129260000Y-72200000D03*
X126720000Y-72200000D03*
X107416000Y-72200000D03*
X122656000Y-72200000D03*
X120116000Y-72200000D03*
X117576000Y-72200000D03*
X99796000Y-72200000D03*
X102336000Y-72200000D03*
X104876000Y-72200000D03*
X109956000Y-72200000D03*
X112496000Y-72200000D03*
X115036000Y-72200000D03*
X108940000Y-120460000D03*
X134340000Y-120460000D03*
X136880000Y-120460000D03*
X139420000Y-120460000D03*
X141960000Y-120460000D03*
X144500000Y-120460000D03*
X147040000Y-120460000D03*
X149580000Y-120460000D03*
X154660000Y-120460000D03*
X157200000Y-120460000D03*
X159740000Y-120460000D03*
X162280000Y-120460000D03*
X164820000Y-120460000D03*
X167360000Y-120460000D03*
X169900000Y-120460000D03*
X172440000Y-120460000D03*
X174980000Y-72200000D03*
X177520000Y-72200000D03*
X174980000Y-74740000D03*
X177520000Y-74740000D03*
X174980000Y-77280000D03*
X177520000Y-77280000D03*
X174980000Y-79820000D03*
X177520000Y-79820000D03*
X174980000Y-82360000D03*
X177520000Y-82360000D03*
X174980000Y-84900000D03*
X177520000Y-84900000D03*
X174980000Y-87440000D03*
X177520000Y-87440000D03*
X174980000Y-89980000D03*
X177520000Y-89980000D03*
X174980000Y-92520000D03*
X177520000Y-92520000D03*
X174980000Y-95060000D03*
X177520000Y-95060000D03*
X174980000Y-97600000D03*
X177520000Y-97600000D03*
X174980000Y-100140000D03*
X177520000Y-100140000D03*
X174980000Y-102680000D03*
X177520000Y-102680000D03*
X174980000Y-105220000D03*
X177520000Y-105220000D03*
X174980000Y-107760000D03*
X177520000Y-107760000D03*
X174980000Y-110300000D03*
X177520000Y-110300000D03*
X174980000Y-112840000D03*
X177520000Y-112840000D03*
X174980000Y-115380000D03*
X177520000Y-115380000D03*
X144627000Y-92520000D03*
D15*
X102000000Y-105460000D02*
X96000000Y-99460000D01*
X96000000Y-99460000D02*
X96000000Y-80000000D01*
X96000000Y-80000000D02*
X89000000Y-73000000D01*
X89000000Y-73000000D02*
X89000000Y-66000000D01*
X89000000Y-66000000D02*
X91000000Y-64000000D01*
X91000000Y-64000000D02*
X131220000Y-64000000D01*
X131220000Y-64000000D02*
X139420000Y-72200000D01*
X102000000Y-102920000D02*
X97000000Y-97920000D01*
X97000000Y-97920000D02*
X97000000Y-80000000D01*
X97000000Y-80000000D02*
X90000000Y-73000000D01*
X90000000Y-73000000D02*
X90000000Y-67000000D01*
X92000000Y-65000000D02*
X129680000Y-65000000D01*
X90000000Y-67000000D02*
X92000000Y-65000000D01*
X129680000Y-65000000D02*
X136880000Y-72200000D01*
X102000000Y-100380000D02*
X98000000Y-96380000D01*
X98000000Y-96380000D02*
X98000000Y-80000000D01*
X92000000Y-66000000D02*
X128140000Y-66000000D01*
X128140000Y-66000000D02*
X134340000Y-72200000D01*
X98000000Y-80000000D02*
X91000000Y-73000000D01*
X91000000Y-73000000D02*
X91000000Y-67000000D01*
X91000000Y-67000000D02*
X92000000Y-66000000D01*
X93000000Y-67000000D02*
X126600000Y-67000000D01*
X126600000Y-67000000D02*
X131800000Y-72200000D01*
X92000000Y-68000000D02*
X93000000Y-67000000D01*
X92000000Y-73000000D02*
X92000000Y-68000000D01*
X99000000Y-80000000D02*
X92000000Y-73000000D01*
X99000000Y-95000000D02*
X99000000Y-80000000D01*
X100990001Y-96990001D02*
X99000000Y-95000000D01*
X102000000Y-97840000D02*
X101150001Y-96990001D01*
X101150001Y-96990001D02*
X100990001Y-96990001D01*
X102000000Y-95300000D02*
X100000000Y-93300000D01*
X93000000Y-68000000D02*
X125060000Y-68000000D01*
X125060000Y-68000000D02*
X128396401Y-71336401D01*
X128396401Y-71336401D02*
X129260000Y-72200000D01*
X99188057Y-78545989D02*
X99091959Y-78545989D01*
X100000000Y-93300000D02*
X100000000Y-79357932D01*
X100000000Y-79357932D02*
X99188057Y-78545989D01*
X92545970Y-68454030D02*
X93000000Y-68000000D01*
X92545970Y-72000000D02*
X92545970Y-68454030D01*
X99091959Y-78545989D02*
X92545970Y-72000000D01*
X106000000Y-110000000D02*
X113908022Y-117908022D01*
X106000000Y-96760000D02*
X106000000Y-110000000D01*
X130936401Y-119596401D02*
X131800000Y-120460000D01*
X113908022Y-117908022D02*
X129248022Y-117908022D01*
X102000000Y-92760000D02*
X106000000Y-96760000D01*
X129248022Y-117908022D02*
X130936401Y-119596401D01*
X133476401Y-119596401D02*
X134340000Y-120460000D01*
X131334011Y-117454011D02*
X133476401Y-119596401D01*
X102000000Y-90220000D02*
X107000000Y-95220000D01*
X107000000Y-110000000D02*
X114454011Y-117454011D01*
X114454011Y-117454011D02*
X131334011Y-117454011D01*
X107000000Y-95220000D02*
X107000000Y-110000000D01*
X125856401Y-71336401D02*
X126720000Y-72200000D01*
X123520000Y-69000000D02*
X125856401Y-71336401D01*
X94000000Y-69000000D02*
X123520000Y-69000000D01*
X93000000Y-70000000D02*
X94000000Y-69000000D01*
X93000000Y-71811962D02*
X93000000Y-70000000D01*
X99376114Y-78091978D02*
X99280016Y-78091978D01*
X100822999Y-79538863D02*
X99376114Y-78091978D01*
X102000000Y-87680000D02*
X100822999Y-86502999D01*
X100822999Y-86502999D02*
X100822999Y-79538863D01*
X99280016Y-78091978D02*
X93000000Y-71811962D01*
X114000000Y-105460000D02*
X121412000Y-98048000D01*
X121412000Y-98048000D02*
X121412000Y-73444000D01*
X121412000Y-73444000D02*
X122656000Y-72200000D01*
X120142000Y-96778000D02*
X120116000Y-96752000D01*
X120116000Y-96752000D02*
X120116000Y-72200000D01*
X114000000Y-102920000D02*
X120142000Y-96778000D01*
X119126000Y-94488000D02*
X119126000Y-73750000D01*
X119126000Y-73750000D02*
X117576000Y-72200000D01*
X114849999Y-98764001D02*
X119126000Y-94488000D01*
X114000000Y-100380000D02*
X114849999Y-99530001D01*
X114849999Y-99530001D02*
X114849999Y-98764001D01*
X114000000Y-97840000D02*
X117856000Y-93984000D01*
X117856000Y-93984000D02*
X117856000Y-75020000D01*
X117856000Y-75020000D02*
X115036000Y-72200000D01*
X116840000Y-92202000D02*
X116840000Y-76544000D01*
X116840000Y-76544000D02*
X112496000Y-72200000D01*
X114849999Y-94192001D02*
X116840000Y-92202000D01*
X114000000Y-95300000D02*
X114849999Y-94450001D01*
X114849999Y-94450001D02*
X114849999Y-94192001D01*
X134187303Y-116545989D02*
X136880000Y-119238686D01*
X120188057Y-116545989D02*
X134187303Y-116545989D01*
X111000000Y-95760000D02*
X111000000Y-107357932D01*
X114000000Y-92760000D02*
X111000000Y-95760000D01*
X136880000Y-119238686D02*
X136880000Y-120460000D01*
X111000000Y-107357932D02*
X120188057Y-116545989D01*
X136000000Y-122000000D02*
X137880000Y-122000000D01*
X137880000Y-122000000D02*
X139420000Y-120460000D01*
X135689399Y-121689399D02*
X136000000Y-122000000D01*
X133000000Y-117000000D02*
X135689399Y-119689399D01*
X135689399Y-119689399D02*
X135689399Y-121689399D01*
X116000000Y-117000000D02*
X133000000Y-117000000D01*
X110000000Y-111000000D02*
X116000000Y-117000000D01*
X114000000Y-90220000D02*
X110000000Y-94220000D01*
X110000000Y-94220000D02*
X110000000Y-111000000D01*
X112680000Y-87680000D02*
X109956000Y-84956000D01*
X109956000Y-84956000D02*
X109956000Y-72200000D01*
X114000000Y-87680000D02*
X112680000Y-87680000D01*
X131500000Y-77000000D02*
X172720000Y-77000000D01*
X172720000Y-77000000D02*
X174980000Y-74740000D01*
X129000000Y-79500000D02*
X131500000Y-77000000D01*
X129000000Y-101460000D02*
X129000000Y-79500000D01*
X125000000Y-105460000D02*
X129000000Y-101460000D01*
X173500000Y-73500000D02*
X176280000Y-73500000D01*
X176280000Y-73500000D02*
X177520000Y-74740000D01*
X172500000Y-74500000D02*
X173500000Y-73500000D01*
X171000000Y-74500000D02*
X172500000Y-74500000D01*
X169000000Y-76500000D02*
X171000000Y-74500000D01*
X131000000Y-76500000D02*
X169000000Y-76500000D01*
X128500000Y-79000000D02*
X131000000Y-76500000D01*
X125000000Y-102920000D02*
X128500000Y-99420000D01*
X128500000Y-99420000D02*
X128500000Y-79000000D01*
X178000000Y-76000000D02*
X176260000Y-76000000D01*
X176260000Y-76000000D02*
X174980000Y-77280000D01*
X181000000Y-73000000D02*
X178000000Y-76000000D01*
X181000000Y-69000000D02*
X181000000Y-73000000D01*
X178500000Y-66500000D02*
X181000000Y-69000000D01*
X153517910Y-66500000D02*
X178500000Y-66500000D01*
X129500000Y-76000000D02*
X144388294Y-76000000D01*
X144388294Y-76000000D02*
X148389399Y-71998895D01*
X148389399Y-71998895D02*
X148389399Y-71628511D01*
X148389399Y-71628511D02*
X153517910Y-66500000D01*
X128000000Y-77500000D02*
X129500000Y-76000000D01*
X128000000Y-97380000D02*
X128000000Y-77500000D01*
X125000000Y-100380000D02*
X128000000Y-97380000D01*
X147935389Y-71422543D02*
X153357932Y-66000000D01*
X182000000Y-69000000D02*
X182000000Y-72800000D01*
X178383599Y-76416401D02*
X177520000Y-77280000D01*
X125000000Y-97840000D02*
X127500000Y-95340000D01*
X182000000Y-72800000D02*
X178383599Y-76416401D01*
X153357932Y-66000000D02*
X179000000Y-66000000D01*
X147935388Y-71810838D02*
X147935389Y-71422543D01*
X144246226Y-75500000D02*
X147935388Y-71810838D01*
X127500000Y-95340000D02*
X127500000Y-76500000D01*
X179000000Y-66000000D02*
X182000000Y-69000000D01*
X128500000Y-75500000D02*
X144246226Y-75500000D01*
X127500000Y-76500000D02*
X128500000Y-75500000D01*
X175843599Y-78956401D02*
X174980000Y-79820000D01*
X127000000Y-75500000D02*
X127500000Y-75000000D01*
X182500000Y-74000000D02*
X178000000Y-78500000D01*
X153215864Y-65500000D02*
X179500000Y-65500000D01*
X178000000Y-78500000D02*
X176300000Y-78500000D01*
X125000000Y-95300000D02*
X127000000Y-93300000D01*
X176300000Y-78500000D02*
X175843599Y-78956401D01*
X182500000Y-68500000D02*
X182500000Y-74000000D01*
X147481379Y-71234485D02*
X153215864Y-65500000D01*
X147481378Y-71622780D02*
X147481379Y-71234485D01*
X144104158Y-75000000D02*
X147481378Y-71622780D01*
X127000000Y-93300000D02*
X127000000Y-75500000D01*
X179500000Y-65500000D02*
X182500000Y-68500000D01*
X127500000Y-75000000D02*
X144104158Y-75000000D01*
X141960000Y-119817932D02*
X141960000Y-120460000D01*
X133642068Y-111500000D02*
X141960000Y-119817932D01*
X123000000Y-94760000D02*
X123000000Y-111500000D01*
X123000000Y-111500000D02*
X133642068Y-111500000D01*
X125000000Y-92760000D02*
X123000000Y-94760000D01*
X141500000Y-122000000D02*
X142960000Y-122000000D01*
X142960000Y-122000000D02*
X144500000Y-120460000D01*
X140769399Y-121269399D02*
X141500000Y-122000000D01*
X134500000Y-113000000D02*
X140769399Y-119269399D01*
X140769399Y-119269399D02*
X140769399Y-121269399D01*
X123500000Y-113000000D02*
X134500000Y-113000000D01*
X122500000Y-112000000D02*
X123500000Y-113000000D01*
X122500000Y-92720000D02*
X122500000Y-112000000D01*
X125000000Y-90220000D02*
X122500000Y-92720000D01*
X125000000Y-87680000D02*
X122000000Y-84680000D01*
X122000000Y-84680000D02*
X122000000Y-75500000D01*
X122000000Y-75500000D02*
X123000000Y-74500000D01*
X180000000Y-65000000D02*
X183134000Y-68134000D01*
X178383599Y-78956401D02*
X177520000Y-79820000D01*
X123000000Y-74500000D02*
X143962090Y-74500000D01*
X143962090Y-74500000D02*
X147027368Y-71434722D01*
X183134000Y-68134000D02*
X183134000Y-74206000D01*
X147027368Y-71434722D02*
X147027369Y-71046427D01*
X147027369Y-71046427D02*
X153073796Y-65000000D01*
X153073796Y-65000000D02*
X180000000Y-65000000D01*
X183134000Y-74206000D02*
X178383599Y-78956401D01*
X174116401Y-81496401D02*
X174980000Y-82360000D01*
X174116401Y-81474333D02*
X174116401Y-81496401D01*
X138500000Y-82040000D02*
X138500000Y-80500000D01*
X135000000Y-85540000D02*
X138500000Y-82040000D01*
X170142068Y-77500000D02*
X174116401Y-81474333D01*
X141500000Y-77500000D02*
X170142068Y-77500000D01*
X138500000Y-80500000D02*
X141500000Y-77500000D01*
X176329399Y-83550601D02*
X176656401Y-83223599D01*
X174272669Y-83550601D02*
X176329399Y-83550601D01*
X173500000Y-81500000D02*
X173500000Y-82777932D01*
X142000000Y-78000000D02*
X170000000Y-78000000D01*
X173500000Y-82777932D02*
X174272669Y-83550601D01*
X139000000Y-81000000D02*
X142000000Y-78000000D01*
X176656401Y-83223599D02*
X177520000Y-82360000D01*
X139000000Y-83000000D02*
X139000000Y-81000000D01*
X170000000Y-78000000D02*
X173500000Y-81500000D01*
X136985389Y-86094611D02*
X136985389Y-85014611D01*
X136985389Y-85014611D02*
X139000000Y-83000000D01*
X135000000Y-88080000D02*
X136985389Y-86094611D01*
X168616800Y-78536800D02*
X174980000Y-84900000D01*
X142163800Y-78536800D02*
X168616800Y-78536800D01*
X139623800Y-81076800D02*
X142163800Y-78536800D01*
X139623800Y-83083400D02*
X139623800Y-81076800D01*
X137439400Y-85267800D02*
X139623800Y-83083400D01*
X135000000Y-90620000D02*
X137439400Y-88180600D01*
X137439400Y-88180600D02*
X137439400Y-85267800D01*
X176170601Y-86249399D02*
X176656401Y-85763599D01*
X174006399Y-86249399D02*
X176170601Y-86249399D01*
X168263736Y-79171800D02*
X173789399Y-84697463D01*
X173789399Y-86032399D02*
X174006399Y-86249399D01*
X140360400Y-81076800D02*
X142265400Y-79171800D01*
X140360400Y-83007200D02*
X140360400Y-81076800D01*
X142265400Y-79171800D02*
X168263736Y-79171800D01*
X135000000Y-93160000D02*
X137972800Y-90187200D01*
X176656401Y-85763599D02*
X177520000Y-84900000D01*
X173789399Y-84697463D02*
X173789399Y-86032399D01*
X137972800Y-90187200D02*
X137972800Y-85394800D01*
X137972800Y-85394800D02*
X140360400Y-83007200D01*
X173758686Y-87440000D02*
X174980000Y-87440000D01*
X173335390Y-87016704D02*
X173758686Y-87440000D01*
X173335390Y-84885522D02*
X173335390Y-87016704D01*
X140817600Y-83362800D02*
X140817600Y-81280000D01*
X135000000Y-95700000D02*
X138455400Y-92244600D01*
X138455400Y-85725000D02*
X140817600Y-83362800D01*
X142468600Y-79629000D02*
X168078868Y-79629000D01*
X168078868Y-79629000D02*
X173335390Y-84885522D01*
X140817600Y-81280000D02*
X142468600Y-79629000D01*
X138455400Y-92244600D02*
X138455400Y-85725000D01*
X141681200Y-118516400D02*
X145096400Y-118516400D01*
X145096400Y-118516400D02*
X147040000Y-120460000D01*
X131064000Y-107899200D02*
X141681200Y-118516400D01*
X131064000Y-102082600D02*
X131064000Y-107899200D01*
X134056601Y-99089999D02*
X131064000Y-102082600D01*
X135000000Y-98240000D02*
X134150001Y-99089999D01*
X134150001Y-99089999D02*
X134056601Y-99089999D01*
X135000000Y-100780000D02*
X133797919Y-100780000D01*
X133797919Y-100780000D02*
X132791200Y-101786719D01*
X132791200Y-108813600D02*
X141284601Y-117307001D01*
X132791200Y-101786719D02*
X132791200Y-108813600D01*
X141284601Y-117307001D02*
X146427001Y-117307001D01*
X146427001Y-117307001D02*
X148716401Y-119596401D01*
X148716401Y-119596401D02*
X149580000Y-120460000D01*
X176877932Y-87440000D02*
X177520000Y-87440000D01*
X175687331Y-88630601D02*
X176877932Y-87440000D01*
X173720601Y-88630601D02*
X175687331Y-88630601D01*
X172881379Y-87791379D02*
X173720601Y-88630601D01*
X172881379Y-85073579D02*
X172881379Y-87791379D01*
X142443200Y-80467200D02*
X168275000Y-80467200D01*
X168275000Y-80467200D02*
X172881379Y-85073579D01*
X141274800Y-81635600D02*
X142443200Y-80467200D01*
X141274800Y-97045200D02*
X141274800Y-81635600D01*
X135000000Y-103320000D02*
X141274800Y-97045200D01*
X178267201Y-88630601D02*
X176329399Y-88630601D01*
X185394600Y-95758000D02*
X178267201Y-88630601D01*
X156057119Y-127746051D02*
X180264290Y-127746050D01*
X185394600Y-122615740D02*
X185394600Y-95758000D01*
X180264290Y-127746050D02*
X185394600Y-122615740D01*
X175843599Y-89116401D02*
X174980000Y-89980000D01*
X176329399Y-88630601D02*
X175843599Y-89116401D01*
X151069748Y-91470252D02*
X151069748Y-122758686D01*
X151069748Y-122758686D02*
X156057119Y-127746051D01*
X157000000Y-85540000D02*
X151069748Y-91470252D01*
X157000000Y-88080000D02*
X151523758Y-93556242D01*
X178741314Y-89980000D02*
X177520000Y-89980000D01*
X151523758Y-122570628D02*
X156245175Y-127292041D01*
X184934211Y-96172897D02*
X178741314Y-89980000D01*
X151523758Y-93556242D02*
X151523758Y-122570628D01*
X184934211Y-122434061D02*
X184934211Y-96172897D01*
X156245175Y-127292041D02*
X180076232Y-127292040D01*
X180076232Y-127292040D02*
X184934211Y-122434061D01*
X151977768Y-95642232D02*
X151977768Y-122382570D01*
X157000000Y-90620000D02*
X151977768Y-95642232D01*
X175843599Y-91656401D02*
X174980000Y-92520000D01*
X176170601Y-91329399D02*
X175843599Y-91656401D01*
X184480200Y-96748600D02*
X179060999Y-91329399D01*
X156433231Y-126838031D02*
X179888174Y-126838030D01*
X179888174Y-126838030D02*
X184480200Y-122246004D01*
X179060999Y-91329399D02*
X176170601Y-91329399D01*
X184480200Y-122246004D02*
X184480200Y-96748600D01*
X151977768Y-122382570D02*
X156433231Y-126838031D01*
X152431778Y-97728222D02*
X152431778Y-122194512D01*
X183559421Y-122524713D02*
X183559420Y-97338106D01*
X156621287Y-126384021D02*
X179700116Y-126384020D01*
X157000000Y-93160000D02*
X152431778Y-97728222D01*
X183559420Y-97338106D02*
X178741314Y-92520000D01*
X178741314Y-92520000D02*
X177520000Y-92520000D01*
X179700116Y-126384020D02*
X183559421Y-122524713D01*
X152431778Y-122194512D02*
X156621287Y-126384021D01*
X175843599Y-94196401D02*
X174980000Y-95060000D01*
X179512058Y-125930010D02*
X183105411Y-122336657D01*
X176170601Y-93869399D02*
X175843599Y-94196401D01*
X183105410Y-98040810D02*
X178933999Y-93869399D01*
X152885790Y-122006458D02*
X156809343Y-125930011D01*
X156809343Y-125930011D02*
X179512058Y-125930010D01*
X183105411Y-122336657D02*
X183105410Y-98040810D01*
X157000000Y-95700000D02*
X152885789Y-99814211D01*
X178933999Y-93869399D02*
X176170601Y-93869399D01*
X152885789Y-99814211D02*
X152885790Y-122006458D01*
X158140400Y-121818400D02*
X156018400Y-121818400D01*
X156018400Y-121818400D02*
X154660000Y-120460000D01*
X158390601Y-121568199D02*
X158140400Y-121818400D01*
X159385000Y-118618000D02*
X158390601Y-119612399D01*
X158390601Y-119612399D02*
X158390601Y-121568199D01*
X159385000Y-100625000D02*
X159385000Y-118618000D01*
X157000000Y-98240000D02*
X159385000Y-100625000D01*
X156768800Y-118643400D02*
X157200000Y-119074600D01*
X157200000Y-119074600D02*
X157200000Y-120460000D01*
X156768800Y-117271800D02*
X156768800Y-118643400D01*
X158927800Y-115112800D02*
X156768800Y-117271800D01*
X158927800Y-101505719D02*
X158927800Y-115112800D01*
X157000000Y-100780000D02*
X158202081Y-100780000D01*
X158202081Y-100780000D02*
X158927800Y-101505719D01*
X153339800Y-106980200D02*
X153339800Y-121818400D01*
X179324000Y-125476000D02*
X182651400Y-122148600D01*
X156997400Y-125476000D02*
X179324000Y-125476000D01*
X157000000Y-103320000D02*
X153339800Y-106980200D01*
X153339800Y-121818400D02*
X156997400Y-125476000D01*
X182651400Y-122148600D02*
X182651400Y-100191400D01*
X182651400Y-100191400D02*
X177520000Y-95060000D01*
X173101000Y-91438919D02*
X173101000Y-95721000D01*
X173101000Y-95721000D02*
X174980000Y-97600000D01*
X166000000Y-85540000D02*
X167202081Y-85540000D01*
X167202081Y-85540000D02*
X173101000Y-91438919D01*
X176656401Y-98463599D02*
X177520000Y-97600000D01*
X176329399Y-98790601D02*
X176656401Y-98463599D01*
X174272669Y-98790601D02*
X176329399Y-98790601D01*
X172466000Y-96983932D02*
X174272669Y-98790601D01*
X172466000Y-91846400D02*
X172466000Y-96983932D01*
X168699600Y-88080000D02*
X172466000Y-91846400D01*
X166000000Y-88080000D02*
X168699600Y-88080000D01*
X171780200Y-92430600D02*
X171780200Y-96940200D01*
X171780200Y-96940200D02*
X174980000Y-100140000D01*
X169969600Y-90620000D02*
X171780200Y-92430600D01*
X166000000Y-90620000D02*
X169969600Y-90620000D01*
X166000000Y-93160000D02*
X174170601Y-101330601D01*
X174170601Y-101330601D02*
X176329399Y-101330601D01*
X176329399Y-101330601D02*
X177520000Y-100140000D01*
X166000000Y-95700000D02*
X172980000Y-102680000D01*
X172980000Y-102680000D02*
X174980000Y-102680000D01*
X161391600Y-101646319D02*
X161391600Y-118808400D01*
X161391600Y-118808400D02*
X159740000Y-120460000D01*
X166000000Y-98240000D02*
X164797919Y-98240000D01*
X164797919Y-98240000D02*
X161391600Y-101646319D01*
X166000000Y-100780000D02*
X162280000Y-104500000D01*
X162280000Y-104500000D02*
X162280000Y-120460000D01*
X166000000Y-103320000D02*
X167202081Y-103320000D01*
X167752682Y-103870601D02*
X176329399Y-103870601D01*
X167202081Y-103320000D02*
X167752682Y-103870601D01*
X176329399Y-103870601D02*
X176656401Y-103543599D01*
X176656401Y-103543599D02*
X177520000Y-102680000D01*
X110080000Y-56000000D02*
X112620000Y-56000000D01*
M02*
